<svg width="10" height="10" viewBox="0 0 10 10" fill="none" xmlns="http://www.w3.org/2000/svg">
<path d="M10.0001 5.00053C10.0001 5.46137 9.9601 5.83387 9.49926 5.83387H5.83339V9.49974C5.83339 9.95975 5.46089 10.0006 5.00005 10.0006C4.53921 10.0006 4.16671 9.95975 4.16671 9.49974V5.83387H0.500838C0.0408336 5.83387 0 5.46137 0 5.00053C0 4.5397 0.0408336 4.16719 0.500838 4.16719H4.16671V0.501326C4.16671 0.0404885 4.53921 0.000488281 5.00005 0.000488281C5.46089 0.000488281 5.83339 0.0404885 5.83339 0.501326V4.16719H9.49926C9.9601 4.16719 10.0001 4.5397 10.0001 5.00053Z" fill="#1DCDDC"/>
</svg>
