<svg width="127" height="35" viewBox="0 0 127 35" fill="none" xmlns="http://www.w3.org/2000/svg">
<path d="M42.0555 32.6959C40.5164 34.1934 38.5197 34.9005 36.3982 34.9005C30.8657 34.9005 28.4946 31.0735 28.4946 27.2049C28.453 23.2948 30.9905 19.343 36.3982 19.343C38.4365 19.343 40.35 20.0918 41.8891 21.6309L40.0172 23.4612C39.0188 22.5044 37.7293 22.0469 36.3982 22.0469C32.7792 22.0469 31.2401 24.7507 31.2401 27.2466C31.2817 29.7008 32.696 32.3215 36.3982 32.3215C37.6877 32.3215 39.1853 31.7807 40.142 30.824L42.0555 32.6959Z" fill="#045F87"/>
<path d="M56.5304 19.6758V28.2449C56.5304 32.6543 53.8266 34.9005 50.0828 34.9005C46.5054 34.9005 43.4688 32.7375 43.4688 28.2449V19.6758H46.2558V28.2449C46.2558 30.9488 47.7949 32.3631 50.1244 32.3631C52.4539 32.3631 53.785 30.824 53.785 28.2449V19.6758H56.5304Z" fill="#045F87"/>
<path d="M72.5054 34.5681H69.1776L64.8099 29.5764H62.106V34.5681H59.2773V19.6345C61.6484 19.6345 64.0195 19.6761 66.3905 19.6761C69.9263 19.7177 71.7567 22.0472 71.7567 24.6262C71.7567 26.6645 70.7999 28.7444 67.9713 29.3268L72.5054 34.4433V34.5681ZM62.106 22.2968V27.0805H66.3905C68.1792 27.0805 68.9696 25.8742 68.9696 24.7094C68.9696 23.5447 68.1792 22.3384 66.3905 22.3384H62.106V22.2968Z" fill="#045F87"/>
<path d="M84.2774 31.7807H76.457L75.1675 34.6094H72.1309L78.8281 19.6758H81.9063L88.6035 34.6094H85.5253L84.2774 31.7807ZM80.3672 22.7956L77.5802 29.1601H83.1127L80.3672 22.7956Z" fill="#045F87"/>
<path d="M91.3066 22.2136H86.5645V19.6345C90.8906 19.6345 94.5096 19.6345 98.8358 19.6345V22.2136H94.0936V34.5681H91.265V22.2136H91.3066Z" fill="#045F87"/>
<path d="M111.69 34.5681H100.5C100.5 29.618 100.5 24.6262 100.5 19.6345H111.69V22.38H103.329V25.8326H111.399V28.4532H103.329V31.8227H111.69V34.5681Z" fill="#045F87"/>
<path d="M126.999 26.9971C127.082 30.7825 124.752 34.6095 119.553 34.6095C117.722 34.6095 115.518 34.6095 113.688 34.6095V19.6759C115.518 19.6759 117.722 19.6759 119.553 19.6759C124.628 19.6343 126.916 23.2949 126.999 26.9971ZM116.475 31.864H119.553C122.964 31.864 124.295 29.4098 124.212 26.9555C124.128 24.626 122.797 22.2966 119.553 22.2966H116.475V31.864Z" fill="#045F87"/>
<path fill-rule="evenodd" clip-rule="evenodd" d="M0.0415876 19.9668L0 16.5142C0 16.1398 0.207994 15.8486 0.499178 15.8486H2.91184C3.20302 15.8486 3.41102 16.1398 3.41102 16.4726L3.45261 19.9252C3.45261 20.2996 3.24461 20.5908 2.95343 20.5908H0.540765C0.249581 20.5908 0.0415876 20.2996 0.0415876 19.9668Z" fill="#AFAC33"/>
<path fill-rule="evenodd" clip-rule="evenodd" d="M0.0415876 26.6223L0 23.1697C0 22.7953 0.207994 22.5042 0.499178 22.5042H2.91184C3.20302 22.5042 3.41102 22.7953 3.41102 23.1281L3.45261 26.5807C3.45261 26.9551 3.24461 27.2463 2.95343 27.2463H0.540765C0.249581 27.2879 0.0415876 26.9967 0.0415876 26.6223Z" fill="#AFAC33"/>
<path fill-rule="evenodd" clip-rule="evenodd" d="M4.49276 19.925L4.45117 16.4724C4.45117 16.0981 4.65917 15.8069 4.95035 15.8069H7.36301C7.6542 15.8069 7.86219 16.0981 7.86219 16.4309L7.90378 19.8834C7.90378 20.2578 7.69578 20.549 7.4046 20.549H4.99194C4.70075 20.5906 4.49276 20.2994 4.49276 19.925Z" fill="#045F87"/>
<path fill-rule="evenodd" clip-rule="evenodd" d="M8.81896 31.1562L8.77734 27.7036C8.77734 27.3293 8.98534 27.0381 9.27652 27.0381H11.6892C11.9804 27.0381 12.1884 27.3293 12.1884 27.6621L12.23 31.1146C12.23 31.489 12.022 31.7802 11.7308 31.7802H9.31813C9.02695 31.8218 8.81896 31.5306 8.81896 31.1562Z" fill="#AFAC33"/>
<path fill-rule="evenodd" clip-rule="evenodd" d="M8.77792 25.5405L8.73633 22.0879C8.73633 21.7135 8.94432 21.4224 9.23551 21.4224H11.6482C11.9394 21.4224 12.1473 21.7135 12.1473 22.0463L12.1889 25.4989C12.1889 25.8733 11.9809 26.1645 11.6898 26.1645H9.27709C8.98591 26.1645 8.77792 25.8733 8.77792 25.5405Z" fill="#045F87"/>
<path fill-rule="evenodd" clip-rule="evenodd" d="M8.73495 19.8836L8.69336 16.431C8.69336 16.0566 8.90133 15.7654 9.19251 15.7654H11.6052C11.8964 15.7654 12.1044 16.0566 12.1044 16.3893L12.146 19.842C12.146 20.2164 11.938 20.5075 11.6468 20.5075H9.23412C8.94294 20.5491 8.73495 20.2579 8.73495 19.8836Z" fill="#AFAC33"/>
<path fill-rule="evenodd" clip-rule="evenodd" d="M13.0611 31.1562L13.0195 27.7036C13.0195 27.3293 13.2275 27.0381 13.5187 27.0381H15.9314C16.2226 27.0381 16.4305 27.3293 16.4305 27.6621L16.4721 31.1146C16.4721 31.489 16.2642 31.7802 15.973 31.7802H13.5603C13.2691 31.7802 13.0611 31.489 13.0611 31.1562Z" fill="#045F87"/>
<path fill-rule="evenodd" clip-rule="evenodd" d="M13.0201 25.4993L12.9785 22.0467C12.9785 21.6723 13.1865 21.3811 13.4777 21.3811H15.8904C16.1815 21.3811 16.3895 21.6723 16.3895 22.0051L16.4311 25.4577C16.4311 25.8321 16.2231 26.1233 15.9319 26.1233H13.5193C13.2281 26.1649 13.0201 25.8737 13.0201 25.4993Z" fill="#AFAC33"/>
<path fill-rule="evenodd" clip-rule="evenodd" d="M12.9791 19.8836L12.9375 16.431C12.9375 16.0566 13.1455 15.7654 13.4367 15.7654H15.8493C16.1405 15.7654 16.3485 16.0566 16.3485 16.3893L16.3901 19.842C16.3901 20.2164 16.1821 20.5075 15.891 20.5075H13.4783C13.1871 20.5075 12.9791 20.2163 12.9791 19.8836Z" fill="#045F87"/>
<path fill-rule="evenodd" clip-rule="evenodd" d="M4.16073 14.1431L4.11914 10.6905C4.11914 10.3161 4.32711 10.0249 4.61829 10.0249H7.03098C7.32217 10.0249 7.53013 10.3161 7.53013 10.6489L7.57175 14.1015C7.57175 14.4759 7.36375 14.767 7.07257 14.767H4.65991C4.36872 14.8086 4.16073 14.5174 4.16073 14.1431Z" fill="#AFAC33"/>
<path fill-rule="evenodd" clip-rule="evenodd" d="M8.69396 14.1013L8.65234 10.6487C8.65234 10.2744 8.86034 9.98315 9.15152 9.98315H11.5642C11.8554 9.98315 12.0634 10.2743 12.0634 10.6071L12.1049 14.0597C12.1049 14.4341 11.897 14.7253 11.6058 14.7253H9.19311C8.90192 14.7253 8.69396 14.4341 8.69396 14.1013Z" fill="#AFAC33"/>
<path fill-rule="evenodd" clip-rule="evenodd" d="M12.9361 14.0598L12.8945 10.6072C12.8945 10.2328 13.1025 9.94165 13.3937 9.94165H15.8064C16.0976 9.94165 16.3055 10.2328 16.3055 10.5656L16.3471 14.0182C16.3471 14.3926 16.1391 14.6838 15.848 14.6838H13.4353C13.1441 14.7254 12.9361 14.4342 12.9361 14.0598Z" fill="#AFAC33"/>
<path fill-rule="evenodd" clip-rule="evenodd" d="M17.0963 25.4578L17.0547 22.0052C17.0547 21.6308 17.2627 21.3396 17.5539 21.3396H19.9665C20.2577 21.3396 20.4657 21.6308 20.4657 21.9636L20.5073 25.4162C20.5073 25.7906 20.2993 26.0817 20.0081 26.0817H17.5955C17.3043 26.1233 17.0963 25.8322 17.0963 25.4578Z" fill="#045F87"/>
<path fill-rule="evenodd" clip-rule="evenodd" d="M17.0553 19.8421L17.0137 16.3894C17.0137 16.0151 17.2216 15.7239 17.5128 15.7239H19.9255C20.2167 15.7239 20.4247 16.0151 20.4247 16.3478L20.4663 19.8005C20.4663 20.1749 20.2583 20.466 19.9671 20.466H17.5544C17.2633 20.5076 17.0553 20.2164 17.0553 19.8421Z" fill="#AFAC33"/>
<path fill-rule="evenodd" clip-rule="evenodd" d="M17.0143 14.0598L16.9727 10.6072C16.9727 10.2328 17.1806 9.94165 17.4718 9.94165H19.8845C20.1757 9.94165 20.3837 10.2328 20.3837 10.5656L20.4253 14.0182C20.4253 14.3926 20.2173 14.6838 19.9261 14.6838H17.5134C17.2222 14.6838 17.0143 14.3926 17.0143 14.0598Z" fill="#045F87"/>
<path d="M19.0943 23.3476L14.2422 28.9409L14.8078 29.4316L19.6599 23.8383L19.0943 23.3476Z" fill="#045F87"/>
<path d="M18.5821 12.7109L13.7285 18.3027L14.294 18.7936L19.1476 13.2017L18.5821 12.7109Z" fill="#045F87"/>
<path d="M31.6551 9.48433L30.5736 12.9786H28.2441L32.1959 0.624023H35.0662L39.0595 12.9786H36.6469L35.5237 9.48433H31.6551ZM35.1494 7.82042L34.1926 4.7838C33.943 4.03504 33.735 3.20308 33.5686 2.49592H33.527C33.3606 3.20308 33.1527 4.07663 32.9447 4.7838L31.9879 7.82042H35.1494Z" fill="#AFAC33"/>
<path d="M49.1677 0V10.4826C49.1677 11.3978 49.2094 12.3961 49.251 12.9785H47.2542L47.1711 11.5642H47.1295C46.5887 12.5625 45.5072 13.1865 44.2176 13.1865C42.0962 13.1865 40.3906 11.3562 40.3906 8.61073C40.3906 5.6157 42.2209 3.86858 44.384 3.86858C45.5903 3.86858 46.5055 4.36778 46.8799 5.03334H46.9215V0H49.1677ZM46.9215 7.82037C46.9215 7.65398 46.9215 7.4044 46.8799 7.23801C46.6719 6.36446 45.9647 5.6573 44.9248 5.6573C43.4689 5.6573 42.6785 6.94682 42.6785 8.61073C42.6785 10.233 43.4689 11.4394 44.9248 11.4394C45.8399 11.4394 46.6303 10.8154 46.8799 9.85866C46.9215 9.65068 46.9631 9.4427 46.9631 9.19311V7.82037H46.9215Z" fill="#AFAC33"/>
<path d="M53.4518 4.07642L54.9077 8.61058C55.1573 9.40093 55.3652 10.1081 55.5316 10.8569H55.5732C55.7396 10.1081 55.9476 9.44253 56.1972 8.61058L57.6115 4.07642H59.9826L56.5716 12.9783H54.3669L51.0391 4.07642H53.4518Z" fill="#AFAC33"/>
<path d="M63.1455 9.19294C63.1871 10.8152 64.4767 11.4808 65.891 11.4808C66.9309 11.4808 67.6797 11.3144 68.3452 11.0648L68.678 12.6039C67.9292 12.8951 66.8477 13.1447 65.5582 13.1447C62.6463 13.1447 60.9824 11.356 60.9824 8.65215C60.9824 6.19788 62.4799 3.86841 65.3502 3.86841C68.262 3.86841 69.1772 6.23949 69.1772 8.19458C69.1772 8.61056 69.1356 8.94334 69.094 9.15132H63.1455V9.19294ZM67.0557 7.6122C67.0557 6.78025 66.7229 5.44914 65.2254 5.44914C63.8527 5.44914 63.2287 6.69705 63.1455 7.6122H67.0557Z" fill="#AFAC33"/>
<path d="M71.4641 6.94665C71.4641 5.74032 71.4641 4.86675 71.3809 4.0764H73.336L73.4192 5.78192H73.5023C73.9599 4.53399 74.9999 3.86841 75.9566 3.86841C76.1646 3.86841 76.2894 3.86842 76.4974 3.91002V6.03149C76.331 5.9899 76.123 5.94829 75.8318 5.94829C74.7503 5.94829 74.0015 6.65547 73.8351 7.65382C73.7935 7.8618 73.752 8.1114 73.752 8.36098V12.9783H71.5057V6.94665H71.4641Z" fill="#AFAC33"/>
<path d="M81.4063 1.53931V4.07676H83.5278V5.74067H81.4063V9.69245C81.4063 10.774 81.6975 11.3564 82.571 11.3564C82.9454 11.3564 83.2366 11.3148 83.4446 11.2316L83.4862 12.9371C83.1534 13.0619 82.5711 13.1451 81.8639 13.1451C81.0319 13.1451 80.3247 12.8539 79.9088 12.3963C79.4512 11.8971 79.2016 11.0652 79.2016 9.90044V5.69908H77.9121V4.03517H79.2016V2.03848L81.4063 1.53931Z" fill="#AFAC33"/>
<path d="M88.1039 1.58083C88.1039 2.24639 87.6047 2.78717 86.8143 2.78717C86.0656 2.78717 85.5664 2.24639 85.5664 1.58083C85.5664 0.873669 86.0656 0.374512 86.8143 0.374512C87.6047 0.374512 88.1039 0.915267 88.1039 1.58083ZM85.7328 12.9786V4.07669H88.0207V12.9786H85.7328Z" fill="#AFAC33"/>
<path d="M90.7662 10.9404C91.2653 11.2316 92.2637 11.5644 93.054 11.5644C94.0524 11.5644 94.4684 11.1484 94.4684 10.566C94.4684 9.94207 94.094 9.65087 93.0124 9.27649C91.2653 8.65253 90.5582 7.7374 90.5582 6.69745C90.5582 5.11674 91.8477 3.9104 93.9276 3.9104C94.926 3.9104 95.7579 4.15998 96.2987 4.45117L95.8411 6.03187C95.4667 5.82389 94.7596 5.5327 93.9692 5.5327C93.1789 5.5327 92.7213 5.90708 92.7213 6.44785C92.7213 7.03022 93.1372 7.27981 94.2604 7.69578C95.8827 8.27815 96.6315 9.11012 96.6315 10.4412C96.6315 12.0636 95.3835 13.2283 93.0124 13.2283C91.9309 13.2283 90.9742 12.9787 90.3086 12.6043L90.7662 10.9404Z" fill="#AFAC33"/>
<path d="M101.33 1.58083C101.33 2.24639 100.831 2.78717 100.041 2.78717C99.2921 2.78717 98.793 2.24639 98.793 1.58083C98.793 0.873669 99.2921 0.374512 100.041 0.374512C100.873 0.374512 101.33 0.915267 101.33 1.58083ZM98.9594 12.9786V4.07669H101.247V12.9786H98.9594Z" fill="#AFAC33"/>
<path d="M104.077 6.73866C104.077 5.69872 104.077 4.86675 103.994 4.0764H105.991L106.116 5.40753H106.157C106.532 4.70037 107.53 3.86841 108.986 3.86841C110.525 3.86841 112.147 4.86676 112.147 7.6954V12.9783H109.901V7.945C109.901 6.65548 109.443 5.69872 108.196 5.69872C107.28 5.69872 106.656 6.32269 106.448 7.02985C106.365 7.23784 106.365 7.48742 106.365 7.7786V13.0199H104.077V6.73866Z" fill="#AFAC33"/>
<path d="M123.17 4.0764C123.128 4.70036 123.087 5.40753 123.087 6.65546V11.6888C123.087 13.5607 122.712 14.8918 121.755 15.7238C120.84 16.5557 119.551 16.8053 118.303 16.8053C117.18 16.8053 115.973 16.5557 115.183 16.0981L115.682 14.3927C116.264 14.7254 117.221 15.0582 118.261 15.0582C119.717 15.0582 120.84 14.3094 120.84 12.3544V11.6056H120.799C120.299 12.396 119.384 12.9367 118.178 12.9367C115.973 12.9367 114.393 11.1064 114.393 8.56897C114.393 5.65713 116.306 3.86841 118.428 3.86841C119.8 3.86841 120.591 4.53399 121.007 5.24115H121.048L121.131 4.03481H123.17V4.0764ZM120.84 7.65382C120.84 7.44583 120.84 7.23784 120.757 7.02985C120.507 6.1979 119.883 5.57393 118.927 5.57393C117.679 5.57393 116.722 6.65547 116.722 8.48577C116.722 10.0249 117.471 11.2312 118.885 11.2312C119.717 11.2312 120.466 10.6904 120.715 9.85849C120.757 9.6089 120.799 9.31771 120.799 9.06812V7.65382H120.84Z" fill="#AFAC33"/>
</svg>
