<svg width="129" height="52" viewBox="0 0 129 52" fill="none" xmlns="http://www.w3.org/2000/svg">
<path d="M43.8212 32.7195C42.281 34.2181 40.2829 34.9258 38.1598 34.9258C32.6233 34.9258 30.2505 31.096 30.2505 27.2246C30.2089 23.3116 32.7482 19.3569 38.1598 19.3569C40.1996 19.3569 42.1145 20.1062 43.6547 21.6465L41.7815 23.4781C40.7824 22.5206 39.4919 22.0628 38.1598 22.0628C34.5382 22.0628 32.9979 24.7686 32.9979 27.2663C33.0396 29.7223 34.4549 32.3449 38.1598 32.3449C39.4503 32.3449 40.9489 31.8037 41.9064 30.8463L43.8212 32.7195Z" fill="#045F87"/>
<path d="M58.3075 19.689V28.2643C58.3075 32.6769 55.6017 34.9248 51.8552 34.9248C48.2752 34.9248 45.2363 32.7602 45.2363 28.2643V19.689H48.0254V28.2643C48.0254 30.9702 49.5656 32.3855 51.8968 32.3855C54.228 32.3855 55.5601 30.8453 55.5601 28.2643V19.689H58.3075Z" fill="#045F87"/>
<path d="M74.2924 34.5924H70.9622L66.5912 29.5971H63.8854V34.5924H61.0547V19.6479C63.4275 19.6479 65.8003 19.6896 68.1731 19.6896C71.7115 19.7312 73.5431 22.0624 73.5431 24.6433C73.5431 26.6831 72.5857 28.7645 69.755 29.3473L74.2924 34.4675V34.5924ZM63.8854 22.3122V27.0994H68.1731C69.9631 27.0994 70.754 25.8921 70.754 24.7265C70.754 23.561 69.9631 22.3538 68.1731 22.3538H63.8854V22.3122Z" fill="#045F87"/>
<path d="M86.0733 31.8027H78.2473L76.9568 34.6334H73.918L80.6201 19.689H83.7006L90.4027 34.6334H87.3222L86.0733 31.8027ZM82.1603 22.8111L79.3712 29.1802H84.9078L82.1603 22.8111Z" fill="#045F87"/>
<path d="M93.1089 22.2289H88.3633V19.6479C92.6926 19.6479 96.3142 19.6479 100.644 19.6479V22.2289H95.8979V34.5924H93.0673V22.2289H93.1089Z" fill="#045F87"/>
<path d="M113.507 34.5924H102.309C102.309 29.6387 102.309 24.6433 102.309 19.6479H113.507V22.3954H105.139V25.8505H113.215V28.4731H105.139V31.845H113.507V34.5924Z" fill="#045F87"/>
<path d="M128.825 27.0154C128.908 30.8035 126.577 34.6333 121.373 34.6333C119.542 34.6333 117.336 34.6333 115.504 34.6333V19.6888C117.336 19.6888 119.542 19.6888 121.373 19.6888C126.452 19.6472 128.742 23.3105 128.825 27.0154ZM118.293 31.8859H121.373C124.787 31.8859 126.119 29.4298 126.036 26.9737C125.953 24.6426 124.62 22.3114 121.373 22.3114H118.293V31.8859Z" fill="#045F87"/>
<path d="M33.4135 9.49079L32.3312 12.9876H30L33.9547 0.624023H36.827L40.8233 12.9876H38.4088L37.2849 9.49079H33.4135ZM36.9102 7.82567L35.9528 4.78683C35.703 4.03752 35.4949 3.20496 35.3284 2.49729H35.2867C35.1202 3.20496 34.9121 4.07915 34.704 4.78683L33.7465 7.82567H36.9102Z" fill="#AFAC33"/>
<path d="M50.9398 0V10.4903C50.9398 11.4061 50.9814 12.4052 51.023 12.988H49.0249L48.9416 11.5726H48.9C48.3589 12.5717 47.2765 13.1961 45.9861 13.1961C43.863 13.1961 42.1562 11.3645 42.1562 8.61701C42.1562 5.61979 43.9879 3.8714 46.1525 3.8714C47.3597 3.8714 48.2756 4.37096 48.6502 5.03701H48.6919V0H50.9398ZM48.6919 7.82607C48.6919 7.65955 48.6918 7.4098 48.6502 7.24329C48.4421 6.3691 47.7344 5.66143 46.6937 5.66143C45.2367 5.66143 44.4458 6.95189 44.4458 8.61701C44.4458 10.2405 45.2367 11.4477 46.6937 11.4477C47.6095 11.4477 48.4004 10.8233 48.6502 9.86585C48.6918 9.65771 48.7335 9.44958 48.7335 9.19981V7.82607H48.6919Z" fill="#AFAC33"/>
<path d="M55.2269 4.0791L56.6839 8.61657C56.9337 9.4075 57.1418 10.1152 57.3083 10.8645H57.35C57.5165 10.1152 57.7246 9.44913 57.9744 8.61657L59.3898 4.0791H61.7625L58.3491 12.9875H56.1427L52.8125 4.0791H55.2269Z" fill="#AFAC33"/>
<path d="M64.9264 9.19902C64.968 10.8225 66.2585 11.4886 67.6738 11.4886C68.7145 11.4886 69.4639 11.322 70.1299 11.0723L70.4629 12.6125C69.7136 12.9039 68.6313 13.1537 67.3408 13.1537C64.4268 13.1537 62.7617 11.3637 62.7617 8.65783C62.7617 6.20178 64.2603 3.87061 67.1327 3.87061C70.0466 3.87061 70.9625 6.24341 70.9625 8.19993C70.9625 8.61621 70.9208 8.94923 70.8792 9.15737H64.9264V9.19902ZM68.8394 7.61713C68.8394 6.78457 68.5064 5.45249 67.0078 5.45249C65.6341 5.45249 65.0097 6.70131 64.9264 7.61713H68.8394Z" fill="#AFAC33"/>
<path d="M73.2513 6.95109C73.2513 5.74388 73.2512 4.86968 73.168 4.07875H75.1245L75.2078 5.78551H75.291C75.7489 4.53667 76.7896 3.87061 77.7471 3.87061C77.9552 3.87061 78.0801 3.87062 78.2882 3.91225V6.03527C78.1217 5.99364 77.9136 5.95201 77.6222 5.95201C76.5399 5.95201 75.7905 6.6597 75.624 7.65877C75.5824 7.86691 75.5408 8.11669 75.5408 8.36645V12.9872H73.2929V6.95109H73.2513Z" fill="#AFAC33"/>
<path d="M83.1998 1.54053V4.07983H85.3229V5.74495H83.1998V9.69961C83.1998 10.7819 83.4913 11.3647 84.3654 11.3647C84.7401 11.3647 85.0315 11.3231 85.2396 11.2399L85.2812 12.9466C84.9482 13.0715 84.3655 13.1548 83.6578 13.1548C82.8252 13.1548 82.1175 12.8633 81.7012 12.4054C81.2433 11.9059 80.9936 11.0733 80.9936 9.90775V5.70333H79.7031V4.03821H80.9936V2.04007L83.1998 1.54053Z" fill="#AFAC33"/>
<path d="M89.9026 1.58171C89.9026 2.24776 89.4031 2.78893 88.6121 2.78893C87.8628 2.78893 87.3633 2.24776 87.3633 1.58171C87.3633 0.874033 87.8628 0.374512 88.6121 0.374512C89.4031 0.374512 89.9026 0.915661 89.9026 1.58171ZM87.5298 12.9878V4.07939H89.8193V12.9878H87.5298Z" fill="#AFAC33"/>
<path d="M92.5673 10.9487C93.0668 11.2401 94.0659 11.5731 94.8568 11.5731C95.8559 11.5731 96.2722 11.1569 96.2722 10.5741C96.2722 9.94964 95.8975 9.65823 94.8152 9.28358C93.0668 8.65915 92.3591 7.74336 92.3591 6.70266C92.3591 5.12079 93.6496 3.91357 95.731 3.91357C96.7301 3.91357 97.5627 4.16334 98.1038 4.45473L97.6459 6.03659C97.2713 5.82845 96.5636 5.53705 95.7727 5.53705C94.9817 5.53705 94.5238 5.91171 94.5238 6.45287C94.5238 7.03567 94.9401 7.28543 96.064 7.70172C97.6875 8.28451 98.4369 9.11708 98.4369 10.4492C98.4369 12.0727 97.188 13.2382 94.8152 13.2382C93.7329 13.2382 92.7754 12.9885 92.1094 12.6138L92.5673 10.9487Z" fill="#AFAC33"/>
<path d="M103.141 1.58171C103.141 2.24776 102.641 2.78893 101.85 2.78893C101.101 2.78893 100.602 2.24776 100.602 1.58171C100.602 0.874033 101.101 0.374512 101.85 0.374512C102.683 0.374512 103.141 0.915661 103.141 1.58171ZM100.768 12.9878V4.07939H103.058V12.9878H100.768Z" fill="#AFAC33"/>
<path d="M105.888 6.74295C105.888 5.70225 105.888 4.86968 105.805 4.07875H107.803L107.928 5.41085H107.969C108.344 4.70317 109.343 3.87061 110.8 3.87061C112.34 3.87061 113.964 4.86968 113.964 7.70039V12.9872H111.716V7.95017C111.716 6.6597 111.258 5.70225 110.009 5.70225C109.093 5.70225 108.469 6.32668 108.261 7.03435C108.177 7.24249 108.177 7.49226 108.177 7.78365V13.0288H105.888V6.74295Z" fill="#AFAC33"/>
<path d="M124.994 4.07875C124.953 4.70317 124.911 5.41085 124.911 6.65969V11.6967C124.911 13.57 124.537 14.902 123.579 15.7346C122.663 16.5672 121.373 16.8169 120.124 16.8169C119 16.8169 117.793 16.5672 117.002 16.1093L117.501 14.4025C118.084 14.7355 119.042 15.0686 120.082 15.0686C121.539 15.0686 122.663 14.3193 122.663 12.3627V11.6134H122.622C122.122 12.4044 121.206 12.9455 119.999 12.9455C117.793 12.9455 116.211 11.1139 116.211 8.57459C116.211 5.66063 118.126 3.87061 120.249 3.87061C121.623 3.87061 122.414 4.53667 122.83 5.24435H122.871L122.955 4.03713H124.994V4.07875ZM122.663 7.65877C122.663 7.45063 122.663 7.24249 122.58 7.03435C122.33 6.20179 121.706 5.57737 120.748 5.57737C119.5 5.57737 118.542 6.6597 118.542 8.49133C118.542 10.0316 119.291 11.2388 120.707 11.2388C121.539 11.2388 122.289 10.6976 122.538 9.86505C122.58 9.61528 122.622 9.32388 122.622 9.07411V7.65877H122.663Z" fill="#AFAC33"/>
<path d="M7 24L10 27L20 17" stroke="#AFAC33" stroke-width="2" stroke-linecap="round" stroke-linejoin="round"/>
<path d="M19 25V32C19 32.5304 18.7893 33.0391 18.4142 33.4142C18.0391 33.7893 17.5304 34 17 34H3C2.46957 34 1.96086 33.7893 1.58579 33.4142C1.21071 33.0391 1 32.5304 1 32V18C1 17.4696 1.21071 16.9609 1.58579 16.5858C1.96086 16.2107 2.46957 16 3 16H14" stroke="#045F87" stroke-width="2" stroke-linecap="round" stroke-linejoin="round"/>
<path d="M32.4121 45.0303H32.9004C33.3789 45.0303 33.7321 44.9505 33.96 44.791C34.1878 44.6315 34.3018 44.3809 34.3018 44.0391C34.3018 43.7005 34.1846 43.4596 33.9502 43.3164C33.7191 43.1732 33.3594 43.1016 32.8711 43.1016H32.4121V45.0303ZM32.4121 46.2607V49H30.8984V41.8613H32.9785C33.9486 41.8613 34.6663 42.0387 35.1318 42.3936C35.5973 42.7451 35.8301 43.2806 35.8301 44C35.8301 44.4199 35.7145 44.7943 35.4834 45.123C35.2523 45.4486 34.9251 45.7041 34.502 45.8896C35.5762 47.4945 36.276 48.5312 36.6016 49H34.9219L33.2178 46.2607H32.4121ZM41.6113 49H37.5V41.8613H41.6113V43.1016H39.0137V44.6689H41.4307V45.9092H39.0137V47.75H41.6113V49ZM49.585 45.4209C49.585 46.2607 49.4352 46.9655 49.1357 47.5352C48.8395 48.1016 48.4033 48.5166 47.8271 48.7803L49.5459 50.6992H47.6074L46.2988 49.0977H46.1865C45.0928 49.0977 44.2529 48.7803 43.667 48.1455C43.0811 47.5107 42.7881 46.5993 42.7881 45.4111C42.7881 44.223 43.0811 43.3164 43.667 42.6914C44.2562 42.0632 45.0993 41.749 46.1963 41.749C47.2933 41.749 48.1315 42.0648 48.7109 42.6963C49.2936 43.3278 49.585 44.236 49.585 45.4209ZM44.375 45.4209C44.375 46.2184 44.5264 46.819 44.8291 47.2227C45.1318 47.6263 45.5843 47.8281 46.1865 47.8281C47.3942 47.8281 47.998 47.0257 47.998 45.4209C47.998 43.8128 47.3975 43.0088 46.1963 43.0088C45.5941 43.0088 45.14 43.2122 44.834 43.6191C44.528 44.0228 44.375 44.6234 44.375 45.4209ZM56.875 41.8613V46.4805C56.875 47.0078 56.7562 47.4701 56.5186 47.8672C56.2842 48.2643 55.944 48.5687 55.498 48.7803C55.0521 48.9919 54.5247 49.0977 53.916 49.0977C52.998 49.0977 52.2852 48.8633 51.7773 48.3945C51.2695 47.9225 51.0156 47.278 51.0156 46.4609V41.8613H52.5244V46.2314C52.5244 46.7816 52.6351 47.1852 52.8564 47.4424C53.0778 47.6995 53.444 47.8281 53.9551 47.8281C54.4499 47.8281 54.8079 47.6995 55.0293 47.4424C55.2539 47.182 55.3662 46.7751 55.3662 46.2217V41.8613H56.875ZM62.7344 49H58.623V41.8613H62.7344V43.1016H60.1367V44.6689H62.5537V45.9092H60.1367V47.75H62.7344V49ZM68.4424 47.0176C68.4424 47.6621 68.2096 48.1699 67.7441 48.541C67.2819 48.9121 66.6374 49.0977 65.8105 49.0977C65.0488 49.0977 64.375 48.9544 63.7891 48.668V47.2617C64.2708 47.4766 64.6777 47.6279 65.0098 47.7158C65.3451 47.8037 65.651 47.8477 65.9277 47.8477C66.2598 47.8477 66.5137 47.7842 66.6895 47.6572C66.8685 47.5303 66.958 47.3415 66.958 47.0908C66.958 46.9508 66.9189 46.8271 66.8408 46.7197C66.7627 46.609 66.6471 46.5033 66.4941 46.4023C66.3444 46.3014 66.0368 46.1403 65.5713 45.9189C65.1351 45.7139 64.8079 45.5169 64.5898 45.3281C64.3717 45.1393 64.1976 44.9196 64.0674 44.6689C63.9372 44.4183 63.8721 44.1253 63.8721 43.79C63.8721 43.1585 64.0853 42.6621 64.5117 42.3008C64.9414 41.9395 65.5339 41.7588 66.2891 41.7588C66.6602 41.7588 67.0133 41.8027 67.3486 41.8906C67.6872 41.9785 68.0404 42.1022 68.4082 42.2617L67.9199 43.4385C67.5391 43.2822 67.2233 43.1732 66.9727 43.1113C66.7253 43.0495 66.4811 43.0186 66.2402 43.0186C65.9538 43.0186 65.734 43.0853 65.5811 43.2188C65.4281 43.3522 65.3516 43.5264 65.3516 43.7412C65.3516 43.8747 65.3825 43.9919 65.4443 44.0928C65.5062 44.1904 65.6038 44.2865 65.7373 44.3809C65.874 44.472 66.1947 44.638 66.6992 44.8789C67.3665 45.1979 67.8239 45.5186 68.0713 45.8408C68.3187 46.1598 68.4424 46.5521 68.4424 47.0176ZM72.4902 49H70.9766V43.1211H69.0381V41.8613H74.4287V43.1211H72.4902V49ZM79.6387 49H75.5273V41.8613H79.6387V43.1016H77.041V44.6689H79.458V45.9092H77.041V47.75H79.6387V49ZM87.0557 45.3623C87.0557 46.5374 86.7204 47.4375 86.0498 48.0625C85.3825 48.6875 84.4173 49 83.1543 49H81.1328V41.8613H83.374C84.5394 41.8613 85.4443 42.1689 86.0889 42.7842C86.7334 43.3994 87.0557 44.2588 87.0557 45.3623ZM85.4834 45.4014C85.4834 43.8682 84.8063 43.1016 83.4521 43.1016H82.6465V47.75H83.2959C84.7542 47.75 85.4834 46.9671 85.4834 45.4014Z" fill="#045F87"/>
</svg>
