<svg width="8" height="5" viewBox="0 0 8 5" fill="none" xmlns="http://www.w3.org/2000/svg">
<path d="M6.64645 4.35355C6.84171 4.54882 7.15829 4.54882 7.35355 4.35355C7.54882 4.15829 7.54882 3.84171 7.35355 3.64645L6.64645 4.35355ZM0.646447 3.64645C0.451184 3.84171 0.451184 4.15829 0.646447 4.35355C0.841709 4.54882 1.15829 4.54882 1.35355 4.35355L0.646447 3.64645ZM7.35355 3.64645L4.56569 0.858578L3.85858 1.56569L6.64645 4.35355L7.35355 3.64645ZM3.43431 0.858578L0.646447 3.64645L1.35355 4.35355L4.14142 1.56569L3.43431 0.858578ZM4.56569 0.858578C4.25327 0.546159 3.74673 0.546159 3.43431 0.858578L4.14142 1.56569C4.06332 1.64379 3.93668 1.64379 3.85858 1.56569L4.56569 0.858578Z" fill="#1DCDDC"/>
</svg>
