<svg width="7" height="14" viewBox="0 0 7 14" fill="none" xmlns="http://www.w3.org/2000/svg">
<path d="M2.625 14C1.17757 14 0 12.896 0 11.5391V3.28125C0 1.47197 1.5701 0 3.5 0C5.4299 0 7 1.47197 7 3.28125V11.5391H6.125V3.28125C6.125 1.92429 4.94742 0.820312 3.5 0.820312C2.05258 0.820312 0.875 1.92429 0.875 3.28125V11.5391C0.875 12.4437 1.66005 13.1797 2.625 13.1797C3.58995 13.1797 4.375 12.4437 4.375 11.5391V4.92188C4.375 4.46955 3.98248 4.10156 3.5 4.10156C3.01752 4.10156 2.625 4.46955 2.625 4.92188V11.5391H1.75V4.92188C1.75 4.01723 2.53505 3.28125 3.5 3.28125C4.46495 3.28125 5.25 4.01723 5.25 4.92188V11.5391C5.25 12.896 4.07242 14 2.625 14Z" fill="#4F4F4F"/>
</svg>
