<svg width="129" height="37" viewBox="0 0 129 37" fill="none" xmlns="http://www.w3.org/2000/svg">
<path d="M42.7183 33.8864C41.1549 35.4075 39.1268 36.1258 36.9719 36.1258C31.3523 36.1258 28.9439 32.2385 28.9439 28.309C28.9016 24.3373 31.479 20.3232 36.9719 20.3232C39.0423 20.3232 40.9859 21.0838 42.5493 22.6471L40.6479 24.5063C39.6338 23.5345 38.324 23.0697 36.9719 23.0697C33.2959 23.0697 31.7326 25.8161 31.7326 28.3513C31.7748 30.8442 33.2114 33.5061 36.9719 33.5061C38.2817 33.5061 39.8028 32.9568 40.7746 31.985L42.7183 33.8864Z" fill="#CBCBCB"/>
<path d="M57.4217 20.6191V29.3232C57.4217 33.802 54.6752 36.0837 50.8725 36.0837C47.2388 36.0837 44.1543 33.8865 44.1543 29.3232V20.6191H46.9852V29.3232C46.9852 32.0697 48.5486 33.5062 50.9147 33.5062C53.2809 33.5062 54.633 31.9429 54.633 29.3232V20.6191H57.4217Z" fill="#CBCBCB"/>
<path d="M73.6473 35.7879H70.2671L65.8306 30.7176H63.0841V35.7879H60.2109V20.6191C62.6193 20.6191 65.0278 20.6614 67.4362 20.6614C71.0277 20.7037 72.8868 23.0698 72.8868 25.6895C72.8868 27.7599 71.915 29.8725 69.0418 30.464L73.6473 35.6611V35.7879ZM63.0841 23.2811V28.1401H67.4362C69.253 28.1401 70.0558 26.9148 70.0558 25.7317C70.0558 24.5487 69.253 23.3233 67.4362 23.3233H63.0841V23.2811Z" fill="#CBCBCB"/>
<path d="M85.6054 32.9147H77.6619L76.352 35.7879H73.2676L80.0703 20.6191H83.197L89.9997 35.7879H86.873L85.6054 32.9147ZM81.6336 23.7881L78.8027 30.2528H84.4223L81.6336 23.7881Z" fill="#CBCBCB"/>
<path d="M92.7035 23.1966H87.8867V20.5769C92.281 20.5769 95.957 20.5769 100.351 20.5769V23.1966H95.5345V35.7456H92.6613V23.1966H92.7035Z" fill="#CBCBCB"/>
<path d="M113.45 35.7879H102.084C102.084 30.7598 102.084 25.6895 102.084 20.6191H113.45V23.4078H104.957V26.9148H113.112V29.5767H104.915V32.9992H113.408V35.7879H113.45Z" fill="#CBCBCB"/>
<path d="M128.997 28.0556C129.082 31.9006 126.716 35.7879 121.434 35.7879C119.575 35.7879 117.336 35.7879 115.477 35.7879V20.6191C117.336 20.6191 119.575 20.6191 121.434 20.6191C126.589 20.6191 128.913 24.2951 128.997 28.0556ZM118.265 33.0415H121.392C124.857 33.0415 126.209 30.5486 126.124 28.0556C126.04 25.6895 124.688 23.3233 121.392 23.3233H118.265V33.0415Z" fill="#CBCBCB"/>
<path fill-rule="evenodd" clip-rule="evenodd" d="M0.0422554 20.9164L0 17.4095C0 17.0292 0.211269 16.7334 0.507038 16.7334H2.95769C3.25346 16.7334 3.46473 17.0292 3.46473 17.3672L3.50699 20.8742C3.50699 21.2545 3.29572 21.5502 2.99995 21.5502H0.549294C0.253524 21.5925 0.0422554 21.2967 0.0422554 20.9164Z" fill="#CBCBCB"/>
<path fill-rule="evenodd" clip-rule="evenodd" d="M0.0422554 27.6764L0 24.1695C0 23.7892 0.211269 23.4934 0.507038 23.4934H2.95769C3.25346 23.4934 3.46473 23.7892 3.46473 24.1272L3.50699 27.6342C3.50699 28.0145 3.29572 28.3102 2.99995 28.3102H0.549294C0.253524 28.3525 0.0422554 28.0567 0.0422554 27.6764Z" fill="#CBCBCB"/>
<path fill-rule="evenodd" clip-rule="evenodd" d="M4.56374 20.8737L4.52148 17.3667C4.52148 16.9864 4.73275 16.6907 5.02852 16.6907H7.47918C7.77495 16.6907 7.98622 16.9864 7.98622 17.3245L8.02846 20.8314C8.02846 21.2117 7.8172 21.5075 7.52143 21.5075H5.07077C4.775 21.5498 4.56374 21.254 4.56374 20.8737Z" fill="#CBCBCB"/>
<path fill-rule="evenodd" clip-rule="evenodd" d="M8.95827 32.3246L8.91602 28.8177C8.91602 28.4374 9.12728 28.1416 9.42305 28.1416H11.8737C12.1695 28.1416 12.3807 28.4374 12.3807 28.7754L12.423 32.2824C12.423 32.6627 12.2117 32.9584 11.916 32.9584H9.46531C9.16954 32.9584 8.95827 32.6627 8.95827 32.3246Z" fill="#CBCBCB"/>
<path fill-rule="evenodd" clip-rule="evenodd" d="M8.9153 26.5781L8.87305 23.0711C8.87305 22.6908 9.08432 22.395 9.38009 22.395H11.8307C12.1265 22.395 12.3378 22.6908 12.3378 23.0288L12.38 26.5358C12.38 26.9161 12.1688 27.2118 11.873 27.2118H9.42234C9.12657 27.2541 8.9153 26.9583 8.9153 26.5781Z" fill="#CBCBCB"/>
<path fill-rule="evenodd" clip-rule="evenodd" d="M8.87232 20.8737L8.83008 17.3667C8.83008 16.9864 9.04133 16.6907 9.3371 16.6907H11.7878C12.0835 16.6907 12.2948 16.9864 12.2948 17.3245L12.3371 20.8314C12.3371 21.2117 12.1258 21.5075 11.83 21.5075H9.37936C9.08359 21.5075 8.87232 21.2117 8.87232 20.8737Z" fill="#CBCBCB"/>
<path fill-rule="evenodd" clip-rule="evenodd" d="M13.2669 32.2819L13.2246 28.7749C13.2246 28.3946 13.4359 28.0989 13.7316 28.0989H16.1823C16.4781 28.0989 16.6893 28.3946 16.6893 28.7327L16.7316 32.2396C16.7316 32.6199 16.5203 32.9157 16.2246 32.9157H13.7739C13.4781 32.958 13.2669 32.6622 13.2669 32.2819Z" fill="#CBCBCB"/>
<path fill-rule="evenodd" clip-rule="evenodd" d="M13.2258 26.5781L13.1836 23.0711C13.1836 22.6908 13.3949 22.395 13.6906 22.395H16.1413C16.4371 22.395 16.6483 22.6908 16.6483 23.0288L16.6906 26.5358C16.6906 26.9161 16.4793 27.2118 16.1835 27.2118H13.7329C13.4371 27.2118 13.2258 26.9161 13.2258 26.5781Z" fill="#CBCBCB"/>
<path fill-rule="evenodd" clip-rule="evenodd" d="M13.1829 20.8314L13.1406 17.3245C13.1406 16.9442 13.3519 16.6484 13.6477 16.6484H16.0983C16.3941 16.6484 16.6054 16.9442 16.6054 17.2822L16.6476 20.7892C16.6476 21.1695 16.4363 21.4652 16.1406 21.4652H13.6899C13.3941 21.5075 13.1829 21.2117 13.1829 20.8314Z" fill="#CBCBCB"/>
<path fill-rule="evenodd" clip-rule="evenodd" d="M4.22584 15.0426L4.18359 11.5357C4.18359 11.1554 4.39485 10.8596 4.69062 10.8596H7.14129C7.43706 10.8596 7.64831 11.1554 7.64831 11.4934L7.69057 15.0004C7.69057 15.3807 7.4793 15.6764 7.18353 15.6764H4.73287C4.43711 15.6764 4.22584 15.3807 4.22584 15.0426Z" fill="#CBCBCB"/>
<path fill-rule="evenodd" clip-rule="evenodd" d="M8.83132 14.9584L8.78906 11.4514C8.78906 11.0711 9.00032 10.7754 9.29609 10.7754H11.7468C12.0425 10.7754 12.2538 11.0712 12.2538 11.4092L12.296 14.9162C12.296 15.2964 12.0848 15.5922 11.789 15.5922H9.33834C9.04257 15.6345 8.83132 15.3387 8.83132 14.9584Z" fill="#CBCBCB"/>
<path fill-rule="evenodd" clip-rule="evenodd" d="M13.1399 14.9584L13.0977 11.4514C13.0977 11.0711 13.3089 10.7754 13.6047 10.7754H16.0554C16.3511 10.7754 16.5624 11.0712 16.5624 11.4092L16.6046 14.9162C16.6046 15.2964 16.3934 15.5922 16.0976 15.5922H13.647C13.3512 15.5922 13.1399 15.2964 13.1399 14.9584Z" fill="#CBCBCB"/>
<path fill-rule="evenodd" clip-rule="evenodd" d="M17.3665 26.5358L17.3242 23.0288C17.3242 22.6485 17.5355 22.3528 17.8313 22.3528H20.2819C20.5777 22.3528 20.789 22.6486 20.789 22.9866L20.8312 26.4936C20.8312 26.8738 20.62 27.1696 20.3242 27.1696H17.8735C17.5777 27.1696 17.3665 26.8738 17.3665 26.5358Z" fill="#CBCBCB"/>
<path fill-rule="evenodd" clip-rule="evenodd" d="M17.3235 20.7892L17.2812 17.2823C17.2812 16.902 17.4925 16.6062 17.7883 16.6062H20.2389C20.5347 16.6062 20.746 16.902 20.746 17.24L20.7882 20.747C20.7882 21.1272 20.577 21.423 20.2812 21.423H17.8305C17.5348 21.4653 17.3235 21.1695 17.3235 20.7892Z" fill="#CBCBCB"/>
<path fill-rule="evenodd" clip-rule="evenodd" d="M17.2805 14.9162L17.2383 11.4092C17.2383 11.0289 17.4495 10.7332 17.7453 10.7332H20.196C20.4917 10.7332 20.703 11.0289 20.703 11.3669L20.7453 14.8739C20.7453 15.2542 20.534 15.55 20.2382 15.55H17.7876C17.4918 15.55 17.2805 15.2542 17.2805 14.9162Z" fill="#CBCBCB"/>
<path d="M19.3816 24.3616L14.4531 30.043L15.0277 30.5414L19.9562 24.86L19.3816 24.3616Z" fill="#CBCBCB"/>
<path d="M18.8578 13.5416L13.9277 19.2214L14.5021 19.72L19.4321 14.0401L18.8578 13.5416Z" fill="#CBCBCB"/>
<path d="M29.6191 0.379515C30.4219 0.210504 32.0698 0.0837402 33.6332 0.0837402C35.5345 0.0837402 36.6753 0.252746 37.6894 0.844285C38.6612 1.35132 39.3373 2.28087 39.3373 3.5062C39.3373 4.73154 38.619 5.87237 37.0979 6.42166V6.4639C38.6612 6.88643 39.802 8.0695 39.802 9.84412C39.802 11.0695 39.2528 12.0413 38.3654 12.7596C37.3514 13.5624 35.7035 13.9849 32.9994 13.9849C31.4783 13.9849 30.3374 13.9004 29.6614 13.7736V0.379515H29.6191ZM32.7036 5.5766H33.7176C35.3232 5.5766 36.2106 4.90056 36.2106 3.88649C36.2106 2.87242 35.4078 2.32313 34.0134 2.32313C33.3374 2.32313 32.9571 2.36539 32.7036 2.40764V5.5766ZM32.7036 11.661C32.9994 11.7032 33.3796 11.7033 33.8867 11.7033C35.281 11.7033 36.5063 11.1962 36.5063 9.71737C36.5063 8.32303 35.281 7.77375 33.7176 7.77375H32.6613V11.661H32.7036Z" fill="#CBCBCB"/>
<path d="M45.5053 10.3523L44.5335 13.8593H41.3223L45.5053 0.169434H49.5616L53.7868 13.8593H50.4489L49.3926 10.3523H45.5053ZM48.97 8.02844L48.125 5.11299C47.8715 4.31018 47.6179 3.29614 47.4489 2.49334H47.4067C47.1954 3.29614 46.9841 4.35244 46.7729 5.11299L45.9278 8.02844H48.97Z" fill="#CBCBCB"/>
<path d="M56.1113 13.8593V0.169434H59.7028L62.5338 5.1975C63.3366 6.63409 64.1394 8.32422 64.7731 9.88757H64.8154C64.6042 8.0707 64.5619 6.25383 64.5619 4.18345V0.169434H67.3928V13.8593H64.1394L61.2239 8.57772C60.4211 7.09887 59.5338 5.36653 58.8578 3.76092H58.8155C58.9 5.57779 58.9423 7.47915 58.9423 9.71855V13.8171H56.1113V13.8593Z" fill="#CBCBCB"/>
<path d="M70.6465 0.168733H73.6887V6.21087H73.7309C74.0267 5.70384 74.3647 5.19679 74.6605 4.68976L77.7449 0.126465H81.5477L77.0266 5.95734L81.8012 13.8164H78.2097L74.8718 7.90099L73.6887 9.33756V13.8164H70.6465V0.168733Z" fill="#CBCBCB"/>
<path d="M86.7016 0.169434V13.8593H83.6172V0.169434H86.7016Z" fill="#CBCBCB"/>
<path d="M89.8711 13.8593V0.169434H93.4626L96.2935 5.1975C97.0963 6.63409 97.8991 8.32422 98.5329 9.88757H98.5752C98.3639 8.0707 98.3216 6.25383 98.3216 4.18345V0.169434H101.153V13.8593H97.8991L94.9837 8.57772C94.1809 7.09887 93.2936 5.36653 92.6175 3.76092H92.5753C92.6598 5.57779 92.702 7.47915 92.702 9.71855V13.8171H89.8711V13.8593Z" fill="#CBCBCB"/>
<path d="M115.772 13.2251C114.8 13.5631 113.025 13.9857 111.208 13.9857C108.716 13.9857 106.899 13.3519 105.631 12.1266C104.364 10.9435 103.688 9.16886 103.688 7.14073C103.688 2.57743 107.025 0 111.504 0C113.279 0 114.631 0.338012 115.307 0.676034L114.673 3.16896C113.913 2.83094 112.983 2.57741 111.504 2.57741C108.927 2.57741 106.983 4.05626 106.983 7.01395C106.983 9.84489 108.758 11.4928 111.293 11.4928C112.011 11.4928 112.561 11.4083 112.814 11.2815V8.45055H110.701V6.04214H115.772V13.2251Z" fill="#CBCBCB"/>
</svg>
