<svg width="130" height="53" viewBox="0 0 130 53" fill="none" xmlns="http://www.w3.org/2000/svg">
<path d="M43.6685 33.5829C42.1172 35.0922 40.1048 35.805 37.9665 35.805C32.3903 35.805 30.0005 31.9477 30.0005 28.0486C29.9586 24.1075 32.5161 20.1245 37.9665 20.1245C40.0209 20.1245 41.9495 20.8792 43.5008 22.4305L41.6141 24.2752C40.6079 23.3109 39.3082 22.8497 37.9665 22.8497C34.3189 22.8497 32.7676 25.5749 32.7676 28.0905C32.7676 30.5222 34.2351 33.1217 37.9665 33.1217C39.2662 33.1217 40.7756 32.5766 41.7399 31.6123L43.6685 33.5829Z" fill="#045F87"/>
<path d="M58.2586 20.418V29.0548C58.2586 33.499 55.5334 35.763 51.76 35.763C48.1544 35.763 45.0938 33.5828 45.0938 29.0548V20.418H47.9028V29.0548C47.9028 31.78 49.4541 33.2055 51.802 33.2055C54.1498 33.2055 55.4915 31.6542 55.4915 29.0548V20.418H58.2586Z" fill="#045F87"/>
<path d="M74.358 35.4695H71.0039L66.6016 30.4383H63.8764V35.4695H61.0254V20.376C63.4152 20.376 65.805 20.4179 68.1948 20.4179C71.7585 20.4598 73.6033 22.8077 73.6033 25.4071C73.6033 27.4615 72.639 29.5578 69.788 30.1448L74.358 35.3018V35.4695ZM63.8764 23.0593V27.8808H68.1948C69.9976 27.8808 70.7942 26.6649 70.7942 25.491C70.7942 24.3171 69.9976 23.1012 68.1948 23.1012H63.8764V23.0593Z" fill="#045F87"/>
<path d="M86.1819 32.6185H78.2998L77.0001 35.4695H73.9395L80.6896 20.418H83.7921L90.5842 35.4695H87.4817L86.1819 32.6185ZM82.2828 23.5624L79.4737 29.9772H85.0499L82.2828 23.5624Z" fill="#045F87"/>
<path d="M93.2679 22.9754H88.4883V20.376C92.8486 20.376 96.4962 20.376 100.857 20.376V22.9754H96.077V35.4275H93.226V22.9754H93.2679Z" fill="#045F87"/>
<path d="M113.811 35.4695H102.533C102.533 30.4803 102.533 25.4491 102.533 20.418H113.811V23.1851H105.384V26.665H113.518V29.3064H105.384V32.7024H113.811V35.4695Z" fill="#045F87"/>
<path d="M129.241 27.797C129.324 31.6123 126.977 35.4695 121.736 35.4695C119.891 35.4695 117.669 35.4695 115.824 35.4695V20.418C117.669 20.418 119.891 20.418 121.736 20.418C126.893 20.418 129.199 24.1075 129.241 27.797ZM118.633 32.7443H121.736C125.174 32.7443 126.515 30.2707 126.432 27.797C126.348 25.4491 125.006 23.1013 121.736 23.1013H118.633V32.7443Z" fill="#045F87"/>
<path d="M30.6699 0.334988C31.4665 0.167283 33.1016 0.0415039 34.6529 0.0415039C36.5396 0.0415039 37.6716 0.209209 38.6779 0.796178C39.6002 1.29929 40.2711 2.22167 40.2711 3.47946C40.2711 4.69533 39.5583 5.82734 38.049 6.37238V6.41431C39.6002 6.83357 40.7322 8.00751 40.7322 9.76841C40.7322 10.9843 40.1872 11.9486 39.3067 12.6613C38.3424 13.416 36.7073 13.8353 33.9821 13.8353C32.4728 13.8353 31.3407 13.7514 30.6699 13.6256V0.334988ZM33.7305 5.53385H34.7368C36.33 5.53385 37.2104 4.86303 37.2104 3.8568C37.2104 2.85057 36.4138 2.30553 35.0303 2.30553C34.3594 2.30553 33.9821 2.34745 33.7305 2.38938V5.53385ZM33.7305 11.5293C34.024 11.5712 34.4014 11.5712 34.9045 11.5712C36.2881 11.5712 37.5039 11.0681 37.5039 9.60071C37.5039 8.21714 36.2881 7.6721 34.7368 7.6721H33.6886V11.5293H33.7305Z" fill="#02B570"/>
<path d="M46.3929 10.2297L45.4286 13.7096H42.2422L46.3929 0.125488H50.4178L54.6105 13.7096H51.2983L50.2501 10.2297H46.3929ZM49.8728 7.92379L49.0343 5.03087C48.7827 4.23427 48.5311 3.22804 48.3634 2.43144H48.3215C48.1119 3.22804 47.9022 4.2762 47.6926 5.03087L46.896 7.92379H49.8728Z" fill="#02B570"/>
<path d="M56.959 13.7096V0.125488H60.5227L63.3318 5.11472C64.1284 6.54022 64.925 8.21727 65.5539 9.76855H65.5958C65.3862 7.96571 65.3443 6.16288 65.3443 4.10849V0.125488H68.1533V13.7096H64.925L62.074 8.46883C61.2774 7.00141 60.3969 5.28243 59.7261 3.68923H59.6842C59.768 5.49206 59.81 7.37874 59.81 9.60084V13.6677H56.959V13.7096Z" fill="#02B570"/>
<path d="M71.3398 0.125422H74.3585V6.12089H74.4005C74.6939 5.61777 75.0294 5.11466 75.3228 4.61154L78.3835 0.0834961H82.1568L77.6707 5.86933L82.4084 13.6676H78.8447L75.5325 7.79794L74.3585 9.22344V13.6676H71.3398V0.125422Z" fill="#02B570"/>
<path d="M87.2716 0.125488V13.7096H84.2109V0.125488H87.2716Z" fill="#02B570"/>
<path d="M90.457 13.7096V0.125488H94.0208L96.8298 5.11472C97.6264 6.54022 98.423 8.21727 99.0519 9.76855H99.0939C98.8842 7.96571 98.8423 6.16288 98.8423 4.10849V0.125488H101.651V13.7096H98.423L95.5301 8.46883C94.7335 7.00141 93.8531 5.28243 93.1822 3.68923H93.1403C93.2242 5.49206 93.2661 7.37874 93.2661 9.60084V13.6677H90.457V13.7096Z" fill="#02B570"/>
<path d="M116.159 13.081C115.195 13.4164 113.434 13.8357 111.631 13.8357C109.157 13.8357 107.354 13.2068 106.097 11.9909C104.839 10.817 104.168 9.05609 104.168 7.04362C104.252 2.55751 107.522 0 111.966 0C113.727 0 115.069 0.335411 115.74 0.670821L115.111 3.14448C114.356 2.80906 113.434 2.55751 111.966 2.55751C109.409 2.55751 107.48 4.02493 107.48 6.95977C107.48 9.76884 109.241 11.404 111.757 11.404C112.469 11.404 113.014 11.3201 113.266 11.1943V8.34334H111.17V5.95354H116.201V13.081H116.159Z" fill="#02B570"/>
<path d="M7 25L10 28L20 18" stroke="#02B570" stroke-width="2" stroke-linecap="round" stroke-linejoin="round"/>
<path d="M19 26V33C19 33.5304 18.7893 34.0391 18.4142 34.4142C18.0391 34.7893 17.5304 35 17 35H3C2.46957 35 1.96086 34.7893 1.58579 34.4142C1.21071 34.0391 1 33.5304 1 33V19C1 18.4696 1.21071 17.9609 1.58579 17.5858C1.96086 17.2107 2.46957 17 3 17H14" stroke="#045F87" stroke-width="2" stroke-linecap="round" stroke-linejoin="round"/>
<path d="M32.4121 46.0303H32.9004C33.3789 46.0303 33.7321 45.9505 33.96 45.791C34.1878 45.6315 34.3018 45.3809 34.3018 45.0391C34.3018 44.7005 34.1846 44.4596 33.9502 44.3164C33.7191 44.1732 33.3594 44.1016 32.8711 44.1016H32.4121V46.0303ZM32.4121 47.2607V50H30.8984V42.8613H32.9785C33.9486 42.8613 34.6663 43.0387 35.1318 43.3936C35.5973 43.7451 35.8301 44.2806 35.8301 45C35.8301 45.4199 35.7145 45.7943 35.4834 46.123C35.2523 46.4486 34.9251 46.7041 34.502 46.8896C35.5762 48.4945 36.276 49.5312 36.6016 50H34.9219L33.2178 47.2607H32.4121ZM41.6113 50H37.5V42.8613H41.6113V44.1016H39.0137V45.6689H41.4307V46.9092H39.0137V48.75H41.6113V50ZM49.585 46.4209C49.585 47.2607 49.4352 47.9655 49.1357 48.5352C48.8395 49.1016 48.4033 49.5166 47.8271 49.7803L49.5459 51.6992H47.6074L46.2988 50.0977H46.1865C45.0928 50.0977 44.2529 49.7803 43.667 49.1455C43.0811 48.5107 42.7881 47.5993 42.7881 46.4111C42.7881 45.223 43.0811 44.3164 43.667 43.6914C44.2562 43.0632 45.0993 42.749 46.1963 42.749C47.2933 42.749 48.1315 43.0648 48.7109 43.6963C49.2936 44.3278 49.585 45.236 49.585 46.4209ZM44.375 46.4209C44.375 47.2184 44.5264 47.819 44.8291 48.2227C45.1318 48.6263 45.5843 48.8281 46.1865 48.8281C47.3942 48.8281 47.998 48.0257 47.998 46.4209C47.998 44.8128 47.3975 44.0088 46.1963 44.0088C45.5941 44.0088 45.14 44.2122 44.834 44.6191C44.528 45.0228 44.375 45.6234 44.375 46.4209ZM56.875 42.8613V47.4805C56.875 48.0078 56.7562 48.4701 56.5186 48.8672C56.2842 49.2643 55.944 49.5687 55.498 49.7803C55.0521 49.9919 54.5247 50.0977 53.916 50.0977C52.998 50.0977 52.2852 49.8633 51.7773 49.3945C51.2695 48.9225 51.0156 48.278 51.0156 47.4609V42.8613H52.5244V47.2314C52.5244 47.7816 52.6351 48.1852 52.8564 48.4424C53.0778 48.6995 53.444 48.8281 53.9551 48.8281C54.4499 48.8281 54.8079 48.6995 55.0293 48.4424C55.2539 48.182 55.3662 47.7751 55.3662 47.2217V42.8613H56.875ZM62.7344 50H58.623V42.8613H62.7344V44.1016H60.1367V45.6689H62.5537V46.9092H60.1367V48.75H62.7344V50ZM68.4424 48.0176C68.4424 48.6621 68.2096 49.1699 67.7441 49.541C67.2819 49.9121 66.6374 50.0977 65.8105 50.0977C65.0488 50.0977 64.375 49.9544 63.7891 49.668V48.2617C64.2708 48.4766 64.6777 48.6279 65.0098 48.7158C65.3451 48.8037 65.651 48.8477 65.9277 48.8477C66.2598 48.8477 66.5137 48.7842 66.6895 48.6572C66.8685 48.5303 66.958 48.3415 66.958 48.0908C66.958 47.9508 66.9189 47.8271 66.8408 47.7197C66.7627 47.609 66.6471 47.5033 66.4941 47.4023C66.3444 47.3014 66.0368 47.1403 65.5713 46.9189C65.1351 46.7139 64.8079 46.5169 64.5898 46.3281C64.3717 46.1393 64.1976 45.9196 64.0674 45.6689C63.9372 45.4183 63.8721 45.1253 63.8721 44.79C63.8721 44.1585 64.0853 43.6621 64.5117 43.3008C64.9414 42.9395 65.5339 42.7588 66.2891 42.7588C66.6602 42.7588 67.0133 42.8027 67.3486 42.8906C67.6872 42.9785 68.0404 43.1022 68.4082 43.2617L67.9199 44.4385C67.5391 44.2822 67.2233 44.1732 66.9727 44.1113C66.7253 44.0495 66.4811 44.0186 66.2402 44.0186C65.9538 44.0186 65.734 44.0853 65.5811 44.2188C65.4281 44.3522 65.3516 44.5264 65.3516 44.7412C65.3516 44.8747 65.3825 44.9919 65.4443 45.0928C65.5062 45.1904 65.6038 45.2865 65.7373 45.3809C65.874 45.472 66.1947 45.638 66.6992 45.8789C67.3665 46.1979 67.8239 46.5186 68.0713 46.8408C68.3187 47.1598 68.4424 47.5521 68.4424 48.0176ZM72.4902 50H70.9766V44.1211H69.0381V42.8613H74.4287V44.1211H72.4902V50ZM79.6387 50H75.5273V42.8613H79.6387V44.1016H77.041V45.6689H79.458V46.9092H77.041V48.75H79.6387V50ZM87.0557 46.3623C87.0557 47.5374 86.7204 48.4375 86.0498 49.0625C85.3825 49.6875 84.4173 50 83.1543 50H81.1328V42.8613H83.374C84.5394 42.8613 85.4443 43.1689 86.0889 43.7842C86.7334 44.3994 87.0557 45.2588 87.0557 46.3623ZM85.4834 46.4014C85.4834 44.8682 84.8063 44.1016 83.4521 44.1016H82.6465V48.75H83.2959C84.7542 48.75 85.4834 47.9671 85.4834 46.4014Z" fill="#045F87"/>
</svg>
