<svg width="125" height="30" viewBox="0 0 125 30" fill="none" xmlns="http://www.w3.org/2000/svg">
<path d="M41.7233 26.9602C40.2092 28.4322 38.2745 29.1473 36.1715 29.1473C30.7459 29.1473 28.4327 25.404 28.3906 21.5766C28.3906 17.7493 30.8721 13.8378 36.1715 13.8378C38.1483 13.8378 40.0409 14.5949 41.5551 16.0669L39.7045 17.8334C38.7371 16.9081 37.4333 16.4454 36.1715 16.4454C32.6386 16.4454 31.1245 19.0952 31.1245 21.5346C31.1245 23.974 32.5545 26.4975 36.1715 26.4975C37.4333 26.4975 38.9054 25.9928 39.8727 25.0255L41.7233 26.9602Z" fill="#CBCBCB"/>
<path d="M55.8974 14.1747V22.5444C55.8974 26.8765 53.2477 29.1056 49.5465 29.1056C46.0135 29.1056 43.0273 26.9606 43.0273 22.5444V14.1747H45.7612V22.5444C45.7612 25.1941 47.2753 26.5821 49.5465 26.5821C51.8177 26.5821 53.1215 25.0679 53.1215 22.5444V14.1747H55.8974Z" fill="#CBCBCB"/>
<path d="M71.5851 28.8113H68.3044L64.0565 23.9325H61.4068V28.8113H58.6309V14.1327C60.9441 14.1327 63.2574 14.1327 65.6127 14.1327C69.0615 14.1327 70.8701 16.4459 70.8701 18.9695C70.8701 20.9883 69.9448 23.0072 67.1689 23.5539L71.5851 28.559V28.8113ZM61.3647 16.7404V21.4089H65.5706C67.3371 21.4089 68.0941 20.2313 68.0941 19.0536C68.0941 17.876 67.3371 16.6983 65.5706 16.6983H61.3647V16.7404Z" fill="#CBCBCB"/>
<path d="M83.1098 26.0353H75.455L74.1932 28.8112H71.207L77.7682 14.1747H80.7965L87.3577 28.8112H84.3295L83.1098 26.0353ZM79.2824 17.245L76.5486 23.4697H81.9741L79.2824 17.245Z" fill="#CBCBCB"/>
<path d="M90.0074 16.6562H85.3809V14.1327C89.5868 14.1327 93.2038 14.1327 97.4518 14.1327V16.6562H92.8253V28.8113H90.0494V16.6562H90.0074Z" fill="#CBCBCB"/>
<path d="M109.985 28.8112H99.0078C99.0078 23.9323 99.0078 19.0535 99.0078 14.1747H109.985V16.8664H101.784V20.2311H109.733V22.7968H101.784V26.1194H109.985V28.8112Z" fill="#CBCBCB"/>
<path d="M125 21.3666C125.042 25.0678 122.813 28.8111 117.682 28.8111C115.873 28.8111 113.728 28.8111 111.92 28.8111V14.1746C113.728 14.1746 115.873 14.1746 117.682 14.1746C122.729 14.1325 124.958 17.7075 125 21.3666ZM114.696 26.1193H117.724C121.047 26.1193 122.351 23.6799 122.308 21.3246C122.266 19.0534 120.921 16.7822 117.724 16.7822H114.696V26.1193Z" fill="#CBCBCB"/>
<path fill-rule="evenodd" clip-rule="evenodd" d="M4.54205 11.5666L4.5 8.15982C4.5 7.82334 4.71028 7.52893 4.96264 7.52893H7.31793C7.57029 7.52893 7.82267 7.82334 7.82267 8.15982L7.86472 11.5666C7.86472 11.9031 7.65444 12.1975 7.40208 12.1975H5.04679C4.75237 12.1975 4.54205 11.9031 4.54205 11.5666Z" fill="#CBCBCB"/>
<path fill-rule="evenodd" clip-rule="evenodd" d="M9.00103 17.3707L8.95898 13.9639C8.95898 13.6274 9.16927 13.333 9.42162 13.333H11.777C12.0293 13.333 12.2817 13.6274 12.2817 13.9639L12.3237 17.3707C12.3237 17.7071 12.1134 18.0015 11.8611 18.0015H9.50577C9.21136 18.0015 9.00103 17.7071 9.00103 17.3707Z" fill="#CBCBCB"/>
<path fill-rule="evenodd" clip-rule="evenodd" d="M13.417 23.1329L13.375 19.7261C13.375 19.3896 13.5853 19.0952 13.8376 19.0952H16.193C16.4453 19.0952 16.6977 19.3896 16.6977 19.7261L16.7397 23.1329C16.7397 23.4693 16.5294 23.7638 16.2771 23.7638H13.9218C13.6274 23.7638 13.417 23.4693 13.417 23.1329Z" fill="#CBCBCB"/>
<path fill-rule="evenodd" clip-rule="evenodd" d="M13.417 11.5666L13.375 8.15982C13.375 7.82334 13.5853 7.52893 13.8376 7.52893H16.193C16.4453 7.52893 16.6977 7.82334 16.6977 8.15982L16.7397 11.5666C16.7397 11.9031 16.5294 12.1975 16.2771 12.1975H13.9218C13.6274 12.1975 13.417 11.9031 13.417 11.5666Z" fill="#CBCBCB"/>
<path fill-rule="evenodd" clip-rule="evenodd" d="M17.8761 17.3707L17.834 13.9639C17.834 13.6274 18.0443 13.333 18.2967 13.333H20.652C20.9043 13.333 21.1567 13.6274 21.1567 13.9639L21.1987 17.3707C21.1987 17.7071 20.9884 18.0015 20.7361 18.0015H18.3808C18.0864 18.0015 17.8761 17.7071 17.8761 17.3707Z" fill="#CBCBCB"/>
<path fill-rule="evenodd" clip-rule="evenodd" d="M17.8761 5.80438L17.834 2.39761C17.834 2.06114 18.0443 1.76672 18.2967 1.76672H20.652C20.9043 1.76672 21.1567 2.06114 21.1567 2.39761L21.1987 5.80438C21.1987 6.14085 20.9884 6.43527 20.7361 6.43527H18.3808C18.0864 6.43527 17.8761 6.14085 17.8761 5.80438Z" fill="#CBCBCB"/>
<path d="M19.2537 15.8737L14.291 21.1373L14.8112 21.6278L19.7739 16.3642L19.2537 15.8737Z" fill="#CBCBCB"/>
<path d="M18.9354 4.60559L14.1934 10.0688L14.7334 10.5376L19.4754 5.0743L18.9354 4.60559Z" fill="#CBCBCB"/>
<path fill-rule="evenodd" clip-rule="evenodd" d="M0.0420488 11.5663L0 8.15957C0 7.8231 0.210285 7.52869 0.462639 7.52869H2.81793C3.07029 7.52869 3.32262 7.8231 3.32262 8.15957L3.36472 11.5663C3.36472 11.9028 3.15439 12.1972 2.90203 12.1972H0.546737C0.252323 12.1972 0.0420488 11.9028 0.0420488 11.5663Z" fill="#CBCBCB"/>
<path fill-rule="evenodd" clip-rule="evenodd" d="M0.0420488 17.3704L0 13.9636C0 13.6272 0.210285 13.3328 0.462639 13.3328H2.81793C3.07029 13.3328 3.32262 13.6272 3.32262 13.9636L3.36472 17.3704C3.36472 17.7069 3.15439 18.0013 2.90203 18.0013H0.546737C0.252323 18.0013 0.0420488 17.7069 0.0420488 17.3704Z" fill="#CBCBCB"/>
<path fill-rule="evenodd" clip-rule="evenodd" d="M9.00103 23.1744L8.95898 19.7676C8.95898 19.4311 9.16927 19.1367 9.42162 19.1367H11.777C12.0293 19.1367 12.2817 19.4311 12.2817 19.7676L12.3237 23.1744C12.3237 23.5108 12.1134 23.8053 11.8611 23.8053H9.50577C9.21136 23.8053 9.00103 23.5108 9.00103 23.1744Z" fill="#CBCBCB"/>
<path fill-rule="evenodd" clip-rule="evenodd" d="M9.00103 11.5663L8.95898 8.15957C8.95898 7.8231 9.16927 7.52869 9.42162 7.52869H11.777C12.0293 7.52869 12.2817 7.8231 12.2817 8.15957L12.3237 11.5663C12.3237 11.9028 12.1134 12.1972 11.8611 12.1972H9.50577C9.21136 12.1972 9.00103 11.9028 9.00103 11.5663Z" fill="#CBCBCB"/>
<path fill-rule="evenodd" clip-rule="evenodd" d="M13.417 17.3704L13.375 13.9636C13.375 13.6272 13.5853 13.3328 13.8376 13.3328H16.193C16.4453 13.3328 16.6977 13.6272 16.6977 13.9636L16.7397 17.3704C16.7397 17.7069 16.5294 18.0013 16.2771 18.0013H13.9218C13.6274 18.0013 13.417 17.7069 13.417 17.3704Z" fill="#CBCBCB"/>
<path fill-rule="evenodd" clip-rule="evenodd" d="M4.54205 5.88836L4.5 2.48159C4.5 2.14512 4.71028 1.85071 4.96264 1.85071H7.31793C7.57029 1.85071 7.82267 2.14512 7.82267 2.48159L7.86472 5.88836C7.86472 6.22484 7.65444 6.51925 7.40208 6.51925H5.04679C4.75237 6.51925 4.54205 6.2669 4.54205 5.88836Z" fill="#CBCBCB"/>
<path fill-rule="evenodd" clip-rule="evenodd" d="M8.95806 5.84601L8.91602 2.43924C8.91602 2.10276 9.1263 1.80835 9.37865 1.80835H11.7339C11.9863 1.80835 12.2387 2.10276 12.2387 2.43924L12.2807 5.84601C12.2807 6.18248 12.0705 6.47689 11.8181 6.47689H9.4628C9.16839 6.47689 8.95806 6.18248 8.95806 5.84601Z" fill="#CBCBCB"/>
<path fill-rule="evenodd" clip-rule="evenodd" d="M13.417 5.80414L13.375 2.39736C13.375 2.06089 13.5853 1.76648 13.8376 1.76648H16.193C16.4453 1.76648 16.6977 2.06089 16.6977 2.39736L16.7397 5.80414C16.7397 6.14061 16.5294 6.43502 16.2771 6.43502H13.9218C13.6274 6.43502 13.417 6.18267 13.417 5.80414Z" fill="#CBCBCB"/>
<path fill-rule="evenodd" clip-rule="evenodd" d="M17.8761 11.5663L17.834 8.15957C17.834 7.8231 18.0443 7.52869 18.2967 7.52869H20.652C20.9043 7.52869 21.1567 7.8231 21.1567 8.15957L21.1987 11.5663C21.1987 11.9028 20.9884 12.1972 20.7361 12.1972H18.3808C18.0864 12.1972 17.8761 11.9028 17.8761 11.5663Z" fill="#CBCBCB"/>
<path d="M28.6007 0.546908C29.1054 0.46279 30.1148 0.378662 31.0401 0.378662C32.2177 0.378662 32.9328 0.504829 33.5216 0.841301C34.1104 1.13571 34.531 1.72455 34.531 2.48161C34.531 3.23868 34.1104 3.91164 33.143 4.29017V4.33222C34.1104 4.58458 34.8254 5.29959 34.8254 6.39312C34.8254 7.15019 34.4889 7.73899 33.9422 8.15958C33.3113 8.66429 32.3019 8.91667 30.6195 8.91667C29.6942 8.91667 28.9792 8.87459 28.5586 8.79047V0.546908H28.6007ZM30.4934 3.78543H31.1242C32.1337 3.78543 32.6804 3.36484 32.6804 2.73396C32.6804 2.10307 32.1757 1.76663 31.3345 1.76663C30.9139 1.76663 30.7036 1.80868 30.5354 1.80868V3.78543H30.4934ZM30.4934 7.48665C30.6616 7.52871 30.9139 7.5287 31.2504 7.5287C32.0916 7.5287 32.8907 7.19221 32.8907 6.30897C32.8907 5.46779 32.1336 5.13135 31.1663 5.13135H30.5354V7.48665H30.4934Z" fill="#CBCBCB"/>
<path d="M38.3586 1.05156C38.3586 1.55626 37.938 2.01893 37.3491 2.01893C36.7603 2.01893 36.3397 1.59832 36.3818 1.05156C36.3818 0.504788 36.7603 0.0842285 37.3912 0.0842285C38.0221 0.0842285 38.3586 0.504788 38.3586 1.05156ZM36.3818 8.83248V2.73392H38.2745V8.83248H36.3818Z" fill="#CBCBCB"/>
<path d="M46.182 5.72011C46.182 7.94924 44.5838 9.00074 42.9435 9.00074C41.177 9.00074 39.7891 7.82309 39.7891 5.84631C39.7891 3.86954 41.0929 2.60779 43.0696 2.60779C44.9202 2.60779 46.182 3.86952 46.182 5.72011ZM41.7238 5.80426C41.7238 6.85574 42.1444 7.65487 42.9855 7.65487C43.7426 7.65487 44.2053 6.8978 44.2053 5.80426C44.2053 4.87897 43.8688 3.95366 42.9855 3.95366C42.0602 3.95366 41.7238 4.87897 41.7238 5.80426Z" fill="#CBCBCB"/>
<path d="M47.6534 4.79484C47.6534 3.99572 47.6113 3.32276 47.6113 2.73393H49.2516L49.3357 3.57511H49.3778C49.8404 2.94423 50.5134 2.60779 51.3966 2.60779C52.7425 2.60779 53.9202 3.7854 53.9202 5.72011C53.9202 7.94924 52.4902 9.00074 51.1443 9.00074C50.3872 9.00074 49.8404 8.70635 49.546 8.28576H49.504V11.314H47.6113V4.79484H47.6534ZM49.546 6.22485C49.546 6.39309 49.546 6.51927 49.5881 6.64544C49.7143 7.15015 50.1349 7.52867 50.6817 7.52867C51.5228 7.52867 51.9855 6.85574 51.9855 5.80426C51.9855 4.83691 51.5649 4.07985 50.6817 4.07985C50.1349 4.07985 49.6722 4.50041 49.546 5.04718C49.504 5.1313 49.504 5.2575 49.504 5.38367V6.22485H49.546Z" fill="#CBCBCB"/>
<path d="M55.4336 0H57.3263V3.49092H57.3683C57.5786 3.23857 57.831 3.02827 58.1254 2.86003C58.4198 2.6918 58.7563 2.60769 59.0928 2.60769C60.3125 2.60769 61.2378 3.44883 61.2378 5.29943V8.87444H59.3451V5.50972C59.3451 4.7106 59.0507 4.16385 58.3777 4.16385C57.873 4.16385 57.5786 4.50032 57.4104 4.83679C57.3683 4.96297 57.3683 5.1312 57.3683 5.25738V8.87444H55.4756V0H55.4336Z" fill="#CBCBCB"/>
<path d="M66.5385 8.83241L66.4123 8.20153H66.3702C65.9496 8.70624 65.3608 8.95861 64.6038 8.95861C63.384 8.95861 62.627 8.07537 62.627 7.06596C62.627 5.46771 64.057 4.71066 66.202 4.71066V4.62651C66.202 4.29004 66.0337 3.82738 65.1084 3.82738C64.4776 3.82738 63.8046 4.03772 63.4261 4.29007L63.0896 3.07035C63.5102 2.81799 64.3514 2.52356 65.4449 2.52356C67.4638 2.52356 68.1367 3.74329 68.1367 5.1733V7.27625C68.1367 7.86508 68.1788 8.41184 68.2208 8.74832H66.5385V8.83241ZM66.3282 5.97243C65.3188 5.97243 64.5617 6.1827 64.5617 6.93976C64.5617 7.44447 64.8982 7.65479 65.3187 7.65479C65.7814 7.65479 66.1599 7.36035 66.2861 6.93976C66.3282 6.85564 66.3282 6.72949 66.3282 6.60332V5.97243Z" fill="#CBCBCB"/>
<path d="M69.9874 4.75279C69.9874 3.86955 69.9453 3.2807 69.9453 2.73393H71.5856L71.6277 3.86956H71.6697C71.9641 2.98632 72.7212 2.60779 73.31 2.60779C73.4783 2.60779 73.5624 2.60778 73.7306 2.64984V4.4163C73.6044 4.37424 73.4362 4.37425 73.2259 4.37425C72.5109 4.37425 72.0483 4.7528 71.9221 5.34162C71.8801 5.4678 71.88 5.63604 71.88 5.76222V8.87454H69.9874V4.75279Z" fill="#CBCBCB"/>
<path d="M75.0342 4.71056C75.0342 3.9535 74.9922 3.28051 74.9922 2.7758H76.5905L76.6745 3.61699H76.7166C76.969 3.23845 77.5157 2.64966 78.5672 2.64966C79.3663 2.64966 79.9972 3.07025 80.2496 3.70113H80.2916C80.5019 3.40672 80.7963 3.15435 81.0907 2.94405C81.4272 2.73376 81.8058 2.64966 82.2684 2.64966C83.4461 2.64966 84.3293 3.49081 84.3293 5.29935V8.91646H82.4787V5.59379C82.4787 4.71055 82.1843 4.20582 81.5955 4.20582C81.1749 4.20582 80.8384 4.50022 80.7122 4.87876C80.6701 5.00493 80.6281 5.21526 80.6281 5.3835V8.95851H78.7775V5.55174C78.7775 4.79468 78.4831 4.24787 77.8943 4.24787C77.3896 4.24787 77.1372 4.62644 77.011 4.92086C76.969 5.08909 76.9269 5.25732 76.9269 5.3835V8.95851H75.0763V4.71056H75.0342Z" fill="#CBCBCB"/>
<path d="M89.5443 8.83241L89.4181 8.20153H89.3761C88.9555 8.70624 88.3666 8.95861 87.6096 8.95861C86.3899 8.95861 85.6328 8.07537 85.6328 7.06596C85.6328 5.46771 87.0628 4.71066 89.2078 4.71066V4.62651C89.2078 4.29004 89.0396 3.82738 88.1143 3.82738C87.4834 3.82738 86.8105 4.03772 86.4319 4.29007L86.0955 3.07035C86.516 2.81799 87.3572 2.52356 88.4507 2.52356C90.4696 2.52356 91.1425 3.74329 91.1425 5.1733V7.27625C91.1425 7.86508 91.1846 8.41184 91.2266 8.74832H89.5443V8.83241ZM89.334 5.97243C88.3246 5.97243 87.5675 6.1827 87.5675 6.93976C87.5675 7.44447 87.904 7.65479 88.3246 7.65479C88.7872 7.65479 89.1658 7.36035 89.2919 6.93976C89.334 6.85564 89.334 6.72949 89.334 6.60332V5.97243Z" fill="#CBCBCB"/>
</svg>
