<svg width="128" height="46" viewBox="0 0 128 46" fill="none" xmlns="http://www.w3.org/2000/svg">
<path d="M43.4601 27.2171C41.9316 28.7032 39.9783 29.4251 37.8553 29.4251C32.3778 29.4251 30.0425 25.646 30 21.7821C30 17.9181 32.5052 13.9692 37.8553 13.9692C39.851 13.9692 41.7617 14.7335 43.2903 16.2197L41.422 18.003C40.4454 17.0689 39.1291 16.6018 37.8553 16.6018C34.2886 16.6018 32.76 19.2769 32.76 21.7396C32.76 24.2023 34.2036 26.75 37.8553 26.75C39.1291 26.75 40.6153 26.2405 41.5919 25.2639L43.4601 27.2171Z" fill="#045F87"/>
<path d="M57.8114 14.3096V22.7593C57.8114 27.1328 55.1364 29.3832 51.3998 29.3832C47.8331 29.3832 44.8184 27.2177 44.8184 22.7593V14.3096H47.5783V22.7593C47.5783 25.4344 49.1069 26.8356 51.3998 26.8356C53.6927 26.8356 55.009 25.307 55.009 22.7593V14.3096H57.8114Z" fill="#045F87"/>
<path d="M73.6503 29.086H70.3383L66.0497 24.1605H63.3747V29.086H60.5723V14.2671C62.9076 14.2671 65.243 14.2671 67.6208 14.2671C71.1026 14.2671 72.9284 16.6024 72.9284 19.1501C72.9284 21.1882 71.9943 23.2264 69.1919 23.7784L73.6503 28.8312V29.086ZM63.3322 16.8997V21.6129H67.5783C69.3617 21.6129 70.126 20.4239 70.126 19.235C70.126 18.0461 69.3617 16.8572 67.5783 16.8572H63.3322V16.8997Z" fill="#045F87"/>
<path d="M85.2841 26.2836H77.5561L76.2823 29.086H73.2676L79.8915 14.3096H82.9487L89.5726 29.086H86.5154L85.2841 26.2836ZM81.4201 17.4092L78.6601 23.6935H84.1376L81.4201 17.4092Z" fill="#045F87"/>
<path d="M92.2039 16.8572H87.5332V14.3096C91.7793 14.3096 95.431 14.3096 99.7195 14.3096V16.8572H95.0488V29.1285H92.2464V16.8572H92.2039Z" fill="#045F87"/>
<path d="M112.416 29.086H101.334C101.334 24.1605 101.334 19.2351 101.334 14.3096H112.416V17.0271H104.136V20.424H112.162V23.0141H104.136V26.326H112.416V29.086Z" fill="#045F87"/>
<path d="M127.575 21.5704C127.617 25.307 125.367 29.086 120.186 29.086C118.36 29.086 116.195 29.086 114.369 29.086V14.3096C116.195 14.3096 118.36 14.3096 120.186 14.3096C125.239 14.3096 127.532 17.9188 127.575 21.5704ZM117.129 26.411H120.186C123.541 26.411 124.857 23.9482 124.815 21.5704C124.772 19.2775 123.413 16.9846 120.186 16.9846H117.129V26.411Z" fill="#045F87"/>
<path d="M30.2554 0.553145C30.7649 0.468223 31.7839 0.383301 32.7181 0.383301C33.907 0.383301 34.6288 0.510684 35.2233 0.850372C35.8177 1.1476 36.2424 1.74205 36.2424 2.50635C36.2424 3.27065 35.8177 3.95003 34.8411 4.33218V4.37464C35.8177 4.62941 36.5396 5.35124 36.5396 6.45523C36.5396 7.21953 36.1999 7.81398 35.6479 8.23859C35.011 8.74813 33.9919 9.00289 32.2935 9.00289C31.3593 9.00289 30.6375 8.96043 30.2129 8.87551V0.553145H30.2554ZM32.1661 3.82265H32.803C33.8221 3.82265 34.3741 3.39803 34.3741 2.76112C34.3741 2.1242 33.8645 1.78452 33.0153 1.78452C32.5907 1.78452 32.3784 1.82698 32.2086 1.82698V3.82265H32.1661ZM32.1661 7.60168C32.3359 7.64414 32.5907 7.64414 32.9304 7.64414C33.7796 7.64414 34.5864 7.30445 34.5864 6.41277C34.5864 5.56355 33.8221 5.22386 32.8455 5.22386H32.2086V7.60168H32.1661Z" fill="#009500"/>
<path d="M40.106 1.06156C40.106 1.5711 39.6814 2.03817 39.087 2.03817C38.4925 2.03817 38.0679 1.61356 38.1103 1.06156C38.1103 0.509571 38.4925 0.0849609 39.1294 0.0849609C39.7663 0.0849609 40.0636 0.509571 40.106 1.06156ZM38.1103 8.95932V2.80247H40.0211V8.95932H38.1103Z" fill="#009500"/>
<path d="M47.9619 5.81694C47.9619 8.06738 46.3484 9.1289 44.6924 9.1289C42.909 9.1289 41.5078 7.94 41.5078 5.94433C41.5078 3.94866 42.8241 2.67483 44.8198 2.67483C46.7305 2.63237 47.9619 3.94866 47.9619 5.81694ZM43.5035 5.8594C43.5035 6.92093 43.9281 7.72769 44.7773 7.72769C45.5416 7.72769 46.0087 6.96339 46.0087 5.8594C46.0087 4.92526 45.669 3.99112 44.7773 3.99112C43.8432 3.99112 43.5035 4.96772 43.5035 5.8594Z" fill="#009500"/>
<path d="M49.4878 4.84079C49.4878 4.03403 49.4453 3.35465 49.4453 2.7602H51.1013L51.1862 3.60942H51.2287C51.6957 2.9725 52.3751 2.63281 53.2668 2.63281C54.6256 2.63281 55.8145 3.82172 55.8145 5.77493C55.8145 8.02537 54.3708 9.08689 53.012 9.08689C52.2477 9.08689 51.6958 8.78966 51.3985 8.36505H51.3561V11.4647H49.4453V4.84079H49.4878ZM51.3985 6.28446C51.3985 6.45431 51.3985 6.58169 51.441 6.70907C51.5684 7.21861 51.993 7.60075 52.545 7.60075C53.3942 7.60075 53.8613 6.92138 53.8613 5.85985C53.8613 4.88325 53.4367 4.11895 52.545 4.11895C51.993 4.11895 51.5259 4.54356 51.3985 5.09555C51.3561 5.18048 51.3561 5.30786 51.3561 5.43524V6.28446H51.3985Z" fill="#009500"/>
<path d="M57.3457 0H59.2565V3.52427H59.2989C59.5112 3.2695 59.766 3.05719 60.0632 2.88735C60.3604 2.71751 60.7001 2.63258 61.0398 2.63258C62.2712 2.63258 63.2053 3.48181 63.2053 5.35009V8.95928H61.2521V5.5624C61.2521 4.75564 60.9549 4.20364 60.2755 4.20364C59.766 4.20364 59.4688 4.54333 59.2989 4.88302C59.2564 5.0104 59.2565 5.18025 59.2565 5.30763V8.95928H57.3457V0Z" fill="#009500"/>
<path d="M68.5543 8.95951L68.427 8.32259H68.3845C67.9599 8.83212 67.3654 9.08689 66.6011 9.08689C65.3698 9.08689 64.6055 8.19521 64.6055 7.17614C64.6055 5.56262 66.0491 4.79833 68.2147 4.79833V4.7134C68.2147 4.37372 68.0448 3.90664 67.1107 3.90664C66.4738 3.90664 65.7944 4.11895 65.4122 4.37372L65.0725 3.18481C65.4972 2.93004 66.3464 2.63281 67.4504 2.63281C69.4885 2.63281 70.1679 3.86418 70.1679 5.30786V7.43091C70.1679 8.02536 70.2103 8.57736 70.2528 8.91705H68.5543V8.95951ZM68.2996 6.0297C67.2805 6.0297 66.5162 6.242 66.5162 7.0063C66.5162 7.51583 66.8559 7.72814 67.2805 7.72814C67.7476 7.72814 68.1297 7.43091 68.2571 7.0063C68.2996 6.92138 68.2996 6.79399 68.2996 6.66661V6.0297Z" fill="#009500"/>
<path d="M71.9936 4.79833C71.9936 3.90664 71.9512 3.31219 71.9512 2.7602H73.6072L73.6496 3.90664H73.6921C73.9893 3.01496 74.7536 2.63281 75.3481 2.63281C75.5179 2.63281 75.6028 2.63281 75.7727 2.67527V4.45864C75.6453 4.41618 75.4754 4.41618 75.2631 4.41618C74.5413 4.41618 74.0742 4.79833 73.9468 5.39278C73.9044 5.52016 73.9044 5.69001 73.9044 5.81739V8.95951H71.9936V4.79833Z" fill="#009500"/>
<path d="M77.0893 4.7554C77.0893 3.9911 77.0469 3.31172 77.0469 2.80219H78.6604L78.7453 3.65141H78.7878C79.0425 3.26926 79.5945 2.6748 80.6561 2.6748C81.4628 2.6748 82.0997 3.09942 82.3545 3.73633H82.397C82.6093 3.4391 82.9065 3.18434 83.2037 2.97203C83.5434 2.75973 83.9256 2.6748 84.3926 2.6748C85.5815 2.6748 86.4732 3.52403 86.4732 5.34985V9.0015H84.6049V5.64708C84.6049 4.7554 84.3077 4.24586 83.7133 4.24586C83.2886 4.24586 82.949 4.54309 82.8216 4.92524C82.7791 5.05262 82.7367 5.26493 82.7367 5.43477V9.04396H80.8684V5.60462C80.8684 4.84032 80.5711 4.28832 79.9767 4.28832C79.4672 4.28832 79.2124 4.67047 79.085 4.9677C79.0425 5.13755 79.0001 5.30739 79.0001 5.43477V9.04396H77.1318V4.7554H77.0893Z" fill="#009500"/>
<path d="M91.7809 8.959L91.6535 8.32208H91.6111C91.1865 8.83162 90.592 9.08638 89.8277 9.08638C88.5963 9.08638 87.832 8.1947 87.832 7.17564C87.832 5.56212 89.2757 4.79782 91.4412 4.79782V4.7129C91.4412 4.37321 91.2714 3.90614 90.3372 3.90614C89.7003 3.90614 89.0209 4.11844 88.6388 4.37321L88.2991 3.14184C88.7237 2.88707 89.5729 2.58984 90.6769 2.58984C92.7151 2.58984 93.3944 3.82121 93.3944 5.26489V7.38794C93.3944 7.9824 93.4369 8.53439 93.4793 8.87408H91.7809V8.959ZM91.5261 6.02919C90.5071 6.02919 89.7428 6.24149 89.7428 7.00579C89.7428 7.51532 90.0825 7.72763 90.5071 7.72763C90.9741 7.72763 91.3563 7.4304 91.4837 7.00579C91.5261 6.92087 91.5261 6.79349 91.5261 6.6661V6.02919Z" fill="#009500"/>
<path d="M7 18L10 21L20 11" stroke="#009500" stroke-width="2" stroke-linecap="round" stroke-linejoin="round"/>
<path d="M19 19V26C19 26.5304 18.7893 27.0391 18.4142 27.4142C18.0391 27.7893 17.5304 28 17 28H3C2.46957 28 1.96086 27.7893 1.58579 27.4142C1.21071 27.0391 1 26.5304 1 26V12C1 11.4696 1.21071 10.9609 1.58579 10.5858C1.96086 10.2107 2.46957 10 3 10H14" stroke="#045F87" stroke-width="2" stroke-linecap="round" stroke-linejoin="round"/>
<path d="M32.4121 39.0303H32.9004C33.3789 39.0303 33.7321 38.9505 33.96 38.791C34.1878 38.6315 34.3018 38.3809 34.3018 38.0391C34.3018 37.7005 34.1846 37.4596 33.9502 37.3164C33.7191 37.1732 33.3594 37.1016 32.8711 37.1016H32.4121V39.0303ZM32.4121 40.2607V43H30.8984V35.8613H32.9785C33.9486 35.8613 34.6663 36.0387 35.1318 36.3936C35.5973 36.7451 35.8301 37.2806 35.8301 38C35.8301 38.4199 35.7145 38.7943 35.4834 39.123C35.2523 39.4486 34.9251 39.7041 34.502 39.8896C35.5762 41.4945 36.276 42.5312 36.6016 43H34.9219L33.2178 40.2607H32.4121ZM41.6113 43H37.5V35.8613H41.6113V37.1016H39.0137V38.6689H41.4307V39.9092H39.0137V41.75H41.6113V43ZM49.585 39.4209C49.585 40.2607 49.4352 40.9655 49.1357 41.5352C48.8395 42.1016 48.4033 42.5166 47.8271 42.7803L49.5459 44.6992H47.6074L46.2988 43.0977H46.1865C45.0928 43.0977 44.2529 42.7803 43.667 42.1455C43.0811 41.5107 42.7881 40.5993 42.7881 39.4111C42.7881 38.223 43.0811 37.3164 43.667 36.6914C44.2562 36.0632 45.0993 35.749 46.1963 35.749C47.2933 35.749 48.1315 36.0648 48.7109 36.6963C49.2936 37.3278 49.585 38.236 49.585 39.4209ZM44.375 39.4209C44.375 40.2184 44.5264 40.819 44.8291 41.2227C45.1318 41.6263 45.5843 41.8281 46.1865 41.8281C47.3942 41.8281 47.998 41.0257 47.998 39.4209C47.998 37.8128 47.3975 37.0088 46.1963 37.0088C45.5941 37.0088 45.14 37.2122 44.834 37.6191C44.528 38.0228 44.375 38.6234 44.375 39.4209ZM56.875 35.8613V40.4805C56.875 41.0078 56.7562 41.4701 56.5186 41.8672C56.2842 42.2643 55.944 42.5687 55.498 42.7803C55.0521 42.9919 54.5247 43.0977 53.916 43.0977C52.998 43.0977 52.2852 42.8633 51.7773 42.3945C51.2695 41.9225 51.0156 41.278 51.0156 40.4609V35.8613H52.5244V40.2314C52.5244 40.7816 52.6351 41.1852 52.8564 41.4424C53.0778 41.6995 53.444 41.8281 53.9551 41.8281C54.4499 41.8281 54.8079 41.6995 55.0293 41.4424C55.2539 41.182 55.3662 40.7751 55.3662 40.2217V35.8613H56.875ZM62.7344 43H58.623V35.8613H62.7344V37.1016H60.1367V38.6689H62.5537V39.9092H60.1367V41.75H62.7344V43ZM68.4424 41.0176C68.4424 41.6621 68.2096 42.1699 67.7441 42.541C67.2819 42.9121 66.6374 43.0977 65.8105 43.0977C65.0488 43.0977 64.375 42.9544 63.7891 42.668V41.2617C64.2708 41.4766 64.6777 41.6279 65.0098 41.7158C65.3451 41.8037 65.651 41.8477 65.9277 41.8477C66.2598 41.8477 66.5137 41.7842 66.6895 41.6572C66.8685 41.5303 66.958 41.3415 66.958 41.0908C66.958 40.9508 66.9189 40.8271 66.8408 40.7197C66.7627 40.609 66.6471 40.5033 66.4941 40.4023C66.3444 40.3014 66.0368 40.1403 65.5713 39.9189C65.1351 39.7139 64.8079 39.5169 64.5898 39.3281C64.3717 39.1393 64.1976 38.9196 64.0674 38.6689C63.9372 38.4183 63.8721 38.1253 63.8721 37.79C63.8721 37.1585 64.0853 36.6621 64.5117 36.3008C64.9414 35.9395 65.5339 35.7588 66.2891 35.7588C66.6602 35.7588 67.0133 35.8027 67.3486 35.8906C67.6872 35.9785 68.0404 36.1022 68.4082 36.2617L67.9199 37.4385C67.5391 37.2822 67.2233 37.1732 66.9727 37.1113C66.7253 37.0495 66.4811 37.0186 66.2402 37.0186C65.9538 37.0186 65.734 37.0853 65.5811 37.2188C65.4281 37.3522 65.3516 37.5264 65.3516 37.7412C65.3516 37.8747 65.3825 37.9919 65.4443 38.0928C65.5062 38.1904 65.6038 38.2865 65.7373 38.3809C65.874 38.472 66.1947 38.638 66.6992 38.8789C67.3665 39.1979 67.8239 39.5186 68.0713 39.8408C68.3187 40.1598 68.4424 40.5521 68.4424 41.0176ZM72.4902 43H70.9766V37.1211H69.0381V35.8613H74.4287V37.1211H72.4902V43ZM79.6387 43H75.5273V35.8613H79.6387V37.1016H77.041V38.6689H79.458V39.9092H77.041V41.75H79.6387V43ZM87.0557 39.3623C87.0557 40.5374 86.7204 41.4375 86.0498 42.0625C85.3825 42.6875 84.4173 43 83.1543 43H81.1328V35.8613H83.374C84.5394 35.8613 85.4443 36.1689 86.0889 36.7842C86.7334 37.3994 87.0557 38.2588 87.0557 39.3623ZM85.4834 39.4014C85.4834 37.8682 84.8063 37.1016 83.4521 37.1016H82.6465V41.75H83.2959C84.7542 41.75 85.4834 40.9671 85.4834 39.4014Z" fill="#045F87"/>
</svg>
