<svg width="16" height="10" viewBox="0 0 16 10" fill="none" xmlns="http://www.w3.org/2000/svg">
<path fill-rule="evenodd" clip-rule="evenodd" d="M10.9749 0.605269C11.0329 0.547136 11.1018 0.501013 11.1776 0.469543C11.2534 0.438073 11.3348 0.421875 11.4169 0.421875C11.499 0.421875 11.5803 0.438073 11.6561 0.469543C11.732 0.501013 11.8008 0.547136 11.8588 0.605269L15.6043 4.35072C15.6624 4.40871 15.7085 4.47759 15.74 4.55343C15.7715 4.62927 15.7877 4.71057 15.7877 4.79268C15.7877 4.87479 15.7715 4.95609 15.74 5.03193C15.7085 5.10777 15.6624 5.17666 15.6043 5.23465L11.8588 8.98009C11.7416 9.09731 11.5826 9.16316 11.4169 9.16316C11.2511 9.16316 11.0921 9.09731 10.9749 8.98009C10.8577 8.86288 10.7918 8.7039 10.7918 8.53813C10.7918 8.37236 10.8577 8.21338 10.9749 8.09617L14.2796 4.79268L10.9749 1.4892C10.9168 1.43121 10.8706 1.36232 10.8392 1.28648C10.8077 1.21064 10.7915 1.12934 10.7915 1.04723C10.7915 0.965123 10.8077 0.88382 10.8392 0.807981C10.8706 0.732142 10.9168 0.663256 10.9749 0.605269Z" fill="white"/>
<path fill-rule="evenodd" clip-rule="evenodd" d="M0.0556641 4.79274C0.0556641 4.63248 0.119327 4.47878 0.232649 4.36546C0.345971 4.25214 0.499669 4.18848 0.65993 4.18848H14.5581C14.7183 4.18848 14.872 4.25214 14.9853 4.36546C15.0987 4.47878 15.1623 4.63248 15.1623 4.79274C15.1623 4.953 15.0987 5.1067 14.9853 5.22002C14.872 5.33335 14.7183 5.39701 14.5581 5.39701H0.65993C0.499669 5.39701 0.345971 5.33335 0.232649 5.22002C0.119327 5.1067 0.0556641 4.953 0.0556641 4.79274Z" fill="white"/>
</svg>
