<svg width="146" height="47" viewBox="0 0 146 47" fill="none" xmlns="http://www.w3.org/2000/svg">
<path d="M43.4562 27.8169C41.929 29.3027 39.9478 30.0043 37.8428 30.0043C32.3532 30.0043 30.0005 26.2074 30.0005 22.3691C29.9592 18.4896 32.477 14.5688 37.8428 14.5688C39.8653 14.5688 41.7639 15.3117 43.2911 16.8388L41.4337 18.6547C40.4431 17.7055 39.1636 17.2515 37.8428 17.2515C34.2518 17.2515 32.7247 19.9341 32.7247 22.4104C32.7659 24.8454 34.1693 27.4455 37.8428 27.4455C39.1223 27.4455 40.6082 26.909 41.5575 25.9597L43.4562 27.8169Z" fill="#045F87"/>
<path d="M57.8207 14.8989V23.4008C57.8207 27.7756 55.1379 30.0042 51.4231 30.0042C47.8734 30.0042 44.8604 27.8581 44.8604 23.4008V14.8989H47.6258V23.4008C47.6258 26.0834 49.153 27.4867 51.4644 27.4867C53.7758 27.4867 55.0966 25.9596 55.0966 23.4008V14.8989H57.8207Z" fill="#045F87"/>
<path d="M73.6704 29.6736H70.3684L66.0345 24.721H63.3516V29.6736H60.5449V14.8572C62.8976 14.8572 65.2503 14.8984 67.603 14.8984C71.1114 14.9397 72.9275 17.2509 72.9275 19.8097C72.9275 21.832 71.9781 23.8956 69.1714 24.4734L73.6704 29.5498V29.6736ZM63.3516 17.4573V22.2035H67.603C69.3778 22.2035 70.162 21.0066 70.162 19.851C70.162 18.6954 69.3778 17.4985 67.603 17.4985H63.3516V17.4573Z" fill="#045F87"/>
<path d="M85.3097 26.8671H77.5499L76.2704 29.6736H73.2573L79.9439 14.8572H82.9982L89.6435 29.6736H86.5892L85.3097 26.8671ZM81.4711 17.9525L78.7056 24.267H84.1952L81.4711 17.9525Z" fill="#045F87"/>
<path d="M92.285 17.416H87.5796V14.8572C91.8722 14.8572 95.4631 14.8572 99.7557 14.8572V17.416H95.0504V29.6736H92.2437V17.416H92.285Z" fill="#045F87"/>
<path d="M112.51 29.6736H101.407C101.407 24.7623 101.407 19.8097 101.407 14.8572H112.51V17.5811H104.213V21.0066H112.221V23.6067H104.213V26.9497H112.51V29.6736Z" fill="#045F87"/>
<path d="M127.699 22.1622C127.782 25.9179 125.47 29.7148 120.311 29.7148C118.495 29.7148 116.307 29.7148 114.491 29.7148V14.8572C116.307 14.8572 118.495 14.8572 120.311 14.8572C125.388 14.8572 127.658 18.4891 127.699 22.1622ZM117.257 26.9909H120.311C123.696 26.9909 125.016 24.5559 124.934 22.1209C124.851 19.8097 123.53 17.4985 120.311 17.4985H117.257V26.9909Z" fill="#045F87"/>
<path d="M30.2068 0.289353C30.6608 0.20681 31.5276 0.124268 32.3531 0.124268C33.4263 0.124268 34.1279 0.248081 34.6645 0.619523C35.1598 0.908422 35.49 1.44495 35.49 2.14656C35.49 2.88944 35.036 3.59106 34.1692 3.87995V3.92123C35.036 4.12758 35.7789 4.78792 35.7789 5.90225C35.7789 6.60386 35.4487 7.18166 34.9947 7.5531C34.4169 8.04835 33.4675 8.29598 31.9816 8.29598C31.1561 8.29598 30.537 8.25471 30.1655 8.17217V0.289353H30.2068ZM31.6514 3.46724H32.3944C33.4263 3.46724 34.0041 2.97199 34.0041 2.31165C34.0041 1.56876 33.4263 1.19732 32.4769 1.19732C32.0642 1.19732 31.7753 1.23859 31.6514 1.23859V3.46724ZM31.6514 7.18166C31.8578 7.22293 32.1055 7.22293 32.4357 7.22293C33.385 7.22293 34.2105 6.85149 34.2105 5.86098C34.2105 4.91174 33.385 4.5403 32.3944 4.5403H31.6514V7.18166Z" fill="#7CA4A8"/>
<path d="M42.2583 6.52092C42.2583 7.22253 42.2996 7.80033 42.2996 8.25431H41.02L40.9375 7.38761C40.6898 7.80033 40.112 8.41939 39.0801 8.41939C38.0069 8.41939 37.0576 7.80032 37.0576 5.90185V2.43506H38.5435V5.61295C38.5435 6.56219 38.8737 7.22253 39.6167 7.22253C40.1945 7.22253 40.566 6.80981 40.7311 6.43837C40.7724 6.31456 40.8137 6.14947 40.8137 5.98439V2.43506H42.2996V6.52092H42.2583Z" fill="#7CA4A8"/>
<path d="M43.7867 6.89216C44.1169 7.09852 44.736 7.30487 45.2726 7.30487C45.933 7.30487 46.2219 7.05724 46.2219 6.64453C46.2219 6.23182 45.9743 6.02546 45.2726 5.77783C44.1169 5.36512 43.6629 4.74605 43.6629 4.08571C43.6629 3.05393 44.5297 2.26978 45.8505 2.26978C46.5109 2.26978 47.0474 2.43486 47.3776 2.59995L47.13 3.673C46.8823 3.54918 46.4283 3.34283 45.8917 3.34283C45.3552 3.34283 45.0662 3.59046 45.0662 3.9619C45.0662 4.33334 45.3552 4.49842 46.0981 4.78732C47.1713 5.15877 47.6253 5.69529 47.6666 6.56199C47.6666 7.63504 46.8411 8.37792 45.3139 8.37792C44.6122 8.37792 43.9931 8.21284 43.5391 7.96521L43.7867 6.89216Z" fill="#7CA4A8"/>
<path d="M50.4323 0.784154C50.4323 1.23814 50.1021 1.56831 49.6068 1.56831C49.1115 1.56831 48.7812 1.23814 48.7812 0.784154C48.7812 0.33017 49.1115 0 49.6068 0C50.1021 0 50.391 0.33017 50.4323 0.784154ZM48.8638 8.25426V2.43501H50.3497V8.25426H48.8638Z" fill="#7CA4A8"/>
<path d="M51.9177 4.16849C51.9177 3.50815 51.9177 2.93035 51.8765 2.43509H53.156L53.2385 3.30179H53.2798C53.5275 2.84781 54.1466 2.31128 55.1372 2.31128C56.1691 2.31128 57.201 2.97162 57.201 4.82883V8.25434H55.7151V4.95264C55.7151 4.12722 55.3849 3.46688 54.6006 3.46688C54.0228 3.46688 53.61 3.87959 53.4449 4.33357C53.4036 4.45739 53.4036 4.66374 53.4036 4.82883V8.25434H51.9177V4.16849Z" fill="#7CA4A8"/>
<path d="M59.8013 5.77829C59.8426 6.85134 60.6681 7.30533 61.6174 7.30533C62.3191 7.30533 62.7731 7.22278 63.2271 7.0577L63.4335 8.08948C62.9382 8.29584 62.2365 8.46092 61.411 8.46092C59.5124 8.46092 58.3979 7.30533 58.3979 5.53066C58.3979 3.92108 59.3885 2.39404 61.2459 2.39404C63.1446 2.39404 63.7637 3.96235 63.7637 5.24176C63.7637 5.53066 63.7224 5.73702 63.7224 5.86083H59.8013V5.77829ZM62.3604 4.74651C62.3604 4.20998 62.1127 3.30201 61.1634 3.30201C60.2553 3.30201 59.8839 4.12744 59.8013 4.74651H62.3604Z" fill="#7CA4A8"/>
<path d="M64.8778 6.89216C65.208 7.09852 65.8271 7.30487 66.3637 7.30487C67.0241 7.30487 67.313 7.05724 67.313 6.64453C67.313 6.23182 67.0654 6.02546 66.3637 5.77783C65.208 5.36512 64.754 4.74605 64.754 4.08571C64.754 3.05393 65.6207 2.26978 66.9415 2.26978C67.6019 2.26978 68.1385 2.43486 68.4687 2.59995L68.1798 3.673C67.9321 3.54918 67.4781 3.34283 66.9415 3.34283C66.405 3.34283 66.116 3.59046 66.116 3.9619C66.116 4.33334 66.405 4.49842 67.1479 4.78732C68.2211 5.15877 68.6751 5.69529 68.7164 6.56199C68.7164 7.63504 67.8909 8.37792 66.3637 8.37792C65.662 8.37792 65.0429 8.21284 64.5889 7.96521L64.8778 6.89216Z" fill="#7CA4A8"/>
<path d="M69.8719 6.89216C70.2021 7.09852 70.8213 7.30487 71.3578 7.30487C72.0182 7.30487 72.3072 7.05724 72.3072 6.64453C72.3072 6.23182 72.0595 6.02546 71.3578 5.77783C70.2021 5.36512 69.7481 4.74605 69.7481 4.08571C69.7481 3.05393 70.6149 2.26978 71.9357 2.26978C72.5961 2.26978 73.1327 2.43486 73.4629 2.59995L73.1739 3.63173C72.9263 3.50791 72.4723 3.30156 71.9357 3.30156C71.3991 3.30156 71.1102 3.54919 71.1102 3.92063C71.1102 4.29207 71.3991 4.45715 72.1421 4.74605C73.2152 5.11749 73.6692 5.65402 73.7105 6.52072C73.7105 7.59377 72.885 8.33665 71.3578 8.33665C70.6562 8.33665 70.037 8.17157 69.583 7.92394L69.8719 6.89216Z" fill="#7CA4A8"/>
<path d="M84.2775 4.95251C84.2362 3.92073 84.1537 2.64132 84.195 1.56826H84.1537C83.906 2.55877 83.5346 3.63183 83.2044 4.66361L82.0487 8.17167H80.893L79.8198 4.70488C79.4896 3.6731 79.2007 2.55877 78.9943 1.56826H78.953C78.9117 2.64132 78.8705 3.92073 78.8292 4.99378L78.6641 8.25421H77.2607L77.7973 0.165039H79.7372L80.8104 3.42547C81.0993 4.37471 81.347 5.32395 81.5533 6.23192H81.5946C81.801 5.36522 82.0899 4.37471 82.3789 3.42547L83.4933 0.20631H85.3919L85.846 8.29548H84.4013L84.2775 4.95251Z" fill="#7CA4A8"/>
<path d="M90.6332 8.25434L90.5507 7.594H90.4681C90.0966 8.04799 89.5188 8.37816 88.7346 8.37816C87.5789 8.37816 86.9185 7.51146 86.9185 6.64476C86.9185 5.159 88.2393 4.41611 90.3856 4.45739V4.37484C90.3856 4.0034 90.2205 3.34306 89.1886 3.34306C88.6107 3.34306 88.0329 3.50815 87.6201 3.75577L87.3312 2.80653C87.744 2.55891 88.5282 2.31128 89.4362 2.31128C91.2936 2.31128 91.8302 3.50815 91.8302 4.74628V6.85112C91.8302 7.38765 91.8715 7.8829 91.9127 8.25434H90.6332ZM90.4268 5.40663C89.395 5.36535 88.4044 5.61298 88.4044 6.47968C88.4044 7.05748 88.7758 7.3051 89.2299 7.3051C89.8077 7.3051 90.2617 6.93366 90.3856 6.52095C90.4268 6.39714 90.4268 6.27332 90.4268 6.19078V5.40663Z" fill="#7CA4A8"/>
<path d="M93.4402 4.16849C93.4402 3.50815 93.4402 2.93035 93.3989 2.43509H94.6784L94.761 3.30179H94.8023C95.0499 2.84781 95.6691 2.31128 96.6597 2.31128C97.6915 2.31128 98.7234 2.97162 98.7234 4.82883V8.25434H97.2375V4.95264C97.2375 4.12722 96.9073 3.46688 96.1231 3.46688C95.5452 3.46688 95.1325 3.87959 94.9674 4.33357C94.9261 4.45739 94.9261 4.66374 94.9261 4.82883V8.25434H93.4402V4.16849Z" fill="#7CA4A8"/>
<path d="M103.552 8.25434L103.469 7.594H103.428C103.057 8.04799 102.479 8.37816 101.695 8.37816C100.539 8.37816 99.8784 7.51146 99.8784 6.64476C99.8784 5.159 101.199 4.41611 103.346 4.45739V4.37484C103.346 4.0034 103.18 3.34306 102.149 3.34306C101.571 3.34306 100.993 3.50815 100.58 3.75577L100.291 2.80653C100.704 2.55891 101.488 2.31128 102.396 2.31128C104.254 2.31128 104.79 3.50815 104.79 4.74628V6.85112C104.79 7.38765 104.831 7.8829 104.873 8.25434H103.552ZM103.346 5.40663C102.314 5.36535 101.323 5.61298 101.323 6.47968C101.323 7.05748 101.695 7.3051 102.149 7.3051C102.726 7.3051 103.18 6.93366 103.304 6.52095C103.346 6.39714 103.346 6.27332 103.346 6.19078V5.40663Z" fill="#7CA4A8"/>
<path d="M111.684 2.43509C111.642 2.84781 111.642 3.30179 111.642 4.12722V7.42892C111.642 8.66706 111.395 9.53375 110.776 10.0703C110.157 10.6068 109.331 10.7719 108.506 10.7719C107.763 10.7719 106.978 10.6068 106.483 10.3179L106.813 9.20358C107.185 9.40994 107.804 9.65757 108.506 9.65757C109.455 9.65757 110.198 9.16231 110.198 7.8829V7.38765H110.157C109.826 7.8829 109.207 8.25434 108.464 8.25434C107.02 8.25434 105.988 7.05748 105.988 5.40663C105.988 3.50815 107.226 2.31128 108.629 2.31128C109.496 2.31128 110.033 2.72399 110.322 3.21925H110.363L110.404 2.43509H111.684ZM110.157 4.74629C110.157 4.62247 110.157 4.45739 110.115 4.33357C109.95 3.79705 109.537 3.38433 108.918 3.38433C108.093 3.38433 107.474 4.08594 107.474 5.28281C107.474 6.27332 107.969 7.09875 108.918 7.09875C109.455 7.09875 109.95 6.72731 110.115 6.23205C110.157 6.06697 110.157 5.86061 110.157 5.69552V4.74629Z" fill="#7CA4A8"/>
<path d="M114.243 5.77829C114.284 6.85134 115.11 7.30533 116.059 7.30533C116.761 7.30533 117.215 7.22278 117.669 7.0577L117.875 8.08948C117.38 8.29584 116.678 8.46092 115.853 8.46092C113.954 8.46092 112.84 7.30533 112.84 5.53066C112.84 3.92108 113.83 2.39404 115.688 2.39404C117.586 2.39404 118.206 3.96235 118.206 5.24176C118.206 5.53066 118.164 5.73702 118.164 5.86083H114.243V5.77829ZM116.802 4.74651C116.802 4.20998 116.555 3.30201 115.605 3.30201C114.697 3.30201 114.326 4.12744 114.243 4.74651H116.802Z" fill="#7CA4A8"/>
<path d="M119.402 4.16849C119.402 3.50815 119.402 2.93035 119.361 2.43509H120.64L120.682 3.30179H120.723C121.012 2.84781 121.548 2.31128 122.539 2.31128C123.323 2.31128 123.901 2.72399 124.149 3.38433H124.19C124.396 3.05416 124.644 2.80653 124.892 2.64145C125.222 2.39382 125.593 2.31128 126.047 2.31128C126.997 2.31128 127.987 2.97162 127.987 4.82883V8.25434H126.543V5.03518C126.543 4.08594 126.213 3.50815 125.511 3.50815C125.016 3.50815 124.644 3.87959 124.479 4.2923C124.438 4.41612 124.396 4.62247 124.396 4.78756V8.25434H122.952V4.8701C122.952 4.04467 122.622 3.46688 121.961 3.46688C121.425 3.46688 121.053 3.87959 120.888 4.2923C120.847 4.41612 120.805 4.62247 120.805 4.78756V8.25434H119.361V4.16849H119.402Z" fill="#7CA4A8"/>
<path d="M130.587 5.77829C130.629 6.85134 131.454 7.30533 132.404 7.30533C133.105 7.30533 133.559 7.22278 134.013 7.0577L134.22 8.08948C133.724 8.29584 133.023 8.46092 132.197 8.46092C130.299 8.46092 129.184 7.30533 129.184 5.53066C129.184 3.92108 130.175 2.39404 132.032 2.39404C133.931 2.39404 134.55 3.96235 134.55 5.24176C134.55 5.53066 134.509 5.73702 134.509 5.86083H130.587V5.77829ZM133.146 4.74651C133.146 4.20998 132.899 3.30201 131.95 3.30201C131.041 3.30201 130.67 4.12744 130.587 4.74651H133.146Z" fill="#7CA4A8"/>
<path d="M135.706 4.16849C135.706 3.50815 135.706 2.93035 135.665 2.43509H136.944L137.027 3.30179H137.068C137.316 2.84781 137.935 2.31128 138.925 2.31128C139.957 2.31128 140.989 2.97162 140.989 4.82883V8.25434H139.503V4.95264C139.503 4.12722 139.173 3.46688 138.389 3.46688C137.811 3.46688 137.398 3.87959 137.233 4.33357C137.192 4.45739 137.192 4.66374 137.192 4.82883V8.25434H135.706V4.16849Z" fill="#7CA4A8"/>
<path d="M144.167 0.784424V2.43527H145.57V3.5496H144.167V6.10842C144.167 6.81003 144.373 7.18147 144.91 7.18147C145.158 7.18147 145.364 7.1402 145.488 7.09893L145.529 8.21325C145.323 8.2958 144.91 8.33707 144.456 8.33707C143.919 8.33707 143.465 8.17198 143.177 7.84181C142.846 7.51164 142.722 6.97511 142.722 6.23223V3.5496H141.897V2.43527H142.722V1.11459L144.167 0.784424Z" fill="#7CA4A8"/>
<path d="M7 19L10 22L20 12" stroke="#7CA4A8" stroke-width="2" stroke-linecap="round" stroke-linejoin="round"/>
<path d="M19 20V27C19 27.5304 18.7893 28.0391 18.4142 28.4142C18.0391 28.7893 17.5304 29 17 29H3C2.46957 29 1.96086 28.7893 1.58579 28.4142C1.21071 28.0391 1 27.5304 1 27V13C1 12.4696 1.21071 11.9609 1.58579 11.5858C1.96086 11.2107 2.46957 11 3 11H14" stroke="#045F87" stroke-width="2" stroke-linecap="round" stroke-linejoin="round"/>
<path d="M32.4121 40.0303H32.9004C33.3789 40.0303 33.7321 39.9505 33.96 39.791C34.1878 39.6315 34.3018 39.3809 34.3018 39.0391C34.3018 38.7005 34.1846 38.4596 33.9502 38.3164C33.7191 38.1732 33.3594 38.1016 32.8711 38.1016H32.4121V40.0303ZM32.4121 41.2607V44H30.8984V36.8613H32.9785C33.9486 36.8613 34.6663 37.0387 35.1318 37.3936C35.5973 37.7451 35.8301 38.2806 35.8301 39C35.8301 39.4199 35.7145 39.7943 35.4834 40.123C35.2523 40.4486 34.9251 40.7041 34.502 40.8896C35.5762 42.4945 36.276 43.5312 36.6016 44H34.9219L33.2178 41.2607H32.4121ZM41.6113 44H37.5V36.8613H41.6113V38.1016H39.0137V39.6689H41.4307V40.9092H39.0137V42.75H41.6113V44ZM49.585 40.4209C49.585 41.2607 49.4352 41.9655 49.1357 42.5352C48.8395 43.1016 48.4033 43.5166 47.8271 43.7803L49.5459 45.6992H47.6074L46.2988 44.0977H46.1865C45.0928 44.0977 44.2529 43.7803 43.667 43.1455C43.0811 42.5107 42.7881 41.5993 42.7881 40.4111C42.7881 39.223 43.0811 38.3164 43.667 37.6914C44.2562 37.0632 45.0993 36.749 46.1963 36.749C47.2933 36.749 48.1315 37.0648 48.7109 37.6963C49.2936 38.3278 49.585 39.236 49.585 40.4209ZM44.375 40.4209C44.375 41.2184 44.5264 41.819 44.8291 42.2227C45.1318 42.6263 45.5843 42.8281 46.1865 42.8281C47.3942 42.8281 47.998 42.0257 47.998 40.4209C47.998 38.8128 47.3975 38.0088 46.1963 38.0088C45.5941 38.0088 45.14 38.2122 44.834 38.6191C44.528 39.0228 44.375 39.6234 44.375 40.4209ZM56.875 36.8613V41.4805C56.875 42.0078 56.7562 42.4701 56.5186 42.8672C56.2842 43.2643 55.944 43.5687 55.498 43.7803C55.0521 43.9919 54.5247 44.0977 53.916 44.0977C52.998 44.0977 52.2852 43.8633 51.7773 43.3945C51.2695 42.9225 51.0156 42.278 51.0156 41.4609V36.8613H52.5244V41.2314C52.5244 41.7816 52.6351 42.1852 52.8564 42.4424C53.0778 42.6995 53.444 42.8281 53.9551 42.8281C54.4499 42.8281 54.8079 42.6995 55.0293 42.4424C55.2539 42.182 55.3662 41.7751 55.3662 41.2217V36.8613H56.875ZM62.7344 44H58.623V36.8613H62.7344V38.1016H60.1367V39.6689H62.5537V40.9092H60.1367V42.75H62.7344V44ZM68.4424 42.0176C68.4424 42.6621 68.2096 43.1699 67.7441 43.541C67.2819 43.9121 66.6374 44.0977 65.8105 44.0977C65.0488 44.0977 64.375 43.9544 63.7891 43.668V42.2617C64.2708 42.4766 64.6777 42.6279 65.0098 42.7158C65.3451 42.8037 65.651 42.8477 65.9277 42.8477C66.2598 42.8477 66.5137 42.7842 66.6895 42.6572C66.8685 42.5303 66.958 42.3415 66.958 42.0908C66.958 41.9508 66.9189 41.8271 66.8408 41.7197C66.7627 41.609 66.6471 41.5033 66.4941 41.4023C66.3444 41.3014 66.0368 41.1403 65.5713 40.9189C65.1351 40.7139 64.8079 40.5169 64.5898 40.3281C64.3717 40.1393 64.1976 39.9196 64.0674 39.6689C63.9372 39.4183 63.8721 39.1253 63.8721 38.79C63.8721 38.1585 64.0853 37.6621 64.5117 37.3008C64.9414 36.9395 65.5339 36.7588 66.2891 36.7588C66.6602 36.7588 67.0133 36.8027 67.3486 36.8906C67.6872 36.9785 68.0404 37.1022 68.4082 37.2617L67.9199 38.4385C67.5391 38.2822 67.2233 38.1732 66.9727 38.1113C66.7253 38.0495 66.4811 38.0186 66.2402 38.0186C65.9538 38.0186 65.734 38.0853 65.5811 38.2188C65.4281 38.3522 65.3516 38.5264 65.3516 38.7412C65.3516 38.8747 65.3825 38.9919 65.4443 39.0928C65.5062 39.1904 65.6038 39.2865 65.7373 39.3809C65.874 39.472 66.1947 39.638 66.6992 39.8789C67.3665 40.1979 67.8239 40.5186 68.0713 40.8408C68.3187 41.1598 68.4424 41.5521 68.4424 42.0176ZM72.4902 44H70.9766V38.1211H69.0381V36.8613H74.4287V38.1211H72.4902V44ZM79.6387 44H75.5273V36.8613H79.6387V38.1016H77.041V39.6689H79.458V40.9092H77.041V42.75H79.6387V44ZM87.0557 40.3623C87.0557 41.5374 86.7204 42.4375 86.0498 43.0625C85.3825 43.6875 84.4173 44 83.1543 44H81.1328V36.8613H83.374C84.5394 36.8613 85.4443 37.1689 86.0889 37.7842C86.7334 38.3994 87.0557 39.2588 87.0557 40.3623ZM85.4834 40.4014C85.4834 38.8682 84.8063 38.1016 83.4521 38.1016H82.6465V42.75H83.2959C84.7542 42.75 85.4834 41.9671 85.4834 40.4014Z" fill="#045F87"/>
</svg>
