<svg width="138" height="31" viewBox="0 0 138 31" fill="none" xmlns="http://www.w3.org/2000/svg">
<path d="M41.156 28.536C39.6498 30.0015 37.6959 30.6935 35.6198 30.6935C30.2056 30.6935 27.8853 26.9484 27.8853 23.1626C27.8445 19.336 30.3277 15.4688 35.6198 15.4688C37.6145 15.4688 39.487 16.2015 40.9932 17.7077L39.1614 19.4988C38.1844 18.5626 36.9224 18.1148 35.6198 18.1148C32.0782 18.1148 30.572 20.7608 30.572 23.2033C30.6127 25.605 31.9968 28.1697 35.6198 28.1697C36.8817 28.1697 38.3472 27.6404 39.2835 26.7041L41.156 28.536Z" fill="#CBCBCB"/>
<path d="M55.3214 15.7947V24.1805C55.3214 28.4956 52.6754 30.6938 49.0116 30.6938C45.5108 30.6938 42.5391 28.577 42.5391 24.1805V15.7947H45.2665V24.1805C45.2665 26.8265 46.7727 28.2106 49.0523 28.2106C51.332 28.2106 52.6346 26.7044 52.6346 24.1805V15.7947H55.3214Z" fill="#CBCBCB"/>
<path d="M70.9549 30.3683H67.6983L63.4239 25.4833H60.7779V30.3683H58.0098V15.7542C60.3301 15.7542 62.6505 15.7948 64.9708 15.7948C68.431 15.8356 70.2222 18.1152 70.2222 20.6391C70.2222 22.6338 69.2859 24.6692 66.5177 25.2391L70.9549 30.2462V30.3683ZM60.7779 18.3594V23.0408H64.9708C66.7213 23.0408 67.4947 21.8603 67.4947 20.7205C67.4947 19.5807 66.7213 18.4002 64.9708 18.4002H60.7779V18.3594Z" fill="#CBCBCB"/>
<path d="M82.4746 27.6407H74.8215L73.5596 30.4088H70.5879L77.1419 15.7947H80.1543L86.7082 30.4088H83.6958L82.4746 27.6407ZM78.6481 18.8478L75.9206 25.0761H81.3348L78.6481 18.8478Z" fill="#CBCBCB"/>
<path d="M89.3536 18.278H84.7129V15.7542C88.9465 15.7542 92.4881 15.7542 96.7217 15.7542V18.278H92.081V30.3683H89.3536V18.278Z" fill="#CBCBCB"/>
<path d="M109.302 30.3683H98.3516C98.3516 25.524 98.3516 20.6391 98.3516 15.7542H109.302V18.4409H101.12V21.8196H109.017V24.3842H101.12V27.6816H109.302V30.3683Z" fill="#CBCBCB"/>
<path d="M124.28 22.9593C124.362 26.6637 122.082 30.4088 116.994 30.4088C115.203 30.4088 113.045 30.4088 111.254 30.4088V15.7947C113.045 15.7947 115.203 15.7947 116.994 15.7947C121.96 15.7947 124.199 19.3363 124.28 22.9593ZM113.981 27.7221H116.994C120.332 27.7221 121.634 25.3203 121.553 22.9186C121.472 20.6389 120.169 18.3592 116.994 18.3592H113.981V27.7221Z" fill="#CBCBCB"/>
<path fill-rule="evenodd" clip-rule="evenodd" d="M0.0407104 16.0794L0 12.7007C0 12.3343 0.203545 12.0493 0.488501 12.0493H2.84956C3.13451 12.0493 3.33806 12.3343 3.33806 12.6599L3.37876 16.0387C3.37876 16.4051 3.17522 16.69 2.89027 16.69H0.529199C0.244243 16.69 0.0407104 16.4051 0.0407104 16.0794Z" fill="#CBCBCB"/>
<path fill-rule="evenodd" clip-rule="evenodd" d="M0.0407104 22.5928L0 19.2141C0 18.8477 0.203545 18.5627 0.488501 18.5627H2.84956C3.13451 18.5627 3.33806 18.8477 3.33806 19.1734L3.37876 22.5521C3.37876 22.9185 3.17522 23.2035 2.89027 23.2035H0.529199C0.244243 23.2442 0.0407104 22.9592 0.0407104 22.5928Z" fill="#CBCBCB"/>
<path fill-rule="evenodd" clip-rule="evenodd" d="M4.39617 16.0386L4.35547 12.6599C4.35547 12.2935 4.559 12.0085 4.84396 12.0085H7.20503C7.48998 12.0085 7.69351 12.2935 7.69351 12.6192L7.73422 15.9979C7.73422 16.3643 7.53068 16.6493 7.24572 16.6493H4.88467C4.59971 16.69 4.39617 16.405 4.39617 16.0386Z" fill="#CBCBCB"/>
<path fill-rule="evenodd" clip-rule="evenodd" d="M8.63055 27.0296L8.58984 23.6508C8.58984 23.2845 8.79338 22.9995 9.07833 22.9995H11.4394C11.7244 22.9995 11.9279 23.2845 11.9279 23.6101L11.9686 26.9889C11.9686 27.3553 11.7651 27.6402 11.4801 27.6402H9.11904C8.83409 27.6809 8.63055 27.396 8.63055 27.0296Z" fill="#CBCBCB"/>
<path fill-rule="evenodd" clip-rule="evenodd" d="M8.58954 21.5342L8.54883 18.1555C8.54883 17.7891 8.75237 17.5042 9.03733 17.5042H11.3984C11.6833 17.5042 11.8869 17.7891 11.8869 18.1148L11.9276 21.4936C11.9276 21.8599 11.7241 22.1449 11.4391 22.1449H9.07803C8.79307 22.1449 8.58954 21.8599 8.58954 21.5342Z" fill="#CBCBCB"/>
<path fill-rule="evenodd" clip-rule="evenodd" d="M8.54852 15.9981L8.50781 12.6193C8.50781 12.253 8.71136 11.968 8.99631 11.968H11.3574C11.6423 11.968 11.8459 12.253 11.8459 12.5786L11.8866 15.9574C11.8866 16.3238 11.683 16.6087 11.3981 16.6087H9.03702C8.75207 16.6494 8.54852 16.3645 8.54852 15.9981Z" fill="#CBCBCB"/>
<path fill-rule="evenodd" clip-rule="evenodd" d="M12.7829 27.0296L12.7422 23.6508C12.7422 23.2845 12.9457 22.9995 13.2307 22.9995H15.5917C15.8767 22.9995 16.0802 23.2845 16.0802 23.6101L16.121 26.9889C16.121 27.3553 15.9174 27.6402 15.6325 27.6402H13.2714C12.9864 27.6402 12.7829 27.3553 12.7829 27.0296Z" fill="#CBCBCB"/>
<path fill-rule="evenodd" clip-rule="evenodd" d="M12.7419 21.4935L12.7012 18.1147C12.7012 17.7483 12.9047 17.4634 13.1897 17.4634H15.5507C15.8357 17.4634 16.0392 17.7483 16.0392 18.074L16.0799 21.4528C16.0799 21.8192 15.8764 22.1041 15.5914 22.1041H13.2304C12.9454 22.1448 12.7419 21.8598 12.7419 21.4935Z" fill="#CBCBCB"/>
<path fill-rule="evenodd" clip-rule="evenodd" d="M12.7009 15.9981L12.6602 12.6193C12.6602 12.253 12.8637 11.968 13.1486 11.968H15.5097C15.7947 11.968 15.9982 12.253 15.9982 12.5786L16.0389 15.9574C16.0389 16.3238 15.8354 16.6087 15.5504 16.6087H13.1894C12.9044 16.6087 12.7009 16.3238 12.7009 15.9981Z" fill="#CBCBCB"/>
<path fill-rule="evenodd" clip-rule="evenodd" d="M4.07001 10.3804L4.0293 7.00166C4.0293 6.63529 4.23284 6.35034 4.5178 6.35034H6.87885C7.16381 6.35034 7.36735 6.6353 7.36735 6.96096L7.40807 10.3397C7.40807 10.7061 7.20452 10.991 6.91956 10.991H4.55851C4.27355 11.0317 4.07001 10.7468 4.07001 10.3804Z" fill="#CBCBCB"/>
<path fill-rule="evenodd" clip-rule="evenodd" d="M8.50751 10.3394L8.4668 6.96067C8.4668 6.5943 8.67034 6.30933 8.9553 6.30933H11.3164C11.6013 6.30933 11.8049 6.59428 11.8049 6.91995L11.8456 10.2987C11.8456 10.6651 11.642 10.95 11.3571 10.95H8.99601C8.71105 10.95 8.50751 10.7058 8.50751 10.3394Z" fill="#CBCBCB"/>
<path fill-rule="evenodd" clip-rule="evenodd" d="M12.6599 10.2989L12.6191 6.92012C12.6191 6.55374 12.8227 6.2688 13.1076 6.2688H15.4687C15.7537 6.2688 15.9572 6.55375 15.9572 6.87942L15.9979 10.2582C15.9979 10.6245 15.7944 10.9095 15.5094 10.9095H13.1483C12.8634 10.9502 12.6599 10.6653 12.6599 10.2989Z" fill="#CBCBCB"/>
<path fill-rule="evenodd" clip-rule="evenodd" d="M16.7302 21.4935L16.6895 18.1147C16.6895 17.7483 16.893 17.4634 17.178 17.4634H19.539C19.824 17.4634 20.0275 17.7483 20.0275 18.074L20.0682 21.4528C20.0682 21.8192 19.8647 22.1041 19.5797 22.1041H17.2187C16.9337 22.1041 16.7302 21.8191 16.7302 21.4935Z" fill="#CBCBCB"/>
<path fill-rule="evenodd" clip-rule="evenodd" d="M16.6911 15.9573L16.6504 12.5786C16.6504 12.2122 16.8539 11.9272 17.1389 11.9272H19.5C19.7849 11.9272 19.9884 12.2122 19.9884 12.5379L20.0292 15.9166C20.0292 16.283 19.8256 16.568 19.5407 16.568H17.1796C16.8946 16.6087 16.6911 16.3237 16.6911 15.9573Z" fill="#CBCBCB"/>
<path fill-rule="evenodd" clip-rule="evenodd" d="M16.6501 10.2989L16.6094 6.92012C16.6094 6.55374 16.8129 6.2688 17.0979 6.2688H19.4589C19.7439 6.2688 19.9474 6.55375 19.9474 6.87942L19.9881 10.2582C19.9881 10.6245 19.7846 10.9095 19.4997 10.9095H17.1386C16.8536 10.9095 16.6501 10.6246 16.6501 10.2989Z" fill="#CBCBCB"/>
<path d="M18.6878 19.3967L13.9395 24.8704L14.493 25.3505L19.2413 19.8769L18.6878 19.3967Z" fill="#CBCBCB"/>
<path d="M18.1775 8.97482L13.4277 14.447L13.9811 14.9273L18.7309 9.45515L18.1775 8.97482Z" fill="#CBCBCB"/>
<path d="M28.2109 0.610327C28.6994 0.488203 29.6357 0.44751 30.5313 0.44751C31.7118 0.44751 32.4446 0.610327 33.0552 1.01741C33.5844 1.34307 33.9508 1.91298 33.9508 2.64573C33.9508 3.45988 33.4623 4.19263 32.4853 4.559V4.59973C33.4216 4.84398 34.2764 5.57671 34.2764 6.75724C34.2764 7.5307 33.9508 8.1413 33.4216 8.54838C32.8109 9.07758 31.7525 9.36254 30.1649 9.36254C29.2693 9.36254 28.618 9.28113 28.2109 9.24042V0.610327ZM29.7986 4.0705H30.6127C31.7118 4.0705 32.3632 3.54131 32.3632 2.80857C32.3632 1.99441 31.7525 1.62803 30.7348 1.62803C30.2463 1.62803 30.0021 1.66874 29.8393 1.70945V4.0705H29.7986ZM29.7986 8.1006C30.0021 8.14131 30.287 8.1413 30.6534 8.1413C31.6711 8.1413 32.6074 7.73423 32.6074 6.67582C32.6074 5.65812 31.7118 5.25104 30.6127 5.25104H29.7986V8.1006Z" fill="#CBCBCB"/>
<path d="M40.9937 7.36801C40.9937 8.14146 41.0344 8.75209 41.0344 9.28129H39.6097L39.5282 8.30429H39.4875C39.2026 8.75208 38.592 9.40341 37.4521 9.40341C36.3123 9.40341 35.2539 8.71138 35.2539 6.63527V2.89014H36.8415V6.35031C36.8415 7.40872 37.1672 8.10075 38.0221 8.10075C38.6734 8.10075 39.0805 7.65297 39.2433 7.24589C39.284 7.08306 39.3247 6.92023 39.3247 6.75739V2.93083H40.9123V7.36801H40.9937Z" fill="#CBCBCB"/>
<path d="M42.2964 7.77514C42.6628 7.97868 43.3548 8.22292 43.9247 8.22292C44.6167 8.22292 44.9424 7.93796 44.9424 7.53088C44.9424 7.08309 44.6981 6.87956 43.884 6.5946C42.6627 6.14681 42.1335 5.49549 42.1335 4.76274C42.1335 3.62292 43.0698 2.76807 44.5353 2.76807C45.2274 2.76807 45.838 2.93088 46.2043 3.13442L45.8787 4.27424C45.5937 4.11141 45.1052 3.90788 44.5353 3.90788C43.9654 3.90788 43.6397 4.19283 43.6397 4.5592C43.6397 4.96628 43.9247 5.16983 44.7389 5.45478C45.8787 5.86186 46.4079 6.47248 46.4486 7.40876C46.4486 8.54858 45.553 9.40346 43.884 9.40346C43.1105 9.40346 42.4185 9.24061 41.9707 8.95566L42.2964 7.77514Z" fill="#CBCBCB"/>
<path d="M49.2169 1.14004C49.2169 1.62853 48.8506 1.9949 48.3214 1.9949C47.7922 1.9949 47.4258 1.62853 47.4258 1.14004C47.4258 0.651543 47.7922 0.285156 48.3214 0.285156C48.8506 0.285156 49.1762 0.651543 49.2169 1.14004ZM47.5072 9.28163V2.93117H49.1355V9.28163H47.5072Z" fill="#CBCBCB"/>
<path d="M50.5192 4.80346C50.5192 4.07072 50.5192 3.46009 50.4785 2.93088H51.9033L51.9847 3.86716H52.0254C52.3104 3.37867 53.0024 2.76807 54.0608 2.76807C55.1599 2.76807 56.2997 3.50079 56.2997 5.49548V9.24062H54.7122V5.65832C54.7122 4.76275 54.3865 4.0707 53.4909 4.0707C52.8396 4.0707 52.3918 4.51851 52.229 5.007C52.1882 5.16984 52.1475 5.33266 52.1475 5.5362V9.28134H50.5192V4.80346Z" fill="#CBCBCB"/>
<path d="M58.7835 6.5539C58.8243 7.69373 59.7198 8.18222 60.7375 8.18222C61.4703 8.18222 61.9995 8.06009 62.488 7.89726L62.7322 8.99638C62.203 9.19992 61.4296 9.40346 60.534 9.40346C58.4579 9.40346 57.2773 8.1415 57.2773 6.18752C57.2773 4.43708 58.3357 2.76807 60.3711 2.76807C62.4472 2.76807 63.0986 4.47779 63.0986 5.86186C63.0986 6.14682 63.0579 6.39107 63.0579 6.5539H58.7835ZM61.5517 5.41408C61.5517 4.84417 61.3074 3.86716 60.249 3.86716C59.272 3.86716 58.8243 4.76276 58.7835 5.41408H61.5517Z" fill="#CBCBCB"/>
<path d="M63.9526 7.77514C64.319 7.97868 65.011 8.22292 65.5809 8.22292C66.273 8.22292 66.5986 7.93796 66.5986 7.53088C66.5986 7.08309 66.3544 6.87956 65.5402 6.5946C64.319 6.14681 63.7898 5.49549 63.7898 4.76274C63.7898 3.62292 64.7261 2.76807 66.1916 2.76807C66.8836 2.76807 67.4942 2.93088 67.8606 3.13442L67.5349 4.27424C67.25 4.11141 66.7615 3.90788 66.1916 3.90788C65.6216 3.90788 65.296 4.19283 65.296 4.5592C65.296 4.96628 65.5809 5.16983 66.3951 5.45478C67.5349 5.86186 68.0641 6.47248 68.1048 7.40876C68.1048 8.54858 67.2093 9.40346 65.5402 9.40346C64.7668 9.40346 64.0747 9.24061 63.627 8.95566L63.9526 7.77514Z" fill="#CBCBCB"/>
<path d="M69.0405 7.77514C69.4069 7.97868 70.0989 8.22292 70.6688 8.22292C71.3609 8.22292 71.6865 7.93796 71.6865 7.53088C71.6865 7.08309 71.4423 6.87956 70.6281 6.5946C69.4069 6.14681 68.8777 5.49549 68.8777 4.76274C68.8777 3.62292 69.814 2.76807 71.2794 2.76807C71.9715 2.76807 72.5821 2.93088 72.9485 3.13442L72.6228 4.27424C72.3379 4.11141 71.8494 3.90788 71.2794 3.90788C70.7095 3.90788 70.3839 4.19283 70.3839 4.5592C70.3839 4.96628 70.6688 5.16983 71.483 5.45478C72.6228 5.86186 73.152 6.47248 73.1927 7.40876C73.1927 8.54858 72.2971 9.40346 70.6281 9.40346C69.8547 9.40346 69.1626 9.24061 68.7148 8.95566L69.0405 7.77514Z" fill="#CBCBCB"/>
<path d="M78.281 0.488525V9.28146H76.6934V0.488525H78.281Z" fill="#CBCBCB"/>
<path d="M79.7868 4.80346C79.7868 4.07072 79.7868 3.46009 79.7461 2.93088H81.1709L81.2523 3.86716H81.293C81.5779 3.37867 82.27 2.76807 83.3284 2.76807C84.4275 2.76807 85.5673 3.50079 85.5673 5.49548V9.24062H83.9797V5.65832C83.9797 4.76275 83.654 4.0707 82.7585 4.0707C82.1071 4.0707 81.6594 4.51851 81.4965 5.007C81.4558 5.16984 81.4151 5.33266 81.4151 5.5362V9.28134H79.7868V4.80346Z" fill="#CBCBCB"/>
<path d="M88.7022 1.09912V2.89028H90.2084V4.0708H88.7022V6.87966C88.7022 7.65311 88.9058 8.0602 89.5164 8.0602C89.8014 8.0602 90.0049 8.01948 90.127 7.97878L90.1677 9.20002C89.9235 9.28143 89.5164 9.36283 89.0279 9.36283C88.458 9.36283 87.9288 9.1593 87.6438 8.83363C87.3182 8.46726 87.1553 7.89737 87.1553 7.0425V4.0708H86.2598V2.89028H87.1553V1.4655L88.7022 1.09912Z" fill="#CBCBCB"/>
<path d="M92.1624 6.5539C92.2032 7.69373 93.0987 8.18222 94.1164 8.18222C94.8492 8.18222 95.3784 8.06009 95.8669 7.89726L96.1111 8.99638C95.5819 9.19992 94.8085 9.40346 93.9129 9.40346C91.8368 9.40346 90.6562 8.1415 90.6562 6.18752C90.6562 4.43708 91.7146 2.76807 93.75 2.76807C95.8262 2.76807 96.4775 4.47779 96.4775 5.86186C96.4775 6.14682 96.4368 6.39107 96.4368 6.5539H92.1624ZM94.9713 5.41408C94.9713 4.84417 94.727 3.86716 93.6686 3.86716C92.6916 3.86716 92.2439 4.76276 92.2031 5.41408H94.9713Z" fill="#CBCBCB"/>
<path d="M97.4141 0H99.0424V9.24071H97.4141V0Z" fill="#CBCBCB"/>
<path d="M100.467 0H102.095V9.24071H100.467V0Z" fill="#CBCBCB"/>
<path d="M105.19 1.14004C105.19 1.62853 104.823 1.9949 104.294 1.9949C103.765 1.9949 103.398 1.62853 103.398 1.14004C103.398 0.651543 103.765 0.285156 104.294 0.285156C104.823 0.285156 105.149 0.651543 105.19 1.14004ZM103.48 9.28163V2.93117H105.108V9.28163H103.48Z" fill="#CBCBCB"/>
<path d="M112.274 2.93103C112.233 3.37882 112.233 3.86731 112.233 4.76289V8.34518C112.233 9.68855 111.948 10.6248 111.297 11.2355C110.646 11.8054 109.709 12.0089 108.854 12.0089C108.04 12.0089 107.185 11.8461 106.656 11.5204L107.023 10.2992C107.43 10.5434 108.122 10.7877 108.854 10.7877C109.913 10.7877 110.686 10.2585 110.686 8.87441V8.34518H110.646C110.279 8.9151 109.628 9.28149 108.814 9.28149C107.226 9.28149 106.127 7.97882 106.127 6.18767C106.127 4.11156 107.47 2.84961 109.017 2.84961C109.994 2.84961 110.564 3.33811 110.849 3.82661H110.89L110.971 2.97175H112.274V2.93103ZM110.605 5.45493C110.605 5.2921 110.605 5.16998 110.564 5.00715C110.401 4.43724 109.954 3.98945 109.261 3.98945C108.366 3.98945 107.715 4.76289 107.715 6.06555C107.715 7.16466 108.244 8.01953 109.261 8.01953C109.872 8.01953 110.401 7.61246 110.564 7.04255C110.605 6.87972 110.646 6.63546 110.646 6.47263V5.45493H110.605Z" fill="#CBCBCB"/>
<path d="M114.756 6.5539C114.797 7.69373 115.692 8.18222 116.71 8.18222C117.443 8.18222 117.972 8.06009 118.461 7.89726L118.705 8.99638C118.176 9.19992 117.402 9.40346 116.507 9.40346C114.431 9.40346 113.25 8.1415 113.25 6.18752C113.25 4.43708 114.308 2.76807 116.344 2.76807C118.42 2.76807 119.071 4.47779 119.071 5.86186C119.071 6.14682 119.031 6.39107 119.031 6.5539H114.756ZM117.524 5.41408C117.524 4.84417 117.28 3.86716 116.222 3.86716C115.245 3.86716 114.797 4.76276 114.756 5.41408H117.524Z" fill="#CBCBCB"/>
<path d="M120.007 4.80346C120.007 4.07072 120.008 3.46009 119.967 2.93088H121.392L121.473 3.86716H121.514C121.799 3.37867 122.491 2.76807 123.549 2.76807C124.648 2.76807 125.788 3.50079 125.788 5.49548V9.24062H124.2V5.65832C124.2 4.76275 123.875 4.0707 122.979 4.0707C122.328 4.0707 121.88 4.51851 121.717 5.007C121.677 5.16984 121.636 5.33266 121.636 5.5362V9.28134H120.007V4.80346Z" fill="#CBCBCB"/>
<path d="M131.813 9.07812C131.488 9.24095 130.796 9.40378 130.022 9.40378C128.028 9.40378 126.766 8.14182 126.766 6.18784C126.766 4.27456 128.068 2.80908 130.307 2.80908C130.877 2.80908 131.488 2.93121 131.854 3.09404L131.569 4.27456C131.325 4.15243 130.918 4.03032 130.348 4.03032C129.127 4.03032 128.394 4.92589 128.394 6.10642C128.394 7.40907 129.249 8.14182 130.348 8.14182C130.918 8.14182 131.284 8.0197 131.61 7.89758L131.813 9.07812Z" fill="#CBCBCB"/>
<path d="M133.686 6.5539C133.727 7.69373 134.622 8.18222 135.64 8.18222C136.373 8.18222 136.902 8.06009 137.39 7.89726L137.635 8.99638C137.105 9.19992 136.332 9.40346 135.436 9.40346C133.36 9.40346 132.18 8.1415 132.18 6.18752C132.18 4.43708 133.238 2.76807 135.273 2.76807C137.35 2.76807 138.001 4.47779 138.001 5.86186C138.001 6.14682 137.96 6.39107 137.96 6.5539H133.686ZM136.454 5.41408C136.454 4.84417 136.21 3.86716 135.151 3.86716C134.174 3.86716 133.727 4.76276 133.686 5.41408H136.454Z" fill="#CBCBCB"/>
</svg>
