<svg width="131" height="32" viewBox="0 0 131 32" fill="none" xmlns="http://www.w3.org/2000/svg">
<path d="M43.3811 28.919C41.7935 30.4637 39.7339 31.1931 37.5456 31.1931C31.8389 31.1931 29.3931 27.2456 29.3931 23.2551C29.3502 19.2218 31.9676 15.1455 37.5456 15.1455C39.6481 15.1455 41.6219 15.9179 43.2095 17.5054L41.2786 19.3934C40.2488 18.4065 38.9187 17.9345 37.5456 17.9345C33.8126 17.9345 32.225 20.7236 32.225 23.298C32.2679 25.8296 33.7268 28.5328 37.5456 28.5328C38.8758 28.5328 40.4205 27.975 41.4073 26.9881L43.3811 28.919Z" fill="#CBCBCB"/>
<path d="M58.313 15.4463V24.2853C58.313 28.8336 55.5239 31.1506 51.6622 31.1506C47.9721 31.1506 44.8398 28.9194 44.8398 24.2853V15.4463H47.7147V24.2853C47.7147 27.0744 49.3023 28.5332 51.7051 28.5332C54.108 28.5332 55.481 26.9456 55.481 24.2853V15.4463H58.313Z" fill="#CBCBCB"/>
<path d="M74.7893 30.8503H71.3566L66.8513 25.7013H64.0623V30.8503H61.1445V15.4463C63.5903 15.4463 66.036 15.4892 68.4818 15.4892C72.129 15.5321 74.0169 17.935 74.0169 20.5953C74.0169 22.6977 73.03 24.8431 70.1123 25.4439L74.7893 30.7216V30.8503ZM64.0623 18.1495V23.0839H68.4818C70.3268 23.0839 71.1421 21.8396 71.1421 20.6382C71.1421 19.4367 70.3268 18.1924 68.4818 18.1924H64.0623V18.1495Z" fill="#CBCBCB"/>
<path d="M86.9315 27.9325H78.8648L77.5346 30.8503H74.4023L81.3106 15.4463H84.4857L91.3939 30.8503H88.2187L86.9315 27.9325ZM82.8981 18.6644L80.0233 25.2293H85.7301L82.8981 18.6644Z" fill="#CBCBCB"/>
<path d="M94.1845 18.0636H89.293V15.4033C93.7554 15.4033 97.4884 15.4033 101.951 15.4033V18.0636H97.0593V30.8073H94.1416V18.0636H94.1845Z" fill="#CBCBCB"/>
<path d="M115.21 30.8503H103.668C103.668 25.7442 103.668 20.5953 103.668 15.4463H115.21V18.2782H106.586V21.8396H114.91V24.5428H106.586V28.0183H115.21V30.8503Z" fill="#CBCBCB"/>
<path d="M130.998 22.9981C131.084 26.9027 128.681 30.8503 123.318 30.8503C121.43 30.8503 119.156 30.8503 117.268 30.8503V15.4463C119.156 15.4463 121.43 15.4463 123.318 15.4463C128.552 15.4463 130.912 19.1793 130.998 22.9981ZM120.099 28.0612H123.275C126.793 28.0612 128.166 25.5297 128.08 22.9981C127.995 20.5953 126.622 18.1924 123.275 18.1924H120.099V28.0612Z" fill="#CBCBCB"/>
<path fill-rule="evenodd" clip-rule="evenodd" d="M0.0429107 15.7474L0 12.186C0 11.7999 0.214545 11.4995 0.514902 11.4995H3.00356C3.30392 11.4995 3.51846 11.7999 3.51846 12.1431L3.56137 15.7045C3.56137 16.0907 3.34683 16.391 3.04647 16.391H0.557812C0.257456 16.4339 0.0429107 16.1336 0.0429107 15.7474Z" fill="#CBCBCB"/>
<path fill-rule="evenodd" clip-rule="evenodd" d="M0.0429107 22.6126L0 19.0513C0 18.6651 0.214545 18.3647 0.514902 18.3647H3.00356C3.30392 18.3647 3.51846 18.6651 3.51846 19.0084L3.56137 22.5697C3.56137 22.9559 3.34683 23.2563 3.04647 23.2563H0.557812C0.257456 23.2992 0.0429107 22.9988 0.0429107 22.6126Z" fill="#CBCBCB"/>
<path fill-rule="evenodd" clip-rule="evenodd" d="M4.63471 15.7044L4.5918 12.1431C4.5918 11.7569 4.80633 11.4565 5.10669 11.4565H7.59536C7.89572 11.4565 8.11025 11.7569 8.11025 12.1002L8.15316 15.6615C8.15316 16.0477 7.93863 16.3481 7.63827 16.3481H5.1496C4.84924 16.391 4.63471 16.0906 4.63471 15.7044Z" fill="#CBCBCB"/>
<path fill-rule="evenodd" clip-rule="evenodd" d="M9.0976 27.3324L9.05469 23.771C9.05469 23.3848 9.26923 23.0845 9.56959 23.0845H12.0582C12.3586 23.0845 12.5732 23.3848 12.5732 23.7281L12.616 27.2895C12.616 27.6756 12.4015 27.976 12.1012 27.976H9.61249C9.31213 27.976 9.0976 27.6756 9.0976 27.3324Z" fill="#CBCBCB"/>
<path fill-rule="evenodd" clip-rule="evenodd" d="M9.05463 21.4969L9.01172 17.9356C9.01172 17.5494 9.22626 17.249 9.52662 17.249H12.0153C12.3156 17.249 12.5302 17.5494 12.5302 17.8926L12.5731 21.454C12.5731 21.8402 12.3585 22.1406 12.0582 22.1406H9.56953C9.26917 22.1835 9.05463 21.8831 9.05463 21.4969Z" fill="#CBCBCB"/>
<path fill-rule="evenodd" clip-rule="evenodd" d="M9.01166 15.7044L8.96875 12.1431C8.96875 11.7569 9.1833 11.4565 9.48365 11.4565H11.9723C12.2727 11.4565 12.4872 11.7569 12.4872 12.1002L12.5301 15.6615C12.5301 16.0477 12.3156 16.3481 12.0152 16.3481H9.52656C9.22621 16.3481 9.01166 16.0477 9.01166 15.7044Z" fill="#CBCBCB"/>
<path fill-rule="evenodd" clip-rule="evenodd" d="M13.4726 27.2894L13.4297 23.728C13.4297 23.3419 13.6442 23.0415 13.9446 23.0415H16.4332C16.7336 23.0415 16.9481 23.3419 16.9481 23.6851L16.991 27.2465C16.991 27.6327 16.7765 27.933 16.4761 27.933H13.9875C13.6871 27.933 13.4726 27.6327 13.4726 27.2894Z" fill="#CBCBCB"/>
<path fill-rule="evenodd" clip-rule="evenodd" d="M13.4296 21.4539L13.3867 17.8926C13.3867 17.5064 13.6013 17.2061 13.9016 17.2061H16.3903C16.6906 17.2061 16.9052 17.5064 16.9052 17.8497L16.9481 21.411C16.9481 21.7972 16.7335 22.0976 16.4332 22.0976H13.9445C13.6442 22.1405 13.4296 21.8401 13.4296 21.4539Z" fill="#CBCBCB"/>
<path fill-rule="evenodd" clip-rule="evenodd" d="M13.3867 15.6615L13.3438 12.1001C13.3438 11.7139 13.5583 11.4136 13.8587 11.4136H16.3473C16.6477 11.4136 16.8622 11.7139 16.8622 12.0572L16.9051 15.6186C16.9051 16.0047 16.6906 16.3051 16.3902 16.3051H13.9015C13.6012 16.3051 13.3867 16.0476 13.3867 15.6615Z" fill="#CBCBCB"/>
<path fill-rule="evenodd" clip-rule="evenodd" d="M4.29096 9.78305L4.24805 6.22169C4.24805 5.83552 4.46259 5.53516 4.76295 5.53516H7.25161C7.55197 5.53516 7.76651 5.83551 7.76651 6.17878L7.80942 9.74014C7.80942 10.1263 7.59488 10.4267 7.29452 10.4267H4.80586C4.5055 10.4267 4.29096 10.1263 4.29096 9.78305Z" fill="#CBCBCB"/>
<path fill-rule="evenodd" clip-rule="evenodd" d="M8.96868 9.69712L8.92578 6.13575C8.92578 5.74958 9.14031 5.44922 9.44067 5.44922H11.9293C12.2297 5.44922 12.4442 5.74957 12.4442 6.09284L12.4871 9.65421C12.4871 10.0404 12.2726 10.3407 11.9722 10.3407H9.48358C9.18322 10.3837 8.96868 10.0833 8.96868 9.69712Z" fill="#CBCBCB"/>
<path fill-rule="evenodd" clip-rule="evenodd" d="M13.3437 9.65414L13.3008 6.09277C13.3008 5.7066 13.5153 5.40625 13.8157 5.40625H16.3043C16.6047 5.40625 16.8192 5.70661 16.8192 6.04987L16.8622 9.61123C16.8622 9.9974 16.6476 10.2978 16.3473 10.2978H13.8586C13.5582 10.3407 13.3437 10.0403 13.3437 9.65414Z" fill="#CBCBCB"/>
<path fill-rule="evenodd" clip-rule="evenodd" d="M17.6347 21.4539L17.5918 17.8926C17.5918 17.5064 17.8063 17.2061 18.1067 17.2061H20.5954C20.8957 17.2061 21.1102 17.5064 21.1102 17.8497L21.1532 21.411C21.1532 21.7972 20.9386 22.0976 20.6383 22.0976H18.1496C17.8493 22.0976 17.6347 21.7972 17.6347 21.4539Z" fill="#CBCBCB"/>
<path fill-rule="evenodd" clip-rule="evenodd" d="M17.5917 15.6185L17.5488 12.0571C17.5488 11.671 17.7634 11.3706 18.0637 11.3706H20.5524C20.8527 11.3706 21.0673 11.671 21.0673 12.0142L21.1102 15.5756C21.1102 15.9618 20.8957 16.2621 20.5953 16.2621H18.1066C17.8063 16.305 17.5917 16.0047 17.5917 15.6185Z" fill="#CBCBCB"/>
<path fill-rule="evenodd" clip-rule="evenodd" d="M17.5488 9.65414L17.5059 6.09277C17.5059 5.7066 17.7204 5.40625 18.0208 5.40625H20.5094C20.8098 5.40625 21.0243 5.70661 21.0243 6.04987L21.0672 9.61123C21.0672 9.9974 20.8527 10.2978 20.5523 10.2978H18.0637C17.7633 10.2978 17.5488 9.99741 17.5488 9.65414Z" fill="#CBCBCB"/>
<path d="M19.6749 19.2496L14.6699 25.019L15.2534 25.5252L20.2583 19.7557L19.6749 19.2496Z" fill="#CBCBCB"/>
<path d="M19.1588 8.2516L14.1523 14.0195L14.7356 14.5258L19.7421 8.75786L19.1588 8.2516Z" fill="#CBCBCB"/>
<path d="M29.6074 0.301512C30.0794 0.215696 30.9804 0.129883 31.8386 0.129883C32.9542 0.129883 33.6836 0.258612 34.2414 0.644785C34.7563 0.945141 35.0996 1.50294 35.0996 2.23237C35.0996 3.00472 34.6276 3.73416 33.7265 4.03452V4.07743C34.6276 4.29197 35.4 4.97849 35.4 6.13701C35.4 6.86644 35.0567 7.46716 34.5847 7.85333C33.984 8.36823 32.9971 8.62568 31.4524 8.62568C30.5943 8.62568 29.9506 8.58277 29.5645 8.49695V0.301512H29.6074ZM31.1521 3.60544H31.9244C32.9971 3.60544 33.5978 3.09055 33.5978 2.40402C33.5978 1.63167 32.9971 1.24549 32.0102 1.24549C31.5811 1.24549 31.2808 1.28841 31.1521 1.28841V3.60544ZM31.1521 7.46716C31.3666 7.51007 31.6241 7.51007 31.9673 7.51007C32.9542 7.51007 33.8124 7.12389 33.8124 6.0941C33.8124 5.10721 32.9542 4.72105 31.9244 4.72105H31.1521V7.46716Z" fill="#CBCBCB"/>
<path d="M42.1368 6.73721C42.1368 7.46665 42.1797 8.06736 42.1797 8.53935H40.8496L40.7638 7.63828H40.7208C40.4634 8.06736 39.8627 8.71098 38.79 8.71098C37.6744 8.71098 36.6875 8.06736 36.6875 6.09359V2.53223H38.2322V5.83615C38.2322 6.82304 38.5754 7.50956 39.3478 7.50956C39.9485 7.50956 40.3347 7.08048 40.5063 6.69431C40.5492 6.56559 40.5921 6.39395 40.5921 6.22232V2.57514H42.1368V6.73721Z" fill="#CBCBCB"/>
<path d="M43.7242 7.16604C44.0675 7.38058 44.7111 7.59512 45.2689 7.59512C45.9554 7.59512 46.2558 7.33769 46.2558 6.90861C46.2558 6.47953 45.9983 6.26498 45.2689 6.00753C44.0675 5.57845 43.5955 4.93483 43.5955 4.2483C43.5955 3.1756 44.4965 2.36035 45.8696 2.36035C46.5561 2.36035 47.1139 2.53198 47.4572 2.70361L47.1568 3.77631C46.8994 3.64759 46.4274 3.43305 45.8696 3.43305C45.3118 3.43305 45.0114 3.6905 45.0114 4.07667C45.0114 4.46285 45.3118 4.63448 46.0841 4.93483C47.1997 5.32101 47.6717 5.87881 47.7146 6.77987C47.7146 7.89548 46.8565 8.66783 45.2689 8.66783C44.5395 8.66783 43.8958 8.49619 43.4238 8.23874L43.7242 7.16604Z" fill="#CBCBCB"/>
<path d="M50.6323 0.81525C50.6323 1.28724 50.2891 1.6305 49.7742 1.6305C49.2593 1.6305 48.916 1.28724 48.916 0.81525C48.916 0.343262 49.2593 0 49.7742 0C50.2891 0 50.6323 0.343262 50.6323 0.81525ZM49.0018 8.58161V2.53157H50.5465V8.58161H49.0018Z" fill="#CBCBCB"/>
<path d="M52.1777 4.33321C52.1777 3.64668 52.1777 3.04596 52.1348 2.53106H53.4649L53.5507 3.43213H53.5936C53.8511 2.96015 54.4947 2.40234 55.5245 2.40234C56.5972 2.40234 57.6699 3.08886 57.6699 5.01972V8.62401H56.1252V5.19137C56.1252 4.33321 55.7819 3.64667 54.9667 3.64667C54.366 3.64667 53.9369 4.07576 53.7653 4.54775C53.7224 4.67647 53.7223 4.891 53.7223 5.06263V8.62401H52.1777V4.33321Z" fill="#CBCBCB"/>
<path d="M60.3729 5.96475C60.4158 7.08036 61.274 7.55236 62.2609 7.55236C62.9903 7.55236 63.4623 7.46654 63.9343 7.29491L64.1488 8.36761C63.634 8.58215 62.9045 8.75378 62.0463 8.75378C60.0726 8.75378 58.9141 7.55235 58.9141 5.7073C58.9141 4.03389 59.9438 2.44629 61.8747 2.44629C63.8485 2.44629 64.4921 4.0768 64.4921 5.40695C64.4921 5.70731 64.4492 5.92185 64.4492 6.05057H60.3729V5.96475ZM63.0332 4.89205C63.0332 4.33425 62.7758 3.39027 61.7889 3.39027C60.8449 3.39027 60.4587 4.24843 60.3729 4.89205H63.0332Z" fill="#CBCBCB"/>
<path d="M65.65 7.16604C65.9932 7.38058 66.6368 7.59512 67.1946 7.59512C67.8812 7.59512 68.1815 7.33769 68.1815 6.90861C68.1815 6.47953 67.9241 6.26498 67.1946 6.00753C65.9932 5.57845 65.5212 4.93483 65.5212 4.2483C65.5212 3.1756 66.4223 2.36035 67.7954 2.36035C68.4819 2.36035 69.0397 2.53198 69.3829 2.70361L69.0826 3.77631C68.8252 3.64759 68.3532 3.43305 67.7954 3.43305C67.2376 3.43305 66.9372 3.6905 66.9372 4.07667C66.9372 4.46285 67.2376 4.63448 68.0099 4.93483C69.1255 5.32101 69.5975 5.87881 69.6404 6.77987C69.6404 7.89548 68.7822 8.66783 67.1946 8.66783C66.4652 8.66783 65.8216 8.49619 65.3496 8.23874L65.65 7.16604Z" fill="#CBCBCB"/>
<path d="M70.8414 7.16604C71.1846 7.38058 71.8283 7.59512 72.3861 7.59512C73.0726 7.59512 73.373 7.33769 73.373 6.90861C73.373 6.47953 73.1155 6.26498 72.3861 6.00753C71.1846 5.57845 70.7127 4.93483 70.7127 4.2483C70.7127 3.1756 71.6137 2.36035 72.9868 2.36035C73.6733 2.36035 74.2311 2.53198 74.5744 2.70361L74.274 3.77631C74.0166 3.64759 73.5446 3.43305 72.9868 3.43305C72.429 3.43305 72.1286 3.6905 72.1286 4.07667C72.1286 4.46285 72.429 4.63448 73.2013 4.93483C74.3169 5.32101 74.7889 5.87881 74.8318 6.77987C74.8318 7.89548 73.9737 8.66783 72.3861 8.66783C71.6566 8.66783 71.013 8.49619 70.541 8.23874L70.8414 7.16604Z" fill="#CBCBCB"/>
<path d="M75.3906 9.05366L78.4371 0.0429688H79.5098L76.4633 9.05366H75.3906Z" fill="#CBCBCB"/>
<path d="M80.3691 0.171875H85.2177V1.41621H81.9138V3.73324H85.0032V4.97758H81.9138V8.53894H80.3691V0.171875Z" fill="#CBCBCB"/>
<path d="M88.0054 0.81525C88.0054 1.28724 87.6621 1.6305 87.1472 1.6305C86.6323 1.6305 86.2891 1.28724 86.2891 0.81525C86.2891 0.343262 86.6323 0 87.1472 0C87.6621 0 87.9625 0.343262 88.0054 0.81525ZM86.3749 8.58161V2.53157H87.9196V8.58161H86.3749Z" fill="#CBCBCB"/>
<path d="M89.5507 4.33321C89.5507 3.64668 89.5507 3.04596 89.5078 2.53106H90.838L90.9238 3.43213H90.9667C91.2241 2.96015 91.8678 2.40234 92.8976 2.40234C93.9703 2.40234 95.043 3.08886 95.043 5.01972V8.62401H93.4983V5.19137C93.4983 4.33321 93.155 3.64667 92.3397 3.64667C91.739 3.64667 91.3099 4.07576 91.1383 4.54775C91.0954 4.67647 91.0954 4.891 91.0954 5.06263V8.62401H89.5507V4.33321Z" fill="#CBCBCB"/>
<path d="M100.063 8.5811L99.9771 7.89457H99.9342C99.548 8.36656 98.9473 8.70982 98.1321 8.70982C96.9307 8.70982 96.2441 7.80876 96.2441 6.90769C96.2441 5.363 97.6172 4.59065 99.8484 4.63355V4.54775C99.8484 4.16157 99.6768 3.47504 98.6041 3.47504C98.0034 3.47504 97.4027 3.64668 96.9736 3.90412L96.6732 2.91723C97.1023 2.65978 97.9175 2.40234 98.8615 2.40234C100.792 2.40234 101.35 3.64667 101.35 4.93392V7.12223C101.35 7.68003 101.393 8.19493 101.436 8.5811H100.063ZM99.8484 5.62045C98.7757 5.57754 97.7459 5.83498 97.7459 6.73604C97.7459 7.33676 98.1321 7.59421 98.6041 7.59421C99.2048 7.59421 99.6768 7.20804 99.8055 6.77896C99.8484 6.65023 99.8484 6.52151 99.8484 6.4357V5.62045Z" fill="#CBCBCB"/>
<path d="M102.98 4.33321C102.98 3.64668 102.98 3.04596 102.938 2.53106H104.268L104.353 3.43213H104.396C104.654 2.96015 105.297 2.40234 106.327 2.40234C107.4 2.40234 108.473 3.08886 108.473 5.01972V8.62401H106.928V5.19137C106.928 4.33321 106.585 3.64667 105.769 3.64667C105.169 3.64667 104.74 4.07576 104.568 4.54775C104.525 4.67647 104.525 4.891 104.525 5.06263V8.62401H102.98V4.33321Z" fill="#CBCBCB"/>
<path d="M114.565 8.36748C114.222 8.4962 113.621 8.66783 112.849 8.66783C110.961 8.66783 109.717 7.46641 109.717 5.57845C109.717 3.77632 110.961 2.36035 113.107 2.36035C113.664 2.36035 114.222 2.48907 114.608 2.6607L114.351 3.81922C114.093 3.6905 113.75 3.56177 113.192 3.56177C112.034 3.56177 111.304 4.41993 111.347 5.53554C111.347 6.77988 112.163 7.50932 113.192 7.50932C113.707 7.50932 114.093 7.38059 114.394 7.25186L114.565 8.36748Z" fill="#CBCBCB"/>
<path d="M116.668 5.96475C116.711 7.08036 117.569 7.55236 118.556 7.55236C119.285 7.55236 119.757 7.46654 120.229 7.29491L120.444 8.36761C119.929 8.58215 119.199 8.75378 118.341 8.75378C116.367 8.75378 115.209 7.55235 115.209 5.7073C115.209 4.03389 116.239 2.44629 118.17 2.44629C120.143 2.44629 120.787 4.0768 120.787 5.40695C120.787 5.70731 120.744 5.92185 120.744 6.05057H116.668V5.96475ZM119.328 4.89205C119.328 4.33425 119.071 3.39027 118.084 3.39027C117.14 3.39027 116.754 4.24843 116.668 4.89205H119.328Z" fill="#CBCBCB"/>
</svg>
