<svg width="141" height="47" viewBox="0 0 141 47" fill="none" xmlns="http://www.w3.org/2000/svg">
<path d="M43.3319 28.6583C41.8193 30.13 39.8569 30.825 37.772 30.825C32.3347 30.825 30.0044 27.0639 30.0044 23.2618C29.9635 19.4189 32.4573 15.5352 37.772 15.5352C39.7752 15.5352 41.6558 16.271 43.1684 17.7837L41.3287 19.5825C40.3475 18.6422 39.0802 18.1925 37.772 18.1925C34.2152 18.1925 32.7026 20.8498 32.7026 23.3027C32.7435 25.7148 34.1335 28.2903 37.772 28.2903C39.0393 28.2903 40.5111 27.7589 41.4513 26.8186L43.3319 28.6583Z" fill="#045F87"/>
<path d="M57.5576 15.8618V24.2835C57.5576 28.617 54.9003 30.8246 51.2209 30.8246C47.7051 30.8246 44.7207 28.6987 44.7207 24.2835V15.8618H47.4598V24.2835C47.4598 26.9408 48.9724 28.3308 51.2618 28.3308C53.5512 28.3308 54.8594 26.8182 54.8594 24.2835V15.8618H57.5576Z" fill="#045F87"/>
<path d="M73.2563 30.4974H69.9858L65.6932 25.5916H63.0358V30.4974H60.2559V15.8208C62.5861 15.8208 64.9164 15.8617 67.2467 15.8617C70.7216 15.9026 72.5204 18.192 72.5204 20.7266C72.5204 22.7298 71.5802 24.7739 68.8002 25.3463L73.2563 30.3748V30.4974ZM63.0358 18.3964V23.0978H67.2467C69.0046 23.0978 69.7814 21.9122 69.7814 20.7675C69.7814 19.6228 69.0046 18.4372 67.2467 18.4372H63.0358V18.3964Z" fill="#045F87"/>
<path d="M84.7852 27.7174H77.0994L75.832 30.4974H72.8477L79.4296 15.8208H82.4549L89.0778 30.4974H86.0525L84.7852 27.7174ZM80.9832 18.9278L78.2441 25.1828H83.6814L80.9832 18.9278Z" fill="#045F87"/>
<path d="M91.6957 18.3555H87.0352V15.8208C91.2869 15.8208 94.8436 15.8208 99.0953 15.8208V18.3555H94.4348V30.4974H91.6548V18.3555H91.6957Z" fill="#045F87"/>
<path d="M111.728 30.4974H100.73C100.73 25.6325 100.73 20.7266 100.73 15.8208H111.728V18.519H103.51V21.9122H111.442V24.4878H103.51V27.7992H111.728V30.4974Z" fill="#045F87"/>
<path d="M126.772 23.0569C126.853 26.7772 124.564 30.5383 119.454 30.5383C117.655 30.5383 115.488 30.5383 113.689 30.5383V15.8208C115.488 15.8208 117.655 15.8208 119.454 15.8208C124.482 15.8208 126.731 19.4184 126.772 23.0569ZM116.429 27.8401H119.454C122.806 27.8401 124.114 25.4281 124.033 23.016C123.951 20.7266 122.643 18.4372 119.454 18.4372H116.429V27.8401Z" fill="#045F87"/>
<path d="M30.291 0.572219C30.8225 0.490455 31.7219 0.408691 32.6213 0.408691C33.8069 0.408691 34.5427 0.572219 35.156 0.981039C35.6874 1.30809 36.0554 1.88044 36.0554 2.61632C36.0554 3.43396 35.5648 4.16983 34.5836 4.53777V4.57865C35.5239 4.82394 36.3824 5.55982 36.3824 6.74539C36.3824 7.52215 36.0554 8.13538 35.5239 8.5442C34.9107 9.07566 33.8477 9.36184 32.2534 9.36184C31.3539 9.36184 30.6998 9.28007 30.291 9.23919V0.572219ZM31.8854 4.08807H32.7031C33.8069 4.08807 34.461 3.5566 34.461 2.82073C34.461 2.00309 33.8477 1.63515 32.8257 1.63515C32.3351 1.63515 32.0898 1.67603 31.9263 1.71691V4.08807H31.8854ZM31.8854 8.13538C32.0898 8.17626 32.376 8.17626 32.7439 8.17626C33.766 8.17626 34.7063 7.76744 34.7063 6.70451C34.7063 5.68246 33.8069 5.27364 32.7031 5.27364H31.8854V8.13538Z" fill="#C60606"/>
<path d="M43.1276 7.35848C43.1276 8.13523 43.1685 8.74846 43.1685 9.27993H41.7376L41.6559 8.29876H41.615C41.3288 8.74846 40.7156 9.40257 39.5709 9.40257C38.4262 9.40257 37.3633 8.70758 37.3633 6.6226V2.90234H38.9577V6.37731C38.9577 7.44024 39.2847 8.13523 40.1433 8.13523C40.7974 8.13523 41.2062 7.68553 41.3697 7.27671C41.4106 7.11318 41.4515 6.94966 41.4515 6.78613V2.90234H43.0459V7.35848H43.1276Z" fill="#C60606"/>
<path d="M44.4774 7.80826C44.8454 8.01267 45.5404 8.25797 46.1127 8.25797C46.8077 8.25797 47.1348 7.97179 47.1348 7.56297C47.1348 7.11327 46.8895 6.90886 46.0718 6.62269C44.8454 6.17299 44.3139 5.51888 44.3139 4.783C44.3139 3.63831 45.2542 2.77979 46.726 2.77979C47.4209 2.77979 48.0342 2.94331 48.4021 3.14772L48.0751 4.29242C47.7889 4.12889 47.2983 3.92448 46.726 3.92448C46.1536 3.92448 45.8265 4.21065 45.8265 4.57859C45.8265 4.98741 46.1127 5.19182 46.9304 5.47799C48.0751 5.88681 48.6065 6.50004 48.6474 7.44033C48.6474 8.58502 47.748 9.44354 46.0718 9.44354C45.2951 9.44354 44.6001 9.28001 44.1504 8.99384L44.4774 7.80826Z" fill="#C60606"/>
<path d="M51.3867 1.14455C51.3867 1.63513 51.0188 2.00307 50.4873 2.00307C49.9558 2.00307 49.5879 1.63513 49.5879 1.14455C49.5879 0.653964 49.9558 0.286026 50.4873 0.286026C51.0596 0.245144 51.3867 0.653964 51.3867 1.14455ZM49.6697 9.28005V2.90247H51.3049V9.28005H49.6697Z" fill="#C60606"/>
<path d="M52.6952 4.82388C52.6952 4.08801 52.6952 3.47478 52.6543 2.94331H54.0852L54.1669 3.8836H54.2078C54.494 3.39301 55.189 2.77979 56.2519 2.77979C57.3557 2.77979 58.5004 3.51566 58.5004 5.51888V9.28001H56.906V5.6824C56.906 4.783 56.579 4.08801 55.6796 4.08801C55.0255 4.08801 54.5757 4.53771 54.4122 5.02829C54.3713 5.19182 54.3305 5.35535 54.3305 5.55976V9.3209H52.6952V4.82388Z" fill="#C60606"/>
<path d="M60.9931 6.54128C61.034 7.68597 61.9334 8.17656 62.9554 8.17656C63.6913 8.17656 64.2228 8.05391 64.7134 7.89038L64.9586 8.99419C64.4272 9.1986 63.6504 9.40301 62.751 9.40301C60.666 9.40301 59.4805 8.13567 59.4805 6.17334C59.4805 4.41542 60.5434 2.73926 62.5875 2.73926C64.6725 2.73926 65.3266 4.4563 65.3266 5.84629C65.3266 6.13246 65.2857 6.37775 65.2857 6.54128H60.9931ZM63.814 5.43747C63.814 4.86512 63.5687 3.88395 62.5057 3.88395C61.5246 3.88395 61.0749 4.78335 61.034 5.43747H63.814Z" fill="#C60606"/>
<path d="M66.2255 7.80826C66.5934 8.01267 67.2884 8.25797 67.8608 8.25797C68.5558 8.25797 68.8828 7.97179 68.8828 7.56297C68.8828 7.11327 68.6375 6.90886 67.8199 6.62269C66.5934 6.17299 66.062 5.51888 66.062 4.783C66.062 3.63831 67.0023 2.77979 68.474 2.77979C69.169 2.77979 69.7822 2.94331 70.1502 3.14772L69.8231 4.29242C69.5369 4.12889 69.0463 3.92448 68.474 3.92448C67.9017 3.92448 67.5746 4.21065 67.5746 4.57859C67.5746 4.98741 67.8608 5.19182 68.6784 5.47799C69.8231 5.88681 70.3546 6.50004 70.3955 7.44033C70.3955 8.58502 69.496 9.44354 67.8199 9.44354C67.0431 9.44354 66.3481 9.28001 65.8984 8.99384L66.2255 7.80826Z" fill="#C60606"/>
<path d="M71.3368 7.80826C71.7048 8.01267 72.3998 8.25797 72.9721 8.25797C73.6671 8.25797 73.9941 7.97179 73.9941 7.56297C73.9941 7.11327 73.7489 6.90886 72.9312 6.62269C71.7048 6.17299 71.1733 5.51888 71.1733 4.783C71.1733 3.63831 72.1136 2.77979 73.5853 2.77979C74.2803 2.77979 74.8935 2.94331 75.2615 3.14772L74.9344 4.29242C74.6483 4.12889 74.1577 3.92448 73.5853 3.92448C73.013 3.92448 72.6859 4.21065 72.6859 4.57859C72.6859 4.98741 72.9721 5.19182 73.7897 5.47799C74.9344 5.88681 75.4659 6.50004 75.5068 7.44033C75.5068 8.58502 74.6074 9.44354 72.9312 9.44354C72.1545 9.44354 71.4595 9.28001 71.0098 8.99384L71.3368 7.80826Z" fill="#C60606"/>
<path d="M80.6159 0.490723V9.32122H79.0215V0.490723H80.6159Z" fill="#C60606"/>
<path d="M82.1288 4.82388C82.1288 4.08801 82.1288 3.47478 82.0879 2.94331H83.5188L83.6005 3.8836H83.6414C83.9276 3.39301 84.6226 2.77979 85.6855 2.77979C86.7893 2.77979 87.934 3.51566 87.934 5.51888V9.28001H86.3396V5.6824C86.3396 4.783 86.0126 4.08801 85.1132 4.08801C84.459 4.08801 84.0093 4.53771 83.8458 5.02829C83.8049 5.19182 83.7641 5.35535 83.7641 5.55976V9.3209H82.1288V4.82388Z" fill="#C60606"/>
<path d="M91.0818 1.104V2.90281H92.5945V4.08839H91.0818V6.95012C91.0818 7.72688 91.2862 8.1357 91.8995 8.1357C92.1856 8.1357 92.39 8.09482 92.5127 8.05393L92.5536 9.28039C92.3083 9.36216 91.8995 9.44392 91.4089 9.44392C90.8365 9.44392 90.3051 9.23951 90.0189 8.91245C89.6918 8.54452 89.5283 7.97217 89.5283 7.11365V4.12927H88.6289V2.90281H89.5283V1.47194L91.0818 1.104Z" fill="#C60606"/>
<path d="M94.5576 6.54128C94.5984 7.68597 95.4978 8.17656 96.5199 8.17656C97.2558 8.17656 97.7872 8.05391 98.2778 7.89038L98.5231 8.99419C97.9916 9.1986 97.2149 9.40301 96.3155 9.40301C94.2305 9.40301 93.0449 8.13567 93.0449 6.17334C93.0449 4.41542 94.1079 2.73926 96.152 2.73926C98.2369 2.73926 98.891 4.4563 98.891 5.84629C98.891 6.13246 98.8502 6.37775 98.8502 6.54128H94.5576ZM97.3375 5.43747C97.3375 4.86512 97.0922 3.88395 96.0293 3.88395C95.0481 3.88395 94.5984 4.78335 94.5576 5.43747H97.3375Z" fill="#C60606"/>
<path d="M99.8301 0H101.465V9.2802H99.8301V0Z" fill="#C60606"/>
<path d="M102.855 0H104.491V9.2802H102.855V0Z" fill="#C60606"/>
<path d="M107.598 1.14455C107.598 1.63513 107.23 2.00307 106.698 2.00307C106.167 2.00307 105.799 1.63513 105.799 1.14455C105.799 0.653964 106.167 0.286026 106.698 0.286026C107.271 0.245144 107.598 0.653964 107.598 1.14455ZM105.881 9.28005V2.90247H107.516V9.28005H105.881Z" fill="#C60606"/>
<path d="M114.753 2.90256C114.712 3.35227 114.712 3.84285 114.712 4.74225V8.33986C114.712 9.68897 114.426 10.6293 113.772 11.2425C113.118 11.8148 112.178 12.0192 111.319 12.0192C110.502 12.0192 109.643 11.8557 109.112 11.5287L109.479 10.3022C109.888 10.5475 110.583 10.7928 111.319 10.7928C112.382 10.7928 113.159 10.2613 113.159 8.87133V8.33986H113.118C112.75 8.91221 112.096 9.28015 111.278 9.28015C109.684 9.28015 108.58 7.97193 108.58 6.17312C108.58 4.08814 109.929 2.8208 111.483 2.8208C112.464 2.8208 113.036 3.31138 113.322 3.80197H113.363L113.445 2.94345H114.753V2.90256ZM113.077 5.47813C113.077 5.3146 113.077 5.19195 113.036 5.02843C112.873 4.45608 112.423 4.00638 111.728 4.00638C110.829 4.00638 110.174 4.78313 110.174 6.09136C110.174 7.19517 110.706 8.05369 111.728 8.05369C112.341 8.05369 112.873 7.64487 113.036 7.07252C113.077 6.90899 113.118 6.6637 113.118 6.50018V5.47813H113.077Z" fill="#C60606"/>
<path d="M117.247 6.54128C117.288 7.68597 118.187 8.17656 119.209 8.17656C119.945 8.17656 120.477 8.05391 120.967 7.89038L121.213 8.99419C120.681 9.1986 119.904 9.40301 119.005 9.40301C116.92 9.40301 115.734 8.13567 115.734 6.17334C115.734 4.41542 116.797 2.73926 118.841 2.73926C120.926 2.73926 121.58 4.4563 121.58 5.84629C121.58 6.13246 121.54 6.37775 121.54 6.54128H117.247ZM120.027 5.43747C120.027 4.86512 119.782 3.88395 118.719 3.88395C117.738 3.88395 117.288 4.78335 117.247 5.43747H120.027Z" fill="#C60606"/>
<path d="M122.519 4.82388C122.519 4.08801 122.519 3.47478 122.479 2.94331H123.909L123.991 3.8836H124.032C124.318 3.39301 125.013 2.77979 126.076 2.77979C127.18 2.77979 128.325 3.51566 128.325 5.51888V9.28001H126.689V5.6824C126.689 4.783 126.362 4.08801 125.463 4.08801C124.809 4.08801 124.359 4.53771 124.196 5.02829C124.155 5.19182 124.114 5.35535 124.114 5.55976V9.3209H122.479V4.82388H122.519Z" fill="#C60606"/>
<path d="M134.335 9.0756C134.008 9.23913 133.313 9.40266 132.536 9.40266C130.533 9.40266 129.266 8.13532 129.266 6.17299C129.266 4.25154 130.574 2.77979 132.822 2.77979C133.395 2.77979 134.008 2.90243 134.376 3.06596L134.09 4.25153C133.844 4.12889 133.436 4.00624 132.863 4.00624C131.637 4.00624 130.901 4.90565 130.901 6.09122C130.901 7.39944 131.759 8.13532 132.863 8.13532C133.436 8.13532 133.804 8.01267 134.131 7.89003L134.335 9.0756Z" fill="#C60606"/>
<path d="M136.216 6.54128C136.257 7.68597 137.156 8.17656 138.178 8.17656C138.914 8.17656 139.445 8.05391 139.936 7.89038L140.181 8.99419C139.65 9.1986 138.873 9.40301 137.974 9.40301C135.889 9.40301 134.703 8.13567 134.703 6.17334C134.703 4.41542 135.766 2.73926 137.81 2.73926C139.895 2.73926 140.549 4.4563 140.549 5.84629C140.549 6.13246 140.508 6.37775 140.508 6.54128H136.216ZM139.037 5.43747C139.037 4.86512 138.791 3.88395 137.728 3.88395C136.747 3.88395 136.298 4.78335 136.257 5.43747H139.037Z" fill="#C60606"/>
<path d="M7 19L10 22L20 12" stroke="#C60606" stroke-width="2" stroke-linecap="round" stroke-linejoin="round"/>
<path d="M19 20V27C19 27.5304 18.7893 28.0391 18.4142 28.4142C18.0391 28.7893 17.5304 29 17 29H3C2.46957 29 1.96086 28.7893 1.58579 28.4142C1.21071 28.0391 1 27.5304 1 27V13C1 12.4696 1.21071 11.9609 1.58579 11.5858C1.96086 11.2107 2.46957 11 3 11H14" stroke="#045F87" stroke-width="2" stroke-linecap="round" stroke-linejoin="round"/>
<path d="M32.4121 40.0303H32.9004C33.3789 40.0303 33.7321 39.9505 33.96 39.791C34.1878 39.6315 34.3018 39.3809 34.3018 39.0391C34.3018 38.7005 34.1846 38.4596 33.9502 38.3164C33.7191 38.1732 33.3594 38.1016 32.8711 38.1016H32.4121V40.0303ZM32.4121 41.2607V44H30.8984V36.8613H32.9785C33.9486 36.8613 34.6663 37.0387 35.1318 37.3936C35.5973 37.7451 35.8301 38.2806 35.8301 39C35.8301 39.4199 35.7145 39.7943 35.4834 40.123C35.2523 40.4486 34.9251 40.7041 34.502 40.8896C35.5762 42.4945 36.276 43.5312 36.6016 44H34.9219L33.2178 41.2607H32.4121ZM41.6113 44H37.5V36.8613H41.6113V38.1016H39.0137V39.6689H41.4307V40.9092H39.0137V42.75H41.6113V44ZM49.585 40.4209C49.585 41.2607 49.4352 41.9655 49.1357 42.5352C48.8395 43.1016 48.4033 43.5166 47.8271 43.7803L49.5459 45.6992H47.6074L46.2988 44.0977H46.1865C45.0928 44.0977 44.2529 43.7803 43.667 43.1455C43.0811 42.5107 42.7881 41.5993 42.7881 40.4111C42.7881 39.223 43.0811 38.3164 43.667 37.6914C44.2562 37.0632 45.0993 36.749 46.1963 36.749C47.2933 36.749 48.1315 37.0648 48.7109 37.6963C49.2936 38.3278 49.585 39.236 49.585 40.4209ZM44.375 40.4209C44.375 41.2184 44.5264 41.819 44.8291 42.2227C45.1318 42.6263 45.5843 42.8281 46.1865 42.8281C47.3942 42.8281 47.998 42.0257 47.998 40.4209C47.998 38.8128 47.3975 38.0088 46.1963 38.0088C45.5941 38.0088 45.14 38.2122 44.834 38.6191C44.528 39.0228 44.375 39.6234 44.375 40.4209ZM56.875 36.8613V41.4805C56.875 42.0078 56.7562 42.4701 56.5186 42.8672C56.2842 43.2643 55.944 43.5687 55.498 43.7803C55.0521 43.9919 54.5247 44.0977 53.916 44.0977C52.998 44.0977 52.2852 43.8633 51.7773 43.3945C51.2695 42.9225 51.0156 42.278 51.0156 41.4609V36.8613H52.5244V41.2314C52.5244 41.7816 52.6351 42.1852 52.8564 42.4424C53.0778 42.6995 53.444 42.8281 53.9551 42.8281C54.4499 42.8281 54.8079 42.6995 55.0293 42.4424C55.2539 42.182 55.3662 41.7751 55.3662 41.2217V36.8613H56.875ZM62.7344 44H58.623V36.8613H62.7344V38.1016H60.1367V39.6689H62.5537V40.9092H60.1367V42.75H62.7344V44ZM68.4424 42.0176C68.4424 42.6621 68.2096 43.1699 67.7441 43.541C67.2819 43.9121 66.6374 44.0977 65.8105 44.0977C65.0488 44.0977 64.375 43.9544 63.7891 43.668V42.2617C64.2708 42.4766 64.6777 42.6279 65.0098 42.7158C65.3451 42.8037 65.651 42.8477 65.9277 42.8477C66.2598 42.8477 66.5137 42.7842 66.6895 42.6572C66.8685 42.5303 66.958 42.3415 66.958 42.0908C66.958 41.9508 66.9189 41.8271 66.8408 41.7197C66.7627 41.609 66.6471 41.5033 66.4941 41.4023C66.3444 41.3014 66.0368 41.1403 65.5713 40.9189C65.1351 40.7139 64.8079 40.5169 64.5898 40.3281C64.3717 40.1393 64.1976 39.9196 64.0674 39.6689C63.9372 39.4183 63.8721 39.1253 63.8721 38.79C63.8721 38.1585 64.0853 37.6621 64.5117 37.3008C64.9414 36.9395 65.5339 36.7588 66.2891 36.7588C66.6602 36.7588 67.0133 36.8027 67.3486 36.8906C67.6872 36.9785 68.0404 37.1022 68.4082 37.2617L67.9199 38.4385C67.5391 38.2822 67.2233 38.1732 66.9727 38.1113C66.7253 38.0495 66.4811 38.0186 66.2402 38.0186C65.9538 38.0186 65.734 38.0853 65.5811 38.2188C65.4281 38.3522 65.3516 38.5264 65.3516 38.7412C65.3516 38.8747 65.3825 38.9919 65.4443 39.0928C65.5062 39.1904 65.6038 39.2865 65.7373 39.3809C65.874 39.472 66.1947 39.638 66.6992 39.8789C67.3665 40.1979 67.8239 40.5186 68.0713 40.8408C68.3187 41.1598 68.4424 41.5521 68.4424 42.0176ZM72.4902 44H70.9766V38.1211H69.0381V36.8613H74.4287V38.1211H72.4902V44ZM79.6387 44H75.5273V36.8613H79.6387V38.1016H77.041V39.6689H79.458V40.9092H77.041V42.75H79.6387V44ZM87.0557 40.3623C87.0557 41.5374 86.7204 42.4375 86.0498 43.0625C85.3825 43.6875 84.4173 44 83.1543 44H81.1328V36.8613H83.374C84.5394 36.8613 85.4443 37.1689 86.0889 37.7842C86.7334 38.3994 87.0557 39.2588 87.0557 40.3623ZM85.4834 40.4014C85.4834 38.8682 84.8063 38.1016 83.4521 38.1016H82.6465V42.75H83.2959C84.7542 42.75 85.4834 41.9671 85.4834 40.4014Z" fill="#045F87"/>
</svg>
