<svg width="146" height="47" viewBox="0 0 146 47" fill="none" xmlns="http://www.w3.org/2000/svg">
<path d="M43.4562 27.8169C41.929 29.3027 39.9478 30.0043 37.8428 30.0043C32.3532 30.0043 30.0005 26.2074 30.0005 22.3691C29.9592 18.4896 32.477 14.5688 37.8428 14.5688C39.8653 14.5688 41.7639 15.3117 43.2911 16.8388L41.4337 18.6547C40.4431 17.7055 39.1636 17.2515 37.8428 17.2515C34.2518 17.2515 32.7247 19.9341 32.7247 22.4104C32.7659 24.8454 34.1693 27.4455 37.8428 27.4455C39.1223 27.4455 40.6082 26.909 41.5575 25.9597L43.4562 27.8169Z" fill="#045F87"/>
<path d="M57.8198 14.8989V23.4008C57.8198 27.7756 55.1369 30.0042 51.4221 30.0042C47.8725 30.0042 44.8594 27.8581 44.8594 23.4008V14.8989H47.6248V23.4008C47.6248 26.0834 49.152 27.4867 51.4634 27.4867C53.7748 27.4867 55.0956 25.9596 55.0956 23.4008V14.8989H57.8198Z" fill="#045F87"/>
<path d="M73.6704 29.6738H70.3684L66.0345 24.7213H63.3516V29.6738H60.5449V14.8574C62.8976 14.8574 65.2503 14.8987 67.603 14.8987C71.1114 14.94 72.9275 17.2512 72.9275 19.81C72.9275 21.8323 71.9781 23.8958 69.1714 24.4736L73.6704 29.55V29.6738ZM63.3516 17.4575V22.2037H67.603C69.3778 22.2037 70.162 21.0068 70.162 19.8512C70.162 18.6957 69.3778 17.4988 67.603 17.4988H63.3516V17.4575Z" fill="#045F87"/>
<path d="M85.3101 26.8674H77.5504L76.2709 29.6738H73.2578L79.9444 14.8574H82.9987L89.644 29.6738H86.5897L85.3101 26.8674ZM81.4716 17.9528L78.7061 24.2673H84.1957L81.4716 17.9528Z" fill="#045F87"/>
<path d="M92.2854 17.4162H87.5801V14.8574C91.8727 14.8574 95.4636 14.8574 99.7562 14.8574V17.4162H95.0509V29.6738H92.2442V17.4162H92.2854Z" fill="#045F87"/>
<path d="M112.509 29.6738H101.406C101.406 24.7625 101.406 19.81 101.406 14.8574H112.509V17.5813H104.213V21.0068H112.22V23.6069H104.213V26.9499H112.509V29.6738Z" fill="#045F87"/>
<path d="M127.698 22.1624C127.781 25.9181 125.469 29.7151 120.31 29.7151C118.494 29.7151 116.306 29.7151 114.49 29.7151V14.8574C116.306 14.8574 118.494 14.8574 120.31 14.8574C125.387 14.8574 127.657 18.4893 127.698 22.1624ZM117.256 26.9912H120.31C123.695 26.9912 125.015 24.5562 124.933 22.1212C124.85 19.81 123.529 17.4988 120.31 17.4988H117.256V26.9912Z" fill="#045F87"/>
<path d="M30.2073 0.289109C30.6613 0.206566 31.5281 0.124023 32.3536 0.124023C33.4267 0.124023 34.1284 0.247837 34.665 0.619279C35.1603 0.908178 35.4905 1.4447 35.4905 2.14632C35.4905 2.8892 35.0365 3.59081 34.1697 3.87971V3.92098C35.0365 4.12734 35.7794 4.78768 35.7794 5.902C35.7794 6.60362 35.4492 7.18141 34.9952 7.55285C34.4174 8.04811 33.468 8.29574 31.9821 8.29574C31.1566 8.29574 30.5375 8.25447 30.166 8.17192V0.289109H30.2073ZM31.6519 3.467H32.3949C33.4268 3.467 34.0046 2.97174 34.0046 2.3114C34.0046 1.56852 33.4267 1.19708 32.4774 1.19708C32.0647 1.19708 31.7757 1.23835 31.6519 1.23835V3.467ZM31.6519 7.18141C31.8583 7.22268 32.1059 7.22268 32.4361 7.22268C33.3855 7.22268 34.211 6.85124 34.211 5.86073C34.211 4.91149 33.3855 4.54005 32.3949 4.54005H31.6519V7.18141Z" fill="#7CA4A8"/>
<path d="M42.2593 6.52092C42.2593 7.22253 42.3005 7.80033 42.3005 8.25431H41.021L40.9385 7.38761C40.6908 7.80033 40.113 8.41939 39.0811 8.41939C38.0079 8.41939 37.0586 7.80032 37.0586 5.90185V2.43506H38.5445V5.61295C38.5445 6.56219 38.8747 7.22253 39.6177 7.22253C40.1955 7.22253 40.567 6.80981 40.7321 6.43837C40.7734 6.31456 40.8146 6.14947 40.8146 5.98439V2.43506H42.3005V6.52092H42.2593Z" fill="#7CA4A8"/>
<path d="M43.7867 6.8924C44.1169 7.09876 44.736 7.30512 45.2726 7.30512C45.933 7.30512 46.2219 7.05749 46.2219 6.64478C46.2219 6.23206 45.9743 6.02571 45.2726 5.77808C44.1169 5.36537 43.6629 4.7463 43.6629 4.08596C43.6629 3.05417 44.5297 2.27002 45.8505 2.27002C46.5109 2.27002 47.0474 2.4351 47.3776 2.60019L47.13 3.67324C46.8823 3.54943 46.4283 3.34307 45.8917 3.34307C45.3552 3.34307 45.0662 3.5907 45.0662 3.96214C45.0662 4.33358 45.3552 4.49867 46.0981 4.78757C47.1713 5.15901 47.6253 5.69554 47.6666 6.56223C47.6666 7.63529 46.8411 8.37817 45.3139 8.37817C44.6122 8.37817 43.9931 8.21308 43.5391 7.96546L43.7867 6.8924Z" fill="#7CA4A8"/>
<path d="M50.4323 0.784154C50.4323 1.23814 50.1021 1.56831 49.6068 1.56831C49.1115 1.56831 48.7812 1.23814 48.7812 0.784154C48.7812 0.33017 49.1115 0 49.6068 0C50.1021 0 50.391 0.33017 50.4323 0.784154ZM48.8638 8.25426V2.43501H50.3497V8.25426H48.8638Z" fill="#7CA4A8"/>
<path d="M51.9182 4.16824C51.9182 3.5079 51.9182 2.9301 51.877 2.43485H53.1565L53.239 3.30155H53.2803C53.528 2.84756 54.1471 2.31104 55.1377 2.31104C56.1696 2.31104 57.2014 2.97138 57.2014 4.82858V8.2541H55.7155V4.9524C55.7155 4.12697 55.3853 3.46663 54.6011 3.46663C54.0233 3.46663 53.6105 3.87934 53.4454 4.33333C53.4041 4.45714 53.4041 4.6635 53.4041 4.82858V8.2541H51.9182V4.16824Z" fill="#7CA4A8"/>
<path d="M59.8018 5.77829C59.8431 6.85134 60.6686 7.30533 61.6179 7.30533C62.3196 7.30533 62.7736 7.22278 63.2276 7.0577L63.434 8.08948C62.9387 8.29584 62.237 8.46092 61.4115 8.46092C59.5129 8.46092 58.3984 7.30533 58.3984 5.53066C58.3984 3.92108 59.389 2.39404 61.2464 2.39404C63.1451 2.39404 63.7642 3.96235 63.7642 5.24176C63.7642 5.53066 63.7229 5.73702 63.7229 5.86083H59.8018V5.77829ZM62.3608 4.74651C62.3608 4.20998 62.1132 3.30201 61.1639 3.30201C60.2558 3.30201 59.8843 4.12744 59.8018 4.74651H62.3608Z" fill="#7CA4A8"/>
<path d="M64.8788 6.8924C65.209 7.09876 65.8281 7.30512 66.3647 7.30512C67.0251 7.30512 67.314 7.05749 67.314 6.64478C67.314 6.23206 67.0664 6.02571 66.3647 5.77808C65.209 5.36537 64.7549 4.7463 64.7549 4.08596C64.7549 3.05417 65.6217 2.27002 66.9425 2.27002C67.6029 2.27002 68.1395 2.4351 68.4697 2.60019L68.1808 3.67324C67.9331 3.54943 67.4791 3.34307 66.9425 3.34307C66.4059 3.34307 66.117 3.5907 66.117 3.96214C66.117 4.33358 66.4059 4.49867 67.1489 4.78757C68.2221 5.15901 68.6761 5.69554 68.7174 6.56223C68.7174 7.63529 67.8919 8.37817 66.3647 8.37817C65.663 8.37817 65.0439 8.21308 64.5898 7.96546L64.8788 6.8924Z" fill="#7CA4A8"/>
<path d="M69.8729 6.8924C70.2031 7.09876 70.8222 7.30512 71.3588 7.30512C72.0192 7.30512 72.3081 7.05749 72.3081 6.64478C72.3081 6.23206 72.0605 6.02571 71.3588 5.77808C70.2031 5.36537 69.7491 4.7463 69.7491 4.08596C69.7491 3.05417 70.6159 2.27002 71.9367 2.27002C72.5971 2.27002 73.1336 2.4351 73.4638 2.60019L73.1749 3.63197C72.9273 3.50816 72.4732 3.3018 71.9367 3.3018C71.4001 3.3018 71.1112 3.54943 71.1112 3.92087C71.1112 4.29231 71.4001 4.4574 72.143 4.7463C73.2162 5.11774 73.6702 5.65426 73.7115 6.52096C73.7115 7.59402 72.886 8.3369 71.3588 8.3369C70.6571 8.3369 70.038 8.17181 69.584 7.92419L69.8729 6.8924Z" fill="#7CA4A8"/>
<path d="M84.2785 4.95251C84.2372 3.92073 84.1547 2.64132 84.1959 1.56826H84.1547C83.907 2.55877 83.5355 3.63183 83.2053 4.66361L82.0496 8.17167H80.8939L79.8208 4.70488C79.4906 3.6731 79.2016 2.55877 78.9953 1.56826H78.954C78.9127 2.64132 78.8714 3.92073 78.8302 4.99378L78.6651 8.25421H77.2617L77.7983 0.165039H79.7382L80.8114 3.42547C81.1003 4.37471 81.3479 5.32395 81.5543 6.23192H81.5956C81.802 5.36522 82.0909 4.37471 82.3798 3.42547L83.4943 0.20631H85.3929L85.8469 8.29548H84.4023L84.2785 4.95251Z" fill="#7CA4A8"/>
<path d="M90.6347 8.2541L90.5521 7.59376H90.4696C90.0981 8.04774 89.5203 8.37791 88.736 8.37791C87.5803 8.37791 86.9199 7.51122 86.9199 6.64452C86.9199 5.15875 88.2407 4.41587 90.387 4.45714V4.3746C90.387 4.00316 90.2219 3.34282 89.1901 3.34282C88.6122 3.34282 88.0344 3.5079 87.6216 3.75553L87.3327 2.80629C87.7454 2.55866 88.5297 2.31104 89.4377 2.31104C91.2951 2.31104 91.8317 3.5079 91.8317 4.74604V6.85088C91.8317 7.3874 91.8729 7.88266 91.9142 8.2541H90.6347ZM90.4283 5.40638C89.3964 5.36511 88.4058 5.61274 88.4058 6.47943C88.4058 7.05723 88.7773 7.30486 89.2313 7.30486C89.8092 7.30486 90.2632 6.93342 90.387 6.52071C90.4283 6.39689 90.4283 6.27308 90.4283 6.19054V5.40638Z" fill="#7CA4A8"/>
<path d="M93.4417 4.16824C93.4417 3.5079 93.4417 2.9301 93.4004 2.43485H94.6799L94.7625 3.30155H94.8037C95.0514 2.84756 95.6705 2.31104 96.6611 2.31104C97.693 2.31104 98.7249 2.97138 98.7249 4.82858V8.2541H97.239V4.9524C97.239 4.12697 96.9088 3.46663 96.1245 3.46663C95.5467 3.46663 95.1339 3.87934 94.9688 4.33333C94.9276 4.45714 94.9276 4.6635 94.9276 4.82858V8.2541H93.4417V4.16824Z" fill="#7CA4A8"/>
<path d="M103.552 8.2541L103.47 7.59376H103.429C103.057 8.04774 102.479 8.37791 101.695 8.37791C100.539 8.37791 99.8789 7.51122 99.8789 6.64452C99.8789 5.15875 101.2 4.41587 103.346 4.45714V4.3746C103.346 4.00316 103.181 3.34282 102.149 3.34282C101.571 3.34282 100.993 3.5079 100.581 3.75553L100.292 2.80629C100.704 2.55866 101.489 2.31104 102.397 2.31104C104.254 2.31104 104.791 3.5079 104.791 4.74604V6.85088C104.791 7.3874 104.832 7.88266 104.873 8.2541H103.552ZM103.346 5.40638C102.314 5.36511 101.324 5.61274 101.324 6.47943C101.324 7.05723 101.695 7.30486 102.149 7.30486C102.727 7.30486 103.181 6.93342 103.305 6.52071C103.346 6.39689 103.346 6.27308 103.346 6.19054V5.40638Z" fill="#7CA4A8"/>
<path d="M111.684 2.43485C111.643 2.84756 111.643 3.30155 111.643 4.12697V7.42867C111.643 8.66681 111.395 9.53351 110.776 10.07C110.157 10.6066 109.332 10.7716 108.506 10.7716C107.763 10.7716 106.979 10.6066 106.484 10.3177L106.814 9.20334C107.185 9.4097 107.804 9.65732 108.506 9.65732C109.455 9.65732 110.198 9.16207 110.198 7.88266V7.3874H110.157C109.827 7.88266 109.208 8.2541 108.465 8.2541C107.02 8.2541 105.988 7.05723 105.988 5.40638C105.988 3.5079 107.227 2.31104 108.63 2.31104C109.497 2.31104 110.033 2.72375 110.322 3.219H110.363L110.405 2.43485H111.684ZM110.157 4.74604C110.157 4.62223 110.157 4.45714 110.116 4.33333C109.951 3.7968 109.538 3.38409 108.919 3.38409C108.093 3.38409 107.474 4.0857 107.474 5.28257C107.474 6.27308 107.969 7.0985 108.919 7.0985C109.455 7.0985 109.951 6.72706 110.116 6.23181C110.157 6.06672 110.157 5.86037 110.157 5.69528V4.74604Z" fill="#7CA4A8"/>
<path d="M114.243 5.77829C114.284 6.85134 115.11 7.30533 116.059 7.30533C116.761 7.30533 117.215 7.22278 117.669 7.0577L117.875 8.08948C117.38 8.29584 116.678 8.46092 115.853 8.46092C113.954 8.46092 112.84 7.30533 112.84 5.53066C112.84 3.92108 113.83 2.39404 115.688 2.39404C117.586 2.39404 118.206 3.96235 118.206 5.24176C118.206 5.53066 118.164 5.73702 118.164 5.86083H114.243V5.77829ZM116.802 4.74651C116.802 4.20998 116.555 3.30201 115.605 3.30201C114.697 3.30201 114.326 4.12744 114.243 4.74651H116.802Z" fill="#7CA4A8"/>
<path d="M119.403 4.16824C119.403 3.5079 119.403 2.9301 119.361 2.43485H120.641L120.682 3.30155H120.723C121.012 2.84756 121.549 2.31104 122.54 2.31104C123.324 2.31104 123.902 2.72375 124.149 3.38409H124.191C124.397 3.05392 124.645 2.80629 124.892 2.64121C125.222 2.39358 125.594 2.31104 126.048 2.31104C126.997 2.31104 127.988 2.97138 127.988 4.82858V8.2541H126.543V5.03494C126.543 4.0857 126.213 3.5079 125.511 3.5079C125.016 3.5079 124.645 3.87934 124.479 4.29206C124.438 4.41587 124.397 4.62223 124.397 4.78731V8.2541H122.952V4.86986C122.952 4.04443 122.622 3.46663 121.962 3.46663C121.425 3.46663 121.054 3.87934 120.889 4.29206C120.847 4.41587 120.806 4.62223 120.806 4.78731V8.2541H119.361V4.16824H119.403Z" fill="#7CA4A8"/>
<path d="M130.587 5.77829C130.628 6.85134 131.454 7.30533 132.403 7.30533C133.105 7.30533 133.559 7.22278 134.013 7.0577L134.219 8.08948C133.724 8.29584 133.022 8.46092 132.197 8.46092C130.298 8.46092 129.184 7.30533 129.184 5.53066C129.184 3.92108 130.174 2.39404 132.032 2.39404C133.93 2.39404 134.549 3.96235 134.549 5.24176C134.549 5.53066 134.508 5.73702 134.508 5.86083H130.587V5.77829ZM133.146 4.74651C133.146 4.20998 132.898 3.30201 131.949 3.30201C131.041 3.30201 130.67 4.12744 130.587 4.74651H133.146Z" fill="#7CA4A8"/>
<path d="M135.705 4.16824C135.705 3.5079 135.705 2.9301 135.664 2.43485H136.944L137.026 3.30155H137.067C137.315 2.84756 137.934 2.31104 138.925 2.31104C139.957 2.31104 140.989 2.97138 140.989 4.82858V8.2541H139.503V4.9524C139.503 4.12697 139.172 3.46663 138.388 3.46663C137.81 3.46663 137.398 3.87934 137.233 4.33333C137.191 4.45714 137.191 4.6635 137.191 4.82858V8.2541H135.705V4.16824Z" fill="#7CA4A8"/>
<path d="M144.169 0.78418V2.43503H145.572V3.54936H144.169V6.10817C144.169 6.80979 144.375 7.18123 144.912 7.18123C145.159 7.18123 145.366 7.13996 145.489 7.09868L145.531 8.21301C145.324 8.29555 144.912 8.33682 144.457 8.33682C143.921 8.33682 143.467 8.17174 143.178 7.84157C142.848 7.5114 142.724 6.97487 142.724 6.23199V3.54936H141.898V2.43503H142.724V1.11435L144.169 0.78418Z" fill="#7CA4A8"/>
<path d="M7 19L10 22L20 12" stroke="#7CA4A8" stroke-width="2" stroke-linecap="round" stroke-linejoin="round"/>
<path d="M19 20V27C19 27.5304 18.7893 28.0391 18.4142 28.4142C18.0391 28.7893 17.5304 29 17 29H3C2.46957 29 1.96086 28.7893 1.58579 28.4142C1.21071 28.0391 1 27.5304 1 27V13C1 12.4696 1.21071 11.9609 1.58579 11.5858C1.96086 11.2107 2.46957 11 3 11H14" stroke="#045F87" stroke-width="2" stroke-linecap="round" stroke-linejoin="round"/>
<path d="M32.4121 40.0303H32.9004C33.3789 40.0303 33.7321 39.9505 33.96 39.791C34.1878 39.6315 34.3018 39.3809 34.3018 39.0391C34.3018 38.7005 34.1846 38.4596 33.9502 38.3164C33.7191 38.1732 33.3594 38.1016 32.8711 38.1016H32.4121V40.0303ZM32.4121 41.2607V44H30.8984V36.8613H32.9785C33.9486 36.8613 34.6663 37.0387 35.1318 37.3936C35.5973 37.7451 35.8301 38.2806 35.8301 39C35.8301 39.4199 35.7145 39.7943 35.4834 40.123C35.2523 40.4486 34.9251 40.7041 34.502 40.8896C35.5762 42.4945 36.276 43.5312 36.6016 44H34.9219L33.2178 41.2607H32.4121ZM41.6113 44H37.5V36.8613H41.6113V38.1016H39.0137V39.6689H41.4307V40.9092H39.0137V42.75H41.6113V44ZM49.585 40.4209C49.585 41.2607 49.4352 41.9655 49.1357 42.5352C48.8395 43.1016 48.4033 43.5166 47.8271 43.7803L49.5459 45.6992H47.6074L46.2988 44.0977H46.1865C45.0928 44.0977 44.2529 43.7803 43.667 43.1455C43.0811 42.5107 42.7881 41.5993 42.7881 40.4111C42.7881 39.223 43.0811 38.3164 43.667 37.6914C44.2562 37.0632 45.0993 36.749 46.1963 36.749C47.2933 36.749 48.1315 37.0648 48.7109 37.6963C49.2936 38.3278 49.585 39.236 49.585 40.4209ZM44.375 40.4209C44.375 41.2184 44.5264 41.819 44.8291 42.2227C45.1318 42.6263 45.5843 42.8281 46.1865 42.8281C47.3942 42.8281 47.998 42.0257 47.998 40.4209C47.998 38.8128 47.3975 38.0088 46.1963 38.0088C45.5941 38.0088 45.14 38.2122 44.834 38.6191C44.528 39.0228 44.375 39.6234 44.375 40.4209ZM56.875 36.8613V41.4805C56.875 42.0078 56.7562 42.4701 56.5186 42.8672C56.2842 43.2643 55.944 43.5687 55.498 43.7803C55.0521 43.9919 54.5247 44.0977 53.916 44.0977C52.998 44.0977 52.2852 43.8633 51.7773 43.3945C51.2695 42.9225 51.0156 42.278 51.0156 41.4609V36.8613H52.5244V41.2314C52.5244 41.7816 52.6351 42.1852 52.8564 42.4424C53.0778 42.6995 53.444 42.8281 53.9551 42.8281C54.4499 42.8281 54.8079 42.6995 55.0293 42.4424C55.2539 42.182 55.3662 41.7751 55.3662 41.2217V36.8613H56.875ZM62.7344 44H58.623V36.8613H62.7344V38.1016H60.1367V39.6689H62.5537V40.9092H60.1367V42.75H62.7344V44ZM68.4424 42.0176C68.4424 42.6621 68.2096 43.1699 67.7441 43.541C67.2819 43.9121 66.6374 44.0977 65.8105 44.0977C65.0488 44.0977 64.375 43.9544 63.7891 43.668V42.2617C64.2708 42.4766 64.6777 42.6279 65.0098 42.7158C65.3451 42.8037 65.651 42.8477 65.9277 42.8477C66.2598 42.8477 66.5137 42.7842 66.6895 42.6572C66.8685 42.5303 66.958 42.3415 66.958 42.0908C66.958 41.9508 66.9189 41.8271 66.8408 41.7197C66.7627 41.609 66.6471 41.5033 66.4941 41.4023C66.3444 41.3014 66.0368 41.1403 65.5713 40.9189C65.1351 40.7139 64.8079 40.5169 64.5898 40.3281C64.3717 40.1393 64.1976 39.9196 64.0674 39.6689C63.9372 39.4183 63.8721 39.1253 63.8721 38.79C63.8721 38.1585 64.0853 37.6621 64.5117 37.3008C64.9414 36.9395 65.5339 36.7588 66.2891 36.7588C66.6602 36.7588 67.0133 36.8027 67.3486 36.8906C67.6872 36.9785 68.0404 37.1022 68.4082 37.2617L67.9199 38.4385C67.5391 38.2822 67.2233 38.1732 66.9727 38.1113C66.7253 38.0495 66.4811 38.0186 66.2402 38.0186C65.9538 38.0186 65.734 38.0853 65.5811 38.2188C65.4281 38.3522 65.3516 38.5264 65.3516 38.7412C65.3516 38.8747 65.3825 38.9919 65.4443 39.0928C65.5062 39.1904 65.6038 39.2865 65.7373 39.3809C65.874 39.472 66.1947 39.638 66.6992 39.8789C67.3665 40.1979 67.8239 40.5186 68.0713 40.8408C68.3187 41.1598 68.4424 41.5521 68.4424 42.0176ZM72.4902 44H70.9766V38.1211H69.0381V36.8613H74.4287V38.1211H72.4902V44ZM79.6387 44H75.5273V36.8613H79.6387V38.1016H77.041V39.6689H79.458V40.9092H77.041V42.75H79.6387V44ZM87.0557 40.3623C87.0557 41.5374 86.7204 42.4375 86.0498 43.0625C85.3825 43.6875 84.4173 44 83.1543 44H81.1328V36.8613H83.374C84.5394 36.8613 85.4443 37.1689 86.0889 37.7842C86.7334 38.3994 87.0557 39.2588 87.0557 40.3623ZM85.4834 40.4014C85.4834 38.8682 84.8063 38.1016 83.4521 38.1016H82.6465V42.75H83.2959C84.7542 42.75 85.4834 41.9671 85.4834 40.4014Z" fill="#045F87"/>
</svg>
