<svg width="6" height="10" viewBox="0 0 6 10" fill="none" xmlns="http://www.w3.org/2000/svg">
<path d="M0.448167 7.83611C0.0576423 8.22663 0.0576424 8.8598 0.448167 9.25032C0.838691 9.64084 1.47186 9.64084 1.86238 9.25032L0.448167 7.83611ZM1.86238 0.335923C1.47186 -0.0546017 0.838691 -0.0546017 0.448166 0.335923C0.057642 0.726447 0.057642 1.35961 0.448166 1.75014L1.86238 0.335923ZM1.86238 9.25032L5.40034 5.71236L3.98613 4.29815L0.448167 7.83611L1.86238 9.25032ZM5.40034 3.87388L1.86238 0.335923L0.448166 1.75014L3.98613 5.2881L5.40034 3.87388ZM5.40034 5.71236C5.90802 5.20468 5.90802 4.38156 5.40034 3.87388L3.98613 5.2881C3.71276 5.01473 3.71276 4.57151 3.98613 4.29815L5.40034 5.71236Z" fill="#153B67"/>
</svg>
