<svg width="6" height="10" viewBox="0 0 6 10" fill="none" xmlns="http://www.w3.org/2000/svg">
<path d="M0.610276 7.83611C0.219752 8.22663 0.219752 8.8598 0.610276 9.25032C1.0008 9.64084 1.63397 9.64084 2.02449 9.25032L0.610276 7.83611ZM2.02449 0.335923C1.63396 -0.0546017 1.0008 -0.0546017 0.610276 0.335923C0.219751 0.726447 0.219751 1.35961 0.610276 1.75014L2.02449 0.335923ZM2.02449 9.25032L5.56245 5.71236L4.14824 4.29815L0.610276 7.83611L2.02449 9.25032ZM5.56245 3.87388L2.02449 0.335923L0.610276 1.75014L4.14824 5.2881L5.56245 3.87388ZM5.56245 5.71236C6.07013 5.20468 6.07013 4.38156 5.56245 3.87388L4.14824 5.2881C3.87487 5.01473 3.87487 4.57151 4.14824 4.29815L5.56245 5.71236Z" fill="white"/>
</svg>
