<svg width="132" height="53" viewBox="0 0 132 53" fill="none" xmlns="http://www.w3.org/2000/svg">
<path d="M43.9393 34.3338C42.3573 35.8731 40.3049 36.6 38.1243 36.6C32.4377 36.6 30.0005 32.6663 30.0005 28.69C29.9578 24.6708 32.5659 20.6089 38.1243 20.6089C40.2194 20.6089 42.1862 21.3785 43.7682 22.9605L41.8442 24.8418C40.818 23.8584 39.4925 23.3881 38.1243 23.3881C34.4045 23.3881 32.8225 26.1673 32.8225 28.7327C32.8652 31.2554 34.319 33.949 38.1243 33.949C39.4498 33.949 40.989 33.3932 41.9725 32.4098L43.9393 34.3338Z" fill="#045F87"/>
<path d="M58.8183 20.9502V29.7581C58.8183 34.2904 56.0391 36.5992 52.1909 36.5992C48.5138 36.5992 45.3926 34.3759 45.3926 29.7581V20.9502H48.2573V29.7581C48.2573 32.5373 49.8393 33.991 52.2337 33.991C54.6281 33.991 55.9963 32.4091 55.9963 29.7581V20.9502H58.8183Z" fill="#045F87"/>
<path d="M75.2373 36.2579H71.8168L67.3273 31.1271H64.5481V36.2579H61.6406V20.9082C64.0778 20.9082 66.5149 20.9509 68.9521 20.9509C72.5864 20.9937 74.4677 23.3881 74.4677 26.039C74.4677 28.1341 73.4843 30.272 70.5768 30.8706L75.2373 36.1296V36.2579ZM64.5481 23.6019V28.5189H68.9521C70.7906 28.5189 71.603 27.279 71.603 26.0818C71.603 24.8846 70.7906 23.6446 68.9521 23.6446H64.5481V23.6019Z" fill="#045F87"/>
<path d="M87.3366 33.3925H79.2983L77.9728 36.2999H74.8516L81.7354 20.9502H84.8994L91.7833 36.2999H88.6193L87.3366 33.3925ZM83.3174 24.157L80.4527 30.6988H86.1394L83.3174 24.157Z" fill="#045F87"/>
<path d="M94.5208 23.5591H89.6465V20.9082C94.0932 20.9082 97.8131 20.9082 102.26 20.9082V23.5591H97.3855V36.2579H94.5208V23.5591Z" fill="#045F87"/>
<path d="M115.515 36.2579H104.014C104.014 31.1698 104.014 26.039 104.014 20.9082H115.515V23.7301H106.921V27.279H115.216V29.9727H106.921V33.436H115.515V36.2579Z" fill="#045F87"/>
<path d="M131.249 28.4758C131.334 32.3667 128.94 36.3003 123.595 36.3003C121.714 36.3003 119.448 36.3003 117.566 36.3003V20.9506C119.448 20.9506 121.714 20.9506 123.595 20.9506C128.811 20.9078 131.163 24.6704 131.249 28.4758ZM120.388 33.4783H123.552C127.058 33.4783 128.427 30.9557 128.341 28.433C128.256 26.0386 126.887 23.6442 123.552 23.6442H120.388V33.4783Z" fill="#045F87"/>
<path d="M40.8607 13.6827C40.3048 13.982 38.9794 14.2813 37.3119 14.2813C32.5231 14.2813 30.0859 11.2883 30.0859 7.35468C30.0859 2.65142 33.4637 0.000488281 37.6539 0.000488281C39.2787 0.000488281 40.5186 0.342554 41.0745 0.599095L40.4331 3.07899C39.7918 2.82245 38.8939 2.5659 37.825 2.5659C35.3451 2.5659 33.421 4.0624 33.421 7.1409C33.421 9.92009 35.0457 11.6731 37.8677 11.6731C38.8083 11.6731 39.8773 11.4593 40.4759 11.2028L40.8607 13.6827Z" fill="#27AAE1"/>
<path d="M42.9141 0.256348H46.0353V11.4586H51.551V14.0668H42.9141V0.256348Z" fill="#27AAE1"/>
<path d="M65.2759 7.01214C65.2759 11.5444 62.5395 14.2808 58.4776 14.2808C54.3729 14.2808 51.9785 11.2023 51.9785 7.22593C51.9785 3.07851 54.6294 0 58.6914 0C62.967 0.0427569 65.2759 3.20678 65.2759 7.01214ZM55.3135 7.22593C55.3135 9.91961 56.5963 11.8437 58.6914 11.8437C60.7864 11.8437 62.0264 9.83409 62.0264 7.14041C62.0264 4.66051 60.8292 2.52267 58.6914 2.52267C56.5108 2.52267 55.3135 4.53224 55.3135 7.22593Z" fill="#27AAE1"/>
<path d="M70.4474 0.256348V8.20912C70.4474 10.6035 71.3453 11.8007 72.9701 11.8007C74.5948 11.8007 75.5355 10.6463 75.5355 8.20912V0.256348H78.6567V7.99534C78.6567 12.271 76.5189 14.2806 72.8846 14.2806C69.3785 14.2806 67.3262 12.3565 67.3262 7.95259V0.256348H70.4474Z" fill="#27AAE1"/>
<path d="M81.3516 0.427233C82.506 0.256206 84.0025 0.12793 85.5845 0.12793C88.1927 0.12793 89.9029 0.598256 91.2712 1.62442C92.7249 2.69334 93.6228 4.40362 93.6228 6.84077C93.6228 9.4917 92.6394 11.3303 91.3139 12.4419C89.8602 13.6391 87.6368 14.2377 84.9431 14.2377C83.3184 14.2377 82.1639 14.1522 81.3943 14.0239V0.427233H81.3516ZM84.4728 11.7151C84.7294 11.7578 85.1569 11.7578 85.5417 11.7578C88.3637 11.7578 90.2022 10.2186 90.2022 6.92629C90.2022 4.06157 88.5347 2.52233 85.841 2.52233C85.1569 2.52233 84.6866 2.56508 84.4301 2.6506V11.7151H84.4728Z" fill="#27AAE1"/>
<path d="M7 25L10 28L20 18" stroke="#27AAE1" stroke-width="2" stroke-linecap="round" stroke-linejoin="round"/>
<path d="M19 26V33C19 33.5304 18.7893 34.0391 18.4142 34.4142C18.0391 34.7893 17.5304 35 17 35H3C2.46957 35 1.96086 34.7893 1.58579 34.4142C1.21071 34.0391 1 33.5304 1 33V19C1 18.4696 1.21071 17.9609 1.58579 17.5858C1.96086 17.2107 2.46957 17 3 17H14" stroke="#045F87" stroke-width="2" stroke-linecap="round" stroke-linejoin="round"/>
<path d="M32.4121 46.0303H32.9004C33.3789 46.0303 33.7321 45.9505 33.96 45.791C34.1878 45.6315 34.3018 45.3809 34.3018 45.0391C34.3018 44.7005 34.1846 44.4596 33.9502 44.3164C33.7191 44.1732 33.3594 44.1016 32.8711 44.1016H32.4121V46.0303ZM32.4121 47.2607V50H30.8984V42.8613H32.9785C33.9486 42.8613 34.6663 43.0387 35.1318 43.3936C35.5973 43.7451 35.8301 44.2806 35.8301 45C35.8301 45.4199 35.7145 45.7943 35.4834 46.123C35.2523 46.4486 34.9251 46.7041 34.502 46.8896C35.5762 48.4945 36.276 49.5312 36.6016 50H34.9219L33.2178 47.2607H32.4121ZM41.6113 50H37.5V42.8613H41.6113V44.1016H39.0137V45.6689H41.4307V46.9092H39.0137V48.75H41.6113V50ZM49.585 46.4209C49.585 47.2607 49.4352 47.9655 49.1357 48.5352C48.8395 49.1016 48.4033 49.5166 47.8271 49.7803L49.5459 51.6992H47.6074L46.2988 50.0977H46.1865C45.0928 50.0977 44.2529 49.7803 43.667 49.1455C43.0811 48.5107 42.7881 47.5993 42.7881 46.4111C42.7881 45.223 43.0811 44.3164 43.667 43.6914C44.2562 43.0632 45.0993 42.749 46.1963 42.749C47.2933 42.749 48.1315 43.0648 48.7109 43.6963C49.2936 44.3278 49.585 45.236 49.585 46.4209ZM44.375 46.4209C44.375 47.2184 44.5264 47.819 44.8291 48.2227C45.1318 48.6263 45.5843 48.8281 46.1865 48.8281C47.3942 48.8281 47.998 48.0257 47.998 46.4209C47.998 44.8128 47.3975 44.0088 46.1963 44.0088C45.5941 44.0088 45.14 44.2122 44.834 44.6191C44.528 45.0228 44.375 45.6234 44.375 46.4209ZM56.875 42.8613V47.4805C56.875 48.0078 56.7562 48.4701 56.5186 48.8672C56.2842 49.2643 55.944 49.5687 55.498 49.7803C55.0521 49.9919 54.5247 50.0977 53.916 50.0977C52.998 50.0977 52.2852 49.8633 51.7773 49.3945C51.2695 48.9225 51.0156 48.278 51.0156 47.4609V42.8613H52.5244V47.2314C52.5244 47.7816 52.6351 48.1852 52.8564 48.4424C53.0778 48.6995 53.444 48.8281 53.9551 48.8281C54.4499 48.8281 54.8079 48.6995 55.0293 48.4424C55.2539 48.182 55.3662 47.7751 55.3662 47.2217V42.8613H56.875ZM62.7344 50H58.623V42.8613H62.7344V44.1016H60.1367V45.6689H62.5537V46.9092H60.1367V48.75H62.7344V50ZM68.4424 48.0176C68.4424 48.6621 68.2096 49.1699 67.7441 49.541C67.2819 49.9121 66.6374 50.0977 65.8105 50.0977C65.0488 50.0977 64.375 49.9544 63.7891 49.668V48.2617C64.2708 48.4766 64.6777 48.6279 65.0098 48.7158C65.3451 48.8037 65.651 48.8477 65.9277 48.8477C66.2598 48.8477 66.5137 48.7842 66.6895 48.6572C66.8685 48.5303 66.958 48.3415 66.958 48.0908C66.958 47.9508 66.9189 47.8271 66.8408 47.7197C66.7627 47.609 66.6471 47.5033 66.4941 47.4023C66.3444 47.3014 66.0368 47.1403 65.5713 46.9189C65.1351 46.7139 64.8079 46.5169 64.5898 46.3281C64.3717 46.1393 64.1976 45.9196 64.0674 45.6689C63.9372 45.4183 63.8721 45.1253 63.8721 44.79C63.8721 44.1585 64.0853 43.6621 64.5117 43.3008C64.9414 42.9395 65.5339 42.7588 66.2891 42.7588C66.6602 42.7588 67.0133 42.8027 67.3486 42.8906C67.6872 42.9785 68.0404 43.1022 68.4082 43.2617L67.9199 44.4385C67.5391 44.2822 67.2233 44.1732 66.9727 44.1113C66.7253 44.0495 66.4811 44.0186 66.2402 44.0186C65.9538 44.0186 65.734 44.0853 65.5811 44.2188C65.4281 44.3522 65.3516 44.5264 65.3516 44.7412C65.3516 44.8747 65.3825 44.9919 65.4443 45.0928C65.5062 45.1904 65.6038 45.2865 65.7373 45.3809C65.874 45.472 66.1947 45.638 66.6992 45.8789C67.3665 46.1979 67.8239 46.5186 68.0713 46.8408C68.3187 47.1598 68.4424 47.5521 68.4424 48.0176ZM72.4902 50H70.9766V44.1211H69.0381V42.8613H74.4287V44.1211H72.4902V50ZM79.6387 50H75.5273V42.8613H79.6387V44.1016H77.041V45.6689H79.458V46.9092H77.041V48.75H79.6387V50ZM87.0557 46.3623C87.0557 47.5374 86.7204 48.4375 86.0498 49.0625C85.3825 49.6875 84.4173 50 83.1543 50H81.1328V42.8613H83.374C84.5394 42.8613 85.4443 43.1689 86.0889 43.7842C86.7334 44.3994 87.0557 45.2588 87.0557 46.3623ZM85.4834 46.4014C85.4834 44.8682 84.8063 44.1016 83.4521 44.1016H82.6465V48.75H83.2959C84.7542 48.75 85.4834 47.9671 85.4834 46.4014Z" fill="#045F87"/>
</svg>
