<svg width="132" height="52" viewBox="0 0 132 52" fill="none" xmlns="http://www.w3.org/2000/svg">
<path d="M43.9598 33.2716C42.3755 34.8131 40.3201 35.541 38.1363 35.541C32.4413 35.541 30.0005 31.6016 30.0005 27.6193C29.9577 23.5943 32.5697 19.5264 38.1363 19.5264C40.2345 19.5264 42.2042 20.2971 43.7885 21.8815L41.8616 23.7656C40.8339 22.7807 39.5065 22.3097 38.1363 22.3097C34.411 22.3097 32.8266 25.093 32.8266 27.6622C32.8694 30.1885 34.3253 32.8862 38.1363 32.8862C39.4637 32.8862 41.0052 32.3295 41.9901 31.3447L43.9598 33.2716Z" fill="#045F87"/>
<path d="M58.8615 19.8696V28.6906C58.8615 33.2295 56.0782 35.5417 52.2244 35.5417C48.5419 35.5417 45.416 33.3151 45.416 28.6906V19.8696H48.2849V28.6906C48.2849 31.4738 49.8693 32.9297 52.2672 32.9297C54.6651 32.9297 56.0353 31.3454 56.0353 28.6906V19.8696H58.8615Z" fill="#045F87"/>
<path d="M75.3042 35.1995H71.8786L67.3825 30.0611H64.5992V35.1995H61.6875V19.8271C64.1282 19.8271 66.569 19.87 69.0097 19.87C72.6494 19.9128 74.5335 22.3107 74.5335 24.9655C74.5335 27.0637 73.5486 29.2047 70.6369 29.8042L75.3042 35.071V35.1995ZM64.5992 22.5248V27.4491H69.0097C70.851 27.4491 71.6645 26.2073 71.6645 25.0084C71.6645 23.8094 70.851 22.5676 69.0097 22.5676H64.5992V22.5248Z" fill="#045F87"/>
<path d="M87.4214 32.3302H79.3712L78.0438 35.242H74.918L81.812 19.8696H84.9807L91.8747 35.242H88.706L87.4214 32.3302ZM83.3963 23.0811L80.5274 29.6326H86.2224L83.3963 23.0811Z" fill="#045F87"/>
<path d="M94.616 22.482H89.7773V19.8271C94.2306 19.8271 97.956 19.8271 102.409 19.8271V22.482H97.5277V35.1995H94.616V22.482Z" fill="#045F87"/>
<path d="M115.599 35.1995H104.08C104.08 30.1039 104.08 24.9655 104.08 19.8271H115.599V22.6533H106.992V26.2073H115.299V28.905H106.992V32.3734H115.599V35.1995Z" fill="#045F87"/>
<path d="M131.398 27.4058C131.483 31.3024 129.085 35.2419 123.733 35.2419C121.849 35.2419 119.579 35.2419 117.695 35.2419V19.8695C119.579 19.8695 121.849 19.8695 123.733 19.8695C128.957 19.8267 131.312 23.5949 131.398 27.4058ZM120.521 32.4157H123.69C127.201 32.4157 128.572 29.8894 128.486 27.363C128.4 24.9651 127.03 22.5672 123.69 22.5672H120.521V32.4157Z" fill="#045F87"/>
<path d="M39.7629 12.6307C39.2063 12.9305 38.0073 13.1874 36.4658 13.1874C32.4407 13.1874 30 10.661 30 6.80721C30 2.61085 32.9117 0.0844727 36.7655 0.0844727C38.307 0.0844727 39.3776 0.384233 39.8486 0.641153L39.3347 2.4824C38.7352 2.22549 37.9217 2.01137 36.8512 2.01137C34.282 2.01137 32.3979 3.63854 32.3979 6.67875C32.3979 9.46205 34.0251 11.2605 36.8084 11.2605C37.7504 11.2605 38.7352 11.0892 39.3347 10.7895L39.7629 12.6307Z" fill="#FF8500"/>
<path d="M49.6122 8.30736C49.6122 11.6901 47.2571 13.1888 44.902 13.1888C42.29 13.1888 40.3203 11.3904 40.3203 8.47865C40.3203 5.48126 42.29 3.59717 45.0733 3.59717C47.771 3.59717 49.6122 5.52407 49.6122 8.30736ZM42.7182 8.39301C42.7182 10.1486 43.5746 11.5189 44.9877 11.5189C46.3151 11.5189 47.2143 10.2343 47.2143 8.39301C47.2143 6.97995 46.572 5.30997 44.9877 5.30997C43.3605 5.30997 42.7182 6.89431 42.7182 8.39301Z" fill="#FF8500"/>
<path d="M51.068 6.55175C51.068 5.48126 51.0681 4.62485 50.9824 3.81127H53.0377L53.1662 5.18151H53.209C53.5944 4.45357 54.6221 3.59717 56.1208 3.59717C57.7052 3.59717 59.3751 4.62485 59.3751 7.53661V12.9747H57.0628V7.79352C57.0628 6.4661 56.5918 5.48126 55.3072 5.48126C54.3652 5.48126 53.7229 6.12356 53.5088 6.8515C53.4232 7.0656 53.4231 7.32251 53.4231 7.62225V13.0176H51.068V6.55175Z" fill="#FF8500"/>
<path d="M61.2581 10.8767C61.772 11.1764 62.7996 11.519 63.6132 11.519C64.6409 11.519 65.0691 11.0908 65.0691 10.4913C65.0691 9.84903 64.6837 9.54927 63.5704 9.16389C61.772 8.52159 61.044 7.57955 61.044 6.50905C61.044 4.88189 62.3714 3.64014 64.5124 3.64014C65.5401 3.64014 66.3965 3.89705 66.9531 4.19679L66.4821 5.82394C66.0968 5.60984 65.3688 5.3101 64.5552 5.3101C63.7417 5.3101 63.2706 5.69548 63.2706 6.25214C63.2706 6.85162 63.6989 7.10854 64.855 7.53674C66.525 8.13622 67.2957 8.99261 67.2957 10.3628C67.2957 12.0328 66.0111 13.2318 63.5704 13.2318C62.4571 13.2318 61.4722 12.9749 60.7871 12.5895L61.2581 10.8767Z" fill="#FF8500"/>
<path d="M71.4074 1.19873V3.81074H73.5912V5.52353H71.4074V9.59143C71.4074 10.7047 71.7072 11.3042 72.6064 11.3042C72.9918 11.3042 73.2915 11.2614 73.5056 11.1758L73.5484 12.9314C73.2059 13.0598 72.6064 13.1455 71.8784 13.1455C71.022 13.1455 70.2941 12.8457 69.8659 12.3747C69.3949 11.8609 69.138 11.0045 69.138 9.80553V5.48072H67.8105V3.76793H69.138V1.75538L71.4074 1.19873Z" fill="#FF8500"/>
<path d="M74.8747 6.76585C74.8747 5.52408 74.8747 4.62485 74.7891 3.81127H76.8016L76.8872 5.5669H76.9729C77.4439 4.2823 78.5144 3.59717 79.4993 3.59717C79.7134 3.59717 79.8418 3.59718 80.0559 3.64V5.82381C79.8847 5.78099 79.6705 5.73816 79.3708 5.73816C78.2575 5.73816 77.4867 6.46612 77.3154 7.4938C77.2726 7.7079 77.2298 7.9648 77.2298 8.22172V12.9747H74.9175V6.76585H74.8747Z" fill="#FF8500"/>
<path d="M89.3481 10.2339C89.3481 11.3472 89.3909 12.2464 89.4337 12.9744H87.3784L87.2499 11.5613H87.2071C86.8217 12.2036 85.9225 13.1456 84.2525 13.1456C82.5825 13.1456 81.041 12.1608 81.041 9.16337V3.76807H83.3533V8.778C83.3533 10.3195 83.8243 11.3044 85.0661 11.3044C86.0081 11.3044 86.6076 10.6621 86.8217 10.0626C86.9073 9.8485 86.9502 9.59158 86.9502 9.33466V3.81088H89.2625V10.2339H89.3481Z" fill="#FF8500"/>
<path d="M98.1269 12.7179C97.6559 12.932 96.671 13.189 95.5149 13.189C92.6459 13.189 90.8047 11.3477 90.8047 8.52159C90.8047 5.78112 92.6888 3.64014 95.9003 3.64014C96.7567 3.64014 97.613 3.81142 98.1269 4.06834L97.6987 5.78113C97.3133 5.60985 96.7567 5.43855 95.9431 5.43855C94.1875 5.43855 93.117 6.72315 93.117 8.43595C93.117 10.32 94.3587 11.3905 95.9431 11.3905C96.7567 11.3905 97.3133 11.2193 97.7843 11.048L98.1269 12.7179Z" fill="#FF8500"/>
<path d="M102.28 1.19873V3.81074H104.464V5.52353H102.28V9.59143C102.28 10.7047 102.58 11.3042 103.479 11.3042C103.865 11.3042 104.165 11.2614 104.379 11.1758L104.421 12.9314C104.079 13.0598 103.479 13.1455 102.751 13.1455C101.895 13.1455 101.167 12.8457 100.739 12.3747C100.268 11.8609 100.011 11.0045 100.011 9.80553V5.48072H98.6836V3.76793H100.011V1.75538L102.28 1.19873Z" fill="#FF8500"/>
<path d="M108.233 1.24176C108.233 1.92688 107.719 2.48355 106.906 2.48355C106.135 2.48355 105.621 1.92688 105.621 1.24176C105.621 0.513824 106.135 0 106.906 0C107.762 0 108.233 0.556644 108.233 1.24176ZM105.792 12.9744V3.81096H108.147V12.9744H105.792Z" fill="#FF8500"/>
<path d="M118.853 8.30736C118.853 11.6901 116.497 13.1888 114.142 13.1888C111.53 13.1888 109.561 11.3904 109.561 8.47865C109.561 5.48126 111.53 3.59717 114.314 3.59717C117.011 3.59717 118.853 5.52407 118.853 8.30736ZM111.959 8.39301C111.959 10.1486 112.815 11.5189 114.228 11.5189C115.555 11.5189 116.455 10.2343 116.455 8.39301C116.455 6.97995 115.812 5.30997 114.228 5.30997C112.601 5.30997 111.959 6.89431 111.959 8.39301Z" fill="#FF8500"/>
<path d="M120.308 6.55175C120.308 5.48126 120.308 4.62485 120.223 3.81127H122.278L122.406 5.18151H122.449C122.835 4.45357 123.862 3.59717 125.361 3.59717C126.945 3.59717 128.615 4.62485 128.615 7.53661V12.9747H126.303V7.79352C126.303 6.4661 125.832 5.48126 124.547 5.48126C123.605 5.48126 122.963 6.12356 122.749 6.8515C122.663 7.0656 122.663 7.32251 122.663 7.62225V13.0176H120.308V6.55175Z" fill="#FF8500"/>
<path d="M7 24L10 27L20 17" stroke="#FF8500" stroke-width="2" stroke-linecap="round" stroke-linejoin="round"/>
<path d="M19 25V32C19 32.5304 18.7893 33.0391 18.4142 33.4142C18.0391 33.7893 17.5304 34 17 34H3C2.46957 34 1.96086 33.7893 1.58579 33.4142C1.21071 33.0391 1 32.5304 1 32V18C1 17.4696 1.21071 16.9609 1.58579 16.5858C1.96086 16.2107 2.46957 16 3 16H14" stroke="#045F87" stroke-width="2" stroke-linecap="round" stroke-linejoin="round"/>
<path d="M32.4121 45.0303H32.9004C33.3789 45.0303 33.7321 44.9505 33.96 44.791C34.1878 44.6315 34.3018 44.3809 34.3018 44.0391C34.3018 43.7005 34.1846 43.4596 33.9502 43.3164C33.7191 43.1732 33.3594 43.1016 32.8711 43.1016H32.4121V45.0303ZM32.4121 46.2607V49H30.8984V41.8613H32.9785C33.9486 41.8613 34.6663 42.0387 35.1318 42.3936C35.5973 42.7451 35.8301 43.2806 35.8301 44C35.8301 44.4199 35.7145 44.7943 35.4834 45.123C35.2523 45.4486 34.9251 45.7041 34.502 45.8896C35.5762 47.4945 36.276 48.5312 36.6016 49H34.9219L33.2178 46.2607H32.4121ZM41.6113 49H37.5V41.8613H41.6113V43.1016H39.0137V44.6689H41.4307V45.9092H39.0137V47.75H41.6113V49ZM49.585 45.4209C49.585 46.2607 49.4352 46.9655 49.1357 47.5352C48.8395 48.1016 48.4033 48.5166 47.8271 48.7803L49.5459 50.6992H47.6074L46.2988 49.0977H46.1865C45.0928 49.0977 44.2529 48.7803 43.667 48.1455C43.0811 47.5107 42.7881 46.5993 42.7881 45.4111C42.7881 44.223 43.0811 43.3164 43.667 42.6914C44.2562 42.0632 45.0993 41.749 46.1963 41.749C47.2933 41.749 48.1315 42.0648 48.7109 42.6963C49.2936 43.3278 49.585 44.236 49.585 45.4209ZM44.375 45.4209C44.375 46.2184 44.5264 46.819 44.8291 47.2227C45.1318 47.6263 45.5843 47.8281 46.1865 47.8281C47.3942 47.8281 47.998 47.0257 47.998 45.4209C47.998 43.8128 47.3975 43.0088 46.1963 43.0088C45.5941 43.0088 45.14 43.2122 44.834 43.6191C44.528 44.0228 44.375 44.6234 44.375 45.4209ZM56.875 41.8613V46.4805C56.875 47.0078 56.7562 47.4701 56.5186 47.8672C56.2842 48.2643 55.944 48.5687 55.498 48.7803C55.0521 48.9919 54.5247 49.0977 53.916 49.0977C52.998 49.0977 52.2852 48.8633 51.7773 48.3945C51.2695 47.9225 51.0156 47.278 51.0156 46.4609V41.8613H52.5244V46.2314C52.5244 46.7816 52.6351 47.1852 52.8564 47.4424C53.0778 47.6995 53.444 47.8281 53.9551 47.8281C54.4499 47.8281 54.8079 47.6995 55.0293 47.4424C55.2539 47.182 55.3662 46.7751 55.3662 46.2217V41.8613H56.875ZM62.7344 49H58.623V41.8613H62.7344V43.1016H60.1367V44.6689H62.5537V45.9092H60.1367V47.75H62.7344V49ZM68.4424 47.0176C68.4424 47.6621 68.2096 48.1699 67.7441 48.541C67.2819 48.9121 66.6374 49.0977 65.8105 49.0977C65.0488 49.0977 64.375 48.9544 63.7891 48.668V47.2617C64.2708 47.4766 64.6777 47.6279 65.0098 47.7158C65.3451 47.8037 65.651 47.8477 65.9277 47.8477C66.2598 47.8477 66.5137 47.7842 66.6895 47.6572C66.8685 47.5303 66.958 47.3415 66.958 47.0908C66.958 46.9508 66.9189 46.8271 66.8408 46.7197C66.7627 46.609 66.6471 46.5033 66.4941 46.4023C66.3444 46.3014 66.0368 46.1403 65.5713 45.9189C65.1351 45.7139 64.8079 45.5169 64.5898 45.3281C64.3717 45.1393 64.1976 44.9196 64.0674 44.6689C63.9372 44.4183 63.8721 44.1253 63.8721 43.79C63.8721 43.1585 64.0853 42.6621 64.5117 42.3008C64.9414 41.9395 65.5339 41.7588 66.2891 41.7588C66.6602 41.7588 67.0133 41.8027 67.3486 41.8906C67.6872 41.9785 68.0404 42.1022 68.4082 42.2617L67.9199 43.4385C67.5391 43.2822 67.2233 43.1732 66.9727 43.1113C66.7253 43.0495 66.4811 43.0186 66.2402 43.0186C65.9538 43.0186 65.734 43.0853 65.5811 43.2188C65.4281 43.3522 65.3516 43.5264 65.3516 43.7412C65.3516 43.8747 65.3825 43.9919 65.4443 44.0928C65.5062 44.1904 65.6038 44.2865 65.7373 44.3809C65.874 44.472 66.1947 44.638 66.6992 44.8789C67.3665 45.1979 67.8239 45.5186 68.0713 45.8408C68.3187 46.1598 68.4424 46.5521 68.4424 47.0176ZM72.4902 49H70.9766V43.1211H69.0381V41.8613H74.4287V43.1211H72.4902V49ZM79.6387 49H75.5273V41.8613H79.6387V43.1016H77.041V44.6689H79.458V45.9092H77.041V47.75H79.6387V49ZM87.0557 45.3623C87.0557 46.5374 86.7204 47.4375 86.0498 48.0625C85.3825 48.6875 84.4173 49 83.1543 49H81.1328V41.8613H83.374C84.5394 41.8613 85.4443 42.1689 86.0889 42.7842C86.7334 43.3994 87.0557 44.2588 87.0557 45.3623ZM85.4834 45.4014C85.4834 43.8682 84.8063 43.1016 83.4521 43.1016H82.6465V47.75H83.2959C84.7542 47.75 85.4834 46.9671 85.4834 45.4014Z" fill="#045F87"/>
</svg>
