<svg width="132" height="36" viewBox="0 0 132 36" fill="none" xmlns="http://www.w3.org/2000/svg">
<path d="M43.482 33.4171C41.8907 34.9653 39.8263 35.6965 37.6329 35.6965C31.9129 35.6965 29.4615 31.7398 29.4615 27.74C29.4184 23.6973 32.0419 19.6116 37.6329 19.6116C39.7403 19.6116 41.7186 20.3857 43.3099 21.977L41.3746 23.8694C40.3424 22.8802 39.0092 22.4071 37.6329 22.4071C33.8913 22.4071 32.3 25.2026 32.3 27.783C32.343 30.3205 33.8052 33.03 37.6329 33.03C38.9662 33.03 40.5145 32.4709 41.5036 31.4817L43.482 33.4171Z" fill="#045F87"/>
<path d="M58.4478 19.9558V28.8154C58.4478 33.3742 55.6523 35.6967 51.7816 35.6967C48.0829 35.6967 44.9434 33.4603 44.9434 28.8154V19.9558H47.8249V28.8154C47.8249 31.6109 49.4162 33.0732 51.8246 33.0732C54.233 33.0732 55.6093 31.4819 55.6093 28.8154V19.9558H58.4478Z" fill="#045F87"/>
<path d="M74.9635 35.3521H71.5229L67.0071 30.1912H64.2116V35.3521H61.2871V19.9124C63.7386 19.9124 66.19 19.9554 68.6414 19.9554C72.2971 19.9984 74.1894 22.4068 74.1894 25.0733C74.1894 27.1807 73.2003 29.331 70.2757 29.9332L74.9635 35.2231V35.3521ZM64.2116 22.6218V27.5677H68.6414C70.4908 27.5677 71.3079 26.3205 71.3079 25.1163C71.3079 23.9121 70.4908 22.6648 68.6414 22.6648H64.2116V22.6218Z" fill="#045F87"/>
<path d="M87.1344 32.4711H79.0489L77.7157 35.3956H74.5762L81.5004 19.9558H84.683L91.6072 35.3956H88.4247L87.1344 32.4711ZM83.0917 23.1814L80.2102 29.7616H85.9302L83.0917 23.1814Z" fill="#045F87"/>
<path d="M94.3599 22.5788H89.5V19.9124C93.9728 19.9124 97.7145 19.9124 102.187 19.9124V22.5788H97.2844V35.3521H94.3599V22.5788Z" fill="#045F87"/>
<path d="M115.434 35.3521H103.865C103.865 30.2342 103.865 25.0733 103.865 19.9124H115.434V22.7509H106.79V26.3205H115.133V29.03H106.79V32.5136H115.434V35.3521Z" fill="#045F87"/>
<path d="M131.304 27.5248C131.39 31.4385 128.981 35.3952 123.605 35.3952C121.713 35.3952 119.433 35.3952 117.541 35.3952V19.9554C119.433 19.9554 121.713 19.9554 123.605 19.9554C128.852 19.9124 131.217 23.6971 131.304 27.5248ZM120.38 32.5567H123.562C127.089 32.5567 128.465 30.0193 128.379 27.4818C128.293 25.0734 126.917 22.6649 123.562 22.6649H120.38V32.5567Z" fill="#045F87"/>
<path fill-rule="evenodd" clip-rule="evenodd" d="M0.0429973 20.257L0 16.6874C0 16.3003 0.215018 15.9993 0.516072 15.9993H3.01054C3.3116 15.9993 3.52662 16.3003 3.52662 16.6444L3.56964 20.214C3.56964 20.6011 3.3546 20.9022 3.05354 20.9022H0.559096C0.258041 20.9022 0.0429973 20.6011 0.0429973 20.257Z" fill="#FF8500"/>
<path fill-rule="evenodd" clip-rule="evenodd" d="M0.0429973 27.1384L0 23.5688C0 23.1817 0.215018 22.8806 0.516072 22.8806H3.01054C3.3116 22.8806 3.52662 23.1817 3.52662 23.5257L3.56964 27.0954C3.56964 27.4825 3.3546 27.7835 3.05354 27.7835H0.559096C0.258041 27.8265 0.0429973 27.5255 0.0429973 27.1384Z" fill="#FF8500"/>
<path fill-rule="evenodd" clip-rule="evenodd" d="M4.64459 20.2143L4.60156 16.6447C4.60156 16.2576 4.81661 15.9565 5.11766 15.9565H7.61211C7.91316 15.9565 8.1282 16.2576 8.1282 16.6017L8.17123 20.1713C8.17123 20.5584 7.95618 20.8594 7.65513 20.8594H5.16068C4.85963 20.9024 4.64459 20.6014 4.64459 20.2143Z" fill="#045F87"/>
<path fill-rule="evenodd" clip-rule="evenodd" d="M9.07425 31.8261L9.03125 28.2565C9.03125 27.8694 9.24627 27.5684 9.54732 27.5684H12.0418C12.3428 27.5684 12.5579 27.8694 12.5579 28.2135L12.6009 31.7831C12.6009 32.1702 12.3858 32.4713 12.0848 32.4713H9.59035C9.3323 32.5143 9.11726 32.2132 9.07425 31.8261Z" fill="#FF8500"/>
<path fill-rule="evenodd" clip-rule="evenodd" d="M9.0313 26.02L8.98828 22.4503C8.98828 22.0633 9.20333 21.7622 9.50438 21.7622H11.9988C12.2999 21.7622 12.5149 22.0633 12.5149 22.4073L12.5579 25.977C12.5579 26.364 12.3429 26.6651 12.0418 26.6651H9.54738C9.28933 26.6651 9.07431 26.364 9.0313 26.02Z" fill="#045F87"/>
<path fill-rule="evenodd" clip-rule="evenodd" d="M9.0313 20.1711L8.98828 16.6014C8.98828 16.2144 9.20333 15.9133 9.50438 15.9133H11.9988C12.2999 15.9133 12.5149 16.2144 12.5149 16.5584L12.5579 20.1281C12.5579 20.5152 12.3429 20.8162 12.0418 20.8162H9.54738C9.24632 20.8592 9.0313 20.5582 9.0313 20.1711Z" fill="#FF8500"/>
<path fill-rule="evenodd" clip-rule="evenodd" d="M13.461 31.8261L13.418 28.2565C13.418 27.8694 13.633 27.5684 13.9341 27.5684H16.4285C16.7296 27.5684 16.9446 27.8694 16.9446 28.2135L16.9876 31.7831C16.9876 32.1702 16.7726 32.4713 16.4715 32.4713H13.9771C13.719 32.4713 13.461 32.1702 13.461 31.8261Z" fill="#045F87"/>
<path fill-rule="evenodd" clip-rule="evenodd" d="M13.418 25.9765L13.375 22.4069C13.375 22.0198 13.59 21.7188 13.8911 21.7188H16.3855C16.6866 21.7188 16.9016 22.0198 16.9016 22.3639L16.9446 25.9335C16.9446 26.3206 16.7296 26.6216 16.4285 26.6216H13.9341C13.676 26.6646 13.461 26.3636 13.418 25.9765Z" fill="#FF8500"/>
<path fill-rule="evenodd" clip-rule="evenodd" d="M13.375 20.1711L13.332 16.6014C13.332 16.2144 13.547 15.9133 13.8481 15.9133H16.3426C16.6436 15.9133 16.8586 16.2144 16.8586 16.5584L16.9017 20.1281C16.9017 20.5152 16.6866 20.8162 16.3856 20.8162H13.8911C13.6331 20.8162 13.418 20.5151 13.375 20.1711Z" fill="#045F87"/>
<path fill-rule="evenodd" clip-rule="evenodd" d="M4.30084 14.2356L4.25781 10.6659C4.25781 10.2789 4.47286 9.97778 4.77391 9.97778H7.26836C7.56941 9.97778 7.78445 10.2788 7.78445 10.6229L7.82745 14.1926C7.82745 14.5796 7.61243 14.8807 7.31138 14.8807H4.81691C4.51585 14.9237 4.30084 14.6226 4.30084 14.2356Z" fill="#FF8500"/>
<path fill-rule="evenodd" clip-rule="evenodd" d="M8.98831 14.1928L8.94531 10.6232C8.94531 10.2361 9.16036 9.93506 9.46141 9.93506H11.9559C12.2569 9.93506 12.472 10.2361 12.472 10.5802L12.515 14.1498C12.515 14.5369 12.2999 14.838 11.9989 14.838H9.50441C9.20335 14.838 8.98831 14.5369 8.98831 14.1928Z" fill="#FF8500"/>
<path fill-rule="evenodd" clip-rule="evenodd" d="M13.375 14.1496L13.332 10.58C13.332 10.1929 13.547 9.89185 13.8481 9.89185H16.3426C16.6436 9.89185 16.8586 10.1929 16.8586 10.537L16.9017 14.1066C16.9017 14.4937 16.6866 14.7947 16.3856 14.7947H13.8911C13.5901 14.8377 13.375 14.5367 13.375 14.1496Z" fill="#FF8500"/>
<path fill-rule="evenodd" clip-rule="evenodd" d="M17.6758 25.9338L17.6328 22.3642C17.6328 21.9771 17.8478 21.676 18.1489 21.676H20.6434C20.9444 21.676 21.1594 21.9771 21.1594 22.3211L21.2025 25.8908C21.2025 26.2779 20.9874 26.5789 20.6864 26.5789H18.1919C17.8909 26.6219 17.6758 26.3209 17.6758 25.9338Z" fill="#045F87"/>
<path fill-rule="evenodd" clip-rule="evenodd" d="M17.6329 20.1277L17.5898 16.558C17.5898 16.1709 17.8049 15.8699 18.1059 15.8699H20.6004C20.9014 15.8699 21.1165 16.1709 21.1165 16.515L21.1595 20.0846C21.1595 20.4717 20.9445 20.7728 20.6434 20.7728H18.1489C17.8479 20.7728 17.6329 20.5147 17.6329 20.1277Z" fill="#FF8500"/>
<path fill-rule="evenodd" clip-rule="evenodd" d="M17.5899 14.1069L17.5469 10.5373C17.5469 10.1502 17.7619 9.84912 18.063 9.84912H20.5574C20.8585 9.84912 21.0735 10.1502 21.0735 10.4942L21.1165 14.0639C21.1165 14.4509 20.9015 14.752 20.6004 14.752H18.106C17.8049 14.795 17.5899 14.494 17.5899 14.1069Z" fill="#045F87"/>
<path d="M19.7334 23.7467L14.7168 29.5295L15.3016 30.0368L20.3182 24.254L19.7334 23.7467Z" fill="#045F87"/>
<path d="M19.2154 12.7436L14.1973 18.5249L14.7819 19.0323L19.8 13.251L19.2154 12.7436Z" fill="#045F87"/>
<path d="M39.2667 12.6867C38.7076 12.9878 37.5034 13.2458 35.9551 13.2458C31.9124 13.2458 29.4609 10.7084 29.4609 6.83767C29.4609 2.62291 32.3854 0.0854492 36.2561 0.0854492C37.8044 0.0854492 38.8796 0.386525 39.3527 0.644571L38.8366 2.4939C38.2345 2.23585 37.4174 2.0208 36.3422 2.0208C33.7617 2.0208 31.8694 3.6551 31.8694 6.70866C31.8694 9.50416 33.5037 11.3105 36.2992 11.3105C37.2454 11.3105 38.2345 11.1384 38.8366 10.8374L39.2667 12.6867Z" fill="#FF8500"/>
<path d="M49.1588 8.34365C49.1588 11.7413 46.7934 13.2465 44.428 13.2465C41.8045 13.2465 39.8262 11.4402 39.8262 8.51569C39.8262 5.50515 41.8045 3.61279 44.6 3.61279C47.3095 3.61279 49.1588 5.54814 49.1588 8.34365ZM42.2346 8.42967C42.2346 10.193 43.0948 11.5692 44.514 11.5692C45.8473 11.5692 46.7504 10.279 46.7504 8.42967C46.7504 7.01041 46.1053 5.3331 44.514 5.3331C42.8797 5.3331 42.2346 6.9244 42.2346 8.42967Z" fill="#FF8500"/>
<path d="M50.6212 6.58034C50.6212 5.50515 50.6212 4.64498 50.5352 3.82783H52.5995L52.7285 5.20409H52.7715C53.1586 4.47295 54.1908 3.61279 55.6961 3.61279C57.2874 3.61279 58.9647 4.64498 58.9647 7.56951V13.0315H56.6422V7.82755C56.6422 6.49431 56.1692 5.50515 54.8789 5.50515C53.9328 5.50515 53.2877 6.15027 53.0726 6.8814C52.9866 7.09644 52.9866 7.35448 52.9866 7.65553V13.0745H50.6212V6.58034Z" fill="#FF8500"/>
<path d="M60.8559 10.9243C61.372 11.2254 62.4042 11.5694 63.2213 11.5694C64.2535 11.5694 64.6836 11.1394 64.6836 10.5372C64.6836 9.89213 64.2965 9.59106 63.1783 9.20399C61.372 8.55888 60.6408 7.6127 60.6408 6.53751C60.6408 4.90321 61.9741 3.65601 64.1245 3.65601C65.1567 3.65601 66.0168 3.91405 66.5759 4.2151L66.1028 5.84939C65.7157 5.63435 64.9846 5.33329 64.1675 5.33329C63.3503 5.33329 62.8772 5.72037 62.8772 6.27947C62.8772 6.88158 63.3073 7.13962 64.4686 7.5697C66.1459 8.17181 66.92 9.03196 66.92 10.4082C66.92 12.0855 65.6298 13.2897 63.1783 13.2897C62.0601 13.2897 61.0709 13.0317 60.3828 12.6446L60.8559 10.9243Z" fill="#FF8500"/>
<path d="M71.0502 1.20459V3.82805H73.2435V5.54836H71.0502V9.6341C71.0502 10.7523 71.3512 11.3544 72.2544 11.3544C72.6415 11.3544 72.9425 11.3114 73.1576 11.2254L73.2006 12.9887C72.8565 13.1177 72.2544 13.2037 71.5232 13.2037C70.6631 13.2037 69.932 12.9027 69.5019 12.4296C69.0288 11.9135 68.7708 11.0534 68.7708 9.84914V5.50537H67.4375V3.78506H68.7708V1.76369L71.0502 1.20459Z" fill="#FF8500"/>
<path d="M74.5333 6.79538C74.5333 5.54815 74.5333 4.64498 74.4473 3.82783H76.4686L76.5547 5.59117H76.6407C77.1137 4.30093 78.1889 3.61279 79.1781 3.61279C79.3932 3.61279 79.5222 3.61281 79.7372 3.65582V5.8492C79.5652 5.80619 79.3501 5.76318 79.0491 5.76318C77.9309 5.76318 77.1568 6.49433 76.9847 7.52652C76.9417 7.74155 76.8987 7.99958 76.8987 8.25763V13.0315H74.5763V6.79538H74.5333Z" fill="#FF8500"/>
<path d="M89.0701 10.2788C89.0701 11.397 89.1131 12.3002 89.1561 13.0313H87.0917L86.9627 11.6121H86.9197C86.5326 12.2572 85.6294 13.2034 83.9521 13.2034C82.2748 13.2034 80.7266 12.2142 80.7266 9.20364V3.78467H83.049V8.81658C83.049 10.3649 83.5221 11.354 84.7693 11.354C85.7155 11.354 86.3176 10.7089 86.5326 10.1068C86.6186 9.89178 86.6617 9.63372 86.6617 9.37568V3.82767H88.9841V10.2788H89.0701Z" fill="#FF8500"/>
<path d="M97.8875 12.7736C97.4144 12.9887 96.4253 13.2467 95.2641 13.2467C92.3825 13.2467 90.5332 11.3974 90.5332 8.55888C90.5332 5.80638 92.4256 3.65601 95.6511 3.65601C96.5113 3.65601 97.3714 3.82804 97.8875 4.08608L97.4574 5.80639C97.0704 5.63436 96.5113 5.46231 95.6941 5.46231C93.9308 5.46231 92.8556 6.75254 92.8556 8.47285C92.8556 10.3652 94.1028 11.4404 95.6941 11.4404C96.5113 11.4404 97.0704 11.2684 97.5434 11.0963L97.8875 12.7736Z" fill="#FF8500"/>
<path d="M102.058 1.20459V3.82805H104.251V5.54836H102.058V9.6341C102.058 10.7523 102.359 11.3544 103.262 11.3544C103.649 11.3544 103.95 11.3114 104.165 11.2254L104.208 12.9887C103.864 13.1177 103.262 13.2037 102.531 13.2037C101.671 13.2037 100.94 12.9027 100.51 12.4296C100.037 11.9135 99.7785 11.0534 99.7785 9.84914V5.50537H98.4453V3.78506H99.7785V1.76369L102.058 1.20459Z" fill="#FF8500"/>
<path d="M108.036 1.24721C108.036 1.93533 107.519 2.49445 106.702 2.49445C105.928 2.49445 105.412 1.93533 105.412 1.24721C105.412 0.516077 105.928 0 106.702 0C107.562 0 108.036 0.559085 108.036 1.24721ZM105.584 13.0313V3.82768H107.95V13.0313H105.584Z" fill="#FF8500"/>
<path d="M118.702 8.34365C118.702 11.7413 116.336 13.2465 113.971 13.2465C111.348 13.2465 109.369 11.4402 109.369 8.51569C109.369 5.50515 111.348 3.61279 114.143 3.61279C116.853 3.61279 118.702 5.54814 118.702 8.34365ZM111.778 8.42967C111.778 10.193 112.638 11.5692 114.057 11.5692C115.39 11.5692 116.293 10.279 116.293 8.42967C116.293 7.01041 115.648 5.3331 114.057 5.3331C112.423 5.3331 111.778 6.9244 111.778 8.42967Z" fill="#FF8500"/>
<path d="M120.164 6.58034C120.164 5.50515 120.164 4.64498 120.078 3.82783H122.143L122.272 5.20409H122.315C122.702 4.47295 123.734 3.61279 125.239 3.61279C126.83 3.61279 128.508 4.64498 128.508 7.56951V13.0315H126.185V7.82755C126.185 6.49431 125.712 5.50515 124.422 5.50515C123.476 5.50515 122.831 6.15027 122.616 6.8814C122.53 7.09644 122.53 7.35448 122.53 7.65553V13.0745H120.164V6.58034Z" fill="#FF8500"/>
</svg>
