<svg width="128" height="52" viewBox="0 0 128 52" fill="none" xmlns="http://www.w3.org/2000/svg">
<path d="M43.3857 33.1546C41.8665 34.6392 39.8957 35.3402 37.8017 35.3402C32.3409 35.3402 30.0005 31.5464 30.0005 27.7113C29.9594 23.835 32.464 19.9175 37.8017 19.9175C39.8136 19.9175 41.7023 20.6598 43.2215 22.1855L41.3328 23.9587C40.3473 23.0103 39.0745 22.5567 37.7606 22.5567C34.1885 22.5567 32.6693 25.2371 32.6693 27.7113C32.7104 30.1443 34.1064 32.7423 37.7606 32.7423C39.0335 32.7423 40.5116 32.2062 41.4559 31.2577L43.3857 33.1546Z" fill="#045F87"/>
<path d="M57.6737 20.2061V28.7009C57.6737 33.0721 55.0049 35.2989 51.3096 35.2989C47.7785 35.2989 44.7812 33.1546 44.7812 28.7009V20.2061H47.5322V28.7009C47.5322 31.3813 49.0514 32.7834 51.3507 32.7834C53.65 32.7834 54.9639 31.2576 54.9639 28.7009V20.2061H57.6737Z" fill="#045F87"/>
<path d="M73.4415 35.0105H70.1568L65.8456 30.062H63.1768V35.0105H60.3848V20.165C62.7251 20.165 65.0655 20.2063 67.4058 20.2063C70.8958 20.2475 72.7024 22.5568 72.7024 25.1135C72.7024 27.1341 71.7581 29.196 68.9661 29.7733L73.4415 34.8455V35.0105ZM63.1768 22.8042V27.5465H67.4058C69.1714 27.5465 69.9515 26.3506 69.9515 25.196C69.9515 24.0413 69.1714 22.8455 67.4058 22.8455H63.1768V22.8042Z" fill="#045F87"/>
<path d="M85.0204 32.2061H77.3014L76.0285 35.0102H73.0312L79.6417 20.2061H82.6801L89.3316 35.0102H86.2933L85.0204 32.2061ZM81.202 23.2988L78.451 29.6081H83.9119L81.202 23.2988Z" fill="#045F87"/>
<path d="M91.9581 22.7217H87.2773V20.165C91.5475 20.165 95.1196 20.165 99.3897 20.165V22.7217H94.709V34.9692H91.917V22.7217H91.9581Z" fill="#045F87"/>
<path d="M112.078 35.0102H101.033C101.033 30.103 101.033 25.1545 101.033 20.2061H112.078V22.9277H103.825V26.3504H111.791V28.9071H103.825V32.2473H112.078V35.0102Z" fill="#045F87"/>
<path d="M127.188 27.4638C127.27 31.2164 124.97 35.0102 119.838 35.0102C118.032 35.0102 115.855 35.0102 114.049 35.0102V20.2061C115.855 20.2061 118.032 20.2061 119.838 20.2061C124.888 20.2061 127.147 23.7937 127.188 27.4638ZM116.8 32.3298H119.838C123.205 32.3298 124.519 29.8968 124.437 27.4638C124.355 25.1545 123.041 22.8452 119.838 22.8452H116.8V32.3298Z" fill="#045F87"/>
<path d="M30.6582 0.453212C31.7668 0.288263 33.2039 0.164551 34.723 0.164551C37.2276 0.164551 38.87 0.61816 40.1839 1.60785C41.5799 2.63879 42.4421 4.28828 42.4421 6.6388C42.4421 9.19551 41.4978 10.9687 40.2249 12.0409C38.8289 13.1955 36.6939 13.7728 34.1072 13.7728C32.5469 13.7728 31.4383 13.6904 30.6993 13.5667V0.453212H30.6582ZM33.6966 11.3398C33.9429 11.3811 34.3535 11.3811 34.723 11.3811C37.4329 11.3811 39.1985 9.89654 39.1985 6.72127C39.1985 3.95838 37.5972 2.47384 35.0104 2.47384C34.3535 2.47384 33.9019 2.51507 33.6555 2.59755V11.3398H33.6966Z" fill="#F96BDB"/>
<path d="M47.1644 10.1852L46.2201 13.6079H43.0996L47.1644 0.24707H51.1061L55.212 13.6079H51.9683L50.9419 10.1852H47.1644ZM50.5313 7.9172L49.7101 5.07183C49.4637 4.28832 49.2174 3.29863 49.0531 2.51512H49.0121C48.8068 3.29863 48.6015 4.32956 48.3962 5.07183L47.6161 7.9172H50.5313Z" fill="#F96BDB"/>
<path d="M57.9217 2.80378H54.3496V0.24707H64.5733V2.76254H60.9601V13.5667H57.9628V2.80378H57.9217Z" fill="#F96BDB"/>
<path d="M67.8168 10.1852L66.8724 13.6079H63.752L67.8168 0.24707H71.7584L75.8643 13.6079H72.6207L71.5942 10.1852H67.8168ZM71.2247 7.9172L70.4035 5.07183C70.1571 4.28832 69.9108 3.29863 69.7466 2.51512H69.7055C69.5002 3.29863 69.2949 4.32956 69.0896 5.07183L68.3095 7.9172H71.2247Z" fill="#F96BDB"/>
<path d="M77.6699 0.4537C78.45 0.288751 80.0513 0.165039 81.5705 0.165039C83.4182 0.165039 84.5268 0.329988 85.5122 0.907309C86.4565 1.40216 87.1135 2.30938 87.1135 3.50526C87.1135 4.70114 86.4155 5.81454 84.9373 6.35063V6.39186C86.4565 6.80423 87.5651 7.95888 87.5651 9.69084C87.5651 10.8867 87.0314 11.8352 86.1691 12.5362C85.1837 13.3197 83.5824 13.7321 80.9546 13.7321C79.4765 13.7321 78.3679 13.6496 77.711 13.5259V0.4537H77.6699ZM80.6262 5.52588H81.6116C83.1718 5.52588 84.0341 4.86609 84.0341 3.87639C84.0341 2.8867 83.2539 2.35061 81.899 2.35061C81.242 2.35061 80.8725 2.39185 80.6262 2.43309V5.52588ZM80.6262 11.464C80.9136 11.5053 81.2831 11.5053 81.7758 11.5053C83.1308 11.5053 84.3215 11.0104 84.3215 9.56713C84.3215 8.2063 83.1308 7.67022 81.6116 7.67022H80.5851V11.464H80.6262Z" fill="#F96BDB"/>
<path d="M92.5746 10.1852L91.6302 13.6079H88.5098L92.5746 0.24707H96.5162L100.622 13.6079H97.3785L96.352 10.1852H92.5746ZM95.9414 7.9172L95.1202 5.07183C94.8739 4.28832 94.6275 3.29863 94.4633 2.51512H94.4222C94.2169 3.29863 94.0117 4.32956 93.8064 5.07183L93.0262 7.9172H95.9414Z" fill="#F96BDB"/>
<path d="M102.512 10.4743C103.334 10.8866 104.565 11.299 105.838 11.299C107.234 11.299 107.932 10.7217 107.932 9.8557C107.932 9.03096 107.316 8.53611 105.715 7.95879C103.498 7.17528 102.061 5.9794 102.061 4.00001C102.061 1.73196 103.949 0 107.07 0C108.548 0 109.657 0.329898 110.478 0.659796L109.821 3.09279C109.287 2.84537 108.343 2.47423 107.029 2.47423C105.715 2.47423 105.099 3.05156 105.099 3.75259C105.099 4.61857 105.838 4.98971 107.563 5.6495C109.903 6.51549 111.012 7.7526 111.012 9.60828C111.012 11.8351 109.287 13.732 105.633 13.732C104.114 13.732 102.636 13.3196 101.855 12.9073L102.512 10.4743Z" fill="#F96BDB"/>
<path d="M120.989 7.95844H116.103V11.1337H121.564V13.6079H113.105V0.24707H121.317V2.72131H116.144V5.4842H121.03V7.95844H120.989Z" fill="#F96BDB"/>
<path d="M7 24L10 27L20 17" stroke="#F96BDB" stroke-width="2" stroke-linecap="round" stroke-linejoin="round"/>
<path d="M19 25V32C19 32.5304 18.7893 33.0391 18.4142 33.4142C18.0391 33.7893 17.5304 34 17 34H3C2.46957 34 1.96086 33.7893 1.58579 33.4142C1.21071 33.0391 1 32.5304 1 32V18C1 17.4696 1.21071 16.9609 1.58579 16.5858C1.96086 16.2107 2.46957 16 3 16H14" stroke="#045F87" stroke-width="2" stroke-linecap="round" stroke-linejoin="round"/>
<path d="M32.4121 45.0303H32.9004C33.3789 45.0303 33.7321 44.9505 33.96 44.791C34.1878 44.6315 34.3018 44.3809 34.3018 44.0391C34.3018 43.7005 34.1846 43.4596 33.9502 43.3164C33.7191 43.1732 33.3594 43.1016 32.8711 43.1016H32.4121V45.0303ZM32.4121 46.2607V49H30.8984V41.8613H32.9785C33.9486 41.8613 34.6663 42.0387 35.1318 42.3936C35.5973 42.7451 35.8301 43.2806 35.8301 44C35.8301 44.4199 35.7145 44.7943 35.4834 45.123C35.2523 45.4486 34.9251 45.7041 34.502 45.8896C35.5762 47.4945 36.276 48.5312 36.6016 49H34.9219L33.2178 46.2607H32.4121ZM41.6113 49H37.5V41.8613H41.6113V43.1016H39.0137V44.6689H41.4307V45.9092H39.0137V47.75H41.6113V49ZM49.585 45.4209C49.585 46.2607 49.4352 46.9655 49.1357 47.5352C48.8395 48.1016 48.4033 48.5166 47.8271 48.7803L49.5459 50.6992H47.6074L46.2988 49.0977H46.1865C45.0928 49.0977 44.2529 48.7803 43.667 48.1455C43.0811 47.5107 42.7881 46.5993 42.7881 45.4111C42.7881 44.223 43.0811 43.3164 43.667 42.6914C44.2562 42.0632 45.0993 41.749 46.1963 41.749C47.2933 41.749 48.1315 42.0648 48.7109 42.6963C49.2936 43.3278 49.585 44.236 49.585 45.4209ZM44.375 45.4209C44.375 46.2184 44.5264 46.819 44.8291 47.2227C45.1318 47.6263 45.5843 47.8281 46.1865 47.8281C47.3942 47.8281 47.998 47.0257 47.998 45.4209C47.998 43.8128 47.3975 43.0088 46.1963 43.0088C45.5941 43.0088 45.14 43.2122 44.834 43.6191C44.528 44.0228 44.375 44.6234 44.375 45.4209ZM56.875 41.8613V46.4805C56.875 47.0078 56.7562 47.4701 56.5186 47.8672C56.2842 48.2643 55.944 48.5687 55.498 48.7803C55.0521 48.9919 54.5247 49.0977 53.916 49.0977C52.998 49.0977 52.2852 48.8633 51.7773 48.3945C51.2695 47.9225 51.0156 47.278 51.0156 46.4609V41.8613H52.5244V46.2314C52.5244 46.7816 52.6351 47.1852 52.8564 47.4424C53.0778 47.6995 53.444 47.8281 53.9551 47.8281C54.4499 47.8281 54.8079 47.6995 55.0293 47.4424C55.2539 47.182 55.3662 46.7751 55.3662 46.2217V41.8613H56.875ZM62.7344 49H58.623V41.8613H62.7344V43.1016H60.1367V44.6689H62.5537V45.9092H60.1367V47.75H62.7344V49ZM68.4424 47.0176C68.4424 47.6621 68.2096 48.1699 67.7441 48.541C67.2819 48.9121 66.6374 49.0977 65.8105 49.0977C65.0488 49.0977 64.375 48.9544 63.7891 48.668V47.2617C64.2708 47.4766 64.6777 47.6279 65.0098 47.7158C65.3451 47.8037 65.651 47.8477 65.9277 47.8477C66.2598 47.8477 66.5137 47.7842 66.6895 47.6572C66.8685 47.5303 66.958 47.3415 66.958 47.0908C66.958 46.9508 66.9189 46.8271 66.8408 46.7197C66.7627 46.609 66.6471 46.5033 66.4941 46.4023C66.3444 46.3014 66.0368 46.1403 65.5713 45.9189C65.1351 45.7139 64.8079 45.5169 64.5898 45.3281C64.3717 45.1393 64.1976 44.9196 64.0674 44.6689C63.9372 44.4183 63.8721 44.1253 63.8721 43.79C63.8721 43.1585 64.0853 42.6621 64.5117 42.3008C64.9414 41.9395 65.5339 41.7588 66.2891 41.7588C66.6602 41.7588 67.0133 41.8027 67.3486 41.8906C67.6872 41.9785 68.0404 42.1022 68.4082 42.2617L67.9199 43.4385C67.5391 43.2822 67.2233 43.1732 66.9727 43.1113C66.7253 43.0495 66.4811 43.0186 66.2402 43.0186C65.9538 43.0186 65.734 43.0853 65.5811 43.2188C65.4281 43.3522 65.3516 43.5264 65.3516 43.7412C65.3516 43.8747 65.3825 43.9919 65.4443 44.0928C65.5062 44.1904 65.6038 44.2865 65.7373 44.3809C65.874 44.472 66.1947 44.638 66.6992 44.8789C67.3665 45.1979 67.8239 45.5186 68.0713 45.8408C68.3187 46.1598 68.4424 46.5521 68.4424 47.0176ZM72.4902 49H70.9766V43.1211H69.0381V41.8613H74.4287V43.1211H72.4902V49ZM79.6387 49H75.5273V41.8613H79.6387V43.1016H77.041V44.6689H79.458V45.9092H77.041V47.75H79.6387V49ZM87.0557 45.3623C87.0557 46.5374 86.7204 47.4375 86.0498 48.0625C85.3825 48.6875 84.4173 49 83.1543 49H81.1328V41.8613H83.374C84.5394 41.8613 85.4443 42.1689 86.0889 42.7842C86.7334 43.3994 87.0557 44.2588 87.0557 45.3623ZM85.4834 45.4014C85.4834 43.8682 84.8063 43.1016 83.4521 43.1016H82.6465V47.75H83.2959C84.7542 47.75 85.4834 46.9671 85.4834 45.4014Z" fill="#045F87"/>
</svg>
