<svg width="131" height="35" viewBox="0 0 131 35" fill="none" xmlns="http://www.w3.org/2000/svg">
<path d="M43.381 32.4819C41.7934 34.0266 39.7339 34.756 37.5456 34.756C31.8388 34.756 29.3931 30.8085 29.3931 26.8181C29.3502 22.7848 32.0105 18.7085 37.5456 18.7085C39.6481 18.7085 41.6218 19.4808 43.2094 21.0684L41.2785 22.9564C40.2488 21.9695 38.9186 21.4975 37.5456 21.4975C33.8126 21.4975 32.225 24.2865 32.225 26.861C32.2679 29.3925 33.7268 32.0957 37.5456 32.0957C38.8757 32.0957 40.4204 31.5379 41.4073 30.5511L43.381 32.4819Z" fill="white"/>
<path d="M58.3129 19.0522V27.8913C58.3129 32.4395 55.5239 34.7565 51.6622 34.7565C47.9721 34.7565 44.8398 32.5253 44.8398 27.8913V19.0522H47.7146V27.8913C47.7146 30.6803 49.3023 32.1391 51.7051 32.1391C54.1079 32.1391 55.481 30.5516 55.481 27.8913V19.0522H58.3129Z" fill="white"/>
<path d="M74.7892 34.4127H71.3566L66.8513 29.2637H64.0623V34.4127H61.1445V19.0088C63.5903 19.0088 66.036 19.0517 68.4818 19.0517C72.1289 19.0946 74.0169 21.4974 74.0169 24.1577C74.0169 26.2602 73.03 28.4056 70.1123 29.0063L74.7892 34.284V34.4127ZM64.0623 21.7549V26.6893H68.4818C70.3268 26.6893 71.1421 25.445 71.1421 24.2436C71.1421 23.0421 70.3268 21.7978 68.4818 21.7978H64.0623V21.7549Z" fill="white"/>
<path d="M86.9314 31.5384H78.8648L77.5346 34.4562H74.4023L81.3105 19.0522H84.4857L91.3938 34.4562H88.2186L86.9314 31.5384ZM82.8981 22.2703L80.0233 28.8352H85.73L82.8981 22.2703Z" fill="white"/>
<path d="M94.1845 21.6691H89.293V19.0088C93.7554 19.0088 97.4884 19.0088 101.951 19.0088V21.6691H97.0593V34.4127H94.1416V21.6691H94.1845Z" fill="white"/>
<path d="M115.208 34.4127H103.666C103.666 29.3067 103.666 24.1577 103.666 19.0088H115.208V21.8407H106.584V25.402H114.908V28.1053H106.584V31.5808H115.208V34.4127Z" fill="white"/>
<path d="M130.998 26.604C131.084 30.5087 128.681 34.4562 123.318 34.4562C121.43 34.4562 119.156 34.4562 117.268 34.4562V19.0522C119.156 19.0522 121.43 19.0522 123.318 19.0522C128.552 19.0522 130.912 22.7852 130.998 26.604ZM120.099 31.6242H123.275C126.793 31.6242 128.166 29.0927 128.08 26.5611C127.995 24.1583 126.621 21.7554 123.275 21.7554H120.099V31.6242Z" fill="white"/>
<path fill-rule="evenodd" clip-rule="evenodd" d="M0.0428974 19.3529L0 15.7915C0 15.4054 0.214518 15.105 0.514873 15.105H3.00355C3.3039 15.105 3.51842 15.4053 3.51842 15.7486L3.56137 19.31C3.56137 19.6961 3.3468 19.9965 3.04645 19.9965H0.557823C0.257468 19.9965 0.0428974 19.6961 0.0428974 19.3529Z" fill="white"/>
<path fill-rule="evenodd" clip-rule="evenodd" d="M0.0428974 26.2176L0 22.6563C0 22.2701 0.214518 21.9697 0.514873 21.9697H3.00355C3.3039 21.9697 3.51842 22.2701 3.51842 22.6133L3.56137 26.1747C3.56137 26.5609 3.3468 26.8612 3.04645 26.8612H0.557823C0.257468 26.9041 0.0428974 26.6038 0.0428974 26.2176Z" fill="white"/>
<path fill-rule="evenodd" clip-rule="evenodd" d="M4.63475 19.3094L4.5918 15.748C4.5918 15.3619 4.80637 15.0615 5.10672 15.0615H7.59535C7.8957 15.0615 8.11027 15.3619 8.11027 15.7051L8.15317 19.2665C8.15317 19.6527 7.93865 19.953 7.6383 19.953H5.14962C4.84926 19.9959 4.63475 19.6956 4.63475 19.3094Z" fill="white"/>
<path fill-rule="evenodd" clip-rule="evenodd" d="M9.09563 30.8949L9.05273 27.3335C9.05273 26.9473 9.26731 26.647 9.56766 26.647H12.0563C12.3566 26.647 12.5712 26.9473 12.5712 27.2906L12.6141 30.8519C12.6141 31.2381 12.3995 31.5385 12.0992 31.5385H9.61056C9.3102 31.5814 9.09563 31.281 9.09563 30.8949Z" fill="white"/>
<path fill-rule="evenodd" clip-rule="evenodd" d="M9.05266 25.1024L9.00977 21.541C9.00977 21.1548 9.22428 20.8545 9.52464 20.8545H12.0133C12.3137 20.8545 12.5282 21.1548 12.5282 21.4981L12.5711 25.0595C12.5711 25.4456 12.3566 25.746 12.0562 25.746H9.56759C9.26723 25.746 9.05266 25.4456 9.05266 25.1024Z" fill="white"/>
<path fill-rule="evenodd" clip-rule="evenodd" d="M9.01165 19.2674L8.96875 15.706C8.96875 15.3199 9.18327 15.0195 9.48362 15.0195H11.9723C12.2727 15.0195 12.4872 15.3199 12.4872 15.6631L12.5301 19.2245C12.5301 19.6107 12.3156 19.911 12.0152 19.911H9.52652C9.22617 19.9539 9.01165 19.6536 9.01165 19.2674Z" fill="white"/>
<path fill-rule="evenodd" clip-rule="evenodd" d="M13.4726 30.8949L13.4297 27.3335C13.4297 26.9473 13.6442 26.647 13.9446 26.647H16.4332C16.7336 26.647 16.9481 26.9473 16.9481 27.2906L16.991 30.8519C16.991 31.2381 16.7765 31.5385 16.4761 31.5385H13.9875C13.6871 31.5385 13.4726 31.2381 13.4726 30.8949Z" fill="white"/>
<path fill-rule="evenodd" clip-rule="evenodd" d="M13.4316 25.0599L13.3887 21.4985C13.3887 21.1124 13.6032 20.812 13.9036 20.812H16.3922C16.6926 20.812 16.9071 21.1124 16.9071 21.4556L16.95 25.017C16.95 25.4031 16.7355 25.7035 16.4352 25.7035H13.9465C13.6461 25.7464 13.4316 25.446 13.4316 25.0599Z" fill="white"/>
<path fill-rule="evenodd" clip-rule="evenodd" d="M13.3866 19.2674L13.3438 15.706C13.3438 15.3199 13.5583 15.0195 13.8587 15.0195H16.3473C16.6477 15.0195 16.8622 15.3199 16.8622 15.6631L16.9051 19.2245C16.9051 19.6107 16.6906 19.911 16.3902 19.911H13.9016C13.6012 19.911 13.3866 19.6107 13.3866 19.2674Z" fill="white"/>
<path fill-rule="evenodd" clip-rule="evenodd" d="M4.29094 13.3455L4.24805 9.7842C4.24805 9.39803 4.46257 9.09766 4.76292 9.09766H7.2516C7.55195 9.09766 7.76647 9.39801 7.76647 9.74127L7.80937 13.3026C7.80937 13.6888 7.59485 13.9892 7.29449 13.9892H4.80582C4.50546 14.0321 4.29094 13.7317 4.29094 13.3455Z" fill="white"/>
<path fill-rule="evenodd" clip-rule="evenodd" d="M8.96673 13.3021L8.92383 9.74071C8.92383 9.35454 9.13835 9.0542 9.4387 9.0542H11.9274C12.2277 9.0542 12.4423 9.35455 12.4423 9.69782L12.4851 13.2592C12.4851 13.6453 12.2706 13.9457 11.9703 13.9457H9.4816C9.18124 13.9457 8.96673 13.6883 8.96673 13.3021Z" fill="white"/>
<path fill-rule="evenodd" clip-rule="evenodd" d="M13.3437 13.2596L13.3008 9.69823C13.3008 9.31206 13.5153 9.01172 13.8157 9.01172H16.3043C16.6047 9.01172 16.8192 9.31207 16.8192 9.65534L16.8622 13.2167C16.8622 13.6029 16.6476 13.9032 16.3472 13.9032H13.8586C13.5582 13.9461 13.3437 13.6458 13.3437 13.2596Z" fill="white"/>
<path fill-rule="evenodd" clip-rule="evenodd" d="M17.6347 25.0599L17.5918 21.4985C17.5918 21.1124 17.8063 20.812 18.1067 20.812H20.5953C20.8957 20.812 21.1102 21.1124 21.1102 21.4556L21.1532 25.017C21.1532 25.4031 20.9386 25.7035 20.6382 25.7035H18.1496C17.8493 25.7035 17.6347 25.4031 17.6347 25.0599Z" fill="white"/>
<path fill-rule="evenodd" clip-rule="evenodd" d="M17.5917 19.224L17.5488 15.6626C17.5488 15.2764 17.7633 14.9761 18.0637 14.9761H20.5524C20.8527 14.9761 21.0673 15.2764 21.0673 15.6197L21.1101 19.181C21.1101 19.5672 20.8956 19.8676 20.5953 19.8676H18.1066C17.8062 19.9105 17.5917 19.6101 17.5917 19.224Z" fill="white"/>
<path fill-rule="evenodd" clip-rule="evenodd" d="M17.5488 13.2596L17.5059 9.69823C17.5059 9.31206 17.7204 9.01172 18.0207 9.01172H20.5094C20.8098 9.01172 21.0243 9.31207 21.0243 9.65534L21.0672 13.2167C21.0672 13.6029 20.8527 13.9032 20.5523 13.9032H18.0636C17.7633 13.9032 17.5488 13.6028 17.5488 13.2596Z" fill="white"/>
<path d="M19.6826 22.8336L14.6777 28.603L15.2612 29.1092L20.2661 23.3397L19.6826 22.8336Z" fill="white"/>
<path d="M19.1783 11.8649L14.1719 17.6328L14.7551 18.1391L19.7616 12.3711L19.1783 11.8649Z" fill="white"/>
<path d="M29.9492 0.772098C30.8932 0.600467 32.0517 0.514648 33.296 0.514648C35.4414 0.514648 36.9432 0.94373 38.0159 1.84479C39.1315 2.74586 39.818 4.11891 39.818 6.09267C39.818 8.15225 39.1315 9.69692 38.0159 10.6838C36.8574 11.7136 35.0123 12.2714 32.7811 12.2714C31.5368 12.2714 30.6357 12.1856 29.9492 12.0998V0.772098ZM32.0517 10.5551C32.352 10.598 32.7811 10.598 33.2102 10.598C35.9563 10.598 37.5868 9.09621 37.5868 6.17848C37.5868 3.60401 36.1279 2.14514 33.4676 2.14514C32.7811 2.14514 32.3091 2.18806 32.0088 2.27387V10.5551H32.0517Z" fill="white"/>
<path d="M43.0792 8.58182C43.1221 10.0836 44.3235 10.7272 45.6537 10.7272C46.6406 10.7272 47.3271 10.5985 47.9707 10.341L48.271 11.7999C47.5416 12.1003 46.5547 12.3148 45.3533 12.3148C42.6501 12.3148 41.0625 10.6414 41.0625 8.10982C41.0625 5.79279 42.4785 3.60449 45.1387 3.60449C47.8419 3.60449 48.743 5.8357 48.743 7.68074C48.743 8.06691 48.7001 8.36728 48.6572 8.58182H43.0792ZM46.7693 7.12294C46.7693 6.3506 46.426 5.06337 45.053 5.06337C43.7657 5.06337 43.2079 6.26478 43.1221 7.12294H46.7693Z" fill="white"/>
<path d="M51.7468 3.81934L53.1199 8.06722C53.3773 8.79666 53.5489 9.48317 53.6777 10.1697H53.7206C53.8922 9.48317 54.0638 8.83956 54.2784 8.06722L55.6085 3.81934H57.8398L54.6646 12.1864H52.605L49.5156 3.81934H51.7468Z" fill="white"/>
<path d="M60.3702 8.58182C60.4131 10.0836 61.6145 10.7272 62.9446 10.7272C63.9315 10.7272 64.6181 10.5985 65.2617 10.341L65.5621 11.7999C64.8326 12.1003 63.8457 12.3148 62.6443 12.3148C59.9411 12.3148 58.3535 10.6414 58.3535 8.10982C58.3535 5.79279 59.7695 3.60449 62.4298 3.60449C65.133 3.60449 66.034 5.8357 66.034 7.68074C66.034 8.06691 65.9911 8.36728 65.9482 8.58182H60.3702ZM64.0603 7.12294C64.0603 6.3506 63.717 5.06337 62.344 5.06337C61.0567 5.06337 60.4989 6.26478 60.4131 7.12294H64.0603Z" fill="white"/>
<path d="M67.75 0H69.8954V12.1858H67.75V0Z" fill="white"/>
<path d="M80.109 7.89561C80.109 10.985 77.9636 12.358 75.8182 12.358C73.4583 12.358 71.6133 10.7275 71.6133 8.06726C71.6133 5.32115 73.4154 3.64774 75.947 3.64774C78.4356 3.60483 80.109 5.36405 80.109 7.89561ZM73.8016 7.98144C73.8016 9.61193 74.5739 10.8133 75.8612 10.8133C77.0626 10.8133 77.9207 9.61194 77.9207 7.93854C77.9207 6.6513 77.32 5.14952 75.9041 5.14952C74.4023 5.14952 73.8016 6.60838 73.8016 7.98144Z" fill="white"/>
<path d="M81.8241 6.60761C81.8241 5.49201 81.7812 4.63385 81.7383 3.8186H83.5833L83.6691 5.10584H83.712C84.3127 4.16186 85.2997 3.64697 86.5869 3.64697C88.5177 3.64697 90.1053 5.27747 90.1053 7.89485C90.1053 10.8984 88.2174 12.3573 86.2865 12.3573C85.2567 12.3573 84.3556 11.9282 83.9266 11.2417H83.8837V15.5754H81.7812V6.60761H81.8241ZM83.9695 8.66718C83.9695 8.88172 83.9695 9.05336 84.0553 9.2679C84.2699 10.1261 84.9993 10.7268 85.9003 10.7268C87.2305 10.7268 88.0457 9.61117 88.0457 7.98067C88.0457 6.5218 87.3163 5.32038 85.9862 5.32038C85.128 5.32038 84.3128 5.96401 84.0982 6.86507C84.0553 7.03671 84.0124 7.20832 84.0124 7.37995V8.66718H83.9695Z" fill="white"/>
<path d="M91.8651 6.30725C91.8651 5.36328 91.8651 4.54803 91.7793 3.8186H93.5814L93.6673 5.06294H93.7102C94.1392 4.41932 94.8687 3.64697 96.2846 3.64697C97.4002 3.64697 98.2584 4.24769 98.6017 5.19166H98.6446C98.9449 4.71967 99.2882 4.37641 99.6744 4.16187C100.146 3.81861 100.661 3.64697 101.348 3.64697C102.721 3.64697 104.137 4.59094 104.137 7.25123V12.1856H102.077V7.55159C102.077 6.17854 101.605 5.32038 100.575 5.32038C99.846 5.32038 99.3311 5.83529 99.1165 6.436C99.0736 6.65054 99.0307 6.90797 99.0307 7.12251V12.1427H96.9711V7.29415C96.9711 6.13564 96.4991 5.32038 95.5123 5.32038C94.7399 5.32038 94.1821 5.92108 94.0105 6.52179C93.9247 6.73633 93.8818 6.95088 93.8818 7.20833V12.1427H91.8222V6.30725H91.8651Z" fill="white"/>
<path d="M107.913 8.58182C107.956 10.0836 109.157 10.7272 110.488 10.7272C111.474 10.7272 112.161 10.5985 112.805 10.341L113.105 11.7999C112.376 12.1003 111.389 12.3148 110.187 12.3148C107.484 12.3148 105.896 10.6414 105.896 8.10982C105.896 5.79279 107.312 3.60449 109.973 3.60449C112.676 3.60449 113.577 5.8357 113.577 7.68074C113.577 8.06691 113.534 8.36728 113.491 8.58182H107.913ZM111.603 7.12294C111.603 6.3506 111.26 5.06337 109.887 5.06337C108.6 5.06337 108.042 6.26478 107.956 7.12294H111.603Z" fill="white"/>
<path d="M115.293 6.30768C115.293 5.36371 115.293 4.54846 115.207 3.81903H117.052L117.138 5.06337H117.181C117.524 4.41975 118.468 3.60449 119.841 3.60449C121.3 3.60449 122.802 4.54848 122.802 7.20876V12.1861H120.699V7.4662C120.699 6.26478 120.27 5.36372 119.112 5.36372C118.253 5.36372 117.696 5.96442 117.481 6.60804C117.395 6.77967 117.395 7.03714 117.395 7.29458V12.1861H115.25V6.30768H115.293Z" fill="white"/>
<path d="M127.435 1.41602V3.81884H129.451V5.40644H127.435V9.0965C127.435 10.1263 127.692 10.6412 128.508 10.6412C128.851 10.6412 129.151 10.5983 129.323 10.5554L129.366 12.1859C129.065 12.3146 128.508 12.4004 127.821 12.4004C127.049 12.4004 126.405 12.143 126.019 11.7139C125.59 11.2419 125.375 10.4696 125.375 9.39686V5.40644H124.174V3.81884H125.375V1.9309L127.435 1.41602Z" fill="white"/>
</svg>
