<svg width="132" height="52" viewBox="0 0 132 52" fill="none" xmlns="http://www.w3.org/2000/svg">
<path d="M43.9598 32.4141C42.3755 33.9557 40.3201 34.6836 38.1363 34.6836C32.4412 34.6836 30.0005 30.7442 30.0005 26.7619C29.9577 22.7369 32.6125 18.6689 38.1363 18.6689C40.2345 18.6689 42.2042 19.4397 43.7885 21.024L41.8616 22.9081C40.8339 21.9233 39.5065 21.4522 38.1363 21.4522C34.411 21.4522 32.8266 24.2355 32.8266 26.8047C32.8694 29.3311 34.3253 32.0288 38.1363 32.0288C39.4637 32.0288 41.0052 31.4721 41.9901 30.4872L43.9598 32.4141Z" fill="#045F87"/>
<path d="M58.8615 19.0117V27.8326C58.8615 32.3716 56.0782 34.6838 52.2244 34.6838C48.5419 34.6838 45.416 32.4572 45.416 27.8326V19.0117H48.2849V27.8326C48.2849 30.6159 49.8693 32.0718 52.2672 32.0718C54.6651 32.0718 56.0354 30.4875 56.0354 27.8326V19.0117H58.8615Z" fill="#045F87"/>
<path d="M75.3043 34.3411H71.8787L67.3826 29.2027H64.5993V34.3411H61.6875V18.9688C64.1282 18.9688 66.569 19.0116 69.0097 19.0116C72.6494 19.0544 74.5335 21.4523 74.5335 24.1071C74.5335 26.2053 73.5486 28.3463 70.6369 28.9458L75.3043 34.2126V34.3411ZM64.5993 21.7092V26.6335H69.0097C70.851 26.6335 71.6646 25.3917 71.6646 24.1928C71.6646 22.9938 70.851 21.752 69.0097 21.752H64.5993V21.7092Z" fill="#045F87"/>
<path d="M87.4214 31.4723H79.3713L78.0438 34.3841H74.918L81.812 19.0117H84.9807L91.8747 34.3841H88.706L87.4214 31.4723ZM83.3963 22.2232L80.5274 28.7747H86.2224L83.3963 22.2232Z" fill="#045F87"/>
<path d="M94.6588 21.6236H89.7773V18.9688C94.2306 18.9688 97.956 18.9688 102.409 18.9688V21.6236H97.5277V34.3411H94.616V21.6236H94.6588Z" fill="#045F87"/>
<path d="M115.64 34.3411H104.121C104.121 29.2455 104.121 24.1071 104.121 18.9688H115.64V21.7949H107.033V25.3489H115.34V28.0466H107.033V31.515H115.64V34.3411Z" fill="#045F87"/>
<path d="M131.398 26.548C131.483 30.4447 129.085 34.3841 123.733 34.3841C121.849 34.3841 119.579 34.3841 117.695 34.3841V19.0117C119.579 19.0117 121.849 19.0117 123.733 19.0117C128.957 19.0117 131.312 22.7371 131.398 26.548ZM120.521 31.558H123.69C127.201 31.558 128.572 29.0316 128.486 26.5052C128.4 24.1073 127.03 21.7094 123.69 21.7094H120.521V31.558Z" fill="#045F87"/>
<path d="M30.5566 0.769618C31.4987 0.598338 32.6548 0.512695 33.8966 0.512695C36.0376 0.512695 37.5363 0.940897 38.6068 1.84012C39.7201 2.73933 40.4052 4.10957 40.4052 6.07929C40.4052 8.13464 39.7201 9.67615 38.6068 10.661C37.4506 11.6887 35.6094 12.2454 33.3827 12.2454C32.141 12.2454 31.2418 12.1597 30.5566 12.0741V0.769618ZM32.6548 10.5326C32.9545 10.5754 33.3827 10.5754 33.8109 10.5754C36.5514 10.5754 38.1786 9.07668 38.1786 6.16492C38.1786 3.59572 36.7227 2.13985 34.0679 2.13985C33.3827 2.13985 32.9117 2.18268 32.612 2.26832V10.5326H32.6548Z" fill="#B635F9"/>
<path d="M43.6591 8.5643C43.7019 10.063 44.9008 10.7053 46.2282 10.7053C47.2131 10.7053 47.8982 10.5768 48.5405 10.3199L48.8403 11.7758C48.1123 12.0755 47.1274 12.2896 45.9285 12.2896C43.2308 12.2896 41.6465 10.6196 41.6465 8.09326C41.6465 5.78098 43.0595 3.59717 45.7144 3.59717C48.412 3.59717 49.3113 5.8238 49.3113 7.66506C49.3113 8.05044 49.2685 8.3502 49.2256 8.5643H43.6591ZM47.3416 7.10841C47.3416 6.33765 46.999 5.05306 45.6288 5.05306C44.3442 5.05306 43.7875 6.25201 43.7019 7.10841H47.3416Z" fill="#B635F9"/>
<path d="M52.3086 3.81104L53.6789 8.05022C53.9358 8.77816 54.1071 9.46326 54.2355 10.1484H54.2784C54.4496 9.46326 54.6209 8.82098 54.835 8.05022L56.1624 3.81104H58.3891L55.2204 12.1609H53.165L50.082 3.81104H52.3086Z" fill="#B635F9"/>
<path d="M60.9168 8.5643C60.9596 10.063 62.1586 10.7053 63.486 10.7053C64.4709 10.7053 65.156 10.5768 65.7983 10.3199L66.0981 11.7758C65.3701 12.0755 64.3852 12.2896 63.1863 12.2896C60.4886 12.2896 58.9043 10.6196 58.9043 8.09326C58.9043 5.78098 60.3174 3.59717 62.9722 3.59717C65.6698 3.59717 66.5691 5.8238 66.5691 7.66506C66.5691 8.05044 66.5262 8.3502 66.4834 8.5643H60.9168ZM64.5994 7.10841C64.5994 6.33765 64.2568 5.05306 62.8866 5.05306C61.602 5.05306 61.0453 6.25201 60.9597 7.10841H64.5994Z" fill="#B635F9"/>
<path d="M68.2812 0H70.4222V12.1609H68.2812V0Z" fill="#B635F9"/>
<path d="M80.6131 7.87861C80.6131 10.9616 78.4721 12.3319 76.3311 12.3319C73.976 12.3319 72.1348 10.7047 72.1348 8.0499C72.1348 5.30942 73.9332 3.63944 76.4596 3.63944C78.9431 3.59662 80.6131 5.35223 80.6131 7.87861ZM74.3186 7.96425C74.3186 9.59141 75.0894 10.7904 76.374 10.7904C77.5729 10.7904 78.4293 9.59142 78.4293 7.92145C78.4293 6.63685 77.8298 5.13814 76.4168 5.13814C74.9181 5.13814 74.3186 6.59402 74.3186 7.96425Z" fill="#B635F9"/>
<path d="M82.3259 6.59471C82.3259 5.48139 82.2831 4.62499 82.2402 3.81141H84.0815L84.1671 5.09601H84.2099C84.8094 4.15397 85.7943 3.64014 87.0789 3.64014C89.0058 3.64014 90.5901 5.26729 90.5901 7.87931C90.5901 10.8767 88.706 12.3326 86.7791 12.3326C85.7515 12.3326 84.8522 11.9044 84.424 11.2193H84.3812V15.5441H82.283V6.59471H82.3259ZM84.4669 8.65006C84.4669 8.86416 84.4669 9.03545 84.5525 9.24955C84.7666 10.1059 85.4945 10.7054 86.3937 10.7054C87.7212 10.7054 88.5347 9.59211 88.5347 7.96495C88.5347 6.50908 87.8068 5.31011 86.4794 5.31011C85.623 5.31011 84.8094 5.95243 84.5953 6.85165C84.5525 7.02292 84.5097 7.19418 84.5097 7.36546V8.65006H84.4669Z" fill="#B635F9"/>
<path d="M92.3454 6.29497C92.3454 5.35293 92.3454 4.53935 92.2598 3.81141H94.0582L94.1439 5.0532H94.1867C94.6149 4.4109 95.3428 3.64014 96.7559 3.64014C97.8692 3.64014 98.7256 4.23962 99.0681 5.18166H99.111C99.4107 4.71064 99.7533 4.36808 100.139 4.15398C100.61 3.81142 101.123 3.64014 101.809 3.64014C103.179 3.64014 104.592 4.58217 104.592 7.23701V12.1613H102.537V7.53675C102.537 6.16652 102.066 5.31011 101.038 5.31011C100.31 5.31011 99.7961 5.82397 99.582 6.42345C99.5391 6.63755 99.4963 6.89445 99.4963 7.10855V12.1185H97.441V7.27984C97.441 6.12371 96.9699 5.31011 95.9851 5.31011C95.2143 5.31011 94.6577 5.90959 94.4864 6.50906C94.4007 6.72316 94.358 6.93728 94.358 7.1942V12.1185H92.3026V6.29497H92.3454Z" fill="#B635F9"/>
<path d="M108.36 8.56381C108.403 10.0625 109.602 10.7048 110.929 10.7048C111.914 10.7048 112.599 10.5763 113.242 10.3194L113.541 11.7753C112.813 12.075 111.829 12.2891 110.63 12.2891C107.932 12.2891 106.348 10.6191 106.348 8.09277C106.348 5.7805 107.761 3.59668 110.416 3.59668C113.113 3.59668 114.012 5.82332 114.012 7.66457C114.012 8.04995 113.97 8.34971 113.927 8.56381H108.36ZM112.043 7.10792C112.043 6.33716 111.7 5.05257 110.33 5.05257C109.045 5.05257 108.489 6.25152 108.403 7.10792H112.043Z" fill="#B635F9"/>
<path d="M115.726 6.29433C115.726 5.35229 115.726 4.53872 115.641 3.81078H117.482L117.568 5.05257H117.61C117.953 4.41027 118.895 3.59668 120.265 3.59668C121.721 3.59668 123.22 4.53873 123.22 7.19356V12.1607H121.122V7.45047C121.122 6.25152 120.693 5.3523 119.537 5.3523C118.681 5.3523 118.124 5.95178 117.91 6.59408C117.824 6.76536 117.824 7.02229 117.824 7.27921V12.1607H115.683V6.29433H115.726Z" fill="#B635F9"/>
<path d="M127.842 1.41309V3.81099H129.855V5.39533H127.842V9.07784C127.842 10.1055 128.099 10.6194 128.913 10.6194C129.255 10.6194 129.555 10.5765 129.726 10.5337L129.769 12.1609C129.469 12.2893 128.913 12.375 128.228 12.375C127.457 12.375 126.814 12.1181 126.429 11.6899C126.001 11.2189 125.787 10.4481 125.787 9.37758V5.39533H124.588V3.81099H125.787V1.92692L127.842 1.41309Z" fill="#B635F9"/>
<path d="M7 24L10 27L20 17" stroke="#B635F9" stroke-width="2" stroke-linecap="round" stroke-linejoin="round"/>
<path d="M19 25V32C19 32.5304 18.7893 33.0391 18.4142 33.4142C18.0391 33.7893 17.5304 34 17 34H3C2.46957 34 1.96086 33.7893 1.58579 33.4142C1.21071 33.0391 1 32.5304 1 32V18C1 17.4696 1.21071 16.9609 1.58579 16.5858C1.96086 16.2107 2.46957 16 3 16H14" stroke="#045F87" stroke-width="2" stroke-linecap="round" stroke-linejoin="round"/>
<path d="M32.4121 45.0303H32.9004C33.3789 45.0303 33.7321 44.9505 33.96 44.791C34.1878 44.6315 34.3018 44.3809 34.3018 44.0391C34.3018 43.7005 34.1846 43.4596 33.9502 43.3164C33.7191 43.1732 33.3594 43.1016 32.8711 43.1016H32.4121V45.0303ZM32.4121 46.2607V49H30.8984V41.8613H32.9785C33.9486 41.8613 34.6663 42.0387 35.1318 42.3936C35.5973 42.7451 35.8301 43.2806 35.8301 44C35.8301 44.4199 35.7145 44.7943 35.4834 45.123C35.2523 45.4486 34.9251 45.7041 34.502 45.8896C35.5762 47.4945 36.276 48.5312 36.6016 49H34.9219L33.2178 46.2607H32.4121ZM41.6113 49H37.5V41.8613H41.6113V43.1016H39.0137V44.6689H41.4307V45.9092H39.0137V47.75H41.6113V49ZM49.585 45.4209C49.585 46.2607 49.4352 46.9655 49.1357 47.5352C48.8395 48.1016 48.4033 48.5166 47.8271 48.7803L49.5459 50.6992H47.6074L46.2988 49.0977H46.1865C45.0928 49.0977 44.2529 48.7803 43.667 48.1455C43.0811 47.5107 42.7881 46.5993 42.7881 45.4111C42.7881 44.223 43.0811 43.3164 43.667 42.6914C44.2562 42.0632 45.0993 41.749 46.1963 41.749C47.2933 41.749 48.1315 42.0648 48.7109 42.6963C49.2936 43.3278 49.585 44.236 49.585 45.4209ZM44.375 45.4209C44.375 46.2184 44.5264 46.819 44.8291 47.2227C45.1318 47.6263 45.5843 47.8281 46.1865 47.8281C47.3942 47.8281 47.998 47.0257 47.998 45.4209C47.998 43.8128 47.3975 43.0088 46.1963 43.0088C45.5941 43.0088 45.14 43.2122 44.834 43.6191C44.528 44.0228 44.375 44.6234 44.375 45.4209ZM56.875 41.8613V46.4805C56.875 47.0078 56.7562 47.4701 56.5186 47.8672C56.2842 48.2643 55.944 48.5687 55.498 48.7803C55.0521 48.9919 54.5247 49.0977 53.916 49.0977C52.998 49.0977 52.2852 48.8633 51.7773 48.3945C51.2695 47.9225 51.0156 47.278 51.0156 46.4609V41.8613H52.5244V46.2314C52.5244 46.7816 52.6351 47.1852 52.8564 47.4424C53.0778 47.6995 53.444 47.8281 53.9551 47.8281C54.4499 47.8281 54.8079 47.6995 55.0293 47.4424C55.2539 47.182 55.3662 46.7751 55.3662 46.2217V41.8613H56.875ZM62.7344 49H58.623V41.8613H62.7344V43.1016H60.1367V44.6689H62.5537V45.9092H60.1367V47.75H62.7344V49ZM68.4424 47.0176C68.4424 47.6621 68.2096 48.1699 67.7441 48.541C67.2819 48.9121 66.6374 49.0977 65.8105 49.0977C65.0488 49.0977 64.375 48.9544 63.7891 48.668V47.2617C64.2708 47.4766 64.6777 47.6279 65.0098 47.7158C65.3451 47.8037 65.651 47.8477 65.9277 47.8477C66.2598 47.8477 66.5137 47.7842 66.6895 47.6572C66.8685 47.5303 66.958 47.3415 66.958 47.0908C66.958 46.9508 66.9189 46.8271 66.8408 46.7197C66.7627 46.609 66.6471 46.5033 66.4941 46.4023C66.3444 46.3014 66.0368 46.1403 65.5713 45.9189C65.1351 45.7139 64.8079 45.5169 64.5898 45.3281C64.3717 45.1393 64.1976 44.9196 64.0674 44.6689C63.9372 44.4183 63.8721 44.1253 63.8721 43.79C63.8721 43.1585 64.0853 42.6621 64.5117 42.3008C64.9414 41.9395 65.5339 41.7588 66.2891 41.7588C66.6602 41.7588 67.0133 41.8027 67.3486 41.8906C67.6872 41.9785 68.0404 42.1022 68.4082 42.2617L67.9199 43.4385C67.5391 43.2822 67.2233 43.1732 66.9727 43.1113C66.7253 43.0495 66.4811 43.0186 66.2402 43.0186C65.9538 43.0186 65.734 43.0853 65.5811 43.2188C65.4281 43.3522 65.3516 43.5264 65.3516 43.7412C65.3516 43.8747 65.3825 43.9919 65.4443 44.0928C65.5062 44.1904 65.6038 44.2865 65.7373 44.3809C65.874 44.472 66.1947 44.638 66.6992 44.8789C67.3665 45.1979 67.8239 45.5186 68.0713 45.8408C68.3187 46.1598 68.4424 46.5521 68.4424 47.0176ZM72.4902 49H70.9766V43.1211H69.0381V41.8613H74.4287V43.1211H72.4902V49ZM79.6387 49H75.5273V41.8613H79.6387V43.1016H77.041V44.6689H79.458V45.9092H77.041V47.75H79.6387V49ZM87.0557 45.3623C87.0557 46.5374 86.7204 47.4375 86.0498 48.0625C85.3825 48.6875 84.4173 49 83.1543 49H81.1328V41.8613H83.374C84.5394 41.8613 85.4443 42.1689 86.0889 42.7842C86.7334 43.3994 87.0557 44.2588 87.0557 45.3623ZM85.4834 45.4014C85.4834 43.8682 84.8063 43.1016 83.4521 43.1016H82.6465V47.75H83.2959C84.7542 47.75 85.4834 46.9671 85.4834 45.4014Z" fill="#045F87"/>
</svg>
