<svg width="126" height="30" viewBox="0 0 126 30" fill="none" xmlns="http://www.w3.org/2000/svg">
<path d="M41.7652 26.8254C40.2382 28.3111 38.2572 29.0127 36.1524 29.0127C30.6635 29.0127 28.311 25.2159 28.311 21.3777C28.2698 17.4983 30.7873 13.5776 36.1524 13.5776C38.1747 13.5776 40.0731 14.3205 41.6001 15.8475L39.7429 17.6634C38.7524 16.7142 37.4731 16.2602 36.1524 16.2602C32.5619 16.2602 31.0349 18.9428 31.0349 21.419C31.0762 23.8539 32.4793 26.454 36.1524 26.454C37.4318 26.454 38.9175 25.9175 39.8667 24.9682L41.7652 26.8254Z" fill="#CBCBCB"/>
<path d="M56.0858 13.9082V22.4099C56.0858 26.7846 53.4033 29.0132 49.6889 29.0132C46.1397 29.0132 43.127 26.8671 43.127 22.4099V13.9082H45.8921V22.4099C45.8921 25.0925 47.4191 26.4957 49.7302 26.4957C52.0413 26.4957 53.362 24.9687 53.362 22.4099V13.9082H56.0858Z" fill="#CBCBCB"/>
<path d="M71.9755 28.6827H68.6739L64.3405 23.7303H61.6579V28.6827H58.8516V13.8667C61.204 13.8667 63.5564 13.908 65.9088 13.908C69.4168 13.9492 71.2327 16.2604 71.2327 18.8191C71.2327 20.8414 70.2834 22.9049 67.4771 23.4827L71.9755 28.5589V28.6827ZM61.6579 16.4667V21.2128H65.9088C67.6834 21.2128 68.4675 20.016 68.4675 18.8604C68.4675 17.7048 67.6834 16.508 65.9088 16.508H61.6579V16.4667Z" fill="#CBCBCB"/>
<path d="M83.6115 25.9179H75.8527L74.5733 28.7243H71.5605L78.2051 13.9082H81.2591L87.9036 28.7243H84.8496L83.6115 25.9179ZM79.7733 17.0035L77.0082 23.3178H82.4972L79.7733 17.0035Z" fill="#CBCBCB"/>
<path d="M90.5876 16.4255H85.8828V13.8667C90.1749 13.8667 93.7654 13.8667 98.0576 13.8667V16.4255H93.3527V28.6827H90.5464V16.4255H90.5876Z" fill="#CBCBCB"/>
<path d="M110.809 28.6827H99.707C99.707 23.7716 99.707 18.8191 99.707 13.8667H110.809V16.5905H102.513V20.016H110.52V22.616H102.513V25.9589H110.809V28.6827Z" fill="#CBCBCB"/>
<path d="M125.998 21.1712C126.08 24.9268 123.769 28.7236 118.61 28.7236C116.794 28.7236 114.607 28.7236 112.791 28.7236V13.9076C114.607 13.9076 116.794 13.9076 118.61 13.9076C123.686 13.8663 125.956 17.4981 125.998 21.1712ZM115.556 25.9998H118.61C121.994 25.9998 123.315 23.5648 123.232 21.1299C123.15 18.8187 121.829 16.5076 118.61 16.5076H115.556V25.9998Z" fill="#CBCBCB"/>
<path fill-rule="evenodd" clip-rule="evenodd" d="M0.0412703 14.1971L0 10.7717C0 10.4002 0.206352 10.1113 0.495244 10.1113H2.88892C3.17781 10.1113 3.38417 10.4002 3.38417 10.7304L3.42544 14.1558C3.42544 14.5273 3.21908 14.8162 2.93019 14.8162H0.536514C0.288892 14.8162 0.0825406 14.5273 0.0412703 14.1971Z" fill="#CBCBCB"/>
<path fill-rule="evenodd" clip-rule="evenodd" d="M0.0412703 20.8001L0 17.3747C0 17.0033 0.206352 16.7144 0.495244 16.7144H2.88892C3.17781 16.7144 3.38417 17.0032 3.38417 17.3334L3.42544 20.7589C3.42544 21.1303 3.21908 21.4192 2.93019 21.4192H0.536514C0.288892 21.4192 0.0825406 21.1716 0.0412703 20.8001Z" fill="#CBCBCB"/>
<path fill-rule="evenodd" clip-rule="evenodd" d="M4.45729 14.1556L4.41602 10.7301C4.41602 10.3587 4.62237 10.0698 4.91126 10.0698H7.30494C7.59383 10.0698 7.80018 10.3587 7.80018 10.6889L7.84145 14.1143C7.84145 14.4857 7.6351 14.7747 7.34621 14.7747H4.95253C4.70491 14.8159 4.45729 14.527 4.45729 14.1556Z" fill="#CBCBCB"/>
<path fill-rule="evenodd" clip-rule="evenodd" d="M8.7483 25.2987L8.70703 21.8732C8.70703 21.5018 8.91338 21.2129 9.20228 21.2129H11.596C11.8848 21.2129 12.0912 21.5018 12.0912 21.8319L12.1325 25.2574C12.1325 25.6288 11.9261 25.9177 11.6372 25.9177H9.24355C8.99592 25.959 8.7483 25.6701 8.7483 25.2987Z" fill="#CBCBCB"/>
<path fill-rule="evenodd" clip-rule="evenodd" d="M8.70729 19.7274L8.66602 16.3019C8.66602 15.9305 8.87237 15.6416 9.16126 15.6416H11.5549C11.8438 15.6416 12.0502 15.9305 12.0502 16.2607L12.0915 19.6861C12.0915 20.0575 11.8851 20.3464 11.5962 20.3464H9.20253C8.95491 20.3464 8.70729 20.0575 8.70729 19.7274Z" fill="#CBCBCB"/>
<path fill-rule="evenodd" clip-rule="evenodd" d="M8.66627 14.1146L8.625 10.6891C8.625 10.3177 8.83135 10.0288 9.12024 10.0288H11.5139C11.8028 10.0288 12.0092 10.3177 12.0092 10.6479L12.0504 14.0733C12.0504 14.4447 11.8441 14.7336 11.5552 14.7336H9.16151C8.91389 14.7749 8.66627 14.486 8.66627 14.1146Z" fill="#CBCBCB"/>
<path fill-rule="evenodd" clip-rule="evenodd" d="M12.9592 25.2987L12.918 21.8732C12.918 21.5018 13.1243 21.2129 13.4132 21.2129H15.8069C16.0958 21.2129 16.3021 21.5018 16.3021 21.8319L16.3434 25.2574C16.3434 25.6288 16.1371 25.9177 15.8482 25.9177H13.4545C13.2069 25.9177 12.9592 25.6288 12.9592 25.2987Z" fill="#CBCBCB"/>
<path fill-rule="evenodd" clip-rule="evenodd" d="M12.9182 19.6858L12.877 16.2604C12.877 15.889 13.0833 15.6001 13.3722 15.6001H15.7659C16.0548 15.6001 16.2611 15.889 16.2611 16.2192L16.3024 19.6446C16.3024 20.016 16.096 20.3049 15.8071 20.3049H13.4135C13.1658 20.3462 12.9182 20.0573 12.9182 19.6858Z" fill="#CBCBCB"/>
<path fill-rule="evenodd" clip-rule="evenodd" d="M12.8753 14.1146L12.834 10.6891C12.834 10.3177 13.0403 10.0288 13.3292 10.0288H15.7229C16.0118 10.0288 16.2182 10.3177 16.2182 10.6479L16.2594 14.0733C16.2594 14.4447 16.0531 14.7336 15.7642 14.7336H13.3705C13.1229 14.7336 12.8753 14.4447 12.8753 14.1146Z" fill="#CBCBCB"/>
<path fill-rule="evenodd" clip-rule="evenodd" d="M4.16822 8.41878L4.12695 4.99335C4.12695 4.62192 4.33331 4.33301 4.6222 4.33301H7.01588C7.30477 4.33301 7.51112 4.6219 7.51112 4.95206L7.55239 8.37752C7.55239 8.74895 7.34604 9.03783 7.05715 9.03783H4.66347C4.37458 9.0791 4.16822 8.79021 4.16822 8.41878Z" fill="#CBCBCB"/>
<path fill-rule="evenodd" clip-rule="evenodd" d="M8.62525 8.37776L8.58398 4.95231C8.58398 4.58087 8.79034 4.29199 9.07923 4.29199H11.4729C11.7618 4.29199 11.9682 4.58088 11.9682 4.91105L12.0094 8.33648C12.0094 8.70791 11.8031 8.99682 11.5142 8.99682H9.1205C8.87288 8.99682 8.62525 8.70793 8.62525 8.37776Z" fill="#CBCBCB"/>
<path fill-rule="evenodd" clip-rule="evenodd" d="M12.8342 8.33623L12.793 4.9108C12.793 4.53937 12.9993 4.25049 13.2882 4.25049H15.6819C15.9708 4.25049 16.1771 4.53938 16.1771 4.86954L16.2184 8.29497C16.2184 8.66641 16.0121 8.95529 15.7232 8.95529H13.3295C13.0819 8.99656 12.8342 8.70767 12.8342 8.33623Z" fill="#CBCBCB"/>
<path fill-rule="evenodd" clip-rule="evenodd" d="M16.9631 19.6449L16.9219 16.2194C16.9219 15.848 17.1282 15.5591 17.4171 15.5591H19.8108C20.0997 15.5591 20.306 15.848 20.306 16.1781L20.3473 19.6036C20.3473 19.975 20.141 20.2639 19.8521 20.2639H17.4584C17.2108 20.3052 16.9631 20.0163 16.9631 19.6449Z" fill="#CBCBCB"/>
<path fill-rule="evenodd" clip-rule="evenodd" d="M16.9221 14.0736L16.8809 10.6481C16.8809 10.2767 17.0872 9.98779 17.3761 9.98779H19.7698C20.0587 9.98779 20.265 10.2767 20.265 10.6068L20.3063 14.0323C20.3063 14.4037 20.0999 14.6926 19.8111 14.6926H17.4174C17.1698 14.6926 16.9221 14.4037 16.9221 14.0736Z" fill="#CBCBCB"/>
<path fill-rule="evenodd" clip-rule="evenodd" d="M16.8792 8.29524L16.8379 4.86981C16.8379 4.49838 17.0442 4.20947 17.3331 4.20947H19.7268C20.0157 4.20947 20.2221 4.49836 20.2221 4.82853L20.2633 8.25396C20.2633 8.62539 20.057 8.9143 19.7681 8.9143H17.3744C17.1268 8.95557 16.8792 8.66668 16.8792 8.29524Z" fill="#CBCBCB"/>
<path d="M18.978 17.5523L14.1641 23.1016L14.7252 23.5884L19.5391 18.0391L18.978 17.5523Z" fill="#CBCBCB"/>
<path d="M18.4619 6.96784L13.6465 12.5156L14.2075 13.0026L19.0229 7.45478L18.4619 6.96784Z" fill="#CBCBCB"/>
<path d="M28.4355 0.165091C29.0133 0.0825507 29.7562 0 30.5403 0C31.9023 0 32.8102 0.288892 33.5118 0.825406C34.2134 1.40319 34.6261 2.26988 34.6261 3.46672C34.6261 4.7461 34.1721 5.73658 33.5118 6.35564C32.8102 7.01596 31.6546 7.34614 30.2514 7.34614C29.4673 7.34614 28.8895 7.30486 28.4768 7.26359V0.165091H28.4355ZM29.7562 6.27309C29.9213 6.31436 30.2102 6.31438 30.4991 6.31438C32.2324 6.31438 33.2229 5.36516 33.2229 3.54926C33.2229 1.93972 32.315 1.03176 30.6641 1.03176C30.2514 1.03176 29.9625 1.07303 29.7562 1.1143V6.27309Z" fill="#CBCBCB"/>
<path d="M37.0609 0.0410156V7.26332H35.7402V0.0410156H37.0609Z" fill="#CBCBCB"/>
<path d="M44.3653 6.93343C43.9113 7.09852 43.0034 7.34614 42.0541 7.34614C40.816 7.34614 39.9081 7.01595 39.2065 6.3969C38.5462 5.77784 38.1747 4.82864 38.216 3.75561C38.216 1.48575 39.8668 0 42.2605 0C43.1684 0 43.8288 0.165101 44.2002 0.330183L43.9113 1.4032C43.4986 1.23812 43.0446 1.07304 42.2605 1.07304C40.7335 1.07304 39.6192 1.98099 39.6192 3.67307C39.6192 5.32388 40.6097 6.27309 42.1367 6.27309C42.5907 6.27309 42.9621 6.19057 43.1272 6.10803V4.29212H41.8478V3.26037H44.4065V6.93343H44.3653Z" fill="#CBCBCB"/>
<path d="M47.0492 0.0410156V7.26332H45.7285V0.0410156H47.0492Z" fill="#CBCBCB"/>
<path d="M49.9366 1.15532H47.873V0.0410156H53.3207V1.15532H51.2572V7.26332H49.9366V1.15532Z" fill="#CBCBCB"/>
<path d="M54.8482 5.24131L54.2291 7.30483H52.8672L55.1783 0.0825195H56.8704L59.2228 7.30483H57.8196L57.1593 5.24131H54.8482ZM56.9529 4.25084L56.3752 2.47619C56.2514 2.02222 56.1275 1.52698 56.0037 1.11428H55.9625C55.8387 1.52698 55.7561 2.02222 55.6323 2.47619L55.0545 4.25084H56.9529Z" fill="#CBCBCB"/>
<path d="M60.2539 0.0410156H61.5746V6.14902H64.546V7.26332H60.2539V0.0410156Z" fill="#CBCBCB"/>
<path d="M73.8729 4.33311C73.8317 3.3839 73.7904 2.26961 73.7904 1.27913H73.7491C73.5015 2.1458 73.2126 3.13629 72.8825 4.04424L71.8507 7.18078H70.8189L69.8697 4.0855C69.5808 3.17756 69.3332 2.18707 69.1269 1.27913H69.0856C69.0443 2.22834 69.0031 3.38391 68.9618 4.3744L68.7967 7.26332H67.5586L68.0538 0.0410156H69.7872L70.7364 2.92994C70.984 3.79661 71.2316 4.62201 71.3967 5.44742H71.438C71.6444 4.66328 71.892 3.75534 72.1396 2.92994L73.1301 0.0410156H74.8634L75.2761 7.26332H73.9968L73.8729 4.33311Z" fill="#CBCBCB"/>
<path d="M78.0005 5.24131L77.3814 7.30483H76.0195L78.3307 0.0825195H80.0228L82.3752 7.30483H80.972L80.3116 5.24131H78.0005ZM80.064 4.25084L79.4862 2.47619C79.3624 2.02222 79.2386 1.52698 79.1148 1.11428H79.0735C78.9497 1.52698 78.8672 2.02222 78.7434 2.47619L78.1656 4.25084H80.064Z" fill="#CBCBCB"/>
<path d="M83.4065 0.165091C83.9018 0.0825507 84.6446 0 85.3875 0C86.4192 0 87.1208 0.165091 87.6161 0.577795C88.0288 0.907957 88.2351 1.4032 88.2351 2.02226C88.2351 2.97147 87.6161 3.59054 86.9145 3.83816V3.87942C87.4097 4.08577 87.7399 4.58103 87.905 5.28262C88.1113 6.19057 88.3177 7.01596 88.4828 7.30485H87.1208C86.997 7.0985 86.8319 6.47946 86.6256 5.61278C86.4192 4.66356 86.0891 4.37465 85.3462 4.33338H84.6859V7.30485H83.3652V0.165091H83.4065ZM84.6859 3.34291H85.47C86.378 3.34291 86.9145 2.88893 86.9145 2.14606C86.9145 1.36193 86.3367 0.990498 85.5113 0.990498C85.0986 0.990498 84.8097 1.03177 84.6859 1.07304V3.34291Z" fill="#CBCBCB"/>
<path d="M89.4746 0.0410156H90.7953V3.3839H90.8365C91.0016 3.09501 91.208 2.8474 91.373 2.59978L93.2715 0.0410156H94.9223L92.4461 3.13629L95.0874 7.30458H93.5604L91.4969 4.00296L90.8365 4.7871V7.34587H89.5159V0.0410156H89.4746Z" fill="#CBCBCB"/>
<path d="M99.7925 4.0855H97.0687V6.19028H100.123V7.26332H95.748V0.0410156H99.9576V1.11403H97.0687V2.9712H99.7925V4.0855Z" fill="#CBCBCB"/>
<path d="M102.763 1.15532H100.699V0.0410156H106.147V1.15532H104.083V7.26332H102.763V1.15532Z" fill="#CBCBCB"/>
<path d="M108.334 0.0410156V7.26332H107.014V0.0410156H108.334Z" fill="#CBCBCB"/>
<path d="M109.82 7.26332V0.0410156H111.306L113.163 3.13629C113.658 3.9617 114.071 4.78709 114.401 5.57122H114.443C114.36 4.62201 114.319 3.67279 114.319 2.5585V0.0410156H115.557V7.26332H114.195L112.297 4.0855C111.843 3.30137 111.347 2.39343 111.017 1.56802H110.976C111.017 2.51724 111.058 3.46646 111.058 4.6633V7.26332H109.82Z" fill="#CBCBCB"/>
<path d="M122.902 6.93343C122.448 7.09852 121.54 7.34614 120.591 7.34614C119.353 7.34614 118.445 7.01595 117.744 6.3969C117.083 5.77784 116.712 4.82864 116.753 3.75561C116.753 1.48575 118.404 0 120.798 0C121.706 0 122.366 0.165101 122.737 0.330183L122.448 1.4032C122.036 1.23812 121.582 1.07304 120.798 1.07304C119.271 1.07304 118.156 1.98099 118.156 3.67307C118.156 5.32388 119.147 6.27309 120.674 6.27309C121.128 6.27309 121.499 6.19057 121.664 6.10803V4.29212H120.344V3.26037H122.902V6.93343Z" fill="#CBCBCB"/>
</svg>
