<svg width="128" height="46" viewBox="0 0 128 46" fill="none" xmlns="http://www.w3.org/2000/svg">
<path d="M43.48 26.9177C41.9501 28.4063 39.9654 29.1092 37.8566 29.1092C32.3573 29.1092 30.0005 25.3052 30.0005 21.4598C29.9592 17.5731 32.4814 13.645 37.8566 13.645C39.8827 13.645 41.7847 14.3893 43.3146 15.9192L41.4539 17.7385C40.4616 16.7875 39.1798 16.3326 37.8566 16.3326C34.2593 16.3326 32.7295 19.0203 32.7295 21.5011C32.7708 23.9407 34.1767 26.5456 37.8566 26.5456C39.1384 26.5456 40.6269 26.0081 41.578 25.0571L43.48 26.9177Z" fill="#045F87"/>
<path d="M57.872 13.9756V22.4933C57.872 26.8762 55.1843 29.109 51.463 29.109C47.9071 29.109 44.8887 26.9589 44.8887 22.4933V13.9756H47.659V22.4933C47.659 25.1809 49.1889 26.5867 51.5044 26.5867C53.8198 26.5867 55.143 25.0569 55.143 22.4933V13.9756H57.872Z" fill="#045F87"/>
<path d="M73.7483 28.778H70.4404L66.0989 23.8163H63.4113V28.778H60.5996V13.9341C62.9564 13.9341 65.3133 13.9754 67.6701 13.9754C71.1847 14.0168 73.004 16.3323 73.004 18.8958C73.004 20.9219 72.053 22.9893 69.2413 23.5682L73.7483 28.654V28.778ZM63.4113 16.539V21.294H67.6701C69.4481 21.294 70.2337 20.0949 70.2337 18.9372C70.2337 17.7794 69.4481 16.5804 67.6701 16.5804H63.4113V16.539Z" fill="#045F87"/>
<path d="M85.4076 25.9664H77.6342L76.3524 28.778H73.334L79.991 13.9341H83.0508L89.7492 28.778H86.6894L85.4076 25.9664ZM81.5622 17.0352L78.7919 23.3614H84.2912L81.5622 17.0352Z" fill="#045F87"/>
<path d="M92.3953 16.4977H87.6816V13.9341C91.9818 13.9341 95.5791 13.9341 99.8793 13.9341V16.4977H95.1656V28.778H92.354V16.4977H92.3953Z" fill="#045F87"/>
<path d="M112.656 28.778H101.533C101.533 23.8576 101.533 18.8958 101.533 13.9341H112.656V16.6631H104.345V20.0949H112.366V22.6999H104.345V26.0491H112.656V28.778Z" fill="#045F87"/>
<path d="M127.872 21.2113C127.955 24.974 125.639 28.778 120.471 28.778C118.651 28.778 116.46 28.778 114.641 28.778V13.9341C116.46 13.9341 118.651 13.9341 120.471 13.9341C125.556 13.9341 127.831 17.5727 127.872 21.2113ZM117.411 26.0904H120.471C123.861 26.0904 125.184 23.6509 125.102 21.2113C125.019 18.8958 123.696 16.5804 120.471 16.5804H117.411V26.0904Z" fill="#045F87"/>
<path d="M30.125 0.16588C30.7039 0.0831844 31.4481 0.000488281 32.2337 0.000488281C33.5982 0.000488281 34.5079 0.289925 35.2108 0.827449C35.9137 1.40632 36.3272 2.27463 36.3272 3.47372C36.3272 4.75551 35.8724 5.74787 35.2108 6.36809C34.5079 7.02965 33.3501 7.36044 31.9443 7.36044C31.1587 7.36044 30.5798 7.31909 30.1663 7.27774V0.16588H30.125ZM31.4481 6.32674C31.6135 6.36809 31.903 6.36809 32.1924 6.36809C33.929 6.36809 34.9214 5.41708 34.9214 3.59777C34.9214 1.98519 34.0117 1.07554 32.3578 1.07554C31.9443 1.07554 31.6549 1.11689 31.4481 1.15823V6.32674Z" fill="#FB4250"/>
<path d="M38.7684 0.0825195V7.31843H37.4453V0.0825195H38.7684Z" fill="#FB4250"/>
<path d="M46.1269 6.98797C45.672 7.15337 44.7624 7.40145 43.8114 7.40145C42.5709 7.40145 41.6613 7.07067 40.9584 6.45045C40.2968 5.83023 39.9247 4.87922 39.966 3.80418C39.966 1.53003 41.6199 0.0415039 44.0181 0.0415039C44.9278 0.0415039 45.5893 0.206896 45.9615 0.372288L45.672 1.44734C45.2586 1.28195 44.8037 1.11655 44.0181 1.11655C42.4882 1.11655 41.3718 2.02621 41.3718 3.72148C41.3718 5.3754 42.3642 6.32641 43.8941 6.32641C44.3489 6.32641 44.721 6.24371 44.8864 6.16101V4.3417H43.6046V3.308H46.1682V6.98797H46.1269Z" fill="#FB4250"/>
<path d="M48.7743 0.0825195V7.31843H47.4512V0.0825195H48.7743Z" fill="#FB4250"/>
<path d="M51.669 1.19892H49.6016V0.0825195H55.0595V1.19892H52.9921V7.31843H51.669V1.19892Z" fill="#FB4250"/>
<path d="M56.6296 5.25102L56.0093 7.31843H54.6035L56.919 0.0825195H58.6143L60.9711 7.31843H59.5653L58.9037 5.25102H56.6296ZM58.697 4.25867L58.1181 2.48071C57.9941 2.02588 57.87 1.5297 57.746 1.11622H57.7046C57.5806 1.5297 57.4979 2.02588 57.3738 2.48071L56.795 4.25867H58.697Z" fill="#FB4250"/>
<path d="M62.0039 0.0825195H63.327V6.20203H66.3041V7.31843H62.0039V0.0825195Z" fill="#FB4250"/>
<path d="M75.6505 4.38272C75.6091 3.43171 75.5678 2.31531 75.5678 1.32296H75.5264C75.2783 2.19127 74.9889 3.18362 74.6581 4.09328L73.6244 7.23573H72.5907L71.6397 4.13463C71.3503 3.22497 71.1022 2.23262 70.8954 1.32296H70.8541C70.8127 2.27397 70.7714 3.43171 70.73 4.42406L70.5647 7.31843H69.3242L69.8204 0.0825195H71.557L72.508 2.97688C72.7561 3.84519 73.0042 4.67215 73.1696 5.49911H73.2109C73.4177 4.7135 73.6658 3.80384 73.9138 2.97688L74.9062 0.0825195H76.6428L77.0563 7.31843H75.7745L75.6505 4.38272Z" fill="#FB4250"/>
<path d="M79.7855 5.25102L79.1653 7.31843H77.8008L80.1163 0.0825195H81.8115L84.1684 7.31843H82.7625L82.101 5.25102H79.7855ZM81.8942 4.25867L81.3154 2.48071C81.1913 2.02588 81.0673 1.5297 80.9432 1.11622H80.9019C80.7778 1.5297 80.6951 2.02588 80.5711 2.48071L79.9922 4.25867H81.8942Z" fill="#FB4250"/>
<path d="M85.2012 0.165392C85.6973 0.0826961 86.4416 0 87.1859 0C88.2196 0 88.9225 0.165392 89.4187 0.578873C89.8322 0.909657 90.0389 1.40583 90.0389 2.02605C90.0389 2.97706 89.4187 3.59728 88.7158 3.84537V3.88672C89.2119 4.09346 89.5427 4.58963 89.7081 5.29255C89.9148 6.20221 90.1216 7.02917 90.287 7.3186H88.9225C88.7985 7.11186 88.6331 6.49164 88.4263 5.62333C88.2196 4.67233 87.8888 4.38289 87.1445 4.34154H86.483V7.3186H85.2012V0.165392ZM86.483 3.39054H87.2686C88.1782 3.39054 88.7158 2.93571 88.7158 2.19145C88.7158 1.40583 88.1369 1.0337 87.3099 1.0337C86.8964 1.0337 86.607 1.07505 86.483 1.1164V3.39054Z" fill="#FB4250"/>
<path d="M91.3203 0.0825195H92.6434V3.43171H92.6848C92.8502 3.14228 93.0569 2.89419 93.2223 2.6461L95.1243 0.0825195H96.7783L94.2974 3.18362L96.9436 7.35978H95.4138L93.3464 4.05193L92.6848 4.83754V7.40112H91.3617V0.0825195H91.3203Z" fill="#FB4250"/>
<path d="M101.617 4.09328H98.8876V6.20203H101.947V7.27708H97.5645V0.0825195H101.782V1.15757H98.8876V3.01823H101.617V4.09328Z" fill="#FB4250"/>
<path d="M104.593 1.19892H102.525V0.0825195H107.983V1.19892H105.916V7.31843H104.593V1.19892Z" fill="#FB4250"/>
<path d="M110.177 0.0825195V7.31843H108.854V0.0825195H110.177Z" fill="#FB4250"/>
<path d="M111.705 7.31843V0.0825195H113.194L115.054 3.18362C115.55 4.01058 115.964 4.83754 116.295 5.62316H116.336C116.253 4.67215 116.212 3.72115 116.212 2.60475V0.0825195H117.452V7.31843H116.088L114.186 4.13463C113.731 3.34901 113.235 2.43936 112.904 1.6124H112.863C112.904 2.5634 112.946 3.51441 112.946 4.7135V7.31843H111.705Z" fill="#FB4250"/>
<path d="M124.771 6.98797C124.317 7.15337 123.407 7.40145 122.456 7.40145C121.215 7.40145 120.306 7.07067 119.603 6.45045C118.941 5.83023 118.569 4.87922 118.611 3.80418C118.611 1.53003 120.264 0.0415039 122.663 0.0415039C123.572 0.0415039 124.234 0.206896 124.606 0.372288L124.317 1.44734C123.903 1.28195 123.448 1.11655 122.663 1.11655C121.133 1.11655 120.016 2.02621 120.016 3.72148C120.016 5.3754 121.009 6.32641 122.539 6.32641C122.993 6.32641 123.366 6.24371 123.531 6.16101V4.3417H122.249V3.308H124.813V6.98797H124.771Z" fill="#FB4250"/>
<path d="M7 18L10 21L20 11" stroke="#FB4250" stroke-width="2" stroke-linecap="round" stroke-linejoin="round"/>
<path d="M19 19V26C19 26.5304 18.7893 27.0391 18.4142 27.4142C18.0391 27.7893 17.5304 28 17 28H3C2.46957 28 1.96086 27.7893 1.58579 27.4142C1.21071 27.0391 1 26.5304 1 26V12C1 11.4696 1.21071 10.9609 1.58579 10.5858C1.96086 10.2107 2.46957 10 3 10H14" stroke="#045F87" stroke-width="2" stroke-linecap="round" stroke-linejoin="round"/>
<path d="M32.4121 39.0303H32.9004C33.3789 39.0303 33.7321 38.9505 33.96 38.791C34.1878 38.6315 34.3018 38.3809 34.3018 38.0391C34.3018 37.7005 34.1846 37.4596 33.9502 37.3164C33.7191 37.1732 33.3594 37.1016 32.8711 37.1016H32.4121V39.0303ZM32.4121 40.2607V43H30.8984V35.8613H32.9785C33.9486 35.8613 34.6663 36.0387 35.1318 36.3936C35.5973 36.7451 35.8301 37.2806 35.8301 38C35.8301 38.4199 35.7145 38.7943 35.4834 39.123C35.2523 39.4486 34.9251 39.7041 34.502 39.8896C35.5762 41.4945 36.276 42.5312 36.6016 43H34.9219L33.2178 40.2607H32.4121ZM41.6113 43H37.5V35.8613H41.6113V37.1016H39.0137V38.6689H41.4307V39.9092H39.0137V41.75H41.6113V43ZM49.585 39.4209C49.585 40.2607 49.4352 40.9655 49.1357 41.5352C48.8395 42.1016 48.4033 42.5166 47.8271 42.7803L49.5459 44.6992H47.6074L46.2988 43.0977H46.1865C45.0928 43.0977 44.2529 42.7803 43.667 42.1455C43.0811 41.5107 42.7881 40.5993 42.7881 39.4111C42.7881 38.223 43.0811 37.3164 43.667 36.6914C44.2562 36.0632 45.0993 35.749 46.1963 35.749C47.2933 35.749 48.1315 36.0648 48.7109 36.6963C49.2936 37.3278 49.585 38.236 49.585 39.4209ZM44.375 39.4209C44.375 40.2184 44.5264 40.819 44.8291 41.2227C45.1318 41.6263 45.5843 41.8281 46.1865 41.8281C47.3942 41.8281 47.998 41.0257 47.998 39.4209C47.998 37.8128 47.3975 37.0088 46.1963 37.0088C45.5941 37.0088 45.14 37.2122 44.834 37.6191C44.528 38.0228 44.375 38.6234 44.375 39.4209ZM56.875 35.8613V40.4805C56.875 41.0078 56.7562 41.4701 56.5186 41.8672C56.2842 42.2643 55.944 42.5687 55.498 42.7803C55.0521 42.9919 54.5247 43.0977 53.916 43.0977C52.998 43.0977 52.2852 42.8633 51.7773 42.3945C51.2695 41.9225 51.0156 41.278 51.0156 40.4609V35.8613H52.5244V40.2314C52.5244 40.7816 52.6351 41.1852 52.8564 41.4424C53.0778 41.6995 53.444 41.8281 53.9551 41.8281C54.4499 41.8281 54.8079 41.6995 55.0293 41.4424C55.2539 41.182 55.3662 40.7751 55.3662 40.2217V35.8613H56.875ZM62.7344 43H58.623V35.8613H62.7344V37.1016H60.1367V38.6689H62.5537V39.9092H60.1367V41.75H62.7344V43ZM68.4424 41.0176C68.4424 41.6621 68.2096 42.1699 67.7441 42.541C67.2819 42.9121 66.6374 43.0977 65.8105 43.0977C65.0488 43.0977 64.375 42.9544 63.7891 42.668V41.2617C64.2708 41.4766 64.6777 41.6279 65.0098 41.7158C65.3451 41.8037 65.651 41.8477 65.9277 41.8477C66.2598 41.8477 66.5137 41.7842 66.6895 41.6572C66.8685 41.5303 66.958 41.3415 66.958 41.0908C66.958 40.9508 66.9189 40.8271 66.8408 40.7197C66.7627 40.609 66.6471 40.5033 66.4941 40.4023C66.3444 40.3014 66.0368 40.1403 65.5713 39.9189C65.1351 39.7139 64.8079 39.5169 64.5898 39.3281C64.3717 39.1393 64.1976 38.9196 64.0674 38.6689C63.9372 38.4183 63.8721 38.1253 63.8721 37.79C63.8721 37.1585 64.0853 36.6621 64.5117 36.3008C64.9414 35.9395 65.5339 35.7588 66.2891 35.7588C66.6602 35.7588 67.0133 35.8027 67.3486 35.8906C67.6872 35.9785 68.0404 36.1022 68.4082 36.2617L67.9199 37.4385C67.5391 37.2822 67.2233 37.1732 66.9727 37.1113C66.7253 37.0495 66.4811 37.0186 66.2402 37.0186C65.9538 37.0186 65.734 37.0853 65.5811 37.2188C65.4281 37.3522 65.3516 37.5264 65.3516 37.7412C65.3516 37.8747 65.3825 37.9919 65.4443 38.0928C65.5062 38.1904 65.6038 38.2865 65.7373 38.3809C65.874 38.472 66.1947 38.638 66.6992 38.8789C67.3665 39.1979 67.8239 39.5186 68.0713 39.8408C68.3187 40.1598 68.4424 40.5521 68.4424 41.0176ZM72.4902 43H70.9766V37.1211H69.0381V35.8613H74.4287V37.1211H72.4902V43ZM79.6387 43H75.5273V35.8613H79.6387V37.1016H77.041V38.6689H79.458V39.9092H77.041V41.75H79.6387V43ZM87.0557 39.3623C87.0557 40.5374 86.7204 41.4375 86.0498 42.0625C85.3825 42.6875 84.4173 43 83.1543 43H81.1328V35.8613H83.374C84.5394 35.8613 85.4443 36.1689 86.0889 36.7842C86.7334 37.3994 87.0557 38.2588 87.0557 39.3623ZM85.4834 39.4014C85.4834 37.8682 84.8063 37.1016 83.4521 37.1016H82.6465V41.75H83.2959C84.7542 41.75 85.4834 40.9671 85.4834 39.4014Z" fill="#045F87"/>
</svg>
