<svg width="10" height="5" viewBox="0 0 10 5" fill="none" xmlns="http://www.w3.org/2000/svg">
<path d="M1.6 0.2C1.15817 -0.131371 0.531371 -0.0418278 0.2 0.4C-0.131371 0.841828 -0.0418278 1.46863 0.4 1.8L1.6 0.2ZM9.6 1.8C10.0418 1.46863 10.1314 0.841828 9.8 0.4C9.46863 -0.0418278 8.84183 -0.131371 8.4 0.2L9.6 1.8ZM4.82 3.865L5.42 3.065L4.82 3.865ZM5.18 3.865L4.58 3.065L5.18 3.865ZM0.4 1.8L4.22 4.665L5.42 3.065L1.6 0.2L0.4 1.8ZM5.78 4.665L9.6 1.8L8.4 0.2L4.58 3.065L5.78 4.665ZM4.22 4.665C4.68222 5.01167 5.31778 5.01167 5.78 4.665L4.58 3.065C4.82889 2.87833 5.17111 2.87833 5.42 3.065L4.22 4.665Z" fill="#FC9000"/>
</svg>
