<svg width="10" height="13" viewBox="0 0 10 13" fill="none" xmlns="http://www.w3.org/2000/svg">
<path d="M9.40312 3.31698C9.63937 3.06626 9.76937 2.73328 9.76937 2.37908C9.76937 2.02488 9.63937 1.6919 9.40312 1.44117L8.41187 0.389182C8.17562 0.138454 7.86188 0.000488281 7.52812 0.000488281C7.19438 0.000488281 6.88062 0.138455 6.645 0.388518L0 7.41883V10.3473H2.75813L9.40312 3.31698ZM7.52812 1.32709L8.52 2.37842L7.52625 3.42908L6.535 2.37775L7.52812 1.32709ZM1.25 9.02069V7.96936L5.65 3.31433L6.64125 4.36632L2.24187 9.02069H1.25ZM0 11.6739H10V13.0005H0V11.6739Z" fill="white"/>
</svg>
