<svg width="132" height="52" viewBox="0 0 132 52" fill="none" xmlns="http://www.w3.org/2000/svg">
<path d="M43.9885 33.4253C42.4009 34.97 40.3413 35.6994 38.153 35.6994C32.4463 35.6994 30.0005 31.7519 30.0005 27.7614C29.9576 23.7281 32.575 19.6519 38.153 19.6519C40.2555 19.6519 42.2292 20.4242 43.8168 22.0118L41.886 23.8997C40.8562 22.9128 39.5261 22.4409 38.153 22.4409C34.42 22.4409 32.8324 25.2299 32.8324 27.8043C32.8753 30.3359 34.3342 33.0391 38.153 33.0391C39.4832 33.0391 41.0278 32.4813 42.0147 31.4944L43.9885 33.4253Z" fill="#045F87"/>
<path d="M58.9208 19.9946V28.8336C58.9208 33.3819 56.1318 35.6989 52.2701 35.6989C48.58 35.6989 45.4478 33.4677 45.4478 28.8336V19.9946H48.3226V28.8336C48.3226 31.6226 49.9102 33.0815 52.313 33.0815C54.7159 33.0815 56.0889 31.4939 56.0889 28.8336V19.9946H58.9208Z" fill="#045F87"/>
<path d="M75.3972 35.3561H71.9645L67.4592 30.2071H64.6702V35.3561H61.7524V19.9521C64.1982 19.9521 66.6439 19.9951 69.0897 19.9951C72.7368 20.038 74.6248 22.4408 74.6248 25.1011C74.6248 27.2036 73.6379 29.349 70.7202 29.9497L75.3972 35.2273V35.3561V35.3561ZM64.6702 22.6982V27.6327H69.0897C70.9347 27.6327 71.75 26.3883 71.75 25.1869C71.75 23.9855 70.9347 22.7412 69.0897 22.7412H64.6702V22.6982Z" fill="#045F87"/>
<path d="M87.5398 32.4808H79.4732L78.143 35.3985H75.0107L81.9189 19.9946H85.0941L92.0022 35.3985H88.827L87.5398 32.4808ZM83.5065 23.2127L80.6317 29.7776H86.3384L83.5065 23.2127Z" fill="#045F87"/>
<path d="M94.748 22.6124H89.8564V19.9521C94.3189 19.9521 98.0518 19.9521 102.514 19.9521V22.6124H97.6228V35.3561H94.7051V22.6124H94.748Z" fill="#045F87"/>
<path d="M115.816 35.3561H104.274C104.274 30.25 104.274 25.1011 104.274 19.9521H115.816V22.7841H107.192V26.3454H115.516V29.0486H107.192V32.5241H115.816V35.3561Z" fill="#045F87"/>
<path d="M131.606 27.5464C131.692 31.451 129.289 35.3985 123.925 35.3985C122.038 35.3985 119.763 35.3985 117.875 35.3985V19.9946C119.763 19.9946 122.038 19.9946 123.925 19.9946C129.16 19.9946 131.52 23.7276 131.606 27.5464ZM120.707 32.5666H123.883C127.401 32.5666 128.774 30.0351 128.688 27.5035C128.602 25.1007 127.229 22.6978 123.883 22.6978H120.707V32.5666Z" fill="#045F87"/>
<path d="M37.423 7.85213H32.8319V10.8128H37.938V13.1298H30V0.686523H37.6805V3.00354H32.8319V5.57802H37.423V7.85213V7.85213Z" fill="#F9AA62"/>
<path d="M48.879 0V10.4266C48.879 11.4564 48.9219 12.5291 48.9648 13.1298H46.4761L46.3474 11.7997H46.3045C45.7467 12.8294 44.6311 13.3443 43.4725 13.3443C41.3272 13.3443 39.6108 11.4993 39.6108 8.71029C39.6108 5.66383 41.4988 3.90462 43.6442 3.90462C44.7598 3.90462 45.618 4.29079 46.0041 4.9344H46.047V0.0429105H48.879V0ZM46.09 7.89504C46.09 7.76632 46.0899 7.55178 46.047 7.38014C45.8754 6.6078 45.2747 6.0071 44.4166 6.0071C43.1293 6.0071 42.4857 7.16561 42.4857 8.58157C42.4857 10.1263 43.258 11.0702 44.4166 11.0702C45.2318 11.0702 45.8754 10.5124 46.047 9.74008C46.0899 9.52554 46.1329 9.35391 46.1329 9.09646V7.89504H46.09Z" fill="#F9AA62"/>
<path d="M60.1212 10.2115C60.1212 11.4129 60.1641 12.3569 60.207 13.1292H57.7613L57.6325 11.842H57.5896C57.2464 12.3998 56.3882 13.3009 54.7577 13.3009C52.9127 13.3009 51.5825 12.1424 51.5825 9.35334V4.07568H54.4144V8.92427C54.4144 10.2544 54.8435 11.0267 55.8304 11.0267C56.6027 11.0267 57.0318 10.5119 57.2464 10.0399C57.3322 9.86824 57.3322 9.6537 57.3322 9.43917V4.07568H60.1641V10.2115H60.1212Z" fill="#F9AA62"/>
<path d="M69.6035 12.8724C69.0886 13.0869 68.1447 13.2586 67.1149 13.2586C64.1971 13.2586 62.3521 11.4994 62.3521 8.62453C62.3521 6.00715 64.1542 3.81885 67.501 3.81885C68.2304 3.81885 69.0457 3.94757 69.6464 4.16211L69.2173 6.2646C68.874 6.13588 68.4021 6.00715 67.6297 6.00715C66.1709 6.00715 65.184 7.07984 65.2269 8.53871C65.2269 10.2121 66.3425 11.0703 67.7155 11.0703C68.3592 11.0703 68.917 10.9415 69.3032 10.8128L69.6035 12.8724Z" fill="#F9AA62"/>
<path d="M76.8127 13.1296L76.6411 12.2285H76.5982C75.9975 12.958 75.0964 13.3442 74.0237 13.3442C72.1787 13.3442 71.106 12.014 71.106 10.598C71.106 8.23811 73.2085 7.12251 76.3836 7.16541V7.03669C76.3836 6.56471 76.1262 5.87818 74.7531 5.87818C73.8521 5.87818 72.8652 6.17853 72.2645 6.56471L71.7496 4.76258C72.3932 4.41932 73.5946 3.99023 75.2681 3.99023C78.2716 3.99023 79.2156 5.74946 79.2156 7.89485V11.0271C79.2156 11.8853 79.2585 12.7434 79.3443 13.2154H76.8127V13.1296ZM76.4694 8.83883C75.0106 8.83883 73.8521 9.18209 73.8521 10.2548C73.8521 10.9842 74.324 11.3275 74.9677 11.3275C75.6542 11.3275 76.2549 10.8555 76.4265 10.2977C76.4694 10.169 76.4694 9.99734 76.4694 9.82571V8.83883Z" fill="#F9AA62"/>
<path d="M84.8791 1.50146V4.07594H86.8958V6.13551H84.8791V9.39651C84.8791 10.4692 85.1366 10.9841 85.9947 10.9841C86.338 10.9841 86.6383 10.9412 86.8099 10.8983V13.0008C86.4238 13.1295 85.7802 13.2582 84.9649 13.2582C84.0639 13.2582 83.2915 12.9579 82.8624 12.4859C82.3475 11.971 82.0901 11.0699 82.0901 9.82558V6.13551H80.8887V4.07594H82.0901V2.10217L84.8791 1.50146Z" fill="#F9AA62"/>
<path d="M91.8732 1.58832C91.8732 2.36066 91.2725 3.00428 90.3715 3.00428C89.4704 3.00428 88.9126 2.36066 88.9126 1.58832C88.9126 0.773068 89.4704 0.172363 90.3715 0.172363C91.2725 0.172363 91.8303 0.773068 91.8732 1.58832ZM88.9555 13.1305V4.11989H91.7445V13.1305H88.9555Z" fill="#F9AA62"/>
<path d="M103.415 8.49494C103.415 11.7988 101.055 13.3006 98.6521 13.3006C96.0347 13.3006 93.9751 11.5843 93.9751 8.66657C93.9751 5.74884 95.9059 3.90381 98.7808 3.90381C101.57 3.90381 103.415 5.79175 103.415 8.49494ZM96.8499 8.58076C96.8499 10.1254 97.4935 11.284 98.695 11.284C99.7677 11.284 100.497 10.2113 100.497 8.58076C100.497 7.25062 99.9822 5.87756 98.695 5.87756C97.3648 5.87756 96.8499 7.25062 96.8499 8.58076Z" fill="#F9AA62"/>
<path d="M105.604 6.95069C105.604 5.83508 105.561 4.84821 105.518 4.07587H107.964L108.093 5.32019H108.135C108.522 4.76239 109.423 3.86133 110.924 3.86133C112.769 3.86133 114.143 5.06275 114.143 7.72303V13.0865H111.354V8.1092C111.354 6.95069 110.967 6.13544 109.938 6.13544C109.165 6.13544 108.693 6.65033 108.522 7.20814C108.436 7.37977 108.393 7.63722 108.393 7.89466V13.0865H105.604V6.95069Z" fill="#F9AA62"/>
<path d="M7 24L10 27L20 17" stroke="#F9AA62" stroke-width="2" stroke-linecap="round" stroke-linejoin="round"/>
<path d="M19 25V32C19 32.5304 18.7893 33.0391 18.4142 33.4142C18.0391 33.7893 17.5304 34 17 34H3C2.46957 34 1.96086 33.7893 1.58579 33.4142C1.21071 33.0391 1 32.5304 1 32V18C1 17.4696 1.21071 16.9609 1.58579 16.5858C1.96086 16.2107 2.46957 16 3 16H14" stroke="#045F87" stroke-width="2" stroke-linecap="round" stroke-linejoin="round"/>
<path d="M32.4121 45.0303H32.9004C33.3789 45.0303 33.7321 44.9505 33.96 44.791C34.1878 44.6315 34.3018 44.3809 34.3018 44.0391C34.3018 43.7005 34.1846 43.4596 33.9502 43.3164C33.7191 43.1732 33.3594 43.1016 32.8711 43.1016H32.4121V45.0303ZM32.4121 46.2607V49H30.8984V41.8613H32.9785C33.9486 41.8613 34.6663 42.0387 35.1318 42.3936C35.5973 42.7451 35.8301 43.2806 35.8301 44C35.8301 44.4199 35.7145 44.7943 35.4834 45.123C35.2523 45.4486 34.9251 45.7041 34.502 45.8896C35.5762 47.4945 36.276 48.5312 36.6016 49H34.9219L33.2178 46.2607H32.4121ZM41.6113 49H37.5V41.8613H41.6113V43.1016H39.0137V44.6689H41.4307V45.9092H39.0137V47.75H41.6113V49ZM49.585 45.4209C49.585 46.2607 49.4352 46.9655 49.1357 47.5352C48.8395 48.1016 48.4033 48.5166 47.8271 48.7803L49.5459 50.6992H47.6074L46.2988 49.0977H46.1865C45.0928 49.0977 44.2529 48.7803 43.667 48.1455C43.0811 47.5107 42.7881 46.5993 42.7881 45.4111C42.7881 44.223 43.0811 43.3164 43.667 42.6914C44.2562 42.0632 45.0993 41.749 46.1963 41.749C47.2933 41.749 48.1315 42.0648 48.7109 42.6963C49.2936 43.3278 49.585 44.236 49.585 45.4209ZM44.375 45.4209C44.375 46.2184 44.5264 46.819 44.8291 47.2227C45.1318 47.6263 45.5843 47.8281 46.1865 47.8281C47.3942 47.8281 47.998 47.0257 47.998 45.4209C47.998 43.8128 47.3975 43.0088 46.1963 43.0088C45.5941 43.0088 45.14 43.2122 44.834 43.6191C44.528 44.0228 44.375 44.6234 44.375 45.4209ZM56.875 41.8613V46.4805C56.875 47.0078 56.7562 47.4701 56.5186 47.8672C56.2842 48.2643 55.944 48.5687 55.498 48.7803C55.0521 48.9919 54.5247 49.0977 53.916 49.0977C52.998 49.0977 52.2852 48.8633 51.7773 48.3945C51.2695 47.9225 51.0156 47.278 51.0156 46.4609V41.8613H52.5244V46.2314C52.5244 46.7816 52.6351 47.1852 52.8564 47.4424C53.0778 47.6995 53.444 47.8281 53.9551 47.8281C54.4499 47.8281 54.8079 47.6995 55.0293 47.4424C55.2539 47.182 55.3662 46.7751 55.3662 46.2217V41.8613H56.875ZM62.7344 49H58.623V41.8613H62.7344V43.1016H60.1367V44.6689H62.5537V45.9092H60.1367V47.75H62.7344V49ZM68.4424 47.0176C68.4424 47.6621 68.2096 48.1699 67.7441 48.541C67.2819 48.9121 66.6374 49.0977 65.8105 49.0977C65.0488 49.0977 64.375 48.9544 63.7891 48.668V47.2617C64.2708 47.4766 64.6777 47.6279 65.0098 47.7158C65.3451 47.8037 65.651 47.8477 65.9277 47.8477C66.2598 47.8477 66.5137 47.7842 66.6895 47.6572C66.8685 47.5303 66.958 47.3415 66.958 47.0908C66.958 46.9508 66.9189 46.8271 66.8408 46.7197C66.7627 46.609 66.6471 46.5033 66.4941 46.4023C66.3444 46.3014 66.0368 46.1403 65.5713 45.9189C65.1351 45.7139 64.8079 45.5169 64.5898 45.3281C64.3717 45.1393 64.1976 44.9196 64.0674 44.6689C63.9372 44.4183 63.8721 44.1253 63.8721 43.79C63.8721 43.1585 64.0853 42.6621 64.5117 42.3008C64.9414 41.9395 65.5339 41.7588 66.2891 41.7588C66.6602 41.7588 67.0133 41.8027 67.3486 41.8906C67.6872 41.9785 68.0404 42.1022 68.4082 42.2617L67.9199 43.4385C67.5391 43.2822 67.2233 43.1732 66.9727 43.1113C66.7253 43.0495 66.4811 43.0186 66.2402 43.0186C65.9538 43.0186 65.734 43.0853 65.5811 43.2188C65.4281 43.3522 65.3516 43.5264 65.3516 43.7412C65.3516 43.8747 65.3825 43.9919 65.4443 44.0928C65.5062 44.1904 65.6038 44.2865 65.7373 44.3809C65.874 44.472 66.1947 44.638 66.6992 44.8789C67.3665 45.1979 67.8239 45.5186 68.0713 45.8408C68.3187 46.1598 68.4424 46.5521 68.4424 47.0176ZM72.4902 49H70.9766V43.1211H69.0381V41.8613H74.4287V43.1211H72.4902V49ZM79.6387 49H75.5273V41.8613H79.6387V43.1016H77.041V44.6689H79.458V45.9092H77.041V47.75H79.6387V49ZM87.0557 45.3623C87.0557 46.5374 86.7204 47.4375 86.0498 48.0625C85.3825 48.6875 84.4173 49 83.1543 49H81.1328V41.8613H83.374C84.5394 41.8613 85.4443 42.1689 86.0889 42.7842C86.7334 43.3994 87.0557 44.2588 87.0557 45.3623ZM85.4834 45.4014C85.4834 43.8682 84.8063 43.1016 83.4521 43.1016H82.6465V47.75H83.2959C84.7542 47.75 85.4834 46.9671 85.4834 45.4014Z" fill="#045F87"/>
</svg>
