<svg width="88" height="105" viewBox="0 0 88 105" fill="none" xmlns="http://www.w3.org/2000/svg">
<path d="M59 35H12V39H59V35Z" fill="#E7E7E7"/>
<path d="M46 48H12V52H46V48Z" fill="#E7E7E7"/>
<path d="M32 60H12V64H32V60Z" fill="#E7E7E7"/>
<path d="M75 73.8308L72.1519 71L64.49 78.6692L56.8481 71L54 73.8308L61.6619 81.5L54 89.1692L56.8481 92L64.49 84.3509L72.1519 92L75 89.1692L67.3381 81.5L75 73.8308Z" fill="#E7E7E7"/>
<path d="M54.7361 13.577V12.9171L51.2269 8.75805H46.7899C45.842 3.77916 41.4252 0 36.121 0C30.8168 0 26.4202 3.77916 25.4723 8.73806H21.1765L16.9815 12.7972V13.577H0V90H36.6454C36 88.7203 35.4756 87.4006 35.0924 86.0009H4.03361V17.5761H16.9815V25.4743H54.716V17.5761H67.9664V52.4284C69.358 52.6483 70.7092 52.9882 72 53.4281V13.577H54.7361ZM50.7025 21.4752H21.0151V14.4768L22.8101 12.7372H29.3244V10.7376C29.3244 7.01844 32.3698 3.99911 36.121 3.99911C39.8723 3.99911 42.9176 7.01844 42.9176 10.7376V12.7372H49.3109L50.6824 14.3568V21.4752H50.7025Z" fill="#E7E7E7"/>
<path d="M64 105C50.7747 105 40 94.4696 40 81.5C40 68.5304 50.7544 58 64 58C77.2253 58 88 68.5304 88 81.5C88 87.5882 85.2051 93.4979 80.1215 98.1582C75.443 102.442 69.4278 105 64 105ZM64 61.9662C53.0025 61.9662 44.0506 70.7316 44.0506 81.5C44.0506 92.2684 53.0025 101.034 64 101.034C68.4152 101.034 73.3975 98.8721 77.3468 95.2629C81.6 91.3561 83.9494 86.4776 83.9494 81.5C83.9494 70.7316 74.9975 61.9662 64 61.9662Z" fill="#E7E7E7"/>
</svg>
