<svg width="16" height="14" viewBox="0 0 16 14" fill="none" xmlns="http://www.w3.org/2000/svg">
<path d="M15 3H12.95C12.7 1.85 11.7 1 10.5 1C9.3 1 8.3 1.85 8.05 3H1V4H8.05C8.3 5.15 9.3 6 10.5 6C11.7 6 12.7 5.15 12.95 4H15V3ZM10.5 5C9.65 5 9 4.35 9 3.5C9 2.65 9.65 2 10.5 2C11.35 2 12 2.65 12 3.5C12 4.35 11.35 5 10.5 5Z" fill="#FC9200"/>
<path fill-rule="evenodd" clip-rule="evenodd" d="M7.85593 2.75C8.1962 1.59066 9.24715 0.75 10.5 0.75C11.7529 0.75 12.8038 1.59066 13.1441 2.75H15.25V4.25H13.1441C12.8038 5.40934 11.7529 6.25 10.5 6.25C9.24715 6.25 8.1962 5.40934 7.85593 4.25H0.75V2.75H7.85593ZM10.5 1.25C9.42274 1.25 8.52042 2.01294 8.29429 3.05311L8.25149 3.25H1.25V3.75H8.25149L8.29429 3.94689C8.52042 4.98706 9.42274 5.75 10.5 5.75C11.5773 5.75 12.4796 4.98706 12.7057 3.94689L12.7485 3.75H14.75V3.25H12.7485L12.7057 3.05311C12.4796 2.01294 11.5773 1.25 10.5 1.25ZM10.5 2.25C9.78807 2.25 9.25 2.78807 9.25 3.5C9.25 4.21193 9.78807 4.75 10.5 4.75C11.2119 4.75 11.75 4.21193 11.75 3.5C11.75 2.78807 11.2119 2.25 10.5 2.25ZM8.75 3.5C8.75 2.51193 9.51193 1.75 10.5 1.75C11.4881 1.75 12.25 2.51193 12.25 3.5C12.25 4.48807 11.4881 5.25 10.5 5.25C9.51193 5.25 8.75 4.48807 8.75 3.5Z" fill="#FC9200"/>
<path d="M1 11H3.05C3.3 12.15 4.3 13 5.5 13C6.7 13 7.7 12.15 7.95 11H15V10H7.95C7.7 8.85 6.7 8 5.5 8C4.3 8 3.3 8.85 3.05 10H1V11ZM5.5 9C6.35 9 7 9.65 7 10.5C7 11.35 6.35 12 5.5 12C4.65 12 4 11.35 4 10.5C4 9.65 4.65 9 5.5 9Z" fill="#FC9200"/>
<path fill-rule="evenodd" clip-rule="evenodd" d="M2.85593 9.75C3.1962 8.59066 4.24715 7.75 5.5 7.75C6.75285 7.75 7.8038 8.59066 8.14407 9.75H15.25V11.25H8.14407C7.8038 12.4093 6.75285 13.25 5.5 13.25C4.24715 13.25 3.1962 12.4093 2.85593 11.25H0.75V9.75H2.85593ZM5.5 8.25C4.42274 8.25 3.52042 9.01294 3.29429 10.0531L3.25149 10.25H1.25V10.75H3.25149L3.29429 10.9469C3.52042 11.9871 4.42274 12.75 5.5 12.75C6.57726 12.75 7.47958 11.9871 7.70571 10.9469L7.74851 10.75H14.75V10.25H7.74851L7.70571 10.0531C7.47958 9.01294 6.57726 8.25 5.5 8.25ZM5.5 9.25C4.78807 9.25 4.25 9.78807 4.25 10.5C4.25 11.2119 4.78807 11.75 5.5 11.75C6.21193 11.75 6.75 11.2119 6.75 10.5C6.75 9.78807 6.21193 9.25 5.5 9.25ZM3.75 10.5C3.75 9.51193 4.51193 8.75 5.5 8.75C6.48807 8.75 7.25 9.51193 7.25 10.5C7.25 11.4881 6.48807 12.25 5.5 12.25C4.51193 12.25 3.75 11.4881 3.75 10.5Z" fill="#FC9200"/>
</svg>
