<svg width="127" height="36" viewBox="0 0 127 36" fill="none" xmlns="http://www.w3.org/2000/svg">
<path d="M41.8801 33.1068C40.3489 34.5966 38.3625 35.3001 36.252 35.3001C30.748 35.3001 28.3892 31.4928 28.3892 27.6442C28.3478 23.7541 30.8722 19.8228 36.252 19.8228C38.2798 19.8228 40.1834 20.5677 41.7146 22.0988L39.8524 23.9197C38.8592 22.9678 37.5763 22.5127 36.252 22.5127C32.6517 22.5127 31.1205 25.2026 31.1205 27.6856C31.1618 30.1272 32.5689 32.7343 36.252 32.7343C37.5349 32.7343 39.0247 32.1964 39.9765 31.2445L41.8801 33.1068Z" fill="#CBCBCB"/>
<path d="M56.2405 20.1533V28.6783C56.2405 33.0649 53.5505 35.2996 49.826 35.2996C46.2671 35.2996 43.2461 33.1477 43.2461 28.6783V20.1533H46.0188V28.6783C46.0188 31.3682 47.55 32.7752 49.8674 32.7752C52.1849 32.7752 53.5092 31.244 53.5092 28.6783V20.1533H56.2405Z" fill="#CBCBCB"/>
<path d="M72.1716 35.0099H68.861L64.5157 30.0439H61.8258V35.0099H59.0117V20.1533C61.3706 20.1533 63.7294 20.1947 66.0883 20.1947C69.6058 20.2361 71.4267 22.5536 71.4267 25.1193C71.4267 27.1471 70.4749 29.2163 67.6608 29.7956L72.1716 34.8858V35.0099ZM61.7844 22.7605V27.5196H66.0469C67.8264 27.5196 68.6127 26.3194 68.6127 25.1607C68.6127 24.002 67.8264 22.8019 66.0469 22.8019H61.7844V22.7605Z" fill="#CBCBCB"/>
<path d="M83.8437 32.1959H76.0636L74.7807 35.0099H71.7598L78.4225 20.1533H81.4848L88.1475 35.0099H85.0852L83.8437 32.1959ZM79.9536 23.2571L77.181 29.5887H82.685L79.9536 23.2571Z" fill="#CBCBCB"/>
<path d="M90.8368 22.6778H86.1191V20.1121C90.423 20.1121 94.0234 20.1121 98.3272 20.1121V22.6778H93.6095V34.9687H90.7955V22.6778H90.8368Z" fill="#CBCBCB"/>
<path d="M111.115 35.0099H99.9824C99.9824 30.0853 99.9824 25.1193 99.9824 20.1533H111.115V22.8846H102.797V26.3194H110.825V28.9266H102.797V32.2786H111.115V35.0099Z" fill="#CBCBCB"/>
<path d="M126.342 27.4368C126.425 31.2027 124.108 35.0099 118.935 35.0099C117.114 35.0099 114.92 35.0099 113.1 35.0099V20.1533C114.92 20.1533 117.114 20.1533 118.935 20.1533C124.025 20.1533 126.259 23.7537 126.342 27.4368ZM115.872 32.2786H118.935C122.328 32.2786 123.652 29.837 123.57 27.3954C123.487 25.0779 122.163 22.7605 118.935 22.7605H115.872V32.2786Z" fill="#CBCBCB"/>
<path fill-rule="evenodd" clip-rule="evenodd" d="M0.0413732 20.4434L0 17.0086C0 16.6361 0.206896 16.3464 0.496579 16.3464H2.89683C3.18651 16.3464 3.39341 16.6361 3.39341 16.9672L3.43483 20.402C3.43483 20.7744 3.22789 21.0641 2.9382 21.0641H0.538003C0.289703 21.1055 0.0413732 20.8158 0.0413732 20.4434Z" fill="#CBCBCB"/>
<path fill-rule="evenodd" clip-rule="evenodd" d="M0.0413732 27.0647L0 23.6299C0 23.2574 0.206896 22.9678 0.496579 22.9678H2.89683C3.18651 22.9678 3.39341 23.2575 3.39341 23.5885L3.43483 27.0233C3.43483 27.3958 3.22789 27.6855 2.9382 27.6855H0.538003C0.289703 27.7269 0.0413732 27.4372 0.0413732 27.0647Z" fill="#CBCBCB"/>
<path fill-rule="evenodd" clip-rule="evenodd" d="M4.46916 20.4018L4.42773 16.9671C4.42773 16.5946 4.63468 16.3049 4.92436 16.3049H7.32457C7.61425 16.3049 7.8212 16.5946 7.8212 16.9257L7.86257 20.3605C7.86257 20.7329 7.65567 21.0226 7.36599 21.0226H4.96574C4.67605 21.064 4.46916 20.7743 4.46916 20.4018Z" fill="#CBCBCB"/>
<path fill-rule="evenodd" clip-rule="evenodd" d="M8.7738 31.617L8.73242 28.1821C8.73242 27.8097 8.93937 27.52 9.22905 27.52H11.6293C11.9189 27.52 12.1259 27.8097 12.1259 28.1408L12.1673 31.5756C12.1673 31.948 11.9603 32.2377 11.6706 32.2377H9.27043C8.98074 32.2377 8.7738 31.948 8.7738 31.617Z" fill="#CBCBCB"/>
<path fill-rule="evenodd" clip-rule="evenodd" d="M8.73278 25.9885L8.69141 22.5537C8.69141 22.1813 8.8983 21.8916 9.18799 21.8916H11.5882C11.8779 21.8916 12.0848 22.1813 12.0848 22.5124L12.1262 25.9471C12.1262 26.3196 11.9193 26.6093 11.6296 26.6093H9.22941C8.93973 26.6506 8.73278 26.361 8.73278 25.9885Z" fill="#CBCBCB"/>
<path fill-rule="evenodd" clip-rule="evenodd" d="M8.68981 20.4018L8.64844 16.9671C8.64844 16.5946 8.85533 16.3049 9.14502 16.3049H11.5453C11.835 16.3049 12.0418 16.5946 12.0418 16.9257L12.0832 20.3605C12.0832 20.7329 11.8763 21.0226 11.5866 21.0226H9.18639C8.89671 21.0226 8.68981 20.7329 8.68981 20.4018Z" fill="#CBCBCB"/>
<path fill-rule="evenodd" clip-rule="evenodd" d="M12.9945 31.5752L12.9531 28.1404C12.9531 27.7679 13.16 27.4783 13.4497 27.4783H15.85C16.1396 27.4783 16.3465 27.768 16.3465 28.099L16.3879 31.5338C16.3879 31.9063 16.181 32.1959 15.8913 32.1959H13.4911C13.2014 32.1959 12.9945 31.9062 12.9945 31.5752Z" fill="#CBCBCB"/>
<path fill-rule="evenodd" clip-rule="evenodd" d="M12.9535 25.9473L12.9121 22.5125C12.9121 22.1401 13.1191 21.8503 13.4087 21.8503H15.8089C16.0986 21.8503 16.3056 22.14 16.3056 22.4711L16.3469 25.9059C16.3469 26.2784 16.14 26.568 15.8504 26.568H13.4501C13.1604 26.6094 12.9535 26.3197 12.9535 25.9473Z" fill="#CBCBCB"/>
<path fill-rule="evenodd" clip-rule="evenodd" d="M12.9105 20.3606L12.8691 16.9258C12.8691 16.5534 13.0761 16.2637 13.3658 16.2637H15.766C16.0557 16.2637 16.2626 16.5534 16.2626 16.8844L16.304 20.3193C16.304 20.6917 16.097 20.9814 15.8073 20.9814H13.4071C13.1175 20.9814 12.9105 20.6917 12.9105 20.3606Z" fill="#CBCBCB"/>
<path fill-rule="evenodd" clip-rule="evenodd" d="M4.13903 14.691L4.09766 11.2561C4.09766 10.8837 4.30455 10.594 4.59424 10.594H6.99449C7.28417 10.594 7.49107 10.8837 7.49107 11.2147L7.53244 14.6496C7.53244 15.022 7.32554 15.3117 7.03586 15.3117H4.63561C4.38731 15.3117 4.13903 15.022 4.13903 14.691Z" fill="#CBCBCB"/>
<path fill-rule="evenodd" clip-rule="evenodd" d="M8.6488 14.6082L8.60742 11.1734C8.60742 10.8009 8.81432 10.5112 9.104 10.5112H11.5043C11.7939 10.5112 12.0008 10.8009 12.0008 11.132L12.0422 14.5668C12.0422 14.9392 11.8353 15.2289 11.5456 15.2289H9.14537C8.85569 15.2703 8.6488 14.9806 8.6488 14.6082Z" fill="#CBCBCB"/>
<path fill-rule="evenodd" clip-rule="evenodd" d="M12.8695 14.5669L12.8281 11.1321C12.8281 10.7596 13.035 10.47 13.3247 10.47H15.725C16.0146 10.47 16.2215 10.7597 16.2215 11.0907L16.263 14.5255C16.263 14.898 16.056 15.1877 15.7663 15.1877H13.3661C13.0764 15.229 12.8695 14.9394 12.8695 14.5669Z" fill="#CBCBCB"/>
<path fill-rule="evenodd" clip-rule="evenodd" d="M17.0082 25.9473L16.9668 22.5125C16.9668 22.1401 17.1737 21.8503 17.4634 21.8503H19.8636C20.1533 21.8503 20.3602 22.14 20.3602 22.4711L20.4016 25.9059C20.4016 26.2784 20.1947 26.568 19.905 26.568H17.5048C17.2151 26.568 17.0082 26.2784 17.0082 25.9473Z" fill="#CBCBCB"/>
<path fill-rule="evenodd" clip-rule="evenodd" d="M16.9672 20.3194L16.9258 16.8845C16.9258 16.5121 17.1327 16.2224 17.4224 16.2224H19.8226C20.1123 16.2224 20.3192 16.5121 20.3192 16.8432L20.3606 20.278C20.3606 20.6504 20.1537 20.9401 19.864 20.9401H17.4637C17.2154 20.9815 16.9672 20.6918 16.9672 20.3194Z" fill="#CBCBCB"/>
<path fill-rule="evenodd" clip-rule="evenodd" d="M16.9261 14.5669L16.8848 11.1321C16.8848 10.7596 17.0917 10.47 17.3813 10.47H19.7816C20.0713 10.47 20.2782 10.7597 20.2782 11.0907L20.3195 14.5255C20.3195 14.898 20.1127 15.1877 19.823 15.1877H17.4227C17.1744 15.1877 16.9261 14.898 16.9261 14.5669Z" fill="#CBCBCB"/>
<path d="M18.9892 23.8064L14.1621 29.3708L14.7248 29.859L19.5519 24.2945L18.9892 23.8064Z" fill="#CBCBCB"/>
<path d="M18.518 13.2068L13.6895 18.7698L14.252 19.2581L19.0806 13.6951L18.518 13.2068Z" fill="#CBCBCB"/>
<path d="M36.9964 7.86271H32.0718V11.0492H37.5758V13.5322H29.0508V0.124023H37.3274V2.60702H32.1132V5.37971H37.0378V7.86271H36.9964Z" fill="#CBCBCB"/>
<path d="M40.1406 0.289663C41.1338 0.12413 42.5822 0 44.1548 0C46.1412 0 47.5482 0.289683 48.5 1.03458C49.2863 1.65533 49.7415 2.60714 49.7415 3.84864C49.7415 5.54536 48.5414 6.74547 47.3827 7.15931V7.20068C48.3345 7.57313 48.8311 8.48356 49.1622 9.68368C49.576 11.1735 49.9899 12.953 50.2382 13.4496H47.1344C46.9275 13.0771 46.5964 11.9598 46.1826 10.3458C45.8101 8.69049 45.2308 8.23527 44.0307 8.19389H43.1202V13.4496H40.1406V0.289663ZM43.1616 6.08333H44.3617C45.8515 6.08333 46.762 5.33845 46.762 4.13833C46.762 2.89683 45.9343 2.27608 44.5272 2.27608C43.7823 2.27608 43.3685 2.31744 43.1616 2.35883V6.08333Z" fill="#CBCBCB"/>
<path d="M52.4316 0.289663C53.3835 0.12413 54.6663 0 56.5286 0C58.3908 0 59.7151 0.37244 60.6256 1.07596C61.4946 1.73809 62.074 2.85544 62.074 4.1797C62.074 5.50397 61.6188 6.62132 60.8325 7.36622C59.7979 8.35942 58.2667 8.77324 56.4872 8.77324C56.0734 8.77324 55.7423 8.77325 55.4526 8.73187V13.5323H52.4731V0.289663H52.4316ZM55.4113 6.37301C55.6596 6.4144 55.9906 6.45579 56.4045 6.45579C58.0184 6.45579 59.0116 5.62812 59.0116 4.26248C59.0116 3.02098 58.1426 2.27608 56.6528 2.27608C56.032 2.27608 55.6182 2.31746 55.4113 2.40023V6.37301Z" fill="#CBCBCB"/>
</svg>
