<svg width="127" height="51" viewBox="0 0 127 51" fill="none" xmlns="http://www.w3.org/2000/svg">
<path d="M44.1504 32.27C42.6579 33.7221 40.7217 34.4079 38.6645 34.4079C33.2997 34.4079 31.0005 30.6968 31.0005 26.9455C30.9602 23.1538 33.4207 19.3218 38.6645 19.3218C40.6411 19.3218 42.4966 20.0478 43.989 21.5403L42.1739 23.3152C41.2058 22.3874 39.9553 21.9437 38.6645 21.9437C35.1552 21.9437 33.6627 24.5656 33.6627 26.9858C33.7031 29.3657 35.0745 31.907 38.6645 31.907C39.915 31.907 41.3671 31.3826 42.2949 30.4548L44.1504 32.27Z" fill="#045F87"/>
<path d="M58.1873 19.605V27.9144C58.1873 32.1902 55.5654 34.3684 51.9351 34.3684C48.4661 34.3684 45.5215 32.2708 45.5215 27.9144V19.605H48.2241V27.9144C48.2241 30.5363 49.7165 31.9078 51.9754 31.9078C54.2343 31.9078 55.5251 30.4153 55.5251 27.9144V19.605H58.1873Z" fill="#045F87"/>
<path d="M73.6768 34.0848H70.4498L66.2144 29.2444H63.5925V34.0848H60.8496V19.5635C63.1488 19.5635 65.448 19.6038 67.7473 19.6038C71.1759 19.6442 72.9507 21.903 72.9507 24.4039C72.9507 26.3804 72.023 28.3973 69.2801 28.962L73.6768 33.8832V34.0848ZM63.5925 22.1451V26.7838H67.7473C69.4818 26.7838 70.2482 25.614 70.2482 24.4846C70.2482 23.3552 69.4818 22.1854 67.7473 22.1854H63.5925V22.1451Z" fill="#045F87"/>
<path d="M85.0519 31.3431H77.4685L76.218 34.086H73.2734L79.7677 19.605H82.7527L89.2873 34.086H86.3023L85.0519 31.3431ZM81.3005 22.6303L78.5979 28.8018H83.9628L81.3005 22.6303Z" fill="#045F87"/>
<path d="M91.8699 22.0644H87.2715V19.5635C91.4665 19.5635 94.9759 19.5635 99.1709 19.5635V22.0644H94.5725V34.0445H91.8296V22.0644H91.8699Z" fill="#045F87"/>
<path d="M111.636 34.086H100.785C100.785 29.2859 100.785 24.4454 100.785 19.605H111.636V22.2672H103.528V25.6152H111.353V28.1565H103.528V31.4238H111.636V34.086Z" fill="#045F87"/>
<path d="M126.478 26.7043C126.559 30.375 124.3 34.086 119.258 34.086C117.483 34.086 115.345 34.086 113.57 34.086V19.605C115.345 19.605 117.483 19.605 119.258 19.605C124.219 19.605 126.438 23.1546 126.478 26.7043ZM116.273 31.4641H119.258C122.565 31.4641 123.856 29.0842 123.776 26.7043C123.695 24.4454 122.404 22.1866 119.258 22.1866H116.273V31.4641Z" fill="#045F87"/>
<path d="M39.4315 7.62361H34.6314V10.7296H39.9963V13.1498H31.6465V0.0805664H39.7139V2.50079H34.6314V5.24372H39.4315V7.62361Z" fill="#8DC63F"/>
<path d="M42.457 0.28236C43.4251 0.121011 44.8369 0 46.3697 0C48.3059 0 49.6774 0.28236 50.6051 1.00843C51.3715 1.61348 51.8152 2.54124 51.8152 3.75135C51.8152 5.40517 50.6455 6.57495 49.516 6.97832V7.01866C50.4438 7.38169 50.9278 8.26911 51.2505 9.43888C51.6539 10.891 52.0573 12.6255 52.2993 13.1096H49.274C49.0723 12.7465 48.7496 11.6574 48.3462 10.0843C47.9832 8.47079 47.4185 8.02708 46.2487 7.98675H45.3613V13.1096H42.457V0.28236ZM45.4016 5.88922H46.5714C48.0236 5.88922 48.911 5.16315 48.911 3.99337C48.911 2.78326 48.1042 2.1782 46.7328 2.1782C46.0067 2.1782 45.6033 2.21854 45.4016 2.25888V5.88922Z" fill="#8DC63F"/>
<path d="M54.4375 0.28236C55.3653 0.121011 56.6157 0 58.4309 0C60.246 0 61.5368 0.363034 62.4242 1.04876C63.2713 1.69416 63.836 2.78326 63.836 4.07405C63.836 5.36484 63.3923 6.45394 62.6259 7.18001C61.6175 8.1481 60.125 8.55147 58.3905 8.55147C57.9872 8.55147 57.6645 8.55147 57.3821 8.51113V13.1902H54.4778V0.28236H54.4375ZM57.3821 6.21191C57.6241 6.25225 57.9468 6.29259 58.3502 6.29259C59.9233 6.29259 60.8914 5.48585 60.8914 4.15472C60.8914 2.94461 60.0444 2.21854 58.5922 2.21854C57.9872 2.21854 57.5838 2.25888 57.3821 2.33955V6.21191Z" fill="#8DC63F"/>
<path d="M7 23L10 26L20 16" stroke="#8DC63F" stroke-width="2" stroke-linecap="round" stroke-linejoin="round"/>
<path d="M19 24V31C19 31.5304 18.7893 32.0391 18.4142 32.4142C18.0391 32.7893 17.5304 33 17 33H3C2.46957 33 1.96086 32.7893 1.58579 32.4142C1.21071 32.0391 1 31.5304 1 31V17C1 16.4696 1.21071 15.9609 1.58579 15.5858C1.96086 15.2107 2.46957 15 3 15H14" stroke="#045F87" stroke-width="2" stroke-linecap="round" stroke-linejoin="round"/>
<path d="M32.4121 44.0303H32.9004C33.3789 44.0303 33.7321 43.9505 33.96 43.791C34.1878 43.6315 34.3018 43.3809 34.3018 43.0391C34.3018 42.7005 34.1846 42.4596 33.9502 42.3164C33.7191 42.1732 33.3594 42.1016 32.8711 42.1016H32.4121V44.0303ZM32.4121 45.2607V48H30.8984V40.8613H32.9785C33.9486 40.8613 34.6663 41.0387 35.1318 41.3936C35.5973 41.7451 35.8301 42.2806 35.8301 43C35.8301 43.4199 35.7145 43.7943 35.4834 44.123C35.2523 44.4486 34.9251 44.7041 34.502 44.8896C35.5762 46.4945 36.276 47.5312 36.6016 48H34.9219L33.2178 45.2607H32.4121ZM41.6113 48H37.5V40.8613H41.6113V42.1016H39.0137V43.6689H41.4307V44.9092H39.0137V46.75H41.6113V48ZM49.585 44.4209C49.585 45.2607 49.4352 45.9655 49.1357 46.5352C48.8395 47.1016 48.4033 47.5166 47.8271 47.7803L49.5459 49.6992H47.6074L46.2988 48.0977H46.1865C45.0928 48.0977 44.2529 47.7803 43.667 47.1455C43.0811 46.5107 42.7881 45.5993 42.7881 44.4111C42.7881 43.223 43.0811 42.3164 43.667 41.6914C44.2562 41.0632 45.0993 40.749 46.1963 40.749C47.2933 40.749 48.1315 41.0648 48.7109 41.6963C49.2936 42.3278 49.585 43.236 49.585 44.4209ZM44.375 44.4209C44.375 45.2184 44.5264 45.819 44.8291 46.2227C45.1318 46.6263 45.5843 46.8281 46.1865 46.8281C47.3942 46.8281 47.998 46.0257 47.998 44.4209C47.998 42.8128 47.3975 42.0088 46.1963 42.0088C45.5941 42.0088 45.14 42.2122 44.834 42.6191C44.528 43.0228 44.375 43.6234 44.375 44.4209ZM56.875 40.8613V45.4805C56.875 46.0078 56.7562 46.4701 56.5186 46.8672C56.2842 47.2643 55.944 47.5687 55.498 47.7803C55.0521 47.9919 54.5247 48.0977 53.916 48.0977C52.998 48.0977 52.2852 47.8633 51.7773 47.3945C51.2695 46.9225 51.0156 46.278 51.0156 45.4609V40.8613H52.5244V45.2314C52.5244 45.7816 52.6351 46.1852 52.8564 46.4424C53.0778 46.6995 53.444 46.8281 53.9551 46.8281C54.4499 46.8281 54.8079 46.6995 55.0293 46.4424C55.2539 46.182 55.3662 45.7751 55.3662 45.2217V40.8613H56.875ZM62.7344 48H58.623V40.8613H62.7344V42.1016H60.1367V43.6689H62.5537V44.9092H60.1367V46.75H62.7344V48ZM68.4424 46.0176C68.4424 46.6621 68.2096 47.1699 67.7441 47.541C67.2819 47.9121 66.6374 48.0977 65.8105 48.0977C65.0488 48.0977 64.375 47.9544 63.7891 47.668V46.2617C64.2708 46.4766 64.6777 46.6279 65.0098 46.7158C65.3451 46.8037 65.651 46.8477 65.9277 46.8477C66.2598 46.8477 66.5137 46.7842 66.6895 46.6572C66.8685 46.5303 66.958 46.3415 66.958 46.0908C66.958 45.9508 66.9189 45.8271 66.8408 45.7197C66.7627 45.609 66.6471 45.5033 66.4941 45.4023C66.3444 45.3014 66.0368 45.1403 65.5713 44.9189C65.1351 44.7139 64.8079 44.5169 64.5898 44.3281C64.3717 44.1393 64.1976 43.9196 64.0674 43.6689C63.9372 43.4183 63.8721 43.1253 63.8721 42.79C63.8721 42.1585 64.0853 41.6621 64.5117 41.3008C64.9414 40.9395 65.5339 40.7588 66.2891 40.7588C66.6602 40.7588 67.0133 40.8027 67.3486 40.8906C67.6872 40.9785 68.0404 41.1022 68.4082 41.2617L67.9199 42.4385C67.5391 42.2822 67.2233 42.1732 66.9727 42.1113C66.7253 42.0495 66.4811 42.0186 66.2402 42.0186C65.9538 42.0186 65.734 42.0853 65.5811 42.2188C65.4281 42.3522 65.3516 42.5264 65.3516 42.7412C65.3516 42.8747 65.3825 42.9919 65.4443 43.0928C65.5062 43.1904 65.6038 43.2865 65.7373 43.3809C65.874 43.472 66.1947 43.638 66.6992 43.8789C67.3665 44.1979 67.8239 44.5186 68.0713 44.8408C68.3187 45.1598 68.4424 45.5521 68.4424 46.0176ZM72.4902 48H70.9766V42.1211H69.0381V40.8613H74.4287V42.1211H72.4902V48ZM79.6387 48H75.5273V40.8613H79.6387V42.1016H77.041V43.6689H79.458V44.9092H77.041V46.75H79.6387V48ZM87.0557 44.3623C87.0557 45.5374 86.7204 46.4375 86.0498 47.0625C85.3825 47.6875 84.4173 48 83.1543 48H81.1328V40.8613H83.374C84.5394 40.8613 85.4443 41.1689 86.0889 41.7842C86.7334 42.3994 87.0557 43.2588 87.0557 44.3623ZM85.4834 44.4014C85.4834 42.8682 84.8063 42.1016 83.4521 42.1016H82.6465V46.75H83.2959C84.7542 46.75 85.4834 45.9671 85.4834 44.4014Z" fill="#045F87"/>
</svg>
