<svg width="139" height="51" viewBox="0 0 139 51" fill="none" xmlns="http://www.w3.org/2000/svg">
<path d="M43.3574 32.2448C41.8414 33.7198 39.8748 34.4163 37.7852 34.4163C32.3359 34.4163 30.0005 30.6469 30.0005 26.8365C29.9595 22.9851 32.4998 19.0928 37.7852 19.0928C39.7928 19.0928 41.6775 19.8303 43.1935 21.3462L41.3497 23.149C40.3664 22.2067 39.0963 21.756 37.7852 21.756C34.2206 21.756 32.7046 24.4191 32.7046 26.8775C32.7456 29.2948 34.1387 31.8761 37.7852 31.8761C39.0553 31.8761 40.5303 31.3434 41.4727 30.4011L43.3574 32.2448Z" fill="#045F87"/>
<path d="M57.6191 19.4209V27.8611C57.6191 32.2042 54.9559 34.4167 51.2685 34.4167C47.7449 34.4167 44.7539 32.2861 44.7539 27.8611V19.4209H47.499V27.8611C47.499 30.5243 49.015 31.9174 51.3094 31.9174C53.6039 31.9174 54.915 30.4014 54.915 27.8611V19.4209H57.6191Z" fill="#045F87"/>
<path d="M73.3514 34.0889H70.0736L65.7715 29.1722H63.1084V34.0889H60.3223V19.3799C62.6577 19.3799 64.9931 19.4209 67.3285 19.4209C70.8111 19.4618 72.6139 21.7563 72.6139 24.2965C72.6139 26.3042 71.6715 28.3528 68.8854 28.9264L73.3514 33.9659V34.0889ZM63.1084 21.9611V26.6729H67.3285C69.0903 26.6729 69.8688 25.4847 69.8688 24.3375C69.8688 23.1903 69.0903 22.0021 67.3285 22.0021H63.1084V21.9611Z" fill="#045F87"/>
<path d="M84.9033 31.3028H77.2005L75.9304 34.0889H72.9395L79.536 19.3799H82.5679L89.2054 34.0889H86.1734L84.9033 31.3028ZM81.0929 22.4938L78.3478 28.7625H83.7971L81.0929 22.4938Z" fill="#045F87"/>
<path d="M91.829 21.9202H87.1582V19.3799C91.4193 19.3799 94.9839 19.3799 99.245 19.3799V21.9202H94.5741V34.0889H91.788V21.9202H91.829Z" fill="#045F87"/>
<path d="M111.904 34.0889H100.883C100.883 29.2132 100.883 24.2965 100.883 19.3799H111.904V22.084H103.669V25.4847H111.618V28.066H103.669V31.3847H111.904V34.0889Z" fill="#045F87"/>
<path d="M126.984 26.6319C127.066 30.3604 124.772 34.1298 119.65 34.1298C117.847 34.1298 115.676 34.1298 113.873 34.1298V19.3799C115.676 19.3799 117.847 19.3799 119.65 19.3799C124.69 19.3799 126.943 22.9854 126.984 26.6319ZM116.618 31.4257H119.65C123.01 31.4257 124.321 29.0083 124.239 26.591C124.157 24.2965 122.846 22.0021 119.65 22.0021H116.618V31.4257Z" fill="#045F87"/>
<path d="M41.2263 12.2507C40.325 12.5375 38.6451 12.9472 36.9653 12.9472C34.6298 12.9472 32.95 12.3736 31.8028 11.2263C30.6146 10.1201 30 8.48122 30 6.59651C30.041 2.41735 33.1139 0 37.293 0C38.9319 0 40.202 0.327777 40.8166 0.614581L40.202 2.90902C39.5055 2.62221 38.6451 2.37638 37.2521 2.37638C34.8757 2.37638 33.0319 3.72846 33.0319 6.47359C33.0319 9.0958 34.6708 10.6527 37.0472 10.6527C37.7027 10.6527 38.2354 10.5708 38.4812 10.4479V7.7847H36.5146V5.53123H41.2263V12.2507Z" fill="#818891"/>
<path d="M53.0288 8.11218C53.0288 11.4719 50.6524 13.0288 48.1532 13.0288C45.449 13.0288 43.4004 11.267 43.4004 8.27607C43.4004 5.28511 45.367 3.40039 48.317 3.40039C51.1441 3.40039 53.0288 5.36705 53.0288 8.11218ZM46.3504 8.2351C46.3504 9.83301 47.0059 11.0212 48.2351 11.0212C49.3413 11.0212 50.0788 9.91495 50.0788 8.2351C50.0788 6.84205 49.5462 5.44899 48.2351 5.44899C46.883 5.44899 46.3504 6.84205 46.3504 8.2351Z" fill="#818891"/>
<path d="M57.2056 3.60547L58.4348 7.86656C58.6806 8.64503 58.8445 9.38253 58.9674 10.12H59.0084C59.1723 9.38253 59.2952 8.68601 59.5001 7.86656L60.6883 3.60547H63.7202L60.2785 12.8242H57.4105L54.0508 3.60547H57.2056Z" fill="#818891"/>
<path d="M67.4502 9.13648C67.5322 10.3247 68.7203 10.8983 70.0314 10.8983C71.0148 10.8983 71.7932 10.7754 72.5717 10.5295L72.9405 12.4552C71.9981 12.824 70.8509 13.0288 69.6217 13.0288C66.5078 13.0288 64.7051 11.2261 64.7051 8.31704C64.7051 5.98163 66.1391 3.40039 69.3759 3.40039C72.3669 3.40039 73.4731 5.7358 73.4731 7.98926C73.4731 8.48093 73.4321 8.93162 73.3912 9.13648H67.4502ZM70.8099 7.16982C70.8099 6.4733 70.5231 5.28511 69.171 5.28511C67.9828 5.28511 67.4912 6.39135 67.4092 7.16982H70.8099Z" fill="#818891"/>
<path d="M75.6444 6.63723C75.6444 5.28515 75.6035 4.38376 75.5625 3.60529H78.0208L78.1437 5.32612H78.2257C78.6764 3.97404 79.8236 3.44141 80.725 3.44141C80.9708 3.44141 81.1347 3.44141 81.3396 3.48238V6.14556C81.1347 6.10459 80.8889 6.06362 80.5611 6.06362C79.4958 6.06362 78.7993 6.63723 78.5944 7.49764C78.5535 7.7025 78.5535 7.90736 78.5535 8.1532V12.824H75.6854V6.63723H75.6444Z" fill="#818891"/>
<path d="M83.2655 6.55524C83.2655 5.40802 83.2246 4.42469 83.1836 3.60525H85.6829L85.8058 4.87539H85.8468C86.2155 4.30178 87.1579 3.40039 88.6739 3.40039C90.5586 3.40039 91.9926 4.62955 91.9926 7.37468V12.824H89.1246V7.74343C89.1246 6.55524 88.7148 5.7358 87.6905 5.7358C86.9121 5.7358 86.4204 6.26844 86.2565 6.80107C86.1746 6.96496 86.1336 7.25177 86.1336 7.4976V12.824H83.2655V6.55524Z" fill="#818891"/>
<path d="M94.7792 6.55524C94.7792 5.40802 94.7382 4.42469 94.6973 3.60525H97.1146L97.2375 4.83441H97.2785C97.6882 4.2608 98.4667 3.40039 100.065 3.40039C101.253 3.40039 102.195 4.01497 102.605 4.95733H102.646C102.974 4.50664 103.383 4.09692 103.834 3.85108C104.326 3.56428 104.899 3.40039 105.596 3.40039C107.358 3.40039 108.71 4.62955 108.71 7.41565V12.8649H105.924V7.82538C105.924 6.4733 105.473 5.69483 104.572 5.69483C103.916 5.69483 103.424 6.14552 103.26 6.67816C103.178 6.88302 103.138 7.16982 103.138 7.41565V12.824H100.351V7.66149C100.351 6.4733 99.9417 5.69483 99.0403 5.69483C98.3028 5.69483 97.8521 6.26844 97.6882 6.71913C97.6063 6.96496 97.5653 7.21079 97.5653 7.41565V12.783H94.7792V6.55524Z" fill="#818891"/>
<path d="M113.626 9.13648C113.708 10.3247 114.896 10.8983 116.207 10.8983C117.191 10.8983 117.969 10.7754 118.748 10.5295L119.116 12.4552C118.174 12.824 117.027 13.0288 115.798 13.0288C112.684 13.0288 110.881 11.2261 110.881 8.31704C110.881 5.98163 112.315 3.40039 115.552 3.40039C118.543 3.40039 119.649 5.7358 119.649 7.98926C119.649 8.48093 119.608 8.93162 119.567 9.13648H113.626ZM116.986 7.16982C116.986 6.4733 116.699 5.28511 115.347 5.28511C114.159 5.28511 113.667 6.39135 113.585 7.16982H116.986Z" fill="#818891"/>
<path d="M121.82 6.55524C121.82 5.40802 121.779 4.42469 121.738 3.60525H124.238L124.36 4.87539H124.401C124.77 4.30178 125.713 3.40039 127.229 3.40039C129.113 3.40039 130.547 4.62955 130.547 7.37468V12.824H127.679V7.74343C127.679 6.55524 127.27 5.7358 126.245 5.7358C125.467 5.7358 124.975 6.26844 124.811 6.80107C124.729 6.96496 124.688 7.25177 124.688 7.4976V12.824H121.82V6.55524Z" fill="#818891"/>
<path d="M136.406 0.98291V3.60512H138.454V5.73567H136.406V9.05441C136.406 10.1607 136.652 10.6933 137.553 10.6933C137.922 10.6933 138.209 10.6523 138.414 10.6113V12.7829C138.045 12.9468 137.348 13.0287 136.529 13.0287C135.586 13.0287 134.849 12.7009 134.398 12.2502C133.866 11.7176 133.62 10.8162 133.62 9.5051V5.73567H132.391V3.60512H133.62V1.63846L136.406 0.98291Z" fill="#818891"/>
<path d="M7 23L10 26L20 16" stroke="#818891" stroke-width="2" stroke-linecap="round" stroke-linejoin="round"/>
<path d="M19 24V31C19 31.5304 18.7893 32.0391 18.4142 32.4142C18.0391 32.7893 17.5304 33 17 33H3C2.46957 33 1.96086 32.7893 1.58579 32.4142C1.21071 32.0391 1 31.5304 1 31V17C1 16.4696 1.21071 15.9609 1.58579 15.5858C1.96086 15.2107 2.46957 15 3 15H14" stroke="#045F87" stroke-width="2" stroke-linecap="round" stroke-linejoin="round"/>
<path d="M32.4121 44.0303H32.9004C33.3789 44.0303 33.7321 43.9505 33.96 43.791C34.1878 43.6315 34.3018 43.3809 34.3018 43.0391C34.3018 42.7005 34.1846 42.4596 33.9502 42.3164C33.7191 42.1732 33.3594 42.1016 32.8711 42.1016H32.4121V44.0303ZM32.4121 45.2607V48H30.8984V40.8613H32.9785C33.9486 40.8613 34.6663 41.0387 35.1318 41.3936C35.5973 41.7451 35.8301 42.2806 35.8301 43C35.8301 43.4199 35.7145 43.7943 35.4834 44.123C35.2523 44.4486 34.9251 44.7041 34.502 44.8896C35.5762 46.4945 36.276 47.5312 36.6016 48H34.9219L33.2178 45.2607H32.4121ZM41.6113 48H37.5V40.8613H41.6113V42.1016H39.0137V43.6689H41.4307V44.9092H39.0137V46.75H41.6113V48ZM49.585 44.4209C49.585 45.2607 49.4352 45.9655 49.1357 46.5352C48.8395 47.1016 48.4033 47.5166 47.8271 47.7803L49.5459 49.6992H47.6074L46.2988 48.0977H46.1865C45.0928 48.0977 44.2529 47.7803 43.667 47.1455C43.0811 46.5107 42.7881 45.5993 42.7881 44.4111C42.7881 43.223 43.0811 42.3164 43.667 41.6914C44.2562 41.0632 45.0993 40.749 46.1963 40.749C47.2933 40.749 48.1315 41.0648 48.7109 41.6963C49.2936 42.3278 49.585 43.236 49.585 44.4209ZM44.375 44.4209C44.375 45.2184 44.5264 45.819 44.8291 46.2227C45.1318 46.6263 45.5843 46.8281 46.1865 46.8281C47.3942 46.8281 47.998 46.0257 47.998 44.4209C47.998 42.8128 47.3975 42.0088 46.1963 42.0088C45.5941 42.0088 45.14 42.2122 44.834 42.6191C44.528 43.0228 44.375 43.6234 44.375 44.4209ZM56.875 40.8613V45.4805C56.875 46.0078 56.7562 46.4701 56.5186 46.8672C56.2842 47.2643 55.944 47.5687 55.498 47.7803C55.0521 47.9919 54.5247 48.0977 53.916 48.0977C52.998 48.0977 52.2852 47.8633 51.7773 47.3945C51.2695 46.9225 51.0156 46.278 51.0156 45.4609V40.8613H52.5244V45.2314C52.5244 45.7816 52.6351 46.1852 52.8564 46.4424C53.0778 46.6995 53.444 46.8281 53.9551 46.8281C54.4499 46.8281 54.8079 46.6995 55.0293 46.4424C55.2539 46.182 55.3662 45.7751 55.3662 45.2217V40.8613H56.875ZM62.7344 48H58.623V40.8613H62.7344V42.1016H60.1367V43.6689H62.5537V44.9092H60.1367V46.75H62.7344V48ZM68.4424 46.0176C68.4424 46.6621 68.2096 47.1699 67.7441 47.541C67.2819 47.9121 66.6374 48.0977 65.8105 48.0977C65.0488 48.0977 64.375 47.9544 63.7891 47.668V46.2617C64.2708 46.4766 64.6777 46.6279 65.0098 46.7158C65.3451 46.8037 65.651 46.8477 65.9277 46.8477C66.2598 46.8477 66.5137 46.7842 66.6895 46.6572C66.8685 46.5303 66.958 46.3415 66.958 46.0908C66.958 45.9508 66.9189 45.8271 66.8408 45.7197C66.7627 45.609 66.6471 45.5033 66.4941 45.4023C66.3444 45.3014 66.0368 45.1403 65.5713 44.9189C65.1351 44.7139 64.8079 44.5169 64.5898 44.3281C64.3717 44.1393 64.1976 43.9196 64.0674 43.6689C63.9372 43.4183 63.8721 43.1253 63.8721 42.79C63.8721 42.1585 64.0853 41.6621 64.5117 41.3008C64.9414 40.9395 65.5339 40.7588 66.2891 40.7588C66.6602 40.7588 67.0133 40.8027 67.3486 40.8906C67.6872 40.9785 68.0404 41.1022 68.4082 41.2617L67.9199 42.4385C67.5391 42.2822 67.2233 42.1732 66.9727 42.1113C66.7253 42.0495 66.4811 42.0186 66.2402 42.0186C65.9538 42.0186 65.734 42.0853 65.5811 42.2188C65.4281 42.3522 65.3516 42.5264 65.3516 42.7412C65.3516 42.8747 65.3825 42.9919 65.4443 43.0928C65.5062 43.1904 65.6038 43.2865 65.7373 43.3809C65.874 43.472 66.1947 43.638 66.6992 43.8789C67.3665 44.1979 67.8239 44.5186 68.0713 44.8408C68.3187 45.1598 68.4424 45.5521 68.4424 46.0176ZM72.4902 48H70.9766V42.1211H69.0381V40.8613H74.4287V42.1211H72.4902V48ZM79.6387 48H75.5273V40.8613H79.6387V42.1016H77.041V43.6689H79.458V44.9092H77.041V46.75H79.6387V48ZM87.0557 44.3623C87.0557 45.5374 86.7204 46.4375 86.0498 47.0625C85.3825 47.6875 84.4173 48 83.1543 48H81.1328V40.8613H83.374C84.5394 40.8613 85.4443 41.1689 86.0889 41.7842C86.7334 42.3994 87.0557 43.2588 87.0557 44.3623ZM85.4834 44.4014C85.4834 42.8682 84.8063 42.1016 83.4521 42.1016H82.6465V46.75H83.2959C84.7542 46.75 85.4834 45.9671 85.4834 44.4014Z" fill="#045F87"/>
</svg>
