<svg width="135" height="35" viewBox="0 0 135 35" fill="none" xmlns="http://www.w3.org/2000/svg">
<path d="M40.9489 32.5012C39.4502 33.9594 37.506 34.6479 35.4404 34.6479C30.0533 34.6479 27.7446 30.9216 27.7446 27.1547C27.7041 23.3474 30.2154 19.4995 35.4404 19.4995C37.425 19.4995 39.2882 20.2286 40.7869 21.7272L38.9642 23.5094C37.9921 22.5778 36.7365 22.1323 35.4404 22.1323C31.9165 22.1323 30.4179 24.765 30.4179 27.1952C30.4584 29.585 31.8355 32.1367 35.4404 32.1367C36.696 32.1367 38.1541 31.6102 39.0857 30.6786L40.9489 32.5012Z" fill="white"/>
<path d="M55.0444 19.8242V28.168C55.0444 32.4614 52.4116 34.6486 48.7663 34.6486C45.2829 34.6486 42.3262 32.5424 42.3262 28.168V19.8242H45.0399V28.168C45.0399 30.8008 46.5386 32.1779 48.8068 32.1779C51.075 32.1779 52.3711 30.6792 52.3711 28.168V19.8242H55.0444Z" fill="white"/>
<path d="M70.597 34.3251H67.3567L63.1038 29.4646H60.4711V34.3251H57.7168V19.7842C60.0255 19.7842 62.3342 19.8247 64.6429 19.8247C68.0858 19.8652 69.8679 22.1334 69.8679 24.6446C69.8679 26.6293 68.9363 28.6545 66.1821 29.2216L70.597 34.2035V34.3251ZM60.4711 22.3359V26.9939H64.6429C66.3846 26.9939 67.1542 25.8193 67.1542 24.6851C67.1542 23.551 66.3846 22.3764 64.6429 22.3764H60.4711V22.3359Z" fill="white"/>
<path d="M82.0615 31.5708H74.4468L73.1912 34.3251H70.2344L76.7555 19.7842H79.7528L86.2739 34.3251H83.2766L82.0615 31.5708ZM78.2542 22.8625L75.5404 29.0596H80.9274L78.2542 22.8625Z" fill="white"/>
<path d="M88.9046 22.2954H84.2871V19.7842C88.4995 19.7842 92.0233 19.7842 96.2357 19.7842V22.2954H91.6183V34.3251H88.864V22.2954H88.9046Z" fill="white"/>
<path d="M108.753 34.3251H97.8574C97.8574 29.5051 97.8574 24.6446 97.8574 19.7842H108.753V22.4574H100.612V25.8192H108.469V28.371H100.612V31.6518H108.753V34.3251Z" fill="white"/>
<path d="M123.658 26.9534C123.74 30.6392 121.471 34.3656 116.408 34.3656C114.626 34.3656 112.479 34.3656 110.697 34.3656V19.7842C112.479 19.7842 114.626 19.7842 116.408 19.7842C121.35 19.7842 123.577 23.3485 123.658 26.9534ZM113.371 31.6923H116.368C119.689 31.6923 120.985 29.3026 120.904 26.9129C120.823 24.6446 119.527 22.3764 116.368 22.3764H113.371V31.6923Z" fill="white"/>
<path fill-rule="evenodd" clip-rule="evenodd" d="M0.0404939 20.108L0 16.7462C0 16.3817 0.202512 16.0981 0.486039 16.0981H2.83527C3.1188 16.0981 3.32131 16.3817 3.32131 16.7057L3.36181 20.0675C3.36181 20.4321 3.15929 20.7156 2.87576 20.7156H0.526545C0.243018 20.7156 0.0404939 20.4321 0.0404939 20.108Z" fill="white"/>
<path fill-rule="evenodd" clip-rule="evenodd" d="M0.0404939 26.589L0 23.2272C0 22.8626 0.202512 22.5791 0.486039 22.5791H2.83527C3.1188 22.5791 3.32131 22.8626 3.32131 23.1867L3.36181 26.5485C3.36181 26.913 3.15929 27.1965 2.87576 27.1965H0.526545C0.243018 27.1965 0.0404939 26.913 0.0404939 26.589Z" fill="white"/>
<path fill-rule="evenodd" clip-rule="evenodd" d="M4.37449 20.069L4.33398 16.7071C4.33398 16.3426 4.53651 16.0591 4.82004 16.0591H7.16925C7.45278 16.0591 7.6553 16.3426 7.6553 16.6666L7.69581 20.0285C7.69581 20.393 7.49329 20.6765 7.20976 20.6765H4.86054C4.57701 20.6765 4.37449 20.393 4.37449 20.069Z" fill="white"/>
<path fill-rule="evenodd" clip-rule="evenodd" d="M8.58543 31.0035L8.54492 27.6417C8.54492 27.2772 8.74745 26.9937 9.03097 26.9937H11.3802C11.6637 26.9937 11.8662 27.2772 11.8662 27.6012L11.9067 30.963C11.9067 31.3276 11.7042 31.6111 11.4207 31.6111H9.07148C8.78795 31.6516 8.58543 31.3681 8.58543 31.0035Z" fill="white"/>
<path fill-rule="evenodd" clip-rule="evenodd" d="M8.54635 25.5353L8.50586 22.1734C8.50586 21.8089 8.70837 21.5254 8.9919 21.5254H11.3411C11.6247 21.5254 11.8272 21.8089 11.8272 22.1329L11.8677 25.4948C11.8677 25.8593 11.6651 26.1428 11.3816 26.1428H9.0324C8.74888 26.1428 8.54635 25.8593 8.54635 25.5353Z" fill="white"/>
<path fill-rule="evenodd" clip-rule="evenodd" d="M8.5073 20.027L8.4668 16.6652C8.4668 16.3006 8.66931 16.0171 8.95284 16.0171H11.3021C11.5856 16.0171 11.7881 16.3006 11.7881 16.6246L11.8286 19.9865C11.8286 20.351 11.6261 20.6345 11.3426 20.6345H8.99334C8.70981 20.675 8.5073 20.3915 8.5073 20.027Z" fill="white"/>
<path fill-rule="evenodd" clip-rule="evenodd" d="M12.7182 30.9635L12.6777 27.6017C12.6777 27.2371 12.8803 26.9536 13.1638 26.9536H15.513C15.7965 26.9536 15.9991 27.2371 15.9991 27.5612L16.0395 30.923C16.0395 31.2875 15.837 31.5711 15.5535 31.5711H13.2043C12.9208 31.6116 12.7182 31.328 12.7182 30.9635Z" fill="white"/>
<path fill-rule="evenodd" clip-rule="evenodd" d="M12.6772 25.4952L12.6367 22.1334C12.6367 21.7689 12.8392 21.4854 13.1228 21.4854H15.472C15.7555 21.4854 15.958 21.7689 15.958 22.0929L15.9985 25.4547C15.9985 25.8193 15.796 26.1028 15.5125 26.1028H13.1633C12.8797 26.1028 12.6772 25.8598 12.6772 25.4952Z" fill="white"/>
<path fill-rule="evenodd" clip-rule="evenodd" d="M12.6382 20.027L12.5977 16.6652C12.5977 16.3006 12.8002 16.0171 13.0837 16.0171H15.4329C15.7165 16.0171 15.919 16.3006 15.919 16.6246L15.9595 19.9865C15.9595 20.351 15.757 20.6345 15.4734 20.6345H13.1242C12.8407 20.6345 12.6382 20.351 12.6382 20.027Z" fill="white"/>
<path fill-rule="evenodd" clip-rule="evenodd" d="M4.05027 14.4371L4.00977 11.0753C4.00977 10.7108 4.21228 10.4272 4.4958 10.4272H6.84503C7.12856 10.4272 7.33107 10.7108 7.33107 11.0348L7.37158 14.3966C7.37158 14.7612 7.16907 15.0447 6.88554 15.0447H4.53631C4.25278 15.0852 4.05027 14.8017 4.05027 14.4371Z" fill="white"/>
<path fill-rule="evenodd" clip-rule="evenodd" d="M8.46629 14.3981L8.42578 11.0362C8.42578 10.6717 8.62831 10.3882 8.91183 10.3882H11.261C11.5446 10.3882 11.7471 10.6717 11.7471 10.9957L11.7876 14.3576C11.7876 14.7221 11.5851 15.0056 11.3016 15.0056H8.95233C8.6688 15.0056 8.46629 14.7221 8.46629 14.3981Z" fill="white"/>
<path fill-rule="evenodd" clip-rule="evenodd" d="M12.5971 14.3575L12.5566 10.9957C12.5566 10.6312 12.7592 10.3477 13.0427 10.3477H15.3919C15.6754 10.3477 15.8779 10.6312 15.8779 10.9552L15.9185 14.317C15.9185 14.6816 15.7159 14.9651 15.4324 14.9651H13.0832C12.7997 15.0056 12.5971 14.7221 12.5971 14.3575Z" fill="white"/>
<path fill-rule="evenodd" clip-rule="evenodd" d="M16.646 25.4552L16.6055 22.0934C16.6055 21.7288 16.808 21.4453 17.0915 21.4453H19.4407C19.7243 21.4453 19.9268 21.7288 19.9268 22.0529L19.9673 25.4147C19.9673 25.7792 19.7648 26.0627 19.4812 26.0627H17.132C16.8485 26.1033 16.646 25.8197 16.646 25.4552Z" fill="white"/>
<path fill-rule="evenodd" clip-rule="evenodd" d="M16.6069 19.9869L16.5664 16.6251C16.5664 16.2606 16.7689 15.9771 17.0524 15.9771H19.4017C19.6852 15.9771 19.8877 16.2606 19.8877 16.5846L19.9282 19.9464C19.9282 20.311 19.7257 20.5945 19.4422 20.5945H17.093C16.8094 20.5945 16.6069 20.311 16.6069 19.9869Z" fill="white"/>
<path fill-rule="evenodd" clip-rule="evenodd" d="M16.5659 14.3165L16.5254 10.9547C16.5254 10.5902 16.7279 10.3066 17.0114 10.3066H19.3607C19.6442 10.3066 19.8467 10.5902 19.8467 10.9142L19.8872 14.276C19.8872 14.6405 19.6847 14.9241 19.4012 14.9241H17.0519C16.7684 14.9646 16.5659 14.6811 16.5659 14.3165Z" fill="white"/>
<path d="M18.5858 23.4107L13.8613 28.8569L14.4121 29.3347L19.1366 23.8885L18.5858 23.4107Z" fill="white"/>
<path d="M18.1009 13.0255L13.375 18.4702L13.9256 18.9481L18.6515 13.5034L18.1009 13.0255Z" fill="white"/>
<path d="M38.8422 12.7361C37.9511 13.0196 36.2904 13.4247 34.6298 13.4247C32.3211 13.4247 30.6604 12.8576 29.5263 11.7235C28.3517 10.6299 27.7441 9.00976 27.7441 7.14658C27.7441 2.97469 30.7819 0.584961 34.9133 0.584961C36.5335 0.584961 37.7891 0.908992 38.3966 1.19252L37.7891 3.46073C37.1005 3.1772 36.2499 2.93418 34.8728 2.93418C32.5236 2.93418 30.7009 4.2708 30.7009 6.98456C30.7009 9.57681 32.3211 11.116 34.6703 11.116C35.3183 11.116 35.8449 11.0349 36.0879 10.9134V8.28069H34.1437V6.05298H38.8017V12.7361H38.8422Z" fill="white"/>
<path d="M50.5477 8.64476C50.5477 11.9661 48.1985 13.5052 45.7277 13.5052C43.0545 13.5052 41.0293 11.7636 41.0293 8.80677C41.0293 5.84999 42.9735 3.98682 45.8898 3.98682C48.6845 3.98682 50.5477 5.931 50.5477 8.64476ZM43.9456 8.76627C43.9456 10.3459 44.5936 11.5205 45.8087 11.5205C46.9023 11.5205 47.6314 10.4269 47.6314 8.76627C47.6314 7.38914 47.1049 6.01201 45.8087 6.01201C44.4316 6.01201 43.9456 7.38914 43.9456 8.76627Z" fill="white"/>
<path d="M54.6793 4.18994L55.8945 8.40234C56.1375 9.17191 56.2995 9.90098 56.421 10.63H56.4615C56.6235 9.90098 56.745 9.21241 56.9476 8.40234L58.1222 4.18994H61.1194L57.7171 13.3033H54.8819L51.5605 4.18994H54.6793Z" fill="white"/>
<path d="M64.8056 9.65735C64.8866 10.832 66.0612 11.399 67.3573 11.399C68.3294 11.399 69.099 11.2775 69.8685 11.0345L70.2331 12.9382C69.3015 13.3027 68.1674 13.5052 66.9523 13.5052C63.874 13.5052 62.0918 11.723 62.0918 8.84728C62.0918 6.53856 63.5094 3.98682 66.7092 3.98682C69.666 3.98682 70.7596 6.29553 70.7596 8.52324C70.7596 9.00929 70.7191 9.45483 70.6786 9.65735H64.8056ZM68.1269 7.71317C68.1269 7.0246 67.8434 5.85 66.5067 5.85C65.3321 5.85 64.846 6.9436 64.765 7.71317H68.1269Z" fill="white"/>
<path d="M72.9072 7.18662C72.9072 5.84999 72.8667 4.95891 72.8262 4.18934H75.2564L75.3374 5.85H75.4184C75.864 4.51337 76.9981 3.98682 77.8892 3.98682C78.1322 3.98682 78.2942 3.98682 78.4967 4.02732V6.70057C78.2942 6.66007 78.0512 6.61957 77.7271 6.61957C76.674 6.61957 75.9855 7.18662 75.7829 8.0372C75.7424 8.23972 75.7425 8.44224 75.7425 8.68526V13.3027H72.9072V7.18662Z" fill="white"/>
<path d="M80.4013 7.10561C80.4013 5.9715 80.3608 4.99941 80.3203 4.18934H82.791L82.9126 5.44496H82.9531C83.3176 4.8779 84.2492 3.98682 85.7478 3.98682C87.611 3.98682 89.0286 5.20193 89.0286 7.91569V13.3027H86.1934V8.23972C86.1934 7.06511 85.7883 6.25503 84.7757 6.25503C84.0062 6.25503 83.5201 6.78158 83.3581 7.30813C83.2771 7.47014 83.2366 7.75367 83.2366 7.99669V13.2622H80.4013V7.10561Z" fill="white"/>
<path d="M91.7802 7.10561C91.7802 5.9715 91.7397 4.99941 91.6992 4.18934H94.089L94.2105 5.40445H94.251C94.656 4.8374 95.4256 3.98682 97.0052 3.98682C98.1798 3.98682 99.1114 4.59438 99.5165 5.52596H99.557C99.881 5.08042 100.286 4.67538 100.732 4.43236C101.218 4.14883 101.785 3.98682 102.473 3.98682C104.215 3.98682 105.552 5.20193 105.552 7.95619V13.3027H102.797V8.36123C102.797 7.02461 102.352 6.25503 101.461 6.25503C100.813 6.25503 100.327 6.70057 100.165 7.22712C100.084 7.42964 100.043 7.71317 100.043 7.95619V13.3027H97.2888V8.19921C97.2888 7.0246 96.8837 6.25503 95.9926 6.25503C95.2636 6.25503 94.818 6.82209 94.656 7.26763C94.575 7.51065 94.5345 7.75367 94.5345 7.95619V13.3027H91.7802V7.10561Z" fill="white"/>
<path d="M110.454 9.65735C110.535 10.832 111.71 11.399 113.006 11.399C113.978 11.399 114.747 11.2775 115.517 11.0345L115.881 12.9382C114.95 13.3027 113.816 13.5052 112.601 13.5052C109.522 13.5052 107.74 11.723 107.74 8.84728C107.74 6.53856 109.158 3.98682 112.358 3.98682C115.314 3.98682 116.408 6.29553 116.408 8.52324C116.408 9.00929 116.368 9.45483 116.327 9.65735H110.454ZM113.775 7.71317C113.775 7.0246 113.492 5.85 112.155 5.85C110.981 5.85 110.494 6.9436 110.413 7.71317H113.775Z" fill="white"/>
<path d="M118.554 7.10561C118.554 5.9715 118.513 4.99941 118.473 4.18934H120.943L121.065 5.44496H121.105C121.47 4.8779 122.402 3.98682 123.9 3.98682C125.763 3.98682 127.181 5.20193 127.181 7.91569V13.3027H124.346V8.23972C124.346 7.06511 123.941 6.25503 122.928 6.25503C122.159 6.25503 121.672 6.78158 121.51 7.30813C121.429 7.47014 121.389 7.75367 121.389 7.99669V13.2622H118.554V7.10561Z" fill="white"/>
<path d="M132.973 1.59668V4.18892H134.998V6.29512H132.973V9.57593C132.973 10.6695 133.216 11.1961 134.107 11.1961C134.472 11.1961 134.755 11.1556 134.958 11.1151V13.2618C134.593 13.4238 133.905 13.5048 133.095 13.5048C132.163 13.5048 131.434 13.1808 130.989 12.7352C130.462 12.2087 130.219 11.3176 130.219 10.0215V6.29512H129.004V4.18892H130.219V2.20424L132.973 1.59668Z" fill="white"/>
</svg>
