<svg width="128" height="52" viewBox="0 0 128 52" fill="none" xmlns="http://www.w3.org/2000/svg">
<path d="M43.4911 33.1055C41.96 34.5952 39.9736 35.2987 37.8631 35.2987C32.3593 35.2987 30.0005 31.4916 30.0005 27.643C29.9591 23.7531 32.4834 19.8218 37.8631 19.8218C39.8909 19.8218 41.7944 20.5667 43.3256 22.0978L41.4634 23.9186C40.4702 22.9668 39.1874 22.5116 37.8631 22.5116C34.2629 22.5116 32.7317 25.2015 32.7317 27.6844C32.7317 30.1259 34.1801 32.6916 37.8631 32.6916C39.146 32.6916 40.6357 32.1537 41.5875 31.2019L43.4911 33.1055Z" fill="#045F87"/>
<path d="M57.8944 20.1528V28.6776C57.8944 33.0641 55.2046 35.2987 51.4802 35.2987C47.9213 35.2987 44.9004 33.1468 44.9004 28.6776V20.1528H47.673V28.6776C47.673 31.3674 49.2041 32.7744 51.5215 32.7744C53.839 32.7744 55.1632 31.2433 55.1632 28.6776V20.1528H57.8944Z" fill="#045F87"/>
<path d="M73.7826 35.0089H70.472L66.1269 30.0431H63.437V35.0089H60.623V20.1113C62.9818 20.1113 65.3406 20.1527 67.6994 20.1527C71.2169 20.1941 73.0377 22.5115 73.0377 25.0772C73.0377 27.1049 72.0859 29.174 69.2719 29.7534L73.7826 34.8434V35.0089ZM63.437 22.7598V27.5187H67.6994C69.4788 27.5187 70.2651 26.3187 70.2651 25.16C70.2651 24.0013 69.4788 22.8012 67.6994 22.8012H63.437V22.7598Z" fill="#045F87"/>
<path d="M85.4527 32.1951H77.6729L76.39 35.009H73.3691L80.0317 20.1528H83.094L89.7979 35.009H86.7356L85.4527 32.1951ZM81.6042 23.2565L78.8316 29.588H84.3354L81.6042 23.2565Z" fill="#045F87"/>
<path d="M92.448 22.677H87.7305V20.1113C92.0342 20.1113 95.6345 20.1113 99.9382 20.1113V22.677H95.2207V34.9675H92.4067V22.677H92.448Z" fill="#045F87"/>
<path d="M112.724 35.009H101.592C101.592 30.0846 101.592 25.1187 101.592 20.1528H112.724V22.8841H104.406V26.3188H112.434V28.9259H104.406V32.2778H112.724V35.009Z" fill="#045F87"/>
<path d="M127.953 27.4361C128.036 31.2019 125.719 35.009 120.546 35.009C118.725 35.009 116.532 35.009 114.711 35.009V20.1528C116.532 20.1528 118.725 20.1528 120.546 20.1528C125.636 20.1528 127.912 23.7531 127.953 27.4361ZM117.484 32.2778H120.546C123.939 32.2778 125.263 29.8363 125.181 27.3947C125.098 25.0773 123.774 22.7599 120.546 22.7599H117.484V32.2778Z" fill="#045F87"/>
<path d="M33.5178 0.703613V5.6281H38.2768V0.703613H41.1736V13.5321H38.2768V8.15241H33.5178V13.5321H30.6211V0.703613H33.5178Z" fill="#00CC66"/>
<path d="M46.2648 9.76616C46.3476 10.9662 47.5476 11.5456 48.8719 11.5456C49.865 11.5456 50.6513 11.4215 51.4376 11.1732L51.81 13.1181C50.8582 13.4906 49.6995 13.6975 48.4581 13.6975C45.313 13.6975 43.4922 11.8767 43.4922 8.93852C43.4922 6.57974 44.9406 3.97266 48.2098 3.97266C51.2307 3.97266 52.348 6.33144 52.348 8.60746C52.348 9.10405 52.3066 9.55925 52.2652 9.76616H46.2648ZM49.6581 7.8212C49.6581 7.1177 49.3685 5.91762 48.0028 5.91762C46.8028 5.91762 46.3062 7.03494 46.2234 7.8212H49.6581Z" fill="#00CC66"/>
<path d="M59.8376 13.5321L59.672 12.5803H59.5893C58.9686 13.3252 58.0168 13.739 56.9408 13.739C55.0372 13.739 53.9199 12.3734 53.9199 10.8836C53.9199 8.48344 56.0718 7.32474 59.3824 7.32474V7.20059C59.3824 6.704 59.1341 6.00051 57.6857 6.00051C56.7339 6.00051 55.7407 6.33156 55.12 6.704L54.582 4.8418C55.2442 4.46936 56.4856 4.01416 58.1823 4.01416C61.286 4.01416 62.2791 5.83498 62.2791 8.02823V11.256C62.2791 12.1665 62.3205 12.9941 62.4033 13.5321H59.8376ZM59.5065 9.10417C57.9754 9.10417 56.8167 9.43523 56.8167 10.5525C56.8167 11.2974 57.3133 11.6699 57.9754 11.6699C58.6789 11.6699 59.2996 11.1733 59.4651 10.5939C59.5065 10.4284 59.5065 10.2629 59.5065 10.0973V9.10417Z" fill="#00CC66"/>
<path d="M65.0527 0H67.9495V13.532H65.0527V0Z" fill="#00CC66"/>
<path d="M73.991 1.53125V4.17971H76.0601V6.33159H73.991V9.68354C73.991 10.8009 74.2393 11.3388 75.1497 11.3388C75.5221 11.3388 75.8118 11.2975 76.0187 11.2561V13.4493C75.6463 13.6149 74.9428 13.6976 74.1152 13.6976C73.1634 13.6976 72.4185 13.3666 71.9633 12.9114C71.4253 12.3734 71.177 11.463 71.177 10.1387V6.33159H69.9355V4.17971H71.177V2.19337L73.991 1.53125Z" fill="#00CC66"/>
<path d="M78.168 0H81.0647V5.29692H81.1061C81.3958 4.8831 81.8096 4.59342 82.2648 4.34513C82.6786 4.09684 83.2166 3.97269 83.7546 3.97269C85.6168 3.97269 87.0238 5.25554 87.0238 8.02815V13.4906H84.127V8.40059C84.127 7.2005 83.7132 6.33148 82.6372 6.33148C81.8924 6.33148 81.3958 6.82806 81.1889 7.32465C81.1061 7.53156 81.1061 7.77985 81.1061 7.98676V13.4906H78.2094V0H78.168Z" fill="#00CC66"/>
<path d="M96.7913 13.2837C96.2947 13.5319 95.3016 13.6975 94.1843 13.6975C91.1634 13.6975 89.2598 11.8767 89.2598 8.93852C89.2598 6.2073 91.122 3.97266 94.5981 3.97266C95.343 3.97266 96.212 4.0968 96.7913 4.3451L96.3361 6.49697C96.0051 6.33144 95.4671 6.2073 94.7222 6.2073C93.1911 6.2073 92.1979 7.28323 92.2393 8.81437C92.2393 10.511 93.398 11.4215 94.805 11.4215C95.5085 11.4215 96.0051 11.2973 96.4603 11.1318L96.7913 13.2837Z" fill="#00CC66"/>
<path d="M104.199 13.5321L104.033 12.5803H103.992C103.371 13.3252 102.419 13.739 101.343 13.739C99.4396 13.739 98.3223 12.3734 98.3223 10.8836C98.3223 8.48344 100.474 7.32474 103.785 7.32474V7.20059C103.785 6.704 103.536 6.00051 102.088 6.00051C101.136 6.00051 100.143 6.33156 99.5223 6.704L98.9844 4.8418C99.6465 4.46936 100.888 4.01416 102.585 4.01416C105.688 4.01416 106.681 5.83498 106.681 8.02823V11.256C106.681 12.1665 106.723 12.9941 106.806 13.5321H104.199ZM103.867 9.10417C102.336 9.10417 101.178 9.43523 101.178 10.5525C101.178 11.2974 101.674 11.6699 102.336 11.6699C103.04 11.6699 103.661 11.1733 103.826 10.5939C103.867 10.4284 103.867 10.2629 103.867 10.0973V9.10417Z" fill="#00CC66"/>
<path d="M109.413 7.28335C109.413 5.91774 109.371 5.00733 109.33 4.22107H111.813L111.896 5.91774H111.979C112.434 4.55213 113.592 4.01416 114.503 4.01416C114.751 4.01416 114.917 4.01416 115.124 4.05554V6.78677C114.917 6.74539 114.668 6.704 114.337 6.704C113.261 6.704 112.558 7.28335 112.351 8.15238C112.31 8.35929 112.31 8.5662 112.31 8.8145V13.5321H109.413V7.28335Z" fill="#00CC66"/>
<path d="M119.179 9.76616C119.262 10.9662 120.462 11.5456 121.786 11.5456C122.779 11.5456 123.565 11.4215 124.352 11.1732L124.724 13.1181C123.772 13.4906 122.614 13.6975 121.372 13.6975C118.227 13.6975 116.406 11.8767 116.406 8.93852C116.406 6.57974 117.855 3.97266 121.124 3.97266C124.145 3.97266 125.262 6.33144 125.262 8.60746C125.262 9.10405 125.221 9.55925 125.179 9.76616H119.179ZM122.614 7.8212C122.614 7.1177 122.324 5.91762 120.958 5.91762C119.758 5.91762 119.262 7.03494 119.179 7.8212H122.614Z" fill="#00CC66"/>
<path d="M7 24L10 27L20 17" stroke="#00CC66" stroke-width="2" stroke-linecap="round" stroke-linejoin="round"/>
<path d="M19 25V32C19 32.5304 18.7893 33.0391 18.4142 33.4142C18.0391 33.7893 17.5304 34 17 34H3C2.46957 34 1.96086 33.7893 1.58579 33.4142C1.21071 33.0391 1 32.5304 1 32V18C1 17.4696 1.21071 16.9609 1.58579 16.5858C1.96086 16.2107 2.46957 16 3 16H14" stroke="#045F87" stroke-width="2" stroke-linecap="round" stroke-linejoin="round"/>
<path d="M32.4121 45.0303H32.9004C33.3789 45.0303 33.7321 44.9505 33.96 44.791C34.1878 44.6315 34.3018 44.3809 34.3018 44.0391C34.3018 43.7005 34.1846 43.4596 33.9502 43.3164C33.7191 43.1732 33.3594 43.1016 32.8711 43.1016H32.4121V45.0303ZM32.4121 46.2607V49H30.8984V41.8613H32.9785C33.9486 41.8613 34.6663 42.0387 35.1318 42.3936C35.5973 42.7451 35.8301 43.2806 35.8301 44C35.8301 44.4199 35.7145 44.7943 35.4834 45.123C35.2523 45.4486 34.9251 45.7041 34.502 45.8896C35.5762 47.4945 36.276 48.5312 36.6016 49H34.9219L33.2178 46.2607H32.4121ZM41.6113 49H37.5V41.8613H41.6113V43.1016H39.0137V44.6689H41.4307V45.9092H39.0137V47.75H41.6113V49ZM49.585 45.4209C49.585 46.2607 49.4352 46.9655 49.1357 47.5352C48.8395 48.1016 48.4033 48.5166 47.8271 48.7803L49.5459 50.6992H47.6074L46.2988 49.0977H46.1865C45.0928 49.0977 44.2529 48.7803 43.667 48.1455C43.0811 47.5107 42.7881 46.5993 42.7881 45.4111C42.7881 44.223 43.0811 43.3164 43.667 42.6914C44.2562 42.0632 45.0993 41.749 46.1963 41.749C47.2933 41.749 48.1315 42.0648 48.7109 42.6963C49.2936 43.3278 49.585 44.236 49.585 45.4209ZM44.375 45.4209C44.375 46.2184 44.5264 46.819 44.8291 47.2227C45.1318 47.6263 45.5843 47.8281 46.1865 47.8281C47.3942 47.8281 47.998 47.0257 47.998 45.4209C47.998 43.8128 47.3975 43.0088 46.1963 43.0088C45.5941 43.0088 45.14 43.2122 44.834 43.6191C44.528 44.0228 44.375 44.6234 44.375 45.4209ZM56.875 41.8613V46.4805C56.875 47.0078 56.7562 47.4701 56.5186 47.8672C56.2842 48.2643 55.944 48.5687 55.498 48.7803C55.0521 48.9919 54.5247 49.0977 53.916 49.0977C52.998 49.0977 52.2852 48.8633 51.7773 48.3945C51.2695 47.9225 51.0156 47.278 51.0156 46.4609V41.8613H52.5244V46.2314C52.5244 46.7816 52.6351 47.1852 52.8564 47.4424C53.0778 47.6995 53.444 47.8281 53.9551 47.8281C54.4499 47.8281 54.8079 47.6995 55.0293 47.4424C55.2539 47.182 55.3662 46.7751 55.3662 46.2217V41.8613H56.875ZM62.7344 49H58.623V41.8613H62.7344V43.1016H60.1367V44.6689H62.5537V45.9092H60.1367V47.75H62.7344V49ZM68.4424 47.0176C68.4424 47.6621 68.2096 48.1699 67.7441 48.541C67.2819 48.9121 66.6374 49.0977 65.8105 49.0977C65.0488 49.0977 64.375 48.9544 63.7891 48.668V47.2617C64.2708 47.4766 64.6777 47.6279 65.0098 47.7158C65.3451 47.8037 65.651 47.8477 65.9277 47.8477C66.2598 47.8477 66.5137 47.7842 66.6895 47.6572C66.8685 47.5303 66.958 47.3415 66.958 47.0908C66.958 46.9508 66.9189 46.8271 66.8408 46.7197C66.7627 46.609 66.6471 46.5033 66.4941 46.4023C66.3444 46.3014 66.0368 46.1403 65.5713 45.9189C65.1351 45.7139 64.8079 45.5169 64.5898 45.3281C64.3717 45.1393 64.1976 44.9196 64.0674 44.6689C63.9372 44.4183 63.8721 44.1253 63.8721 43.79C63.8721 43.1585 64.0853 42.6621 64.5117 42.3008C64.9414 41.9395 65.5339 41.7588 66.2891 41.7588C66.6602 41.7588 67.0133 41.8027 67.3486 41.8906C67.6872 41.9785 68.0404 42.1022 68.4082 42.2617L67.9199 43.4385C67.5391 43.2822 67.2233 43.1732 66.9727 43.1113C66.7253 43.0495 66.4811 43.0186 66.2402 43.0186C65.9538 43.0186 65.734 43.0853 65.5811 43.2188C65.4281 43.3522 65.3516 43.5264 65.3516 43.7412C65.3516 43.8747 65.3825 43.9919 65.4443 44.0928C65.5062 44.1904 65.6038 44.2865 65.7373 44.3809C65.874 44.472 66.1947 44.638 66.6992 44.8789C67.3665 45.1979 67.8239 45.5186 68.0713 45.8408C68.3187 46.1598 68.4424 46.5521 68.4424 47.0176ZM72.4902 49H70.9766V43.1211H69.0381V41.8613H74.4287V43.1211H72.4902V49ZM79.6387 49H75.5273V41.8613H79.6387V43.1016H77.041V44.6689H79.458V45.9092H77.041V47.75H79.6387V49ZM87.0557 45.3623C87.0557 46.5374 86.7204 47.4375 86.0498 48.0625C85.3825 48.6875 84.4173 49 83.1543 49H81.1328V41.8613H83.374C84.5394 41.8613 85.4443 42.1689 86.0889 42.7842C86.7334 43.3994 87.0557 44.2588 87.0557 45.3623ZM85.4834 45.4014C85.4834 43.8682 84.8063 43.1016 83.4521 43.1016H82.6465V47.75H83.2959C84.7542 47.75 85.4834 46.9671 85.4834 45.4014Z" fill="#045F87"/>
</svg>
