<svg width="124" height="35" viewBox="0 0 124 35" fill="none" xmlns="http://www.w3.org/2000/svg">
<path d="M40.7319 32.2297C39.2413 33.68 37.3075 34.3649 35.2528 34.3649C29.8945 34.3649 27.5981 30.6585 27.5981 26.9117C27.5579 23.1247 30.0154 19.2974 35.2528 19.2974C37.2269 19.2974 39.0801 20.0225 40.5708 21.5132L38.7578 23.2858C37.7909 22.3592 36.542 21.9161 35.2528 21.9161C31.7478 21.9161 30.2571 24.5348 30.2571 26.952C30.2974 29.329 31.6672 31.8671 35.2528 31.8671C36.5017 31.8671 37.9521 31.3434 38.8787 30.4167L40.7319 32.2297Z" fill="#045F87"/>
<path d="M54.7519 19.6201V27.9194C54.7519 32.1899 52.1332 34.3654 48.5073 34.3654C45.0426 34.3654 42.1016 32.2704 42.1016 27.9194V19.6201H44.8008V27.9194C44.8008 30.5381 46.2915 31.9078 48.5476 31.9078C50.8037 31.9078 52.0929 30.4172 52.0929 27.9194V19.6201H54.7519Z" fill="#045F87"/>
<path d="M70.2216 34.0428H66.9986L62.7684 29.2083H60.1497V34.0428H57.4102V19.5796C59.7066 19.5796 62.0029 19.6199 64.2993 19.6199C67.7238 19.6602 69.4964 21.9163 69.4964 24.4141C69.4964 26.3882 68.5698 28.4026 65.8303 28.9666L70.2216 33.922V34.0428ZM60.1497 22.1177V26.7508H64.2993C66.0317 26.7508 66.7972 25.5824 66.7972 24.4544C66.7972 23.3263 66.0317 22.158 64.2993 22.158H60.1497V22.1177Z" fill="#045F87"/>
<path d="M81.6234 31.3033H74.0493L72.8004 34.0428H69.8594L76.3457 19.5796H79.327L85.8133 34.0428H82.832L81.6234 31.3033ZM77.8363 22.6415L75.1371 28.8055H80.4953L77.8363 22.6415Z" fill="#045F87"/>
<path d="M88.4326 22.0774H83.8398V19.5796C88.0298 19.5796 91.5348 19.5796 95.7247 19.5796V22.0774H91.1319V34.0428H88.4326V22.0774Z" fill="#045F87"/>
<path d="M108.173 34.0428H97.3359C97.3359 29.2486 97.3359 24.4141 97.3359 19.5796H108.173V22.2386H100.075V25.5824H107.891V28.1206H100.075V31.3839H108.173V34.0428Z" fill="#045F87"/>
<path d="M122.999 26.7105C123.08 30.3767 120.824 34.0831 115.788 34.0831C114.015 34.0831 111.88 34.0831 110.107 34.0831V19.5796C111.88 19.5796 114.015 19.5796 115.788 19.5796C120.703 19.5796 122.919 23.1249 122.999 26.7105ZM112.807 31.4242H115.788C119.092 31.4242 120.381 29.0472 120.3 26.6702C120.22 24.4141 118.93 22.158 115.788 22.158H112.807V31.4242Z" fill="#045F87"/>
<path fill-rule="evenodd" clip-rule="evenodd" d="M0.0402876 19.9021L0 16.5582C0 16.1956 0.201438 15.9136 0.483452 15.9136H2.82013C3.10215 15.9136 3.30359 16.1956 3.30359 16.5179L3.34387 19.8618C3.34387 20.2244 3.14244 20.5064 2.86042 20.5064H0.523739C0.241726 20.5064 0.0402876 20.2244 0.0402876 19.9021Z" fill="#00CC66"/>
<path fill-rule="evenodd" clip-rule="evenodd" d="M0.0402876 26.3483L0 23.0045C0 22.6419 0.201438 22.3599 0.483452 22.3599H2.82013C3.10215 22.3599 3.30359 22.6419 3.30359 22.9642L3.34387 26.3081C3.34387 26.6706 3.14244 26.9527 2.86042 26.9527H0.523739C0.241726 26.9527 0.0402876 26.6706 0.0402876 26.3483Z" fill="#00CC66"/>
<path fill-rule="evenodd" clip-rule="evenodd" d="M4.35083 19.862L4.31055 16.5181C4.31055 16.1555 4.51198 15.8735 4.794 15.8735H7.13068C7.4127 15.8735 7.61413 16.1555 7.61413 16.4778L7.65442 19.8217C7.65442 20.1843 7.45298 20.4663 7.17097 20.4663H4.83429C4.55227 20.4663 4.35083 20.1843 4.35083 19.862Z" fill="#045F87"/>
<path fill-rule="evenodd" clip-rule="evenodd" d="M8.54029 30.7394L8.5 27.3956C8.5 27.033 8.70144 26.751 8.98345 26.751H11.3201C11.6021 26.751 11.8036 27.033 11.8036 27.3553L11.8439 30.6992C11.8439 31.0618 11.6424 31.3438 11.3604 31.3438H9.02374C8.74173 31.3841 8.54029 31.102 8.54029 30.7394Z" fill="#00CC66"/>
<path fill-rule="evenodd" clip-rule="evenodd" d="M8.50123 25.3L8.46094 21.9561C8.46094 21.5935 8.66238 21.3115 8.94439 21.3115H11.2811C11.5631 21.3115 11.7645 21.5935 11.7645 21.9158L11.8048 25.2597C11.8048 25.6223 11.6034 25.9043 11.3214 25.9043H8.98468C8.70266 25.9043 8.50123 25.6223 8.50123 25.3Z" fill="#045F87"/>
<path fill-rule="evenodd" clip-rule="evenodd" d="M8.46021 19.821L8.41992 16.4771C8.41992 16.1145 8.62136 15.8325 8.90337 15.8325H11.2401C11.5221 15.8325 11.7235 16.1145 11.7235 16.4368L11.7638 19.7807C11.7638 20.1433 11.5624 20.4253 11.2803 20.4253H8.94366C8.66165 20.4656 8.46021 20.1836 8.46021 19.821Z" fill="#00CC66"/>
<path fill-rule="evenodd" clip-rule="evenodd" d="M12.6497 30.6989L12.6094 27.3551C12.6094 26.9925 12.8108 26.7104 13.0928 26.7104H15.4295C15.7115 26.7104 15.913 26.9925 15.913 27.3148L15.9532 30.6586C15.9532 31.0212 15.7518 31.3032 15.4698 31.3032H13.1331C12.8511 31.3435 12.6497 31.0615 12.6497 30.6989Z" fill="#045F87"/>
<path fill-rule="evenodd" clip-rule="evenodd" d="M12.6106 25.26L12.5703 21.9161C12.5703 21.5535 12.7718 21.2715 13.0538 21.2715H15.3904C15.6725 21.2715 15.8739 21.5535 15.8739 21.8758L15.9142 25.2197C15.9142 25.5823 15.7127 25.8643 15.4307 25.8643H13.0941C12.812 25.8643 12.6106 25.6226 12.6106 25.26Z" fill="#00CC66"/>
<path fill-rule="evenodd" clip-rule="evenodd" d="M12.5696 19.821L12.5293 16.4771C12.5293 16.1145 12.7307 15.8325 13.0127 15.8325H15.3494C15.6314 15.8325 15.8329 16.1145 15.8329 16.4368L15.8732 19.7807C15.8732 20.1433 15.6717 20.4253 15.3897 20.4253H13.053C12.771 20.4253 12.5696 20.1433 12.5696 19.821Z" fill="#045F87"/>
<path fill-rule="evenodd" clip-rule="evenodd" d="M4.02857 14.2614L3.98828 10.9176C3.98828 10.555 4.18972 10.2729 4.47173 10.2729H6.80842C7.09043 10.2729 7.29187 10.555 7.29187 10.8773L7.33216 14.2211C7.33216 14.5837 7.13072 14.8657 6.8487 14.8657H4.51202C4.23001 14.906 4.02857 14.624 4.02857 14.2614Z" fill="#00CC66"/>
<path fill-rule="evenodd" clip-rule="evenodd" d="M8.41919 14.2214L8.37891 10.8775C8.37891 10.5149 8.58034 10.2329 8.86236 10.2329H11.199C11.4811 10.2329 11.6825 10.5149 11.6825 10.8372L11.7228 14.1811C11.7228 14.5437 11.5213 14.8257 11.2393 14.8257H8.90265C8.62063 14.8257 8.41919 14.5437 8.41919 14.2214Z" fill="#00CC66"/>
<path fill-rule="evenodd" clip-rule="evenodd" d="M12.5305 14.1809L12.4902 10.837C12.4902 10.4744 12.6917 10.1924 12.9737 10.1924H15.3104C15.5924 10.1924 15.7938 10.4744 15.7938 10.7967L15.8341 14.1406C15.8341 14.5032 15.6327 14.7852 15.3507 14.7852H13.014C12.732 14.8255 12.5305 14.5435 12.5305 14.1809Z" fill="#00CC66"/>
<path fill-rule="evenodd" clip-rule="evenodd" d="M16.5579 25.2194L16.5176 21.8756C16.5176 21.513 16.719 21.231 17.001 21.231H19.3377C19.6197 21.231 19.8212 21.513 19.8212 21.8353L19.8615 25.1791C19.8615 25.5417 19.66 25.8237 19.378 25.8237H17.0413C16.7593 25.864 16.5579 25.582 16.5579 25.2194Z" fill="#045F87"/>
<path fill-rule="evenodd" clip-rule="evenodd" d="M16.5188 19.7814L16.4785 16.4376C16.4785 16.075 16.68 15.793 16.962 15.793H19.2987C19.5807 15.793 19.7821 16.075 19.7821 16.3973L19.8224 19.7412C19.8224 20.1037 19.621 20.3858 19.3389 20.3858H17.0023C16.7202 20.3858 16.5188 20.1037 16.5188 19.7814Z" fill="#00CC66"/>
<path fill-rule="evenodd" clip-rule="evenodd" d="M16.4778 14.1408L16.4375 10.7969C16.4375 10.4344 16.6389 10.1523 16.921 10.1523H19.2576C19.5396 10.1523 19.7411 10.4344 19.7411 10.7567L19.7814 14.1005C19.7814 14.4631 19.5799 14.7451 19.2979 14.7451H16.9612C16.6792 14.7854 16.4778 14.5034 16.4778 14.1408Z" fill="#045F87"/>
<path d="M18.4883 23.1947L13.7891 28.6118L14.3369 29.087L19.0361 23.6699L18.4883 23.1947Z" fill="#045F87"/>
<path d="M17.9976 12.8519L13.2969 18.2676L13.8445 18.7429L18.5453 13.3272L17.9976 12.8519Z" fill="#045F87"/>
<path d="M31.0623 0.644531V5.43876H35.6954V0.644531H38.5155V13.1337H35.6954V7.89631H31.0623V13.1337H28.2422V0.644531H31.0623Z" fill="#00CC66"/>
<path d="M43.4317 9.50795C43.5123 10.6763 44.6806 11.2403 45.9698 11.2403C46.9367 11.2403 47.7022 11.1194 48.4676 10.8777L48.8302 12.7712C47.9036 13.1338 46.7756 13.3353 45.5669 13.3353C42.5051 13.3353 40.7324 11.5626 40.7324 8.70219C40.7324 6.4058 42.1425 3.86768 45.3252 3.86768C48.2662 3.86768 49.354 6.16407 49.354 8.37989C49.354 8.86334 49.3137 9.30651 49.2734 9.50795H43.4317ZM46.7756 7.57414C46.7756 6.88925 46.4936 5.72091 45.1641 5.72091C43.9957 5.72091 43.5123 6.80867 43.4317 7.57414H46.7756Z" fill="#00CC66"/>
<path d="M56.6447 13.1338L56.4835 12.2072H56.4432C55.8389 12.9324 54.9123 13.3353 53.8648 13.3353C52.0116 13.3353 50.9238 12.0058 50.9238 10.5554C50.9238 8.21874 53.0188 7.09069 56.2418 7.09069V6.96982C56.2418 6.48637 56.0001 5.80148 54.59 5.80148C53.6634 5.80148 52.6965 6.12378 52.0922 6.48637L51.5684 4.67343C52.213 4.31084 53.4217 3.86768 55.0735 3.86768C58.095 3.86768 59.0619 5.64033 59.0619 7.77558V10.918C59.0619 11.8043 59.1022 12.6101 59.1828 13.1338H56.6447ZM56.3224 8.86334C54.8317 8.86334 53.7037 9.18564 53.7037 10.2734C53.7037 10.9986 54.1871 11.3612 54.8317 11.3612C55.5166 11.3612 56.1209 10.8777 56.2821 10.3137C56.3224 10.1525 56.3224 9.9914 56.3224 9.83025V8.86334Z" fill="#00CC66"/>
<path d="M61.7207 0H64.5408V13.1338H61.7207V0Z" fill="#00CC66"/>
<path d="M70.4228 1.49121V4.06962H72.4372V6.16457H70.4228V9.42787C70.4228 10.5156 70.6645 11.0394 71.5509 11.0394C71.9134 11.0394 72.1955 10.9991 72.3969 10.9588V13.094C72.0343 13.2552 71.3494 13.3358 70.5437 13.3358C69.617 13.3358 68.8919 13.0135 68.4487 12.5703C67.925 12.0466 67.6832 11.1602 67.6832 9.87103V6.16457H66.4746V4.06962H67.6832V2.09553L70.4228 1.49121Z" fill="#00CC66"/>
<path d="M74.5332 0H77.3533V5.15682H77.3936C77.6756 4.75394 78.0785 4.47193 78.5217 4.2302C78.9246 3.98848 79.4483 3.86762 79.972 3.86762C81.785 3.86762 83.1548 5.11653 83.1548 7.81581V13.1338H80.3346V8.13811C80.3346 6.96977 79.9317 6.12373 78.8843 6.12373C78.1591 6.12373 77.6756 6.60717 77.4742 7.09063C77.3936 7.29206 77.3936 7.53379 77.3936 7.73523V13.1338H74.5735V0H74.5332Z" fill="#00CC66"/>
<path d="M92.6214 12.9324C92.138 13.1741 91.1711 13.3353 90.0833 13.3353C87.1423 13.3353 85.2891 11.5626 85.2891 8.70219C85.2891 6.04321 87.102 3.86768 90.4862 3.86768C91.2113 3.86768 92.0574 3.98854 92.6214 4.23026L92.1783 6.32522C91.8559 6.16407 91.3322 6.04321 90.607 6.04321C89.1164 6.04321 88.1495 7.09069 88.1898 8.58133C88.1898 10.2331 89.3178 11.1195 90.6876 11.1195C91.3725 11.1195 91.856 10.9986 92.2991 10.8374L92.6214 12.9324Z" fill="#00CC66"/>
<path d="M99.8732 13.1338L99.712 12.2072H99.6717C99.0674 12.9324 98.1408 13.3353 97.0933 13.3353C95.2401 13.3353 94.1523 12.0058 94.1523 10.5554C94.1523 8.21874 96.2473 7.09069 99.4703 7.09069V6.96982C99.4703 6.48637 99.2286 5.80148 97.8185 5.80148C96.8919 5.80148 95.925 6.12378 95.3207 6.48637L94.7969 4.67343C95.4416 4.31084 96.6502 3.86768 98.302 3.86768C101.324 3.86768 102.29 5.64033 102.29 7.77558V10.918C102.29 11.8043 102.331 12.6101 102.411 13.1338H99.8732ZM99.5106 8.86334C98.02 8.86334 96.8919 9.18564 96.8919 10.2734C96.8919 10.9986 97.3754 11.3612 98.02 11.3612C98.7048 11.3612 99.3092 10.8777 99.4703 10.3137C99.5106 10.1525 99.5106 9.9914 99.5106 9.83025V8.86334Z" fill="#00CC66"/>
<path d="M104.95 7.0504C104.95 5.7209 104.909 4.83458 104.869 4.06911H107.286L107.367 5.72091H107.448C107.931 4.39142 109.019 3.86768 109.905 3.86768C110.147 3.86768 110.308 3.86768 110.509 3.90797V6.56695C110.308 6.52666 110.066 6.48637 109.744 6.48637C108.696 6.48637 108.012 7.0504 107.81 7.89644C107.77 8.09788 107.77 8.29932 107.77 8.54104V13.1338H104.95V7.0504Z" fill="#00CC66"/>
<path d="M114.457 9.50795C114.538 10.6763 115.706 11.2403 116.995 11.2403C117.962 11.2403 118.728 11.1194 119.493 10.8777L119.856 12.7712C118.929 13.1338 117.801 13.3353 116.592 13.3353C113.53 13.3353 111.758 11.5626 111.758 8.70219C111.758 6.4058 113.168 3.86768 116.351 3.86768C119.292 3.86768 120.379 6.16407 120.379 8.37989C120.379 8.86334 120.339 9.30651 120.299 9.50795H114.457ZM117.761 7.57414C117.761 6.88925 117.479 5.72091 116.149 5.72091C114.981 5.72091 114.497 6.80867 114.417 7.57414H117.761Z" fill="#00CC66"/>
</svg>
