<svg width="130" height="52" viewBox="0 0 130 52" fill="none" xmlns="http://www.w3.org/2000/svg">
<path d="M43.6685 32.954C42.1172 34.4633 40.1048 35.1761 37.9665 35.1761C32.3903 35.1761 30.0005 31.3188 30.0005 27.4197C29.9586 23.4786 32.5161 19.4956 37.9665 19.4956C40.0209 19.4956 41.9495 20.2503 43.5008 21.8016L41.6141 23.6463C40.6079 22.682 39.3082 22.2208 37.9665 22.2208C34.3189 22.2208 32.7676 24.946 32.7676 27.4616C32.8096 29.9353 34.2351 32.5766 37.9665 32.5766C39.2662 32.5766 40.7756 32.0316 41.7399 31.0673L43.6685 32.954Z" fill="#045F87"/>
<path d="M58.2606 19.8311V28.4679C58.2606 32.9121 55.5354 35.1761 51.762 35.1761C48.1563 35.1761 45.0957 32.9959 45.0957 28.4679V19.8311H47.9048V28.4679C47.9048 31.1931 49.456 32.6186 51.8039 32.6186C54.1518 32.6186 55.4934 31.0673 55.4934 28.4679V19.8311H58.2606Z" fill="#045F87"/>
<path d="M74.3599 34.8411H71.0058L66.6035 29.8099H63.8783V34.8411H61.0273V19.7896C63.4171 19.7896 65.8069 19.8315 68.1967 19.8315C71.7605 19.8734 73.6052 22.2213 73.6052 24.8207C73.6052 26.8751 72.6409 28.9714 69.7899 29.5584L74.3599 34.7153V34.8411ZM63.8783 22.4309V27.2524H68.1967C69.9996 27.2524 70.7962 26.0366 70.7962 24.8626C70.7962 23.6887 69.9996 22.4728 68.1967 22.4728H63.8783V22.4309Z" fill="#045F87"/>
<path d="M86.1819 32.0316H78.2998L77.0001 34.8826H73.9395L80.6896 19.8311H83.7921L90.5842 34.8407H87.4817L86.1819 32.0316ZM82.2828 22.9755L79.4737 29.3903H85.0499L82.2828 22.9755Z" fill="#045F87"/>
<path d="M93.2679 22.389H88.4883V19.7896C92.8486 19.7896 96.4962 19.7896 100.857 19.7896V22.389H96.077V34.8411H93.226V22.389H93.2679Z" fill="#045F87"/>
<path d="M113.811 34.8411H102.533C102.533 29.8519 102.533 24.8207 102.533 19.7896H113.811V22.5567H105.384V26.0366H113.518V28.6779H105.384V32.074H113.811V34.8411Z" fill="#045F87"/>
<path d="M129.241 27.2105C129.324 31.0258 126.977 34.883 121.736 34.883C119.891 34.883 117.669 34.883 115.824 34.883V19.7896C117.669 19.7896 119.891 19.7896 121.736 19.7896C126.893 19.7896 129.199 23.4791 129.241 27.2105ZM118.633 32.1159H121.736C125.174 32.1159 126.515 29.6422 126.432 27.1686C126.348 24.8207 125.006 22.4728 121.736 22.4728H118.633V32.1159Z" fill="#045F87"/>
<path d="M32.9339 0.670898V5.66013H38.1747V0.670898H40.4388V13.123H38.1747V7.63067H32.9339V13.123H30.6699V0.670898H32.9339Z" fill="#C3457A"/>
<path d="M51.9691 8.51082C51.9691 11.823 49.6632 13.2904 47.3572 13.2904C44.7997 13.2904 42.8711 11.5295 42.8711 8.67853C42.8711 5.74368 44.7997 3.89893 47.5249 3.89893C50.1663 3.89893 51.9691 5.78561 51.9691 8.51082ZM45.177 8.6366C45.177 10.3556 46.0156 11.6972 47.3991 11.6972C48.6989 11.6972 49.5793 10.4394 49.5793 8.6366C49.5793 7.25303 48.9504 5.61791 47.3991 5.61791C45.8479 5.57598 45.177 7.12725 45.177 8.6366Z" fill="#C3457A"/>
<path d="M54.1917 11.0265C54.6948 11.32 55.701 11.6554 56.4976 11.6554C57.5038 11.6554 57.9231 11.2361 57.9231 10.6491C57.9231 10.0202 57.5458 9.72675 56.4557 9.34941C54.6948 8.72052 53.982 7.79814 53.982 6.74998C53.982 5.15678 55.2817 3.94092 57.3781 3.94092C58.3843 3.94092 59.2228 4.19248 59.7679 4.48596L59.3067 6.07916C58.9293 5.86953 58.2166 5.57605 57.42 5.57605C56.6234 5.57605 56.1622 5.95338 56.1622 6.49842C56.1622 7.08539 56.5815 7.33695 57.7135 7.75621C59.3486 8.34318 60.1033 9.18171 60.1033 10.5234C60.1033 12.1585 58.8455 13.3324 56.4557 13.3324C55.3656 13.3324 54.4013 13.0809 53.7305 12.7035L54.1917 11.0265Z" fill="#C3457A"/>
<path d="M62.4491 7.08533C62.4491 5.91139 62.4072 4.94708 62.3652 4.10856H64.3777L64.5035 5.49213H64.5454C65.2162 4.48589 66.2644 3.89893 67.606 3.89893C69.6604 3.89893 71.3794 5.65983 71.3794 8.4689C71.3794 11.6972 69.325 13.2904 67.2706 13.2904C66.1386 13.2904 65.2162 12.8292 64.755 12.0746H64.7131V16.7703H62.4491V7.08533ZM64.7131 9.34935C64.7131 9.55898 64.7131 9.76861 64.797 9.97824C65.0066 10.9006 65.8451 11.5714 66.8094 11.5714C68.2349 11.5714 69.1154 10.3556 69.1154 8.59467C69.1154 7.00147 68.3607 5.70176 66.8933 5.70176C65.9709 5.70176 65.0904 6.37258 64.8808 7.37881C64.8389 7.54652 64.797 7.75615 64.797 7.96578V9.34935H64.7131Z" fill="#C3457A"/>
<path d="M76.1181 1.59331C76.1181 2.26413 75.6149 2.80917 74.8183 2.80917C74.0637 2.80917 73.5605 2.26413 73.5605 1.59331C73.5605 0.880557 74.0637 0.377441 74.8183 0.377441C75.6149 0.377441 76.0761 0.922484 76.1181 1.59331ZM73.6863 13.0811V4.10889H75.9923V13.0811H73.6863Z" fill="#C3457A"/>
<path d="M81.4847 1.55127V4.10878H83.6229V5.78583H81.4847V9.76883C81.4847 10.8589 81.7782 11.4459 82.6586 11.4459C83.036 11.4459 83.3295 11.404 83.5391 11.3201L83.581 13.0391C83.2456 13.1649 82.6586 13.2487 81.9459 13.2487C81.1074 13.2487 80.3946 12.9552 79.9754 12.494C79.5142 11.9909 79.2626 11.1524 79.2626 9.97846V5.82776H77.9629V4.1507H79.2626V2.09631L81.4847 1.55127Z" fill="#C3457A"/>
<path d="M90.8769 13.0808L90.7091 12.0746H90.6672C90.1222 12.7873 89.1579 13.2904 88.0259 13.2904C86.223 13.2904 85.2168 11.9907 85.2168 10.6071C85.2168 8.34312 87.2293 7.21111 90.5414 7.21111V7.0434C90.5414 6.45643 90.2899 5.49213 88.6967 5.49213C87.8162 5.49213 86.8939 5.78561 86.265 6.16295L85.8038 4.69553C86.4746 4.27626 87.6485 3.89893 89.0321 3.89893C91.925 3.89893 92.7216 5.74368 92.7216 7.6723V10.9006C92.7216 11.6972 92.7635 12.4938 92.8474 13.0389H90.8769V13.0808ZM90.5834 8.72045C88.9902 8.67853 87.4389 9.01394 87.4389 10.3975C87.4389 11.278 88.0259 11.6972 88.7386 11.6972C89.661 11.6972 90.2899 11.1103 90.4995 10.4814C90.5414 10.3137 90.5834 10.1459 90.5834 9.97824V8.72045Z" fill="#C3457A"/>
<path d="M95.6562 0H97.9622V13.081H95.6562V0Z" fill="#C3457A"/>
<path d="M103.286 1.59331C103.286 2.26413 102.783 2.80917 101.986 2.80917C101.232 2.80917 100.729 2.26413 100.729 1.59331C100.729 0.880557 101.232 0.377441 101.986 0.377441C102.783 0.377441 103.244 0.922484 103.286 1.59331ZM100.854 13.0811V4.10889H103.16V13.0811H100.854Z" fill="#C3457A"/>
<path d="M108.653 1.55127V4.10878H110.791V5.78583H108.653V9.76883C108.653 10.8589 108.946 11.4459 109.827 11.4459C110.204 11.4459 110.497 11.404 110.707 11.3201L110.749 13.0391C110.414 13.1649 109.827 13.2487 109.114 13.2487C108.275 13.2487 107.563 12.9552 107.143 12.494C106.682 11.9909 106.431 11.1524 106.431 9.97846V5.82776H105.131V4.1507H106.431V2.09631L108.653 1.55127Z" fill="#C3457A"/>
<path d="M114.521 4.1084L116.157 8.92993C116.324 9.47497 116.534 10.1458 116.66 10.6908H116.702C116.869 10.1877 116.995 9.51689 117.163 8.92993L118.546 4.15032H120.978L118.714 10.2716C117.498 13.6257 116.66 15.135 115.57 16.0574C114.689 16.854 113.767 17.1475 113.18 17.2313L112.677 15.3027C113.054 15.2189 113.557 15.0092 114.018 14.6738C114.438 14.3804 114.941 13.8772 115.234 13.2483C115.318 13.0806 115.402 12.9549 115.402 12.8291C115.402 12.7452 115.402 12.6194 115.276 12.3679L112.006 4.1084H114.521Z" fill="#C3457A"/>
<path d="M7 24L10 27L20 17" stroke="#C3457A" stroke-width="2" stroke-linecap="round" stroke-linejoin="round"/>
<path d="M19 25V32C19 32.5304 18.7893 33.0391 18.4142 33.4142C18.0391 33.7893 17.5304 34 17 34H3C2.46957 34 1.96086 33.7893 1.58579 33.4142C1.21071 33.0391 1 32.5304 1 32V18C1 17.4696 1.21071 16.9609 1.58579 16.5858C1.96086 16.2107 2.46957 16 3 16H14" stroke="#045F87" stroke-width="2" stroke-linecap="round" stroke-linejoin="round"/>
<path d="M32.4121 45.0303H32.9004C33.3789 45.0303 33.7321 44.9505 33.96 44.791C34.1878 44.6315 34.3018 44.3809 34.3018 44.0391C34.3018 43.7005 34.1846 43.4596 33.9502 43.3164C33.7191 43.1732 33.3594 43.1016 32.8711 43.1016H32.4121V45.0303ZM32.4121 46.2607V49H30.8984V41.8613H32.9785C33.9486 41.8613 34.6663 42.0387 35.1318 42.3936C35.5973 42.7451 35.8301 43.2806 35.8301 44C35.8301 44.4199 35.7145 44.7943 35.4834 45.123C35.2523 45.4486 34.9251 45.7041 34.502 45.8896C35.5762 47.4945 36.276 48.5312 36.6016 49H34.9219L33.2178 46.2607H32.4121ZM41.6113 49H37.5V41.8613H41.6113V43.1016H39.0137V44.6689H41.4307V45.9092H39.0137V47.75H41.6113V49ZM49.585 45.4209C49.585 46.2607 49.4352 46.9655 49.1357 47.5352C48.8395 48.1016 48.4033 48.5166 47.8271 48.7803L49.5459 50.6992H47.6074L46.2988 49.0977H46.1865C45.0928 49.0977 44.2529 48.7803 43.667 48.1455C43.0811 47.5107 42.7881 46.5993 42.7881 45.4111C42.7881 44.223 43.0811 43.3164 43.667 42.6914C44.2562 42.0632 45.0993 41.749 46.1963 41.749C47.2933 41.749 48.1315 42.0648 48.7109 42.6963C49.2936 43.3278 49.585 44.236 49.585 45.4209ZM44.375 45.4209C44.375 46.2184 44.5264 46.819 44.8291 47.2227C45.1318 47.6263 45.5843 47.8281 46.1865 47.8281C47.3942 47.8281 47.998 47.0257 47.998 45.4209C47.998 43.8128 47.3975 43.0088 46.1963 43.0088C45.5941 43.0088 45.14 43.2122 44.834 43.6191C44.528 44.0228 44.375 44.6234 44.375 45.4209ZM56.875 41.8613V46.4805C56.875 47.0078 56.7562 47.4701 56.5186 47.8672C56.2842 48.2643 55.944 48.5687 55.498 48.7803C55.0521 48.9919 54.5247 49.0977 53.916 49.0977C52.998 49.0977 52.2852 48.8633 51.7773 48.3945C51.2695 47.9225 51.0156 47.278 51.0156 46.4609V41.8613H52.5244V46.2314C52.5244 46.7816 52.6351 47.1852 52.8564 47.4424C53.0778 47.6995 53.444 47.8281 53.9551 47.8281C54.4499 47.8281 54.8079 47.6995 55.0293 47.4424C55.2539 47.182 55.3662 46.7751 55.3662 46.2217V41.8613H56.875ZM62.7344 49H58.623V41.8613H62.7344V43.1016H60.1367V44.6689H62.5537V45.9092H60.1367V47.75H62.7344V49ZM68.4424 47.0176C68.4424 47.6621 68.2096 48.1699 67.7441 48.541C67.2819 48.9121 66.6374 49.0977 65.8105 49.0977C65.0488 49.0977 64.375 48.9544 63.7891 48.668V47.2617C64.2708 47.4766 64.6777 47.6279 65.0098 47.7158C65.3451 47.8037 65.651 47.8477 65.9277 47.8477C66.2598 47.8477 66.5137 47.7842 66.6895 47.6572C66.8685 47.5303 66.958 47.3415 66.958 47.0908C66.958 46.9508 66.9189 46.8271 66.8408 46.7197C66.7627 46.609 66.6471 46.5033 66.4941 46.4023C66.3444 46.3014 66.0368 46.1403 65.5713 45.9189C65.1351 45.7139 64.8079 45.5169 64.5898 45.3281C64.3717 45.1393 64.1976 44.9196 64.0674 44.6689C63.9372 44.4183 63.8721 44.1253 63.8721 43.79C63.8721 43.1585 64.0853 42.6621 64.5117 42.3008C64.9414 41.9395 65.5339 41.7588 66.2891 41.7588C66.6602 41.7588 67.0133 41.8027 67.3486 41.8906C67.6872 41.9785 68.0404 42.1022 68.4082 42.2617L67.9199 43.4385C67.5391 43.2822 67.2233 43.1732 66.9727 43.1113C66.7253 43.0495 66.4811 43.0186 66.2402 43.0186C65.9538 43.0186 65.734 43.0853 65.5811 43.2188C65.4281 43.3522 65.3516 43.5264 65.3516 43.7412C65.3516 43.8747 65.3825 43.9919 65.4443 44.0928C65.5062 44.1904 65.6038 44.2865 65.7373 44.3809C65.874 44.472 66.1947 44.638 66.6992 44.8789C67.3665 45.1979 67.8239 45.5186 68.0713 45.8408C68.3187 46.1598 68.4424 46.5521 68.4424 47.0176ZM72.4902 49H70.9766V43.1211H69.0381V41.8613H74.4287V43.1211H72.4902V49ZM79.6387 49H75.5273V41.8613H79.6387V43.1016H77.041V44.6689H79.458V45.9092H77.041V47.75H79.6387V49ZM87.0557 45.3623C87.0557 46.5374 86.7204 47.4375 86.0498 48.0625C85.3825 48.6875 84.4173 49 83.1543 49H81.1328V41.8613H83.374C84.5394 41.8613 85.4443 42.1689 86.0889 42.7842C86.7334 43.3994 87.0557 44.2588 87.0557 45.3623ZM85.4834 45.4014C85.4834 43.8682 84.8063 43.1016 83.4521 43.1016H82.6465V47.75H83.2959C84.7542 47.75 85.4834 46.9671 85.4834 45.4014Z" fill="#045F87"/>
</svg>
