<svg width="460" height="500" viewBox="0 0 460 500" fill="none" xmlns="http://www.w3.org/2000/svg">
<mask id="mask0" mask-type="alpha" maskUnits="userSpaceOnUse" x="53" y="3" width="354" height="454">
<path d="M364.964 323.27C403.363 359.615 406.861 403.905 406.861 456.998H53.1333C53.1333 403.902 56.6311 359.615 94.9681 323.27C133.372 286.926 164.467 274.257 180.14 261.104C195.876 247.952 199.373 237.968 199.373 230.237C199.373 222.454 195.876 212.467 180.14 199.314C164.467 186.162 133.372 173.493 94.9681 137.149C56.6311 100.857 53.1333 56.5138 53.1333 3.41797H406.866C406.866 56.5106 403.368 100.853 364.968 137.146C326.631 173.49 295.532 186.159 279.796 199.311C264.123 212.463 260.625 222.451 260.625 230.234C260.625 237.965 264.123 247.949 279.796 261.101C288.352 268.241 301.402 275.22 317.698 285.956C331.434 294.98 347.421 306.682 364.964 323.27Z" fill="#C4C4C4"/>
</mask>
<g mask="url(#mask0)">
<rect x="51.0295" y="238.893" width="14.3814" height="14.3701" rx="3" fill="#064366"/>
<rect x="51.0295" y="364.053" width="14.3814" height="14.3701" rx="3" fill="#064366"/>
<rect x="51.0295" y="301.473" width="14.3814" height="14.3701" rx="3" fill="#064366"/>
<rect x="51.0295" y="426.634" width="14.3814" height="14.3701" rx="3" fill="#064366"/>
<rect x="51.0295" y="270.183" width="14.3814" height="14.3701" rx="3" fill="#064366"/>
<rect x="51.0295" y="395.344" width="14.3814" height="14.3701" rx="3" fill="#064366"/>
<rect x="51.0295" y="332.763" width="14.3814" height="14.3701" rx="3" fill="#064366"/>
<rect x="51.0295" y="254.537" width="14.3814" height="14.3701" rx="3" fill="#064366"/>
<rect x="51.0295" y="379.699" width="14.3814" height="14.3701" rx="3" fill="#064366"/>
<rect x="51.0295" y="317.118" width="14.3814" height="14.3701" rx="3" fill="#064366"/>
<rect x="51.0295" y="442.28" width="14.3814" height="14.3701" rx="3" fill="#064366"/>
<rect x="51.0295" y="285.828" width="14.3814" height="14.3701" rx="3" fill="#064366"/>
<rect x="51.0295" y="410.989" width="14.3814" height="14.3701" rx="3" fill="#064366"/>
<rect x="51.0295" y="348.408" width="14.3814" height="14.3701" rx="3" fill="#064366"/>
<rect x="51.0295" y="223.247" width="14.3814" height="14.3701" rx="3" fill="#064366"/>
<rect x="66.6873" y="238.893" width="14.3814" height="14.3701" rx="3" fill="#064366"/>
<rect x="66.6873" y="364.053" width="14.3814" height="14.3701" rx="3" fill="#064366"/>
<rect x="66.6873" y="301.473" width="14.3814" height="14.3701" rx="3" fill="#064366"/>
<rect x="66.6873" y="426.634" width="14.3814" height="14.3701" rx="3" fill="#064366"/>
<rect x="66.6873" y="270.183" width="14.3814" height="14.3701" rx="3" fill="#064366"/>
<rect x="66.6873" y="395.344" width="14.3814" height="14.3701" rx="3" fill="#064366"/>
<rect x="66.6873" y="332.763" width="14.3814" height="14.3701" rx="3" fill="#064366"/>
<rect x="66.6873" y="254.537" width="14.3814" height="14.3701" rx="3" fill="#064366"/>
<rect x="66.6873" y="379.699" width="14.3814" height="14.3701" rx="3" fill="#064366"/>
<rect x="66.6873" y="317.118" width="14.3814" height="14.3701" rx="3" fill="#064366"/>
<rect x="66.6873" y="442.28" width="14.3814" height="14.3701" rx="3" fill="#064366"/>
<rect x="66.6873" y="285.828" width="14.3814" height="14.3701" rx="3" fill="#064366"/>
<rect x="66.6873" y="410.989" width="14.3814" height="14.3701" rx="3" fill="#064366"/>
<rect x="66.6873" y="348.408" width="14.3814" height="14.3701" rx="3" fill="#064366"/>
<rect x="66.6873" y="223.247" width="14.3814" height="14.3701" rx="3" fill="#064366"/>
<rect x="82.343" y="238.893" width="14.3814" height="14.3701" rx="3" fill="#064366"/>
<rect x="82.343" y="364.053" width="14.3814" height="14.3701" rx="3" fill="#064366"/>
<rect x="82.343" y="301.473" width="14.3814" height="14.3701" rx="3" fill="#064366"/>
<rect x="82.343" y="426.634" width="14.3814" height="14.3701" rx="3" fill="#064366"/>
<rect x="82.343" y="270.183" width="14.3814" height="14.3701" rx="3" fill="#064366"/>
<rect x="82.343" y="395.344" width="14.3814" height="14.3701" rx="3" fill="#064366"/>
<rect x="82.343" y="332.763" width="14.3814" height="14.3701" rx="3" fill="#064366"/>
<rect x="82.343" y="254.537" width="14.3814" height="14.3701" rx="3" fill="#064366"/>
<rect x="82.343" y="379.699" width="14.3814" height="14.3701" rx="3" fill="#064366"/>
<rect x="82.343" y="317.118" width="14.3814" height="14.3701" rx="3" fill="#064366"/>
<rect x="82.343" y="442.28" width="14.3814" height="14.3701" rx="3" fill="#064366"/>
<rect x="82.343" y="285.828" width="14.3814" height="14.3701" rx="3" fill="#064366"/>
<rect x="82.343" y="410.989" width="14.3814" height="14.3701" rx="3" fill="#064366"/>
<rect x="82.343" y="348.408" width="14.3814" height="14.3701" rx="3" fill="#064366"/>
<rect x="82.343" y="223.247" width="14.3814" height="14.3701" rx="3" fill="#064366"/>
<rect x="98.0024" y="238.893" width="14.3814" height="14.3701" rx="3" fill="#064366"/>
<rect x="98.0024" y="364.053" width="14.3814" height="14.3701" rx="3" fill="#064366"/>
<rect x="98.0024" y="301.473" width="14.3814" height="14.3701" rx="3" fill="#064366"/>
<rect x="98.0024" y="426.634" width="14.3814" height="14.3701" rx="3" fill="#064366"/>
<rect x="98.0024" y="270.183" width="14.3814" height="14.3701" rx="3" fill="#064366"/>
<rect x="98.0024" y="395.344" width="14.3814" height="14.3701" rx="3" fill="#064366"/>
<rect x="98.0024" y="332.763" width="14.3814" height="14.3701" rx="3" fill="#064366"/>
<rect x="98.0024" y="254.537" width="14.3814" height="14.3701" rx="3" fill="#064366"/>
<rect x="98.0024" y="379.699" width="14.3814" height="14.3701" rx="3" fill="#064366"/>
<rect x="98.0024" y="317.118" width="14.3814" height="14.3701" rx="3" fill="#064366"/>
<rect x="98.0024" y="442.28" width="14.3814" height="14.3701" rx="3" fill="#064366"/>
<rect x="98.0024" y="285.828" width="14.3814" height="14.3701" rx="3" fill="#064366"/>
<rect x="98.0024" y="410.989" width="14.3814" height="14.3701" rx="3" fill="#064366"/>
<rect x="98.0024" y="348.408" width="14.3814" height="14.3701" rx="3" fill="#064366"/>
<rect x="98.0024" y="223.247" width="14.3814" height="14.3701" rx="3" fill="#064366"/>
<rect x="113.658" y="238.893" width="14.3814" height="14.3701" rx="3" fill="#064366"/>
<rect x="113.658" y="364.053" width="14.3814" height="14.3701" rx="3" fill="#064366"/>
<rect x="113.658" y="301.473" width="14.3814" height="14.3701" rx="3" fill="#064366"/>
<rect x="113.658" y="426.634" width="14.3814" height="14.3701" rx="3" fill="#064366"/>
<rect x="113.658" y="270.183" width="14.3814" height="14.3701" rx="3" fill="#064366"/>
<rect x="113.658" y="395.344" width="14.3814" height="14.3701" rx="3" fill="#064366"/>
<rect x="113.658" y="332.763" width="14.3814" height="14.3701" rx="3" fill="#064366"/>
<rect x="113.658" y="254.537" width="14.3814" height="14.3701" rx="3" fill="#064366"/>
<rect x="113.658" y="379.699" width="14.3814" height="14.3701" rx="3" fill="#064366"/>
<rect x="113.658" y="317.118" width="14.3814" height="14.3701" rx="3" fill="#064366"/>
<rect x="113.658" y="442.28" width="14.3814" height="14.3701" rx="3" fill="#064366"/>
<rect x="113.658" y="285.828" width="14.3814" height="14.3701" rx="3" fill="#064366"/>
<rect x="113.658" y="410.989" width="14.3814" height="14.3701" rx="3" fill="#064366"/>
<rect x="113.658" y="348.408" width="14.3814" height="14.3701" rx="3" fill="#064366"/>
<rect x="113.658" y="223.247" width="14.3814" height="14.3701" rx="3" fill="#064366"/>
<rect x="129.317" y="238.893" width="14.3814" height="14.3701" rx="3" fill="#064366"/>
<rect x="129.317" y="364.053" width="14.3814" height="14.3701" rx="3" fill="#064366"/>
<rect x="129.317" y="301.473" width="14.3814" height="14.3701" rx="3" fill="#064366"/>
<rect x="129.317" y="426.634" width="14.3814" height="14.3701" rx="3" fill="#064366"/>
<rect x="129.317" y="270.183" width="14.3814" height="14.3701" rx="3" fill="#064366"/>
<rect x="129.317" y="395.344" width="14.3814" height="14.3701" rx="3" fill="#064366"/>
<rect x="129.317" y="332.763" width="14.3814" height="14.3701" rx="3" fill="#064366"/>
<rect x="129.317" y="254.537" width="14.3814" height="14.3701" rx="3" fill="#064366"/>
<rect x="129.317" y="379.699" width="14.3814" height="14.3701" rx="3" fill="#064366"/>
<rect x="129.317" y="317.118" width="14.3814" height="14.3701" rx="3" fill="#064366"/>
<rect x="129.317" y="442.28" width="14.3814" height="14.3701" rx="3" fill="#064366"/>
<rect x="129.317" y="285.828" width="14.3814" height="14.3701" rx="3" fill="#064366"/>
<rect x="129.317" y="410.989" width="14.3814" height="14.3701" rx="3" fill="#064366"/>
<rect x="129.317" y="348.408" width="14.3814" height="14.3701" rx="3" fill="#064366"/>
<rect x="129.317" y="223.247" width="14.3814" height="14.3701" rx="3" fill="#064366"/>
<rect x="144.973" y="238.893" width="14.3814" height="14.3701" rx="3" fill="#064366"/>
<rect x="144.973" y="364.053" width="14.3814" height="14.3701" rx="3" fill="#064366"/>
<rect x="144.973" y="301.473" width="14.3814" height="14.3701" rx="3" fill="#064366"/>
<rect x="144.973" y="426.634" width="14.3814" height="14.3701" rx="3" fill="#064366"/>
<rect x="144.973" y="270.183" width="14.3814" height="14.3701" rx="3" fill="#064366"/>
<rect x="144.973" y="395.344" width="14.3814" height="14.3701" rx="3" fill="#064366"/>
<rect x="144.973" y="332.763" width="14.3814" height="14.3701" rx="3" fill="#064366"/>
<rect x="144.973" y="254.537" width="14.3814" height="14.3701" rx="3" fill="#064366"/>
<rect x="144.973" y="379.699" width="14.3814" height="14.3701" rx="3" fill="#064366"/>
<rect x="144.973" y="317.118" width="14.3814" height="14.3701" rx="3" fill="#064366"/>
<rect x="144.973" y="442.28" width="14.3814" height="14.3701" rx="3" fill="#064366"/>
<rect x="144.973" y="285.828" width="14.3814" height="14.3701" rx="3" fill="#064366"/>
<rect x="144.973" y="410.989" width="14.3814" height="14.3701" rx="3" fill="#064366"/>
<rect x="144.973" y="348.408" width="14.3814" height="14.3701" rx="3" fill="#064366"/>
<rect x="144.973" y="223.247" width="14.3814" height="14.3701" rx="3" fill="#064366"/>
<rect x="160.631" y="238.893" width="14.3814" height="14.3701" rx="3" fill="#064366"/>
<rect x="160.631" y="364.053" width="14.3814" height="14.3701" rx="3" fill="#064366"/>
<rect x="160.631" y="301.473" width="14.3814" height="14.3701" rx="3" fill="#064366"/>
<rect x="160.631" y="426.634" width="14.3814" height="14.3701" rx="3" fill="#064366"/>
<rect x="160.631" y="270.183" width="14.3814" height="14.3701" rx="3" fill="#064366"/>
<rect x="160.631" y="395.344" width="14.3814" height="14.3701" rx="3" fill="#064366"/>
<rect x="160.631" y="332.763" width="14.3814" height="14.3701" rx="3" fill="#064366"/>
<rect x="160.631" y="254.537" width="14.3814" height="14.3701" rx="3" fill="#064366"/>
<rect x="160.631" y="379.699" width="14.3814" height="14.3701" rx="3" fill="#064366"/>
<rect x="160.631" y="317.118" width="14.3814" height="14.3701" rx="3" fill="#064366"/>
<rect x="160.631" y="442.28" width="14.3814" height="14.3701" rx="3" fill="#064366"/>
<rect x="160.631" y="285.828" width="14.3814" height="14.3701" rx="3" fill="#064366"/>
<rect x="160.631" y="410.989" width="14.3814" height="14.3701" rx="3" fill="#064366"/>
<rect x="160.631" y="348.408" width="14.3814" height="14.3701" rx="3" fill="#064366"/>
<rect x="160.631" y="223.247" width="14.3814" height="14.3701" rx="3" fill="#064366"/>
<rect x="176.289" y="238.893" width="14.3814" height="14.3701" rx="3" fill="#064366"/>
<rect x="176.289" y="364.053" width="14.3814" height="14.3701" rx="3" fill="#064366"/>
<rect x="176.289" y="301.473" width="14.3814" height="14.3701" rx="3" fill="#064366"/>
<rect x="176.289" y="426.634" width="14.3814" height="14.3701" rx="3" fill="#064366"/>
<rect x="176.289" y="270.183" width="14.3814" height="14.3701" rx="3" fill="#064366"/>
<rect x="176.289" y="395.344" width="14.3814" height="14.3701" rx="3" fill="#064366"/>
<rect x="176.289" y="332.763" width="14.3814" height="14.3701" rx="3" fill="#064366"/>
<rect x="176.289" y="254.537" width="14.3814" height="14.3701" rx="3" fill="#064366"/>
<rect x="176.289" y="379.699" width="14.3814" height="14.3701" rx="3" fill="#064366"/>
<rect x="176.289" y="317.118" width="14.3814" height="14.3701" rx="3" fill="#064366"/>
<rect x="176.289" y="442.28" width="14.3814" height="14.3701" rx="3" fill="#064366"/>
<rect x="176.289" y="285.828" width="14.3814" height="14.3701" rx="3" fill="#064366"/>
<rect x="176.289" y="410.989" width="14.3814" height="14.3701" rx="3" fill="#064366"/>
<rect x="176.289" y="348.408" width="14.3814" height="14.3701" rx="3" fill="#064366"/>
<rect x="176.289" y="223.247" width="14.3814" height="14.3701" rx="3" fill="#064366"/>
<rect x="191.946" y="238.893" width="14.3814" height="14.3701" rx="3" fill="#064366"/>
<rect x="191.946" y="364.053" width="14.3814" height="14.3701" rx="3" fill="#064366"/>
<rect x="191.946" y="301.473" width="14.3814" height="14.3701" rx="3" fill="#064366"/>
<rect x="191.946" y="426.634" width="14.3814" height="14.3701" rx="3" fill="#064366"/>
<rect x="191.946" y="270.183" width="14.3814" height="14.3701" rx="3" fill="#064366"/>
<rect x="191.946" y="395.344" width="14.3814" height="14.3701" rx="3" fill="#064366"/>
<rect x="191.946" y="332.763" width="14.3814" height="14.3701" rx="3" fill="#064366"/>
<rect x="191.946" y="254.537" width="14.3814" height="14.3701" rx="3" fill="#064366"/>
<rect x="191.946" y="379.699" width="14.3814" height="14.3701" rx="3" fill="#064366"/>
<rect x="191.946" y="317.118" width="14.3814" height="14.3701" rx="3" fill="#064366"/>
<rect x="191.946" y="442.28" width="14.3814" height="14.3701" rx="3" fill="#064366"/>
<rect x="191.946" y="285.828" width="14.3814" height="14.3701" rx="3" fill="#064366"/>
<rect x="191.946" y="410.989" width="14.3814" height="14.3701" rx="3" fill="#064366"/>
<rect x="191.946" y="223.247" width="14.3814" height="14.3701" rx="3" fill="#064366"/>
<rect x="207.604" y="238.893" width="14.3814" height="14.3701" rx="3" fill="#064366"/>
<rect x="207.604" y="364.053" width="14.3814" height="14.3701" rx="3" fill="#064366"/>
<rect x="191.946" y="348.408" width="14.3814" height="14.3701" rx="3" fill="#064366"/>
<rect x="207.604" y="301.473" width="14.3814" height="14.3701" rx="3" fill="#064366"/>
<rect x="207.604" y="426.634" width="14.3814" height="14.3701" rx="3" fill="#064366"/>
<rect x="207.604" y="270.183" width="14.3814" height="14.3701" rx="3" fill="#064366"/>
<rect x="207.604" y="395.344" width="14.3814" height="14.3701" rx="3" fill="#064366"/>
<rect x="207.604" y="332.763" width="14.3814" height="14.3701" rx="3" fill="#064366"/>
<rect x="207.604" y="254.537" width="14.3814" height="14.3701" rx="3" fill="#064366"/>
<rect x="207.604" y="379.699" width="14.3814" height="14.3701" rx="3" fill="#064366"/>
<rect x="207.604" y="317.118" width="14.3814" height="14.3701" rx="3" fill="#064366"/>
<rect x="207.604" y="442.28" width="14.3814" height="14.3701" rx="3" fill="#064366"/>
<rect x="207.604" y="285.828" width="14.3814" height="14.3701" rx="3" fill="#064366"/>
<rect x="207.604" y="410.989" width="14.3814" height="14.3701" rx="3" fill="#064366"/>
<rect x="207.604" y="348.408" width="14.3814" height="14.3701" rx="3" fill="#064366"/>
<rect x="207.604" y="223.247" width="14.3814" height="14.3701" rx="3" fill="#064366"/>
<rect x="223.26" y="238.893" width="14.3814" height="14.3701" rx="3" fill="#064366"/>
<rect x="223.26" y="364.053" width="14.3814" height="14.3701" rx="3" fill="#064366"/>
<rect x="223.26" y="301.473" width="14.3814" height="14.3701" rx="3" fill="#064366"/>
<rect x="223.26" y="426.634" width="14.3814" height="14.3701" rx="3" fill="#064366"/>
<rect x="223.26" y="270.183" width="14.3814" height="14.3701" rx="3" fill="#064366"/>
<rect x="223.26" y="395.344" width="14.3814" height="14.3701" rx="3" fill="#064366"/>
<rect x="223.26" y="332.763" width="14.3814" height="14.3701" rx="3" fill="#064366"/>
<rect x="223.26" y="254.537" width="14.3814" height="14.3701" rx="3" fill="#064366"/>
<rect x="223.26" y="379.699" width="14.3814" height="14.3701" rx="3" fill="#064366"/>
<rect x="223.26" y="317.118" width="14.3814" height="14.3701" rx="3" fill="#064366"/>
<rect x="223.26" y="442.28" width="14.3814" height="14.3701" rx="3" fill="#064366"/>
<rect x="223.26" y="285.828" width="14.3814" height="14.3701" rx="3" fill="#064366"/>
<rect x="223.26" y="410.989" width="14.3814" height="14.3701" rx="3" fill="#064366"/>
<rect x="223.26" y="348.408" width="14.3814" height="14.3701" rx="3" fill="#064366"/>
<rect x="223.26" y="223.247" width="14.3814" height="14.3701" rx="3" fill="#064366"/>
<rect x="238.917" y="238.893" width="14.3814" height="14.3701" rx="3" fill="#064366"/>
<rect x="238.917" y="364.053" width="14.3814" height="14.3701" rx="3" fill="#064366"/>
<rect x="238.917" y="301.473" width="14.3814" height="14.3701" rx="3" fill="#064366"/>
<rect x="238.917" y="426.634" width="14.3814" height="14.3701" rx="3" fill="#064366"/>
<rect x="238.917" y="270.183" width="14.3814" height="14.3701" rx="3" fill="#064366"/>
<rect x="238.917" y="395.344" width="14.3814" height="14.3701" rx="3" fill="#064366"/>
<rect x="238.917" y="332.763" width="14.3814" height="14.3701" rx="3" fill="#064366"/>
<rect x="238.917" y="254.537" width="14.3814" height="14.3701" rx="3" fill="#064366"/>
<rect x="238.917" y="379.699" width="14.3814" height="14.3701" rx="3" fill="#064366"/>
<rect x="238.917" y="317.118" width="14.3814" height="14.3701" rx="3" fill="#064366"/>
<rect x="238.917" y="442.28" width="14.3814" height="14.3701" rx="3" fill="#064366"/>
<rect x="238.917" y="285.828" width="14.3814" height="14.3701" rx="3" fill="#064366"/>
<rect x="238.917" y="410.989" width="14.3814" height="14.3701" rx="3" fill="#064366"/>
<rect x="238.917" y="348.408" width="14.3814" height="14.3701" rx="3" fill="#064366"/>
<rect x="238.917" y="223.247" width="14.3814" height="14.3701" rx="3" fill="#064366"/>
<rect x="254.575" y="238.893" width="14.3814" height="14.3701" rx="3" fill="#064366"/>
<rect x="254.575" y="364.053" width="14.3814" height="14.3701" rx="3" fill="#064366"/>
<rect x="254.575" y="301.473" width="14.3814" height="14.3701" rx="3" fill="#064366"/>
<rect x="254.575" y="426.634" width="14.3814" height="14.3701" rx="3" fill="#064366"/>
<rect x="254.575" y="270.183" width="14.3814" height="14.3701" rx="3" fill="#064366"/>
<rect x="254.575" y="395.344" width="14.3814" height="14.3701" rx="3" fill="#064366"/>
<rect x="254.575" y="332.763" width="14.3814" height="14.3701" rx="3" fill="#064366"/>
<rect x="254.575" y="254.537" width="14.3814" height="14.3701" rx="3" fill="#064366"/>
<rect x="254.575" y="379.699" width="14.3814" height="14.3701" rx="3" fill="#064366"/>
<rect x="254.575" y="317.118" width="14.3814" height="14.3701" rx="3" fill="#064366"/>
<rect x="254.575" y="442.28" width="14.3814" height="14.3701" rx="3" fill="#064366"/>
<rect x="254.575" y="285.828" width="14.3814" height="14.3701" rx="3" fill="#064366"/>
<rect x="254.575" y="410.989" width="14.3814" height="14.3701" rx="3" fill="#064366"/>
<rect x="254.575" y="348.408" width="14.3814" height="14.3701" rx="3" fill="#064366"/>
<rect x="254.575" y="223.247" width="14.3814" height="14.3701" rx="3" fill="#064366"/>
<rect x="270.234" y="238.893" width="14.3814" height="14.3701" rx="3" fill="#064366"/>
<rect x="270.234" y="364.053" width="14.3814" height="14.3701" rx="3" fill="#064366"/>
<rect x="270.234" y="301.473" width="14.3814" height="14.3701" rx="3" fill="#064366"/>
<rect x="270.234" y="426.634" width="14.3814" height="14.3701" rx="3" fill="#064366"/>
<rect x="270.234" y="270.183" width="14.3814" height="14.3701" rx="3" fill="#064366"/>
<rect x="270.234" y="395.344" width="14.3814" height="14.3701" rx="3" fill="#064366"/>
<rect x="270.234" y="332.763" width="14.3814" height="14.3701" rx="3" fill="#064366"/>
<rect x="270.234" y="254.537" width="14.3814" height="14.3701" rx="3" fill="#064366"/>
<rect x="270.234" y="379.699" width="14.3814" height="14.3701" rx="3" fill="#064366"/>
<rect x="270.234" y="317.118" width="14.3814" height="14.3701" rx="3" fill="#064366"/>
<rect x="270.234" y="442.28" width="14.3814" height="14.3701" rx="3" fill="#064366"/>
<rect x="270.234" y="285.828" width="14.3814" height="14.3701" rx="3" fill="#064366"/>
<rect x="270.234" y="410.989" width="14.3814" height="14.3701" rx="3" fill="#064366"/>
<rect x="270.234" y="348.408" width="14.3814" height="14.3701" rx="3" fill="#064366"/>
<rect x="270.234" y="223.247" width="14.3814" height="14.3701" rx="3" fill="#064366"/>
<rect x="285.89" y="238.893" width="14.3814" height="14.3701" rx="3" fill="#064366"/>
<rect x="285.89" y="364.053" width="14.3814" height="14.3701" rx="3" fill="#064366"/>
<rect x="285.89" y="301.473" width="14.3814" height="14.3701" rx="3" fill="#064366"/>
<rect x="285.89" y="426.634" width="14.3814" height="14.3701" rx="3" fill="#064366"/>
<rect x="285.89" y="270.183" width="14.3814" height="14.3701" rx="3" fill="#064366"/>
<rect x="285.89" y="395.344" width="14.3814" height="14.3701" rx="3" fill="#064366"/>
<rect x="285.89" y="332.763" width="14.3814" height="14.3701" rx="3" fill="#064366"/>
<rect x="285.89" y="254.537" width="14.3814" height="14.3701" rx="3" fill="#064366"/>
<rect x="285.89" y="379.699" width="14.3814" height="14.3701" rx="3" fill="#064366"/>
<rect x="285.89" y="317.118" width="14.3814" height="14.3701" rx="3" fill="#064366"/>
<rect x="285.89" y="442.28" width="14.3814" height="14.3701" rx="3" fill="#064366"/>
<rect x="285.89" y="285.828" width="14.3814" height="14.3701" rx="3" fill="#064366"/>
<rect x="285.89" y="410.989" width="14.3814" height="14.3701" rx="3" fill="#064366"/>
<rect x="285.89" y="348.408" width="14.3814" height="14.3701" rx="3" fill="#064366"/>
<rect x="285.89" y="223.247" width="14.3814" height="14.3701" rx="3" fill="#064366"/>
<rect x="301.547" y="238.893" width="14.3814" height="14.3701" rx="3" fill="#064366"/>
<rect x="301.547" y="364.053" width="14.3814" height="14.3701" rx="3" fill="#064366"/>
<rect x="301.547" y="301.473" width="14.3814" height="14.3701" rx="3" fill="#064366"/>
<rect x="301.547" y="426.634" width="14.3814" height="14.3701" rx="3" fill="#064366"/>
<rect x="301.547" y="270.183" width="14.3814" height="14.3701" rx="3" fill="#064366"/>
<rect x="301.547" y="395.344" width="14.3814" height="14.3701" rx="3" fill="#064366"/>
<rect x="301.547" y="332.763" width="14.3814" height="14.3701" rx="3" fill="#064366"/>
<rect x="301.547" y="254.537" width="14.3814" height="14.3701" rx="3" fill="#064366"/>
<rect x="301.547" y="379.699" width="14.3814" height="14.3701" rx="3" fill="#064366"/>
<rect x="301.547" y="317.118" width="14.3814" height="14.3701" rx="3" fill="#064366"/>
<rect x="301.547" y="442.28" width="14.3814" height="14.3701" rx="3" fill="#064366"/>
<rect x="301.547" y="285.828" width="14.3814" height="14.3701" rx="3" fill="#064366"/>
<rect x="301.547" y="410.989" width="14.3814" height="14.3701" rx="3" fill="#064366"/>
<rect x="301.547" y="348.408" width="14.3814" height="14.3701" rx="3" fill="#064366"/>
<rect x="301.547" y="223.247" width="14.3814" height="14.3701" rx="3" fill="#064366"/>
<rect x="317.205" y="238.893" width="14.3814" height="14.3701" rx="3" fill="#064366"/>
<rect x="317.205" y="364.053" width="14.3814" height="14.3701" rx="3" fill="#064366"/>
<rect x="317.205" y="301.473" width="14.3814" height="14.3701" rx="3" fill="#064366"/>
<rect x="317.205" y="426.634" width="14.3814" height="14.3701" rx="3" fill="#064366"/>
<rect x="317.205" y="270.183" width="14.3814" height="14.3701" rx="3" fill="#064366"/>
<rect x="317.205" y="395.344" width="14.3814" height="14.3701" rx="3" fill="#064366"/>
<rect x="317.205" y="332.763" width="14.3814" height="14.3701" rx="3" fill="#064366"/>
<rect x="317.205" y="254.537" width="14.3814" height="14.3701" rx="3" fill="#064366"/>
<rect x="317.205" y="379.699" width="14.3814" height="14.3701" rx="3" fill="#064366"/>
<rect x="317.205" y="317.118" width="14.3814" height="14.3701" rx="3" fill="#064366"/>
<rect x="317.205" y="442.28" width="14.3814" height="14.3701" rx="3" fill="#064366"/>
<rect x="317.205" y="285.828" width="14.3814" height="14.3701" rx="3" fill="#064366"/>
<rect x="317.205" y="410.989" width="14.3814" height="14.3701" rx="3" fill="#064366"/>
<rect x="317.205" y="348.408" width="14.3814" height="14.3701" rx="3" fill="#064366"/>
<rect x="317.205" y="223.247" width="14.3814" height="14.3701" rx="3" fill="#064366"/>
<rect x="332.862" y="238.893" width="14.3814" height="14.3701" rx="3" fill="#064366"/>
<rect x="332.862" y="364.053" width="14.3814" height="14.3701" rx="3" fill="#064366"/>
<rect x="332.862" y="301.473" width="14.3814" height="14.3701" rx="3" fill="#064366"/>
<rect x="332.862" y="426.634" width="14.3814" height="14.3701" rx="3" fill="#064366"/>
<rect x="332.862" y="270.183" width="14.3814" height="14.3701" rx="3" fill="#064366"/>
<rect x="332.862" y="395.344" width="14.3814" height="14.3701" rx="3" fill="#064366"/>
<rect x="332.862" y="332.763" width="14.3814" height="14.3701" rx="3" fill="#064366"/>
<rect x="332.862" y="254.537" width="14.3814" height="14.3701" rx="3" fill="#064366"/>
<rect x="332.862" y="379.699" width="14.3814" height="14.3701" rx="3" fill="#064366"/>
<rect x="332.862" y="317.118" width="14.3814" height="14.3701" rx="3" fill="#064366"/>
<rect x="332.862" y="442.28" width="14.3814" height="14.3701" rx="3" fill="#064366"/>
<rect x="332.862" y="285.828" width="14.3814" height="14.3701" rx="3" fill="#064366"/>
<rect x="332.862" y="410.989" width="14.3814" height="14.3701" rx="3" fill="#064366"/>
<rect x="332.862" y="348.408" width="14.3814" height="14.3701" rx="3" fill="#064366"/>
<rect x="332.862" y="223.247" width="14.3814" height="14.3701" rx="3" fill="#064366"/>
<rect x="348.52" y="238.893" width="14.3814" height="14.3701" rx="3" fill="#064366"/>
<rect x="348.52" y="364.053" width="14.3814" height="14.3701" rx="3" fill="#064366"/>
<rect x="348.52" y="301.473" width="14.3814" height="14.3701" rx="3" fill="#064366"/>
<rect x="348.52" y="426.634" width="14.3814" height="14.3701" rx="3" fill="#064366"/>
<rect x="348.52" y="270.183" width="14.3814" height="14.3701" rx="3" fill="#064366"/>
<rect x="348.52" y="395.344" width="14.3814" height="14.3701" rx="3" fill="#064366"/>
<rect x="348.52" y="332.763" width="14.3814" height="14.3701" rx="3" fill="#064366"/>
<rect x="348.52" y="254.537" width="14.3814" height="14.3701" rx="3" fill="#064366"/>
<rect x="348.52" y="379.699" width="14.3814" height="14.3701" rx="3" fill="#064366"/>
<rect x="348.52" y="317.118" width="14.3814" height="14.3701" rx="3" fill="#064366"/>
<rect x="348.52" y="442.28" width="14.3814" height="14.3701" rx="3" fill="#064366"/>
<rect x="348.52" y="285.828" width="14.3814" height="14.3701" rx="3" fill="#064366"/>
<rect x="348.52" y="410.989" width="14.3814" height="14.3701" rx="3" fill="#064366"/>
<rect x="348.52" y="348.408" width="14.3814" height="14.3701" rx="3" fill="#064366"/>
<rect x="348.52" y="223.247" width="14.3814" height="14.3701" rx="3" fill="#064366"/>
<rect x="364.176" y="238.893" width="14.3814" height="14.3701" rx="3" fill="#064366"/>
<rect x="364.176" y="364.053" width="14.3814" height="14.3701" rx="3" fill="#064366"/>
<rect x="364.176" y="301.473" width="14.3814" height="14.3701" rx="3" fill="#064366"/>
<rect x="364.176" y="426.634" width="14.3814" height="14.3701" rx="3" fill="#064366"/>
<rect x="364.176" y="270.183" width="14.3814" height="14.3701" rx="3" fill="#064366"/>
<rect x="364.176" y="395.344" width="14.3814" height="14.3701" rx="3" fill="#064366"/>
<rect x="364.176" y="332.763" width="14.3814" height="14.3701" rx="3" fill="#064366"/>
<rect x="364.176" y="254.537" width="14.3814" height="14.3701" rx="3" fill="#064366"/>
<rect x="364.176" y="379.699" width="14.3814" height="14.3701" rx="3" fill="#064366"/>
<rect x="364.176" y="317.118" width="14.3814" height="14.3701" rx="3" fill="#064366"/>
<rect x="364.176" y="442.28" width="14.3814" height="14.3701" rx="3" fill="#064366"/>
<rect x="364.176" y="285.828" width="14.3814" height="14.3701" rx="3" fill="#064366"/>
<rect x="364.176" y="410.989" width="14.3814" height="14.3701" rx="3" fill="#064366"/>
<rect x="364.176" y="348.408" width="14.3814" height="14.3701" rx="3" fill="#064366"/>
<rect x="364.176" y="223.247" width="14.3814" height="14.3701" rx="3" fill="#064366"/>
<rect x="379.835" y="238.893" width="14.3814" height="14.3701" rx="3" fill="#064366"/>
<rect x="379.835" y="364.053" width="14.3814" height="14.3701" rx="3" fill="#064366"/>
<rect x="379.835" y="301.473" width="14.3814" height="14.3701" rx="3" fill="#064366"/>
<rect x="379.835" y="426.634" width="14.3814" height="14.3701" rx="3" fill="#064366"/>
<rect x="379.835" y="270.183" width="14.3814" height="14.3701" rx="3" fill="#064366"/>
<rect x="379.835" y="395.344" width="14.3814" height="14.3701" rx="3" fill="#064366"/>
<rect x="379.835" y="332.763" width="14.3814" height="14.3701" rx="3" fill="#064366"/>
<rect x="379.835" y="254.537" width="14.3814" height="14.3701" rx="3" fill="#064366"/>
<rect x="379.835" y="379.699" width="14.3814" height="14.3701" rx="3" fill="#064366"/>
<rect x="379.835" y="317.118" width="14.3814" height="14.3701" rx="3" fill="#064366"/>
<rect x="379.835" y="442.28" width="14.3814" height="14.3701" rx="3" fill="#064366"/>
<rect x="379.835" y="285.828" width="14.3814" height="14.3701" rx="3" fill="#064366"/>
<rect x="379.835" y="410.989" width="14.3814" height="14.3701" rx="3" fill="#064366"/>
<rect x="379.835" y="348.408" width="14.3814" height="14.3701" rx="3" fill="#064366"/>
<rect x="379.835" y="223.247" width="14.3814" height="14.3701" rx="3" fill="#064366"/>
<rect x="395.491" y="238.893" width="14.3814" height="14.3701" rx="3" fill="#064366"/>
<rect x="395.491" y="364.053" width="14.3814" height="14.3701" rx="3" fill="#064366"/>
<rect x="395.491" y="301.473" width="14.3814" height="14.3701" rx="3" fill="#064366"/>
<rect x="395.491" y="426.634" width="14.3814" height="14.3701" rx="3" fill="#064366"/>
<rect x="395.491" y="270.183" width="14.3814" height="14.3701" rx="3" fill="#064366"/>
<rect x="395.491" y="395.344" width="14.3814" height="14.3701" rx="3" fill="#064366"/>
<rect x="395.491" y="332.763" width="14.3814" height="14.3701" rx="3" fill="#064366"/>
<rect x="395.491" y="254.537" width="14.3814" height="14.3701" rx="3" fill="#064366"/>
<rect x="395.491" y="379.699" width="14.3814" height="14.3701" rx="3" fill="#064366"/>
<rect x="395.491" y="317.118" width="14.3814" height="14.3701" rx="3" fill="#064366"/>
<rect x="395.491" y="442.28" width="14.3814" height="14.3701" rx="3" fill="#064366"/>
<rect x="395.491" y="285.828" width="14.3814" height="14.3701" rx="3" fill="#064366"/>
<rect x="395.491" y="410.989" width="14.3814" height="14.3701" rx="3" fill="#064366"/>
<rect x="395.491" y="348.408" width="14.3814" height="14.3701" rx="3" fill="#064366"/>
<rect x="395.491" y="223.247" width="14.3814" height="14.3701" rx="3" fill="#064366"/>
</g>
<path fill-rule="evenodd" clip-rule="evenodd" d="M409.864 2.99738H460V0H0V2.99738H50.1328V3.418C50.1328 56.5316 53.5653 102.084 92.9042 139.325C112.282 157.663 129.818 170.029 144.453 179.449C149.006 182.379 153.325 185.054 157.303 187.516C159.67 188.982 161.916 190.373 164.019 191.699C169.726 195.296 174.459 198.462 178.21 201.61L178.214 201.614C193.522 214.408 196.373 223.626 196.373 230.237C196.373 236.794 193.525 246.009 178.214 258.805L178.21 258.809C174.459 261.957 169.726 265.123 164.019 268.721C161.925 270.041 159.688 271.426 157.331 272.885L157.312 272.897L157.302 272.903C153.325 275.366 149.006 278.04 144.453 280.97C129.818 290.39 112.282 302.755 92.9045 321.094L92.9026 321.096C53.5659 358.388 50.1328 403.882 50.1328 456.998V457.39C34.3545 461.131 23.0666 477.865 23.0666 497.003V500H436.932V497.003C436.932 477.871 425.6 461.139 409.86 457.393V456.998C409.86 403.885 406.427 358.386 367.026 321.094L367.025 321.093C349.327 304.359 333.195 292.55 319.348 283.453C313.237 279.427 307.562 275.916 302.448 272.751L302.443 272.747C300.707 271.673 299.036 270.639 297.434 269.639C291.063 265.658 285.823 262.225 281.72 258.803C266.475 246.008 263.624 236.793 263.624 230.234C263.624 223.621 266.477 214.403 281.72 201.61C285.487 198.461 290.234 195.294 295.95 191.696C298.022 190.392 300.231 189.025 302.557 187.586L302.559 187.585C306.571 185.103 310.93 182.406 315.53 179.445C330.166 170.025 347.687 157.659 367.032 139.32C406.432 102.08 409.864 56.5273 409.864 3.418V2.99738ZM52.3812 459.995C38.2885 462.467 27.3003 476.537 26.1634 494.005C26.0991 494.994 26.0663 495.994 26.0663 497.003H433.932C433.932 495.994 433.9 494.994 433.835 494.005C432.693 476.541 421.661 462.468 407.603 459.995H52.3812ZM406.859 455.388C406.86 455.873 406.86 456.359 406.86 456.846C405.654 456.691 404.426 456.612 403.179 456.612H56.8201C55.5704 456.612 54.3403 456.691 53.1325 456.845C53.1326 455.894 53.1339 454.946 53.1364 454C53.277 402.233 57.354 358.928 94.9672 323.27C120.169 299.42 142.224 285.765 158.838 275.479C167.541 270.09 174.751 265.626 180.139 261.105C195.875 247.952 199.373 237.968 199.373 230.237C199.373 222.454 195.875 212.467 180.139 199.314C174.751 194.793 167.541 190.329 158.838 184.94C142.224 174.654 120.169 160.999 94.9672 137.149C57.354 101.542 53.277 58.185 53.1364 6.41538C53.1337 5.41937 53.1325 4.42024 53.1325 3.418H406.865C406.865 4.42024 406.863 5.41937 406.861 6.41538C406.72 58.1819 402.642 101.539 364.967 137.146C339.749 161.053 317.664 174.715 301.022 185.01C292.364 190.366 285.18 194.81 279.795 199.311C264.122 212.464 260.625 222.451 260.625 230.234C260.625 237.965 264.122 247.949 279.795 261.101C285.163 265.58 292.299 269.996 300.896 275.316C306.002 278.476 311.624 281.955 317.697 285.956C331.433 294.98 347.42 306.682 364.963 323.27C402.638 358.928 406.716 402.236 406.856 454C406.858 454.462 406.859 454.925 406.859 455.388Z" fill="white"/>
</svg>
