<svg width="239" height="159" viewBox="0 0 239 159" fill="none" xmlns="http://www.w3.org/2000/svg">
<mask id="mask0" mask-type="alpha" maskUnits="userSpaceOnUse" x="0" y="0" width="239" height="159">
<path d="M224 83C224 81.3431 225.343 80 227 80H236C237.657 80 239 81.3431 239 83V92C239 93.6569 237.657 95 236 95H227C225.343 95 224 93.6569 224 92V83Z" fill="#032B4C"/>
<path d="M208 83C208 81.3431 209.343 80 211 80H220C221.657 80 223 81.3431 223 83V92C223 93.6569 221.657 95 220 95H211C209.343 95 208 93.6569 208 92V83Z" fill="#032B4C"/>
<path d="M192 83C192 81.3431 193.343 80 195 80H204C205.657 80 207 81.3431 207 83V92C207 93.6569 205.657 95 204 95H195C193.343 95 192 93.6569 192 92V83Z" fill="#032B4C"/>
<path d="M176 83C176 81.3431 177.343 80 179 80H188C189.657 80 191 81.3431 191 83V92C191 93.6569 189.657 95 188 95H179C177.343 95 176 93.6569 176 92V83Z" fill="#032B4C"/>
<path d="M160 83C160 81.3431 161.343 80 163 80H172C173.657 80 175 81.3431 175 83V92C175 93.6569 173.657 95 172 95H163C161.343 95 160 93.6569 160 92V83Z" fill="#032B4C"/>
<path d="M64 83C64 81.3431 65.3431 80 67 80H76C77.6569 80 79 81.3431 79 83V92C79 93.6569 77.6569 95 76 95H67C65.3431 95 64 93.6569 64 92V83Z" fill="#032B4C"/>
<path d="M48 83C48 81.3431 49.3431 80 51 80H60C61.6569 80 63 81.3431 63 83V92C63 93.6569 61.6569 95 60 95H51C49.3431 95 48 93.6569 48 92V83Z" fill="#032B4C"/>
<path d="M32 83C32 81.3431 33.3431 80 35 80H44C45.6569 80 47 81.3431 47 83V92C47 93.6569 45.6569 95 44 95H35C33.3431 95 32 93.6569 32 92V83Z" fill="#032B4C"/>
<path d="M16 83C16 81.3431 17.3431 80 19 80H28C29.6569 80 31 81.3431 31 83V92C31 93.6569 29.6569 95 28 95H19C17.3431 95 16 93.6569 16 92V83Z" fill="#032B4C"/>
<path d="M0 83C0 81.3431 1.34315 80 3 80H12C13.6569 80 15 81.3431 15 83V92C15 93.6569 13.6569 95 12 95H3C1.34315 95 0 93.6569 0 92V83Z" fill="#032B4C"/>
<path d="M224 51C224 49.3431 225.343 48 227 48H236C237.657 48 239 49.3431 239 51V60C239 61.6569 237.657 63 236 63H227C225.343 63 224 61.6569 224 60V51Z" fill="#032B4C"/>
<path d="M176 51C176 49.3431 177.343 48 179 48H188C189.657 48 191 49.3431 191 51V60C191 61.6569 189.657 63 188 63H179C177.343 63 176 61.6569 176 60V51Z" fill="#032B4C"/>
<path d="M160 51C160 49.3431 161.343 48 163 48H172C173.657 48 175 49.3431 175 51V60C175 61.6569 173.657 63 172 63H163C161.343 63 160 61.6569 160 60V51Z" fill="#032B4C"/>
<path d="M64 51C64 49.3431 65.3431 48 67 48H76C77.6569 48 79 49.3431 79 51V60C79 61.6569 77.6569 63 76 63H67C65.3431 63 64 61.6569 64 60V51Z" fill="#032B4C"/>
<path d="M48 51C48 49.3431 49.3431 48 51 48H60C61.6569 48 63 49.3431 63 51V60C63 61.6569 61.6569 63 60 63H51C49.3431 63 48 61.6569 48 60V51Z" fill="#032B4C"/>
<path d="M32 51C32 49.3431 33.3431 48 35 48H44C45.6569 48 47 49.3431 47 51V60C47 61.6569 45.6569 63 44 63H35C33.3431 63 32 61.6569 32 60V51Z" fill="#032B4C"/>
<path d="M16 51C16 49.3431 17.3431 48 19 48H28C29.6569 48 31 49.3431 31 51V60C31 61.6569 29.6569 63 28 63H19C17.3431 63 16 61.6569 16 60V51Z" fill="#032B4C"/>
<path d="M0 51C0 49.3431 1.34315 48 3 48H12C13.6569 48 15 49.3431 15 51V60C15 61.6569 13.6569 63 12 63H3C1.34315 63 0 61.6569 0 60V51Z" fill="#032B4C"/>
<path d="M208 51C208 49.3431 209.343 48 211 48H220C221.657 48 223 49.3431 223 51V60C223 61.6569 221.657 63 220 63H211C209.343 63 208 61.6569 208 60V51Z" fill="#032B4C"/>
<path d="M192 51C192 49.3431 193.343 48 195 48H204C205.657 48 207 49.3431 207 51V60C207 61.6569 205.657 63 204 63H195C193.343 63 192 61.6569 192 60V51Z" fill="#032B4C"/>
<path d="M224 99C224 97.3431 225.343 96 227 96H236C237.657 96 239 97.3431 239 99V108C239 109.657 237.657 111 236 111H227C225.343 111 224 109.657 224 108V99Z" fill="#032B4C"/>
<path d="M208 99C208 97.3431 209.343 96 211 96H220C221.657 96 223 97.3431 223 99V108C223 109.657 221.657 111 220 111H211C209.343 111 208 109.657 208 108V99Z" fill="#032B4C"/>
<path d="M192 99C192 97.3431 193.343 96 195 96H204C205.657 96 207 97.3431 207 99V108C207 109.657 205.657 111 204 111H195C193.343 111 192 109.657 192 108V99Z" fill="#032B4C"/>
<path d="M176 99C176 97.3431 177.343 96 179 96H188C189.657 96 191 97.3431 191 99V108C191 109.657 189.657 111 188 111H179C177.343 111 176 109.657 176 108V99Z" fill="#032B4C"/>
<path d="M48 99C48 97.3431 49.3431 96 51 96H60C61.6569 96 63 97.3431 63 99V108C63 109.657 61.6569 111 60 111H51C49.3431 111 48 109.657 48 108V99Z" fill="#032B4C"/>
<path d="M32 99C32 97.3431 33.3431 96 35 96H44C45.6569 96 47 97.3431 47 99V108C47 109.657 45.6569 111 44 111H35C33.3431 111 32 109.657 32 108V99Z" fill="#032B4C"/>
<path d="M16 99C16 97.3431 17.3431 96 19 96H28C29.6569 96 31 97.3431 31 99V108C31 109.657 29.6569 111 28 111H19C17.3431 111 16 109.657 16 108V99Z" fill="#032B4C"/>
<path d="M0 99C0 97.3431 1.34315 96 3 96H12C13.6569 96 15 97.3431 15 99V108C15 109.657 13.6569 111 12 111H3C1.34315 111 0 109.657 0 108V99Z" fill="#032B4C"/>
<path d="M224 35C224 33.3431 225.343 32 227 32H236C237.657 32 239 33.3431 239 35V44C239 45.6569 237.657 47 236 47H227C225.343 47 224 45.6569 224 44V35Z" fill="#032B4C"/>
<path d="M176 35C176 33.3431 177.343 32 179 32H188C189.657 32 191 33.3431 191 35V44C191 45.6569 189.657 47 188 47H179C177.343 47 176 45.6569 176 44V35Z" fill="#032B4C"/>
<path d="M48 35C48 33.3431 49.3431 32 51 32H60C61.6569 32 63 33.3431 63 35V44C63 45.6569 61.6569 47 60 47H51C49.3431 47 48 45.6569 48 44V35Z" fill="#032B4C"/>
<path d="M32 35C32 33.3431 33.3431 32 35 32H44C45.6569 32 47 33.3431 47 35V44C47 45.6569 45.6569 47 44 47H35C33.3431 47 32 45.6569 32 44V35Z" fill="#032B4C"/>
<path d="M16 35C16 33.3431 17.3431 32 19 32H28C29.6569 32 31 33.3431 31 35V44C31 45.6569 29.6569 47 28 47H19C17.3431 47 16 45.6569 16 44V35Z" fill="#032B4C"/>
<path d="M0 35C0 33.3431 1.34315 32 3 32H12C13.6569 32 15 33.3431 15 35V44C15 45.6569 13.6569 47 12 47H3C1.34315 47 0 45.6569 0 44V35Z" fill="#032B4C"/>
<path d="M208 35C208 33.3431 209.343 32 211 32H220C221.657 32 223 33.3431 223 35V44C223 45.6569 221.657 47 220 47H211C209.343 47 208 45.6569 208 44V35Z" fill="#032B4C"/>
<path d="M192 35C192 33.3431 193.343 32 195 32H204C205.657 32 207 33.3431 207 35V44C207 45.6569 205.657 47 204 47H195C193.343 47 192 45.6569 192 44V35Z" fill="#032B4C"/>
<path d="M224 67C224 65.3431 225.343 64 227 64H236C237.657 64 239 65.3431 239 67V76C239 77.6569 237.657 79 236 79H227C225.343 79 224 77.6569 224 76V67Z" fill="#032B4C"/>
<path d="M176 67C176 65.3431 177.343 64 179 64H188C189.657 64 191 65.3431 191 67V76C191 77.6569 189.657 79 188 79H179C177.343 79 176 77.6569 176 76V67Z" fill="#032B4C"/>
<path d="M160 67C160 65.3431 161.343 64 163 64H172C173.657 64 175 65.3431 175 67V76C175 77.6569 173.657 79 172 79H163C161.343 79 160 77.6569 160 76V67Z" fill="#032B4C"/>
<path d="M144 67C144 65.3431 145.343 64 147 64H156C157.657 64 159 65.3431 159 67V76C159 77.6569 157.657 79 156 79H147C145.343 79 144 77.6569 144 76V67Z" fill="#032B4C"/>
<path d="M80 67C80 65.3431 81.3431 64 83 64H92C93.6569 64 95 65.3431 95 67V76C95 77.6569 93.6569 79 92 79H83C81.3431 79 80 77.6569 80 76V67Z" fill="#032B4C"/>
<path d="M64 67C64 65.3431 65.3431 64 67 64H76C77.6569 64 79 65.3431 79 67V76C79 77.6569 77.6569 79 76 79H67C65.3431 79 64 77.6569 64 76V67Z" fill="#032B4C"/>
<path d="M48 67C48 65.3431 49.3431 64 51 64H60C61.6569 64 63 65.3431 63 67V76C63 77.6569 61.6569 79 60 79H51C49.3431 79 48 77.6569 48 76V67Z" fill="#032B4C"/>
<path d="M32 67C32 65.3431 33.3431 64 35 64H44C45.6569 64 47 65.3431 47 67V76C47 77.6569 45.6569 79 44 79H35C33.3431 79 32 77.6569 32 76V67Z" fill="#032B4C"/>
<path d="M16 67C16 65.3431 17.3431 64 19 64H28C29.6569 64 31 65.3431 31 67V76C31 77.6569 29.6569 79 28 79H19C17.3431 79 16 77.6569 16 76V67Z" fill="#032B4C"/>
<path d="M0 67C0 65.3431 1.34315 64 3 64H12C13.6569 64 15 65.3431 15 67V76C15 77.6569 13.6569 79 12 79H3C1.34315 79 0 77.6569 0 76V67Z" fill="#032B4C"/>
<path d="M208 67C208 65.3431 209.343 64 211 64H220C221.657 64 223 65.3431 223 67V76C223 77.6569 221.657 79 220 79H211C209.343 79 208 77.6569 208 76V67Z" fill="#032B4C"/>
<path d="M192 67C192 65.3431 193.343 64 195 64H204C205.657 64 207 65.3431 207 67V76C207 77.6569 205.657 79 204 79H195C193.343 79 192 77.6569 192 76V67Z" fill="#032B4C"/>
<path d="M224 19C224 17.3431 225.343 16 227 16H236C237.657 16 239 17.3431 239 19V28C239 29.6569 237.657 31 236 31H227C225.343 31 224 29.6569 224 28V19Z" fill="#032B4C"/>
<path d="M32 19C32 17.3431 33.3431 16 35 16H44C45.6569 16 47 17.3431 47 19V28C47 29.6569 45.6569 31 44 31H35C33.3431 31 32 29.6569 32 28V19Z" fill="#032B4C"/>
<path d="M16 19C16 17.3431 17.3431 16 19 16H28C29.6569 16 31 17.3431 31 19V28C31 29.6569 29.6569 31 28 31H19C17.3431 31 16 29.6569 16 28V19Z" fill="#032B4C"/>
<path d="M0 19C0 17.3431 1.34315 16 3 16H12C13.6569 16 15 17.3431 15 19V28C15 29.6569 13.6569 31 12 31H3C1.34315 31 0 29.6569 0 28V19Z" fill="#032B4C"/>
<path d="M208 19C208 17.3431 209.343 16 211 16H220C221.657 16 223 17.3431 223 19V28C223 29.6569 221.657 31 220 31H211C209.343 31 208 29.6569 208 28V19Z" fill="#032B4C"/>
<path d="M192 19C192 17.3431 193.343 16 195 16H204C205.657 16 207 17.3431 207 19V28C207 29.6569 205.657 31 204 31H195C193.343 31 192 29.6569 192 28V19Z" fill="#032B4C"/>
<path d="M224 147C224 145.343 225.343 144 227 144H236C237.657 144 239 145.343 239 147V156C239 157.657 237.657 159 236 159H227C225.343 159 224 157.657 224 156V147Z" fill="#032B4C"/>
<path d="M208 147C208 145.343 209.343 144 211 144H220C221.657 144 223 145.343 223 147V156C223 157.657 221.657 159 220 159H211C209.343 159 208 157.657 208 156V147Z" fill="#032B4C"/>
<path d="M16 147C16 145.343 17.3431 144 19 144H28C29.6569 144 31 145.343 31 147V156C31 157.657 29.6569 159 28 159H19C17.3431 159 16 157.657 16 156V147Z" fill="#032B4C"/>
<path d="M0 147C0 145.343 1.34315 144 3 144H12C13.6569 144 15 145.343 15 147V156C15 157.657 13.6569 159 12 159H3C1.34315 159 0 157.657 0 156V147Z" fill="#032B4C"/>
<path d="M224 115C224 113.343 225.343 112 227 112H236C237.657 112 239 113.343 239 115V124C239 125.657 237.657 127 236 127H227C225.343 127 224 125.657 224 124V115Z" fill="#032B4C"/>
<path d="M208 115C208 113.343 209.343 112 211 112H220C221.657 112 223 113.343 223 115V124C223 125.657 221.657 127 220 127H211C209.343 127 208 125.657 208 124V115Z" fill="#032B4C"/>
<path d="M192 115C192 113.343 193.343 112 195 112H204C205.657 112 207 113.343 207 115V124C207 125.657 205.657 127 204 127H195C193.343 127 192 125.657 192 124V115Z" fill="#032B4C"/>
<path d="M32 115C32 113.343 33.3431 112 35 112H44C45.6569 112 47 113.343 47 115V124C47 125.657 45.6569 127 44 127H35C33.3431 127 32 125.657 32 124V115Z" fill="#032B4C"/>
<path d="M16 115C16 113.343 17.3431 112 19 112H28C29.6569 112 31 113.343 31 115V124C31 125.657 29.6569 127 28 127H19C17.3431 127 16 125.657 16 124V115Z" fill="#032B4C"/>
<path d="M0 115C0 113.343 1.34315 112 3 112H12C13.6569 112 15 113.343 15 115V124C15 125.657 13.6569 127 12 127H3C1.34315 127 0 125.657 0 124V115Z" fill="#032B4C"/>
<path d="M224 3C224 1.34315 225.343 0 227 0H236C237.657 0 239 1.34315 239 3V12C239 13.6569 237.657 15 236 15H227C225.343 15 224 13.6569 224 12V3Z" fill="#032B4C"/>
<path d="M16 3C16 1.34315 17.3431 0 19 0H28C29.6569 0 31 1.34315 31 3V12C31 13.6569 29.6569 15 28 15H19C17.3431 15 16 13.6569 16 12V3Z" fill="#032B4C"/>
<path d="M0 3C0 1.34315 1.34315 0 3 0H12C13.6569 0 15 1.34315 15 3V12C15 13.6569 13.6569 15 12 15H3C1.34315 15 0 13.6569 0 12V3Z" fill="#032B4C"/>
<path d="M208 3C208 1.34315 209.343 0 211 0H220C221.657 0 223 1.34315 223 3V12C223 13.6569 221.657 15 220 15H211C209.343 15 208 13.6569 208 12V3Z" fill="#032B4C"/>
<path d="M224 131C224 129.343 225.343 128 227 128H236C237.657 128 239 129.343 239 131V140C239 141.657 237.657 143 236 143H227C225.343 143 224 141.657 224 140V131Z" fill="#032B4C"/>
<path d="M208 131C208 129.343 209.343 128 211 128H220C221.657 128 223 129.343 223 131V140C223 141.657 221.657 143 220 143H211C209.343 143 208 141.657 208 140V131Z" fill="#032B4C"/>
<path d="M16 131C16 129.343 17.3431 128 19 128H28C29.6569 128 31 129.343 31 131V140C31 141.657 29.6569 143 28 143H19C17.3431 143 16 141.657 16 140V131Z" fill="#032B4C"/>
<path d="M0 131C0 129.343 1.34315 128 3 128H12C13.6569 128 15 129.343 15 131V140C15 141.657 13.6569 143 12 143H3C1.34315 143 0 141.657 0 140V131Z" fill="#032B4C"/>
</mask>
<g mask="url(#mask0)">
<rect x="-19" y="-1" width="277" height="145" fill="url(#paint0_linear)" fill-opacity="0.4"/>
<rect x="-19" y="16" width="277" height="112" fill="url(#paint1_linear)" fill-opacity="0.8"/>
<rect x="-8" y="32" width="255" height="80" fill="url(#paint2_linear)" fill-opacity="0.8"/>
<rect x="-13" y="48" width="265" height="48" fill="url(#paint3_linear)" fill-opacity="0.9"/>
<rect x="-18" y="63" width="275" height="16" fill="url(#paint4_linear)"/>
<rect x="48" y="47" width="143" height="50" fill="url(#paint5_linear)" fill-opacity="0.9"/>
<rect x="-18" y="63" width="275" height="16" fill="url(#paint6_linear)"/>
</g>
<defs>
<linearGradient id="paint0_linear" x1="-19" y1="60.625" x2="258" y2="60.625" gradientUnits="userSpaceOnUse">
<stop stop-color="#24F2FF" stop-opacity="0"/>
<stop offset="0.5" stop-color="#24F2FF"/>
<stop offset="1" stop-color="#24F2FF" stop-opacity="0"/>
</linearGradient>
<linearGradient id="paint1_linear" x1="-19" y1="63.6" x2="258" y2="63.6" gradientUnits="userSpaceOnUse">
<stop stop-color="#24F2FF" stop-opacity="0"/>
<stop offset="0.5" stop-color="#24F2FF"/>
<stop offset="1" stop-color="#24F2FF" stop-opacity="0"/>
</linearGradient>
<linearGradient id="paint2_linear" x1="-8" y1="66" x2="247" y2="66" gradientUnits="userSpaceOnUse">
<stop stop-color="#24F2FF" stop-opacity="0"/>
<stop offset="0.5" stop-color="#24F2FF"/>
<stop offset="1" stop-color="#24F2FF" stop-opacity="0"/>
</linearGradient>
<linearGradient id="paint3_linear" x1="-13" y1="68.4" x2="252" y2="68.4" gradientUnits="userSpaceOnUse">
<stop stop-color="#24F2FF" stop-opacity="0"/>
<stop offset="0.5" stop-color="#24F2FF"/>
<stop offset="1" stop-color="#24F2FF" stop-opacity="0"/>
</linearGradient>
<linearGradient id="paint4_linear" x1="-18" y1="69.8" x2="257" y2="69.8" gradientUnits="userSpaceOnUse">
<stop stop-color="#24F2FF" stop-opacity="0"/>
<stop offset="0.5" stop-color="#24F2FF"/>
<stop offset="1" stop-color="#24F2FF" stop-opacity="0"/>
</linearGradient>
<linearGradient id="paint5_linear" x1="48" y1="68.25" x2="191" y2="68.25" gradientUnits="userSpaceOnUse">
<stop stop-color="white" stop-opacity="0"/>
<stop offset="0.234375" stop-color="white"/>
<stop offset="0.78125" stop-color="white" stop-opacity="0.832061"/>
<stop offset="1" stop-color="white" stop-opacity="0"/>
</linearGradient>
<linearGradient id="paint6_linear" x1="-18" y1="69.8" x2="257" y2="69.8" gradientUnits="userSpaceOnUse">
<stop stop-color="#24F2FF" stop-opacity="0"/>
<stop offset="0.5" stop-color="#24F2FF"/>
<stop offset="1" stop-color="#24F2FF" stop-opacity="0"/>
</linearGradient>
</defs>
</svg>
