<svg width="60" height="17" viewBox="0 0 60 17" fill="none" xmlns="http://www.w3.org/2000/svg">
<path d="M6.49811 3V7.73048H2.09094V3H0V14.2923H2.09151V9.71533H6.49755V14.2923H8.58962V3H6.49811ZM15.2842 10.6425C15.2842 11.0951 15.1018 11.5292 14.7773 11.8492C14.4527 12.1693 14.0125 12.3491 13.5535 12.3491C13.0945 12.3491 12.6543 12.1693 12.3297 11.8492C12.0052 11.5292 11.8228 11.0951 11.8228 10.6425V5.80536H9.83887V10.6425C9.83887 11.613 10.2298 12.5437 10.9258 13.23C11.6217 13.9163 12.5656 14.3018 13.5498 14.3018C14.534 14.3018 15.4779 13.9163 16.1738 13.23C16.8698 12.5437 17.2608 11.613 17.2608 10.6425V5.80536H15.2842V10.6425ZM29.9847 6.3038C29.9847 5.31194 30.6498 4.99769 31.3783 4.99769C31.9658 4.99769 32.7413 5.43864 33.2491 5.97337L34.5481 4.46296C33.8994 3.5978 32.584 3 31.5068 3C29.3541 3 27.7975 4.24304 27.7975 6.3038C27.7975 10.1273 32.5364 8.9138 32.5364 11.0538C32.5364 11.7136 31.8866 12.2963 31.1428 12.2963C29.9694 12.2963 29.5891 11.7309 29.0502 11.1325L27.6079 12.6111C28.5306 13.7275 29.6683 14.2946 31.0308 14.2946C33.0758 14.2946 34.7208 13.0364 34.7208 11.0695C34.7208 6.82513 29.9813 8.14409 29.9813 6.3038H29.9847ZM59.3021 12.4883C58.1298 12.4883 57.7964 11.9882 57.7964 11.2224V7.83151H59.6191V6.11347H57.7964V3.84674L55.7847 4.73702V11.6438C55.7847 13.4104 57.0209 14.3007 58.7157 14.3007C58.9817 14.3052 59.2477 14.2839 59.5092 14.2382L60 12.4565C59.7787 12.4716 59.5245 12.4866 59.3021 12.4866V12.4883ZM22.8362 5.86173C21.8536 5.86173 21.1675 6.14305 20.5042 6.78439V3.06754H18.5174V9.95702C18.5174 12.5358 20.4079 14.3029 22.5328 14.3029C24.8898 14.3029 26.9632 12.5045 26.9632 10.0832C26.9632 7.69197 25.0551 5.86341 22.8362 5.86341V5.86173ZM22.8238 12.3309C22.5277 12.3309 22.2345 12.2734 21.9609 12.1617C21.6873 12.0499 21.4388 11.8861 21.2294 11.6797C21.02 11.4732 20.8539 11.2281 20.7406 10.9583C20.6273 10.6886 20.569 10.3994 20.569 10.1074C20.569 9.81546 20.6273 9.52633 20.7406 9.25656C20.8539 8.9868 21.02 8.74169 21.2294 8.53522C21.4388 8.32875 21.6873 8.16497 21.9609 8.05323C22.2345 7.94149 22.5277 7.88398 22.8238 7.88398C23.4218 7.88398 23.9953 8.11824 24.4182 8.53522C24.841 8.9522 25.0786 9.51775 25.0786 10.1074C25.0786 10.6971 24.841 11.2627 24.4182 11.6797C23.9953 12.0967 23.4218 12.3309 22.8238 12.3309ZM44.4136 9.98046C44.4136 7.55466 42.3447 5.7607 39.9832 5.7607C37.8589 5.7607 35.9677 7.52731 35.9677 10.1066V17H37.9545V13.2781C38.6168 13.9183 39.304 14.2008 40.2855 14.2008C42.5043 14.2008 44.413 12.3722 44.413 9.98046H44.4136ZM42.5321 9.9559C42.5321 10.5456 42.2945 11.1112 41.8717 11.5281C41.4488 11.9451 40.8753 12.1794 40.2773 12.1794C39.6792 12.1794 39.1057 11.9451 38.6829 11.5281C38.26 11.1112 38.0224 10.5456 38.0224 9.9559C38.0224 9.3662 38.26 8.80066 38.6829 8.38368C39.1057 7.96669 39.6792 7.73244 40.2773 7.73244C40.8753 7.73244 41.4488 7.96669 41.8717 8.38368C42.2945 8.80066 42.5321 9.3662 42.5321 9.9559Z" fill="#2782B4"/>
<path d="M51.2852 5.59741V3.573C51.5488 3.44797 51.772 3.24953 51.9288 3.00078C52.0856 2.75203 52.1695 2.46319 52.1709 2.1679V2.12141C52.1709 1.26045 51.4831 0.562495 50.6348 0.562495H50.589C50.1816 0.562495 49.7909 0.726738 49.5028 1.01909C49.2148 1.31144 49.0529 1.70796 49.0529 2.12141V2.1679C49.0543 2.46319 49.1382 2.75203 49.295 3.00078C49.4518 3.24953 49.675 3.44797 49.9386 3.573V5.59741C49.181 5.71513 48.4675 6.03393 47.8703 6.52151L42.3996 2.19718C42.4386 2.05426 42.459 1.90732 42.4613 1.75981C42.4619 1.41238 42.3611 1.07256 42.1714 0.783327C41.9817 0.494091 41.7118 0.268437 41.3958 0.134907C41.0797 0.00137634 40.7318 -0.034031 40.3959 0.0331635C40.06 0.100358 39.7514 0.267135 39.5089 0.5124C39.2664 0.757664 39.1011 1.0704 39.0338 1.41104C38.9665 1.75168 39.0002 2.10493 39.1308 2.42611C39.2613 2.74728 39.4828 3.02195 39.7671 3.21537C40.0515 3.40879 40.386 3.51227 40.7284 3.51273C41.0279 3.5113 41.3217 3.43015 41.5807 3.2774L46.9677 7.5317C46.4837 8.27366 46.2313 9.14637 46.2432 10.0361C46.2551 10.9258 46.5308 11.7912 47.0344 12.5195L45.396 14.1829C45.2635 14.1399 45.1255 14.1171 44.9865 14.1152C44.7055 14.1154 44.4309 14.2002 44.1973 14.3588C43.9638 14.5173 43.7818 14.7426 43.6743 15.0061C43.5669 15.2697 43.5389 15.5596 43.5937 15.8393C43.6486 16.119 43.784 16.3759 43.9827 16.5775C44.1814 16.7792 44.4345 16.9165 44.7101 16.9722C44.9857 17.0279 45.2714 16.9995 45.531 16.8904C45.7907 16.7814 46.0126 16.5967 46.1689 16.3597C46.3252 16.1226 46.4087 15.8439 46.4089 15.5587C46.4071 15.4176 46.3846 15.2776 46.3422 15.1432L47.9631 13.4976C48.4916 13.9106 49.1063 14.1953 49.7601 14.3299C50.4138 14.4646 51.0892 14.4456 51.7346 14.2744C52.38 14.1032 52.9782 13.7843 53.4834 13.3422C53.9886 12.9002 54.3874 12.3466 54.6492 11.7239C54.9111 11.1013 55.029 10.4261 54.994 9.75002C54.959 9.07397 54.7719 8.41502 54.4472 7.82366C54.1225 7.2323 53.6687 6.72422 53.1206 6.33833C52.5726 5.95244 51.9447 5.699 51.2852 5.59741ZM50.6133 12.2555C50.3137 12.2639 50.0156 12.2112 49.7364 12.1007C49.4572 11.9901 49.2027 11.8239 48.9879 11.6118C48.7731 11.3997 48.6024 11.1461 48.4858 10.8659C48.3692 10.5857 48.3092 10.2847 48.3092 9.98057C48.3092 9.67644 48.3692 9.37539 48.4858 9.09521C48.6024 8.81504 48.7731 8.56142 48.9879 8.34935C49.2027 8.13727 49.4572 7.97104 49.7364 7.86047C50.0156 7.74991 50.3137 7.69725 50.6133 7.70562C51.1939 7.72625 51.744 7.97476 52.1476 8.39879C52.5513 8.82283 52.777 9.38929 52.7773 9.97889C52.7776 10.5685 52.5524 11.1352 52.1492 11.5596C51.746 11.9841 51.1962 12.2331 50.6156 12.2544" fill="#2782B4"/>
</svg>
