<svg width="142" height="48" viewBox="0 0 142 48" fill="none" xmlns="http://www.w3.org/2000/svg">
<path d="M43.9041 28.5583C42.3261 30.0461 40.2789 30.7487 38.1038 30.7487C32.4315 30.7487 30.0005 26.9465 30.0005 23.103C29.9579 19.2182 32.5595 15.292 38.1038 15.292C40.1936 15.292 42.1555 16.0359 43.7335 17.565L41.8143 19.3835C40.7907 18.4329 39.4686 17.9783 38.1038 17.9783C34.3934 17.9783 32.8153 20.6646 32.8153 23.1443C32.858 25.5827 34.3081 28.1863 38.1038 28.1863C39.4259 28.1863 40.9613 27.6491 41.9422 26.6985L43.9041 28.5583Z" fill="#045F87"/>
<path d="M58.7043 15.6221V24.1356C58.7043 28.5164 55.9321 30.7481 52.0937 30.7481C48.4259 30.7481 45.3125 28.599 45.3125 24.1356V15.6221H48.17V24.1356C48.17 26.8219 49.748 28.2271 52.1363 28.2271C54.5247 28.2271 55.8894 26.698 55.8894 24.1356V15.6221H58.7043Z" fill="#045F87"/>
<path d="M75.1229 30.4178H71.711L67.2328 25.4584H64.4607V30.4178H61.5605V15.5811C63.9915 15.5811 66.4225 15.6224 68.8535 15.6224C72.4787 15.6637 74.3552 17.9781 74.3552 20.5404C74.3552 22.5655 73.3743 24.6319 70.4741 25.2105L75.1229 30.2938V30.4178ZM64.4607 18.1847V22.9374H68.8535C70.6874 22.9374 71.4977 21.7389 71.4977 20.5817C71.4977 19.4246 70.6874 18.226 68.8535 18.226H64.4607V18.1847Z" fill="#045F87"/>
<path d="M87.1507 27.6075H79.1327L77.8106 30.4178H74.6973L81.5637 15.5811H84.7197L91.6289 30.4178H88.4728L87.1507 27.6075ZM83.1844 18.722L80.3269 25.0452H85.9992L83.1844 18.722Z" fill="#045F87"/>
<path d="M94.3581 18.1434H89.4961V15.5811C93.9316 15.5811 97.642 15.5811 102.078 15.5811V18.1434H97.2155V30.4178H94.3154V18.1434H94.3581Z" fill="#045F87"/>
<path d="M115.256 30.4178H103.783C103.783 25.4998 103.783 20.5404 103.783 15.5811H115.256V18.3087H106.683V21.7389H114.957V24.3426H106.683V27.6901H115.256V30.4178Z" fill="#045F87"/>
<path d="M130.952 22.8961C131.038 26.6569 128.649 30.4591 123.318 30.4591C121.442 30.4591 119.181 30.4591 117.305 30.4591V15.5811C119.181 15.5811 121.442 15.5811 123.318 15.5811C128.564 15.5811 130.91 19.2179 130.952 22.8961ZM120.162 27.7315H123.318C126.815 27.7315 128.18 25.2931 128.095 22.8548C128.01 20.5404 126.645 18.226 123.318 18.226H120.162V27.7315Z" fill="#045F87"/>
<path d="M32.3476 0.0820312V3.51225H35.7595V0.0820312H37.8493V9.00887H35.7595V5.28936H32.3476V9.00887H30.2578V0.0820312H32.3476Z" fill="#6D9AD1"/>
<path d="M46.2102 6.90176C46.2102 7.72832 46.2528 8.43089 46.2528 8.96816H44.4615L44.3762 8.05894H44.291C44.0351 8.47222 43.3953 9.13347 42.2012 9.13347C40.8364 9.13347 39.8555 8.30691 39.8555 6.32317V2.521H41.9453V5.99254C41.9453 6.94309 42.2438 7.48035 42.9688 7.48035C43.5233 7.48035 43.8645 7.1084 43.9924 6.77778C44.0351 6.65379 44.0777 6.48848 44.0777 6.32317V2.521H46.1675V6.90176H46.2102Z" fill="#6D9AD1"/>
<path d="M48.1716 4.58767C48.1716 3.76111 48.1289 3.09986 48.1289 2.52127H49.8775L49.9628 3.38916H50.0055C50.304 2.97588 50.8584 2.35596 52.01 2.35596C52.8629 2.35596 53.5453 2.76924 53.8439 3.47181H53.8865C54.1424 3.14119 54.4409 2.89322 54.7395 2.68658C55.1233 2.47994 55.5072 2.35596 56.019 2.35596C57.2984 2.35596 58.2794 3.22384 58.2794 5.16626V8.96843H56.2322V5.45556C56.2322 4.50501 55.9337 3.96775 55.2513 3.96775C54.7821 3.96775 54.4409 4.29837 54.313 4.67032C54.2704 4.83564 54.2277 5.04228 54.2277 5.16626V8.96843H52.2232V5.3729C52.2232 4.54634 51.9247 4.00908 51.2849 4.00908C50.7731 4.00908 50.4319 4.42236 50.304 4.75298C50.2187 4.91829 50.2187 5.0836 50.2187 5.24892V9.00976H48.2142V4.58767H48.1716Z" fill="#6D9AD1"/>
<path d="M64.0344 8.96843L63.9065 8.30718H63.8638C63.4373 8.80312 62.7549 9.09242 61.9446 9.09242C60.5799 9.09242 59.7695 8.14187 59.7695 7.10867C59.7695 5.41423 61.3049 4.629 63.6932 4.629V4.54634C63.6932 4.21572 63.5226 3.71978 62.4991 3.71978C61.8167 3.71978 61.0916 3.92642 60.6652 4.21572L60.2813 2.93455C60.7505 2.68658 61.6461 2.35596 62.8829 2.35596C65.1006 2.35596 65.8257 3.63712 65.8257 5.16626V7.39797C65.8257 8.01789 65.8683 8.59648 65.911 8.96843H64.0344ZM63.7785 5.91016C62.6697 5.91016 61.8593 6.15813 61.8593 6.94336C61.8593 7.4393 62.2005 7.72859 62.6697 7.72859C63.1814 7.72859 63.6079 7.39797 63.7359 6.98469C63.7785 6.86071 63.7785 6.77805 63.7785 6.65407V5.91016Z" fill="#6D9AD1"/>
<path d="M67.7904 4.58767C67.7904 3.76111 67.7477 3.09986 67.7477 2.52127H69.539L69.6243 3.38916H69.6669C69.9228 2.97588 70.6052 2.35596 71.7141 2.35596C73.0788 2.35596 74.1024 3.22384 74.1024 5.12493V8.96843H72.0126V5.3729C72.0126 4.54634 71.7141 3.96775 70.9464 3.96775C70.392 3.96775 70.0508 4.3397 69.8802 4.71165C69.8375 4.83564 69.7949 5.04228 69.7949 5.20759V8.9271H67.7051V4.58767H67.7904Z" fill="#6D9AD1"/>
<path d="M79.2598 0.165312C79.9421 0.041328 80.9231 0 82.0319 0C83.3967 0 84.335 0.20664 85.0174 0.702576C85.5718 1.11586 85.8703 1.73577 85.8703 2.56233C85.8703 3.71952 85.0174 4.46342 84.2497 4.75272V4.79405C84.8894 5.04201 85.2306 5.6206 85.4865 6.44716C85.785 7.43904 86.0409 8.59622 86.2542 8.96817H84.1217C83.9511 8.7202 83.7379 7.9763 83.482 6.90177C83.2261 5.78592 82.8423 5.49662 81.9893 5.45529H81.3496V8.96817H79.2598V0.165312ZM81.3069 4.00881H82.1172C83.1408 4.00881 83.7806 3.51288 83.7806 2.72765C83.7806 1.90109 83.2261 1.48781 82.2452 1.48781C81.7334 1.48781 81.4349 1.52914 81.3069 1.57046V4.00881Z" fill="#6D9AD1"/>
<path d="M89.1976 6.40579C89.2829 7.23235 90.0932 7.64563 91.0741 7.64563C91.7992 7.64563 92.3536 7.56297 92.908 7.39766L93.1639 8.76148C92.4815 9.00945 91.6286 9.17476 90.7329 9.17476C88.4725 9.17476 87.1504 7.89359 87.1504 5.86852C87.1504 4.2154 88.2166 2.39697 90.5197 2.39697C92.6948 2.39697 93.5051 4.00876 93.5051 5.62055C93.5051 5.95118 93.4625 6.2818 93.4198 6.40579H89.1976ZM91.6712 5.00063C91.6712 4.5047 91.458 3.67814 90.477 3.67814C89.624 3.67814 89.2402 4.46337 89.1976 5.00063H91.6712Z" fill="#6D9AD1"/>
<path d="M95.126 7.23235C95.5099 7.43898 96.3202 7.72828 96.9173 7.72828C97.557 7.72828 97.8129 7.52164 97.8129 7.19102C97.8129 6.86039 97.5997 6.69508 96.832 6.44711C95.4672 5.99251 94.9128 5.28993 94.9554 4.5047C94.9554 3.30619 96.0217 2.39697 97.685 2.39697C98.4526 2.39697 99.1777 2.56228 99.5615 2.76892L99.1777 4.17408C98.8791 4.00876 98.3247 3.80212 97.7276 3.80212C97.2158 3.80212 96.9173 4.00876 96.9173 4.33939C96.9173 4.62868 97.1732 4.79399 97.9835 5.08329C99.263 5.49657 99.7748 6.11649 99.8174 7.06703C99.8174 8.26554 98.8365 9.17476 96.9173 9.17476C96.0643 9.17476 95.254 9.00945 94.7422 8.72015L95.126 7.23235Z" fill="#6D9AD1"/>
<path d="M108.006 5.66219C108.006 8.01789 106.258 9.13375 104.466 9.13375C102.504 9.13375 101.012 7.89391 101.012 5.78618C101.012 3.67845 102.419 2.35596 104.594 2.35596C106.641 2.35596 108.006 3.71978 108.006 5.66219ZM103.144 5.74485C103.144 6.86071 103.613 7.68727 104.509 7.68727C105.319 7.68727 105.831 6.90203 105.831 5.74485C105.831 4.79431 105.447 3.80244 104.509 3.80244C103.528 3.80244 103.144 4.79431 103.144 5.74485Z" fill="#6D9AD1"/>
<path d="M115.898 6.90176C115.898 7.72832 115.941 8.43089 115.941 8.96816H114.149L114.064 8.05894H114.021C113.766 8.47222 113.126 9.13347 111.932 9.13347C110.567 9.13347 109.586 8.30691 109.586 6.32317V2.521H111.676V5.99254C111.676 6.94309 111.974 7.48035 112.699 7.48035C113.254 7.48035 113.595 7.1084 113.723 6.77778C113.766 6.65379 113.808 6.48848 113.808 6.32317V2.521H115.898V6.90176Z" fill="#6D9AD1"/>
<path d="M117.902 4.629C117.902 3.67845 117.859 3.05853 117.859 2.47994H119.651L119.736 3.67845H119.779C120.12 2.72791 120.93 2.35596 121.57 2.35596C121.74 2.35596 121.868 2.35596 121.996 2.39729V4.29837C121.826 4.25704 121.655 4.25704 121.442 4.25704C120.674 4.25704 120.162 4.67032 120.034 5.29024C119.992 5.41423 119.992 5.57954 119.992 5.74485V9.00976H117.902V4.629Z" fill="#6D9AD1"/>
<path d="M128.307 8.80312C127.923 8.96843 127.241 9.09242 126.43 9.09242C124.255 9.09242 122.891 7.81125 122.891 5.78618C122.891 3.88509 124.213 2.35596 126.729 2.35596C127.283 2.35596 127.881 2.43861 128.307 2.60393L127.966 4.09173C127.71 3.96775 127.369 3.88509 126.814 3.88509C125.705 3.88509 125.023 4.629 125.023 5.70352C125.023 6.90203 125.833 7.52195 126.857 7.52195C127.369 7.52195 127.71 7.4393 128.051 7.31531L128.307 8.80312Z" fill="#6D9AD1"/>
<path d="M131.207 6.40579C131.293 7.23235 132.103 7.64563 133.084 7.64563C133.809 7.64563 134.363 7.56297 134.918 7.39766L135.174 8.76148C134.491 9.00945 133.638 9.17476 132.743 9.17476C130.482 9.17476 129.16 7.89359 129.16 5.86852C129.16 4.2154 130.226 2.39697 132.529 2.39697C134.705 2.39697 135.515 4.00876 135.515 5.62055C135.515 5.95118 135.472 6.2818 135.43 6.40579H131.207ZM133.681 5.00063C133.681 4.5047 133.468 3.67814 132.487 3.67814C131.634 3.67814 131.25 4.46337 131.207 5.00063H133.681Z" fill="#6D9AD1"/>
<path d="M137.136 7.23235C137.52 7.43898 138.33 7.72828 138.927 7.72828C139.567 7.72828 139.823 7.52164 139.823 7.19102C139.823 6.86039 139.609 6.69508 138.842 6.44711C137.477 5.99251 136.923 5.28993 136.965 4.5047C136.965 3.30619 138.031 2.39697 139.695 2.39697C140.462 2.39697 141.187 2.56228 141.571 2.76892L141.187 4.17408C140.889 4.00876 140.334 3.80212 139.737 3.80212C139.226 3.80212 138.927 4.00876 138.927 4.33939C138.927 4.62868 139.183 4.79399 139.993 5.08329C141.273 5.49657 141.785 6.11649 141.827 7.06703C141.827 8.26554 140.846 9.17476 138.927 9.17476C138.074 9.17476 137.264 9.00945 136.752 8.72015L137.136 7.23235Z" fill="#6D9AD1"/>
<path d="M7 20L10 23L20 13" stroke="#6D9AD1" stroke-width="2" stroke-linecap="round" stroke-linejoin="round"/>
<path d="M19 21V28C19 28.5304 18.7893 29.0391 18.4142 29.4142C18.0391 29.7893 17.5304 30 17 30H3C2.46957 30 1.96086 29.7893 1.58579 29.4142C1.21071 29.0391 1 28.5304 1 28V14C1 13.4696 1.21071 12.9609 1.58579 12.5858C1.96086 12.2107 2.46957 12 3 12H14" stroke="#045F87" stroke-width="2" stroke-linecap="round" stroke-linejoin="round"/>
<path d="M32.4121 41.0303H32.9004C33.3789 41.0303 33.7321 40.9505 33.96 40.791C34.1878 40.6315 34.3018 40.3809 34.3018 40.0391C34.3018 39.7005 34.1846 39.4596 33.9502 39.3164C33.7191 39.1732 33.3594 39.1016 32.8711 39.1016H32.4121V41.0303ZM32.4121 42.2607V45H30.8984V37.8613H32.9785C33.9486 37.8613 34.6663 38.0387 35.1318 38.3936C35.5973 38.7451 35.8301 39.2806 35.8301 40C35.8301 40.4199 35.7145 40.7943 35.4834 41.123C35.2523 41.4486 34.9251 41.7041 34.502 41.8896C35.5762 43.4945 36.276 44.5312 36.6016 45H34.9219L33.2178 42.2607H32.4121ZM41.6113 45H37.5V37.8613H41.6113V39.1016H39.0137V40.6689H41.4307V41.9092H39.0137V43.75H41.6113V45ZM49.585 41.4209C49.585 42.2607 49.4352 42.9655 49.1357 43.5352C48.8395 44.1016 48.4033 44.5166 47.8271 44.7803L49.5459 46.6992H47.6074L46.2988 45.0977H46.1865C45.0928 45.0977 44.2529 44.7803 43.667 44.1455C43.0811 43.5107 42.7881 42.5993 42.7881 41.4111C42.7881 40.223 43.0811 39.3164 43.667 38.6914C44.2562 38.0632 45.0993 37.749 46.1963 37.749C47.2933 37.749 48.1315 38.0648 48.7109 38.6963C49.2936 39.3278 49.585 40.236 49.585 41.4209ZM44.375 41.4209C44.375 42.2184 44.5264 42.819 44.8291 43.2227C45.1318 43.6263 45.5843 43.8281 46.1865 43.8281C47.3942 43.8281 47.998 43.0257 47.998 41.4209C47.998 39.8128 47.3975 39.0088 46.1963 39.0088C45.5941 39.0088 45.14 39.2122 44.834 39.6191C44.528 40.0228 44.375 40.6234 44.375 41.4209ZM56.875 37.8613V42.4805C56.875 43.0078 56.7562 43.4701 56.5186 43.8672C56.2842 44.2643 55.944 44.5687 55.498 44.7803C55.0521 44.9919 54.5247 45.0977 53.916 45.0977C52.998 45.0977 52.2852 44.8633 51.7773 44.3945C51.2695 43.9225 51.0156 43.278 51.0156 42.4609V37.8613H52.5244V42.2314C52.5244 42.7816 52.6351 43.1852 52.8564 43.4424C53.0778 43.6995 53.444 43.8281 53.9551 43.8281C54.4499 43.8281 54.8079 43.6995 55.0293 43.4424C55.2539 43.182 55.3662 42.7751 55.3662 42.2217V37.8613H56.875ZM62.7344 45H58.623V37.8613H62.7344V39.1016H60.1367V40.6689H62.5537V41.9092H60.1367V43.75H62.7344V45ZM68.4424 43.0176C68.4424 43.6621 68.2096 44.1699 67.7441 44.541C67.2819 44.9121 66.6374 45.0977 65.8105 45.0977C65.0488 45.0977 64.375 44.9544 63.7891 44.668V43.2617C64.2708 43.4766 64.6777 43.6279 65.0098 43.7158C65.3451 43.8037 65.651 43.8477 65.9277 43.8477C66.2598 43.8477 66.5137 43.7842 66.6895 43.6572C66.8685 43.5303 66.958 43.3415 66.958 43.0908C66.958 42.9508 66.9189 42.8271 66.8408 42.7197C66.7627 42.609 66.6471 42.5033 66.4941 42.4023C66.3444 42.3014 66.0368 42.1403 65.5713 41.9189C65.1351 41.7139 64.8079 41.5169 64.5898 41.3281C64.3717 41.1393 64.1976 40.9196 64.0674 40.6689C63.9372 40.4183 63.8721 40.1253 63.8721 39.79C63.8721 39.1585 64.0853 38.6621 64.5117 38.3008C64.9414 37.9395 65.5339 37.7588 66.2891 37.7588C66.6602 37.7588 67.0133 37.8027 67.3486 37.8906C67.6872 37.9785 68.0404 38.1022 68.4082 38.2617L67.9199 39.4385C67.5391 39.2822 67.2233 39.1732 66.9727 39.1113C66.7253 39.0495 66.4811 39.0186 66.2402 39.0186C65.9538 39.0186 65.734 39.0853 65.5811 39.2188C65.4281 39.3522 65.3516 39.5264 65.3516 39.7412C65.3516 39.8747 65.3825 39.9919 65.4443 40.0928C65.5062 40.1904 65.6038 40.2865 65.7373 40.3809C65.874 40.472 66.1947 40.638 66.6992 40.8789C67.3665 41.1979 67.8239 41.5186 68.0713 41.8408C68.3187 42.1598 68.4424 42.5521 68.4424 43.0176ZM72.4902 45H70.9766V39.1211H69.0381V37.8613H74.4287V39.1211H72.4902V45ZM79.6387 45H75.5273V37.8613H79.6387V39.1016H77.041V40.6689H79.458V41.9092H77.041V43.75H79.6387V45ZM87.0557 41.3623C87.0557 42.5374 86.7204 43.4375 86.0498 44.0625C85.3825 44.6875 84.4173 45 83.1543 45H81.1328V37.8613H83.374C84.5394 37.8613 85.4443 38.1689 86.0889 38.7842C86.7334 39.3994 87.0557 40.2588 87.0557 41.3623ZM85.4834 41.4014C85.4834 39.8682 84.8063 39.1016 83.4521 39.1016H82.6465V43.75H83.2959C84.7542 43.75 85.4834 42.9671 85.4834 41.4014Z" fill="#045F87"/>
</svg>
