<svg width="143" height="33" viewBox="0 0 143 33" fill="none" xmlns="http://www.w3.org/2000/svg">
<path d="M43.7043 29.828C42.1049 31.3842 40.0299 32.1191 37.8253 32.1191C32.0759 32.1191 29.6119 28.1421 29.6119 24.1218C29.5686 20.0584 32.2056 15.9517 37.8253 15.9517C39.9435 15.9517 41.932 16.7298 43.5314 18.3292L41.5861 20.2313C40.5486 19.237 39.2086 18.7615 37.8253 18.7615C34.0644 18.7615 32.4649 21.5714 32.4649 24.1651C32.5082 26.7156 33.9779 29.439 37.8253 29.439C39.1654 29.439 40.7216 28.877 41.7158 27.8827L43.7043 29.828Z" fill="#CBCBCB"/>
<path d="M58.7476 16.2979V25.2029C58.7476 29.7851 55.9377 32.1195 52.0472 32.1195C48.3295 32.1195 45.1738 29.8716 45.1738 25.2029V16.2979H48.0701V25.2029C48.0701 28.0128 49.6696 29.4825 52.0904 29.4825C54.5112 29.4825 55.8945 27.8831 55.8945 25.2029V16.2979H58.7476Z" fill="#CBCBCB"/>
<path d="M75.3912 31.7734H71.9329L67.3939 26.586H64.5841V31.7734H61.6445V16.2544C64.1086 16.2544 66.5726 16.2976 69.0366 16.2976C72.711 16.3409 74.6131 18.7616 74.6131 21.4418C74.6131 23.56 73.6188 25.7214 70.6793 26.3266L75.3912 31.6438V31.7734ZM64.5409 18.9778V23.9491H68.9934C70.8522 23.9491 71.6736 22.6954 71.6736 21.485C71.6736 20.2746 70.8522 19.021 68.9934 19.021H64.5409V18.9778Z" fill="#CBCBCB"/>
<path d="M87.5817 28.8339H79.4548L78.1146 31.7734H74.959L81.9188 16.2544H85.1177L92.0775 31.7734H88.8785L87.5817 28.8339ZM83.5182 19.5398L80.6219 26.1537H86.3713L83.5182 19.5398Z" fill="#CBCBCB"/>
<path d="M94.887 18.9346H89.959V16.2544C94.4548 16.2544 98.2156 16.2544 102.711 16.2544V18.9346H97.7833V31.7734H94.8438V18.9346H94.887Z" fill="#CBCBCB"/>
<path d="M116.068 31.7734H104.439C104.439 26.6292 104.439 21.4418 104.439 16.2544H116.068V19.1075H107.379V22.6954H115.765V25.4188H107.379V28.9204H116.068V31.7734Z" fill="#CBCBCB"/>
<path d="M131.978 23.9058C132.064 27.8396 129.643 31.8167 124.24 31.8167C122.338 31.8167 120.047 31.8167 118.145 31.8167V16.2544C120.047 16.2544 122.338 16.2544 124.24 16.2544C129.514 16.2544 131.891 20.0585 131.978 23.9058ZM121.041 28.9636H124.24C127.784 28.9636 129.168 26.4131 129.081 23.8626C128.995 21.4418 127.612 19.021 124.24 19.021H121.041V28.9636Z" fill="#CBCBCB"/>
<path fill-rule="evenodd" clip-rule="evenodd" d="M0.043218 16.6004L0 13.0125C0 12.6234 0.216148 12.3208 0.518748 12.3208H3.026C3.3286 12.3208 3.54474 12.6234 3.54474 12.9692L3.58796 16.5572C3.58796 16.9463 3.37181 17.2489 3.06921 17.2489H0.561966C0.302594 17.2489 0.043218 16.9463 0.043218 16.6004Z" fill="#CBCBCB"/>
<path fill-rule="evenodd" clip-rule="evenodd" d="M0.043218 23.516L0 19.928C0 19.5389 0.216148 19.2363 0.518748 19.2363H3.026C3.3286 19.2363 3.54474 19.5389 3.54474 19.8848L3.58796 23.4727C3.58796 23.8618 3.37181 24.1644 3.06921 24.1644H0.561966C0.302594 24.1644 0.043218 23.8618 0.043218 23.516Z" fill="#CBCBCB"/>
<path fill-rule="evenodd" clip-rule="evenodd" d="M4.66822 16.557L4.625 12.969C4.625 12.5799 4.84115 12.2773 5.14375 12.2773H7.651C7.9536 12.2773 8.16974 12.5799 8.16974 12.9258L8.21296 16.5137C8.21296 16.9028 7.99681 17.2054 7.69421 17.2054H5.18697C4.88437 17.2054 4.66822 16.9028 4.66822 16.557Z" fill="#CBCBCB"/>
<path fill-rule="evenodd" clip-rule="evenodd" d="M9.16434 28.2284L9.12109 24.6404C9.12109 24.2513 9.33724 23.9487 9.63984 23.9487H12.1471C12.4497 23.9487 12.6658 24.2513 12.6658 24.5972L12.7091 28.1851C12.7091 28.5742 12.4929 28.8768 12.1903 28.8768H9.68309C9.38049 28.92 9.16434 28.6174 9.16434 28.2284Z" fill="#CBCBCB"/>
<path fill-rule="evenodd" clip-rule="evenodd" d="M9.12134 22.3924L9.07812 18.8044C9.07812 18.4154 9.29427 18.1128 9.59687 18.1128H12.1041C12.4067 18.1128 12.6229 18.4154 12.6229 18.7612L12.6661 22.3492C12.6661 22.7382 12.4499 23.0408 12.1473 23.0408H9.64009C9.33749 23.0408 9.12134 22.7382 9.12134 22.3924Z" fill="#CBCBCB"/>
<path fill-rule="evenodd" clip-rule="evenodd" d="M9.07837 16.513L9.03516 12.9251C9.03516 12.536 9.25128 12.2334 9.55388 12.2334H12.0612C12.3638 12.2334 12.5799 12.536 12.5799 12.8818L12.6231 16.4698C12.6231 16.8589 12.407 17.1615 12.1044 17.1615H9.59712C9.29452 17.2047 9.07837 16.9021 9.07837 16.513Z" fill="#CBCBCB"/>
<path fill-rule="evenodd" clip-rule="evenodd" d="M13.5725 28.1854L13.5293 24.5974C13.5293 24.2084 13.7454 23.9058 14.048 23.9058H16.5553C16.8579 23.9058 17.074 24.2084 17.074 24.5542L17.1173 28.1422C17.1173 28.5312 16.9011 28.8338 16.5985 28.8338H14.0913C13.7887 28.877 13.5725 28.5744 13.5725 28.1854Z" fill="#CBCBCB"/>
<path fill-rule="evenodd" clip-rule="evenodd" d="M13.5315 22.349L13.4883 18.761C13.4883 18.3719 13.7044 18.0693 14.007 18.0693H16.5143C16.8169 18.0693 17.033 18.3719 17.033 18.7178L17.0762 22.3057C17.0762 22.6948 16.8601 22.9974 16.5575 22.9974H14.0502C13.7476 22.9974 13.5315 22.738 13.5315 22.349Z" fill="#CBCBCB"/>
<path fill-rule="evenodd" clip-rule="evenodd" d="M13.4866 16.513L13.4434 12.9251C13.4434 12.536 13.6595 12.2334 13.9621 12.2334H16.4694C16.772 12.2334 16.9881 12.536 16.9881 12.8818L17.0313 16.4698C17.0313 16.8589 16.8152 17.1615 16.5126 17.1615H14.0054C13.7028 17.1615 13.4866 16.8589 13.4866 16.513Z" fill="#CBCBCB"/>
<path fill-rule="evenodd" clip-rule="evenodd" d="M4.32251 10.5482L4.2793 6.96021C4.2793 6.57116 4.49542 6.26855 4.79802 6.26855H7.30529C7.60789 6.26855 7.82401 6.57115 7.82401 6.91698L7.86726 10.505C7.86726 10.894 7.65111 11.1966 7.34851 11.1966H4.84126C4.58189 11.2398 4.32251 10.9372 4.32251 10.5482Z" fill="#CBCBCB"/>
<path fill-rule="evenodd" clip-rule="evenodd" d="M9.03543 10.5047L8.99219 6.91675C8.99219 6.52769 9.20834 6.2251 9.51094 6.2251H12.0182C12.3208 6.2251 12.5369 6.5277 12.5369 6.87353L12.5801 10.4615C12.5801 10.8506 12.364 11.1531 12.0614 11.1531H9.55415C9.25155 11.1531 9.03543 10.8505 9.03543 10.5047Z" fill="#CBCBCB"/>
<path fill-rule="evenodd" clip-rule="evenodd" d="M13.4436 10.4618L13.4004 6.87379C13.4004 6.48473 13.6165 6.18213 13.9191 6.18213H16.4264C16.729 6.18213 16.9451 6.48473 16.9451 6.83056L16.9884 10.4185C16.9884 10.8076 16.7722 11.1102 16.4696 11.1102H13.9624C13.6598 11.1534 13.4436 10.8508 13.4436 10.4618Z" fill="#CBCBCB"/>
<path fill-rule="evenodd" clip-rule="evenodd" d="M17.7678 22.306L17.7246 18.718C17.7246 18.329 17.9408 18.0264 18.2434 18.0264H20.7506C21.0532 18.0264 21.2694 18.329 21.2694 18.6748L21.3126 22.2628C21.3126 22.6518 21.0964 22.9544 20.7938 22.9544H18.2866C17.984 22.9976 17.7678 22.695 17.7678 22.306Z" fill="#CBCBCB"/>
<path fill-rule="evenodd" clip-rule="evenodd" d="M17.7229 16.4705L17.6797 12.8826C17.6797 12.4935 17.8958 12.1909 18.1984 12.1909H20.7057C21.0083 12.1909 21.2244 12.4935 21.2244 12.8393L21.2676 16.4273C21.2676 16.8164 21.0515 17.119 20.7489 17.119H18.2417C17.9391 17.119 17.7229 16.8164 17.7229 16.4705Z" fill="#CBCBCB"/>
<path fill-rule="evenodd" clip-rule="evenodd" d="M17.68 10.4183L17.6367 6.83032C17.6367 6.44127 17.8529 6.13867 18.1555 6.13867H20.6627C20.9653 6.13867 21.1815 6.44127 21.1815 6.7871L21.2247 10.3751C21.2247 10.7641 21.0086 11.0667 20.706 11.0667H18.1987C17.8961 11.1099 17.68 10.8073 17.68 10.4183Z" fill="#CBCBCB"/>
<path d="M19.8333 20.1186L14.791 25.9312L15.3788 26.4411L20.4211 20.6285L19.8333 20.1186Z" fill="#CBCBCB"/>
<path d="M19.3271 9.04883L14.2832 14.8599L14.8708 15.3699L19.9147 9.55888L19.3271 9.04883Z" fill="#CBCBCB"/>
<path d="M31.9893 0.0432312V3.6312H35.4476V0.0432312H37.5658V9.33736H35.4476V5.4468H31.9893V9.33736H29.8711V0H31.9893V0.0432312Z" fill="#CBCBCB"/>
<path d="M46.0385 7.17574C46.0385 8.04031 46.0817 8.7752 46.0817 9.33717H44.2661L44.1796 8.38614H44.1364C43.877 8.81843 43.2286 9.51008 42.0182 9.51008C40.6349 9.51008 39.6406 8.64552 39.6406 6.57055V2.59352H41.7588V6.22472C41.7588 7.21897 42.0614 7.78094 42.7963 7.78094C43.3583 7.78094 43.7041 7.39188 43.8338 7.04606C43.8771 6.91637 43.9203 6.74346 43.9203 6.57055V2.55029H46.0385V7.17574Z" fill="#CBCBCB"/>
<path d="M48.0706 4.75475C48.0706 3.89018 48.0273 3.19852 48.0273 2.59332H49.7997L49.8862 3.50112H49.9294C50.232 3.06884 50.794 2.42041 51.9611 2.42041C52.8257 2.42041 53.5174 2.85269 53.82 3.58758H53.8632C54.1226 3.24175 54.4252 2.98238 54.7278 2.76624C55.1168 2.5501 55.5059 2.42041 56.0246 2.42041C57.3215 2.42041 58.3158 3.32821 58.3158 5.35995V9.33697H56.284V5.66255C56.284 4.66829 55.9814 4.10632 55.2898 4.10632C54.8142 4.10632 54.4684 4.45215 54.3387 4.84121C54.2955 5.01412 54.2523 5.23027 54.2523 5.35995V9.33697H52.2205V5.53286C52.2205 4.66829 51.9179 4.10632 51.2695 4.10632C50.7507 4.10632 50.4049 4.53861 50.2753 4.88443C50.1888 5.05735 50.1888 5.23026 50.1888 5.40318V9.33697H48.1571V4.75475H48.0706Z" fill="#CBCBCB"/>
<path d="M64.151 9.33697L64.0213 8.64532H63.9781C63.5458 9.16406 62.8541 9.46666 62.0328 9.46666C60.6495 9.46666 59.8281 8.4724 59.8281 7.39169C59.8281 5.61932 61.3843 4.79798 63.8051 4.79798V4.71152C63.8051 4.3657 63.6322 3.84695 62.5948 3.84695C61.9031 3.84695 61.1682 4.06309 60.7359 4.36569L60.3468 3.02561C60.8224 2.76624 61.7301 2.42041 62.9838 2.42041C65.2317 2.42041 65.9666 3.7605 65.9666 5.35995V7.69429C65.9666 8.34272 66.0098 8.94792 66.053 9.33697H64.151ZM63.8916 6.13807C62.7677 6.13807 61.9463 6.39744 61.9463 7.21878C61.9463 7.73752 62.2921 8.04012 62.7676 8.04012C63.2864 8.04012 63.7187 7.69429 63.8483 7.262C63.8916 7.13232 63.8916 7.04586 63.8916 6.91617V6.13807Z" fill="#CBCBCB"/>
<path d="M67.9107 4.75475C67.9107 3.89018 67.8674 3.19852 67.8674 2.59332H69.683L69.7695 3.50112H69.8127C70.0721 3.06884 70.7638 2.42041 71.8877 2.42041C73.271 2.42041 74.3085 3.32821 74.3085 5.31672V9.33697H72.1903V5.57609C72.1903 4.71152 71.8877 4.10632 71.1096 4.10632C70.5476 4.10632 70.2018 4.49538 70.0289 4.88443C69.9856 5.01412 69.9424 5.23026 69.9424 5.40318V9.29374H67.8242V4.75475H67.9107Z" fill="#CBCBCB"/>
<path d="M79.584 0.172918C80.2756 0.0432325 81.2699 0 82.3938 0C83.7772 0 84.7282 0.216148 85.4198 0.73489C85.9818 1.16718 86.2844 1.8156 86.2844 2.68017C86.2844 3.89057 85.4199 4.66868 84.6418 4.97128V5.01451C85.2902 5.27388 85.636 5.87908 85.8953 6.74365C86.1979 7.78114 86.4573 8.99154 86.6735 9.3806H84.512C84.3391 9.12122 84.123 8.34311 83.8636 7.21917C83.6042 6.052 83.2152 5.7494 82.3506 5.70617H81.7022V9.3806H79.6272V0.172918H79.584ZM81.659 4.14994H82.4803C83.5178 4.14994 84.1662 3.6312 84.1662 2.80985C84.1662 1.94528 83.6042 1.513 82.61 1.513C82.0912 1.513 81.7887 1.55623 81.659 1.59946V4.14994Z" fill="#CBCBCB"/>
<path d="M89.657 6.65703C89.7435 7.5216 90.5648 7.95389 91.5591 7.95389C92.294 7.95389 92.8559 7.86743 93.4179 7.69451L93.6772 9.12106C92.9856 9.38043 92.121 9.55334 91.2132 9.55334C88.9221 9.55334 87.582 8.21326 87.582 6.09506C87.582 4.36592 88.6628 2.46387 90.9971 2.46387C93.2017 2.46387 94.0231 4.14977 94.0231 5.83569C94.0231 6.18151 93.9799 6.52735 93.9367 6.65703H89.657ZM92.121 5.18726C92.121 4.66852 91.9049 3.80395 90.9107 3.80395C90.0461 3.80395 89.657 4.62529 89.6138 5.18726H92.121Z" fill="#CBCBCB"/>
<path d="M95.6645 7.5216C96.0535 7.73775 96.8748 8.04034 97.48 8.04034C98.1285 8.04034 98.3878 7.8242 98.3878 7.47837C98.3878 7.13254 98.1717 6.95963 97.3936 6.70026C96.0103 6.22474 95.4483 5.48986 95.4915 4.66852C95.4915 3.41489 96.5723 2.46387 98.2582 2.46387C99.0363 2.46387 99.7711 2.63678 100.16 2.85292L99.7712 4.32269C99.4686 4.14977 98.9066 3.93363 98.3014 3.93363C97.7826 3.93363 97.48 4.14978 97.48 4.49561C97.48 4.79821 97.7394 4.97112 98.5607 5.27372C99.8576 5.70601 100.376 6.35443 100.42 7.34868C100.42 8.60231 99.4253 9.55334 97.48 9.55334C96.6155 9.55334 95.7941 9.38043 95.2754 9.07783L95.6645 7.5216Z" fill="#CBCBCB"/>
<path d="M108.675 5.87869C108.675 8.34272 106.903 9.50989 105.087 9.50989C103.099 9.50989 101.586 8.21303 101.586 6.00838C101.586 3.80372 103.012 2.42041 105.217 2.42041C107.292 2.42041 108.675 3.84695 108.675 5.87869ZM103.791 5.96515C103.791 7.13232 104.266 7.99689 105.174 7.99689C105.995 7.99689 106.514 7.17555 106.514 5.96515C106.514 4.97089 106.125 3.93341 105.174 3.93341C104.136 3.93341 103.791 4.97089 103.791 5.96515Z" fill="#CBCBCB"/>
<path d="M116.673 7.17574C116.673 8.04031 116.716 8.7752 116.716 9.33717H114.901L114.814 8.38614H114.771C114.512 8.81843 113.863 9.51008 112.653 9.51008C111.27 9.51008 110.275 8.64552 110.275 6.57055V2.59352H112.394V6.22472C112.394 7.21897 112.696 7.78094 113.431 7.78094C113.993 7.78094 114.339 7.39188 114.469 7.04606C114.512 6.91637 114.555 6.74346 114.555 6.57055V2.55029H116.673V7.17574Z" fill="#CBCBCB"/>
<path d="M118.705 4.79798C118.705 3.80372 118.662 3.1553 118.662 2.5501H120.478L120.564 3.80372H120.607C120.953 2.80947 121.775 2.42041 122.423 2.42041C122.596 2.42041 122.726 2.42041 122.855 2.46364V4.45215C122.682 4.40892 122.509 4.40892 122.293 4.40892C121.515 4.40892 120.996 4.84121 120.867 5.48964C120.824 5.61932 120.824 5.79223 120.824 5.96515V9.3802H118.705V4.79798Z" fill="#CBCBCB"/>
<path d="M129.254 9.16406C128.865 9.33698 128.173 9.46666 127.352 9.46666C125.147 9.46666 123.764 8.12658 123.764 6.00838C123.764 4.01987 125.104 2.42041 127.654 2.42041C128.216 2.42041 128.821 2.50687 129.254 2.67978L128.908 4.23601C128.648 4.10632 128.303 4.01986 127.741 4.01986C126.617 4.01986 125.925 4.79798 125.925 5.92192C125.925 7.17555 126.746 7.82398 127.784 7.82398C128.303 7.82398 128.648 7.73752 128.994 7.60783L129.254 9.16406Z" fill="#CBCBCB"/>
<path d="M132.235 6.65703C132.322 7.5216 133.143 7.95389 134.137 7.95389C134.872 7.95389 135.434 7.86743 135.996 7.69451L136.255 9.12106C135.564 9.38043 134.699 9.55334 133.791 9.55334C131.5 9.55334 130.16 8.21326 130.16 6.09506C130.16 4.36592 131.241 2.46387 133.575 2.46387C135.78 2.46387 136.601 4.14977 136.601 5.83569C136.601 6.18151 136.558 6.52735 136.515 6.65703H132.235ZM134.699 5.18726C134.699 4.66852 134.483 3.80395 133.489 3.80395C132.624 3.80395 132.235 4.62529 132.192 5.18726H134.699Z" fill="#CBCBCB"/>
<path d="M138.245 7.5216C138.634 7.73775 139.455 8.04034 140.06 8.04034C140.709 8.04034 140.968 7.8242 140.968 7.47837C140.968 7.13254 140.752 6.95963 139.974 6.70026C138.59 6.22474 138.028 5.48986 138.072 4.66852C138.072 3.41489 139.152 2.46387 140.838 2.46387C141.616 2.46387 142.351 2.63678 142.74 2.85292L142.351 4.32269C142.049 4.14977 141.487 3.93363 140.881 3.93363C140.363 3.93363 140.06 4.14978 140.06 4.49561C140.06 4.79821 140.319 4.97112 141.141 5.27372C142.438 5.70601 142.956 6.35443 143 7.34868C143 8.60231 142.005 9.55334 140.06 9.55334C139.196 9.55334 138.374 9.38043 137.855 9.07783L138.245 7.5216Z" fill="#CBCBCB"/>
</svg>
