<svg width="129" height="49" viewBox="0 0 129 49" fill="none" xmlns="http://www.w3.org/2000/svg">
<path d="M43.6272 29.7808C42.8742 30.5118 41.9825 31.0848 41.0047 31.4659C40.0269 31.8471 38.9827 32.0287 37.9337 32.0001C32.3331 32.0001 30.0092 28.1773 30.0092 24.2732C29.9571 23.2193 30.1271 22.1663 30.5081 21.1824C30.8891 20.1985 31.4727 19.3057 32.221 18.5618C32.9692 17.8179 33.8655 17.2396 34.8516 16.8643C35.8378 16.4891 36.8918 16.3253 37.9453 16.3836C38.9715 16.3864 39.987 16.5933 40.9325 16.9922C41.8781 17.3912 42.7348 17.9742 43.4529 18.7075L41.5705 20.5201C40.5897 19.5997 39.2902 19.0957 37.9453 19.1141C37.2554 19.0787 36.5659 19.189 35.9216 19.438C35.2772 19.6869 34.6926 20.0689 34.2058 20.559C33.7191 21.049 33.341 21.6362 33.0964 22.2822C32.8518 22.9282 32.7461 23.6185 32.7862 24.308C32.7463 24.9923 32.853 25.6772 33.0993 26.3169C33.3455 26.9565 33.7256 27.5362 34.2141 28.017C34.7026 28.4978 35.2882 28.8686 35.9317 29.1047C36.5752 29.3408 37.2617 29.4366 37.9453 29.3857C39.3448 29.3815 40.6905 28.8457 41.71 27.8868L43.6272 29.7808Z" fill="#045F87"/>
<path d="M58.1399 16.7087V25.2839C58.1399 29.7109 55.4209 31.9767 51.6562 31.9767C50.7637 32.0375 49.8686 31.9057 49.0315 31.5902C48.1944 31.2748 47.4349 30.783 46.8046 30.1482C46.1742 29.5134 45.6877 28.7506 45.3781 27.9113C45.0684 27.072 44.9429 26.176 45.0099 25.2839V16.7087H47.8102V25.2839C47.8102 27.9796 49.344 29.4088 51.6795 29.4088C54.015 29.4088 55.3396 27.8867 55.3396 25.2839V16.7087H58.1399Z" fill="#045F87"/>
<path d="M74.1631 31.6631H70.84L66.4711 26.6551H63.7637V31.6631H60.9286V16.6624H68.0629C71.5488 16.6624 73.4543 18.9862 73.4543 21.6239C73.5335 22.7415 73.187 23.8478 72.4844 24.7206C71.7819 25.5935 70.7752 26.1683 69.6664 26.3297L74.198 31.4423L74.1631 31.6631ZM63.7056 19.3116V24.1104H68.0048C68.334 24.1333 68.6643 24.0883 68.9753 23.9781C69.2863 23.8679 69.5713 23.6949 69.8125 23.4698C70.0538 23.2448 70.2462 22.9725 70.3777 22.6699C70.5092 22.3674 70.5771 22.0409 70.5771 21.711C70.5771 21.3811 70.5092 21.0547 70.3777 20.7521C70.2462 20.4495 70.0538 20.1772 69.8125 19.9522C69.5713 19.7271 69.2863 19.5541 68.9753 19.4439C68.6643 19.3337 68.334 19.2887 68.0048 19.3116H63.7056Z" fill="#045F87"/>
<path d="M86.0034 28.8397H78.1719L76.8821 31.6633H73.8262L80.5422 16.6858H83.6214L90.3374 31.6633H87.2583L86.0034 28.8397ZM82.0876 19.823L79.2989 26.2021H84.8647L82.0876 19.823Z" fill="#045F87"/>
<path d="M93.0448 19.2537H88.2924V16.6858H100.621V19.2537H95.8683V31.6633H93.0448V19.2537Z" fill="#045F87"/>
<path d="M113.507 31.6633H102.294V16.6858H113.507V19.4164H105.094V22.9022H113.228V25.5282H105.094V28.9095H113.507V31.6633Z" fill="#045F87"/>
<path d="M128.879 24.0407C128.879 27.8287 126.637 31.6631 121.385 31.6631H115.505V16.6856H121.385C122.372 16.6262 123.362 16.7748 124.289 17.1215C125.215 17.4683 126.059 18.0055 126.765 18.6987C127.472 19.3918 128.025 20.2254 128.389 21.1455C128.753 22.0657 128.92 23.052 128.879 24.0407ZM118.317 28.9441H121.396C122.039 28.9745 122.68 28.8656 123.277 28.6248C123.874 28.384 124.411 28.017 124.853 27.5491C125.294 27.0811 125.629 26.5232 125.835 25.9136C126.04 25.3041 126.112 24.6572 126.044 24.0175C126.07 23.4001 125.968 22.784 125.744 22.2082C125.52 21.6324 125.178 21.1094 124.741 20.6725C124.304 20.2355 123.781 19.8941 123.206 19.6699C122.63 19.4456 122.014 19.3434 121.396 19.3697H118.317V28.9441Z" fill="#045F87"/>
<path d="M32.4168 0V10.6202H30V0H32.4168Z" fill="#4F9DF8"/>
<path d="M34.8569 5.36813C34.8569 4.41534 34.8569 3.59036 34.7988 2.91643H36.8787L36.9833 3.9738C37.2471 3.58714 37.603 3.27215 38.0187 3.05715C38.4345 2.84215 38.8973 2.7339 39.3653 2.74214C40.9455 2.74214 42.1307 3.77627 42.1307 6.05368V10.6201H39.772V6.35579C39.772 5.35651 39.4234 4.68259 38.61 4.68259C38.3484 4.69607 38.0971 4.7889 37.8895 4.94872C37.682 5.10855 37.528 5.3278 37.4481 5.57729C37.3827 5.77187 37.3512 5.97625 37.3551 6.1815V10.6201H34.8569V5.36813Z" fill="#4F9DF8"/>
<path d="M44.4779 8.52848C45.1133 8.87902 45.8211 9.07786 46.5461 9.10946C47.2665 9.10946 47.5686 8.85383 47.5686 8.45877C47.5686 8.06371 47.3246 7.87779 46.4067 7.57569C44.8148 7.04119 44.199 6.18135 44.2222 5.2518C44.2222 3.8226 45.3842 2.73037 47.3595 2.73037C48.1069 2.72125 48.8477 2.87178 49.5323 3.17191L49.1024 4.82188C48.5854 4.5495 48.0132 4.3985 47.4292 4.38034C46.8482 4.38034 46.5229 4.62434 46.5229 5.01941C46.5229 5.41447 46.8134 5.56552 47.7662 5.90248C49.2302 6.40212 49.846 7.14577 49.8577 8.22638C49.8577 9.66719 48.6957 10.7246 46.5229 10.7246C45.6599 10.7434 44.8044 10.5603 44.0247 10.1901L44.4779 8.52848Z" fill="#4F9DF8"/>
<path d="M59.0022 8.13364C59.0022 9.14454 59.0022 9.96952 59.0022 10.6086H56.9804L56.8642 9.52798C56.6065 9.92778 56.2493 10.2537 55.8276 10.4737C55.406 10.6937 54.9343 10.8003 54.459 10.7829C52.8322 10.7945 51.6703 9.81847 51.6703 7.43648V2.9165H54.1104V7.06465C54.1104 8.2266 54.4706 8.85405 55.2723 8.85405C55.5274 8.84652 55.7744 8.76282 55.9814 8.61372C56.1885 8.46462 56.3462 8.25695 56.4343 8.01745C56.4995 7.85531 56.5273 7.68056 56.5156 7.50619V2.9165H58.9325L59.0022 8.13364Z" fill="#4F9DF8"/>
<path d="M61.3145 5.44937C61.3145 4.28743 61.3145 3.57864 61.3145 2.91633H63.2898L63.3595 4.33391H63.4292C63.5757 3.89023 63.8525 3.50102 64.2235 3.21705C64.5945 2.93308 65.0425 2.76754 65.5091 2.74204C65.6751 2.72303 65.8427 2.72303 66.0087 2.74204V5.03107C65.7987 4.98543 65.5845 4.96206 65.3696 4.96136C64.9944 4.92801 64.62 5.03394 64.3178 5.25896C64.0157 5.48397 63.8069 5.81232 63.7313 6.1814C63.7123 6.35906 63.7123 6.53824 63.7313 6.7159V10.62H61.3145V5.44937Z" fill="#4F9DF8"/>
<path d="M71.9114 10.6203L71.772 9.8534C71.4978 10.1654 71.1571 10.4119 70.775 10.5748C70.393 10.7377 69.9792 10.8128 69.5643 10.7946C69.2457 10.8169 68.9259 10.7734 68.6249 10.6667C68.3239 10.5599 68.0482 10.3923 67.8148 10.1742C67.5815 9.95616 67.3956 9.69235 67.2688 9.39924C67.142 9.10614 67.0769 8.79005 67.0777 8.47069C67.0777 6.46052 68.8671 5.50772 71.5977 5.51934V5.40315C71.5977 4.99647 71.3769 4.41549 70.1917 4.41549C69.4446 4.42213 68.712 4.6223 68.0654 4.99647L67.6238 3.45108C68.5547 2.98948 69.5828 2.75835 70.6216 2.77715C71.0756 2.71304 71.5381 2.7543 71.9735 2.89772C72.409 3.04115 72.8055 3.28289 73.1324 3.60422C73.4594 3.92555 73.708 4.31785 73.8589 4.7507C74.0099 5.18356 74.0591 5.64536 74.0029 6.10031V8.74955C73.9902 9.37526 74.029 10.001 74.1191 10.6203H71.9114ZM71.6325 6.97177C70.366 6.97177 69.39 7.25064 69.39 8.13372C69.3809 8.2586 69.3993 8.38395 69.4437 8.50101C69.4881 8.61807 69.5576 8.72402 69.6472 8.81144C69.7369 8.89886 69.8445 8.96566 69.9626 9.00715C70.0808 9.04864 70.2065 9.06383 70.3312 9.05166C70.6061 9.05291 70.8746 8.96857 71.0995 8.81034C71.3244 8.6521 71.4944 8.42781 71.5861 8.16858C71.5979 8.03328 71.5979 7.8972 71.5861 7.7619L71.6325 6.97177Z" fill="#4F9DF8"/>
<path d="M76.2571 5.36843C76.2571 4.41563 76.2571 3.59065 76.1874 2.91672H78.2673L78.3835 3.97409C78.6418 3.59564 78.9884 3.28574 79.3932 3.07116C79.7981 2.85657 80.2491 2.74375 80.7073 2.74243C82.276 2.74243 83.4612 3.77656 83.4612 6.05398V10.6204H81.1721V6.35608C81.1721 5.35681 80.8235 4.68288 80.0102 4.68288C79.7476 4.69306 79.4947 4.78465 79.2865 4.94495C79.0784 5.10526 78.9252 5.32634 78.8482 5.57758C78.777 5.77071 78.7454 5.97619 78.7553 6.18179V10.6204H76.2571V5.36843Z" fill="#4F9DF8"/>
<path d="M91.6645 10.4573C90.98 10.7065 90.2547 10.8247 89.5265 10.8059C88.9901 10.8572 88.449 10.7917 87.9403 10.6139C87.4316 10.4361 86.9675 10.1502 86.5799 9.77585C86.1923 9.4015 85.8905 8.94763 85.6951 8.44545C85.4997 7.94327 85.4154 7.40472 85.4481 6.86686C85.4338 6.29715 85.5408 5.73092 85.7619 5.2057C85.9831 4.68048 86.3134 4.20828 86.7309 3.82042C87.1484 3.43255 87.6437 3.13789 88.1837 2.95596C88.7238 2.77404 89.2964 2.70901 89.8635 2.76519C90.484 2.76518 91.1003 2.86725 91.6877 3.06729L91.3043 4.84507C90.8923 4.69218 90.4534 4.62497 90.0145 4.64754C89.732 4.63672 89.4504 4.68597 89.1883 4.79204C88.9262 4.8981 88.6896 5.05857 88.4942 5.26283C88.2987 5.4671 88.1488 5.71051 88.0543 5.977C87.9599 6.24349 87.923 6.52699 87.9463 6.80876C87.9332 7.0849 87.9776 7.36074 88.0766 7.61885C88.1757 7.87696 88.3272 8.11172 88.5215 8.30828C88.7159 8.50485 88.949 8.65895 89.206 8.76085C89.4629 8.86274 89.7383 8.91022 90.0145 8.90026C90.4821 8.90944 90.9472 8.83061 91.3856 8.66788L91.6645 10.4573Z" fill="#4F9DF8"/>
<path d="M95.0574 7.52941C95.1387 8.52868 96.1148 9.00508 97.2419 9.00508C97.9635 9.01199 98.6816 8.90212 99.3682 8.67973L99.6819 10.3065C98.79 10.6371 97.8443 10.7986 96.8933 10.7829C94.2789 10.7829 92.78 9.27233 92.78 6.85548C92.7447 6.32485 92.8195 5.79266 92.9997 5.29232C93.18 4.79199 93.4617 4.33432 93.8272 3.94806C94.1927 3.56179 94.6342 3.25528 95.1238 3.04776C95.6135 2.84025 96.1407 2.73621 96.6725 2.74219C99.1591 2.74219 100.158 4.68264 100.158 6.58823C100.154 6.90348 100.126 7.218 100.077 7.52941H95.0574ZM97.8809 5.89106C97.9054 5.69831 97.8891 5.50255 97.8328 5.31655C97.7766 5.13055 97.6818 4.95849 97.5547 4.81158C97.4275 4.66467 97.2708 4.54621 97.0948 4.46393C96.9187 4.38165 96.7273 4.3374 96.5331 4.33405C96.1343 4.35752 95.7591 4.53116 95.4832 4.82004C95.2072 5.10892 95.051 5.4916 95.0458 5.89106H97.8809Z" fill="#4F9DF8"/>
<path d="M32.4121 42.0303H32.9004C33.3789 42.0303 33.7321 41.9505 33.96 41.791C34.1878 41.6315 34.3018 41.3809 34.3018 41.0391C34.3018 40.7005 34.1846 40.4596 33.9502 40.3164C33.7191 40.1732 33.3594 40.1016 32.8711 40.1016H32.4121V42.0303ZM32.4121 43.2607V46H30.8984V38.8613H32.9785C33.9486 38.8613 34.6663 39.0387 35.1318 39.3936C35.5973 39.7451 35.8301 40.2806 35.8301 41C35.8301 41.4199 35.7145 41.7943 35.4834 42.123C35.2523 42.4486 34.9251 42.7041 34.502 42.8896C35.5762 44.4945 36.276 45.5312 36.6016 46H34.9219L33.2178 43.2607H32.4121ZM41.6113 46H37.5V38.8613H41.6113V40.1016H39.0137V41.6689H41.4307V42.9092H39.0137V44.75H41.6113V46ZM49.585 42.4209C49.585 43.2607 49.4352 43.9655 49.1357 44.5352C48.8395 45.1016 48.4033 45.5166 47.8271 45.7803L49.5459 47.6992H47.6074L46.2988 46.0977H46.1865C45.0928 46.0977 44.2529 45.7803 43.667 45.1455C43.0811 44.5107 42.7881 43.5993 42.7881 42.4111C42.7881 41.223 43.0811 40.3164 43.667 39.6914C44.2562 39.0632 45.0993 38.749 46.1963 38.749C47.2933 38.749 48.1315 39.0648 48.7109 39.6963C49.2936 40.3278 49.585 41.236 49.585 42.4209ZM44.375 42.4209C44.375 43.2184 44.5264 43.819 44.8291 44.2227C45.1318 44.6263 45.5843 44.8281 46.1865 44.8281C47.3942 44.8281 47.998 44.0257 47.998 42.4209C47.998 40.8128 47.3975 40.0088 46.1963 40.0088C45.5941 40.0088 45.14 40.2122 44.834 40.6191C44.528 41.0228 44.375 41.6234 44.375 42.4209ZM56.875 38.8613V43.4805C56.875 44.0078 56.7562 44.4701 56.5186 44.8672C56.2842 45.2643 55.944 45.5687 55.498 45.7803C55.0521 45.9919 54.5247 46.0977 53.916 46.0977C52.998 46.0977 52.2852 45.8633 51.7773 45.3945C51.2695 44.9225 51.0156 44.278 51.0156 43.4609V38.8613H52.5244V43.2314C52.5244 43.7816 52.6351 44.1852 52.8564 44.4424C53.0778 44.6995 53.444 44.8281 53.9551 44.8281C54.4499 44.8281 54.8079 44.6995 55.0293 44.4424C55.2539 44.182 55.3662 43.7751 55.3662 43.2217V38.8613H56.875ZM62.7344 46H58.623V38.8613H62.7344V40.1016H60.1367V41.6689H62.5537V42.9092H60.1367V44.75H62.7344V46ZM68.4424 44.0176C68.4424 44.6621 68.2096 45.1699 67.7441 45.541C67.2819 45.9121 66.6374 46.0977 65.8105 46.0977C65.0488 46.0977 64.375 45.9544 63.7891 45.668V44.2617C64.2708 44.4766 64.6777 44.6279 65.0098 44.7158C65.3451 44.8037 65.651 44.8477 65.9277 44.8477C66.2598 44.8477 66.5137 44.7842 66.6895 44.6572C66.8685 44.5303 66.958 44.3415 66.958 44.0908C66.958 43.9508 66.9189 43.8271 66.8408 43.7197C66.7627 43.609 66.6471 43.5033 66.4941 43.4023C66.3444 43.3014 66.0368 43.1403 65.5713 42.9189C65.1351 42.7139 64.8079 42.5169 64.5898 42.3281C64.3717 42.1393 64.1976 41.9196 64.0674 41.6689C63.9372 41.4183 63.8721 41.1253 63.8721 40.79C63.8721 40.1585 64.0853 39.6621 64.5117 39.3008C64.9414 38.9395 65.5339 38.7588 66.2891 38.7588C66.6602 38.7588 67.0133 38.8027 67.3486 38.8906C67.6872 38.9785 68.0404 39.1022 68.4082 39.2617L67.9199 40.4385C67.5391 40.2822 67.2233 40.1732 66.9727 40.1113C66.7253 40.0495 66.4811 40.0186 66.2402 40.0186C65.9538 40.0186 65.734 40.0853 65.5811 40.2188C65.4281 40.3522 65.3516 40.5264 65.3516 40.7412C65.3516 40.8747 65.3825 40.9919 65.4443 41.0928C65.5062 41.1904 65.6038 41.2865 65.7373 41.3809C65.874 41.472 66.1947 41.638 66.6992 41.8789C67.3665 42.1979 67.8239 42.5186 68.0713 42.8408C68.3187 43.1598 68.4424 43.5521 68.4424 44.0176ZM72.4902 46H70.9766V40.1211H69.0381V38.8613H74.4287V40.1211H72.4902V46ZM79.6387 46H75.5273V38.8613H79.6387V40.1016H77.041V41.6689H79.458V42.9092H77.041V44.75H79.6387V46ZM87.0557 42.3623C87.0557 43.5374 86.7204 44.4375 86.0498 45.0625C85.3825 45.6875 84.4173 46 83.1543 46H81.1328V38.8613H83.374C84.5394 38.8613 85.4443 39.1689 86.0889 39.7842C86.7334 40.3994 87.0557 41.2588 87.0557 42.3623ZM85.4834 42.4014C85.4834 40.8682 84.8063 40.1016 83.4521 40.1016H82.6465V44.75H83.2959C84.7542 44.75 85.4834 43.9671 85.4834 42.4014Z" fill="#045F87"/>
<path d="M7 21L10 24L20 14" stroke="#4F9DF8" stroke-width="2" stroke-linecap="round" stroke-linejoin="round"/>
<path d="M19 22V29C19 29.5304 18.7893 30.0391 18.4142 30.4142C18.0391 30.7893 17.5304 31 17 31H3C2.46957 31 1.96086 30.7893 1.58579 30.4142C1.21071 30.0391 1 29.5304 1 29V15C1 14.4696 1.21071 13.9609 1.58579 13.5858C1.96086 13.2107 2.46957 13 3 13H14" stroke="#045F87" stroke-width="2" stroke-linecap="round" stroke-linejoin="round"/>
</svg>
