<svg width="11" height="6" viewBox="0 0 11 6" fill="none" xmlns="http://www.w3.org/2000/svg">
<path d="M2.21883 0.545823C1.8283 0.155299 1.19514 0.155299 0.804612 0.545823C0.414088 0.936347 0.414088 1.56951 0.804612 1.96004L2.21883 0.545823ZM9.71901 1.96004C10.1095 1.56951 10.1095 0.936347 9.71901 0.545823C9.32848 0.155299 8.69532 0.155299 8.3048 0.545823L9.71901 1.96004ZM0.804612 1.96004L4.34257 5.498L5.75679 4.08378L2.21883 0.545823L0.804612 1.96004ZM6.18105 5.498L9.71901 1.96004L8.3048 0.545823L4.76684 4.08378L6.18105 5.498ZM4.34257 5.498C4.85025 6.00568 5.67337 6.00568 6.18105 5.498L4.76684 4.08378C5.0402 3.81042 5.48342 3.81042 5.75679 4.08378L4.34257 5.498Z" fill="#FF7C45"/>
</svg>
