<svg width="11" height="6" viewBox="0 0 11 6" fill="none" xmlns="http://www.w3.org/2000/svg">
<path d="M2.38093 0.419358C1.99041 0.0288337 1.35725 0.0288337 0.966721 0.419358C0.576197 0.809882 0.576197 1.44305 0.966721 1.83357L2.38093 0.419358ZM9.88112 1.83357C10.2716 1.44305 10.2716 0.809882 9.88112 0.419358C9.49059 0.0288337 8.85743 0.0288337 8.4669 0.419358L9.88112 1.83357ZM0.966721 1.83357L4.50468 5.37153L5.91889 3.95732L2.38093 0.419358L0.966721 1.83357ZM6.34316 5.37153L9.88112 1.83357L8.4669 0.419358L4.92894 3.95732L6.34316 5.37153ZM4.50468 5.37153C5.01236 5.87921 5.83548 5.87921 6.34316 5.37153L4.92894 3.95732C5.20231 3.68395 5.64553 3.68395 5.91889 3.95732L4.50468 5.37153Z" fill="#FF4C00"/>
</svg>
