<svg width="126" height="52" viewBox="0 0 126 52" fill="none" xmlns="http://www.w3.org/2000/svg">
<path d="M43.1972 32.6116C41.6994 34.0755 39.7563 34.7668 37.6918 34.7668C32.3079 34.7668 30.0005 31.0257 30.0005 27.244C29.96 23.4216 32.4293 19.5586 37.6918 19.5586C39.6754 19.5586 41.5375 20.2905 43.0352 21.7951L41.2136 23.5843C40.2421 22.649 38.9872 22.2017 37.6918 22.2017C34.17 22.2017 32.6722 24.8449 32.6722 27.2847C32.6722 29.6432 34.089 32.1643 37.6918 32.1643C38.9467 32.1643 40.404 31.6357 41.3351 30.7004L43.1972 32.6116Z" fill="#045F87"/>
<path d="M57.2441 19.8428V28.2195C57.2441 32.5298 54.6129 34.7256 50.9696 34.7256C47.4883 34.7256 44.5332 32.6111 44.5332 28.2195V19.8428H47.2454V28.2195C47.2454 30.8626 48.7432 32.2452 51.0101 32.2452C53.277 32.2452 54.5724 30.7406 54.5724 28.2195V19.8428H57.2441Z" fill="#045F87"/>
<path d="M72.8299 34.4416H69.5914L65.341 29.562H62.7097V34.4416H59.957V19.8027C62.2644 19.8027 64.5718 19.8434 66.8792 19.8434C70.3201 19.8841 72.1012 22.1612 72.1012 24.6824C72.1012 26.6749 71.1702 28.7081 68.4175 29.2773L72.8299 34.279V34.4416ZM62.7097 22.4052V27.0815H66.8792C68.6199 27.0815 69.389 25.9023 69.389 24.7637C69.389 23.6251 68.6199 22.4459 66.8792 22.4459H62.7097V22.4052Z" fill="#045F87"/>
<path d="M84.2442 31.6759H76.6338L75.3789 34.441H72.4238L78.9412 19.8428H81.9368L88.4946 34.441H85.4991L84.2442 31.6759ZM80.4795 22.8925L77.7673 29.1141H83.1512L80.4795 22.8925Z" fill="#045F87"/>
<path d="M91.0855 22.3239H86.4707V19.8027C90.6807 19.8027 94.2025 19.8027 98.4125 19.8027V22.3239H93.7977V34.4009H91.045V22.3239H91.0855Z" fill="#045F87"/>
<path d="M110.921 34.441H100.031C100.031 29.602 100.031 24.7224 100.031 19.8428H110.921V22.5266H102.784V25.9016H110.637V28.4634H102.784V31.7572H110.921V34.441Z" fill="#045F87"/>
<path d="M125.817 26.9996C125.898 30.6999 123.631 34.441 118.571 34.441C116.79 34.441 114.644 34.441 112.863 34.441V19.8428C114.644 19.8428 116.79 19.8428 118.571 19.8428C123.55 19.8428 125.777 23.4212 125.817 26.9996ZM115.575 31.7979H118.571C121.89 31.7979 123.186 29.3987 123.105 26.9996C123.024 24.7224 121.729 22.4452 118.571 22.4452H115.575V31.7979Z" fill="#045F87"/>
<path d="M30.6484 0.162109H33.6035V10.816H38.8255V13.2964H30.6484V0.162109Z" fill="#A97C50"/>
<path d="M48.8655 7.76668H44.0483V10.8978H49.4322V13.3376H41.0527V0.162598H49.1489V2.60241H44.0483V5.32687H48.8655V7.76668Z" fill="#A97C50"/>
<path d="M62.8724 12.7277C61.9413 13.053 60.2411 13.4596 58.5005 13.4596C56.1121 13.4596 54.3714 12.8497 53.157 11.6704C51.9426 10.5319 51.2949 8.82399 51.2949 6.87214C51.2949 2.48048 54.4929 0 58.7838 0C60.484 0 61.7794 0.325308 62.4271 0.650617L61.8199 3.04977C61.0912 2.72446 60.2007 2.48048 58.7838 2.48048C56.3145 2.48048 54.4524 3.9037 54.4524 6.75015C54.4524 9.47461 56.1526 11.0605 58.5814 11.0605C59.2696 11.0605 59.7959 10.9792 60.0387 10.8572V8.09204H58.0147V5.77422H62.8724V12.7277Z" fill="#A97C50"/>
<path d="M68.7009 9.96251L67.7699 13.3376H64.6934L68.7009 0.162598H72.5871L76.6351 13.3376H73.4372L72.4251 9.96251H68.7009ZM72.0608 7.72602L71.2512 4.92023C71.0083 4.14762 70.7654 3.1717 70.6035 2.39909H70.563C70.3606 3.1717 70.1582 4.18829 69.9558 4.92023L69.1867 7.72602H72.0608Z" fill="#A97C50"/>
<path d="M78.9023 0.162598H81.8574V10.8164H87.0794V13.2969H78.9023V0.162598Z" fill="#A97C50"/>
<path d="M7 24L10 27L20 17" stroke="#A97C50" stroke-width="2" stroke-linecap="round" stroke-linejoin="round"/>
<path d="M19 25V32C19 32.5304 18.7893 33.0391 18.4142 33.4142C18.0391 33.7893 17.5304 34 17 34H3C2.46957 34 1.96086 33.7893 1.58579 33.4142C1.21071 33.0391 1 32.5304 1 32V18C1 17.4696 1.21071 16.9609 1.58579 16.5858C1.96086 16.2107 2.46957 16 3 16H14" stroke="#045F87" stroke-width="2" stroke-linecap="round" stroke-linejoin="round"/>
<path d="M32.4121 45.0303H32.9004C33.3789 45.0303 33.7321 44.9505 33.96 44.791C34.1878 44.6315 34.3018 44.3809 34.3018 44.0391C34.3018 43.7005 34.1846 43.4596 33.9502 43.3164C33.7191 43.1732 33.3594 43.1016 32.8711 43.1016H32.4121V45.0303ZM32.4121 46.2607V49H30.8984V41.8613H32.9785C33.9486 41.8613 34.6663 42.0387 35.1318 42.3936C35.5973 42.7451 35.8301 43.2806 35.8301 44C35.8301 44.4199 35.7145 44.7943 35.4834 45.123C35.2523 45.4486 34.9251 45.7041 34.502 45.8896C35.5762 47.4945 36.276 48.5312 36.6016 49H34.9219L33.2178 46.2607H32.4121ZM41.6113 49H37.5V41.8613H41.6113V43.1016H39.0137V44.6689H41.4307V45.9092H39.0137V47.75H41.6113V49ZM49.585 45.4209C49.585 46.2607 49.4352 46.9655 49.1357 47.5352C48.8395 48.1016 48.4033 48.5166 47.8271 48.7803L49.5459 50.6992H47.6074L46.2988 49.0977H46.1865C45.0928 49.0977 44.2529 48.7803 43.667 48.1455C43.0811 47.5107 42.7881 46.5993 42.7881 45.4111C42.7881 44.223 43.0811 43.3164 43.667 42.6914C44.2562 42.0632 45.0993 41.749 46.1963 41.749C47.2933 41.749 48.1315 42.0648 48.7109 42.6963C49.2936 43.3278 49.585 44.236 49.585 45.4209ZM44.375 45.4209C44.375 46.2184 44.5264 46.819 44.8291 47.2227C45.1318 47.6263 45.5843 47.8281 46.1865 47.8281C47.3942 47.8281 47.998 47.0257 47.998 45.4209C47.998 43.8128 47.3975 43.0088 46.1963 43.0088C45.5941 43.0088 45.14 43.2122 44.834 43.6191C44.528 44.0228 44.375 44.6234 44.375 45.4209ZM56.875 41.8613V46.4805C56.875 47.0078 56.7562 47.4701 56.5186 47.8672C56.2842 48.2643 55.944 48.5687 55.498 48.7803C55.0521 48.9919 54.5247 49.0977 53.916 49.0977C52.998 49.0977 52.2852 48.8633 51.7773 48.3945C51.2695 47.9225 51.0156 47.278 51.0156 46.4609V41.8613H52.5244V46.2314C52.5244 46.7816 52.6351 47.1852 52.8564 47.4424C53.0778 47.6995 53.444 47.8281 53.9551 47.8281C54.4499 47.8281 54.8079 47.6995 55.0293 47.4424C55.2539 47.182 55.3662 46.7751 55.3662 46.2217V41.8613H56.875ZM62.7344 49H58.623V41.8613H62.7344V43.1016H60.1367V44.6689H62.5537V45.9092H60.1367V47.75H62.7344V49ZM68.4424 47.0176C68.4424 47.6621 68.2096 48.1699 67.7441 48.541C67.2819 48.9121 66.6374 49.0977 65.8105 49.0977C65.0488 49.0977 64.375 48.9544 63.7891 48.668V47.2617C64.2708 47.4766 64.6777 47.6279 65.0098 47.7158C65.3451 47.8037 65.651 47.8477 65.9277 47.8477C66.2598 47.8477 66.5137 47.7842 66.6895 47.6572C66.8685 47.5303 66.958 47.3415 66.958 47.0908C66.958 46.9508 66.9189 46.8271 66.8408 46.7197C66.7627 46.609 66.6471 46.5033 66.4941 46.4023C66.3444 46.3014 66.0368 46.1403 65.5713 45.9189C65.1351 45.7139 64.8079 45.5169 64.5898 45.3281C64.3717 45.1393 64.1976 44.9196 64.0674 44.6689C63.9372 44.4183 63.8721 44.1253 63.8721 43.79C63.8721 43.1585 64.0853 42.6621 64.5117 42.3008C64.9414 41.9395 65.5339 41.7588 66.2891 41.7588C66.6602 41.7588 67.0133 41.8027 67.3486 41.8906C67.6872 41.9785 68.0404 42.1022 68.4082 42.2617L67.9199 43.4385C67.5391 43.2822 67.2233 43.1732 66.9727 43.1113C66.7253 43.0495 66.4811 43.0186 66.2402 43.0186C65.9538 43.0186 65.734 43.0853 65.5811 43.2188C65.4281 43.3522 65.3516 43.5264 65.3516 43.7412C65.3516 43.8747 65.3825 43.9919 65.4443 44.0928C65.5062 44.1904 65.6038 44.2865 65.7373 44.3809C65.874 44.472 66.1947 44.638 66.6992 44.8789C67.3665 45.1979 67.8239 45.5186 68.0713 45.8408C68.3187 46.1598 68.4424 46.5521 68.4424 47.0176ZM72.4902 49H70.9766V43.1211H69.0381V41.8613H74.4287V43.1211H72.4902V49ZM79.6387 49H75.5273V41.8613H79.6387V43.1016H77.041V44.6689H79.458V45.9092H77.041V47.75H79.6387V49ZM87.0557 45.3623C87.0557 46.5374 86.7204 47.4375 86.0498 48.0625C85.3825 48.6875 84.4173 49 83.1543 49H81.1328V41.8613H83.374C84.5394 41.8613 85.4443 42.1689 86.0889 42.7842C86.7334 43.3994 87.0557 44.2588 87.0557 45.3623ZM85.4834 45.4014C85.4834 43.8682 84.8063 43.1016 83.4521 43.1016H82.6465V47.75H83.2959C84.7542 47.75 85.4834 46.9671 85.4834 45.4014Z" fill="#045F87"/>
</svg>
