<svg width="177" height="37" viewBox="0 0 177 37" fill="none" xmlns="http://www.w3.org/2000/svg">
<path d="M56.2017 10.6538C57.9507 11.2692 59.2435 11.8462 60.118 12.4231C60.9926 13 61.6009 13.6154 61.9812 14.3077C62.3994 15.0385 62.5895 15.8846 62.5895 16.9231C62.5895 18.7692 61.9051 20.2692 60.5363 21.3462C59.1675 22.4615 57.3424 23 55.099 23C52.3994 23 50.3081 22.7308 48.8632 22.1154V20.5385C50.4602 21.2308 52.5134 21.5769 54.9849 21.5769C56.81 21.5769 58.2549 21.1538 59.3195 20.3077C60.3842 19.4615 60.9165 18.3846 60.9165 17C60.9165 16.1538 60.7264 15.4231 60.3842 14.8846C60.042 14.3077 59.4716 13.8077 58.6732 13.3462C57.8747 12.8846 56.696 12.3846 55.137 11.8462C52.8937 11.0769 51.3347 10.2308 50.4602 9.30769C49.5857 8.38462 49.1674 7.19231 49.1674 5.65385C49.1674 4 49.8138 2.61538 51.1066 1.57692C52.3994 0.538461 54.0724 0 56.1256 0C58.1789 0 60.1561 0.384615 61.9812 1.19231L61.4108 2.53846C59.5477 1.76923 57.7986 1.38461 56.1256 1.38461C54.4906 1.38461 53.1979 1.76923 52.2093 2.53846C51.2587 3.30769 50.7644 4.34616 50.7644 5.65385C50.7644 6.5 50.9165 7.15385 51.2207 7.69231C51.5248 8.23077 52.0191 8.69231 52.7036 9.11539C53.388 9.53846 54.5667 10.0769 56.2017 10.6538Z" fill="#00E668"/>
<path d="M13.5769 22.6919H25.7062V21.2688H15.1358V11.6919H25.1359V10.2303H15.1358V1.7688H25.7062V0.34572H13.5769V22.6919Z" fill="#00E668"/>
<path d="M1.55894 0.34849H0V22.6946H12.1293V21.2331H1.55894V0.34849Z" fill="#00E668"/>
<path d="M35.5166 1.80726H28.3303V0.34572H44.2999V1.80726H37.1136V22.6919H35.5166V1.80726Z" fill="#00E668"/>
<path d="M46.3867 0.34572C46.1966 1.49957 45.9685 2.84572 45.6263 4.30726C45.2841 5.80726 44.9799 7.03803 44.7137 7.99956H45.7023C46.6909 5.80726 47.5654 3.34572 48.3259 0.653414L48.1358 0.34572H46.3867Z" fill="#00E668"/>
<path d="M81.0664 11.7303C80.9143 12.3457 80.7242 13.1919 80.4961 14.2688C80.2679 15.3457 80.1539 16.2303 80.0778 16.9611C80.0018 15.9611 79.6596 14.2303 79.0512 11.6919L76.0474 0.34572H69.3173L76.5417 22.6919H83.614L90.8763 0.34572H84.1843L81.0664 11.7303Z" fill="#00E668"/>
<path d="M106.389 22.6919H93.233V0.34572H106.389V5.19187H99.2406V8.73034H105.857V13.5765H99.2406V17.7688H106.389V22.6919Z" fill="#00E668"/>
<path fill-rule="evenodd" clip-rule="evenodd" d="M126.579 6.9611C126.579 2.53803 123.575 0.34572 117.529 0.34572H110.267V22.6919H116.275V14.538H117.796L122.51 22.6919H129.317L122.853 12.9611C125.324 11.538 126.579 9.53803 126.579 6.9611ZM117.415 10.038H116.275V4.92264H117.453C119.507 4.92264 120.533 5.69187 120.533 7.23033C120.533 9.11495 119.507 10.038 117.415 10.038Z" fill="#00E668"/>
<path d="M131.332 0.34572H137.34V22.6919H131.332V0.34572Z" fill="#00E668"/>
<path d="M142.131 22.6919H148.025V14.3073H154.679V9.4611H148.025V5.19187H155.249V0.34572H142.131V22.6919Z" fill="#00E668"/>
<path d="M163.008 0.34572L166.81 8.65342L170.612 0.34572H177V0.576489L169.814 13.9611V22.6919H163.768V14.1534L156.506 0.34572H163.008Z" fill="#00E668"/>
<path d="M173.197 37H3.84038C1.71106 37 0 35.2178 0 33C0 30.7822 1.71106 29 3.84038 29H173.159C175.288 29 176.999 30.7822 176.999 33C177.037 35.2178 175.326 37 173.197 37Z" fill="#00E668"/>
<path d="M117.004 36H2.99524C1.32701 36 0 34.6329 0 33C0 31.3291 1.36492 30 2.99524 30H117.004C118.672 30 119.999 31.3671 119.999 33C120.037 34.6709 118.672 36 117.004 36Z" fill="url(#paint0_linear)"/>
<defs>
<linearGradient id="paint0_linear" x1="109.826" y1="36.0001" x2="5.39021" y2="36.0001" gradientUnits="userSpaceOnUse">
<stop stop-color="#1C5569"/>
<stop offset="1" stop-color="#00A145" stop-opacity="0"/>
</linearGradient>
</defs>
</svg>
