<svg width="17" height="15" viewBox="0 0 17 15" fill="none" xmlns="http://www.w3.org/2000/svg">
<path fill-rule="evenodd" clip-rule="evenodd" d="M15.2582 14.1421C14.9934 14.1421 14.7394 14.0369 14.5521 13.8496C14.3648 13.6623 14.2596 13.4083 14.2596 13.1435L14.2596 1.16023C14.2596 0.89538 14.3648 0.64138 14.5521 0.454105C14.7394 0.266831 14.9934 0.161621 15.2582 0.161621C15.5231 0.161621 15.7771 0.26683 15.9644 0.454105C16.1516 0.64138 16.2568 0.89538 16.2568 1.16023L16.2568 13.1435C16.2568 13.4083 16.1516 13.6623 15.9644 13.8496C15.7771 14.0369 15.5231 14.1421 15.2582 14.1421V14.1421ZM7.56198 10.8537C7.37477 10.6664 7.2696 10.4125 7.2696 10.1477C7.2696 9.88288 7.37477 9.62892 7.56198 9.44166L8.85318 8.15046L1.27776 8.15046C1.01292 8.15046 0.758916 8.04525 0.571641 7.85798C0.384366 7.6707 0.279157 7.4167 0.279157 7.15186C0.279157 6.88701 0.384366 6.63301 0.571641 6.44574C0.758916 6.25846 1.01292 6.15325 1.27776 6.15325L8.85318 6.15325L7.56198 4.86206C7.38008 4.67372 7.27942 4.42147 7.2817 4.15964C7.28398 3.8978 7.389 3.64734 7.57415 3.46219C7.7593 3.27704 8.00976 3.17202 8.27159 3.16975C8.53342 3.16747 8.78567 3.26812 8.97401 3.45003L11.9698 6.44584C12.157 6.63311 12.2622 6.88706 12.2622 7.15186C12.2622 7.41665 12.157 7.6706 11.9698 7.85787L8.97401 10.8537C8.78674 11.0409 8.53279 11.1461 8.268 11.1461C8.0032 11.1461 7.74925 11.0409 7.56198 10.8537V10.8537Z" fill="white"/>
</svg>
