<svg width="248" height="31" viewBox="0 0 248 31" fill="none" xmlns="http://www.w3.org/2000/svg">
<path d="M204.372 23.2581L203.207 28.9572C205.495 29.8207 208.345 30.2956 212.489 30.3388C219.915 30.3388 223.844 26.6689 223.844 20.9266C223.844 16.1773 221.383 13.8027 216.03 12.6369L213.439 12.0757C211.453 11.6007 210.287 10.8668 210.287 9.31245C210.287 7.75814 211.626 6.72193 214.691 6.72193C217.714 6.72193 219.182 7.11051 221.168 7.88766L222.333 2.18853C220.045 1.32503 217.282 0.850098 214.346 0.850098C207.395 0.850098 203.207 4.30412 203.207 9.83055C203.207 14.4071 205.495 17.1703 210.806 18.3361L213.396 18.8974C215.814 19.4586 216.936 20.2358 216.936 21.5742C216.936 23.5603 215.253 24.4238 211.626 24.4238C208.949 24.4238 206.358 23.8193 204.372 23.2581Z" fill="white"/>
<path d="M121.519 15.6159C121.519 6.54914 127.045 0.936356 135.637 0.936356C138.875 0.936356 141.638 1.41128 143.927 2.27479L142.761 7.71487C140.775 7.23994 139.307 6.93771 135.637 6.93771C131.535 6.93771 128.945 10.3486 128.945 15.6159C128.945 20.8833 131.535 24.2942 135.594 24.2942C136.932 24.2942 138.055 24.2078 139.048 23.9919V18.3792H134.299L135.464 12.68H146.129V27.9209C143.452 29.5184 139.911 30.3819 135.464 30.3819C127.045 30.2955 121.519 24.6827 121.519 15.6159Z" fill="white"/>
<path d="M0.800781 1.41145H8.22692V12.4643H19.4525V1.41145H26.8786V29.8208H19.4525V18.3793H8.22692V29.8208H0.800781V1.41145Z" fill="white"/>
<path d="M65.089 19.7178V1.41145H72.5151V19.1565C72.5151 22.3946 74.2421 24.3807 77.3939 24.3807C80.6321 24.3807 82.2727 22.3946 82.2727 19.1565V1.41145H89.7421V19.7178C89.7421 26.1077 84.8633 30.2957 77.4371 30.2957C70.011 30.2957 65.089 26.1077 65.089 19.7178Z" fill="white"/>
<path fill-rule="evenodd" clip-rule="evenodd" d="M107.099 1.41145H94.7074V29.8208H102.134V19.9336H105.847L110.725 29.8208H118.842L113.143 18.8543C116.165 17.5158 117.979 14.3209 117.979 10.8668C117.979 4.8223 114.05 1.41145 107.099 1.41145ZM110.596 10.7373C110.596 13.1551 108.998 14.6663 106.408 14.6663H102.134V6.72201H106.408C108.955 6.72201 110.596 8.27632 110.596 10.7373Z" fill="white"/>
<path d="M158.175 1.41145H150.749V29.8208H169.4L171.516 23.9058H158.175V1.41145Z" fill="white"/>
<path fill-rule="evenodd" clip-rule="evenodd" d="M182.914 1.41145H190.34L200.745 29.8208H193.017L190.945 23.9921H180.928L178.856 29.8208H172.552L182.914 1.41145ZM189.088 18.6816L186.109 10.3056H185.807L182.828 18.6816H189.088Z" fill="white"/>
<path d="M226.521 28.9572L227.686 23.2581C229.673 23.8193 232.263 24.4238 234.94 24.4238C238.567 24.4238 240.25 23.5603 240.25 21.5742C240.25 20.2358 239.128 19.4586 236.71 18.8974L234.12 18.3361C228.809 17.1703 226.521 14.4071 226.521 9.83055C226.521 4.30412 230.709 0.850098 237.66 0.850098C240.596 0.850098 243.359 1.32503 245.647 2.18853L244.525 7.93084C242.539 7.15368 241.071 6.76511 238.049 6.76511C234.983 6.76511 233.645 7.80131 233.645 9.35562C233.645 10.9099 234.81 11.6439 236.796 12.1188L239.387 12.6801C244.741 13.8458 247.202 16.2205 247.202 20.9698C247.202 26.7121 243.273 30.382 235.847 30.382C231.659 30.2956 228.809 29.8207 226.521 28.9572Z" fill="white"/>
<path fill-rule="evenodd" clip-rule="evenodd" d="M31.4553 15.6159C31.4553 7.49899 38.018 0.936356 46.1349 0.936356C54.2087 0.936356 60.8145 7.49899 60.8145 15.6159C60.8145 23.7329 54.2519 30.2955 46.1349 30.2955C38.018 30.2955 31.4553 23.7329 31.4553 15.6159ZM40.0472 25.5462H52.1794C52.6544 25.5462 52.9998 25.0713 52.8702 24.51C52.6112 21.8332 51.3591 19.4585 49.5457 18.1201C48.8118 17.6452 47.4733 16.609 47.4733 15.5728C47.4733 14.6573 48.5517 13.8092 49.2794 13.237C49.3754 13.1615 49.4653 13.0908 49.5457 13.0254C51.3591 11.687 52.6544 9.3987 52.8702 6.63549C52.9566 6.07421 52.568 5.59928 52.1794 5.59928H40.0472C39.6586 5.59928 39.3564 6.07421 39.3564 6.63549C39.6154 9.31235 40.8675 11.687 42.6809 13.0254C42.7248 13.059 42.7709 13.094 42.8188 13.1304C43.5703 13.7008 44.7533 14.5986 44.7533 15.5728C44.7533 16.4882 43.6749 17.3363 42.9472 17.9086C42.8512 17.984 42.7614 18.0547 42.6809 18.1201C40.8675 19.4585 39.5723 21.7468 39.3564 24.51C39.27 25.0713 39.6586 25.5462 40.0472 25.5462Z" fill="white"/>
</svg>
