<svg width="205" height="30" viewBox="0 0 205 30" fill="none" xmlns="http://www.w3.org/2000/svg">
<path d="M52.4848 12.9091H45.6486V6.41455H41V24.6545H45.6486V17.0545H52.4848V24.6545H57.1334V6.41455H52.4848V12.9091ZM69.5069 6.06909C66.7724 6.06909 64.5165 6.96727 62.7391 8.83273C60.9616 10.6982 60.0046 12.9091 60.0046 15.5345C60.0046 18.16 60.8933 20.3709 62.7391 22.2364C64.5165 24.1018 66.7724 25 69.5069 25C72.2413 25 74.4973 24.1018 76.2747 22.2364C78.0521 20.3709 79.0092 18.16 79.0092 15.5345C79.0092 12.9091 78.1205 10.6982 76.2747 8.83273C74.4973 6.96727 72.173 6.06909 69.5069 6.06909ZM72.8566 19.1964C71.9679 20.1636 70.8741 20.6473 69.5069 20.6473C68.1396 20.6473 66.9775 20.1636 66.0888 19.1964C65.2001 18.2291 64.7215 16.9855 64.7215 15.5345C64.7215 14.0836 65.1317 12.7709 66.0888 11.8727C66.9775 10.9055 68.1396 10.4218 69.5069 10.4218C70.8741 10.4218 71.9679 10.9055 72.8566 11.8727C73.7453 12.84 74.2238 14.0836 74.2238 15.5345C74.2238 16.9855 73.7453 18.2291 72.8566 19.1964ZM92.8183 17.2618C92.8183 19.6109 91.451 20.7164 89.5369 20.7164C87.6911 20.7164 86.2555 19.6109 86.2555 17.2618V6.41455H81.6069V16.9855C81.6069 19.5418 82.3589 21.4764 83.8629 22.8582C85.3668 24.24 87.2126 24.9309 89.5369 24.9309C91.8612 24.9309 93.707 24.24 95.2109 22.8582C96.7149 21.4764 97.4669 19.4727 97.4669 16.9855V6.41455H92.8183V17.2618ZM115.583 12.0109C115.583 10.3527 114.967 9.04 113.805 8.00364C112.643 6.96727 111.071 6.41455 109.088 6.41455H100.611V24.6545H105.26V17.6764H107.106L112.233 24.6545H117.565L112.096 17.1927C114.284 16.2945 115.583 14.4291 115.583 12.0109ZM108.883 13.8764H105.328V10.4218H108.883C110.114 10.4218 110.934 11.1127 110.934 12.2182C110.934 13.1855 110.114 13.8764 108.883 13.8764ZM130.964 19.9564C130.281 20.5091 129.323 20.7855 128.093 20.7855C126.657 20.7855 125.495 20.3018 124.538 19.4036C123.581 18.4364 123.103 17.1927 123.103 15.6036C123.103 14.0145 123.649 12.7709 124.675 11.8036C125.7 10.8364 127.068 10.3527 128.708 10.3527C130.349 10.3527 131.99 10.8364 133.63 11.7345V7.31273C131.99 6.48364 130.281 6 128.366 6C125.495 6 123.103 6.89818 121.188 8.62545C119.343 10.4218 118.386 12.6327 118.386 15.4655C118.386 18.2291 119.343 20.5091 121.188 22.3055C123.034 24.1018 125.427 24.9309 128.161 24.9309C129.734 24.9309 131.169 24.6545 132.536 24.1018C133.904 23.5491 134.929 22.8582 135.681 22.0291V14.0145H131.033V19.9564H130.964ZM143.679 6.41455H139.031V24.6545H152.293V20.5782H143.611V6.41455H143.679ZM160.838 6.27636L153.25 24.5855H158.172L159.676 20.7164H166.376L167.88 24.5855H172.87L165.282 6.27636H160.838ZM161.112 17.0545L162.957 12.2182L164.803 17.0545H161.112ZM187.089 15.4655C186.132 14.6364 184.765 13.8764 183.056 13.3236C182.304 13.1164 181.142 12.7709 180.595 12.5636L179.774 12.2873C179.228 12.08 179.023 11.8036 179.023 11.4582C179.023 10.6291 179.843 10.2836 181.415 10.2836C182.441 10.2836 183.466 10.4909 184.628 10.8364C185.722 11.1818 186.679 11.5964 187.499 12.08V7.58909C185.654 6.55273 183.603 6.06909 181.415 6.06909C177.108 6.06909 174.306 8.00364 174.306 11.5273C174.306 12.5636 174.647 13.5309 174.921 14.2218C175.331 14.8436 176.151 15.4655 176.698 15.88C176.972 16.0873 177.382 16.2255 177.86 16.4327L178.954 16.9164L180.253 17.3309L181.894 17.8145C182.236 17.9527 182.851 18.0909 183.056 18.2982C183.466 18.5745 183.739 18.8509 183.739 19.3345C183.739 20.3018 182.782 20.7855 181.005 20.7855C179.843 20.7855 178.612 20.5782 177.313 20.0255C176.015 19.5418 174.989 18.9891 174.237 18.2291V22.9964C176.083 24.3091 178.407 24.9309 181.21 24.9309C183.398 24.9309 185.175 24.3782 186.542 23.3418C187.91 22.3055 188.593 20.8545 188.593 19.0582C188.525 17.5382 188.046 16.3636 187.089 15.4655ZM203.428 15.4655C202.471 14.6364 201.103 13.8764 199.394 13.3236C198.642 13.1164 197.48 12.7709 196.933 12.5636L196.113 12.2873C195.566 12.08 195.361 11.8036 195.361 11.4582C195.361 10.6291 196.181 10.2836 197.754 10.2836C198.779 10.2836 199.805 10.4909 200.967 10.8364C202.06 11.1818 203.018 11.5964 203.838 12.08V7.58909C201.992 6.55273 199.941 6.06909 197.754 6.06909C193.447 6.06909 190.644 8.00364 190.644 11.5273C190.644 12.5636 190.986 13.5309 191.259 14.2218C191.669 14.8436 192.49 15.4655 193.037 15.88C193.31 16.0873 193.72 16.2255 194.199 16.4327L195.361 16.9164L196.66 17.3309L198.301 17.8145C198.642 17.9527 199.258 18.0909 199.463 18.2982C199.873 18.5745 200.146 18.8509 200.146 19.3345C200.146 20.3018 199.189 20.7855 197.412 20.7855C196.25 20.7855 195.019 20.5782 193.72 20.0255C192.421 19.5418 191.396 18.9891 190.644 18.2291V22.9964C192.49 24.3091 194.814 24.9309 197.617 24.9309C199.804 24.9309 201.582 24.3782 202.949 23.3418C204.316 22.3055 205 20.8545 205 19.0582C204.932 17.5382 204.453 16.3636 203.428 15.4655Z" fill="black"/>
<path d="M18 24.0547V18.041H12V24.0547H6V18.041V12.0273V6.01367V0H0V30H18V24.0547Z" fill="#00AEEF"/>
<path d="M12 0V6.01367V12.0273H18.0228V6.01367H24.0456V12.0273V18.041V24.0547V30H30V0H12Z" fill="#0086CC"/>
</svg>
