<?xml version="1.0" encoding="utf-8"?>
<!-- Generator: Adobe Illustrator 25.4.1, SVG Export Plug-In . SVG Version: 6.00 Build 0)  -->
<svg version="1.1" id="Layer_1" xmlns="http://www.w3.org/2000/svg" xmlns:xlink="http://www.w3.org/1999/xlink" x="0px" y="0px"
	 viewBox="0 0 1262 226" style="enable-background:new 0 0 1262 226;" xml:space="preserve">
<style type="text/css">
	.st0{fill:#00ADEE;}
	.st1{fill:#0085CB;}
	.st2{fill:#FFFFFF;}
</style>
<g>
	<g>
		<polygon class="st0" points="129.4,165 129.4,128.9 93.2,128.9 93.2,165 57.1,165 57.1,128.9 57.1,92.8 57.1,56.7 57.1,20.5 
			21,20.5 21,201.1 129.4,201.1 		"/>
		<polygon class="st1" points="93.2,20.5 93.2,56.7 93.2,92.8 129.4,92.8 129.4,56.7 165.5,56.7 165.5,92.8 165.5,128.9 165.5,165 
			165.5,201.1 201.6,201.1 201.6,20.5 		"/>
	</g>
	<path class="st2" d="M337.3,62.3h-40.9V23.8h-27.9v108.3h27.9v-45h40.9v45h27.9V23.8h-27.9V62.3z M439.6,21.6
		c-16.4,0-30,5.4-40.9,16.4c-10.8,11-16.2,24.3-16.2,39.9c0,15.6,5.4,28.9,16.2,39.9c10.8,11,24.4,16.4,40.9,16.4
		c16.4,0,30-5.4,40.9-16.4c10.8-11,16.2-24.3,16.2-39.9c0-15.6-5.4-28.9-16.2-39.9C469.7,27,456,21.6,439.6,21.6z M459.9,99.9
		c-5.4,5.7-12.1,8.7-20.3,8.7c-8.2,0-15-2.9-20.4-8.7c-5.4-5.7-8.1-13.2-8.1-22c0-8.8,2.6-16.2,8.1-22c5.4-5.7,12.2-8.7,20.4-8.7
		c8.2,0,14.9,2.9,20.3,8.7c5.4,5.7,8.2,13.2,8.2,22C468.1,86.8,465.3,94.2,459.9,99.9z M579.9,88.2c0,13.8-8,20.4-19.7,20.4
		c-11.3,0-19.7-6.7-19.7-20.4V23.8h-27.9v63c0,15,4.5,26.8,13.5,35.1c9,8.2,20.3,12.4,34,12.4c13.8,0,25.1-4.2,34-12.4
		c9-8.4,13.5-20.1,13.5-35.1v-63h-27.9V88.2z M717,57.2c0-9.8-3.6-17.8-10.7-24c-7-6.3-16.4-9.4-28.3-9.4h-50.9v108.3h27.9V90.8
		h11.1l30.6,41.3h32l-32.8-44.4C709.1,82.6,717,71.3,717,57.2z M676.4,68.1h-21.5V47.3h21.5c7.6,0,12.4,4.2,12.4,10.5
		S684,68.1,676.4,68.1z M809.5,104.4c-4.2,3.4-9.9,5.1-17.2,5.1c-8.5,0-15.6-2.8-21.5-8.4C765,95.6,762,88,762,78.4
		c0-9.3,3.1-16.7,9.3-22.4c6.2-5.7,14.2-8.7,24.1-8.7c9.8,0,19.7,2.8,29.6,8.2V29.4c-9.7-5.1-20.3-7.7-31.6-7.7
		c-17.3,0-31.7,5.3-43,15.8c-11.3,10.5-17,24-17,40.5c0,16.4,5.6,29.9,16.9,40.5c11.3,10.5,25.4,15.8,42.1,15.8
		c9.4,0,18.3-1.7,26.5-5c8.2-3.4,14.4-7.4,18.7-12.2V69h-28V104.4z M885.8,23.8H858v108.3h79.9v-24.4h-52V23.8z M988.9,23.2
		l-45.5,108.9h29.4l9.1-22.9h40.2l9.1,22.9h29.9l-45.5-108.9H988.9z M990.7,86.9L1002,58l11.3,28.9H990.7z M1146.7,77.8
		c-5.9-5.1-14.1-9.4-24.4-12.8c-4.5-1.4-11.6-3.2-14.9-4.3l-5-1.7c-3.2-1.4-4.5-2.9-4.5-5c0-4.8,4.8-7.1,14.2-7.1
		c6.2,0,12.5,1.1,19.2,3.1c6.7,2,12.4,4.5,17.2,7.4V30.6c-11.3-6-23.5-9-36.7-9c-26,0-42.6,11.6-42.6,32.5c0,6.3,1.9,12.1,3.9,15.9
		c2.3,3.9,7.4,7.6,10.5,9.9c1.7,1.1,4,2.2,7.1,3.4l7.1,2.8l7.9,2.3l9.7,2.9c1.9,0.6,5.7,1.7,7,2.8c2.5,1.7,4.2,3.1,4.2,6.3
		c0,5.7-5.6,8.5-16.6,8.5c-7,0-14.4-1.4-22.3-4.3c-7.9-2.9-14.1-6.3-18.6-10.5v28.5c11.3,7.7,25.2,11.6,41.9,11.6
		c13,0,23.7-3.1,31.9-9.4c8.2-6.3,12.4-14.7,12.4-25.4C1155.6,90.2,1152.6,82.9,1146.7,77.8z M1245.2,77.8
		c-5.9-5.1-14.1-9.4-24.4-12.8c-4.5-1.4-11.6-3.2-14.9-4.3l-5-1.7c-3.2-1.4-4.5-2.9-4.5-5c0-4.8,4.8-7.1,14.2-7.1
		c6.2,0,12.5,1.1,19.2,3.1c6.7,2,12.4,4.5,17.2,7.4V30.6c-11.3-6-23.5-9-36.7-9c-26,0-42.6,11.6-42.6,32.5c0,6.3,1.9,12.1,3.9,15.9
		c2.3,3.9,7.4,7.6,10.5,9.9c1.7,1.1,4,2.2,7.1,3.4l7.1,2.8l7.9,2.3l9.7,2.9c1.9,0.6,5.7,1.7,7,2.8c2.5,1.7,4.2,3.1,4.2,6.3
		c0,5.7-5.6,8.5-16.6,8.5c-7,0-14.4-1.4-22.3-4.3c-7.9-2.9-14.1-6.3-18.6-10.5v28.5c11.3,7.7,25.2,11.6,41.9,11.6
		c13,0,23.7-3.1,31.9-9.4c8.2-6.3,12.4-14.7,12.4-25.4C1254,90.2,1251.1,82.9,1245.2,77.8z"/>
	<polygon class="st1" points="837.5,201.4 809.1,201.4 738.6,201.4 651.9,201.4 558.1,201.4 480.4,201.4 395.1,201.4 332,201.4 
		292.8,201.4 268.7,201.4 268.7,192.9 293.1,192.9 332.3,192.9 394.6,192.9 481.6,192.9 557.2,192.9 650.2,192.9 736.6,192.9 
		809.1,192.9 837.5,192.9 	"/>
	<g>
		<path class="st2" d="M880.5,177.7c1.6,1.1,2.9,2.5,3.9,4.5c0.9,1.9,1.4,4.2,1.4,6.7c0,2.6-0.5,4.8-1.4,6.8c-0.9,2-2.2,3.5-3.9,4.6
			c-1.7,1.1-3.5,1.6-5.6,1.6c-1.6,0-3.2-0.3-4.5-1c-1.4-0.7-2.4-1.6-3.1-2.7v3.4h-8.7v-35.7h8.8v14c0.7-1.1,1.7-2,3.1-2.6
			c1.3-0.7,2.8-1,4.4-1C877,176.1,878.8,176.7,880.5,177.7z M875.7,193.7c0.8-1.1,1.2-2.7,1.2-4.8c0-2-0.4-3.5-1.2-4.5
			c-0.8-1.1-2-1.6-3.6-1.6c-1.6,0-2.8,0.5-3.6,1.6c-0.8,1.1-1.3,2.6-1.3,4.6c0,2.1,0.4,3.6,1.3,4.7s2.1,1.6,3.6,1.6
			C873.7,195.3,874.9,194.8,875.7,193.7z"/>
		<path class="st2" d="M914.8,176.8l-11.3,25.5c-1.5,3.3-3.4,5.8-5.6,7.3c-2.2,1.5-5,2.5-8.3,2.9l-2-6.7c2.3-0.5,4-1,5.1-1.7
			c1.1-0.7,2-1.7,2.6-3l0.6-1.4l-10.1-23h9.1l5.5,14.2l5.7-14.2H914.8z"/>
		<path class="st2" d="M931,166.9h9.1v34.6H931V166.9z"/>
		<path class="st2" d="M977.3,166.9v34.6h-6.7l-15.7-19.6v19.6h-8.5v-34.6h6.7l15.7,19.5v-19.5H977.3z"/>
		<path class="st2" d="M983.6,166.9h24.1v7.1h-15.1v6.3h14.2v7.1h-14.2v14h-9V166.9z"/>
		<path class="st2" d="M1015.7,198.1c-2.6-2.5-3.9-6.3-3.9-11.2v-20h8.9v20.3c0,2.5,0.6,4.4,1.7,5.7c1.1,1.3,2.7,2,4.8,2
			c2,0,3.6-0.7,4.7-2c1.1-1.3,1.6-3.2,1.6-5.7v-20.3h9v20c0,4.9-1.3,8.6-4,11.1s-6.4,3.9-11.4,3.9
			C1022.1,201.9,1018.3,200.6,1015.7,198.1z"/>
		<path class="st2" d="M1053.3,200.9c-2.5-0.7-4.6-1.6-6.2-2.8l2.9-6.5c1.7,1.1,3.5,1.9,5.4,2.5c1.9,0.6,3.8,0.9,5.7,0.9
			c1.9,0,3.4-0.3,4.5-0.8c1-0.5,1.6-1.3,1.6-2.3c0-0.9-0.5-1.6-1.4-2.2c-0.9-0.6-2.7-1.1-5.3-1.7c-3.3-0.6-5.8-1.4-7.6-2.4
			c-1.8-1-3.1-2.1-3.8-3.4c-0.7-1.3-1.1-2.9-1.1-4.7c0-2.1,0.6-4,1.8-5.7c1.2-1.7,2.9-3,5-4c2.2-1,4.6-1.4,7.4-1.4
			c2.5,0,4.9,0.3,7.3,1c2.3,0.7,4.2,1.6,5.5,2.7l-2.8,6.5c-1.5-1.1-3.1-1.9-4.8-2.5c-1.7-0.6-3.4-0.9-5-0.9c-1.7,0-3,0.3-4,0.9
			c-1,0.6-1.5,1.5-1.5,2.5c0,0.6,0.2,1.1,0.5,1.5c0.4,0.4,1,0.8,2,1.1c1,0.4,2.4,0.8,4.4,1.2c3.1,0.7,5.6,1.5,7.4,2.4
			c1.8,1,3.1,2.1,3.8,3.4c0.7,1.3,1.1,2.8,1.1,4.6c0,3.4-1.3,6-3.9,7.9c-2.6,1.9-6.3,2.9-11.1,2.9
			C1058.4,201.9,1055.8,201.6,1053.3,200.9z"/>
		<path class="st2" d="M1081.1,166.9h24.7v7H1090v6.5h14.8v7H1090v7.1h15.8v7h-24.7V166.9z"/>
		<path class="st2" d="M1147.7,178.8c1.4,1.7,2.1,4.4,2.1,8v14.7h-8.8V187c0-1.5-0.2-2.5-0.7-3.2c-0.4-0.6-1.2-1-2.2-1
			c-1.2,0-2.2,0.5-2.9,1.4c-0.7,0.9-1,2.2-1,3.8v13.4h-8.8V187c0-1.5-0.2-2.5-0.7-3.2c-0.5-0.6-1.2-1-2.2-1c-1.2,0-2.2,0.5-2.8,1.4
			c-0.7,0.9-1,2.2-1,3.8v13.4h-8.8v-17.6c0-2.7-0.1-5-0.4-7.1h8.3l0.4,3.4c0.7-1.3,1.8-2.3,3.1-3.1c1.3-0.7,2.9-1.1,4.6-1.1
			c3.5,0,5.9,1.5,7.2,4.5c0.9-1.4,2-2.4,3.5-3.3c1.4-0.8,3-1.2,4.7-1.2C1144.2,176.1,1146.3,177,1147.7,178.8z"/>
		<path class="st2" d="M1177.6,190h-15.5c0.2,1.9,0.7,3.3,1.6,4.1c0.9,0.8,2.3,1.3,4.1,1.3c1.2,0,2.5-0.2,3.7-0.6
			c1.2-0.4,2.3-1,3.4-1.7l2.2,5.8c-1.2,0.9-2.7,1.6-4.5,2.1c-1.8,0.5-3.5,0.8-5.2,0.8c-2.8,0-5.3-0.5-7.3-1.6
			c-2.1-1-3.7-2.5-4.8-4.4c-1.1-1.9-1.6-4.2-1.6-6.8c0-2.5,0.5-4.7,1.6-6.7c1.1-2,2.5-3.5,4.4-4.6c1.9-1.1,4-1.7,6.4-1.7
			c2.3,0,4.4,0.5,6.1,1.6c1.7,1,3.1,2.5,4,4.4c0.9,1.9,1.4,4.2,1.4,6.7V190z M1162.2,185.9h7.9c-0.3-2.5-1.6-3.8-3.8-3.8
			C1164.1,182.2,1162.7,183.4,1162.2,185.9z"/>
		<path class="st2" d="M1207.6,165.7v35.7h-8.6v-3.4c-0.7,1.2-1.8,2.1-3.1,2.7c-1.4,0.7-2.8,1-4.5,1c-2.1,0-4-0.5-5.6-1.6
			c-1.6-1.1-2.9-2.6-3.9-4.6c-0.9-2-1.4-4.2-1.4-6.8c0-2.5,0.5-4.8,1.4-6.7c0.9-1.9,2.2-3.4,3.9-4.5c1.7-1.1,3.5-1.6,5.6-1.6
			c1.6,0,3,0.3,4.3,1c1.3,0.7,2.4,1.5,3.1,2.6v-14H1207.6z M1197.7,193.7c0.8-1.1,1.3-2.6,1.3-4.7c0-2-0.4-3.5-1.3-4.6
			c-0.9-1.1-2-1.6-3.6-1.6c-1.6,0-2.8,0.5-3.6,1.6c-0.8,1.1-1.3,2.6-1.3,4.5c0,2,0.4,3.6,1.3,4.7c0.9,1.1,2.1,1.7,3.6,1.7
			S1196.9,194.8,1197.7,193.7z"/>
		<path class="st2" d="M1221.8,164.7v7.9h-9.2v-7.9H1221.8z M1212.9,176.8h8.8v24.7h-8.8V176.8z"/>
		<path class="st2" d="M1252.9,176.8v24.7h-8.6v-3.4c-0.7,1.2-1.8,2.1-3.1,2.7c-1.4,0.7-2.8,1-4.5,1c-2.1,0-4-0.5-5.6-1.6
			c-1.6-1-2.9-2.5-3.9-4.4s-1.4-4.2-1.4-6.7c0-2.6,0.5-4.8,1.4-6.8c0.9-2,2.2-3.5,3.9-4.6c1.7-1.1,3.5-1.7,5.6-1.7
			c1.6,0,3.1,0.3,4.4,1c1.3,0.7,2.4,1.6,3.1,2.8v-3.2H1252.9z M1243,193.7c0.8-1.1,1.3-2.6,1.3-4.6c0-2-0.4-3.6-1.3-4.7
			c-0.8-1.1-2-1.6-3.6-1.6c-1.5,0-2.7,0.6-3.6,1.7s-1.3,2.7-1.3,4.7c0,2,0.4,3.5,1.3,4.5c0.8,1.1,2.1,1.6,3.6,1.6
			C1240.9,195.3,1242.1,194.8,1243,193.7z"/>
	</g>
</g>
</svg>
