<svg width="86" height="10" viewBox="0 0 86 10" fill="none" xmlns="http://www.w3.org/2000/svg">
<path d="M11.5083 8.98027V0.815622H13.5383V7.28088H17.1274V8.98027H11.5083Z" fill="#0D2340"/>
<path d="M33.4213 8.98027H27.8099V0.815622H29.8399V7.28088H33.4213V8.98027Z" fill="#0D2340"/>
<path d="M19.7903 8.57999C19.1034 8.21745 18.5631 7.71896 18.1772 7.07697C17.7912 6.43497 17.5983 5.7099 17.5983 4.90174C17.5983 4.09359 17.7912 3.36851 18.1849 2.72652C18.5708 2.08452 19.1111 1.58603 19.7981 1.22349C20.485 0.860956 21.2569 0.679688 22.1213 0.679688C22.9781 0.679688 23.7499 0.860956 24.4446 1.22349C25.1316 1.58603 25.6719 2.08452 26.0578 2.72652C26.4437 3.36851 26.6367 4.09359 26.6367 4.90174C26.6367 5.7099 26.4437 6.43497 26.0501 7.07697C25.6641 7.71896 25.1238 8.21745 24.4369 8.57999C23.7499 8.94253 22.9781 9.1238 22.1136 9.1238C21.2491 9.1238 20.4773 8.94253 19.7903 8.57999ZM23.3486 7.06186C23.7036 6.85794 23.9892 6.56337 24.1899 6.19328C24.3906 5.82319 24.4909 5.38513 24.4909 4.90174C24.4909 4.41081 24.3906 3.98029 24.1899 3.6102C23.9892 3.24011 23.7036 2.94555 23.3486 2.74162C22.9935 2.53769 22.5844 2.43195 22.1213 2.43195C21.6582 2.43195 21.2491 2.53769 20.8864 2.74162C20.5236 2.94555 20.2457 3.24011 20.0373 3.6102C19.8366 3.98029 19.7363 4.41836 19.7363 4.90174C19.7363 5.39268 19.8366 5.82319 20.0373 6.19328C20.238 6.56337 20.5236 6.85794 20.8864 7.06186C21.2491 7.26579 21.6582 7.37153 22.1213 7.37153C22.5844 7.37153 22.9935 7.27334 23.3486 7.06186Z" fill="#0D2340"/>
<path d="M42.9382 8.98027H40.7693L40.1982 7.60565H36.2617L35.6751 8.98027H33.5525L37.2111 0.815622H39.2642L42.9382 8.98027ZM38.2376 2.93798L36.9023 6.07997H39.5498L38.2376 2.93798Z" fill="#0D2340"/>
<path d="M45.0222 8.57997C44.3275 8.21744 43.7872 7.71895 43.4013 7.07695C43.0154 6.43496 42.8147 5.71744 42.8147 4.90928C42.8147 4.10112 43.0077 3.37605 43.3936 2.7265C43.7795 2.08451 44.3121 1.57846 44.999 1.21593C45.686 0.853388 46.4501 0.672119 47.3146 0.672119C47.9475 0.672119 48.5573 0.785412 49.1362 1.01955C49.7151 1.24614 50.2245 1.59357 50.6799 2.05429L49.6225 3.36849C48.7966 2.65852 48.1251 2.41683 47.3609 2.41683C46.8978 2.41683 46.481 2.51502 46.1182 2.71895C45.7477 2.92287 45.4544 3.20988 45.2383 3.58753C45.0222 3.96517 44.9141 4.40324 44.9141 4.90928C44.9141 5.41532 45.0222 5.85339 45.2306 6.23103C45.439 6.60868 45.74 6.89568 46.1259 7.09961C46.5119 7.30354 46.9596 7.40173 47.469 7.40173C48.0633 7.40173 48.5727 7.25067 48.9972 6.95611V4.93949H50.842V7.87756C50.3866 8.27786 49.8617 8.57997 49.252 8.79901C48.6422 9.01804 48.017 9.12378 47.3609 9.12378C46.4964 9.12378 45.7169 8.94251 45.0222 8.57997Z" fill="#FF9F01"/>
<path d="M57.3024 8.98041C56.8934 8.21757 56.492 7.45473 56.0829 6.68433C55.5117 6.68433 54.9483 6.68433 54.3771 6.68433C54.3771 7.44717 54.3771 8.21001 54.3771 8.98041C53.6902 8.98041 53.0109 8.98041 52.324 8.98041C52.324 6.25382 52.324 3.52723 52.324 0.800647C52.6096 0.800647 52.872 0.800647 54.0375 0.8082C55.7587 0.823306 58.1823 0.664696 59.0854 2.44717C59.3401 2.94566 59.3942 3.53479 59.3324 4.08615C59.2321 5.01515 58.769 5.96681 57.9199 6.38977C57.9585 6.38977 58.0974 6.65412 58.1283 6.69189C58.1978 6.79763 58.275 6.90337 58.3444 7.00911C58.4911 7.22814 58.6455 7.44717 58.7921 7.66621C58.9388 7.87769 59.0854 8.09672 59.2321 8.3082C59.371 8.51213 59.5871 8.73871 59.672 8.9653C59.5022 9.00306 59.2784 8.97285 59.1086 8.97285C58.9079 8.97285 58.7072 8.97285 58.5065 8.97285C58.1052 8.98041 57.7038 8.98041 57.3024 8.98041ZM54.3771 2.48494V5.08313H55.8899C56.3762 5.08313 56.9628 4.96983 57.2021 4.50155C57.4336 4.05593 57.4568 3.47436 57.1712 3.04385C56.8239 2.5227 56.1678 2.49249 55.5889 2.48494H54.3771Z" fill="#FF9F01"/>
<path d="M62.5201 8.58007C61.8332 8.21753 61.2929 7.71904 60.907 7.07704C60.521 6.43505 60.3281 5.70998 60.3281 4.90182C60.3281 4.09366 60.521 3.36859 60.9147 2.72659C61.3006 2.0846 61.8409 1.58611 62.5278 1.22357C63.2148 0.861033 63.9867 0.679764 64.8511 0.679764C65.7079 0.679764 66.4797 0.861033 67.1667 1.22357C67.8536 1.58611 68.3939 2.0846 68.7799 2.72659C69.1658 3.36859 69.3588 4.09366 69.3588 4.90182C69.3588 5.70998 69.1658 6.43505 68.7722 7.07704C68.3862 7.71904 67.8459 8.21753 67.159 8.58007C66.472 8.9426 65.7002 9.12387 64.8357 9.12387C63.9789 9.12387 63.2071 8.9426 62.5201 8.58007ZM66.0784 7.06194C66.4334 6.85801 66.719 6.56345 66.9197 6.19336C67.1204 5.82327 67.2207 5.3852 67.2207 4.90182C67.2207 4.41088 67.1204 3.98037 66.9197 3.61028C66.719 3.24019 66.4334 2.94563 66.0784 2.7417C65.7233 2.53777 65.3142 2.43203 64.8511 2.43203C64.388 2.43203 63.9789 2.53777 63.6162 2.7417C63.2534 2.94563 62.9755 3.24019 62.7671 3.61028C62.5664 3.98037 62.4661 4.41844 62.4661 4.90182C62.4661 5.39276 62.5664 5.82327 62.7671 6.19336C62.9678 6.56345 63.2534 6.85801 63.6162 7.06194C63.9789 7.26587 64.388 7.37161 64.8511 7.37161C65.3142 7.37161 65.7233 7.27342 66.0784 7.06194Z" fill="#FF9F01"/>
<path d="M74.9392 8.98035H72.9015L69.3587 0.815698H71.5276L73.9126 6.67673H73.9358L76.3208 0.815698H78.4897L74.9392 8.98035Z" fill="#FF9F01"/>
<path d="M81.0986 5.58911V7.32627H85.9999V8.98035H79.0841V0.815698H85.8841V2.46978H81.0986V4.01056H85.3284V5.58911H81.0986Z" fill="#FF9F01"/>
<path d="M5.10968 10C7.93167 10 10.2194 7.76142 10.2194 5C10.2194 2.23858 7.93167 0 5.10968 0C2.28768 0 0 2.23858 0 5C0 7.76142 2.28768 10 5.10968 10Z" fill="#FF9F01"/>
<path d="M5.10967 7.37891C6.48656 7.37891 7.60276 6.28667 7.60276 4.93933C7.60276 3.59199 6.48656 2.49976 5.10967 2.49976C3.73277 2.49976 2.61658 3.59199 2.61658 4.93933C2.61658 6.28667 3.73277 7.37891 5.10967 7.37891Z" fill="#0D2340"/>
<path d="M5.95877 4.72807C6.38932 4.72807 6.73835 4.38654 6.73835 3.96523C6.73835 3.54393 6.38932 3.20239 5.95877 3.20239C5.52823 3.20239 5.1792 3.54393 5.1792 3.96523C5.1792 4.38654 5.52823 4.72807 5.95877 4.72807Z" fill="#FDFEFD"/>
</svg>
