<svg width="86" height="10" viewBox="0 0 86 10" fill="none" xmlns="http://www.w3.org/2000/svg">
<path d="M11.5083 8.98026V0.815606H13.5383V7.28086H17.1274V8.98026H11.5083Z" fill="#2782B4"/>
<path d="M33.4213 8.98026H27.8099V0.815606H29.8399V7.28086H33.4213V8.98026Z" fill="#2782B4"/>
<path d="M19.7903 8.57997C19.1034 8.21744 18.5631 7.71895 18.1772 7.07695C17.7912 6.43496 17.5983 5.70988 17.5983 4.90173C17.5983 4.09357 17.7912 3.36849 18.1849 2.7265C18.5708 2.08451 19.1111 1.58602 19.7981 1.22348C20.485 0.86094 21.2569 0.679671 22.1213 0.679671C22.9781 0.679671 23.7499 0.86094 24.4446 1.22348C25.1316 1.58602 25.6719 2.08451 26.0578 2.7265C26.4437 3.36849 26.6367 4.09357 26.6367 4.90173C26.6367 5.70988 26.4437 6.43496 26.0501 7.07695C25.6641 7.71895 25.1238 8.21744 24.4369 8.57997C23.7499 8.94251 22.9781 9.12378 22.1136 9.12378C21.2491 9.12378 20.4773 8.94251 19.7903 8.57997ZM23.3486 7.06185C23.7036 6.85792 23.9892 6.56336 24.1899 6.19327C24.3906 5.82318 24.4909 5.38511 24.4909 4.90173C24.4909 4.41079 24.3906 3.98028 24.1899 3.61019C23.9892 3.24009 23.7036 2.94553 23.3486 2.74161C22.9935 2.53768 22.5844 2.43194 22.1213 2.43194C21.6582 2.43194 21.2491 2.53768 20.8864 2.74161C20.5236 2.94553 20.2457 3.24009 20.0373 3.61019C19.8366 3.98028 19.7363 4.41834 19.7363 4.90173C19.7363 5.39266 19.8366 5.82318 20.0373 6.19327C20.238 6.56336 20.5236 6.85792 20.8864 7.06185C21.2491 7.26577 21.6582 7.37151 22.1213 7.37151C22.5844 7.37151 22.9935 7.27333 23.3486 7.06185Z" fill="#2782B4"/>
<path d="M42.9382 8.98026H40.7693L40.1982 7.60564H36.2617L35.6751 8.98026H33.5525L37.2111 0.815606H39.2642L42.9382 8.98026ZM38.2376 2.93796L36.9023 6.07996H39.5498L38.2376 2.93796Z" fill="#2782B4"/>
<path d="M45.0223 8.57988C44.3276 8.21734 43.7873 7.71885 43.4014 7.07686C43.0154 6.43487 42.8148 5.71734 42.8148 4.90919C42.8148 4.10103 43.0077 3.37595 43.3937 2.72641C43.7796 2.08441 44.3122 1.57837 44.9991 1.21583C45.6861 0.853296 46.4502 0.672027 47.3147 0.672027C47.9476 0.672027 48.5574 0.78532 49.1362 1.01946C49.7151 1.24604 50.2246 1.59348 50.68 2.0542L49.6225 3.3684C48.7966 2.65843 48.1251 2.41674 47.361 2.41674C46.8979 2.41674 46.4811 2.51493 46.1183 2.71885C45.7478 2.92278 45.4545 3.20979 45.2384 3.58743C45.0223 3.96508 44.9142 4.40314 44.9142 4.90919C44.9142 5.41523 45.0223 5.8533 45.2307 6.23094C45.4391 6.60858 45.7401 6.89559 46.126 7.09952C46.5119 7.30345 46.9596 7.40163 47.469 7.40163C48.0634 7.40163 48.5728 7.25058 48.9973 6.95601V4.9394H50.842V7.87747C50.3867 8.27777 49.8618 8.57988 49.252 8.79891C48.6423 9.01795 48.0171 9.12369 47.361 9.12369C46.4965 9.12369 45.7169 8.94242 45.0223 8.57988Z" fill="#2782B4"/>
<path d="M57.3025 8.98031C56.8934 8.21747 56.492 7.45463 56.083 6.68424C55.5118 6.68424 54.9483 6.68424 54.3772 6.68424C54.3772 7.44708 54.3772 8.20992 54.3772 8.98031C53.6902 8.98031 53.011 8.98031 52.324 8.98031C52.324 6.25373 52.324 3.52714 52.324 0.800555C52.6096 0.800555 52.872 0.800555 54.0375 0.808108C55.7588 0.823214 58.1824 0.664603 59.0855 2.44708C59.3402 2.94557 59.3942 3.53469 59.3325 4.08605C59.2321 5.01506 58.769 5.96672 57.92 6.38968C57.9586 6.38968 58.0975 6.65403 58.1284 6.69179C58.1978 6.79753 58.275 6.90327 58.3445 7.00901C58.4911 7.22805 58.6455 7.44708 58.7922 7.66611C58.9388 7.87759 59.0855 8.09663 59.2321 8.30811C59.3711 8.51203 59.5872 8.73862 59.6721 8.96521C59.5023 9.00297 59.2784 8.97276 59.1086 8.97276C58.9079 8.97276 58.7073 8.97276 58.5066 8.97276C58.1052 8.98031 57.7039 8.98031 57.3025 8.98031ZM54.3772 2.48484V5.08303H55.89C56.3763 5.08303 56.9629 4.96974 57.2022 4.50146C57.4337 4.05584 57.4569 3.47427 57.1713 3.04376C56.8239 2.52261 56.1679 2.4924 55.589 2.48484H54.3772Z" fill="#2782B4"/>
<path d="M62.5202 8.57997C61.8332 8.21744 61.2929 7.71895 60.907 7.07695C60.5211 6.43496 60.3281 5.70988 60.3281 4.90173C60.3281 4.09357 60.5211 3.36849 60.9147 2.7265C61.3007 2.08451 61.841 1.58602 62.5279 1.22348C63.2149 0.86094 63.9867 0.679671 64.8512 0.679671C65.708 0.679671 66.4798 0.86094 67.1668 1.22348C67.8537 1.58602 68.394 2.08451 68.7799 2.7265C69.1659 3.36849 69.3588 4.09357 69.3588 4.90173C69.3588 5.70988 69.1659 6.43496 68.7722 7.07695C68.3863 7.71895 67.846 8.21744 67.159 8.57997C66.4721 8.94251 65.7002 9.12378 64.8358 9.12378C63.979 9.12378 63.2071 8.94251 62.5202 8.57997ZM66.0784 7.06185C66.4335 6.85792 66.7191 6.56336 66.9198 6.19327C67.1204 5.82318 67.2208 5.38511 67.2208 4.90173C67.2208 4.41079 67.1204 3.98028 66.9198 3.61019C66.7191 3.24009 66.4335 2.94553 66.0784 2.74161C65.7234 2.53768 65.3143 2.43194 64.8512 2.43194C64.3881 2.43194 63.979 2.53768 63.6162 2.74161C63.2535 2.94553 62.9756 3.24009 62.7672 3.61019C62.5665 3.98028 62.4662 4.41834 62.4662 4.90173C62.4662 5.39266 62.5665 5.82318 62.7672 6.19327C62.9679 6.56336 63.2535 6.85792 63.6162 7.06185C63.979 7.26577 64.3881 7.37151 64.8512 7.37151C65.3143 7.37151 65.7234 7.27333 66.0784 7.06185Z" fill="#2782B4"/>
<path d="M74.9393 8.98026H72.9016L69.3588 0.815606H71.5277L73.9127 6.67663H73.9359L76.3209 0.815606H78.4898L74.9393 8.98026Z" fill="#2782B4"/>
<path d="M81.0987 5.58902V7.32618H86V8.98026H79.0842V0.815606H85.8842V2.46968H81.0987V4.01047H85.3285V5.58902H81.0987Z" fill="#2782B4"/>
<path fill-rule="evenodd" clip-rule="evenodd" d="M10.2194 5C10.2194 7.76142 7.93167 10 5.10968 10C2.28768 10 0 7.76142 0 5C0 2.23858 2.28768 0 5.10968 0C7.93167 0 10.2194 2.23858 10.2194 5ZM7.60276 4.93943C7.60276 6.28677 6.48656 7.37901 5.10967 7.37901C3.73277 7.37901 2.61658 6.28677 2.61658 4.93943C2.61658 3.59209 3.73277 2.49985 5.10967 2.49985C6.48656 2.49985 7.60276 3.59209 7.60276 4.93943Z" fill="#2782B4"/>
<path d="M5.95871 4.72814C6.38926 4.72814 6.73828 4.3866 6.73828 3.9653C6.73828 3.54399 6.38926 3.20246 5.95871 3.20246C5.52816 3.20246 5.17914 3.54399 5.17914 3.9653C5.17914 4.3866 5.52816 4.72814 5.95871 4.72814Z" fill="#2782B4"/>
</svg>
