<svg width="129" height="49" viewBox="0 0 129 49" fill="none" xmlns="http://www.w3.org/2000/svg">
<path d="M43.5742 30.4309C42.0336 31.9114 40.0351 32.6105 37.9116 32.6105C32.3738 32.6105 30.0005 28.8272 30.0005 25.0027C29.9589 21.1372 32.4987 17.2305 37.9116 17.2305C39.9518 17.2305 41.8671 17.9707 43.4077 19.4922L41.534 21.3016C40.5347 20.3558 39.244 19.9035 37.9116 19.9035C34.2891 19.9035 32.7486 22.5765 32.7486 25.0438C32.7486 27.429 34.2059 29.9786 37.9116 29.9786C39.2023 29.9786 40.7013 29.444 41.6589 28.4982L43.5742 30.4309Z" fill="#045F87"/>
<path d="M58.0643 17.5186V25.9899C58.0643 30.3489 55.3579 32.5696 51.6105 32.5696C48.0297 32.5696 44.9902 30.4312 44.9902 25.9899V17.5186H47.7799V25.9899C47.7799 28.6629 49.3205 30.0611 51.6522 30.0611C53.9839 30.0611 55.3163 28.5395 55.3163 25.9899V17.5186H58.0643Z" fill="#045F87"/>
<path d="M74.0531 32.2813H70.7221L66.3502 27.3466H63.6438V32.2813H60.8125V17.4771C63.1858 17.4771 65.5591 17.5182 67.9325 17.5182C71.4716 17.5593 73.3037 19.8622 73.3037 22.4118C73.3037 24.4268 72.346 26.483 69.5147 27.0587L74.0531 32.1168V32.2813ZM63.6438 20.1089V24.8381H67.9325C69.7229 24.8381 70.514 23.6455 70.514 22.4941C70.514 21.3426 69.7229 20.15 67.9325 20.15H63.6438V20.1089Z" fill="#045F87"/>
<path d="M85.7948 29.4853H77.967L76.6762 32.2817H73.6367L80.3403 17.5186H83.4215L90.1667 32.2817H87.0855L85.7948 29.4853ZM81.9225 20.6028L79.1328 26.8946H84.6706L81.9225 20.6028Z" fill="#045F87"/>
<path d="M92.8326 20.0267H88.0859V17.4771C92.4162 17.4771 96.0386 17.4771 100.369 17.4771V20.0267H95.6223V32.2402H92.7909V20.0267H92.8326Z" fill="#045F87"/>
<path d="M113.234 32.2817H102.033C102.033 27.3881 102.033 22.4533 102.033 17.5186H113.234V20.2327H104.865V23.6459H112.942V26.2366H104.865V29.5676H113.234V32.2817Z" fill="#045F87"/>
<path d="M128.556 24.7562C128.64 28.4984 126.308 32.2817 121.103 32.2817C119.271 32.2817 117.064 32.2817 115.232 32.2817V17.5186C117.064 17.5186 119.271 17.5186 121.103 17.5186C126.225 17.5186 128.515 21.0963 128.556 24.7562ZM118.022 29.6087H121.103C124.518 29.6087 125.85 27.1825 125.767 24.7562C125.683 22.4533 124.351 20.1504 121.103 20.1504H118.022V29.6087Z" fill="#045F87"/>
<path d="M39.2013 6.74451C39.1596 5.42858 39.0764 3.82478 39.0764 2.4266H39.0347C38.7016 3.66029 38.2853 5.05847 37.7856 6.33328L36.2867 10.7746H34.8294L33.4554 6.37441C33.039 5.05847 32.6642 3.66029 32.4144 2.38548H32.3728C32.3311 3.74253 32.2479 5.34633 32.2062 6.74451L31.9564 10.8568H30.166L30.8738 0.617188H33.3721L34.7461 4.72949C35.1208 5.92205 35.4539 7.15574 35.7038 8.30719H35.7454C36.0369 7.19686 36.37 5.92205 36.7863 4.72949L38.202 0.617188H40.6586L41.2415 10.8568H39.4095L39.2013 6.74451Z" fill="#9B8579"/>
<path d="M47.4029 10.9383L47.278 10.1159H47.2363C46.7783 10.6916 45.9872 11.1028 45.0296 11.1028C43.5306 11.1028 42.6562 10.0336 42.6562 8.88217C42.6562 6.99051 44.3217 6.08581 47.1114 6.08581V5.96244C47.1114 5.46896 46.9032 4.68763 45.5709 4.68763C44.8214 4.68763 44.0719 4.93436 43.5723 5.22222L43.1975 3.98853C43.7388 3.65955 44.7381 3.33057 45.904 3.33057C48.3189 3.33057 48.9851 4.85212 48.9851 6.45591V9.12891C48.9851 9.78688 49.0267 10.4448 49.11 10.8972H47.4029V10.9383ZM47.1531 7.3195C45.8207 7.27837 44.5299 7.56623 44.5299 8.71768C44.5299 9.45789 44.9879 9.78688 45.6125 9.78688C46.362 9.78688 46.9032 9.2934 47.1114 8.7588C47.1531 8.63543 47.1531 8.47094 47.1531 8.34757V7.3195Z" fill="#9B8579"/>
<path d="M50.985 5.7157C50.985 4.85212 50.985 4.15303 50.9434 3.49506H52.6088L52.6921 4.60538H52.7338C53.0669 4.02966 53.858 3.33057 55.1071 3.33057C56.3978 3.33057 57.7719 4.15303 57.7719 6.49704V10.8972H55.8565V6.74377C55.8565 5.67458 55.4402 4.85212 54.4409 4.85212C53.6914 4.85212 53.1501 5.38672 52.9419 5.96244C52.9003 6.12693 52.8587 6.37367 52.8587 6.57928V10.9383H50.9434V5.7157H50.985Z" fill="#9B8579"/>
<path d="M66.5154 8.71812C66.5154 9.5817 66.557 10.3219 66.557 10.9388H64.8915L64.8082 9.82844H64.7666C64.4335 10.363 63.684 11.1033 62.3517 11.1033C60.9776 11.1033 59.7285 10.2808 59.7285 7.89566V3.53662H61.6438V7.56667C61.6438 8.80036 62.0602 9.5817 63.0595 9.5817C63.809 9.5817 64.3086 9.0471 64.5168 8.59475C64.5584 8.43026 64.6417 8.22464 64.6417 8.01903V3.53662H66.557V8.71812H66.5154Z" fill="#9B8579"/>
<path d="M68.8059 10.9387V4.93476H67.8066V3.53658H68.8059V3.20759C68.8059 2.26176 69.0558 1.27481 69.7219 0.699091C70.2632 0.164492 71.0127 0 71.6789 0C72.1785 0 72.5949 0.082246 72.8864 0.164492L72.7198 1.6038C72.5116 1.52155 72.2618 1.48043 71.9287 1.48043C70.9711 1.48043 70.6796 2.26176 70.6796 3.16647V3.53658H72.3451V4.93476H70.7212V10.9387H68.8059Z" fill="#9B8579"/>
<path d="M77.7154 10.9383L77.5905 10.1159H77.5488C77.0908 10.6916 76.2997 11.1028 75.3421 11.1028C73.8431 11.1028 72.9688 10.0336 72.9688 8.88217C72.9688 6.99051 74.6342 6.08581 77.4239 6.08581V5.96244C77.4239 5.46896 77.2157 4.68763 75.8834 4.68763C75.1339 4.68763 74.3844 4.93436 73.8848 5.22222L73.51 3.98853C74.0513 3.65955 75.0506 3.33057 76.2165 3.33057C78.6314 3.33057 79.2976 4.85212 79.2976 6.45591V9.12891C79.2976 9.78688 79.3392 10.4448 79.4225 10.8972H77.7154V10.9383ZM77.4656 7.3195C76.1332 7.27837 74.8424 7.56623 74.8424 8.71768C74.8424 9.45789 75.3004 9.78688 75.925 9.78688C76.6745 9.78688 77.2157 9.2934 77.4239 8.7588C77.4656 8.63543 77.4656 8.47094 77.4656 8.34757V7.3195Z" fill="#9B8579"/>
<path d="M86.8356 10.6916C86.4192 10.8561 85.6698 11.0617 84.7121 11.0617C82.3804 11.0617 80.8398 9.58126 80.8398 7.27837C80.8398 5.05773 82.3804 3.33057 85.0036 3.33057C85.7114 3.33057 86.4192 3.49506 86.8356 3.70067L86.5025 5.09886C86.211 4.97549 85.753 4.81099 85.0868 4.81099C83.6295 4.81099 82.7552 5.88019 82.7968 7.19613C82.7968 8.71768 83.7961 9.58126 85.0868 9.58126C85.753 9.58126 86.211 9.45789 86.5858 9.2934L86.8356 10.6916Z" fill="#9B8579"/>
<path d="M90.6236 1.39844V3.49571H92.414V4.89389H90.6236V8.18373C90.6236 9.08844 90.8734 9.54079 91.5812 9.54079C91.9143 9.54079 92.1642 9.49967 92.3307 9.45854L92.3723 10.8978C92.0809 11.0212 91.5812 11.0623 90.9983 11.0623C90.2905 11.0623 89.7076 10.8156 89.3745 10.4455C88.9581 10.0343 88.7915 9.33517 88.7915 8.38935V4.89389H87.709V3.53683H88.7915V1.85079L90.6236 1.39844Z" fill="#9B8579"/>
<path d="M100.576 8.71812C100.576 9.5817 100.618 10.3219 100.618 10.9388H98.9521L98.8688 9.82844H98.8272C98.4941 10.363 97.7446 11.1033 96.4122 11.1033C95.0382 11.1033 93.7891 10.2808 93.7891 7.89566V3.53662H95.7044V7.56667C95.7044 8.80036 96.1207 9.5817 97.12 9.5817C97.8695 9.5817 98.3691 9.0471 98.5773 8.59475C98.619 8.43026 98.7022 8.22464 98.7022 8.01903V3.53662H100.618V8.71812H100.576Z" fill="#9B8579"/>
<path d="M102.657 5.92121C102.657 4.93426 102.657 4.19404 102.615 3.53607H104.281L104.322 4.93426H104.364C104.739 3.86506 105.613 3.37158 106.404 3.37158C106.571 3.37158 106.696 3.37158 106.862 3.4127V5.18099C106.696 5.13987 106.529 5.13987 106.321 5.13987C105.405 5.13987 104.78 5.71559 104.614 6.53805C104.572 6.70254 104.572 6.90816 104.572 7.11377V10.9382H102.657V5.92121Z" fill="#9B8579"/>
<path d="M110.151 1.43921C110.151 2.01493 109.734 2.42616 109.068 2.42616C108.444 2.42616 108.027 1.97381 108.027 1.43921C108.027 0.863486 108.444 0.411133 109.11 0.411133C109.734 0.411133 110.109 0.863486 110.151 1.43921ZM108.111 10.9386V3.53648H110.026V10.9386H108.111Z" fill="#9B8579"/>
<path d="M112.067 5.7157C112.067 4.85212 112.067 4.15303 112.025 3.49506H113.691L113.774 4.60538H113.816C114.149 4.02966 114.94 3.33057 116.189 3.33057C117.48 3.33057 118.854 4.15303 118.854 6.49704V10.8972H116.939V6.74377C116.939 5.67458 116.522 4.85212 115.523 4.85212C114.773 4.85212 114.232 5.38672 114.024 5.96244C113.982 6.12693 113.941 6.37367 113.941 6.57928V10.9383H112.025V5.7157H112.067Z" fill="#9B8579"/>
<path d="M127.723 3.53635C127.682 4.02982 127.682 4.64667 127.682 5.67474V9.86929C127.682 11.432 127.349 12.5423 126.557 13.2414C125.766 13.9405 124.684 14.1461 123.643 14.1461C122.685 14.1461 121.686 13.9405 121.02 13.5704L121.436 12.1722C121.894 12.46 122.727 12.7479 123.643 12.7479C124.892 12.7479 125.808 12.0899 125.808 10.5273V9.86929H125.766C125.35 10.5273 124.559 10.9796 123.56 10.9796C121.686 10.9796 120.354 9.45806 120.354 7.36079C120.354 4.93453 121.936 3.4541 123.768 3.4541C124.892 3.4541 125.6 3.9887 125.933 4.60555H125.975L126.058 3.61859H127.723V3.53635ZM125.766 6.4972C125.766 6.33271 125.766 6.1271 125.725 6.00373C125.517 5.30464 124.975 4.81116 124.184 4.81116C123.102 4.81116 122.352 5.71587 122.352 7.23742C122.352 8.51223 123.018 9.49918 124.184 9.49918C124.892 9.49918 125.517 9.04683 125.725 8.38886C125.766 8.18325 125.808 7.93651 125.808 7.73089V6.4972H125.766Z" fill="#9B8579"/>
<path d="M7 21L10 24L20 14" stroke="#9B8579" stroke-width="2" stroke-linecap="round" stroke-linejoin="round"/>
<path d="M19 22V29C19 29.5304 18.7893 30.0391 18.4142 30.4142C18.0391 30.7893 17.5304 31 17 31H3C2.46957 31 1.96086 30.7893 1.58579 30.4142C1.21071 30.0391 1 29.5304 1 29V15C1 14.4696 1.21071 13.9609 1.58579 13.5858C1.96086 13.2107 2.46957 13 3 13H14" stroke="#045F87" stroke-width="2" stroke-linecap="round" stroke-linejoin="round"/>
<path d="M32.4121 42.0303H32.9004C33.3789 42.0303 33.7321 41.9505 33.96 41.791C34.1878 41.6315 34.3018 41.3809 34.3018 41.0391C34.3018 40.7005 34.1846 40.4596 33.9502 40.3164C33.7191 40.1732 33.3594 40.1016 32.8711 40.1016H32.4121V42.0303ZM32.4121 43.2607V46H30.8984V38.8613H32.9785C33.9486 38.8613 34.6663 39.0387 35.1318 39.3936C35.5973 39.7451 35.8301 40.2806 35.8301 41C35.8301 41.4199 35.7145 41.7943 35.4834 42.123C35.2523 42.4486 34.9251 42.7041 34.502 42.8896C35.5762 44.4945 36.276 45.5312 36.6016 46H34.9219L33.2178 43.2607H32.4121ZM41.6113 46H37.5V38.8613H41.6113V40.1016H39.0137V41.6689H41.4307V42.9092H39.0137V44.75H41.6113V46ZM49.585 42.4209C49.585 43.2607 49.4352 43.9655 49.1357 44.5352C48.8395 45.1016 48.4033 45.5166 47.8271 45.7803L49.5459 47.6992H47.6074L46.2988 46.0977H46.1865C45.0928 46.0977 44.2529 45.7803 43.667 45.1455C43.0811 44.5107 42.7881 43.5993 42.7881 42.4111C42.7881 41.223 43.0811 40.3164 43.667 39.6914C44.2562 39.0632 45.0993 38.749 46.1963 38.749C47.2933 38.749 48.1315 39.0648 48.7109 39.6963C49.2936 40.3278 49.585 41.236 49.585 42.4209ZM44.375 42.4209C44.375 43.2184 44.5264 43.819 44.8291 44.2227C45.1318 44.6263 45.5843 44.8281 46.1865 44.8281C47.3942 44.8281 47.998 44.0257 47.998 42.4209C47.998 40.8128 47.3975 40.0088 46.1963 40.0088C45.5941 40.0088 45.14 40.2122 44.834 40.6191C44.528 41.0228 44.375 41.6234 44.375 42.4209ZM56.875 38.8613V43.4805C56.875 44.0078 56.7562 44.4701 56.5186 44.8672C56.2842 45.2643 55.944 45.5687 55.498 45.7803C55.0521 45.9919 54.5247 46.0977 53.916 46.0977C52.998 46.0977 52.2852 45.8633 51.7773 45.3945C51.2695 44.9225 51.0156 44.278 51.0156 43.4609V38.8613H52.5244V43.2314C52.5244 43.7816 52.6351 44.1852 52.8564 44.4424C53.0778 44.6995 53.444 44.8281 53.9551 44.8281C54.4499 44.8281 54.8079 44.6995 55.0293 44.4424C55.2539 44.182 55.3662 43.7751 55.3662 43.2217V38.8613H56.875ZM62.7344 46H58.623V38.8613H62.7344V40.1016H60.1367V41.6689H62.5537V42.9092H60.1367V44.75H62.7344V46ZM68.4424 44.0176C68.4424 44.6621 68.2096 45.1699 67.7441 45.541C67.2819 45.9121 66.6374 46.0977 65.8105 46.0977C65.0488 46.0977 64.375 45.9544 63.7891 45.668V44.2617C64.2708 44.4766 64.6777 44.6279 65.0098 44.7158C65.3451 44.8037 65.651 44.8477 65.9277 44.8477C66.2598 44.8477 66.5137 44.7842 66.6895 44.6572C66.8685 44.5303 66.958 44.3415 66.958 44.0908C66.958 43.9508 66.9189 43.8271 66.8408 43.7197C66.7627 43.609 66.6471 43.5033 66.4941 43.4023C66.3444 43.3014 66.0368 43.1403 65.5713 42.9189C65.1351 42.7139 64.8079 42.5169 64.5898 42.3281C64.3717 42.1393 64.1976 41.9196 64.0674 41.6689C63.9372 41.4183 63.8721 41.1253 63.8721 40.79C63.8721 40.1585 64.0853 39.6621 64.5117 39.3008C64.9414 38.9395 65.5339 38.7588 66.2891 38.7588C66.6602 38.7588 67.0133 38.8027 67.3486 38.8906C67.6872 38.9785 68.0404 39.1022 68.4082 39.2617L67.9199 40.4385C67.5391 40.2822 67.2233 40.1732 66.9727 40.1113C66.7253 40.0495 66.4811 40.0186 66.2402 40.0186C65.9538 40.0186 65.734 40.0853 65.5811 40.2188C65.4281 40.3522 65.3516 40.5264 65.3516 40.7412C65.3516 40.8747 65.3825 40.9919 65.4443 41.0928C65.5062 41.1904 65.6038 41.2865 65.7373 41.3809C65.874 41.472 66.1947 41.638 66.6992 41.8789C67.3665 42.1979 67.8239 42.5186 68.0713 42.8408C68.3187 43.1598 68.4424 43.5521 68.4424 44.0176ZM72.4902 46H70.9766V40.1211H69.0381V38.8613H74.4287V40.1211H72.4902V46ZM79.6387 46H75.5273V38.8613H79.6387V40.1016H77.041V41.6689H79.458V42.9092H77.041V44.75H79.6387V46ZM87.0557 42.3623C87.0557 43.5374 86.7204 44.4375 86.0498 45.0625C85.3825 45.6875 84.4173 46 83.1543 46H81.1328V38.8613H83.374C84.5394 38.8613 85.4443 39.1689 86.0889 39.7842C86.7334 40.3994 87.0557 41.2588 87.0557 42.3623ZM85.4834 42.4014C85.4834 40.8682 84.8063 40.1016 83.4521 40.1016H82.6465V44.75H83.2959C84.7542 44.75 85.4834 43.9671 85.4834 42.4014Z" fill="#045F87"/>
</svg>
