<svg width="128" height="34" viewBox="0 0 128 34" fill="none" xmlns="http://www.w3.org/2000/svg">
<path d="M42.4012 31.0352C40.8494 32.545 38.8363 33.258 36.6974 33.258C31.1195 33.258 28.729 29.3996 28.729 25.4992C28.6871 21.557 31.2454 17.5728 36.6974 17.5728C38.7525 17.5728 40.6817 18.3277 42.2334 19.8794L40.3461 21.7247C39.3396 20.7601 38.0395 20.2988 36.6974 20.2988C33.0487 20.2988 31.497 23.0248 31.497 25.5412C31.5389 28.0156 32.9649 30.6577 36.6974 30.6577C37.9976 30.6577 39.5074 30.1125 40.472 29.148L42.4012 31.0352Z" fill="#CBCBCB"/>
<path d="M56.954 17.9082V26.5477C56.954 30.9932 54.228 33.2579 50.4535 33.2579C46.8467 33.2579 43.7852 31.0771 43.7852 26.5477V17.9082H46.5951V26.5477C46.5951 29.2737 48.1468 30.6996 50.4954 30.6996C52.844 30.6996 54.186 29.1479 54.186 26.5477V17.9082H56.954Z" fill="#CBCBCB"/>
<path d="M73.1003 32.9223H69.7452L65.3416 27.8897H62.6155V32.9223H59.7637V17.8662C62.1542 17.8662 64.5447 17.9081 66.9353 17.9081C70.5001 17.9501 72.3454 20.2987 72.3454 22.8989C72.3454 24.9539 71.3808 27.0509 68.5289 27.638L73.1003 32.7965V32.9223ZM62.6155 20.5084V25.3314H66.9353C68.7386 25.3314 69.5355 24.1151 69.5355 22.9408C69.5355 21.7665 68.7386 20.5503 66.9353 20.5503H62.6155V20.5084Z" fill="#CBCBCB"/>
<path d="M84.9278 30.1125H77.0433L75.7432 32.9643H72.6816L79.4338 17.9082H82.5373L89.2895 32.9643H86.186L84.9278 30.1125ZM81.0275 21.0536L78.2176 27.4703H83.7955L81.0275 21.0536Z" fill="#CBCBCB"/>
<path d="M92.0154 20.4664H87.2344V17.8662C91.596 17.8662 95.2447 17.8662 99.6064 17.8662V20.4664H94.8253V32.9223H91.9735V20.4664H92.0154Z" fill="#CBCBCB"/>
<path d="M112.565 32.9223H101.283C101.283 27.9316 101.283 22.8989 101.283 17.8662H112.565V20.6342H104.135V24.1151H112.271V26.7573H104.135V30.1544H112.565V32.9223Z" fill="#CBCBCB"/>
<path d="M127.999 25.2894C128.083 29.1058 125.734 32.9642 120.492 32.9642C118.646 32.9642 116.423 32.9642 114.578 32.9642V17.9081C116.423 17.9081 118.646 17.9081 120.492 17.9081C125.65 17.8661 127.957 21.5568 127.999 25.2894ZM117.388 30.1962H120.492C123.931 30.1962 125.273 27.7218 125.189 25.2474C125.105 22.8988 123.763 20.5503 120.492 20.5503H117.388V30.1962Z" fill="#CBCBCB"/>
<path fill-rule="evenodd" clip-rule="evenodd" d="M0 18.2018V14.7208C0 14.3434 0.209695 14.0498 0.503269 14.0498H2.93573C3.22931 14.0498 3.439 14.3434 3.439 14.6789L3.48094 18.1598C3.48094 18.5373 3.27125 18.8308 2.97767 18.8308H0.545208C0.251634 18.8308 0.0419391 18.5373 0 18.2018Z" fill="#CBCBCB"/>
<path fill-rule="evenodd" clip-rule="evenodd" d="M0 24.9122V21.4313C0 21.0538 0.209695 20.7603 0.503269 20.7603H2.93573C3.22931 20.7603 3.439 21.0538 3.439 21.3893L3.48094 24.8703C3.48094 25.2477 3.27125 25.5413 2.97767 25.5413H0.545208C0.251634 25.5413 0.0419391 25.2477 0 24.9122Z" fill="#CBCBCB"/>
<path fill-rule="evenodd" clip-rule="evenodd" d="M4.48725 18.1598L4.44531 14.6789C4.44531 14.3014 4.65501 14.0078 4.94858 14.0078H7.38105C7.67462 14.0078 7.88432 14.3014 7.88432 14.6369L7.92625 18.1178C7.92625 18.4953 7.71656 18.7889 7.42299 18.7889H4.99052C4.73889 18.8308 4.48725 18.5372 4.48725 18.1598Z" fill="#CBCBCB"/>
<path fill-rule="evenodd" clip-rule="evenodd" d="M8.84858 29.4835L8.80664 26.0026C8.80664 25.6251 9.01634 25.3315 9.30991 25.3315H11.7424C12.0359 25.3315 12.2456 25.6251 12.2456 25.9606L12.2876 29.4416C12.2876 29.819 12.0779 30.1126 11.7843 30.1126H9.35185C9.10021 30.1545 8.84858 29.861 8.84858 29.4835Z" fill="#CBCBCB"/>
<path fill-rule="evenodd" clip-rule="evenodd" d="M8.80756 23.8219L8.76562 20.341C8.76562 19.9635 8.97532 19.6699 9.26889 19.6699H11.7014C11.9949 19.6699 12.2046 19.9635 12.2046 20.299L12.2466 23.7799C12.2466 24.1574 12.0369 24.451 11.7433 24.451H9.31083C9.0592 24.451 8.80756 24.1574 8.80756 23.8219Z" fill="#CBCBCB"/>
<path fill-rule="evenodd" clip-rule="evenodd" d="M8.7646 18.1178L8.72266 14.6368C8.72266 14.2594 8.93235 13.9658 9.22593 13.9658H11.6584C11.952 13.9658 12.1617 14.2594 12.1617 14.5949L12.2036 18.0758C12.2036 18.4533 11.9939 18.7469 11.7003 18.7469H9.26786C9.01623 18.7888 8.7646 18.4952 8.7646 18.1178Z" fill="#CBCBCB"/>
<path fill-rule="evenodd" clip-rule="evenodd" d="M13.1279 29.4835L13.0859 26.0026C13.0859 25.6251 13.2956 25.3315 13.5892 25.3315H16.0217C16.3152 25.3315 16.5249 25.6251 16.5249 25.9606L16.5669 29.4416C16.5669 29.819 16.3572 30.1126 16.0636 30.1126H13.6311C13.3795 30.1126 13.1279 29.819 13.1279 29.4835Z" fill="#CBCBCB"/>
<path fill-rule="evenodd" clip-rule="evenodd" d="M13.0849 23.7799L13.043 20.2989C13.043 19.9215 13.2527 19.6279 13.5462 19.6279H15.9787C16.2723 19.6279 16.482 19.9215 16.482 20.257L16.5239 23.738C16.5239 24.1154 16.3142 24.409 16.0206 24.409H13.5882C13.3365 24.4509 13.0849 24.1573 13.0849 23.7799Z" fill="#CBCBCB"/>
<path fill-rule="evenodd" clip-rule="evenodd" d="M13.0439 18.1178L13.002 14.6368C13.002 14.2594 13.2116 13.9658 13.5052 13.9658H15.9377C16.2313 13.9658 16.441 14.2594 16.441 14.5949L16.4829 18.0758C16.4829 18.4533 16.2732 18.7469 15.9796 18.7469H13.5472C13.2955 18.7469 13.0439 18.4533 13.0439 18.1178Z" fill="#CBCBCB"/>
<path fill-rule="evenodd" clip-rule="evenodd" d="M4.19428 12.3302L4.15234 8.84924C4.15234 8.47179 4.36204 8.17822 4.65561 8.17822H7.08808C7.38165 8.17822 7.59135 8.4718 7.59135 8.80731L7.63329 12.2882C7.63329 12.6657 7.42359 12.9593 7.13002 12.9593H4.69755C4.40398 13.0012 4.19428 12.7076 4.19428 12.3302Z" fill="#CBCBCB"/>
<path fill-rule="evenodd" clip-rule="evenodd" d="M8.72358 12.2887L8.68164 8.80776C8.68164 8.43031 8.89134 8.13672 9.18491 8.13672H11.6174C11.9109 8.13672 12.1206 8.43029 12.1206 8.7658L12.1626 12.2467C12.1626 12.6242 11.9529 12.9178 11.6593 12.9178H9.22685C8.97521 12.9178 8.72358 12.6242 8.72358 12.2887Z" fill="#CBCBCB"/>
<path fill-rule="evenodd" clip-rule="evenodd" d="M13.0009 12.2467L12.959 8.76574C12.959 8.38829 13.1687 8.09473 13.4623 8.09473H15.8947C16.1883 8.09473 16.398 8.3883 16.398 8.72381L16.4399 12.2047C16.4399 12.5822 16.2302 12.8758 15.9367 12.8758H13.5042C13.2526 12.9177 13.0009 12.6241 13.0009 12.2467Z" fill="#CBCBCB"/>
<path fill-rule="evenodd" clip-rule="evenodd" d="M17.1943 23.7374L17.1523 20.2565C17.1523 19.879 17.362 19.5854 17.6556 19.5854H20.0881C20.3817 19.5854 20.5913 19.879 20.5913 20.2145L20.6333 23.6955C20.6333 24.0729 20.4236 24.3665 20.13 24.3665H17.6976C17.4459 24.4085 17.1943 24.1149 17.1943 23.7374Z" fill="#CBCBCB"/>
<path fill-rule="evenodd" clip-rule="evenodd" d="M17.1533 18.0758L17.1113 14.5949C17.1113 14.2174 17.321 13.9238 17.6146 13.9238H20.0471C20.3406 13.9238 20.5503 14.2174 20.5503 14.5529L20.5923 18.0339C20.5923 18.4113 20.3826 18.7049 20.089 18.7049H17.6565C17.4049 18.7049 17.1533 18.4113 17.1533 18.0758Z" fill="#CBCBCB"/>
<path fill-rule="evenodd" clip-rule="evenodd" d="M17.1103 12.2047L17.0684 8.72377C17.0684 8.34632 17.2781 8.05273 17.5716 8.05273H20.0041C20.2977 8.05273 20.5074 8.34631 20.5074 8.68182L20.5493 12.1628C20.5493 12.5402 20.3396 12.8338 20.046 12.8338H17.6136C17.3619 12.8757 17.1103 12.5822 17.1103 12.2047Z" fill="#CBCBCB"/>
<path d="M19.2435 21.6118L14.3516 27.251L14.9218 27.7457L19.8137 22.1065L19.2435 21.6118Z" fill="#CBCBCB"/>
<path d="M18.7235 10.8516L13.8301 16.4893L14.4002 16.9841L19.2936 11.3464L18.7235 10.8516Z" fill="#CBCBCB"/>
<path d="M37.9973 6.91983C37.9553 5.57778 37.8714 3.94214 37.8714 2.51621H37.8295C37.494 3.77439 37.0746 5.20033 36.5713 6.50044L35.0615 11.0299H33.5937L32.2097 6.54237C31.7903 5.20032 31.4128 3.77438 31.1612 2.47427H31.1193C31.0773 3.85826 30.9934 5.4939 30.9515 6.91983L30.6999 11.1137H28.8965L29.6094 0.670898H32.1258L33.5098 4.8648C33.8872 6.08104 34.2227 7.33921 34.4744 8.51351H34.5163C34.8099 7.38115 35.1454 6.08104 35.5648 4.8648L36.9907 0.670898H39.4651L40.0523 11.1137H38.207L37.9973 6.91983Z" fill="#CBCBCB"/>
<path d="M46.2596 11.1557L46.1338 10.3169H46.0918C45.6305 10.9041 44.8336 11.3235 43.869 11.3235C42.3592 11.3235 41.4785 10.233 41.4785 9.05875C41.4785 7.12955 43.1561 6.2069 45.966 6.2069V6.08108C45.966 5.57781 45.7563 4.78096 44.4143 4.78096C43.6593 4.78096 42.9044 5.0326 42.4012 5.32617L42.0237 4.068C42.5689 3.73249 43.5755 3.39697 44.7498 3.39697C47.1822 3.39697 47.8533 4.94871 47.8533 6.58433V9.31037C47.8533 9.9814 47.8952 10.6524 47.9791 11.1138H46.2596V11.1557ZM46.0079 7.46507C44.6659 7.42313 43.3658 7.71669 43.3658 8.89098C43.3658 9.64588 43.8271 9.98141 44.4562 9.98141C45.2111 9.98141 45.7563 9.47814 45.966 8.93293C46.0079 8.80712 46.0079 8.63936 46.0079 8.51354V7.46507Z" fill="#CBCBCB"/>
<path d="M49.8662 5.87144C49.8662 4.99072 49.8662 4.27774 49.8242 3.60672H51.5018L51.5857 4.73908H51.6276C51.9631 4.15193 52.76 3.43896 54.0181 3.43896C55.3182 3.43896 56.7022 4.27774 56.7022 6.66827V11.1558H54.773V6.87796C54.773 5.78754 54.3536 4.94877 53.3471 4.94877C52.5922 4.94877 52.047 5.49399 51.8373 6.08113C51.7954 6.24889 51.7534 6.50052 51.7534 6.71022V11.1558H49.8242V5.87144H49.8662Z" fill="#CBCBCB"/>
<path d="M65.5099 8.89076C65.5099 9.77148 65.5518 10.5264 65.5518 11.1555H63.8743L63.7904 10.0231H63.7485C63.4129 10.5683 62.658 11.3232 61.316 11.3232C59.932 11.3232 58.6738 10.4844 58.6738 8.05198V3.60645H60.603V7.71647C60.603 8.97464 61.0224 9.77149 62.029 9.77149C62.7839 9.77149 63.2871 9.22627 63.4968 8.76495C63.5388 8.59719 63.6226 8.38751 63.6226 8.17781V3.60645H65.5518V8.89076H65.5099Z" fill="#CBCBCB"/>
<path d="M67.8151 11.1558V5.03269H66.8086V3.60676H67.8151V3.27125C67.8151 2.30666 68.0668 1.30012 68.7378 0.712969C69.283 0.167761 70.0379 0 70.7089 0C71.2122 0 71.6316 0.0838756 71.9252 0.167754L71.7993 1.63562C71.5896 1.55174 71.338 1.50981 71.0025 1.50981C70.0379 1.50981 69.7443 2.30665 69.7443 3.22931V3.60676H71.4219V5.03269H69.7863V11.1558H67.8151Z" fill="#CBCBCB"/>
<path d="M76.7908 11.1557L76.665 10.3169H76.6231C76.1617 10.9041 75.3649 11.3235 74.4003 11.3235C72.8905 11.3235 72.0098 10.233 72.0098 9.05875C72.0098 7.12955 73.6873 6.2069 76.4972 6.2069V6.08108C76.4972 5.57781 76.2876 4.78096 74.9455 4.78096C74.1906 4.78096 73.4357 5.0326 72.9324 5.32617L72.555 4.068C73.1002 3.73249 74.1067 3.39697 75.281 3.39697C77.7135 3.39697 78.3845 4.94871 78.3845 6.58433V9.31037C78.3845 9.9814 78.4264 10.6524 78.5103 11.1138H76.7908V11.1557ZM76.5392 7.46507C75.1971 7.42313 73.897 7.71669 73.897 8.89098C73.897 9.64588 74.3584 9.98141 74.9874 9.98141C75.7423 9.98141 76.2875 9.47814 76.4972 8.93293C76.5392 8.80712 76.5392 8.63936 76.5392 8.51354V7.46507Z" fill="#CBCBCB"/>
<path d="M85.9748 10.9461C85.5554 11.1138 84.8005 11.3235 83.8359 11.3235C81.4873 11.3235 79.9355 9.8137 79.9355 7.46512C79.9355 5.20041 81.4873 3.43896 84.1295 3.43896C84.8424 3.43896 85.5554 3.60672 85.9748 3.81641L85.6393 5.24234C85.3457 5.11652 84.8844 4.94877 84.2133 4.94877C82.7455 4.94877 81.8647 6.03918 81.9067 7.38123C81.9067 8.93298 82.9132 9.81369 84.2133 9.81369C84.8844 9.81369 85.3457 9.68787 85.7231 9.52012L85.9748 10.9461Z" fill="#CBCBCB"/>
<path d="M89.7912 1.46826V3.60716H91.5946V5.03308H89.7912V8.38822C89.7912 9.31088 90.0428 9.7722 90.7558 9.7722C91.0913 9.7722 91.3429 9.73026 91.5107 9.68832L91.5526 11.1562C91.2591 11.282 90.7558 11.324 90.1687 11.324C89.4557 11.324 88.8685 11.0723 88.533 10.6949C88.1136 10.2755 87.9459 9.56251 87.9459 8.59792V5.03308H86.8555V3.60716H87.9459V1.88765L89.7912 1.46826Z" fill="#CBCBCB"/>
<path d="M99.8165 8.89076C99.8165 9.77148 99.8585 10.5264 99.8585 11.1555H98.1809L98.097 10.0231H98.0551C97.7196 10.5683 96.9647 11.3232 95.6226 11.3232C94.2386 11.3232 92.9805 10.4844 92.9805 8.05198V3.60645H94.9097V7.71647C94.9097 8.97464 95.3291 9.77149 96.3356 9.77149C97.0905 9.77149 97.5938 9.22627 97.8035 8.76495C97.8454 8.59719 97.9293 8.38751 97.9293 8.17781V3.60645H99.8585V8.89076H99.8165Z" fill="#CBCBCB"/>
<path d="M101.87 6.03918C101.87 5.03264 101.87 4.27774 101.828 3.60672H103.506L103.548 5.03264H103.59C103.967 3.94223 104.848 3.43896 105.645 3.43896C105.812 3.43896 105.938 3.43897 106.106 3.48091V5.28428C105.938 5.24234 105.77 5.24234 105.561 5.24234C104.638 5.24234 104.009 5.82948 103.841 6.66827C103.799 6.83602 103.799 7.04573 103.799 7.25542V11.1558H101.87V6.03918Z" fill="#CBCBCB"/>
<path d="M109.461 1.50941C109.461 2.09656 109.042 2.51595 108.371 2.51595C107.742 2.51595 107.322 2.05462 107.322 1.50941C107.322 0.922267 107.742 0.460938 108.413 0.460938C109.042 0.460938 109.419 0.922267 109.461 1.50941ZM107.406 11.1554V3.60637H109.335V11.1554H107.406Z" fill="#CBCBCB"/>
<path d="M111.392 5.87144C111.392 4.99072 111.392 4.27774 111.35 3.60672H113.027L113.111 4.73908H113.153C113.488 4.15193 114.285 3.43896 115.544 3.43896C116.844 3.43896 118.228 4.27774 118.228 6.66827V11.1558H116.298V6.87796C116.298 5.78754 115.879 4.94877 114.872 4.94877C114.118 4.94877 113.572 5.49399 113.363 6.08113C113.321 6.24889 113.279 6.50052 113.279 6.71022V11.1558H111.35V5.87144H111.392Z" fill="#CBCBCB"/>
<path d="M127.16 3.60683C127.118 4.1101 127.118 4.73919 127.118 5.78767V10.0655C127.118 11.6591 126.782 12.7915 125.985 13.5044C125.188 14.2174 124.098 14.4271 123.05 14.4271C122.085 14.4271 121.078 14.2174 120.407 13.84L120.827 12.414C121.288 12.7076 122.127 13.0012 123.05 13.0012C124.308 13.0012 125.23 12.3302 125.23 10.7365V10.0655H125.188C124.769 10.7365 123.972 11.1978 122.966 11.1978C121.078 11.1978 119.736 9.64605 119.736 7.50716C119.736 5.03276 121.33 3.52295 123.175 3.52295C124.308 3.52295 125.021 4.06816 125.356 4.69725H125.398L125.482 3.69072H127.16V3.60683ZM125.188 6.62645C125.188 6.45869 125.188 6.24899 125.146 6.12318C124.937 5.41021 124.392 4.90695 123.595 4.90695C122.504 4.90695 121.749 5.8296 121.749 7.38135C121.749 8.68146 122.42 9.688 123.595 9.688C124.308 9.688 124.937 9.22666 125.146 8.55564C125.188 8.34594 125.23 8.09432 125.23 7.88462V6.62645H125.188Z" fill="#CBCBCB"/>
</svg>
