<svg width="73" height="16" viewBox="0 0 73 16" fill="none" xmlns="http://www.w3.org/2000/svg">
<path d="M9.42892 16V0L13.4318 2.22188V12.7355L9.42892 16Z" fill="#2782B4"/>
<path d="M4.31883 13.9517L7.56733 12.5119V2.35825L4.31883 1.37765V13.9517Z" fill="#2782B4"/>
<path d="M0 12.1398L2.45766 11.4819V3.4509L0 3.05369V12.1398Z" fill="#2782B4"/>
<path d="M23.2261 7.94428L26.6449 2.22202H28.4334V12.7356H26.7179V5.01488L23.1896 10.8364L19.6612 5.05212V12.7356H17.9457V2.22202H19.7707L23.2261 7.94428Z" fill="#2782B4"/>
<path fill-rule="evenodd" clip-rule="evenodd" d="M34.2006 12.7355L34.1884 11.7921C33.6774 12.5617 32.8379 12.9217 31.9376 12.9217C30.6236 12.9217 29.7111 12.0528 29.7111 10.7991C29.7111 9.43372 30.5627 8.61448 32.2661 8.35382L34.1397 8.05591V7.93178C34.1397 7.14978 33.5679 6.71533 32.5824 6.71533C31.6334 6.71533 30.8304 7.12495 30.1369 7.77042V6.06988C30.7696 5.54854 31.6456 5.20098 32.7041 5.20098C34.7237 5.20098 35.8187 6.25607 35.8187 8.00626V12.7355H34.2006ZM32.3512 11.5066C33.4097 11.5066 34.1519 10.7991 34.1519 9.79369V9.38407L32.5459 9.65715C31.7672 9.79369 31.3657 10.1412 31.3657 10.6626C31.3779 11.1963 31.7672 11.5066 32.3512 11.5066Z" fill="#2782B4"/>
<path d="M41.0266 6.97609C41.2456 6.97609 41.3916 6.9885 41.4646 7.03815H41.4768V5.27555C41.4403 5.23831 41.343 5.22589 41.1483 5.22589C40.1993 5.22589 39.3476 5.78447 38.9948 6.64095V5.37485H37.3158V12.7356H39.007V9.48346C39.007 7.96911 39.7735 6.97609 41.0266 6.97609Z" fill="#2782B4"/>
<path d="M42.5589 2.22202V12.7356H44.2501V9.8186L44.6273 9.47105L47.2066 12.7356H49.2993L45.9169 8.57733L49.0559 5.37485H46.9633L44.2501 8.1553V2.22202H42.5589Z" fill="#2782B4"/>
<path fill-rule="evenodd" clip-rule="evenodd" d="M52.9251 12.9217C54.008 12.9217 54.957 12.6238 55.7113 12.1397H55.6991V10.4392C54.8353 11.097 53.9471 11.4322 53.0346 11.4322C51.6841 11.4322 50.8568 10.6129 50.723 9.59509H56.0763C56.125 9.37166 56.125 9.23512 56.125 8.99928C56.125 6.82705 54.7623 5.20098 52.6575 5.20098C50.5405 5.20098 49.0318 6.83946 49.0318 9.04893C49.0318 11.2708 50.5405 12.9217 52.9251 12.9217ZM52.6331 6.60362C53.643 6.60362 54.3608 7.29874 54.4581 8.30416H50.7351C50.8446 7.43528 51.599 6.60362 52.6331 6.60362Z" fill="#2782B4"/>
<path d="M60.4198 11.3203C60.6997 11.3203 60.9917 11.2583 61.2107 11.0969V12.6485C60.9308 12.8098 60.505 12.9216 59.9088 12.9216C58.4488 12.9216 57.5972 12.0154 57.5972 10.4762V6.85173H56.3318L59.3127 2.97897V5.37462H61.2228V6.85173H59.3127V10.1535C59.3005 10.9852 59.6533 11.3203 60.4198 11.3203Z" fill="#2782B4"/>
<path fill-rule="evenodd" clip-rule="evenodd" d="M65.5778 12.9217C67.7922 12.9217 69.4225 11.2212 69.4225 9.06134C69.4225 6.88912 67.7922 5.20098 65.5778 5.20098C63.3635 5.20098 61.7332 6.90153 61.7332 9.06134C61.7332 11.2212 63.3635 12.9217 65.5778 12.9217ZM65.5778 11.3329C64.3733 11.3329 63.4243 10.3274 63.4243 9.06134C63.4243 7.79524 64.3733 6.78981 65.5778 6.78981C66.7823 6.78981 67.7313 7.79524 67.7313 9.06134C67.7313 10.3274 66.7823 11.3329 65.5778 11.3329Z" fill="#2782B4"/>
<path d="M69.4714 3.89756H70.7733V4.18305H70.2744V5.72223H69.9581V4.18305H69.4714V3.89756Z" fill="#2782B4"/>
<path d="M71.467 5.73464V4.39407L72.0267 5.22572H72.1727L72.708 4.39407V5.73464H73V3.89756H72.6837L72.0875 4.82852L71.4792 3.89756H71.1628V5.73464H71.467Z" fill="#2782B4"/>
</svg>
