<svg width="132" height="51" viewBox="0 0 132 51" fill="none" xmlns="http://www.w3.org/2000/svg">
<path d="M43.9598 32.3287C42.3755 33.8702 40.3201 34.5982 38.1363 34.5982C32.4413 34.5982 30.0005 30.6587 30.0005 26.6765C29.9577 22.6514 32.5697 18.5835 38.1363 18.5835C40.2345 18.5835 42.2042 19.3543 43.7886 20.9386L41.8617 22.8227C40.834 21.8378 39.5065 21.3668 38.1363 21.3668C34.411 21.3668 32.8266 24.1501 32.8266 26.7193C32.8694 29.2457 34.3253 31.9433 38.1363 31.9433C39.4637 31.9433 41.0052 31.3867 41.9901 30.4018L43.9598 32.3287Z" fill="#045F87"/>
<path d="M58.8615 18.9258V27.7467C58.8615 32.2856 56.0782 34.5979 52.2244 34.5979C48.5419 34.5979 45.416 32.3712 45.416 27.7467V18.9258H48.285V27.7467C48.285 30.53 49.8693 31.9859 52.2672 31.9859C54.6651 31.9859 56.0354 30.4015 56.0354 27.7467V18.9258H58.8615Z" fill="#045F87"/>
<path d="M75.3043 34.2557H71.8787L67.3826 29.1173H64.5993V34.2557H61.6875V18.8833C64.1282 18.8833 66.569 18.9261 69.0097 18.9261C72.6494 18.9689 74.5335 21.3669 74.5335 24.0217C74.5335 26.1199 73.5486 28.2609 70.6369 28.8603L75.3043 34.1272V34.2557ZM64.5993 21.581V26.5053H69.0097C70.851 26.5053 71.6646 25.2635 71.6646 24.0645C71.6646 22.8656 70.851 21.6238 69.0097 21.6238H64.5993V21.581Z" fill="#045F87"/>
<path d="M87.4214 31.3439H79.3713L78.0438 34.2557H74.918L81.812 18.8833H84.9807L91.8747 34.2557H88.706L87.4214 31.3439ZM83.3963 22.0948L80.5274 28.6462H86.2224L83.3963 22.0948Z" fill="#045F87"/>
<path d="M94.6159 21.5381H89.7344V18.8833C94.1876 18.8833 97.913 18.8833 102.366 18.8833V21.5381H97.4848V34.2557H94.573V21.5381H94.6159Z" fill="#045F87"/>
<path d="M115.64 34.2557H104.121C104.121 29.1601 104.121 24.0217 104.121 18.8833H115.64V21.7094H107.033V25.2635H115.34V27.9611H107.033V31.4295H115.64V34.2557Z" fill="#045F87"/>
<path d="M131.398 26.4196C131.483 30.3162 129.085 34.2557 123.733 34.2557C121.849 34.2557 119.579 34.2557 117.695 34.2557V18.8833C119.579 18.8833 121.849 18.8833 123.733 18.8833C128.957 18.8833 131.312 22.6515 131.398 26.4196ZM120.521 31.4724H123.69C127.201 31.4724 128.572 28.946 128.486 26.4196C128.4 24.0217 127.03 21.6238 123.69 21.6238H120.521V31.4724Z" fill="#045F87"/>
<path d="M41.5344 7.49262C41.4916 6.07956 41.4488 4.36676 41.4488 2.61115H41.406C41.0206 4.10984 40.5496 5.82264 40.0786 7.19288L38.6227 11.8174H36.5245L35.2399 7.2357C34.8545 5.86546 34.4692 4.15266 34.1694 2.61115H34.1266C34.041 4.19548 33.9982 6.03674 33.9125 7.49262L33.6984 11.9887H31.2148L31.9856 0.17041H35.5396L36.6958 4.10984C37.0812 5.48008 37.4237 6.93596 37.6806 8.34902H37.7235C38.0661 6.97878 38.4514 5.43726 38.8368 4.10984L40.1214 0.17041H43.6326L44.2749 11.9887H41.6629L41.5344 7.49262Z" fill="#0066CC"/>
<path d="M57.6343 5.99479C57.6343 9.89141 55.2791 12.2465 51.8107 12.2465C48.2995 12.2465 46.2441 9.59167 46.2441 6.20889C46.2441 2.65484 48.5136 0 51.982 0C55.6217 0 57.6343 2.74048 57.6343 5.99479ZM49.0703 6.16607C49.0703 8.47835 50.1408 10.1055 51.9392 10.1055C53.7377 10.1055 54.7653 8.39271 54.7653 6.08043C54.7653 3.93943 53.7377 2.141 51.8964 2.141C50.098 2.141 49.0703 3.85379 49.0703 6.16607Z" fill="#0066CC"/>
<path d="M59.7753 0.342369C60.4604 0.213909 61.9163 0.0854492 63.2437 0.0854492C64.8708 0.0854492 65.8985 0.256729 66.7549 0.770568C67.5685 1.19877 68.168 2.01235 68.168 3.08284C68.168 4.15334 67.5685 5.1382 66.1983 5.60922V5.65204C67.5685 6.03742 68.5534 7.02228 68.5534 8.5638C68.5534 9.6343 68.0823 10.4907 67.3116 11.0902C66.4552 11.7753 64.9993 12.1607 62.6442 12.1607C61.3168 12.1607 60.3319 12.075 59.7324 11.9894V0.342369H59.7753ZM62.4301 4.88128H63.2865C64.6996 4.88128 65.4275 4.2818 65.4275 3.4254C65.4275 2.52619 64.7424 2.05517 63.5434 2.05517C62.9439 2.05517 62.6442 2.09799 62.3873 2.14081V4.88128H62.4301ZM62.4301 10.1481C62.687 10.191 63.0296 10.191 63.4578 10.191C64.6567 10.191 65.7272 9.71994 65.7272 8.47816C65.7272 7.2792 64.6567 6.80818 63.3293 6.80818H62.4301V10.1481Z" fill="#0066CC"/>
<path d="M73.5219 0.213379V12.0317H70.8242V0.213379H73.5219Z" fill="#0066CC"/>
<path d="M76.2617 0.213379H78.9593V9.80505H83.6695V12.0317H76.2617V0.213379Z" fill="#0066CC"/>
<path d="M92.6612 7.02175H88.2935V9.84787H93.175V12.0317H85.6387V0.213379H92.9609V2.3972H88.3363V4.83793H92.704V7.02175H92.6612Z" fill="#0066CC"/>
<path d="M7 23L10 26L20 16" stroke="#0066CC" stroke-width="2" stroke-linecap="round" stroke-linejoin="round"/>
<path d="M19 24V31C19 31.5304 18.7893 32.0391 18.4142 32.4142C18.0391 32.7893 17.5304 33 17 33H3C2.46957 33 1.96086 32.7893 1.58579 32.4142C1.21071 32.0391 1 31.5304 1 31V17C1 16.4696 1.21071 15.9609 1.58579 15.5858C1.96086 15.2107 2.46957 15 3 15H14" stroke="#045F87" stroke-width="2" stroke-linecap="round" stroke-linejoin="round"/>
<path d="M32.4121 44.0303H32.9004C33.3789 44.0303 33.7321 43.9505 33.96 43.791C34.1878 43.6315 34.3018 43.3809 34.3018 43.0391C34.3018 42.7005 34.1846 42.4596 33.9502 42.3164C33.7191 42.1732 33.3594 42.1016 32.8711 42.1016H32.4121V44.0303ZM32.4121 45.2607V48H30.8984V40.8613H32.9785C33.9486 40.8613 34.6663 41.0387 35.1318 41.3936C35.5973 41.7451 35.8301 42.2806 35.8301 43C35.8301 43.4199 35.7145 43.7943 35.4834 44.123C35.2523 44.4486 34.9251 44.7041 34.502 44.8896C35.5762 46.4945 36.276 47.5312 36.6016 48H34.9219L33.2178 45.2607H32.4121ZM41.6113 48H37.5V40.8613H41.6113V42.1016H39.0137V43.6689H41.4307V44.9092H39.0137V46.75H41.6113V48ZM49.585 44.4209C49.585 45.2607 49.4352 45.9655 49.1357 46.5352C48.8395 47.1016 48.4033 47.5166 47.8271 47.7803L49.5459 49.6992H47.6074L46.2988 48.0977H46.1865C45.0928 48.0977 44.2529 47.7803 43.667 47.1455C43.0811 46.5107 42.7881 45.5993 42.7881 44.4111C42.7881 43.223 43.0811 42.3164 43.667 41.6914C44.2562 41.0632 45.0993 40.749 46.1963 40.749C47.2933 40.749 48.1315 41.0648 48.7109 41.6963C49.2936 42.3278 49.585 43.236 49.585 44.4209ZM44.375 44.4209C44.375 45.2184 44.5264 45.819 44.8291 46.2227C45.1318 46.6263 45.5843 46.8281 46.1865 46.8281C47.3942 46.8281 47.998 46.0257 47.998 44.4209C47.998 42.8128 47.3975 42.0088 46.1963 42.0088C45.5941 42.0088 45.14 42.2122 44.834 42.6191C44.528 43.0228 44.375 43.6234 44.375 44.4209ZM56.875 40.8613V45.4805C56.875 46.0078 56.7562 46.4701 56.5186 46.8672C56.2842 47.2643 55.944 47.5687 55.498 47.7803C55.0521 47.9919 54.5247 48.0977 53.916 48.0977C52.998 48.0977 52.2852 47.8633 51.7773 47.3945C51.2695 46.9225 51.0156 46.278 51.0156 45.4609V40.8613H52.5244V45.2314C52.5244 45.7816 52.6351 46.1852 52.8564 46.4424C53.0778 46.6995 53.444 46.8281 53.9551 46.8281C54.4499 46.8281 54.8079 46.6995 55.0293 46.4424C55.2539 46.182 55.3662 45.7751 55.3662 45.2217V40.8613H56.875ZM62.7344 48H58.623V40.8613H62.7344V42.1016H60.1367V43.6689H62.5537V44.9092H60.1367V46.75H62.7344V48ZM68.4424 46.0176C68.4424 46.6621 68.2096 47.1699 67.7441 47.541C67.2819 47.9121 66.6374 48.0977 65.8105 48.0977C65.0488 48.0977 64.375 47.9544 63.7891 47.668V46.2617C64.2708 46.4766 64.6777 46.6279 65.0098 46.7158C65.3451 46.8037 65.651 46.8477 65.9277 46.8477C66.2598 46.8477 66.5137 46.7842 66.6895 46.6572C66.8685 46.5303 66.958 46.3415 66.958 46.0908C66.958 45.9508 66.9189 45.8271 66.8408 45.7197C66.7627 45.609 66.6471 45.5033 66.4941 45.4023C66.3444 45.3014 66.0368 45.1403 65.5713 44.9189C65.1351 44.7139 64.8079 44.5169 64.5898 44.3281C64.3717 44.1393 64.1976 43.9196 64.0674 43.6689C63.9372 43.4183 63.8721 43.1253 63.8721 42.79C63.8721 42.1585 64.0853 41.6621 64.5117 41.3008C64.9414 40.9395 65.5339 40.7588 66.2891 40.7588C66.6602 40.7588 67.0133 40.8027 67.3486 40.8906C67.6872 40.9785 68.0404 41.1022 68.4082 41.2617L67.9199 42.4385C67.5391 42.2822 67.2233 42.1732 66.9727 42.1113C66.7253 42.0495 66.4811 42.0186 66.2402 42.0186C65.9538 42.0186 65.734 42.0853 65.5811 42.2188C65.4281 42.3522 65.3516 42.5264 65.3516 42.7412C65.3516 42.8747 65.3825 42.9919 65.4443 43.0928C65.5062 43.1904 65.6038 43.2865 65.7373 43.3809C65.874 43.472 66.1947 43.638 66.6992 43.8789C67.3665 44.1979 67.8239 44.5186 68.0713 44.8408C68.3187 45.1598 68.4424 45.5521 68.4424 46.0176ZM72.4902 48H70.9766V42.1211H69.0381V40.8613H74.4287V42.1211H72.4902V48ZM79.6387 48H75.5273V40.8613H79.6387V42.1016H77.041V43.6689H79.458V44.9092H77.041V46.75H79.6387V48ZM87.0557 44.3623C87.0557 45.5374 86.7204 46.4375 86.0498 47.0625C85.3825 47.6875 84.4173 48 83.1543 48H81.1328V40.8613H83.374C84.5394 40.8613 85.4443 41.1689 86.0889 41.7842C86.7334 42.3994 87.0557 43.2588 87.0557 44.3623ZM85.4834 44.4014C85.4834 42.8682 84.8063 42.1016 83.4521 42.1016H82.6465V46.75H83.2959C84.7542 46.75 85.4834 45.9671 85.4834 44.4014Z" fill="#045F87"/>
</svg>
