<svg width="132" height="35" viewBox="0 0 132 35" fill="none" xmlns="http://www.w3.org/2000/svg">
<path d="M43.7105 32.6422C42.1108 34.1987 40.0355 34.9337 37.8305 34.9337C32.0802 34.9337 29.6158 30.956 29.6158 26.9351C29.5725 22.871 32.2099 18.7637 37.8305 18.7637C39.949 18.7637 41.9379 19.5419 43.5376 21.1416L41.592 23.044C40.5543 22.0496 39.214 21.574 37.8305 21.574C34.069 21.574 32.4693 24.3843 32.4693 26.9784C32.5125 29.5293 33.9825 32.2531 37.8305 32.2531C39.1708 32.2531 40.7272 31.691 41.7216 30.6966L43.7105 32.6422Z" fill="white"/>
<path d="M58.7575 19.1089V28.0154C58.7575 32.5983 55.9472 34.933 52.0561 34.933C48.3378 34.933 45.1816 32.6848 45.1816 28.0154V19.1089H48.0784V28.0154C48.0784 30.8257 49.6781 32.2957 52.0993 32.2957C54.5205 32.2957 55.904 30.6959 55.904 28.0154V19.1089H58.7575Z" fill="white"/>
<path d="M75.3602 34.5874H71.9014L67.3616 29.3992H64.5513V34.5874H61.6113V19.0659C64.0757 19.0659 66.5401 19.1092 69.0046 19.1092C72.6796 19.1524 74.5819 21.5736 74.5819 24.2542C74.5819 26.3727 73.5875 28.5345 70.6475 29.1397L75.3602 34.4577V34.5874ZM64.5513 21.7897V26.7618H69.0046C70.8637 26.7618 71.6852 25.508 71.6852 24.2974C71.6852 23.0868 70.8637 21.833 69.0046 21.833H64.5513V21.7897Z" fill="white"/>
<path d="M87.5954 31.6474H79.4672L78.1269 34.5874H74.9707L81.9316 19.0659H85.131L92.0919 34.5874H88.8924L87.5954 31.6474ZM83.5313 22.3086L80.6345 28.9236H86.3848L83.5313 22.3086Z" fill="white"/>
<path d="M94.8585 21.7465H89.9297V19.0659C94.4262 19.0659 98.1876 19.0659 102.684 19.0659V21.7465H97.7553V34.5874H94.8153V21.7465H94.8585Z" fill="white"/>
<path d="M116.087 34.5874H104.457C104.457 29.4424 104.457 24.2542 104.457 19.0659H116.087V21.9194H107.397V25.508H115.785V28.2318H107.397V31.7339H116.087V34.5874Z" fill="white"/>
<path d="M131.997 26.6753C132.084 30.6097 129.663 34.5874 124.258 34.5874C122.356 34.5874 120.064 34.5874 118.162 34.5874V19.0659C120.064 19.0659 122.356 19.0659 124.258 19.0659C129.533 19.0659 131.911 22.8706 131.997 26.6753ZM121.016 31.7771H124.215C127.76 31.7771 129.144 29.2262 129.057 26.6753C128.971 24.2542 127.587 21.833 124.215 21.833H121.016V31.7771Z" fill="white"/>
<path fill-rule="evenodd" clip-rule="evenodd" d="M0.0432247 19.4131L0 15.8246C0 15.4355 0.216208 15.1328 0.518855 15.1328H3.02647C3.32912 15.1328 3.54533 15.4355 3.54533 15.7813L3.58855 19.3699C3.58855 19.759 3.37234 20.0616 3.0697 20.0616H0.56208C0.259433 20.0616 0.0432247 19.759 0.0432247 19.4131Z" fill="white"/>
<path fill-rule="evenodd" clip-rule="evenodd" d="M0.0432247 26.3311L0 22.7425C0 22.3534 0.216208 22.0508 0.518855 22.0508H3.02647C3.32912 22.0508 3.54533 22.3534 3.54533 22.6993L3.58855 26.2878C3.58855 26.677 3.37234 26.9796 3.0697 26.9796H0.56208C0.259433 26.9796 0.0432247 26.677 0.0432247 26.3311Z" fill="white"/>
<path fill-rule="evenodd" clip-rule="evenodd" d="M4.67018 19.3701L4.62695 15.7816C4.62695 15.3925 4.84311 15.0898 5.14576 15.0898H7.65342C7.95607 15.0898 8.17223 15.3925 8.17223 15.7384L8.21545 19.3269C8.21545 19.716 7.9993 20.0187 7.69665 20.0187H5.18898C4.88633 20.0187 4.67018 19.716 4.67018 19.3701Z" fill="white"/>
<path fill-rule="evenodd" clip-rule="evenodd" d="M9.16632 31.044L9.12305 27.4554C9.12305 27.0663 9.33926 26.7637 9.6419 26.7637H12.1495C12.4522 26.7637 12.6684 27.0663 12.6684 27.4122L12.7116 31.0007C12.7116 31.3898 12.4954 31.6925 12.1928 31.6925H9.68513C9.38248 31.7357 9.16632 31.4331 9.16632 31.044Z" fill="white"/>
<path fill-rule="evenodd" clip-rule="evenodd" d="M9.1233 25.2066L9.08008 21.618C9.08008 21.2289 9.29629 20.9263 9.59893 20.9263H12.1065C12.4092 20.9263 12.6254 21.2289 12.6254 21.5748L12.6686 25.1633C12.6686 25.5524 12.4524 25.8551 12.1498 25.8551H9.64216C9.33951 25.8551 9.1233 25.5524 9.1233 25.2066Z" fill="white"/>
<path fill-rule="evenodd" clip-rule="evenodd" d="M9.08033 19.3267L9.03711 15.7382C9.03711 15.349 9.25326 15.0464 9.55591 15.0464H12.0636C12.3662 15.0464 12.5824 15.349 12.5824 15.6949L12.6257 19.2834C12.6257 19.6726 12.4095 19.9752 12.1068 19.9752H9.59919C9.29654 20.0184 9.08033 19.7158 9.08033 19.3267Z" fill="white"/>
<path fill-rule="evenodd" clip-rule="evenodd" d="M13.5764 31L13.5332 27.4115C13.5332 27.0224 13.7494 26.7197 14.052 26.7197H16.5597C16.8623 26.7197 17.0785 27.0224 17.0785 27.3683L17.1217 30.9568C17.1217 31.3459 16.9055 31.6486 16.6029 31.6486H14.0952C13.7926 31.6918 13.5764 31.3891 13.5764 31Z" fill="white"/>
<path fill-rule="evenodd" clip-rule="evenodd" d="M13.5335 25.1631L13.4902 21.5746C13.4902 21.1855 13.7064 20.8828 14.009 20.8828H16.5167C16.8194 20.8828 17.0355 21.1855 17.0355 21.5313L17.0787 25.1199C17.0787 25.509 16.8626 25.8116 16.5599 25.8116H14.0523C13.7496 25.8116 13.5335 25.509 13.5335 25.1631Z" fill="white"/>
<path fill-rule="evenodd" clip-rule="evenodd" d="M13.4886 19.2832L13.4453 15.6947C13.4453 15.3056 13.6615 15.0029 13.9642 15.0029H16.4718C16.7744 15.0029 16.9906 15.3056 16.9906 15.6515L17.0339 19.24C17.0339 19.6291 16.8177 19.9318 16.5151 19.9318H14.0074C13.7047 19.975 13.4886 19.6723 13.4886 19.2832Z" fill="white"/>
<path fill-rule="evenodd" clip-rule="evenodd" d="M4.32447 13.3604L4.28125 9.77184C4.28125 9.38273 4.49741 9.08008 4.80005 9.08008H7.30772C7.61037 9.08008 7.82652 9.38273 7.82652 9.72861L7.8698 13.3171C7.8698 13.7063 7.65359 14.0089 7.35095 14.0089H4.84333C4.54068 14.0521 4.32447 13.7495 4.32447 13.3604Z" fill="white"/>
<path fill-rule="evenodd" clip-rule="evenodd" d="M9.03541 13.3169L8.99219 9.72839C8.99219 9.33927 9.20834 9.03662 9.51099 9.03662H12.0187C12.3213 9.03662 12.5375 9.33927 12.5375 9.68515L12.5807 13.2737C12.5807 13.6628 12.3645 13.9654 12.0619 13.9654H9.55421C9.25157 13.9654 9.03541 13.6628 9.03541 13.3169Z" fill="white"/>
<path fill-rule="evenodd" clip-rule="evenodd" d="M13.4456 13.2739L13.4023 9.68542C13.4023 9.2963 13.6186 8.99365 13.9212 8.99365H16.4288C16.7315 8.99365 16.9477 9.2963 16.9477 9.64218L16.9909 13.2307C16.9909 13.6198 16.7747 13.9225 16.472 13.9225H13.9644C13.6618 13.9225 13.4456 13.6198 13.4456 13.2739Z" fill="white"/>
<path fill-rule="evenodd" clip-rule="evenodd" d="M17.7698 25.1201L17.7266 21.5316C17.7266 21.1425 17.9428 20.8398 18.2454 20.8398H20.753C21.0557 20.8398 21.2719 21.1425 21.2719 21.4884L21.3151 25.0769C21.3151 25.466 21.0989 25.7687 20.7963 25.7687H18.2886C17.986 25.8119 17.7698 25.5093 17.7698 25.1201Z" fill="white"/>
<path fill-rule="evenodd" clip-rule="evenodd" d="M17.7268 19.2832L17.6836 15.6947C17.6836 15.3056 17.8997 15.0029 18.2024 15.0029H20.7101C21.0127 15.0029 21.2289 15.3056 21.2289 15.6515L21.2721 19.24C21.2721 19.6291 21.0559 19.9318 20.7533 19.9318H18.2457C17.943 19.9318 17.7268 19.6291 17.7268 19.2832Z" fill="white"/>
<path fill-rule="evenodd" clip-rule="evenodd" d="M17.6838 13.2305L17.6406 9.64196C17.6406 9.25284 17.8568 8.9502 18.1594 8.9502H20.6671C20.9697 8.9502 21.1859 9.25284 21.1859 9.59872L21.2291 13.1873C21.2291 13.5764 21.013 13.879 20.7103 13.879H18.2027C17.9 13.9223 17.6838 13.6196 17.6838 13.2305Z" fill="white"/>
<path d="M19.8341 22.9165L14.791 28.73L15.3789 29.24L20.422 23.4265L19.8341 22.9165Z" fill="white"/>
<path d="M19.3415 11.855L14.2969 17.667L14.8846 18.1771L19.9293 12.3652L19.3415 11.855Z" fill="white"/>
<path d="M40.2517 7.56706C40.2085 6.1403 40.1653 4.41089 40.1653 2.63824H40.1221C39.7329 4.15148 39.2574 5.88089 38.7818 7.26442L37.3118 11.9338H35.1932L33.8962 7.30765C33.507 5.92412 33.1179 4.19471 32.8153 2.63824H32.7721C32.6856 4.23795 32.6423 6.09706 32.5559 7.56706L32.3397 12.1068H29.832L30.6103 0.173828H34.1988L35.3662 4.15148C35.7553 5.53501 36.1011 7.00501 36.3606 8.43177H36.4038C36.7497 7.04824 37.1388 5.49177 37.5279 4.15148L38.825 0.173828H42.3703L43.0188 12.1068H40.3815L40.2517 7.56706Z" fill="white"/>
<path d="M56.5084 6.05294C56.5084 9.98736 54.1305 12.3653 50.6284 12.3653C47.0831 12.3653 45.0078 9.68471 45.0078 6.26912C45.0078 2.68059 47.2993 0 50.8014 0C54.4764 0 56.5084 2.76706 56.5084 6.05294ZM47.8614 6.22588C47.8614 8.56059 48.9422 10.2035 50.7581 10.2035C52.574 10.2035 53.6116 8.47412 53.6116 6.13941C53.6116 3.97765 52.574 2.16177 50.7149 2.16177C48.899 2.16177 47.8614 3.89118 47.8614 6.22588Z" fill="white"/>
<path d="M58.6702 0.345838C59.362 0.216132 60.832 0.0864258 62.1723 0.0864258C63.8152 0.0864258 64.8528 0.259367 65.7176 0.778191C66.539 1.21054 67.1443 2.03201 67.1443 3.1129C67.1443 4.19378 66.5391 5.18819 65.1555 5.66378V5.70702C66.5391 6.09613 67.5335 7.09054 67.5335 8.64702C67.5335 9.7279 67.0579 10.5926 66.2796 11.1979C65.4149 11.8897 63.9449 12.2788 61.567 12.2788C60.2267 12.2788 59.2322 12.1923 58.627 12.1058V0.345838H58.6702ZM61.3508 4.92878H62.2155C63.6423 4.92878 64.3773 4.32349 64.3773 3.45878C64.3773 2.55084 63.6855 2.07525 62.4749 2.07525C61.8696 2.07525 61.567 2.11848 61.3076 2.16172V4.92878H61.3508ZM61.3508 10.2467C61.6102 10.29 61.9561 10.29 62.3885 10.29C63.599 10.29 64.6799 9.81437 64.6799 8.56055C64.6799 7.34996 63.599 6.87437 62.2587 6.87437H61.3508V10.2467Z" fill="white"/>
<path d="M72.5481 0.216309V12.1493H69.8242V0.216309H72.5481Z" fill="white"/>
<path d="M75.3164 0.216309H78.0402V9.90102H82.7961V12.1493H75.3164V0.216309Z" fill="white"/>
<path d="M91.8738 7.09072H87.4638V9.94425H92.3927V12.1493H84.7832V0.216309H92.1765V2.42131H87.507V4.88572H91.917V7.09072H91.8738Z" fill="white"/>
</svg>
