<svg width="127" height="35" viewBox="0 0 127 35" fill="none" xmlns="http://www.w3.org/2000/svg">
<path d="M42.0555 32.6541C40.5164 34.1516 38.5197 34.8588 36.3982 34.8588C30.8657 34.8588 28.4946 31.0318 28.4946 27.1632C28.453 23.253 30.9905 19.3013 36.3982 19.3013C38.4365 19.3013 40.35 20.05 41.8891 21.5891L40.0172 23.4194C39.0189 22.4627 37.7293 22.0051 36.3982 22.0051C32.7792 22.0051 31.2401 24.709 31.2401 27.2048C31.2817 29.6591 32.696 32.2797 36.3982 32.2797C37.6877 32.2797 39.1852 31.739 40.142 30.7822L42.0555 32.6541Z" fill="#CBCBCB"/>
<path d="M56.5304 19.5918V28.1609C56.5304 32.5703 53.8266 34.8165 50.0828 34.8165C46.5054 34.8165 43.4688 32.6535 43.4688 28.1609V19.5918H46.2558V28.1609C46.2558 30.8648 47.7949 32.2791 50.1244 32.2791C52.4538 32.2791 53.785 30.74 53.785 28.1609V19.5918H56.5304Z" fill="#CBCBCB"/>
<path d="M72.5054 34.5254H69.1776L64.8098 29.5336H62.106V34.5254H59.2773V19.5918C61.6484 19.5918 64.0195 19.6334 66.3905 19.6334C69.9264 19.675 71.7566 22.0045 71.7566 24.5835C71.7566 26.6218 70.7999 28.7017 67.9713 29.2841L72.5054 34.4006V34.5254ZM62.106 22.2124V26.9962H66.3905C68.1792 26.9962 68.9696 25.7899 68.9696 24.6251C68.9696 23.4604 68.1792 22.254 66.3905 22.254H62.106V22.2124Z" fill="#CBCBCB"/>
<path d="M84.2774 31.6967H76.457L75.1675 34.5254H72.1309L78.8281 19.5918H81.9063L88.6035 34.5254H85.5253L84.2774 31.6967ZM80.3672 22.7116L77.5802 29.0761H83.1126L80.3672 22.7116Z" fill="#CBCBCB"/>
<path d="M91.3066 22.1294H86.5645V19.5503C90.8906 19.5503 94.5096 19.5503 98.8358 19.5503V22.1294H94.0936V34.4839H91.265V22.1294H91.3066Z" fill="#CBCBCB"/>
<path d="M111.69 34.5254H100.5C100.5 29.5752 100.5 24.5835 100.5 19.5918H111.69V22.3372H103.329V25.7898H111.399V28.4105H103.329V31.7799H111.69V34.5254Z" fill="#CBCBCB"/>
<path d="M126.997 26.913C127.08 30.6984 124.751 34.5254 119.551 34.5254C117.721 34.5254 115.516 34.5254 113.686 34.5254V19.5918C115.516 19.5918 117.721 19.5918 119.551 19.5918C124.626 19.5918 126.914 23.2108 126.997 26.913ZM116.431 31.8215H119.509C122.92 31.8215 124.251 29.3673 124.168 26.913C124.085 24.5835 122.754 22.254 119.509 22.254H116.431V31.8215Z" fill="#CBCBCB"/>
<path fill-rule="evenodd" clip-rule="evenodd" d="M0.0415977 19.8838L0 16.4312C0 16.0568 0.207988 15.7656 0.499172 15.7656H2.91184C3.20302 15.7656 3.41101 16.0568 3.41101 16.3896L3.45261 19.8422C3.45261 20.2166 3.24462 20.5078 2.95344 20.5078H0.54077C0.249586 20.5494 0.0415977 20.2582 0.0415977 19.8838Z" fill="#CBCBCB"/>
<path fill-rule="evenodd" clip-rule="evenodd" d="M0.0415977 26.5396L0 23.087C0 22.7126 0.207988 22.4214 0.499172 22.4214H2.91184C3.20302 22.4214 3.41101 22.7126 3.41101 23.0454L3.45261 26.498C3.45261 26.8723 3.24462 27.1635 2.95344 27.1635H0.54077C0.249586 27.2051 0.0415977 26.9139 0.0415977 26.5396Z" fill="#CBCBCB"/>
<path fill-rule="evenodd" clip-rule="evenodd" d="M4.49277 19.8423L4.45117 16.3897C4.45117 16.0153 4.65916 15.7241 4.95034 15.7241H7.36301C7.65419 15.7241 7.86218 16.0153 7.86218 16.3481L7.90378 19.8007C7.90378 20.1751 7.69579 20.4663 7.40461 20.4663H4.99194C4.70076 20.5079 4.49277 20.2167 4.49277 19.8423Z" fill="#CBCBCB"/>
<path fill-rule="evenodd" clip-rule="evenodd" d="M8.81894 31.1157L8.77734 27.6631C8.77734 27.2887 8.98533 26.9976 9.27652 26.9976H11.6892C11.9804 26.9976 12.1884 27.2887 12.1884 27.6215L12.23 31.0741C12.23 31.4485 12.022 31.7397 11.7308 31.7397H9.31811C9.02693 31.7397 8.81894 31.4485 8.81894 31.1157Z" fill="#CBCBCB"/>
<path fill-rule="evenodd" clip-rule="evenodd" d="M8.77793 25.458L8.73633 22.0054C8.73633 21.631 8.94432 21.3398 9.2355 21.3398H11.6482C11.9393 21.3398 12.1473 21.631 12.1473 21.9638L12.1889 25.4164C12.1889 25.7908 11.9809 26.082 11.6898 26.082H9.2771C8.98591 26.1236 8.77793 25.8324 8.77793 25.458Z" fill="#CBCBCB"/>
<path fill-rule="evenodd" clip-rule="evenodd" d="M8.73496 19.8423L8.69336 16.3897C8.69336 16.0153 8.90135 15.7241 9.19253 15.7241H11.6052C11.8964 15.7241 12.1044 16.0153 12.1044 16.3481L12.146 19.8007C12.146 20.1751 11.938 20.4663 11.6468 20.4663H9.23413C8.94295 20.4663 8.73496 20.1751 8.73496 19.8423Z" fill="#CBCBCB"/>
<path fill-rule="evenodd" clip-rule="evenodd" d="M13.0611 31.0737L13.0195 27.6211C13.0195 27.2468 13.2275 26.9556 13.5187 26.9556H15.9314C16.2226 26.9556 16.4305 27.2468 16.4305 27.5795L16.4721 31.0321C16.4721 31.4065 16.2641 31.6977 15.973 31.6977H13.5603C13.2691 31.6977 13.0611 31.4065 13.0611 31.0737Z" fill="#CBCBCB"/>
<path fill-rule="evenodd" clip-rule="evenodd" d="M13.0201 25.417L12.9785 21.9644C12.9785 21.59 13.1865 21.2988 13.4777 21.2988H15.8904C16.1815 21.2988 16.3895 21.59 16.3895 21.9228L16.4311 25.3754C16.4311 25.7498 16.2231 26.041 15.932 26.041H13.5193C13.2281 26.0826 13.0201 25.7914 13.0201 25.417Z" fill="#CBCBCB"/>
<path fill-rule="evenodd" clip-rule="evenodd" d="M12.9771 19.8013L12.9355 16.3487C12.9355 15.9743 13.1435 15.6831 13.4347 15.6831H15.8474C16.1386 15.6831 16.3466 15.9743 16.3466 16.3071L16.3882 19.7597C16.3882 20.1341 16.1802 20.4252 15.889 20.4252H13.4763C13.1851 20.4252 12.9771 20.1757 12.9771 19.8013Z" fill="#CBCBCB"/>
<path fill-rule="evenodd" clip-rule="evenodd" d="M4.15878 14.1016L4.11719 10.649C4.11719 10.2746 4.32518 9.9834 4.61636 9.9834H7.02902C7.32021 9.9834 7.5282 10.2746 7.5282 10.6074L7.56979 14.06C7.56979 14.4343 7.36181 14.7255 7.07062 14.7255H4.65796C4.36677 14.7255 4.15878 14.4343 4.15878 14.1016Z" fill="#CBCBCB"/>
<path fill-rule="evenodd" clip-rule="evenodd" d="M8.69394 14.0181L8.65234 10.5655C8.65234 10.1911 8.86033 9.8999 9.15152 9.8999H11.5642C11.8554 9.8999 12.0634 10.1911 12.0634 10.5239L12.105 13.9765C12.105 14.3509 11.897 14.642 11.6058 14.642H9.19311C8.90193 14.6836 8.69394 14.3925 8.69394 14.0181Z" fill="#CBCBCB"/>
<path fill-rule="evenodd" clip-rule="evenodd" d="M12.9361 13.9771L12.8945 10.5244C12.8945 10.1501 13.1025 9.85889 13.3937 9.85889H15.8064C16.0976 9.85889 16.3055 10.1501 16.3055 10.4829L16.3471 13.9355C16.3471 14.3098 16.1391 14.601 15.848 14.601H13.4353C13.1441 14.6426 12.9361 14.3514 12.9361 13.9771Z" fill="#CBCBCB"/>
<path fill-rule="evenodd" clip-rule="evenodd" d="M17.0963 25.417L17.0547 21.9644C17.0547 21.59 17.2627 21.2988 17.5539 21.2988H19.9665C20.2577 21.2988 20.4657 21.59 20.4657 21.9228L20.5073 25.3754C20.5073 25.7498 20.2993 26.041 20.0081 26.041H17.5955C17.3043 26.041 17.0963 25.7498 17.0963 25.417Z" fill="#CBCBCB"/>
<path fill-rule="evenodd" clip-rule="evenodd" d="M17.0553 19.7593L17.0137 16.3067C17.0137 15.9323 17.2217 15.6411 17.5128 15.6411H19.9255C20.2167 15.6411 20.4247 15.9323 20.4247 16.2651L20.4663 19.7177C20.4663 20.0921 20.2583 20.3832 19.9671 20.3832H17.5544C17.2633 20.4248 17.0553 20.1337 17.0553 19.7593Z" fill="#CBCBCB"/>
<path fill-rule="evenodd" clip-rule="evenodd" d="M17.0123 13.9771L16.9707 10.5244C16.9707 10.1501 17.1787 9.85889 17.4699 9.85889H19.8825C20.1737 9.85889 20.3817 10.1501 20.3817 10.4829L20.4233 13.9355C20.4233 14.3098 20.2153 14.601 19.9241 14.601H17.5115C17.2203 14.601 17.0123 14.3098 17.0123 13.9771Z" fill="#CBCBCB"/>
<path d="M19.0787 23.2886L14.2266 28.8818L14.7922 29.3725L19.6443 23.7792L19.0787 23.2886Z" fill="#CBCBCB"/>
<path d="M18.5665 12.6128L13.7129 18.2046L14.2783 18.6954L19.1319 13.1036L18.5665 12.6128Z" fill="#CBCBCB"/>
<path d="M29.1602 12.9365V0.582031H31.7392L34.9422 5.86494C35.7742 7.23767 36.4813 8.65198 37.0637 9.98311H37.1053C36.9389 8.3192 36.8973 6.7385 36.8973 4.8666V0.582031H38.9772V12.9365H36.6477L33.4447 7.52885C32.6544 6.15613 31.8224 4.6586 31.24 3.24428H31.1984C31.2816 4.82499 31.3232 6.4473 31.3232 8.48559V12.8949H29.1602V12.9365Z" fill="#CBCBCB"/>
<path d="M43.0537 9.10965C43.0953 10.732 44.3848 11.3975 45.7992 11.3975C46.8391 11.3975 47.5878 11.2311 48.2534 10.9815L48.5862 12.5207C47.8374 12.8119 46.7559 13.0614 45.4664 13.0614C42.5545 13.0614 40.8906 11.2727 40.8906 8.56889C40.8906 6.11463 42.3881 3.78516 45.2584 3.78516C48.1702 3.78516 49.0854 6.15622 49.0854 8.11131C49.0854 8.52729 49.0438 8.86007 49.0022 9.06805H43.0537V9.10965ZM46.9639 7.52895C46.9639 6.69699 46.6311 5.36586 45.1336 5.36586C43.7609 5.36586 43.1369 6.6138 43.0537 7.52895H46.9639Z" fill="#CBCBCB"/>
<path d="M53.4532 1.45605V3.99352H55.5747V5.65742H53.4532V9.6092C53.4532 10.6907 53.7444 11.2731 54.6179 11.2731C54.9923 11.2731 55.2835 11.2315 55.4915 11.1483L55.5331 12.8538C55.2003 12.9786 54.6179 13.0618 53.9108 13.0618C53.0788 13.0618 52.3716 12.7706 51.9557 12.3131C51.4981 11.8139 51.2485 10.9819 51.2485 9.81719V5.61582H49.959V3.95192H51.2485V1.95523L53.4532 1.45605Z" fill="#CBCBCB"/>
<path d="M58.7775 3.99268L59.6927 8.02764C59.9007 8.98439 60.1087 9.94114 60.275 10.9395H60.3166C60.483 9.98273 60.7742 8.98439 61.0654 8.06924L62.2301 3.99268H64.0604L65.1836 7.94446C65.4747 8.9844 65.6827 9.94114 65.8907 10.9395H65.9323C66.0987 9.98273 66.2651 8.9844 66.5147 7.94446L67.513 3.99268H69.7177L66.9307 12.8946H64.8508L63.7692 9.27557C63.4781 8.36042 63.3117 7.48688 63.1037 6.40534H63.0621C62.8957 7.48688 62.6461 8.40202 62.3965 9.27557L61.2734 12.8946H59.1519L56.5312 3.99268H58.7775Z" fill="#CBCBCB"/>
<path d="M79.3685 8.40289C79.3685 11.6891 77.0806 13.145 74.7927 13.145C72.2553 13.145 70.3418 11.3979 70.3418 8.56928C70.3418 5.65744 72.2553 3.82715 74.9591 3.82715C77.6214 3.82715 79.3685 5.69904 79.3685 8.40289ZM72.6713 8.48608C72.6713 10.1916 73.5032 11.5227 74.8759 11.5227C76.1655 11.5227 77.039 10.2748 77.039 8.48608C77.039 7.11336 76.4151 5.49106 74.8759 5.49106C73.2952 5.44946 72.6713 6.98856 72.6713 8.48608Z" fill="#CBCBCB"/>
<path d="M81.2414 6.90537C81.2414 5.69904 81.2414 4.82549 81.1582 4.03514H83.1133L83.1965 5.74063H83.2797C83.7373 4.4927 84.7772 3.82715 85.7339 3.82715C85.9419 3.82715 86.0667 3.82714 86.2747 3.86874V5.99022C86.1083 5.94862 85.9003 5.90703 85.6092 5.90703C84.5276 5.90703 83.7789 6.61418 83.6125 7.61253C83.5709 7.82052 83.5293 8.07011 83.5293 8.31969V12.937H81.283V6.90537H81.2414Z" fill="#CBCBCB"/>
<path d="M90.0172 7.94516C90.2668 7.61238 90.5163 7.1964 90.7659 6.90522L92.929 4.03498H95.6329L92.3466 7.69557L96.132 12.9785H93.3866L90.8075 9.0267L90.0588 9.94184V12.9785H87.8125V0H90.0588V7.94516H90.0172Z" fill="#CBCBCB"/>
<path d="M99.7093 1.53965C99.7093 2.20521 99.2102 2.74598 98.4198 2.74598C97.671 2.74598 97.1719 2.20521 97.1719 1.53965C97.1719 0.832485 97.671 0.333302 98.4198 0.333302C99.2102 0.291705 99.6677 0.832485 99.7093 1.53965ZM97.2967 12.9374V4.03551H99.5845V12.9374H97.2967Z" fill="#CBCBCB"/>
<path d="M101.997 6.65539C101.997 5.61545 101.997 4.7835 101.914 3.99314H103.911L104.036 5.32426H104.077C104.452 4.6171 105.45 3.78516 106.906 3.78516C108.445 3.78516 110.067 4.78349 110.067 7.61214V12.895H107.821V7.86172C107.821 6.5722 107.363 5.61545 106.115 5.61545C105.2 5.61545 104.576 6.23942 104.368 6.94658C104.285 7.15457 104.285 7.40415 104.285 7.69534V12.9366H101.997V6.65539Z" fill="#CBCBCB"/>
<path d="M120.593 3.99314C120.551 4.61711 120.51 5.32426 120.51 6.57219V11.6055C120.51 13.4774 120.135 14.8085 119.179 15.6405C118.263 16.4724 116.974 16.722 115.726 16.722C114.603 16.722 113.397 16.4724 112.606 16.0149L113.105 14.3094C113.688 14.6421 114.644 14.9749 115.684 14.9749C117.14 14.9749 118.263 14.2262 118.263 12.2711V11.5223H118.222C117.723 12.3127 116.808 12.8534 115.643 12.8534C113.438 12.8534 111.857 11.0231 111.857 8.48569C111.857 5.57385 113.771 3.78516 115.892 3.78516C117.265 3.78516 118.055 4.45071 118.471 5.15787H118.513L118.596 3.95154H120.593V3.99314ZM118.263 7.57055C118.263 7.36256 118.263 7.15457 118.18 6.94658C117.931 6.11463 117.307 5.49066 116.35 5.49066C115.102 5.49066 114.145 6.5722 114.145 8.4025C114.145 9.94161 114.894 11.1479 116.308 11.1479C117.14 11.1479 117.889 10.6072 118.139 9.77522C118.18 9.52563 118.222 9.23445 118.222 8.98487V7.57055H118.263Z" fill="#CBCBCB"/>
</svg>
