<svg width="129" height="51" viewBox="0 0 129 51" fill="none" xmlns="http://www.w3.org/2000/svg">
<path d="M43.5229 32.6031C41.9881 34.0963 39.9971 34.8015 37.8816 34.8015C32.3648 34.8015 30.0005 30.9854 30.0005 27.1277C29.959 23.2287 32.4893 19.2881 37.8816 19.2881C39.9142 19.2881 41.8222 20.0347 43.357 21.5695L41.4904 23.3946C40.4949 22.4405 39.209 21.9843 37.8816 21.9843C34.2729 21.9843 32.7382 24.6804 32.7382 27.1692C32.7796 29.6165 34.19 32.2298 37.8816 32.2298C39.1675 32.2298 40.6608 31.6905 41.6148 30.7365L43.5229 32.6031Z" fill="#045F87"/>
<path d="M57.9582 19.6201V28.1649C57.9582 32.5618 55.262 34.8017 51.5289 34.8017C47.9616 34.8017 44.9336 32.6448 44.9336 28.1649V19.6201H47.7127V28.1649C47.7127 30.8611 49.2475 32.2714 51.5703 32.2714C53.8932 32.2714 55.2206 30.7367 55.2206 28.1649V19.6201H57.9582Z" fill="#045F87"/>
<path d="M73.8859 34.4698H70.5675L66.2121 29.4923H63.5159V34.4698H60.6953V19.5786C63.0597 19.5786 65.424 19.6201 67.7883 19.6201C71.3141 19.6616 73.1392 21.9844 73.1392 24.5562C73.1392 26.5887 72.1852 28.6627 69.3646 29.2434L73.8859 34.3454V34.4698ZM63.5159 22.1918V26.962H67.7883C69.572 26.962 70.3601 25.7591 70.3601 24.5977C70.3601 23.4362 69.572 22.2333 67.7883 22.2333H63.5159V22.1918Z" fill="#045F87"/>
<path d="M85.5828 31.6907H77.7846L76.4987 34.5113H73.4707L80.1489 19.6201H83.2184L89.9381 34.4699H86.8687L85.5828 31.6907ZM81.7252 22.7311L78.946 29.0775H84.4628L81.7252 22.7311Z" fill="#045F87"/>
<path d="M92.5939 22.1504H87.8652V19.5786C92.1791 19.5786 95.7879 19.5786 100.102 19.5786V22.1504H95.3731V34.4698H92.5524V22.1504H92.5939Z" fill="#045F87"/>
<path d="M112.918 34.4698H101.76C101.76 29.5337 101.76 24.5562 101.76 19.5786H112.918V22.3163H104.58V25.7591H112.627V28.3723H104.58V31.7322H112.918V34.4698Z" fill="#045F87"/>
<path d="M128.184 26.9205C128.267 30.6952 125.944 34.5113 120.759 34.5113C118.934 34.5113 116.735 34.5113 114.91 34.5113V19.5786C116.735 19.5786 118.934 19.5786 120.759 19.5786C125.861 19.5786 128.142 23.2288 128.184 26.9205ZM117.689 31.7737H120.759C124.16 31.7737 125.487 29.3263 125.405 26.879C125.322 24.5562 123.994 22.2333 120.759 22.2333H117.689V31.7737Z" fill="#045F87"/>
<path d="M30.666 12.9416V0.663574H33.2378L36.4317 5.9315C37.2613 7.30033 37.9664 8.71064 38.5472 10.038H38.5057C38.3398 8.3788 38.2983 6.80257 38.2983 4.93598V0.663574H40.3723V12.983H38.0909L34.8969 7.59069C34.0674 6.22186 33.2792 4.68711 32.657 3.31828H32.6156C32.6985 4.89451 32.6985 6.55369 32.6985 8.54472V12.9416H30.666Z" fill="#03D8CD"/>
<path d="M44.4792 9.12532C44.5207 10.743 45.8066 11.4067 47.2169 11.4067C48.2539 11.4067 49.0005 11.2408 49.6642 10.9919L49.996 12.5267C49.2494 12.817 48.1709 13.0659 46.885 13.0659C43.9815 13.0659 42.3223 11.2823 42.3223 8.58609C42.3223 6.13878 43.8155 3.81592 46.6776 3.81592C49.5812 3.81592 50.4938 6.18026 50.4938 8.12981C50.4938 8.54461 50.4523 8.87644 50.4108 9.08384H44.4792V9.12532ZM48.3783 7.59057C48.3783 6.76098 48.0465 5.43363 46.5532 5.43363C45.1844 5.43363 44.5622 6.67802 44.4792 7.59057H48.3783Z" fill="#03D8CD"/>
<path d="M54.8905 1.53516V4.06542H57.006V5.72461H54.8905V9.66518C54.8905 10.7437 55.1809 11.3244 56.052 11.3244C56.4253 11.3244 56.7156 11.2829 56.923 11.1999L56.9645 12.9006C56.6327 13.025 56.052 13.108 55.3468 13.108C54.5172 13.108 53.8121 12.8176 53.3973 12.3614C52.941 11.8636 52.6921 11.034 52.6921 9.87258V5.76609H51.4062V4.1069H52.6921V2.07439L54.8905 1.53516Z" fill="#03D8CD"/>
<path d="M60.2008 4.06494L61.1134 8.08847C61.3208 9.04251 61.5282 9.99654 61.6941 10.9921H61.7356C61.9015 10.038 62.1919 9.04251 62.4822 8.12995L63.6437 4.06494H65.4688L66.5887 8.00551C66.8791 9.04251 67.0865 9.99654 67.2939 10.9921H67.3354C67.5013 10.038 67.6672 9.04251 67.9161 8.00551L68.9116 4.06494H71.11L68.3309 12.9416H66.2569L65.1784 9.33287C64.8881 8.42031 64.7221 7.54924 64.5147 6.47077H64.4733C64.3073 7.54924 64.0585 8.46179 63.8096 9.33287L62.6896 12.9416H60.5742L57.9609 4.06494H60.2008Z" fill="#03D8CD"/>
<path d="M80.7316 8.42068C80.7316 11.6976 78.4502 13.1494 76.1688 13.1494C73.6385 13.1494 71.7305 11.4072 71.7305 8.5866C71.7305 5.68302 73.6385 3.85791 76.3347 3.85791C78.9479 3.85791 80.7316 5.7245 80.7316 8.42068ZM74.0533 8.54512C74.0533 10.2458 74.8829 11.5731 76.2518 11.5731C77.5376 11.5731 78.4087 10.3287 78.4087 8.54512C78.4087 7.17629 77.7865 5.55858 76.2518 5.55858C74.6755 5.5171 74.0533 7.05185 74.0533 8.54512Z" fill="#03D8CD"/>
<path d="M82.5556 6.92741C82.5556 5.7245 82.5556 4.85342 82.4727 4.06531H84.4222L84.5052 5.76598H84.5881C85.0444 4.52159 86.0814 3.85791 87.0354 3.85791C87.2428 3.85791 87.3673 3.85791 87.5747 3.89939V6.01486C87.4087 5.97338 87.2013 5.9319 86.911 5.9319C85.8325 5.9319 85.0859 6.63705 84.92 7.63256C84.8785 7.83996 84.837 8.08884 84.837 8.33772V12.942H82.5971V6.92741H82.5556Z" fill="#03D8CD"/>
<path d="M91.3098 7.96411C91.5586 7.63227 91.8075 7.21747 92.0564 6.92711L94.2133 4.06501H96.9095L93.6326 7.71523L97.4073 12.9832H94.6696L92.0979 9.04258L91.3512 9.95513V12.9832H89.1113V0H91.3512V7.96411H91.3098Z" fill="#03D8CD"/>
<path d="M100.974 1.57645C100.974 2.24012 100.476 2.77936 99.6878 2.77936C98.9411 2.77936 98.4434 2.24012 98.4434 1.57645C98.4434 0.871292 98.9411 0.373535 99.6878 0.373535C100.517 0.373535 100.974 0.912771 100.974 1.57645ZM98.6093 12.9419V4.06523H100.891V12.9419H98.6093Z" fill="#03D8CD"/>
<path d="M103.255 6.72001C103.255 5.68302 103.255 4.85342 103.172 4.06531H105.163L105.287 5.39266H105.329C105.702 4.6875 106.698 3.85791 108.149 3.85791C109.684 3.85791 111.302 4.85342 111.302 7.67404V12.942H109.062V7.92292C109.062 6.63705 108.606 5.68302 107.361 5.68302C106.449 5.68302 105.827 6.30521 105.619 7.01037C105.536 7.21777 105.536 7.46665 105.536 7.757V12.9834H103.255V6.72001Z" fill="#03D8CD"/>
<path d="M121.838 4.06531C121.796 4.6875 121.755 5.39266 121.755 6.63705V11.6561C121.755 13.5227 121.381 14.85 120.427 15.6796C119.515 16.5092 118.229 16.7581 116.985 16.7581C115.865 16.7581 114.662 16.5092 113.874 16.0529L114.371 14.3523C114.952 14.6841 115.906 15.016 116.943 15.016C118.395 15.016 119.515 14.2693 119.515 12.3198V11.5731H119.473C118.976 12.3613 118.063 12.9005 116.902 12.9005C114.703 12.9005 113.127 11.0754 113.127 8.54512C113.127 5.64154 115.035 3.85791 117.15 3.85791C118.519 3.85791 119.307 4.52159 119.722 5.22674H119.764L119.847 4.02383H121.838V4.06531ZM119.515 7.63256C119.515 7.42517 119.515 7.21777 119.432 7.01037C119.183 6.18077 118.561 5.55858 117.607 5.55858C116.362 5.55858 115.408 6.63705 115.408 8.46216C115.408 9.99691 116.155 11.1998 117.565 11.1998C118.395 11.1998 119.142 10.6606 119.39 9.83099C119.432 9.58211 119.473 9.29175 119.473 9.04287V7.63256H119.515Z" fill="#03D8CD"/>
<path d="M7 23L10 26L20 16" stroke="#03D8CD" stroke-width="2" stroke-linecap="round" stroke-linejoin="round"/>
<path d="M19 24V31C19 31.5304 18.7893 32.0391 18.4142 32.4142C18.0391 32.7893 17.5304 33 17 33H3C2.46957 33 1.96086 32.7893 1.58579 32.4142C1.21071 32.0391 1 31.5304 1 31V17C1 16.4696 1.21071 15.9609 1.58579 15.5858C1.96086 15.2107 2.46957 15 3 15H14" stroke="#045F87" stroke-width="2" stroke-linecap="round" stroke-linejoin="round"/>
<path d="M32.4121 44.0303H32.9004C33.3789 44.0303 33.7321 43.9505 33.96 43.791C34.1878 43.6315 34.3018 43.3809 34.3018 43.0391C34.3018 42.7005 34.1846 42.4596 33.9502 42.3164C33.7191 42.1732 33.3594 42.1016 32.8711 42.1016H32.4121V44.0303ZM32.4121 45.2607V48H30.8984V40.8613H32.9785C33.9486 40.8613 34.6663 41.0387 35.1318 41.3936C35.5973 41.7451 35.8301 42.2806 35.8301 43C35.8301 43.4199 35.7145 43.7943 35.4834 44.123C35.2523 44.4486 34.9251 44.7041 34.502 44.8896C35.5762 46.4945 36.276 47.5312 36.6016 48H34.9219L33.2178 45.2607H32.4121ZM41.6113 48H37.5V40.8613H41.6113V42.1016H39.0137V43.6689H41.4307V44.9092H39.0137V46.75H41.6113V48ZM49.585 44.4209C49.585 45.2607 49.4352 45.9655 49.1357 46.5352C48.8395 47.1016 48.4033 47.5166 47.8271 47.7803L49.5459 49.6992H47.6074L46.2988 48.0977H46.1865C45.0928 48.0977 44.2529 47.7803 43.667 47.1455C43.0811 46.5107 42.7881 45.5993 42.7881 44.4111C42.7881 43.223 43.0811 42.3164 43.667 41.6914C44.2562 41.0632 45.0993 40.749 46.1963 40.749C47.2933 40.749 48.1315 41.0648 48.7109 41.6963C49.2936 42.3278 49.585 43.236 49.585 44.4209ZM44.375 44.4209C44.375 45.2184 44.5264 45.819 44.8291 46.2227C45.1318 46.6263 45.5843 46.8281 46.1865 46.8281C47.3942 46.8281 47.998 46.0257 47.998 44.4209C47.998 42.8128 47.3975 42.0088 46.1963 42.0088C45.5941 42.0088 45.14 42.2122 44.834 42.6191C44.528 43.0228 44.375 43.6234 44.375 44.4209ZM56.875 40.8613V45.4805C56.875 46.0078 56.7562 46.4701 56.5186 46.8672C56.2842 47.2643 55.944 47.5687 55.498 47.7803C55.0521 47.9919 54.5247 48.0977 53.916 48.0977C52.998 48.0977 52.2852 47.8633 51.7773 47.3945C51.2695 46.9225 51.0156 46.278 51.0156 45.4609V40.8613H52.5244V45.2314C52.5244 45.7816 52.6351 46.1852 52.8564 46.4424C53.0778 46.6995 53.444 46.8281 53.9551 46.8281C54.4499 46.8281 54.8079 46.6995 55.0293 46.4424C55.2539 46.182 55.3662 45.7751 55.3662 45.2217V40.8613H56.875ZM62.7344 48H58.623V40.8613H62.7344V42.1016H60.1367V43.6689H62.5537V44.9092H60.1367V46.75H62.7344V48ZM68.4424 46.0176C68.4424 46.6621 68.2096 47.1699 67.7441 47.541C67.2819 47.9121 66.6374 48.0977 65.8105 48.0977C65.0488 48.0977 64.375 47.9544 63.7891 47.668V46.2617C64.2708 46.4766 64.6777 46.6279 65.0098 46.7158C65.3451 46.8037 65.651 46.8477 65.9277 46.8477C66.2598 46.8477 66.5137 46.7842 66.6895 46.6572C66.8685 46.5303 66.958 46.3415 66.958 46.0908C66.958 45.9508 66.9189 45.8271 66.8408 45.7197C66.7627 45.609 66.6471 45.5033 66.4941 45.4023C66.3444 45.3014 66.0368 45.1403 65.5713 44.9189C65.1351 44.7139 64.8079 44.5169 64.5898 44.3281C64.3717 44.1393 64.1976 43.9196 64.0674 43.6689C63.9372 43.4183 63.8721 43.1253 63.8721 42.79C63.8721 42.1585 64.0853 41.6621 64.5117 41.3008C64.9414 40.9395 65.5339 40.7588 66.2891 40.7588C66.6602 40.7588 67.0133 40.8027 67.3486 40.8906C67.6872 40.9785 68.0404 41.1022 68.4082 41.2617L67.9199 42.4385C67.5391 42.2822 67.2233 42.1732 66.9727 42.1113C66.7253 42.0495 66.4811 42.0186 66.2402 42.0186C65.9538 42.0186 65.734 42.0853 65.5811 42.2188C65.4281 42.3522 65.3516 42.5264 65.3516 42.7412C65.3516 42.8747 65.3825 42.9919 65.4443 43.0928C65.5062 43.1904 65.6038 43.2865 65.7373 43.3809C65.874 43.472 66.1947 43.638 66.6992 43.8789C67.3665 44.1979 67.8239 44.5186 68.0713 44.8408C68.3187 45.1598 68.4424 45.5521 68.4424 46.0176ZM72.4902 48H70.9766V42.1211H69.0381V40.8613H74.4287V42.1211H72.4902V48ZM79.6387 48H75.5273V40.8613H79.6387V42.1016H77.041V43.6689H79.458V44.9092H77.041V46.75H79.6387V48ZM87.0557 44.3623C87.0557 45.5374 86.7204 46.4375 86.0498 47.0625C85.3825 47.6875 84.4173 48 83.1543 48H81.1328V40.8613H83.374C84.5394 40.8613 85.4443 41.1689 86.0889 41.7842C86.7334 42.3994 87.0557 43.2588 87.0557 44.3623ZM85.4834 44.4014C85.4834 42.8682 84.8063 42.1016 83.4521 42.1016H82.6465V46.75H83.2959C84.7542 46.75 85.4834 45.9671 85.4834 44.4014Z" fill="#045F87"/>
</svg>
