<svg width="1295" height="21" viewBox="0 0 1295 21" fill="none" xmlns="http://www.w3.org/2000/svg">
<path d="M1294.01 11.5077H675.233V17.453H668.926V18.1483L665.467 21H655V0H665.467L668.916 2.88196V3.5571H675.223V9.5024H1294V11.5077H1294.01ZM666.881 3.8191L664.725 2.01536H657.034V18.9846H664.725L666.881 17.2011V3.8191ZM673.199 5.56238H668.926V15.4376H673.199V5.56238Z" fill="#CBCBCB"/>
<path d="M647 12.1367V14.1511H640.968V21H630.501L627.042 18.1496V17.4547H620.735V11.5122H0V9.49784H620.735V3.5554H627.042V2.88058L630.49 0H640.968V6.84892H647V8.86331H640.968V12.1367H647ZM622.77 5.56978V15.4403H627.042V5.56978H622.77ZM638.933 2.02446H631.243L629.087 3.82734V17.2029L631.243 18.9856H638.933V2.02446Z" fill="#CBCBCB"/>
</svg>
