<svg width="13" height="14" viewBox="0 0 13 14" fill="none" xmlns="http://www.w3.org/2000/svg">
<path d="M11.529 6.54102L11.529 1.22173C11.529 1.07172 11.5856 0.939859 11.6922 0.8333L11.7982 0.939365L11.6922 0.833299C11.7987 0.726741 11.9306 0.670145 12.0806 0.670145C12.1822 0.670145 12.2778 0.695968 12.3625 0.750441L12.2814 0.876617L12.3625 0.750442C12.4391 0.799709 12.5026 0.863183 12.5519 0.939824C12.6064 1.02456 12.6322 1.12011 12.6322 1.22173L12.6322 13.2693C12.6322 13.4193 12.5756 13.5512 12.469 13.6577C12.3625 13.7643 12.2306 13.8209 12.0806 13.8209C11.9306 13.8209 11.7987 13.7643 11.6922 13.6577C11.5856 13.5512 11.529 13.4193 11.529 13.2693L11.529 7.95002C11.4881 7.98645 11.4433 8.01994 11.3946 8.0504L11.3929 8.05142L11.3929 8.05141L2.15809 13.6601C2.15781 13.6602 2.15754 13.6604 2.15726 13.6606C2.00099 13.758 1.83168 13.8083 1.65191 13.8083C1.48504 13.8083 1.32949 13.7688 1.18845 13.6882L1.18802 13.6879L1.18802 13.6879C0.86716 13.5032 0.698785 13.2204 0.698733 12.8553L11.529 6.54102ZM11.529 6.54102C11.4881 6.50459 11.4433 6.4711 11.3946 6.44065L11.3946 6.44063L11.3929 6.43959L2.14554 0.83099C2.14524 0.830804 2.14495 0.830618 2.14465 0.830432C2.06716 0.782105 1.986 0.745075 1.9013 0.720162C1.81622 0.69514 1.72875 0.682693 1.63936 0.682693C1.4725 0.682693 1.31694 0.722259 1.1759 0.802854L1.17548 0.803097C0.854562 0.987863 0.686184 1.27075 0.686183 1.63587L0.686184 1.63603L0.698733 12.8552L11.529 6.54102ZM1.78965 1.90246L10.5993 7.24561L1.80161 12.5888L1.78965 1.90246Z" fill="#FC9200" stroke="#FC9200" stroke-width="0.3"/>
</svg>
