<svg width="37" height="36" viewBox="0 0 37 36" fill="none" xmlns="http://www.w3.org/2000/svg">
<path d="M18.8378 6.82759C17.7826 6.82759 16.9757 6.05577 16.9757 5.04648V1.78111C16.9757 0.771814 17.7826 0 18.8378 0C19.8929 0 20.6998 0.771814 20.6998 1.78111V5.04648C20.6998 5.9964 19.8929 6.82759 18.8378 6.82759Z" fill="#FC9000" fill-opacity="0.25"/>
<path d="M18.8378 35.9999C17.7826 35.9999 16.9757 35.2281 16.9757 34.2188V30.9535C16.9757 29.9442 17.7826 29.1724 18.8378 29.1724C19.8929 29.1724 20.6998 29.9442 20.6998 30.9535V34.2188C20.6998 35.2281 19.8929 35.9999 18.8378 35.9999Z" fill="#FC9000" fill-opacity="0.85"/>
<path d="M12.1632 8.68981C11.5901 8.68981 11.017 8.39927 10.6731 7.8182L9.12557 5.08716C8.66705 4.27366 8.95362 3.16962 9.75603 2.70476C10.5584 2.2399 11.6474 2.53044 12.1059 3.34394L13.6534 6.07498C14.1119 6.88848 13.8254 7.99252 13.023 8.45738C12.7937 8.57359 12.4498 8.68981 12.1632 8.68981Z" fill="#FC9000" fill-opacity="0.15"/>
<path d="M27.0599 33.5174C26.4867 33.5174 25.9136 33.2269 25.5697 32.6458L24.0222 29.9148C23.5637 29.1013 23.8502 27.9973 24.6526 27.5324C25.455 27.0675 26.544 27.3581 27.0025 28.1716L28.55 30.9026C29.0086 31.7161 28.722 32.8202 27.9196 33.285C27.633 33.4593 27.3464 33.5174 27.0599 33.5174Z" fill="#FC9000" fill-opacity="0.75"/>
<path d="M7.79186 13.0344C7.50082 13.0344 7.20979 12.9772 6.91876 12.8056L4.18306 11.2613C3.36817 10.8038 3.07714 9.71708 3.54279 8.91636C4.00844 8.11563 5.11436 7.82966 5.92925 8.28722L8.66495 9.83147C9.47984 10.289 9.77087 11.3757 9.30522 12.1764C8.95598 12.7484 8.37392 13.0344 7.79186 13.0344Z" fill="#FC9000" fill-opacity="0.1"/>
<path d="M32.6776 27.9308C32.3865 27.9308 32.0955 27.8737 31.8045 27.7021L29.0106 26.1578C28.1957 25.7003 27.9047 24.6136 28.3703 23.8128C28.836 23.0121 29.9419 22.7261 30.7568 23.1837L33.4925 24.728C34.3074 25.1855 34.5984 26.2722 34.1327 27.0729C33.8417 27.6449 33.2596 27.9308 32.6776 27.9308Z" fill="#FC9000" fill-opacity="0.65"/>
<path d="M5.88425 19.8618H2.61888C1.60958 19.8618 0.837769 19.0549 0.837769 17.9998C0.837769 16.9446 1.60958 16.1377 2.61888 16.1377H5.88425C6.89354 16.1377 7.66535 16.9446 7.66535 17.9998C7.66535 19.0549 6.83417 19.8618 5.88425 19.8618Z" fill="#FC9000" fill-opacity="0.05"/>
<path d="M35.0566 19.8618H31.7912C30.7819 19.8618 30.0101 19.0549 30.0101 17.9998C30.0101 16.9446 30.7819 16.1377 31.7912 16.1377H35.0566C36.0659 16.1377 36.8377 16.9446 36.8377 17.9998C36.8377 19.0549 36.0659 19.8618 35.0566 19.8618Z" fill="#FC9000" fill-opacity="0.55"/>
<path d="M4.43543 27.9308C3.85336 27.9308 3.2713 27.6449 2.92206 27.0729C2.45641 26.2722 2.74744 25.1855 3.56233 24.728L6.29803 23.1837C7.11292 22.7261 8.21884 23.0121 8.68449 23.8128C9.15015 24.6136 8.85911 25.7003 8.04422 26.1578L5.30852 27.7021C5.0757 27.8737 4.78467 27.9308 4.43543 27.9308Z" fill="#FC9000"/>
<path d="M29.8837 13.0344C29.3016 13.0344 28.7195 12.7484 28.3703 12.1764C27.9047 11.3757 28.1957 10.289 29.0106 9.83147L31.7463 8.28722C32.5612 7.82966 33.6671 8.11563 34.1327 8.91636C34.5984 9.71708 34.3074 10.8038 33.4925 11.2613L30.7568 12.8056C30.4657 12.9772 30.1747 13.0344 29.8837 13.0344Z" fill="#FC9000" fill-opacity="0.45"/>
<path d="M10.6157 33.5174C10.3292 33.5174 10.0426 33.4593 9.75603 33.285C8.95362 32.8202 8.66705 31.7161 9.12557 30.9026L10.6731 28.1716C11.1316 27.3581 12.2206 27.0675 13.023 27.5324C13.8254 27.9973 14.1119 29.1013 13.6534 29.9148L12.1059 32.6458C11.762 33.2269 11.1889 33.5174 10.6157 33.5174Z" fill="#FC9000" fill-opacity="0.95"/>
<path d="M25.5124 8.68981C25.2258 8.68981 24.9392 8.6317 24.6526 8.45738C23.8502 7.99252 23.5637 6.88848 24.0222 6.07498L25.5697 3.34394C26.0282 2.53044 27.1172 2.2399 27.9196 2.70476C28.722 3.16962 29.0086 4.27366 28.55 5.08716L27.0025 7.8182C26.6587 8.34116 26.0855 8.68981 25.5124 8.68981Z" fill="#FC9000" fill-opacity="0.35"/>
</svg>
