<svg width="13" height="12" viewBox="0 0 13 12" fill="none" xmlns="http://www.w3.org/2000/svg">
<path d="M10.4 0H2.6V2.66667H10.4V0ZM11.05 6C10.8776 6 10.7123 5.92976 10.5904 5.80474C10.4685 5.67971 10.4 5.51014 10.4 5.33333C10.4 5.15652 10.4685 4.98695 10.5904 4.86193C10.7123 4.7369 10.8776 4.66667 11.05 4.66667C11.2224 4.66667 11.3877 4.7369 11.5096 4.86193C11.6315 4.98695 11.7 5.15652 11.7 5.33333C11.7 5.51014 11.6315 5.67971 11.5096 5.80474C11.3877 5.92976 11.2224 6 11.05 6ZM9.1 10.6667H3.9V7.33333H9.1V10.6667ZM11.05 3.33333H1.95C1.43283 3.33333 0.936838 3.54405 0.571142 3.91912C0.205446 4.29419 0 4.8029 0 5.33333V9.33333H2.6V12H10.4V9.33333H13V5.33333C13 4.8029 12.7946 4.29419 12.4289 3.91912C12.0632 3.54405 11.5672 3.33333 11.05 3.33333Z" fill="#FC9200"/>
</svg>
