<svg width="7" height="7" viewBox="0 0 7 7" fill="none" xmlns="http://www.w3.org/2000/svg">
<path d="M6.8211 0.165789C6.71101 0.0552632 6.57339 0 6.40826 0C6.24312 0 6.1055 0.0552632 5.99541 0.165789L3.5 2.67105L1.00459 0.165789C0.894495 0.0552632 0.756881 0 0.591743 0C0.426605 0 0.288991 0.0552632 0.178899 0.165789C0.0688073 0.276316 0.0137615 0.414474 0.0137615 0.580263C0.0137615 0.746053 0.0688073 0.88421 0.178899 0.994737L2.67431 3.5L0.178899 6.00526C0.105505 6.07895 0.0535168 6.16491 0.0229358 6.26316C-0.00764526 6.3614 -0.00764526 6.46272 0.0229358 6.5671C0.0535168 6.67149 0.105505 6.76053 0.178899 6.83421C0.288991 6.94474 0.426605 7 0.591743 7C0.756881 7 0.894495 6.94474 1.00459 6.83421L3.5 4.32895L5.99541 6.83421C6.1055 6.94474 6.24312 7 6.40826 7C6.57339 7 6.71101 6.94474 6.8211 6.83421C6.8945 6.76053 6.94648 6.67149 6.97706 6.5671C7.00765 6.46272 7.00765 6.3614 6.97706 6.26316C6.94648 6.16491 6.8945 6.07895 6.8211 6.00526L4.32569 3.5L6.8211 0.994737C6.93119 0.88421 6.98624 0.746053 6.98624 0.580263C6.98624 0.414474 6.93119 0.276316 6.8211 0.165789Z" fill="#818891"/>
</svg>
