<svg width="13" height="16" viewBox="0 0 13 16" fill="none" xmlns="http://www.w3.org/2000/svg">
<path d="M11.1943 2.68945H8.61621V2.2207C8.61621 1.4453 7.98536 0.814453 7.20996 0.814453H5.33496C4.55956 0.814453 3.92871 1.4453 3.92871 2.2207V2.68945H1.35059C0.704414 2.68945 0.178711 3.21516 0.178711 3.86133V5.50195C0.178711 5.76082 0.388594 5.9707 0.647461 5.9707H0.903633L1.3086 14.4751C1.34438 15.2261 1.96137 15.8145 2.71324 15.8145H9.83168C10.5836 15.8145 11.2006 15.2261 11.2363 14.4751L11.6413 5.9707H11.8975C12.1563 5.9707 12.3662 5.76082 12.3662 5.50195V3.86133C12.3662 3.21516 11.8405 2.68945 11.1943 2.68945ZM4.86621 2.2207C4.86621 1.96225 5.0765 1.75195 5.33496 1.75195H7.20996C7.46842 1.75195 7.67871 1.96225 7.67871 2.2207V2.68945H4.86621V2.2207ZM1.11621 3.86133C1.11621 3.7321 1.22136 3.62695 1.35059 3.62695H11.1943C11.3236 3.62695 11.4287 3.7321 11.4287 3.86133V5.0332C11.2842 5.0332 1.71483 5.0332 1.11621 5.0332V3.86133ZM10.2999 14.4305C10.2879 14.6808 10.0823 14.877 9.83168 14.877H2.71324C2.46261 14.877 2.25694 14.6808 2.24505 14.4305L1.84219 5.9707H10.7027L10.2999 14.4305Z" fill="#FF4C00"/>
<path d="M6.27246 13.9395C6.53133 13.9395 6.74121 13.7296 6.74121 13.4707V7.37695C6.74121 7.11809 6.53133 6.9082 6.27246 6.9082C6.01359 6.9082 5.80371 7.11809 5.80371 7.37695V13.4707C5.80371 13.7296 6.01356 13.9395 6.27246 13.9395Z" fill="#FF4C00"/>
<path d="M8.61621 13.9395C8.87508 13.9395 9.08496 13.7296 9.08496 13.4707V7.37695C9.08496 7.11809 8.87508 6.9082 8.61621 6.9082C8.35734 6.9082 8.14746 7.11809 8.14746 7.37695V13.4707C8.14746 13.7296 8.35731 13.9395 8.61621 13.9395Z" fill="#FF4C00"/>
<path d="M3.92871 13.9395C4.18758 13.9395 4.39746 13.7296 4.39746 13.4707V7.37695C4.39746 7.11809 4.18758 6.9082 3.92871 6.9082C3.66984 6.9082 3.45996 7.11809 3.45996 7.37695V13.4707C3.45996 13.7296 3.66981 13.9395 3.92871 13.9395Z" fill="#FF4C00"/>
</svg>
