<svg width="127" height="36" viewBox="0 0 127 36" fill="none" xmlns="http://www.w3.org/2000/svg">
<path d="M41.8392 33.1069C40.308 34.5967 38.3216 35.3002 36.211 35.3002C30.707 35.3002 28.3481 31.4929 28.3481 27.6443C28.3068 23.7542 30.8725 19.8228 36.211 19.8228C38.2388 19.8228 40.1425 20.5677 41.6737 22.0989L39.8114 23.9197C38.8182 22.9679 37.5353 22.5127 36.211 22.5127C32.6106 22.5127 31.0795 25.2026 31.0795 27.6856C31.1208 30.1273 32.5279 32.7344 36.211 32.7344C37.4939 32.7344 38.9837 32.1965 39.9355 31.2446L41.8392 33.1069Z" fill="#045F87"/>
<path d="M56.2406 20.1533V28.6783C56.2406 33.065 53.5506 35.2997 49.8261 35.2997C46.2671 35.2997 43.2461 33.1478 43.2461 28.6783V20.1533H46.0188V28.6783C46.0188 31.3683 47.55 32.7753 49.8675 32.7753C52.185 32.7753 53.5093 31.2441 53.5093 28.6783V20.1533H56.2406Z" fill="#045F87"/>
<path d="M72.1307 34.969H68.82L64.4747 30.003H61.7848V34.969H58.9707V20.1123C61.3296 20.1123 63.6885 20.1537 66.0473 20.1537C69.5649 20.1951 71.3858 22.5126 71.3858 25.0783C71.3858 27.1061 70.434 29.1753 67.6199 29.7547L72.1307 34.8449V34.969ZM61.7848 22.7609V27.52H66.0473C67.8268 27.52 68.6131 26.3198 68.6131 25.1611C68.6131 24.0024 67.8268 22.8022 66.0473 22.8022H61.7848V22.7609Z" fill="#045F87"/>
<path d="M83.8438 32.1959H76.0637L74.7808 35.01H71.7598L78.4225 20.1533H81.4849L88.1477 35.01H85.0853L83.8438 32.1959ZM79.9537 23.2571L77.181 29.5888H82.6851L79.9537 23.2571Z" fill="#045F87"/>
<path d="M90.8368 22.6781H86.1191V20.1123C90.423 20.1123 94.0234 20.1123 98.3273 20.1123V22.6781H93.6096V34.969H90.7955V22.6781H90.8368Z" fill="#045F87"/>
<path d="M111.115 34.969H99.9824C99.9824 30.0444 99.9824 25.0783 99.9824 20.1123H111.115V22.8436H102.796V26.2785H110.825V28.8856H102.796V32.2377H111.115V34.969Z" fill="#045F87"/>
<path d="M126.344 27.4368C126.427 31.2027 124.11 35.01 118.937 35.01C117.116 35.01 114.922 35.01 113.102 35.01V20.1533C114.922 20.1533 117.116 20.1533 118.937 20.1533C123.985 20.1533 126.262 23.7537 126.344 27.4368ZM115.833 32.2787H118.895C122.289 32.2787 123.613 29.8371 123.53 27.3955C123.447 25.078 122.123 22.7605 118.895 22.7605H115.833V32.2787Z" fill="#045F87"/>
<path fill-rule="evenodd" clip-rule="evenodd" d="M0.0413735 20.4437L0 17.0088C0 16.6364 0.206923 16.3467 0.496608 16.3467H2.89685C3.18654 16.3467 3.39346 16.6364 3.39346 16.9674L3.43484 20.4023C3.43484 20.7747 3.22791 21.0644 2.93823 21.0644H0.537982C0.248297 21.0644 0.0413735 20.8161 0.0413735 20.4437Z" fill="#E2A6D6"/>
<path fill-rule="evenodd" clip-rule="evenodd" d="M0.0413735 27.0652L0 23.6304C0 23.2579 0.206923 22.9683 0.496608 22.9683H2.89685C3.18654 22.9683 3.39346 23.2579 3.39346 23.589L3.43484 27.0239C3.43484 27.3963 3.22791 27.686 2.93823 27.686H0.537982C0.248297 27.7274 0.0413735 27.4377 0.0413735 27.0652Z" fill="#E2A6D6"/>
<path fill-rule="evenodd" clip-rule="evenodd" d="M4.46911 20.4022L4.42773 16.9673C4.42773 16.5949 4.63463 16.3052 4.92432 16.3052H7.32459C7.61427 16.3052 7.82117 16.5949 7.82117 16.9259L7.86257 20.3608C7.86257 20.7332 7.65565 21.0229 7.36596 21.0229H4.96572C4.67603 21.0643 4.46911 20.7746 4.46911 20.4022Z" fill="#045F87"/>
<path fill-rule="evenodd" clip-rule="evenodd" d="M8.77382 31.5755L8.73242 28.1407C8.73242 27.7682 8.93935 27.4785 9.22903 27.4785H11.6293C11.919 27.4785 12.1259 27.7682 12.1259 28.0993L12.1673 31.5341C12.1673 31.9066 11.9604 32.1962 11.6707 32.1962H9.2704C8.98072 32.2376 8.77382 31.9479 8.77382 31.5755Z" fill="#E2A6D6"/>
<path fill-rule="evenodd" clip-rule="evenodd" d="M8.73278 25.9891L8.69141 22.5542C8.69141 22.1818 8.89833 21.8921 9.18801 21.8921H11.5883C11.8779 21.8921 12.0849 22.1818 12.0849 22.5128L12.1262 25.9477C12.1262 26.3201 11.9193 26.6098 11.6296 26.6098H9.22939C8.9397 26.6098 8.73278 26.3615 8.73278 25.9891Z" fill="#045F87"/>
<path fill-rule="evenodd" clip-rule="evenodd" d="M8.68984 20.3611L8.64844 16.9263C8.64844 16.5538 8.85536 16.2642 9.14505 16.2642H11.5453C11.835 16.2642 12.0419 16.5538 12.0419 16.8849L12.0833 20.3198C12.0833 20.6922 11.8764 20.9819 11.5867 20.9819H9.18644C8.89676 21.0233 8.68984 20.7336 8.68984 20.3611Z" fill="#E2A6D6"/>
<path fill-rule="evenodd" clip-rule="evenodd" d="M12.9945 31.5755L12.9531 28.1407C12.9531 27.7682 13.16 27.4785 13.4497 27.4785H15.85C16.1397 27.4785 16.3466 27.7682 16.3466 28.0993L16.388 31.5341C16.388 31.9066 16.181 32.1962 15.8914 32.1962H13.4911C13.2014 32.1962 12.9945 31.9066 12.9945 31.5755Z" fill="#045F87"/>
<path fill-rule="evenodd" clip-rule="evenodd" d="M12.9535 25.9476L12.9121 22.5127C12.9121 22.1403 13.119 21.8506 13.4087 21.8506H15.809C16.0986 21.8506 16.3055 22.1403 16.3055 22.4713L16.3469 25.9062C16.3469 26.2786 16.14 26.5683 15.8503 26.5683H13.4501C13.1604 26.6097 12.9535 26.32 12.9535 25.9476Z" fill="#E2A6D6"/>
<path fill-rule="evenodd" clip-rule="evenodd" d="M12.9125 20.3611L12.8711 16.9263C12.8711 16.5538 13.078 16.2642 13.3677 16.2642H15.7679C16.0576 16.2642 16.2646 16.5538 16.2646 16.8849L16.3059 20.3198C16.3059 20.6922 16.099 20.9819 15.8093 20.9819H13.4091C13.1194 20.9819 12.9125 20.6922 12.9125 20.3611Z" fill="#045F87"/>
<path fill-rule="evenodd" clip-rule="evenodd" d="M4.13906 14.6502L4.09766 11.2154C4.09766 10.8429 4.30458 10.5532 4.59426 10.5532H6.99451C7.28419 10.5532 7.49112 10.8429 7.49112 11.174L7.53252 14.6088C7.53252 14.9813 7.32559 15.271 7.03591 15.271H4.63566C4.34598 15.3123 4.13906 15.0227 4.13906 14.6502Z" fill="#E2A6D6"/>
<path fill-rule="evenodd" clip-rule="evenodd" d="M8.6488 14.6082L8.60742 11.1734C8.60742 10.8009 8.81435 10.5112 9.10403 10.5112H11.5043C11.794 10.5112 12.0009 10.8009 12.0009 11.132L12.0423 14.5668C12.0423 14.9393 11.8353 15.229 11.5456 15.229H9.1454C8.85572 15.2703 8.6488 14.9807 8.6488 14.6082Z" fill="#E2A6D6"/>
<path fill-rule="evenodd" clip-rule="evenodd" d="M12.8695 14.5672L12.8281 11.1324C12.8281 10.7599 13.035 10.4702 13.3247 10.4702H15.725C16.0147 10.4702 16.2216 10.7599 16.2216 11.091L16.263 14.5258C16.263 14.8983 16.056 15.188 15.7664 15.188H13.3661C13.0764 15.2293 12.8695 14.9397 12.8695 14.5672Z" fill="#E2A6D6"/>
<path fill-rule="evenodd" clip-rule="evenodd" d="M17.0082 25.9476L16.9668 22.5127C16.9668 22.1403 17.1737 21.8506 17.4634 21.8506H19.8637C20.1533 21.8506 20.3603 22.1403 20.3603 22.4713L20.4016 25.9062C20.4016 26.2786 20.1947 26.5683 19.905 26.5683H17.5048C17.2151 26.5683 17.0082 26.2786 17.0082 25.9476Z" fill="#045F87"/>
<path fill-rule="evenodd" clip-rule="evenodd" d="M16.9672 20.3196L16.9258 16.8848C16.9258 16.5123 17.1327 16.2227 17.4224 16.2227H19.8226C20.1123 16.2227 20.3192 16.5123 20.3192 16.8434L20.3606 20.2782C20.3606 20.6507 20.1537 20.9404 19.864 20.9404H17.4638C17.1741 20.9818 16.9672 20.6921 16.9672 20.3196Z" fill="#E2A6D6"/>
<path fill-rule="evenodd" clip-rule="evenodd" d="M16.9261 14.5672L16.8848 11.1324C16.8848 10.7599 17.0917 10.4702 17.3814 10.4702H19.7816C20.0713 10.4702 20.2782 10.7599 20.2782 11.091L20.3196 14.5258C20.3196 14.8983 20.1127 15.188 19.823 15.188H17.4227C17.1331 15.188 16.9261 14.8983 16.9261 14.5672Z" fill="#045F87"/>
<path d="M18.9814 23.8115L14.1543 29.376L14.717 29.8641L19.5441 24.2996L18.9814 23.8115Z" fill="#045F87"/>
<path d="M18.4907 13.2168L13.6621 18.7798L14.2247 19.2681L19.0533 13.7051L18.4907 13.2168Z" fill="#045F87"/>
<path d="M29.0508 0.28969C30.044 0.124156 31.4924 0 33.065 0C35.0514 0 36.4584 0.289685 37.4103 1.03459C38.1965 1.65534 38.6518 2.60716 38.6518 3.84867C38.6518 5.5454 37.4517 6.74552 36.2929 7.15936V7.20075C37.2447 7.5732 37.7413 8.48364 38.0724 9.68376C38.4862 11.1736 38.9001 12.9531 39.1484 13.4497H36.0446C35.8377 13.0772 35.5066 11.9599 35.0928 10.3459C34.7203 8.69056 34.141 8.23534 32.9408 8.19395H32.0304V13.4497H29.0508V0.28969ZM32.0304 6.0834H33.2305C34.7203 6.0834 35.6308 5.33849 35.6308 4.13836C35.6308 2.89685 34.8031 2.2761 33.3961 2.2761C32.6512 2.2761 32.2373 2.31749 32.0304 2.35887V6.0834Z" fill="#E2A6D6"/>
<path d="M49.2859 7.86277H44.3612V11.0493H49.8652V13.5323H41.2988V0.124023H49.5756V2.60704H44.3612V5.37975H49.2859V7.86277Z" fill="#E2A6D6"/>
<path d="M55.0809 2.64843H51.4805V0.124023H61.785V2.64843H58.1432V13.4909H55.1222V2.64843H55.0809Z" fill="#E2A6D6"/>
<path d="M65.593 10.0975L64.6412 13.5323H61.4961L65.593 0.124023H69.5659L73.7043 13.5323H70.4349L69.4004 10.0975H65.593ZM68.9865 7.82138L68.1588 4.96591C67.9105 4.17962 67.6623 3.18641 67.4967 2.40012H67.4553C67.2484 3.18641 67.0415 4.22101 66.8345 4.96591L66.0483 7.82138H68.9865Z" fill="#E2A6D6"/>
<path d="M79.0425 0.124023V13.5323H76.0215V0.124023H79.0425Z" fill="#E2A6D6"/>
<path d="M82.1445 0.124023H85.1656V10.9665H90.5041V13.4909H82.1445V0.124023Z" fill="#E2A6D6"/>
</svg>
