<svg width="135" height="47" viewBox="0 0 135 47" fill="none" xmlns="http://www.w3.org/2000/svg">
<path d="M43.3924 28.2823C41.8725 29.766 39.9007 30.4666 37.8056 30.4666C32.342 30.4666 30.0005 26.675 30.0005 22.8423C29.9594 18.9684 32.4653 15.0532 37.8056 15.0532C39.8185 15.0532 41.7082 15.795 43.2281 17.3199L41.3795 19.1332C40.3936 18.1853 39.1202 17.732 37.8056 17.732C34.2317 17.732 32.6707 20.3696 32.7117 22.8423C32.7528 25.2738 34.1495 27.8702 37.8056 27.8702C39.0791 27.8702 40.5579 27.3344 41.5028 26.3866L43.3924 28.2823Z" fill="#045F87"/>
<path d="M57.647 15.3823V23.872C57.647 28.2405 54.9768 30.466 51.2797 30.466C47.7469 30.466 44.748 28.3229 44.748 23.872V15.3823H47.5004V23.872C47.5004 26.5508 49.0203 27.952 51.3208 27.952C53.6212 27.952 54.9358 26.4272 54.9358 23.872V15.3823H57.647Z" fill="#045F87"/>
<path d="M73.4637 30.1365H70.1773L65.864 25.191H63.1938V30.1365H60.4004V15.3413C62.7419 15.3413 65.0835 15.3825 67.425 15.3825C70.9167 15.4237 72.7242 17.7316 72.7242 20.2868C72.7242 22.3062 71.7794 24.3668 68.986 24.9437L73.4637 30.0128V30.1365ZM63.1938 17.9377V22.6771H67.425C69.1914 22.6771 69.9719 21.4819 69.9719 20.328C69.9719 19.174 69.1914 17.9789 67.425 17.9789H63.1938V17.9377Z" fill="#045F87"/>
<path d="M85.046 27.334H77.323L76.0496 30.1365H73.0508L79.6646 15.3413H82.7045L89.3594 30.1365H86.3195L85.046 27.334ZM81.2256 18.4734L78.4733 24.7789H83.9369L81.2256 18.4734Z" fill="#045F87"/>
<path d="M91.9897 17.8965H87.3066V15.3413C91.5789 15.3413 95.1528 15.3413 99.4251 15.3413V17.8965H94.742V30.1365H91.9486V17.8965H91.9897Z" fill="#045F87"/>
<path d="M112.119 30.1365H101.068C101.068 25.2322 101.068 20.2868 101.068 15.3413H112.119V18.0613H103.862V21.4819H111.831V24.0783H103.862V27.3752H112.119V30.1365Z" fill="#045F87"/>
<path d="M127.235 22.6359C127.317 26.3862 125.017 30.1777 119.882 30.1777C118.075 30.1777 115.897 30.1777 114.09 30.1777V15.3413C115.897 15.3413 118.075 15.3413 119.882 15.3413C124.935 15.3413 127.194 18.968 127.235 22.6359ZM116.842 27.4577H119.882C123.251 27.4577 124.565 25.0262 124.483 22.5946C124.401 20.2868 123.086 17.9789 119.882 17.9789H116.842V27.4577Z" fill="#045F87"/>
<path d="M30.4941 0.571557C31.122 0.481579 32.0188 0.391602 33.0353 0.391602C34.2909 0.391602 35.1579 0.571557 35.7858 1.05144C36.294 1.47134 36.5631 2.0412 36.5631 2.851C36.5631 3.93073 35.7858 4.68055 35.0682 4.95048V4.98047C35.6662 5.22041 35.995 5.79027 36.2043 6.57008C36.4734 7.52984 36.7424 8.63957 36.8919 8.96949H34.9188C34.7693 8.72955 34.5899 8.03972 34.3208 6.98998C34.0817 5.94024 33.7229 5.64031 32.9456 5.64031H32.3776V8.96949H30.4941V0.571557ZM32.4075 4.23066H33.1549C34.1116 4.23066 34.6796 3.75077 34.6796 3.00096C34.6796 2.22115 34.1415 1.83125 33.2745 1.83125C32.7961 1.83125 32.557 1.86124 32.4075 1.89123V4.23066Z" fill="#FF3366"/>
<path d="M39.6733 6.4787C39.7331 7.25851 40.5104 7.64842 41.4072 7.64842C42.065 7.64842 42.5732 7.55844 43.1113 7.40847L43.3505 8.69816C42.7227 8.9381 41.9454 9.08806 41.1382 9.08806C39.0455 9.08806 37.8496 7.88836 37.8496 5.93884C37.8496 4.37922 38.8063 2.63965 40.9588 2.63965C42.9319 2.63965 43.7092 4.19926 43.7092 5.72889C43.7092 6.05881 43.6794 6.35873 43.6495 6.4787H39.6733ZM41.9155 5.15903C41.9155 4.67915 41.7062 3.89934 40.8392 3.89934C40.032 3.89934 39.7032 4.61916 39.6733 5.15903H41.9155Z" fill="#FF3366"/>
<path d="M47.2655 1.01953V2.7891H48.6407V4.19875H47.2655V6.4182C47.2655 7.16802 47.4448 7.49794 48.0129 7.49794C48.252 7.49794 48.4314 7.46794 48.5809 7.43795V8.8776C48.3417 8.96757 47.8634 9.02756 47.3253 9.02756C46.6974 9.02756 46.1892 8.81761 45.8902 8.48769C45.5315 8.12778 45.3521 7.52793 45.3521 6.65814V4.19875H44.5449V2.7891H45.3521V1.43943L47.2655 1.01953Z" fill="#FF3366"/>
<path d="M53.5447 8.9381L53.4251 8.30825H53.3952C53.0066 8.78814 52.3787 9.05807 51.6313 9.05807C50.3757 9.05807 49.6582 8.15829 49.6582 7.16853C49.6582 5.57892 51.0932 4.79912 53.2756 4.79912V4.70914C53.2756 4.37922 53.0963 3.92933 52.1695 3.92933C51.5417 3.92933 50.8839 4.13928 50.4654 4.40921L50.1066 3.17952C50.5252 2.93957 51.3623 2.63965 52.4983 2.63965C54.5313 2.63965 55.189 3.83935 55.189 5.30899V7.43847C55.189 8.03832 55.2189 8.60818 55.2787 8.9381H53.5447ZM53.3354 6.02881C52.319 6.02881 51.5417 6.26875 51.5417 6.98858C51.5417 7.46846 51.8705 7.7084 52.2891 7.7084C52.7674 7.7084 53.156 7.40847 53.2756 6.98858C53.3055 6.8986 53.3055 6.77863 53.3055 6.65866V6.02881H53.3354Z" fill="#FF3366"/>
<path d="M58.985 1.07988C58.985 1.61975 58.5964 2.03964 57.9685 2.03964C57.3706 2.03964 56.9521 1.61975 56.982 1.07988C56.982 0.540014 57.3706 0.120117 57.9984 0.120117C58.6263 0.120117 58.9551 0.510021 58.985 1.07988ZM57.0119 8.93794V2.78946H58.9252V8.93794H57.0119Z" fill="#FF3366"/>
<path d="M60.75 0H62.6634V8.9378H60.75V0Z" fill="#FF3366"/>
<path d="M63.9492 9.44755L66.6399 0.299805H67.8955L65.2049 9.44755H63.9492Z" fill="#FF3366"/>
<path d="M74.0837 5.36898H70.9745V7.37849H74.4424V8.9681H69.0312V0.450195H74.2631V2.0398H70.9745V3.80937H74.0837V5.36898Z" fill="#FF3366"/>
<path d="M80.5702 8.78814C80.2413 8.9381 79.5836 9.05807 78.8661 9.05807C76.893 9.05807 75.6074 7.85836 75.6074 5.90884C75.6074 4.10929 76.8332 2.63965 79.1352 2.63965C79.6434 2.63965 80.1815 2.72963 80.6001 2.87959L80.3011 4.28924C80.0619 4.19926 79.7331 4.10929 79.2248 4.10929C78.2084 4.10929 77.5806 4.82911 77.5806 5.84886C77.5806 6.98858 78.328 7.58843 79.2547 7.58843C79.7032 7.58843 80.0619 7.49845 80.3609 7.40847L80.5702 8.78814Z" fill="#FF3366"/>
<path d="M87.8646 5.78887C87.8646 8.03832 86.2801 9.08806 84.6358 9.08806C82.842 9.08806 81.4668 7.91835 81.4668 5.90884C81.4668 3.92933 82.7822 2.63965 84.7554 2.63965C86.6089 2.63965 87.8646 3.92933 87.8646 5.78887ZM83.41 5.84886C83.41 6.8986 83.8585 7.7084 84.6657 7.7084C85.4131 7.7084 85.8914 6.95859 85.8914 5.84886C85.8914 4.91909 85.5327 3.98932 84.6657 3.98932C83.7688 4.01931 83.41 4.94908 83.41 5.84886Z" fill="#FF3366"/>
<path d="M89.3586 4.73913C89.3586 3.95932 89.3287 3.32948 89.2988 2.75962H90.9132L91.0029 3.59941H91.0328C91.3019 3.20951 91.84 2.63965 92.8864 2.63965C93.6637 2.63965 94.2915 3.02955 94.5606 3.68939H94.5904C94.8296 3.38946 95.0987 3.11953 95.3678 2.93957C95.6966 2.72963 96.0853 2.63965 96.5337 2.63965C97.6996 2.63965 98.5965 3.47944 98.5965 5.30899V8.9381H96.743V5.60892C96.743 4.70914 96.444 4.19926 95.8461 4.19926C95.3976 4.19926 95.0987 4.49919 94.9791 4.8591C94.9193 5.00907 94.8894 5.18902 94.8894 5.33898V8.9381H93.0657V5.48895C93.0657 4.70914 92.7967 4.16927 92.1988 4.16927C91.7204 4.16927 91.4215 4.55918 91.3019 4.8591C91.2421 5.00907 91.2122 5.18902 91.2122 5.33898V8.9381H89.3586V4.73913Z" fill="#FF3366"/>
<path d="M100.482 4.73913C100.482 3.95932 100.452 3.32948 100.422 2.75962H102.036L102.126 3.59941H102.156C102.425 3.20951 102.963 2.63965 104.009 2.63965C104.787 2.63965 105.415 3.02955 105.684 3.68939H105.713C105.953 3.38946 106.222 3.11953 106.491 2.93957C106.82 2.72963 107.208 2.63965 107.657 2.63965C108.823 2.63965 109.72 3.47944 109.72 5.30899V8.9381H107.866V5.60892C107.866 4.70914 107.567 4.19926 106.969 4.19926C106.521 4.19926 106.222 4.49919 106.102 4.8591C106.042 5.00907 106.012 5.18902 106.012 5.33898V8.9381H104.159V5.48895C104.159 4.70914 103.89 4.16927 103.292 4.16927C102.814 4.16927 102.515 4.55918 102.395 4.8591C102.335 5.00907 102.305 5.18902 102.305 5.33898V8.9381H100.452V4.73913H100.482Z" fill="#FF3366"/>
<path d="M113.066 6.4787C113.126 7.25851 113.903 7.64842 114.8 7.64842C115.458 7.64842 115.966 7.55844 116.504 7.40847L116.743 8.69816C116.115 8.9381 115.338 9.08806 114.531 9.08806C112.438 9.08806 111.242 7.88836 111.242 5.93884C111.242 4.37922 112.199 2.63965 114.351 2.63965C116.325 2.63965 117.102 4.19926 117.102 5.72889C117.102 6.05881 117.072 6.35873 117.042 6.4787H113.066ZM115.308 5.15903C115.308 4.67915 115.099 3.89934 114.232 3.89934C113.425 3.89934 113.096 4.61916 113.066 5.15903H115.308Z" fill="#FF3366"/>
<path d="M118.538 4.79912C118.538 3.89934 118.508 3.29949 118.479 2.75962H120.123L120.183 3.89934H120.242C120.541 2.99956 121.319 2.63965 121.887 2.63965C122.066 2.63965 122.156 2.63965 122.275 2.66964V4.4692C122.126 4.43921 121.976 4.40921 121.767 4.40921C121.05 4.40921 120.601 4.79912 120.452 5.36898C120.422 5.48895 120.422 5.63891 120.422 5.78887V8.90811H118.508V4.79912H118.538Z" fill="#FF3366"/>
<path d="M128.135 8.78814C127.806 8.9381 127.148 9.05807 126.431 9.05807C124.457 9.05807 123.172 7.85836 123.172 5.90884C123.172 4.10929 124.398 2.63965 126.7 2.63965C127.208 2.63965 127.746 2.72963 128.165 2.87959L127.866 4.28924C127.626 4.19926 127.298 4.10929 126.789 4.10929C125.773 4.10929 125.145 4.82911 125.145 5.84886C125.145 6.98858 125.892 7.58843 126.819 7.58843C127.268 7.58843 127.626 7.49845 127.925 7.40847L128.135 8.78814Z" fill="#FF3366"/>
<path d="M130.826 6.4787C130.885 7.25851 131.663 7.64842 132.56 7.64842C133.217 7.64842 133.726 7.55844 134.264 7.40847L134.503 8.69816C133.875 8.9381 133.098 9.08806 132.291 9.08806C130.198 9.08806 129.002 7.88836 129.002 5.93884C129.002 4.37922 129.959 2.63965 132.111 2.63965C134.084 2.63965 134.862 4.19926 134.862 5.72889C134.862 6.05881 134.832 6.35873 134.802 6.4787H130.826ZM133.068 5.15903C133.068 4.67915 132.859 3.89934 131.992 3.89934C131.184 3.89934 130.856 4.61916 130.826 5.15903H133.068Z" fill="#FF3366"/>
<path d="M7 19L10 22L20 12" stroke="#FF3366" stroke-width="2" stroke-linecap="round" stroke-linejoin="round"/>
<path d="M19 20V27C19 27.5304 18.7893 28.0391 18.4142 28.4142C18.0391 28.7893 17.5304 29 17 29H3C2.46957 29 1.96086 28.7893 1.58579 28.4142C1.21071 28.0391 1 27.5304 1 27V13C1 12.4696 1.21071 11.9609 1.58579 11.5858C1.96086 11.2107 2.46957 11 3 11H14" stroke="#045F87" stroke-width="2" stroke-linecap="round" stroke-linejoin="round"/>
<path d="M32.4121 40.0303H32.9004C33.3789 40.0303 33.7321 39.9505 33.96 39.791C34.1878 39.6315 34.3018 39.3809 34.3018 39.0391C34.3018 38.7005 34.1846 38.4596 33.9502 38.3164C33.7191 38.1732 33.3594 38.1016 32.8711 38.1016H32.4121V40.0303ZM32.4121 41.2607V44H30.8984V36.8613H32.9785C33.9486 36.8613 34.6663 37.0387 35.1318 37.3936C35.5973 37.7451 35.8301 38.2806 35.8301 39C35.8301 39.4199 35.7145 39.7943 35.4834 40.123C35.2523 40.4486 34.9251 40.7041 34.502 40.8896C35.5762 42.4945 36.276 43.5312 36.6016 44H34.9219L33.2178 41.2607H32.4121ZM41.6113 44H37.5V36.8613H41.6113V38.1016H39.0137V39.6689H41.4307V40.9092H39.0137V42.75H41.6113V44ZM49.585 40.4209C49.585 41.2607 49.4352 41.9655 49.1357 42.5352C48.8395 43.1016 48.4033 43.5166 47.8271 43.7803L49.5459 45.6992H47.6074L46.2988 44.0977H46.1865C45.0928 44.0977 44.2529 43.7803 43.667 43.1455C43.0811 42.5107 42.7881 41.5993 42.7881 40.4111C42.7881 39.223 43.0811 38.3164 43.667 37.6914C44.2562 37.0632 45.0993 36.749 46.1963 36.749C47.2933 36.749 48.1315 37.0648 48.7109 37.6963C49.2936 38.3278 49.585 39.236 49.585 40.4209ZM44.375 40.4209C44.375 41.2184 44.5264 41.819 44.8291 42.2227C45.1318 42.6263 45.5843 42.8281 46.1865 42.8281C47.3942 42.8281 47.998 42.0257 47.998 40.4209C47.998 38.8128 47.3975 38.0088 46.1963 38.0088C45.5941 38.0088 45.14 38.2122 44.834 38.6191C44.528 39.0228 44.375 39.6234 44.375 40.4209ZM56.875 36.8613V41.4805C56.875 42.0078 56.7562 42.4701 56.5186 42.8672C56.2842 43.2643 55.944 43.5687 55.498 43.7803C55.0521 43.9919 54.5247 44.0977 53.916 44.0977C52.998 44.0977 52.2852 43.8633 51.7773 43.3945C51.2695 42.9225 51.0156 42.278 51.0156 41.4609V36.8613H52.5244V41.2314C52.5244 41.7816 52.6351 42.1852 52.8564 42.4424C53.0778 42.6995 53.444 42.8281 53.9551 42.8281C54.4499 42.8281 54.8079 42.6995 55.0293 42.4424C55.2539 42.182 55.3662 41.7751 55.3662 41.2217V36.8613H56.875ZM62.7344 44H58.623V36.8613H62.7344V38.1016H60.1367V39.6689H62.5537V40.9092H60.1367V42.75H62.7344V44ZM68.4424 42.0176C68.4424 42.6621 68.2096 43.1699 67.7441 43.541C67.2819 43.9121 66.6374 44.0977 65.8105 44.0977C65.0488 44.0977 64.375 43.9544 63.7891 43.668V42.2617C64.2708 42.4766 64.6777 42.6279 65.0098 42.7158C65.3451 42.8037 65.651 42.8477 65.9277 42.8477C66.2598 42.8477 66.5137 42.7842 66.6895 42.6572C66.8685 42.5303 66.958 42.3415 66.958 42.0908C66.958 41.9508 66.9189 41.8271 66.8408 41.7197C66.7627 41.609 66.6471 41.5033 66.4941 41.4023C66.3444 41.3014 66.0368 41.1403 65.5713 40.9189C65.1351 40.7139 64.8079 40.5169 64.5898 40.3281C64.3717 40.1393 64.1976 39.9196 64.0674 39.6689C63.9372 39.4183 63.8721 39.1253 63.8721 38.79C63.8721 38.1585 64.0853 37.6621 64.5117 37.3008C64.9414 36.9395 65.5339 36.7588 66.2891 36.7588C66.6602 36.7588 67.0133 36.8027 67.3486 36.8906C67.6872 36.9785 68.0404 37.1022 68.4082 37.2617L67.9199 38.4385C67.5391 38.2822 67.2233 38.1732 66.9727 38.1113C66.7253 38.0495 66.4811 38.0186 66.2402 38.0186C65.9538 38.0186 65.734 38.0853 65.5811 38.2188C65.4281 38.3522 65.3516 38.5264 65.3516 38.7412C65.3516 38.8747 65.3825 38.9919 65.4443 39.0928C65.5062 39.1904 65.6038 39.2865 65.7373 39.3809C65.874 39.472 66.1947 39.638 66.6992 39.8789C67.3665 40.1979 67.8239 40.5186 68.0713 40.8408C68.3187 41.1598 68.4424 41.5521 68.4424 42.0176ZM72.4902 44H70.9766V38.1211H69.0381V36.8613H74.4287V38.1211H72.4902V44ZM79.6387 44H75.5273V36.8613H79.6387V38.1016H77.041V39.6689H79.458V40.9092H77.041V42.75H79.6387V44ZM87.0557 40.3623C87.0557 41.5374 86.7204 42.4375 86.0498 43.0625C85.3825 43.6875 84.4173 44 83.1543 44H81.1328V36.8613H83.374C84.5394 36.8613 85.4443 37.1689 86.0889 37.7842C86.7334 38.3994 87.0557 39.2588 87.0557 40.3623ZM85.4834 40.4014C85.4834 38.8682 84.8063 38.1016 83.4521 38.1016H82.6465V42.75H83.2959C84.7542 42.75 85.4834 41.9671 85.4834 40.4014Z" fill="#045F87"/>
</svg>
