<svg width="167" height="33" viewBox="0 0 167 33" fill="none" xmlns="http://www.w3.org/2000/svg">
<path d="M40.2657 30.747C38.792 32.1808 36.8803 32.8578 34.8491 32.8578C29.5519 32.8578 27.2817 29.1936 27.2817 25.4896C27.2419 21.7458 29.6714 17.9622 34.8491 17.9622C36.8006 17.9622 38.6327 18.6791 40.1064 20.1527L38.3141 21.9051C37.3582 20.9891 36.1236 20.551 34.8491 20.551C31.384 20.551 29.9104 23.1398 29.9104 25.5295C29.9502 27.8793 31.3044 30.3885 34.8491 30.3885C36.0837 30.3885 37.5175 29.8707 38.4336 28.9547L40.2657 30.747Z" fill="#045F87"/>
<path d="M54.0861 18.2412V26.4458C54.0861 30.6676 51.4973 32.8183 47.9127 32.8183C44.4875 32.8183 41.5801 30.7472 41.5801 26.4458V18.2412H44.2486V26.4458C44.2486 29.0346 45.7222 30.3888 47.9526 30.3888C50.1829 30.3888 51.4574 28.9151 51.4574 26.4458V18.2412H54.0861Z" fill="#045F87"/>
<path d="M69.4192 32.5395H66.233L62.051 27.7601H59.4622V32.5395H56.7539V18.2412C59.0241 18.2412 61.2943 18.281 63.5645 18.281C66.9499 18.3209 68.7023 20.5512 68.7023 23.0206C68.7023 24.9722 67.7863 26.9636 65.078 27.5212L69.4192 32.42V32.5395ZM59.4622 20.7504V25.3306H63.5645C65.2771 25.3306 66.0338 24.1756 66.0338 23.0604C66.0338 21.9452 65.2771 20.7902 63.5645 20.7902H59.4622V20.7504Z" fill="#045F87"/>
<path d="M80.6513 29.8312H73.1636L71.9289 32.5395H69.0215L75.4338 18.2412H78.3811L84.7934 32.5395H81.8461L80.6513 29.8312ZM76.9473 21.2283L74.2788 27.322H79.5759L76.9473 21.2283Z" fill="#045F87"/>
<path d="M87.3822 20.671H82.8418V18.2017C86.9839 18.2017 90.449 18.2017 94.5911 18.2017V20.671H90.0507V32.4999H87.3424V20.671H87.3822Z" fill="#045F87"/>
<path d="M106.897 32.5395H96.1836C96.1836 27.8 96.1836 23.0206 96.1836 18.2412H106.897V20.8699H98.8919V24.1756H106.619V26.6847H98.8919V29.9109H106.897V32.5395Z" fill="#045F87"/>
<path d="M121.556 25.2509C121.635 28.8753 119.405 32.5395 114.426 32.5395C112.674 32.5395 110.563 32.5395 108.811 32.5395V18.2412C110.563 18.2412 112.674 18.2412 114.426 18.2412C119.325 18.2412 121.516 21.7062 121.556 25.2509ZM111.479 29.9507H114.426C117.692 29.9507 118.967 27.6008 118.887 25.2509C118.807 23.0206 117.533 20.7902 114.426 20.7902H111.479V29.9507Z" fill="#045F87"/>
<path fill-rule="evenodd" clip-rule="evenodd" d="M0.0398281 18.5198L0 15.2141C0 14.8557 0.19914 14.5769 0.477937 14.5769H2.78796C3.06676 14.5769 3.2659 14.8557 3.2659 15.1743L3.30573 18.48C3.30573 18.8385 3.10659 19.1173 2.82779 19.1173H0.517765C0.238968 19.1571 0.0398281 18.8783 0.0398281 18.5198Z" fill="#FF3366"/>
<path fill-rule="evenodd" clip-rule="evenodd" d="M0.0398281 24.8926L0 21.5869C0 21.2285 0.19914 20.9497 0.477937 20.9497H2.78796C3.06676 20.9497 3.2659 21.2285 3.2659 21.5471L3.30573 24.8528C3.30573 25.2113 3.10659 25.4901 2.82779 25.4901H0.517765C0.238968 25.5299 0.0398281 25.2511 0.0398281 24.8926Z" fill="#FF3366"/>
<path fill-rule="evenodd" clip-rule="evenodd" d="M4.26053 18.4799L4.2207 15.1742C4.2207 14.8157 4.41984 14.5369 4.69864 14.5369H7.00867C7.28746 14.5369 7.4866 14.8157 7.4866 15.1343L7.52643 18.44C7.52643 18.7985 7.32729 19.0773 7.0485 19.0773H4.73847C4.4995 19.1171 4.26053 18.8383 4.26053 18.4799Z" fill="#045F87"/>
<path fill-rule="evenodd" clip-rule="evenodd" d="M8.40311 29.274L8.36328 25.9683C8.36328 25.6098 8.56242 25.3311 8.84122 25.3311H11.1512C11.43 25.3311 11.6292 25.6099 11.6292 25.9285L11.669 29.2342C11.669 29.5926 11.4699 29.8714 11.1911 29.8714H8.88105C8.64208 29.8714 8.40311 29.5926 8.40311 29.274Z" fill="#FF3366"/>
<path fill-rule="evenodd" clip-rule="evenodd" d="M8.36405 23.8573L8.32422 20.5516C8.32422 20.1931 8.52336 19.9143 8.80216 19.9143H11.1122C11.391 19.9143 11.5901 20.1931 11.5901 20.5117L11.6299 23.8175C11.6299 24.1759 11.4308 24.4547 11.152 24.4547H8.84198C8.60302 24.4945 8.36405 24.2157 8.36405 23.8573Z" fill="#045F87"/>
<path fill-rule="evenodd" clip-rule="evenodd" d="M8.32498 18.4799L8.28516 15.1742C8.28516 14.8157 8.4843 14.5369 8.76309 14.5369H11.0731C11.3519 14.5369 11.5511 14.8157 11.5511 15.1343L11.5909 18.44C11.5909 18.7985 11.3917 19.0773 11.1129 19.0773H8.80292C8.56395 19.0773 8.32498 18.7985 8.32498 18.4799Z" fill="#FF3366"/>
<path fill-rule="evenodd" clip-rule="evenodd" d="M12.4656 29.234L12.4258 25.9283C12.4258 25.5699 12.6249 25.291 12.9037 25.291H15.2137C15.4925 25.291 15.6917 25.5698 15.6917 25.8884L15.7315 29.1942C15.7315 29.5526 15.5324 29.8314 15.2536 29.8314H12.9435C12.7046 29.8314 12.4656 29.5526 12.4656 29.234Z" fill="#045F87"/>
<path fill-rule="evenodd" clip-rule="evenodd" d="M12.4265 23.8173L12.3867 20.5115C12.3867 20.1531 12.5859 19.8743 12.8647 19.8743H15.1747C15.4535 19.8743 15.6526 20.1531 15.6526 20.4717L15.6924 23.7774C15.6924 24.1359 15.4933 24.4147 15.2145 24.4147H12.9045C12.6655 24.4545 12.4265 24.1757 12.4265 23.8173Z" fill="#FF3366"/>
<path fill-rule="evenodd" clip-rule="evenodd" d="M12.3875 18.4405L12.3477 15.1348C12.3477 14.7763 12.5468 14.4976 12.8256 14.4976H15.1356C15.4144 14.4976 15.6136 14.7764 15.6136 15.095L15.6534 18.4007C15.6534 18.7592 15.4542 19.038 15.1754 19.038H12.8654C12.6265 19.038 12.3875 18.799 12.3875 18.4405Z" fill="#045F87"/>
<path fill-rule="evenodd" clip-rule="evenodd" d="M3.98319 12.9842L3.94336 9.6785C3.94336 9.32005 4.1425 9.04126 4.4213 9.04126H6.73132C7.01012 9.04126 7.20926 9.32006 7.20926 9.63868L7.24909 12.9444C7.24909 13.3029 7.04995 13.5816 6.77115 13.5816H4.46112C4.18233 13.5816 3.98319 13.3028 3.98319 12.9842Z" fill="#FF3366"/>
<path fill-rule="evenodd" clip-rule="evenodd" d="M8.28397 12.9039L8.24414 9.59818C8.24414 9.23972 8.44328 8.96094 8.72208 8.96094H11.0321C11.3109 8.96094 11.51 9.23973 11.51 9.55836L11.5499 12.8641C11.5499 13.2225 11.3507 13.5013 11.0719 13.5013H8.76191C8.52294 13.5412 8.28397 13.2624 8.28397 12.9039Z" fill="#FF3366"/>
<path fill-rule="evenodd" clip-rule="evenodd" d="M12.3465 12.8646L12.3066 9.55889C12.3066 9.20044 12.5058 8.92163 12.7846 8.92163H15.0946C15.3734 8.92163 15.5725 9.20043 15.5725 9.51905L15.6124 12.8248C15.6124 13.1833 15.4132 13.462 15.1344 13.462H12.8244C12.5854 13.5019 12.3465 13.2231 12.3465 12.8646Z" fill="#FF3366"/>
<path fill-rule="evenodd" clip-rule="evenodd" d="M16.3289 23.8173L16.2891 20.5115C16.2891 20.1531 16.4882 19.8743 16.767 19.8743H19.077C19.3558 19.8743 19.555 20.1531 19.555 20.4717L19.5948 23.7774C19.5948 24.1359 19.3957 24.4147 19.1169 24.4147H16.8068C16.5679 24.4147 16.3289 24.1359 16.3289 23.8173Z" fill="#045F87"/>
<path fill-rule="evenodd" clip-rule="evenodd" d="M16.2898 18.4012L16.25 15.0955C16.25 14.737 16.4491 14.4583 16.7279 14.4583H19.038C19.3168 14.4583 19.5159 14.737 19.5159 15.0557L19.5557 18.3614C19.5557 18.7199 19.3566 18.9987 19.0778 18.9987H16.7678C16.5288 19.0385 16.3297 18.7597 16.2898 18.4012Z" fill="#FF3366"/>
<path fill-rule="evenodd" clip-rule="evenodd" d="M16.2508 12.8646L16.2109 9.55889C16.2109 9.20044 16.4101 8.92163 16.6889 8.92163H18.9989C19.2777 8.92163 19.4768 9.20043 19.4768 9.51905L19.5167 12.8248C19.5167 13.1833 19.3175 13.462 19.0387 13.462H16.7287C16.4897 13.462 16.2906 13.1832 16.2508 12.8646Z" fill="#045F87"/>
<path d="M18.2726 21.7645L13.627 27.1199L14.1685 27.5896L18.8142 22.2343L18.2726 21.7645Z" fill="#045F87"/>
<path d="M17.7643 11.5555L13.1172 16.9094L13.6586 17.3794L18.3057 12.0255L17.7643 11.5555Z" fill="#045F87"/>
<path d="M27.7598 0.716986C28.5962 0.597502 29.791 0.478027 31.1452 0.478027C32.8179 0.478027 33.9729 0.716976 34.8093 1.35423C35.4864 1.87199 35.8449 2.66856 35.8449 3.70409C35.8449 5.1379 34.8093 6.1336 33.8535 6.49206V6.53187C34.65 6.8505 35.0881 7.60725 35.3669 8.64278C35.7254 9.91728 36.0838 11.3909 36.283 11.829H33.6543C33.4552 11.5104 33.2162 10.5943 32.8578 9.20036C32.5391 7.80638 32.0612 7.4081 31.0257 7.4081H30.2689V11.829H27.7598V0.716986ZM30.3088 5.57602H31.3045C32.579 5.57602 33.3357 4.93875 33.3357 3.94305C33.3357 2.90752 32.6188 2.38977 31.4638 2.38977C30.8265 2.38977 30.5079 2.4296 30.3088 2.46943V5.57602Z" fill="#FF3366"/>
<path d="M39.9862 8.56308C40.0658 9.59861 41.1013 10.1164 42.2962 10.1164C43.1724 10.1164 43.8495 9.99688 44.5664 9.79774L44.885 11.5103C44.0486 11.829 43.0131 12.0281 41.9377 12.0281C39.1498 12.0281 37.5566 10.435 37.5566 7.84618C37.5566 5.77512 38.8311 3.46509 41.6988 3.46509C44.3274 3.46509 45.3629 5.53614 45.3629 7.56737C45.3629 8.00548 45.3231 8.40376 45.2833 8.56308H39.9862ZM42.9733 6.85047C42.9733 6.21322 42.6945 5.17769 41.5394 5.17769C40.4641 5.17769 40.026 6.13357 39.9862 6.85047H42.9733Z" fill="#FF3366"/>
<path d="M50.1029 1.35425V3.70411H51.935V5.57604H50.1029V8.5233C50.1029 9.519 50.3418 9.95713 51.0986 9.95713C51.4172 9.95713 51.6562 9.91729 51.8553 9.87746V11.7892C51.5367 11.9087 50.8994 11.9883 50.1825 11.9883C49.3461 11.9883 48.6691 11.7096 48.2708 11.2714C47.7928 10.7935 47.5539 9.99696 47.5539 8.84194V5.49638H46.4785V3.62445H47.5539V1.83219L50.1029 1.35425Z" fill="#FF3366"/>
<path d="M58.4667 11.8683L58.3074 11.0319H58.2676C57.7498 11.6692 56.9134 12.0276 55.9177 12.0276C54.2449 12.0276 53.2891 10.8327 53.2891 9.51842C53.2891 7.40754 55.2008 6.37202 58.1083 6.37202V6.25254C58.1083 5.81443 57.8693 5.217 56.6346 5.217C55.7982 5.217 54.922 5.49581 54.3644 5.85426L53.8865 4.22129C54.4441 3.90267 55.5593 3.50439 57.0727 3.50439C59.781 3.50439 60.6573 5.09753 60.6573 7.0491V9.87689C60.6573 10.6734 60.6971 11.4302 60.7767 11.8683H58.4667ZM58.1879 8.00496C56.8338 8.00496 55.7982 8.32359 55.7982 9.27946C55.7982 9.91671 56.2363 10.2353 56.7939 10.2353C57.4312 10.2353 57.9489 9.83706 58.1083 9.27946C58.1481 9.15998 58.1481 9.00068 58.1481 8.84137V8.00496H58.1879Z" fill="#FF3366"/>
<path d="M65.7154 1.39413C65.7154 2.11104 65.1976 2.66864 64.3613 2.66864C63.5647 2.66864 63.0071 2.11104 63.0469 1.39413C63.0469 0.677227 63.5647 0.119629 64.4011 0.119629C65.2375 0.119629 65.6756 0.677227 65.7154 1.39413ZM63.0868 11.8689V3.70416H65.6358V11.8689H63.0868Z" fill="#FF3366"/>
<path d="M68.0664 0H70.6154V11.8688H68.0664V0Z" fill="#FF3366"/>
<path d="M72.3281 12.546L75.9127 0.398438H77.5854L74.0009 12.546H72.3281Z" fill="#FF3366"/>
<path d="M85.8286 7.08963H81.6865V9.75811H86.3065V11.869H79.0977V0.597656H86.0676V2.70854H81.6865V5.0584H85.8286V7.08963Z" fill="#FF3366"/>
<path d="M94.4728 11.6691C94.0347 11.8683 93.1585 12.0276 92.2026 12.0276C89.5739 12.0276 87.8613 10.4345 87.8613 7.84566C87.8613 5.45598 89.4943 3.50439 92.561 3.50439C93.2381 3.50439 93.955 3.62387 94.5126 3.82301L94.1143 5.69494C93.7957 5.57545 93.3576 5.45598 92.6805 5.45598C91.3264 5.45598 90.49 6.41185 90.49 7.766C90.49 9.27947 91.4857 10.076 92.7204 10.076C93.3178 10.076 93.7957 9.95655 94.194 9.83707L94.4728 11.6691Z" fill="#FF3366"/>
<path d="M104.189 7.68634C104.189 10.6734 102.078 12.0674 99.8878 12.0674C97.4981 12.0674 95.666 10.5141 95.666 7.84566C95.666 5.21701 97.4185 3.50439 100.047 3.50439C102.516 3.50439 104.189 5.217 104.189 7.68634ZM98.2548 7.766C98.2548 9.15999 98.8523 10.2353 99.9276 10.2353C100.923 10.2353 101.561 9.23964 101.561 7.766C101.561 6.53133 101.083 5.29666 99.9276 5.29666C98.7328 5.29666 98.2548 6.57116 98.2548 7.766Z" fill="#FF3366"/>
<path d="M106.181 6.29236C106.181 5.25683 106.141 4.42045 106.102 3.66372H108.252L108.372 4.7789H108.412C108.77 4.26113 109.487 3.50439 110.881 3.50439C111.916 3.50439 112.753 4.02216 113.111 4.89838H113.151C113.47 4.5001 113.828 4.14164 114.187 3.90268C114.625 3.62388 115.143 3.50439 115.74 3.50439C117.293 3.50439 118.488 4.61959 118.488 7.0491V11.8683H116.019V7.40754C116.019 6.2127 115.62 5.53562 114.824 5.53562C114.226 5.53562 113.828 5.9339 113.669 6.41184C113.589 6.61098 113.549 6.84996 113.549 7.0491V11.8285H111.12V7.28806C111.12 6.25253 110.761 5.53562 109.965 5.53562C109.328 5.53562 108.929 6.0534 108.77 6.45168C108.69 6.65082 108.651 6.88978 108.651 7.08892V11.8683H106.181V6.29236Z" fill="#FF3366"/>
<path d="M120.998 6.29236C120.998 5.25683 120.958 4.42045 120.918 3.66372H123.069L123.188 4.7789H123.228C123.586 4.26113 124.303 3.50439 125.697 3.50439C126.733 3.50439 127.569 4.02216 127.928 4.89838H127.968C128.286 4.5001 128.645 4.14164 129.003 3.90268C129.441 3.62388 129.959 3.50439 130.556 3.50439C132.11 3.50439 133.305 4.61959 133.305 7.0491V11.8683H130.835V7.40754C130.835 6.2127 130.437 5.53562 129.64 5.53562C129.043 5.53562 128.645 5.9339 128.485 6.41184C128.406 6.61098 128.366 6.84996 128.366 7.0491V11.8285H125.896V7.28806C125.896 6.25253 125.538 5.53562 124.741 5.53562C124.104 5.53562 123.706 6.0534 123.547 6.45168C123.467 6.65082 123.427 6.88978 123.427 7.08892V11.8683H120.958V6.29236H120.998Z" fill="#FF3366"/>
<path d="M137.763 8.56308C137.843 9.59861 138.879 10.1164 140.074 10.1164C140.95 10.1164 141.627 9.99688 142.344 9.79774L142.662 11.5103C141.826 11.829 140.79 12.0281 139.715 12.0281C136.927 12.0281 135.334 10.435 135.334 7.84618C135.334 5.77512 136.608 3.46509 139.476 3.46509C142.105 3.46509 143.14 5.53614 143.14 7.56737C143.14 8.00548 143.1 8.40376 143.061 8.56308H137.763ZM140.751 6.85047C140.751 6.21322 140.472 5.17769 139.317 5.17769C138.241 5.17769 137.803 6.13357 137.763 6.85047H140.751Z" fill="#FF3366"/>
<path d="M145.052 6.37202C145.052 5.17718 145.012 4.38062 144.973 3.66372H147.163L147.243 5.17718H147.323C147.721 3.98234 148.756 3.50439 149.513 3.50439C149.752 3.50439 149.872 3.50438 150.031 3.54421V5.9339C149.832 5.89407 149.633 5.85426 149.354 5.85426C148.398 5.85426 147.8 6.37201 147.601 7.12874C147.561 7.28805 147.561 7.4872 147.561 7.68634V11.8285H145.012V6.37202H145.052Z" fill="#FF3366"/>
<path d="M157.838 11.6691C157.4 11.8683 156.524 12.0276 155.568 12.0276C152.939 12.0276 151.227 10.4345 151.227 7.84566C151.227 5.45598 152.86 3.50439 155.926 3.50439C156.603 3.50439 157.32 3.62387 157.878 3.82301L157.48 5.69494C157.161 5.57545 156.723 5.45598 156.046 5.45598C154.692 5.45598 153.855 6.41185 153.855 7.766C153.855 9.27947 154.851 10.076 156.086 10.076C156.683 10.076 157.161 9.95655 157.559 9.83707L157.838 11.6691Z" fill="#FF3366"/>
<path d="M161.424 8.56308C161.503 9.59861 162.539 10.1164 163.734 10.1164C164.61 10.1164 165.287 9.99688 166.004 9.79774L166.323 11.5103C165.486 11.829 164.451 12.0281 163.375 12.0281C160.587 12.0281 158.994 10.435 158.994 7.84618C158.994 5.77512 160.269 3.46509 163.136 3.46509C165.765 3.46509 166.8 5.53614 166.8 7.56737C166.8 8.00548 166.761 8.40376 166.721 8.56308H161.424ZM164.411 6.85047C164.411 6.21322 164.132 5.17769 162.977 5.17769C161.902 5.17769 161.463 6.13357 161.424 6.85047H164.411Z" fill="#FF3366"/>
</svg>
