<svg width="128" height="52" viewBox="0 0 128 52" fill="none" xmlns="http://www.w3.org/2000/svg">
<path d="M43.4339 32.9656C41.9092 34.4491 39.9313 35.1496 37.8298 35.1496C32.3493 35.1496 30.0005 31.3586 30.0005 27.5264C29.9593 23.6529 32.5141 19.7383 37.8298 19.7383C39.8489 19.7383 41.7444 20.48 43.2691 22.0047L41.4148 23.8177C40.4258 22.87 39.1484 22.4167 37.8298 22.4167C34.2448 22.4167 32.7201 25.0952 32.7201 27.5676C32.7613 29.9988 34.1624 32.5948 37.8298 32.5948C39.1072 32.5948 40.5906 32.0591 41.5384 31.1113L43.4339 32.9656Z" fill="#045F87"/>
<path d="M57.7729 20.0259V28.5145C57.7729 32.8824 55.0945 35.1076 51.3859 35.1076C47.8421 35.1076 44.834 32.9648 44.834 28.5145V20.0259H47.5948V28.5145C47.5948 31.1929 49.1195 32.5939 51.4271 32.5939C53.7346 32.5939 55.0533 31.0693 55.0533 28.5145V20.0259H57.7729Z" fill="#045F87"/>
<path d="M73.5959 34.8193H70.2994L65.9727 29.8745H63.2942V34.8193H60.4922V19.9849C62.841 19.9849 65.1898 20.0261 67.5385 20.0261C71.0411 20.0673 72.8542 22.3749 72.8542 24.9297C72.8542 26.9488 71.9065 29.0091 69.1044 29.586L73.5959 34.6133V34.8193ZM63.2942 22.6221V27.3609H67.5385C69.3104 27.3609 70.0934 26.1659 70.0934 25.0121C70.0934 23.8583 69.3104 22.6633 67.5385 22.6633H63.2942V22.6221Z" fill="#045F87"/>
<path d="M85.2179 32.017H77.471L76.1936 34.8191H73.1855L79.8198 20.0259H82.8691L89.5446 34.8191H86.4953L85.2179 32.017ZM81.3857 23.1164L78.6248 29.421H84.1053L81.3857 23.1164Z" fill="#045F87"/>
<path d="M92.1819 22.5397H87.4844V19.9849C91.7699 19.9849 95.3549 19.9849 99.6404 19.9849V22.5397H94.9428V34.7781H92.1407V22.5397H92.1819Z" fill="#045F87"/>
<path d="M112.372 34.8191H101.287C101.287 29.9155 101.287 24.9707 101.287 20.0259H112.372V22.7455H104.089V26.1657H112.083V28.7617H104.089V32.0995H112.372V34.8191Z" fill="#045F87"/>
<path d="M127.536 27.2783C127.618 31.0281 125.311 34.8191 120.16 34.8191C118.347 34.8191 116.163 34.8191 114.35 34.8191V20.0259C116.163 20.0259 118.347 20.0259 120.16 20.0259C125.228 20.0259 127.495 23.6521 127.536 27.2783ZM117.11 32.1407H120.16C123.539 32.1407 124.857 29.7095 124.775 27.2783C124.693 24.9707 123.374 22.6631 120.16 22.6631H117.11V32.1407Z" fill="#045F87"/>
<path d="M30.6602 0.288447C31.6491 0.12362 33.0914 0 34.6984 0C36.6763 0 38.0774 0.288447 39.0251 1.03017C39.8081 1.64827 40.2613 2.59603 40.2613 3.83223C40.2613 5.52171 39.0663 6.7167 37.9125 7.12877V7.16998C38.8603 7.54084 39.3548 8.44739 39.6844 9.64238C40.0965 11.1258 40.5086 12.8977 40.7558 13.3922H37.6653C37.4593 13.0213 37.1296 11.9088 36.7176 10.3017C36.3467 8.65342 35.7698 8.20014 34.5748 8.15894H33.6683V13.3922H30.7014V0.288447H30.6602ZM33.6683 6.01619H34.8632C36.3467 6.01619 37.2532 5.27447 37.2532 4.07947C37.2532 2.84327 36.4291 2.22517 35.0281 2.22517C34.2864 2.22517 33.8743 2.26637 33.6683 2.30758V6.01619Z" fill="#E2A6D6"/>
<path d="M50.8101 7.78818H45.9065V10.9611H51.387V13.4335H42.8984V0.0825195H51.1398V2.55492H45.9477V5.35698H50.8101V7.78818Z" fill="#E2A6D6"/>
<path d="M56.6221 2.63734H53.0371V0.0825195H63.2976V2.59613H59.6714V13.3923H56.6633V2.63734H56.6221Z" fill="#E2A6D6"/>
<path d="M67.0463 10.0133L66.0985 13.4335H62.9668L67.0463 0.0825195H71.0021L75.1228 13.4335H71.8675L70.8373 10.0133H67.0463ZM70.4252 7.74697L69.6011 4.90371C69.3538 4.12078 69.1066 3.13182 68.9418 2.34889H68.9006C68.6945 3.13182 68.4885 4.16199 68.2825 4.90371L67.4995 7.74697H70.4252Z" fill="#E2A6D6"/>
<path d="M80.4378 0.0825195V13.4335H77.4297V0.0825195H80.4378Z" fill="#E2A6D6"/>
<path d="M83.5684 0.0825195H86.5765V10.8787H91.8921V13.3923H83.5684V0.0825195Z" fill="#E2A6D6"/>
<path d="M7 24L10 27L20 17" stroke="#E2A6D6" stroke-width="2" stroke-linecap="round" stroke-linejoin="round"/>
<path d="M19 25V32C19 32.5304 18.7893 33.0391 18.4142 33.4142C18.0391 33.7893 17.5304 34 17 34H3C2.46957 34 1.96086 33.7893 1.58579 33.4142C1.21071 33.0391 1 32.5304 1 32V18C1 17.4696 1.21071 16.9609 1.58579 16.5858C1.96086 16.2107 2.46957 16 3 16H14" stroke="#045F87" stroke-width="2" stroke-linecap="round" stroke-linejoin="round"/>
<path d="M32.4121 45.0303H32.9004C33.3789 45.0303 33.7321 44.9505 33.96 44.791C34.1878 44.6315 34.3018 44.3809 34.3018 44.0391C34.3018 43.7005 34.1846 43.4596 33.9502 43.3164C33.7191 43.1732 33.3594 43.1016 32.8711 43.1016H32.4121V45.0303ZM32.4121 46.2607V49H30.8984V41.8613H32.9785C33.9486 41.8613 34.6663 42.0387 35.1318 42.3936C35.5973 42.7451 35.8301 43.2806 35.8301 44C35.8301 44.4199 35.7145 44.7943 35.4834 45.123C35.2523 45.4486 34.9251 45.7041 34.502 45.8896C35.5762 47.4945 36.276 48.5312 36.6016 49H34.9219L33.2178 46.2607H32.4121ZM41.6113 49H37.5V41.8613H41.6113V43.1016H39.0137V44.6689H41.4307V45.9092H39.0137V47.75H41.6113V49ZM49.585 45.4209C49.585 46.2607 49.4352 46.9655 49.1357 47.5352C48.8395 48.1016 48.4033 48.5166 47.8271 48.7803L49.5459 50.6992H47.6074L46.2988 49.0977H46.1865C45.0928 49.0977 44.2529 48.7803 43.667 48.1455C43.0811 47.5107 42.7881 46.5993 42.7881 45.4111C42.7881 44.223 43.0811 43.3164 43.667 42.6914C44.2562 42.0632 45.0993 41.749 46.1963 41.749C47.2933 41.749 48.1315 42.0648 48.7109 42.6963C49.2936 43.3278 49.585 44.236 49.585 45.4209ZM44.375 45.4209C44.375 46.2184 44.5264 46.819 44.8291 47.2227C45.1318 47.6263 45.5843 47.8281 46.1865 47.8281C47.3942 47.8281 47.998 47.0257 47.998 45.4209C47.998 43.8128 47.3975 43.0088 46.1963 43.0088C45.5941 43.0088 45.14 43.2122 44.834 43.6191C44.528 44.0228 44.375 44.6234 44.375 45.4209ZM56.875 41.8613V46.4805C56.875 47.0078 56.7562 47.4701 56.5186 47.8672C56.2842 48.2643 55.944 48.5687 55.498 48.7803C55.0521 48.9919 54.5247 49.0977 53.916 49.0977C52.998 49.0977 52.2852 48.8633 51.7773 48.3945C51.2695 47.9225 51.0156 47.278 51.0156 46.4609V41.8613H52.5244V46.2314C52.5244 46.7816 52.6351 47.1852 52.8564 47.4424C53.0778 47.6995 53.444 47.8281 53.9551 47.8281C54.4499 47.8281 54.8079 47.6995 55.0293 47.4424C55.2539 47.182 55.3662 46.7751 55.3662 46.2217V41.8613H56.875ZM62.7344 49H58.623V41.8613H62.7344V43.1016H60.1367V44.6689H62.5537V45.9092H60.1367V47.75H62.7344V49ZM68.4424 47.0176C68.4424 47.6621 68.2096 48.1699 67.7441 48.541C67.2819 48.9121 66.6374 49.0977 65.8105 49.0977C65.0488 49.0977 64.375 48.9544 63.7891 48.668V47.2617C64.2708 47.4766 64.6777 47.6279 65.0098 47.7158C65.3451 47.8037 65.651 47.8477 65.9277 47.8477C66.2598 47.8477 66.5137 47.7842 66.6895 47.6572C66.8685 47.5303 66.958 47.3415 66.958 47.0908C66.958 46.9508 66.9189 46.8271 66.8408 46.7197C66.7627 46.609 66.6471 46.5033 66.4941 46.4023C66.3444 46.3014 66.0368 46.1403 65.5713 45.9189C65.1351 45.7139 64.8079 45.5169 64.5898 45.3281C64.3717 45.1393 64.1976 44.9196 64.0674 44.6689C63.9372 44.4183 63.8721 44.1253 63.8721 43.79C63.8721 43.1585 64.0853 42.6621 64.5117 42.3008C64.9414 41.9395 65.5339 41.7588 66.2891 41.7588C66.6602 41.7588 67.0133 41.8027 67.3486 41.8906C67.6872 41.9785 68.0404 42.1022 68.4082 42.2617L67.9199 43.4385C67.5391 43.2822 67.2233 43.1732 66.9727 43.1113C66.7253 43.0495 66.4811 43.0186 66.2402 43.0186C65.9538 43.0186 65.734 43.0853 65.5811 43.2188C65.4281 43.3522 65.3516 43.5264 65.3516 43.7412C65.3516 43.8747 65.3825 43.9919 65.4443 44.0928C65.5062 44.1904 65.6038 44.2865 65.7373 44.3809C65.874 44.472 66.1947 44.638 66.6992 44.8789C67.3665 45.1979 67.8239 45.5186 68.0713 45.8408C68.3187 46.1598 68.4424 46.5521 68.4424 47.0176ZM72.4902 49H70.9766V43.1211H69.0381V41.8613H74.4287V43.1211H72.4902V49ZM79.6387 49H75.5273V41.8613H79.6387V43.1016H77.041V44.6689H79.458V45.9092H77.041V47.75H79.6387V49ZM87.0557 45.3623C87.0557 46.5374 86.7204 47.4375 86.0498 48.0625C85.3825 48.6875 84.4173 49 83.1543 49H81.1328V41.8613H83.374C84.5394 41.8613 85.4443 42.1689 86.0889 42.7842C86.7334 43.3994 87.0557 44.2588 87.0557 45.3623ZM85.4834 45.4014C85.4834 43.8682 84.8063 43.1016 83.4521 43.1016H82.6465V47.75H83.2959C84.7542 47.75 85.4834 46.9671 85.4834 45.4014Z" fill="#045F87"/>
</svg>
