<svg width="136" height="31" viewBox="0 0 136 31" fill="none" xmlns="http://www.w3.org/2000/svg">
<path d="M44.3924 28.8155C42.8725 30.2992 40.9007 30.9998 38.8056 30.9998C33.342 30.9998 31.0005 27.2082 31.0005 23.3755C30.9594 19.5016 33.4653 15.5864 38.8056 15.5864C40.8185 15.5864 42.7082 16.3282 44.2281 17.8531L42.3795 19.6664C41.3936 18.7185 40.1202 18.2652 38.8056 18.2652C35.2317 18.2652 33.6707 20.9028 33.7117 23.3755C33.7528 25.807 35.1495 28.4034 38.8056 28.4034C40.0791 28.4034 41.5579 27.8676 42.5028 26.9198L44.3924 28.8155Z" fill="#045F87"/>
<path d="M58.647 15.9155V24.4052C58.647 28.7737 55.9768 30.9992 52.2797 30.9992C48.7469 30.9992 45.748 28.8561 45.748 24.4052V15.9155H48.5004V24.4052C48.5004 27.084 50.0203 28.4852 52.3208 28.4852C54.6212 28.4852 55.9358 26.9604 55.9358 24.4052V15.9155H58.647Z" fill="#045F87"/>
<path d="M74.4637 30.6697H71.1773L66.864 25.7242H64.1938V30.6697H61.4004V15.8745C63.7419 15.8745 66.0835 15.9157 68.425 15.9157C71.9167 15.9569 73.7242 18.2648 73.7242 20.82C73.7242 22.8394 72.7794 24.9 69.986 25.4769L74.4637 30.546V30.6697ZM64.1938 18.4709V23.2103H68.425C70.1914 23.2103 70.9719 22.0151 70.9719 20.8612C70.9719 19.7072 70.1914 18.5121 68.425 18.5121H64.1938V18.4709Z" fill="#045F87"/>
<path d="M86.046 27.8672H78.323L77.0496 30.6697H74.0508L80.6646 15.8745H83.7045L90.3594 30.6697H87.3195L86.046 27.8672ZM82.2256 19.0066L79.4733 25.3121H84.9369L82.2256 19.0066Z" fill="#045F87"/>
<path d="M92.9897 18.4297H88.3066V15.8745C92.5789 15.8745 96.1528 15.8745 100.425 15.8745V18.4297H95.742V30.6697H92.9486V18.4297H92.9897Z" fill="#045F87"/>
<path d="M113.119 30.6697H102.068C102.068 25.7654 102.068 20.82 102.068 15.8745H113.119V18.5945H104.862V22.0151H112.831V24.6115H104.862V27.9085H113.119V30.6697Z" fill="#045F87"/>
<path d="M128.235 23.1691C128.317 26.9194 126.017 30.7109 120.882 30.7109C119.075 30.7109 116.897 30.7109 115.09 30.7109V15.8745C116.897 15.8745 119.075 15.8745 120.882 15.8745C125.935 15.8745 128.194 19.5012 128.235 23.1691ZM117.842 27.9909H120.882C124.251 27.9909 125.565 25.5594 125.483 23.1278C125.401 20.82 124.086 18.5121 120.882 18.5121H117.842V27.9909Z" fill="#045F87"/>
<path fill-rule="evenodd" clip-rule="evenodd" d="M1.03913 13.204L0.998047 9.78342C0.998047 9.41251 1.20344 9.12402 1.491 9.12402H3.87361C4.16117 9.12402 4.36657 9.41251 4.36657 9.74221L4.40765 13.1628C4.40765 13.5337 4.20225 13.8222 3.91469 13.8222H1.53208C1.24452 13.8222 1.03913 13.5337 1.03913 13.204Z" fill="#FF3366"/>
<path fill-rule="evenodd" clip-rule="evenodd" d="M1.03913 19.7983L0.998047 16.3777C0.998047 16.0067 1.20344 15.7183 1.491 15.7183H3.87361C4.16117 15.7183 4.36657 16.0067 4.36657 16.3364L4.40765 19.757C4.40765 20.128 4.20225 20.4164 3.91469 20.4164H1.53208C1.24452 20.4164 1.03913 20.128 1.03913 19.7983Z" fill="#FF3366"/>
<path fill-rule="evenodd" clip-rule="evenodd" d="M5.39459 13.1625L5.35352 9.74191C5.35352 9.37101 5.55891 9.08252 5.84647 9.08252H8.22908C8.51664 9.08252 8.72204 9.371 8.72204 9.7007L8.76312 13.1213C8.76312 13.4922 8.55772 13.7807 8.27016 13.7807H5.88755C5.64107 13.7807 5.39459 13.4922 5.39459 13.1625Z" fill="#045F87"/>
<path fill-rule="evenodd" clip-rule="evenodd" d="M9.66608 24.2904L9.625 20.8698C9.625 20.4989 9.8304 20.2104 10.118 20.2104H12.5006C12.7881 20.2104 12.9935 20.4989 12.9935 20.8286L13.0346 24.2492C13.0346 24.6201 12.8292 24.9086 12.5416 24.9086H10.159C9.91256 24.9498 9.66608 24.6614 9.66608 24.2904Z" fill="#FF3366"/>
<path fill-rule="evenodd" clip-rule="evenodd" d="M9.625 18.7265V15.3059C9.625 14.935 9.8304 14.6465 10.118 14.6465H12.5006C12.7881 14.6465 12.9935 14.935 12.9935 15.2647L13.0346 18.6853C13.0346 19.0562 12.8292 19.3447 12.5416 19.3447H10.159C9.87148 19.3447 9.625 19.0562 9.625 18.7265Z" fill="#045F87"/>
<path fill-rule="evenodd" clip-rule="evenodd" d="M9.58405 13.122L9.54297 9.70139C9.54297 9.33048 9.74837 9.04199 10.0359 9.04199H12.4185C12.7061 9.04199 12.9115 9.33048 12.9115 9.66017L12.9526 13.0808C12.9526 13.4517 12.7472 13.7402 12.4596 13.7402H10.077C9.83053 13.7814 9.58405 13.4929 9.58405 13.122Z" fill="#FF3366"/>
<path fill-rule="evenodd" clip-rule="evenodd" d="M13.8555 24.2485L13.8145 20.8279C13.8145 20.4569 14.0199 20.1685 14.3074 20.1685H16.69C16.9776 20.1685 17.183 20.4569 17.183 20.7866L17.2241 24.2072C17.2241 24.5782 17.0187 24.8666 16.7311 24.8666H14.3485C14.102 24.9079 13.8555 24.6194 13.8555 24.2485Z" fill="#045F87"/>
<path fill-rule="evenodd" clip-rule="evenodd" d="M13.8145 18.6855L13.7734 15.2649C13.7734 14.894 13.9788 14.6055 14.2664 14.6055H16.649C16.9366 14.6055 17.142 14.894 17.142 15.2237L17.183 18.6443C17.183 19.0152 16.9776 19.3037 16.6901 19.3037H14.3075C14.061 19.3037 13.8145 19.0152 13.8145 18.6855Z" fill="#FF3366"/>
<path fill-rule="evenodd" clip-rule="evenodd" d="M13.7734 13.0805V9.65988C13.7734 9.28897 13.9788 9.00049 14.2664 9.00049H16.649C16.9366 9.00049 17.142 9.28897 17.142 9.61867L17.183 13.0393C17.183 13.4102 16.9776 13.6987 16.6901 13.6987H14.3075C14.0199 13.7399 13.7734 13.4514 13.7734 13.0805Z" fill="#045F87"/>
<path fill-rule="evenodd" clip-rule="evenodd" d="M5.10553 7.43498L5.06445 4.01437C5.06445 3.64346 5.26985 3.35498 5.55741 3.35498H7.94002C8.22758 3.35498 8.43297 3.64347 8.43297 3.97316L8.47405 7.39377C8.47405 7.76468 8.26866 8.05316 7.9811 8.05316H5.59849C5.31093 8.09437 5.10553 7.80589 5.10553 7.43498Z" fill="#FF3366"/>
<path fill-rule="evenodd" clip-rule="evenodd" d="M9.54303 7.39299L9.50195 3.97238C9.50195 3.60147 9.70735 3.31299 9.99491 3.31299H12.3775C12.6651 3.31299 12.8705 3.60147 12.8705 3.93117L12.9116 7.35178C12.9116 7.72269 12.7062 8.01117 12.4186 8.01117H10.036C9.78951 8.01117 9.54303 7.72268 9.54303 7.39299Z" fill="#FF3366"/>
<path fill-rule="evenodd" clip-rule="evenodd" d="M13.7324 7.35197V3.93137C13.7324 3.56046 13.9378 3.27197 14.2254 3.27197H16.608C16.8955 3.27197 17.1009 3.56046 17.1009 3.89015L17.142 7.31076C17.142 7.68167 16.9366 7.97016 16.6491 7.97016H14.2665C13.9789 7.97016 13.7324 7.72288 13.7324 7.35197Z" fill="#FF3366"/>
<path fill-rule="evenodd" clip-rule="evenodd" d="M17.8418 18.6445V15.2238C17.8418 14.8529 18.0472 14.5645 18.3348 14.5645H20.7174C21.0049 14.5645 21.2103 14.8529 21.2103 15.1826L21.2514 18.6032C21.2514 18.9741 21.046 19.2626 20.7584 19.2626H18.3758C18.0883 19.3038 17.8418 19.0154 17.8418 18.6445Z" fill="#045F87"/>
<path fill-rule="evenodd" clip-rule="evenodd" d="M17.7988 13.0805V9.65988C17.7988 9.28897 18.0042 9.00049 18.2918 9.00049H20.6744C20.962 9.00049 21.1673 9.28897 21.1673 9.61867L21.2084 13.0393C21.2084 13.4102 21.003 13.6987 20.7155 13.6987H18.3329C18.0453 13.6987 17.8399 13.4102 17.7988 13.0805Z" fill="#FF3366"/>
<path fill-rule="evenodd" clip-rule="evenodd" d="M17.7578 7.31096V3.89035C17.7578 3.51944 17.9632 3.23096 18.2508 3.23096H20.6334C20.9209 3.23096 21.1263 3.51944 21.1263 3.84914L21.1674 7.26974C21.1674 7.64065 20.962 7.92914 20.6745 7.92914H18.2918C18.0043 7.97035 17.7989 7.68186 17.7578 7.31096Z" fill="#045F87"/>
<path d="M19.8424 16.5596L15.0508 22.1011L15.6093 22.5872L20.401 17.0458L19.8424 16.5596Z" fill="#045F87"/>
<path d="M19.3478 5.97664L14.5547 11.5166L15.1131 12.0029L19.9062 6.4629L19.3478 5.97664Z" fill="#045F87"/>
<path d="M31 1.10476C31.6278 1.01478 32.5247 0.924805 33.5412 0.924805C34.7968 0.924805 35.6638 1.10476 36.2916 1.58464C36.7998 2.00454 37.0689 2.5744 37.0689 3.3842C37.0689 4.46393 36.2916 5.21375 35.5741 5.48368V5.51368C36.172 5.75362 36.5009 6.32348 36.7102 7.10328C36.9792 8.06305 37.2483 9.17277 37.3978 9.50269H35.4246C35.2751 9.26275 35.0958 8.57292 34.8267 7.52318C34.5875 6.47344 34.2288 6.17351 33.4515 6.17351H32.8835V9.50269H31V1.10476ZM32.9134 4.76386H33.6608C34.6174 4.76386 35.1855 4.28398 35.1855 3.53416C35.1855 2.75435 34.6473 2.36445 33.7803 2.36445C33.302 2.36445 33.0628 2.39444 32.9134 2.42444V4.76386Z" fill="#FF3366"/>
<path d="M40.1791 7.01191C40.2389 7.79172 41.0162 8.18162 41.9131 8.18162C42.5708 8.18162 43.0791 8.09164 43.6172 7.94168L43.8564 9.23136C43.2285 9.4713 42.4512 9.62126 41.644 9.62126C39.5513 9.62126 38.3555 8.42156 38.3555 6.47204C38.3555 4.91242 39.3121 3.17285 41.4647 3.17285C43.4378 3.17285 44.2151 4.73247 44.2151 6.26209C44.2151 6.59201 44.1852 6.89194 44.1553 7.01191H40.1791ZM42.4213 5.69223C42.4213 5.21235 42.2121 4.43254 41.3451 4.43254C40.5379 4.43254 40.209 5.15236 40.1791 5.69223H42.4213Z" fill="#FF3366"/>
<path d="M47.7713 1.55273V3.3223H49.1465V4.73195H47.7713V6.95141C47.7713 7.70122 47.9507 8.03114 48.5187 8.03114C48.7579 8.03114 48.9373 8.00115 49.0868 7.97115V9.4108C48.8476 9.50078 48.3693 9.56076 47.8311 9.56076C47.2033 9.56076 46.6951 9.35081 46.3961 9.0209C46.0374 8.66098 45.858 8.06113 45.858 7.19135V4.73195H45.0508V3.3223H45.858V1.97263L47.7713 1.55273Z" fill="#FF3366"/>
<path d="M54.0506 9.4713L53.931 8.84146H53.9011C53.5124 9.32134 52.8846 9.59127 52.1372 9.59127C50.8816 9.59127 50.1641 8.69149 50.1641 7.70174C50.1641 6.11213 51.5991 5.33232 53.7815 5.33232V5.24234C53.7815 4.91242 53.6021 4.46253 52.6753 4.46253C52.0475 4.46253 51.3898 4.67248 50.9713 4.94242L50.6125 3.71272C51.031 3.47278 51.8681 3.17285 53.0042 3.17285C55.0371 3.17285 55.6948 4.37256 55.6948 5.84219V7.97167C55.6948 8.57152 55.7247 9.14138 55.7845 9.4713H54.0506ZM53.8413 6.56202C52.8248 6.56202 52.0475 6.80196 52.0475 7.52178C52.0475 8.00166 52.3764 8.2416 52.7949 8.2416C53.2733 8.2416 53.6619 7.94168 53.7815 7.52178C53.8114 7.4318 53.8114 7.31183 53.8114 7.19186V6.56202H53.8413Z" fill="#FF3366"/>
<path d="M59.4909 1.61308C59.4909 2.15295 59.1022 2.57285 58.4744 2.57285C57.8765 2.57285 57.4579 2.15295 57.4878 1.61308C57.4878 1.07322 57.8765 0.65332 58.5043 0.65332C59.1321 0.65332 59.461 1.04322 59.4909 1.61308ZM57.5177 9.47115V3.32266H59.4311V9.47115H57.5177Z" fill="#FF3366"/>
<path d="M61.2559 0.533203H63.1692V9.471H61.2559V0.533203Z" fill="#FF3366"/>
<path d="M64.4551 9.98076L67.1457 0.833008H68.4014L65.7107 9.98076H64.4551Z" fill="#FF3366"/>
<path d="M74.5896 5.90219H71.4804V7.91169H74.9483V9.5013H69.5371V0.983398H74.7689V2.57301H71.4804V4.34257H74.5896V5.90219Z" fill="#FF3366"/>
<path d="M81.076 9.32134C80.7472 9.4713 80.0895 9.59127 79.372 9.59127C77.3988 9.59127 76.1133 8.39157 76.1133 6.44205C76.1133 4.64249 77.339 3.17285 79.641 3.17285C80.1493 3.17285 80.6874 3.26283 81.1059 3.41279L80.807 4.82245C80.5678 4.73247 80.2389 4.64249 79.7307 4.64249C78.7142 4.64249 78.0864 5.36231 78.0864 6.38206C78.0864 7.52178 78.8338 8.12163 79.7606 8.12163C80.209 8.12163 80.5678 8.03166 80.8668 7.94168L81.076 9.32134Z" fill="#FF3366"/>
<path d="M88.3704 6.32208C88.3704 8.57152 86.7859 9.62126 85.1416 9.62126C83.3479 9.62126 81.9727 8.45155 81.9727 6.44205C81.9727 4.46253 83.2881 3.17285 85.2612 3.17285C87.1148 3.17285 88.3704 4.46253 88.3704 6.32208ZM83.9159 6.38206C83.9159 7.4318 84.3643 8.2416 85.1715 8.2416C85.9189 8.2416 86.3973 7.49179 86.3973 6.38206C86.3973 5.45229 86.0385 4.52252 85.1715 4.52252C84.2747 4.55251 83.9159 5.48228 83.9159 6.38206Z" fill="#FF3366"/>
<path d="M89.8645 5.27233C89.8645 4.49253 89.8346 3.86268 89.8047 3.29282H91.4191L91.5088 4.13262H91.5387C91.8077 3.74271 92.3459 3.17285 93.3922 3.17285C94.1695 3.17285 94.7973 3.56276 95.0664 4.22259H95.0963C95.3355 3.92267 95.6045 3.65273 95.8736 3.47278C96.2025 3.26283 96.5911 3.17285 97.0396 3.17285C98.2055 3.17285 99.1024 4.01264 99.1024 5.84219V9.4713H97.2488V6.14212C97.2488 5.24234 96.9499 4.73247 96.3519 4.73247C95.9035 4.73247 95.6045 5.03239 95.485 5.39231C95.4252 5.54227 95.3953 5.72222 95.3953 5.87219V9.4713H93.5716V6.02215C93.5716 5.24234 93.3025 4.70247 92.7046 4.70247C92.2263 4.70247 91.9273 5.09238 91.8077 5.39231C91.7479 5.54227 91.718 5.72222 91.718 5.87219V9.4713H89.8645V5.27233Z" fill="#FF3366"/>
<path d="M100.988 5.27233C100.988 4.49253 100.958 3.86268 100.928 3.29282H102.542L102.632 4.13262H102.662C102.931 3.74271 103.469 3.17285 104.515 3.17285C105.293 3.17285 105.92 3.56276 106.189 4.22259H106.219C106.459 3.92267 106.728 3.65273 106.997 3.47278C107.326 3.26283 107.714 3.17285 108.163 3.17285C109.329 3.17285 110.225 4.01264 110.225 5.84219V9.4713H108.372V6.14212C108.372 5.24234 108.073 4.73247 107.475 4.73247C107.027 4.73247 106.728 5.03239 106.608 5.39231C106.548 5.54227 106.518 5.72222 106.518 5.87219V9.4713H104.665V6.02215C104.665 5.24234 104.396 4.70247 103.798 4.70247C103.319 4.70247 103.02 5.09238 102.901 5.39231C102.841 5.54227 102.811 5.72222 102.811 5.87219V9.4713H100.958V5.27233H100.988Z" fill="#FF3366"/>
<path d="M113.572 7.01191C113.632 7.79172 114.409 8.18162 115.306 8.18162C115.963 8.18162 116.472 8.09164 117.01 7.94168L117.249 9.23136C116.621 9.4713 115.844 9.62126 115.037 9.62126C112.944 9.62126 111.748 8.42156 111.748 6.47204C111.748 4.91242 112.705 3.17285 114.857 3.17285C116.83 3.17285 117.608 4.73247 117.608 6.26209C117.608 6.59201 117.578 6.89194 117.548 7.01191H113.572ZM115.814 5.69223C115.814 5.21235 115.605 4.43254 114.738 4.43254C113.93 4.43254 113.602 5.15236 113.572 5.69223H115.814Z" fill="#FF3366"/>
<path d="M119.044 5.33232C119.044 4.43254 119.014 3.83269 118.984 3.29282H120.629L120.688 4.43254H120.748C121.047 3.53276 121.825 3.17285 122.393 3.17285C122.572 3.17285 122.662 3.17285 122.781 3.20284V5.0024C122.632 4.97241 122.482 4.94242 122.273 4.94242C121.555 4.94242 121.107 5.33232 120.958 5.90218C120.928 6.02215 120.928 6.17211 120.928 6.32208V9.44131H119.014V5.33232H119.044Z" fill="#FF3366"/>
<path d="M128.64 9.32134C128.312 9.4713 127.654 9.59127 126.936 9.59127C124.963 9.59127 123.678 8.39157 123.678 6.44205C123.678 4.64249 124.903 3.17285 127.205 3.17285C127.714 3.17285 128.252 3.26283 128.67 3.41279L128.371 4.82245C128.132 4.73247 127.803 4.64249 127.295 4.64249C126.279 4.64249 125.651 5.36231 125.651 6.38206C125.651 7.52178 126.398 8.12163 127.325 8.12163C127.774 8.12163 128.132 8.03166 128.431 7.94168L128.64 9.32134Z" fill="#FF3366"/>
<path d="M131.331 7.01191C131.391 7.79172 132.169 8.18162 133.065 8.18162C133.723 8.18162 134.231 8.09164 134.77 7.94168L135.009 9.23136C134.381 9.4713 133.604 9.62126 132.796 9.62126C130.704 9.62126 129.508 8.42156 129.508 6.47204C129.508 4.91242 130.464 3.17285 132.617 3.17285C134.59 3.17285 135.367 4.73247 135.367 6.26209C135.367 6.59201 135.338 6.89194 135.308 7.01191H131.331ZM133.574 5.69223C133.574 5.21235 133.364 4.43254 132.497 4.43254C131.69 4.43254 131.361 5.15236 131.331 5.69223H133.574Z" fill="#FF3366"/>
</svg>
