<svg width="38" height="71" viewBox="0 0 38 71" fill="none" xmlns="http://www.w3.org/2000/svg">
<ellipse cx="18.5" cy="68" rx="12.5" ry="3" fill="#BCBEC0"/>
<path d="M19.6582 0.229657C19.2633 -0.0765524 18.6928 -0.0765524 18.2979 0.229657C14.7217 3.00741 11.7818 6.61631 9.78522 10.6845C7.78868 14.7527 6.73557 19.3021 6.73557 23.8297V34.1533L0.2194 42.574C0.0658199 42.7709 0 43.0115 0 43.2521V57.6221C0 58.0376 0.2194 58.4095 0.592379 58.5844C0.943418 58.7813 1.38222 58.7375 1.73326 58.5188L8.20554 54.1006H10.3557L9.30254 57.6002C9.19284 57.9283 9.25866 58.3001 9.47806 58.5626C9.69746 58.825 10.0046 59 10.3557 59H27.6443C27.9296 59 28.2148 58.8906 28.4122 58.6719C28.4561 58.6282 28.4781 58.5844 28.5219 58.5626C28.7194 58.2782 28.7852 57.9283 28.6975 57.6002L27.6443 54.1006H29.7945L36.2667 58.5188C36.5958 58.7594 37.0346 58.7813 37.4076 58.5844C37.5173 58.5407 37.6051 58.4751 37.6709 58.3876C37.8684 58.1907 38 57.9064 38 57.6221V43.2521C38 43.0115 37.9122 42.7709 37.7806 42.574L31.2644 34.1533V23.8297C31.2644 19.3021 30.2113 14.7527 28.2148 10.6845C26.1744 6.61631 23.2344 3.00741 19.6582 0.229657ZM6.73557 52.4165L2.194 55.5442V43.6239L6.73557 37.7622V52.4165ZM26.1524 56.8128H11.8037L12.6155 54.1006H25.3406L26.1524 56.8128ZM35.7621 43.6239V55.5442L31.2206 52.4384V37.7622L35.7621 43.6239ZM29.0266 23.8297V51.9134H8.9515V23.8297C8.9515 19.7614 9.87298 15.6495 11.6282 11.975C13.8002 13.4404 16.3672 14.2278 19 14.2278C21.6328 14.2278 24.1998 13.4404 26.3718 11.975C28.1051 15.6495 29.0266 19.7396 29.0266 23.8297ZM25.3187 10.0065C23.4757 11.3188 21.2598 12.0187 18.9781 12.0187C16.6963 12.0187 14.4804 11.3188 12.6374 10.0065C14.2829 7.16311 16.433 4.58221 18.9781 2.48248C21.5231 4.60408 23.6732 7.16311 25.3187 10.0065Z" fill="#FC9000"/>
<path d="M12.3086 28.6309C12.3086 32.223 15.2165 35.1309 18.8086 35.1309C20.6046 35.1309 22.2296 34.4039 23.4056 33.2279C24.5816 32.0519 25.3086 30.4269 25.3086 28.6309C25.3086 25.0388 22.4007 22.1309 18.8086 22.1309C15.2379 22.1309 12.3086 25.0388 12.3086 28.6309ZM23.1704 28.6309C23.1704 31.0256 21.2247 32.9927 18.8086 32.9927C16.4139 32.9927 14.4468 31.047 14.4468 28.6309C14.4468 27.4335 14.9385 26.343 15.7296 25.5519C16.5208 24.7608 17.6112 24.269 18.8086 24.269C21.2247 24.269 23.1704 26.2147 23.1704 28.6309Z" fill="#FC9000"/>
</svg>
