<svg width="39" height="39" viewBox="0 0 39 39" fill="none" xmlns="http://www.w3.org/2000/svg">
<path fill-rule="evenodd" clip-rule="evenodd" d="M19.5002 39C30.2696 39 39 30.2695 39 19.5C39 8.73047 30.2696 0 19.5002 0C8.73039 0 0 8.73047 0 19.5C0 30.2695 8.73039 39 19.5002 39ZM9.69148 33.2105C12.4605 35.1581 15.8144 36.3281 19.4804 36.3281C22.9988 36.3225 26.4302 35.2341 29.3085 33.2105C29.1917 32.433 28.9964 31.692 28.7236 30.99C28.2167 29.7834 27.5145 28.7304 26.6175 27.8334C24.6998 25.9923 22.139 24.9725 19.4804 24.9913C18.5849 24.9896 17.6933 25.1068 16.8287 25.3398C15.9704 25.5738 15.1907 25.8858 14.4493 26.3148C13.7476 26.7439 13.0454 27.2874 12.4605 27.8725C11.8363 28.4574 11.3294 29.1204 10.9006 29.8614C10.4598 30.6195 10.1189 31.4315 9.88629 32.277C9.80827 32.589 9.73025 32.8986 9.69148 33.2105ZM13.0066 15.7946C12.9972 16.6531 13.1696 17.5039 13.5135 18.2906C13.8236 19.0625 14.2883 19.7658 14.8786 20.3552C15.477 20.9438 16.1772 21.4187 16.9454 21.7567C18.557 22.419 20.3649 22.419 21.9765 21.7567C22.7448 21.4187 23.445 20.9438 24.0434 20.3552C24.6332 19.757 25.1088 19.0566 25.4477 18.2882C25.7986 17.5106 25.9546 16.6916 25.9546 15.7946C25.9546 14.9391 25.7986 14.081 25.4477 13.3011C25.0964 12.5235 24.6288 11.8215 24.0434 11.2365C23.4584 10.6539 22.7568 10.1859 21.9765 9.83493C21.1963 9.4839 20.3774 9.32792 19.4804 9.32792C18.6226 9.32792 17.7644 9.4839 16.9847 9.83493C16.2045 10.1859 15.5023 10.6515 14.9174 11.2365C14.3325 11.8215 13.8644 12.521 13.5135 13.3011C13.1627 14.081 13.0066 14.9391 13.0066 15.7946Z" fill="#032F47"/>
</svg>
