<svg width="103" height="22" viewBox="0 0 103 22" fill="none" xmlns="http://www.w3.org/2000/svg">
<path d="M68.9474 11.7436H76.0955L83.7217 0H76.5737L68.9474 11.7436Z" fill="#1C3C70"/>
<path d="M78.0386 11.7436H85.1871L92.8129 0H85.6653L78.0386 11.7436Z" fill="#005EAB"/>
<path d="M87.5088 11.7436H94.6568L102.283 0H95.135L87.5088 11.7436Z" fill="#0097DD"/>
<path d="M3.85061 6.67871V21.3532H0V6.67871H3.85061Z" fill="#333333"/>
<path d="M5.8067 21.3532V6.67872H10.3374L12.6128 11.1861C13.3999 12.6451 14.2289 14.6042 14.8681 16.3245H14.9317C14.7192 14.3868 14.6338 12.3403 14.6338 10.1406V6.67872H18.144V21.3532H14.1018L11.6767 16.476C10.8686 14.9082 9.93248 12.9491 9.25153 11.1638H9.18709C9.27242 13.1452 9.31509 15.3663 9.31509 17.739V21.3532H5.8067Z" fill="#333333"/>
<path d="M29.335 6.67871V9.8794H23.9745V12.6015H29.0154V15.7799H23.9745V21.3532H20.1239V6.67871H29.335Z" fill="#333333"/>
<path d="M34.8676 6.67872V14.9964C34.8676 17.2176 35.6121 18.4797 37.1229 18.4797C38.6538 18.4797 39.3983 17.3254 39.3983 14.9964V6.67872H43.2489V14.778C43.2489 19.3068 41.0362 21.593 37.0158 21.593C33.0807 21.593 31.0178 19.3941 31.0178 14.6693V6.67872H34.8676Z" fill="#333333"/>
<path d="M45.44 17.4342C46.3125 17.8915 47.738 18.3487 49.1626 18.3487C50.481 18.3487 51.1201 17.8915 51.1201 17.1508C51.1201 16.4324 50.4818 16.0188 48.8648 15.4529C46.4396 14.582 44.8452 13.2103 44.8452 11.0337C44.8452 8.44271 46.9717 6.43994 50.5881 6.43994C52.3105 6.43994 53.5235 6.76705 54.4805 7.20201L53.6724 10.3367C53.0559 10.0533 51.9918 9.63974 50.5454 9.63974C49.3759 9.63974 48.7368 10.0756 48.7368 10.728C48.7368 11.4687 49.5031 11.7735 51.3108 12.4705C53.8848 13.4287 55.0552 14.8441 55.0552 16.8896C55.0552 19.4156 53.1194 21.5922 48.9292 21.5922C47.2059 21.5922 45.5262 21.1136 44.7172 20.6777L45.44 17.4342Z" fill="#333333"/>
<path d="M65.4361 15.4314H60.2889V18.1302H66.0535V21.3523H56.4391V6.67871H65.7557V9.8794H60.2889V12.253H65.4361V15.4314Z" fill="#333333"/>
<path d="M68.5257 17.5475C68.5257 16.9253 68.5152 16.403 68.4848 15.936H69.5785L69.6298 16.7364H69.6612C69.9085 16.3139 70.363 15.8139 71.2094 15.8139C71.8695 15.8139 72.3859 16.2141 72.6027 16.8139H72.6236C72.7986 16.5136 73.0059 16.2916 73.2427 16.1365C73.5214 15.9253 73.841 15.8148 74.2537 15.8148C75.0897 15.8148 75.9361 16.4262 75.9361 18.1589V21.348H74.6978V18.3595C74.6978 17.4592 74.4087 16.9262 73.8 16.9262C73.3664 16.9262 73.0468 17.2596 72.9127 17.6482C72.8813 17.7819 72.8509 17.9486 72.8509 18.1037V21.348H71.6126V18.2151C71.6126 17.4592 71.334 16.9262 70.7462 16.9262C70.2716 16.9262 69.9512 17.3264 69.838 17.7043C69.7866 17.838 69.7657 17.9931 69.7657 18.1491V21.3489H68.5274V17.5475H68.5257Z" fill="#333333"/>
<path d="M78.0468 19.0252C78.0782 20.0029 78.7896 20.4254 79.5951 20.4254C80.1837 20.4254 80.606 20.3363 80.9883 20.1812L81.1738 21.126C80.7401 21.3149 80.1419 21.4593 79.4192 21.4593C77.7882 21.4593 76.8286 20.3817 76.8286 18.7257C76.8286 17.2256 77.675 15.8147 79.2851 15.8147C80.916 15.8147 81.4524 17.2595 81.4524 18.4476C81.4524 18.7034 81.4315 18.9031 81.4115 19.0252H78.0468ZM80.2551 18.0697C80.2656 17.5697 80.0592 16.7479 79.2128 16.7479C78.4282 16.7479 78.0982 17.5144 78.0468 18.0697H80.2551Z" fill="#333333"/>
<path d="M87.1072 13.7862V19.8248C87.1072 20.3801 87.1281 20.9799 87.1481 21.3471H86.0126L85.9613 20.4915H85.9404C85.6408 21.0913 85.0321 21.4692 84.2998 21.4692C83.1025 21.4692 82.1533 20.3694 82.1533 18.7026C82.1429 16.8915 83.1957 15.8139 84.4034 15.8139C85.0948 15.8139 85.5903 16.125 85.8176 16.5252H85.8385V13.7862H87.1072ZM85.8385 18.1919C85.8385 18.0805 85.828 17.9477 85.8071 17.8363C85.6939 17.3033 85.2908 16.8692 84.7134 16.8692C83.8984 16.8692 83.4438 17.6473 83.4438 18.6581C83.4438 19.6465 83.8975 20.3694 84.703 20.3694C85.2194 20.3694 85.673 19.9915 85.7967 19.4023C85.828 19.2802 85.8376 19.1465 85.8376 19.0021V18.1919H85.8385Z" fill="#333333"/>
<path d="M88.4701 21.347V16.2639H89.7502V21.347H88.4701ZM88.4701 15.0891V13.8065H89.7502V15.0891H88.4701Z" fill="#333333"/>
<path d="M93.9395 21.3471L93.8568 20.7473H93.8254C93.5154 21.1698 92.9895 21.4692 92.339 21.4692C91.328 21.4692 90.7603 20.6804 90.7603 19.8586C90.7603 18.4923 91.8853 17.8033 93.7427 17.814V17.7248C93.7427 17.3692 93.6086 16.7801 92.7213 16.7801C92.2258 16.7801 91.7103 16.9467 91.3698 17.1803L91.1225 16.2916C91.4943 16.0474 92.1439 15.8139 92.939 15.8139C94.549 15.8139 95.0132 16.9138 95.0132 18.0921V20.0476C95.0132 20.5369 95.0341 21.0147 95.0854 21.348H93.9395V21.3471ZM93.774 18.7035C92.8763 18.6812 92.0194 18.8925 92.0194 19.7142C92.0194 20.2472 92.339 20.4924 92.7422 20.4924C93.2481 20.4924 93.619 20.1367 93.7331 19.7481C93.7645 19.6483 93.774 19.5369 93.774 19.4477V18.7035Z" fill="#333333"/>
</svg>
