<svg width="15" height="15" viewBox="0 0 15 15" fill="none" xmlns="http://www.w3.org/2000/svg">
<path d="M7 1H2C1.44772 1 1 1.44772 1 2V13C1 13.5523 1.44772 14 2 14H13C13.5523 14 14 13.5523 14 13V8" stroke="#FC9200" stroke-linecap="round"/>
<path d="M14.5 1C14.5 0.723858 14.2761 0.5 14 0.5L9.5 0.500001C9.22386 0.5 9 0.723858 9 1C9 1.27614 9.22386 1.5 9.5 1.5L13.5 1.5L13.5 5.5C13.5 5.77614 13.7239 6 14 6C14.2761 6 14.5 5.77614 14.5 5.5L14.5 1ZM8.35355 7.35355L14.3536 1.35355L13.6464 0.646447L7.64645 6.64645L8.35355 7.35355Z" fill="#FC9200"/>
</svg>
