<svg width="38" height="38" viewBox="0 0 38 38" fill="none" xmlns="http://www.w3.org/2000/svg">
<mask id="path-1-outside-1" maskUnits="userSpaceOnUse" x="0" y="0" width="38" height="38" fill="black">
<rect fill="white" width="38" height="38"/>
<path d="M35.6272 20.2129C31.6544 18.1294 26.8021 18.6328 23.3614 21.4225L22.2122 20.2898L24.085 18.444C24.3617 18.1714 24.3617 17.7309 24.085 17.4582C23.8083 17.1855 23.3614 17.1855 23.0847 17.4582L21.2119 19.304L16.6433 14.8014C17.679 13.431 18.3388 11.8159 18.5445 10.0959C18.7786 8.11729 18.4026 6.13864 17.452 4.36974C17.2676 4.02714 16.8419 3.90129 16.4943 4.08308C16.1467 4.26486 16.019 4.68436 16.2034 5.02696C17.7287 7.85859 17.4946 11.2286 15.6359 13.8015L12.628 10.8371C12.2023 10.4176 11.6064 10.2498 11.0247 10.3756C10.443 10.5015 9.9677 10.907 9.76197 11.4593L1.10714 34.6927C0.873032 35.329 1.0291 36.0212 1.5115 36.4966C1.84493 36.8252 2.28476 37 2.73879 37C2.93742 37 3.14315 36.965 3.34179 36.8951L26.9156 28.3792C27.476 28.1765 27.8875 27.715 28.0152 27.1347C28.1429 26.5614 27.9655 25.9671 27.5469 25.5546L24.3617 22.4153C27.3625 20.0591 31.5268 19.6536 34.9532 21.4505C35.3008 21.6322 35.7265 21.4994 35.9109 21.1638C36.1025 20.8142 35.9748 20.3947 35.6272 20.2129ZM2.85229 35.5807C2.68203 35.6436 2.56853 35.5597 2.51178 35.5038C2.45502 35.4478 2.37699 35.336 2.43374 35.1682L4.08667 30.7215L7.35706 33.9446L2.85229 35.5807ZM8.83264 33.4202L4.63292 29.2812L5.36361 27.3095L10.8261 32.7001L8.83264 33.4202ZM12.3017 32.1687L5.90277 25.8622L7.6763 21.0939L17.1328 30.4138L12.3017 32.1687ZM18.6013 29.8894L8.21545 19.6536L8.94615 17.6819L20.6018 29.1693L18.6013 29.8894ZM26.5467 26.5404C26.6531 26.6453 26.646 26.7711 26.6318 26.8341C26.6176 26.897 26.575 27.0089 26.4261 27.0648L22.0703 28.6379L9.4853 16.2347L11.0815 11.9348C11.1311 11.7949 11.2517 11.746 11.3156 11.732C11.3369 11.725 11.3581 11.725 11.3865 11.725C11.4504 11.725 11.5355 11.746 11.6135 11.8159L26.5467 26.5404Z"/>
<path d="M24.4963 6.87571C24.8256 6.66294 24.8988 6.24405 24.6646 5.9515C24.3061 5.49936 24.4232 4.8677 24.9208 4.5419C26.0769 3.79056 26.3477 2.32776 25.5208 1.27721C25.2866 0.978008 24.8256 0.911517 24.5037 1.12429C24.1744 1.33706 24.1012 1.75595 24.3354 2.0485C24.6939 2.50064 24.5768 3.1323 24.0792 3.4581C22.9231 4.20944 22.6523 5.67224 23.4792 6.72278C23.7134 7.02199 24.1671 7.08848 24.4963 6.87571Z"/>
<path d="M27.3464 11.7261C28.5036 12.3249 29.9566 11.9089 30.5812 10.7994C30.8639 10.3014 31.5149 10.1123 32.0343 10.3834C32.3564 10.5473 32.7509 10.4338 32.9219 10.1249C33.0928 9.81604 32.9745 9.43782 32.6523 9.27392C31.4951 8.67506 30.0421 9.09111 29.4175 10.2006C29.1348 10.6986 28.4839 10.8877 27.9644 10.6166C27.6423 10.4527 27.2478 10.5662 27.0768 10.8751C26.9059 11.1777 27.0308 11.5622 27.3464 11.7261Z"/>
<path d="M33 14C33 15.1 33.9 16 35 16C36.1 16 37 15.1 37 14C37 12.9 36.1 12 35 12C33.9 12 33 12.8938 33 14ZM35 13.25C35.4125 13.25 35.75 13.5875 35.75 14C35.75 14.4125 35.4125 14.75 35 14.75C34.5875 14.75 34.25 14.4125 34.25 14C34.25 13.5875 34.5875 13.25 35 13.25Z"/>
<path d="M23.5 14C24.3281 14 25 13.3281 25 12.5C25 11.6719 24.3281 11 23.5 11C22.6719 11 22 11.6719 22 12.5C22 13.3281 22.6797 14 23.5 14ZM23.5 11.9453C23.8125 11.9453 24.0625 12.1953 24.0625 12.5078C24.0625 12.8203 23.8125 13.0703 23.5 13.0703C23.1875 13.0703 22.9375 12.8203 22.9375 12.5078C22.9375 12.1953 23.1953 11.9453 23.5 11.9453Z"/>
<path d="M12 7C13.0973 7 14 6.10506 14 5C14 3.89494 13.1051 3 12 3C10.8949 3 10 3.89494 10 5C10 6.10506 10.8949 7 12 7ZM12 4.2607C12.4125 4.2607 12.7471 4.59533 12.7471 5.00778C12.7471 5.42023 12.4125 5.75486 12 5.75486C11.5875 5.75486 11.2529 5.42023 11.2529 5.00778C11.2529 4.59533 11.5875 4.2607 12 4.2607Z"/>
<path d="M33 6C34.0973 6 35 5.10506 35 4C35 2.89494 34.1051 2 33 2C31.9027 2 31 2.89494 31 4C31 5.10506 31.9027 6 33 6ZM33 3.25292C33.4124 3.25292 33.7471 3.58755 33.7471 4C33.7471 4.41245 33.4124 4.74708 33 4.74708C32.5875 4.74708 32.2529 4.41245 32.2529 4C32.2529 3.58755 32.5875 3.25292 33 3.25292Z"/>
<path d="M33 28C34.0973 28 35 27.1051 35 26C35 24.9027 34.1051 24 33 24C31.9027 24 31 24.8949 31 26C31.0078 27.1051 31.9027 28 33 28ZM33 25.2529C33.4124 25.2529 33.7471 25.5876 33.7471 26C33.7471 26.4125 33.4124 26.7471 33 26.7471C32.5875 26.7471 32.2529 26.4125 32.2529 26C32.2529 25.5953 32.5875 25.2529 33 25.2529Z"/>
</mask>
<path d="M35.6272 20.2129C31.6544 18.1294 26.8021 18.6328 23.3614 21.4225L22.2122 20.2898L24.085 18.444C24.3617 18.1714 24.3617 17.7309 24.085 17.4582C23.8083 17.1855 23.3614 17.1855 23.0847 17.4582L21.2119 19.304L16.6433 14.8014C17.679 13.431 18.3388 11.8159 18.5445 10.0959C18.7786 8.11729 18.4026 6.13864 17.452 4.36974C17.2676 4.02714 16.8419 3.90129 16.4943 4.08308C16.1467 4.26486 16.019 4.68436 16.2034 5.02696C17.7287 7.85859 17.4946 11.2286 15.6359 13.8015L12.628 10.8371C12.2023 10.4176 11.6064 10.2498 11.0247 10.3756C10.443 10.5015 9.9677 10.907 9.76197 11.4593L1.10714 34.6927C0.873032 35.329 1.0291 36.0212 1.5115 36.4966C1.84493 36.8252 2.28476 37 2.73879 37C2.93742 37 3.14315 36.965 3.34179 36.8951L26.9156 28.3792C27.476 28.1765 27.8875 27.715 28.0152 27.1347C28.1429 26.5614 27.9655 25.9671 27.5469 25.5546L24.3617 22.4153C27.3625 20.0591 31.5268 19.6536 34.9532 21.4505C35.3008 21.6322 35.7265 21.4994 35.9109 21.1638C36.1025 20.8142 35.9748 20.3947 35.6272 20.2129ZM2.85229 35.5807C2.68203 35.6436 2.56853 35.5597 2.51178 35.5038C2.45502 35.4478 2.37699 35.336 2.43374 35.1682L4.08667 30.7215L7.35706 33.9446L2.85229 35.5807ZM8.83264 33.4202L4.63292 29.2812L5.36361 27.3095L10.8261 32.7001L8.83264 33.4202ZM12.3017 32.1687L5.90277 25.8622L7.6763 21.0939L17.1328 30.4138L12.3017 32.1687ZM18.6013 29.8894L8.21545 19.6536L8.94615 17.6819L20.6018 29.1693L18.6013 29.8894ZM26.5467 26.5404C26.6531 26.6453 26.646 26.7711 26.6318 26.8341C26.6176 26.897 26.575 27.0089 26.4261 27.0648L22.0703 28.6379L9.4853 16.2347L11.0815 11.9348C11.1311 11.7949 11.2517 11.746 11.3156 11.732C11.3369 11.725 11.3581 11.725 11.3865 11.725C11.4504 11.725 11.5355 11.746 11.6135 11.8159L26.5467 26.5404Z" fill="#FC9000"/>
<path d="M24.4963 6.87571C24.8256 6.66294 24.8988 6.24405 24.6646 5.9515C24.3061 5.49936 24.4232 4.8677 24.9208 4.5419C26.0769 3.79056 26.3477 2.32776 25.5208 1.27721C25.2866 0.978008 24.8256 0.911517 24.5037 1.12429C24.1744 1.33706 24.1012 1.75595 24.3354 2.0485C24.6939 2.50064 24.5768 3.1323 24.0792 3.4581C22.9231 4.20944 22.6523 5.67224 23.4792 6.72278C23.7134 7.02199 24.1671 7.08848 24.4963 6.87571Z" fill="#FC9000"/>
<path d="M27.3464 11.7261C28.5036 12.3249 29.9566 11.9089 30.5812 10.7994C30.8639 10.3014 31.5149 10.1123 32.0343 10.3834C32.3564 10.5473 32.7509 10.4338 32.9219 10.1249C33.0928 9.81604 32.9745 9.43782 32.6523 9.27392C31.4951 8.67506 30.0421 9.09111 29.4175 10.2006C29.1348 10.6986 28.4839 10.8877 27.9644 10.6166C27.6423 10.4527 27.2478 10.5662 27.0768 10.8751C26.9059 11.1777 27.0308 11.5622 27.3464 11.7261Z" fill="#FC9000"/>
<path d="M33 14C33 15.1 33.9 16 35 16C36.1 16 37 15.1 37 14C37 12.9 36.1 12 35 12C33.9 12 33 12.8938 33 14ZM35 13.25C35.4125 13.25 35.75 13.5875 35.75 14C35.75 14.4125 35.4125 14.75 35 14.75C34.5875 14.75 34.25 14.4125 34.25 14C34.25 13.5875 34.5875 13.25 35 13.25Z" fill="#FC9000"/>
<path d="M23.5 14C24.3281 14 25 13.3281 25 12.5C25 11.6719 24.3281 11 23.5 11C22.6719 11 22 11.6719 22 12.5C22 13.3281 22.6797 14 23.5 14ZM23.5 11.9453C23.8125 11.9453 24.0625 12.1953 24.0625 12.5078C24.0625 12.8203 23.8125 13.0703 23.5 13.0703C23.1875 13.0703 22.9375 12.8203 22.9375 12.5078C22.9375 12.1953 23.1953 11.9453 23.5 11.9453Z" fill="#FC9000"/>
<path d="M12 7C13.0973 7 14 6.10506 14 5C14 3.89494 13.1051 3 12 3C10.8949 3 10 3.89494 10 5C10 6.10506 10.8949 7 12 7ZM12 4.2607C12.4125 4.2607 12.7471 4.59533 12.7471 5.00778C12.7471 5.42023 12.4125 5.75486 12 5.75486C11.5875 5.75486 11.2529 5.42023 11.2529 5.00778C11.2529 4.59533 11.5875 4.2607 12 4.2607Z" fill="#FC9000"/>
<path d="M33 6C34.0973 6 35 5.10506 35 4C35 2.89494 34.1051 2 33 2C31.9027 2 31 2.89494 31 4C31 5.10506 31.9027 6 33 6ZM33 3.25292C33.4124 3.25292 33.7471 3.58755 33.7471 4C33.7471 4.41245 33.4124 4.74708 33 4.74708C32.5875 4.74708 32.2529 4.41245 32.2529 4C32.2529 3.58755 32.5875 3.25292 33 3.25292Z" fill="#FC9000"/>
<path d="M33 28C34.0973 28 35 27.1051 35 26C35 24.9027 34.1051 24 33 24C31.9027 24 31 24.8949 31 26C31.0078 27.1051 31.9027 28 33 28ZM33 25.2529C33.4124 25.2529 33.7471 25.5876 33.7471 26C33.7471 26.4125 33.4124 26.7471 33 26.7471C32.5875 26.7471 32.2529 26.4125 32.2529 26C32.2529 25.5953 32.5875 25.2529 33 25.2529Z" fill="#FC9000"/>
<path d="M35.6272 20.2129C31.6544 18.1294 26.8021 18.6328 23.3614 21.4225L22.2122 20.2898L24.085 18.444C24.3617 18.1714 24.3617 17.7309 24.085 17.4582C23.8083 17.1855 23.3614 17.1855 23.0847 17.4582L21.2119 19.304L16.6433 14.8014C17.679 13.431 18.3388 11.8159 18.5445 10.0959C18.7786 8.11729 18.4026 6.13864 17.452 4.36974C17.2676 4.02714 16.8419 3.90129 16.4943 4.08308C16.1467 4.26486 16.019 4.68436 16.2034 5.02696C17.7287 7.85859 17.4946 11.2286 15.6359 13.8015L12.628 10.8371C12.2023 10.4176 11.6064 10.2498 11.0247 10.3756C10.443 10.5015 9.9677 10.907 9.76197 11.4593L1.10714 34.6927C0.873032 35.329 1.0291 36.0212 1.5115 36.4966C1.84493 36.8252 2.28476 37 2.73879 37C2.93742 37 3.14315 36.965 3.34179 36.8951L26.9156 28.3792C27.476 28.1765 27.8875 27.715 28.0152 27.1347C28.1429 26.5614 27.9655 25.9671 27.5469 25.5546L24.3617 22.4153C27.3625 20.0591 31.5268 19.6536 34.9532 21.4505C35.3008 21.6322 35.7265 21.4994 35.9109 21.1638C36.1025 20.8142 35.9748 20.3947 35.6272 20.2129ZM2.85229 35.5807C2.68203 35.6436 2.56853 35.5597 2.51178 35.5038C2.45502 35.4478 2.37699 35.336 2.43374 35.1682L4.08667 30.7215L7.35706 33.9446L2.85229 35.5807ZM8.83264 33.4202L4.63292 29.2812L5.36361 27.3095L10.8261 32.7001L8.83264 33.4202ZM12.3017 32.1687L5.90277 25.8622L7.6763 21.0939L17.1328 30.4138L12.3017 32.1687ZM18.6013 29.8894L8.21545 19.6536L8.94615 17.6819L20.6018 29.1693L18.6013 29.8894ZM26.5467 26.5404C26.6531 26.6453 26.646 26.7711 26.6318 26.8341C26.6176 26.897 26.575 27.0089 26.4261 27.0648L22.0703 28.6379L9.4853 16.2347L11.0815 11.9348C11.1311 11.7949 11.2517 11.746 11.3156 11.732C11.3369 11.725 11.3581 11.725 11.3865 11.725C11.4504 11.725 11.5355 11.746 11.6135 11.8159L26.5467 26.5404Z" stroke="#FC9000" stroke-width="0.4" mask="url(#path-1-outside-1)"/>
<path d="M24.4963 6.87571C24.8256 6.66294 24.8988 6.24405 24.6646 5.9515C24.3061 5.49936 24.4232 4.8677 24.9208 4.5419C26.0769 3.79056 26.3477 2.32776 25.5208 1.27721C25.2866 0.978008 24.8256 0.911517 24.5037 1.12429C24.1744 1.33706 24.1012 1.75595 24.3354 2.0485C24.6939 2.50064 24.5768 3.1323 24.0792 3.4581C22.9231 4.20944 22.6523 5.67224 23.4792 6.72278C23.7134 7.02199 24.1671 7.08848 24.4963 6.87571Z" stroke="#FC9000" stroke-width="0.4" mask="url(#path-1-outside-1)"/>
<path d="M27.3464 11.7261C28.5036 12.3249 29.9566 11.9089 30.5812 10.7994C30.8639 10.3014 31.5149 10.1123 32.0343 10.3834C32.3564 10.5473 32.7509 10.4338 32.9219 10.1249C33.0928 9.81604 32.9745 9.43782 32.6523 9.27392C31.4951 8.67506 30.0421 9.09111 29.4175 10.2006C29.1348 10.6986 28.4839 10.8877 27.9644 10.6166C27.6423 10.4527 27.2478 10.5662 27.0768 10.8751C26.9059 11.1777 27.0308 11.5622 27.3464 11.7261Z" stroke="#FC9000" stroke-width="0.4" mask="url(#path-1-outside-1)"/>
<path d="M33 14C33 15.1 33.9 16 35 16C36.1 16 37 15.1 37 14C37 12.9 36.1 12 35 12C33.9 12 33 12.8938 33 14ZM35 13.25C35.4125 13.25 35.75 13.5875 35.75 14C35.75 14.4125 35.4125 14.75 35 14.75C34.5875 14.75 34.25 14.4125 34.25 14C34.25 13.5875 34.5875 13.25 35 13.25Z" stroke="#FC9000" stroke-width="0.4" mask="url(#path-1-outside-1)"/>
<path d="M23.5 14C24.3281 14 25 13.3281 25 12.5C25 11.6719 24.3281 11 23.5 11C22.6719 11 22 11.6719 22 12.5C22 13.3281 22.6797 14 23.5 14ZM23.5 11.9453C23.8125 11.9453 24.0625 12.1953 24.0625 12.5078C24.0625 12.8203 23.8125 13.0703 23.5 13.0703C23.1875 13.0703 22.9375 12.8203 22.9375 12.5078C22.9375 12.1953 23.1953 11.9453 23.5 11.9453Z" stroke="#FC9000" stroke-width="0.4" mask="url(#path-1-outside-1)"/>
<path d="M12 7C13.0973 7 14 6.10506 14 5C14 3.89494 13.1051 3 12 3C10.8949 3 10 3.89494 10 5C10 6.10506 10.8949 7 12 7ZM12 4.2607C12.4125 4.2607 12.7471 4.59533 12.7471 5.00778C12.7471 5.42023 12.4125 5.75486 12 5.75486C11.5875 5.75486 11.2529 5.42023 11.2529 5.00778C11.2529 4.59533 11.5875 4.2607 12 4.2607Z" stroke="#FC9000" stroke-width="0.4" mask="url(#path-1-outside-1)"/>
<path d="M33 6C34.0973 6 35 5.10506 35 4C35 2.89494 34.1051 2 33 2C31.9027 2 31 2.89494 31 4C31 5.10506 31.9027 6 33 6ZM33 3.25292C33.4124 3.25292 33.7471 3.58755 33.7471 4C33.7471 4.41245 33.4124 4.74708 33 4.74708C32.5875 4.74708 32.2529 4.41245 32.2529 4C32.2529 3.58755 32.5875 3.25292 33 3.25292Z" stroke="#FC9000" stroke-width="0.4" mask="url(#path-1-outside-1)"/>
<path d="M33 28C34.0973 28 35 27.1051 35 26C35 24.9027 34.1051 24 33 24C31.9027 24 31 24.8949 31 26C31.0078 27.1051 31.9027 28 33 28ZM33 25.2529C33.4124 25.2529 33.7471 25.5876 33.7471 26C33.7471 26.4125 33.4124 26.7471 33 26.7471C32.5875 26.7471 32.2529 26.4125 32.2529 26C32.2529 25.5953 32.5875 25.2529 33 25.2529Z" stroke="#FC9000" stroke-width="0.4" mask="url(#path-1-outside-1)"/>
</svg>
