<svg width="33" height="23" viewBox="0 0 33 23" fill="none" xmlns="http://www.w3.org/2000/svg">
<path d="M13.7326 2.50849C14.7969 1.40427 16.2786 0.719452 17.9173 0.719452C20.0957 0.719452 21.9962 1.92899 23.0083 3.72458C23.8879 3.33326 24.8614 3.1156 25.8857 3.1156C29.8147 3.1156 33 6.31498 33 10.2614C33 14.2084 29.8147 17.4077 25.8857 17.4077C25.4062 17.4077 24.9376 17.36 24.4844 17.2687C23.5931 18.8518 21.8947 19.9214 19.9453 19.9214C19.1292 19.9214 18.3573 19.7337 17.67 19.3999C16.7665 21.5162 14.6615 23 12.2081 23C9.65321 23 7.47577 21.3902 6.63996 19.1327C6.2747 19.2099 5.89628 19.2501 5.50799 19.2501C2.46607 19.2501 0 16.7693 0 13.7084C0 11.6573 1.10799 9.86637 2.75423 8.90819C2.4153 8.13163 2.22679 7.27456 2.22679 6.3735C2.22679 2.85347 5.09667 0 8.63641 0C10.7147 0 12.5616 0.983923 13.7326 2.50849Z" fill="#00A1E0"/>
<path d="M19.9825 8.06913C19.921 8.04909 19.8652 8.03557 19.7924 8.02104C19.7187 8.00701 19.6307 8 19.5309 8C19.1829 8 18.9087 8.10419 18.7162 8.30957C18.5247 8.51394 18.3947 8.82501 18.3294 9.23426L18.3058 9.37202H17.8689C17.8689 9.37202 17.8159 9.37001 17.8046 9.43112L17.7332 9.8554C17.728 9.89548 17.7445 9.92102 17.7956 9.92102H18.2207L17.7894 12.4717C17.7559 12.6771 17.7171 12.8459 17.6741 12.9741C17.632 13.1004 17.5908 13.195 17.5398 13.2642C17.4906 13.3303 17.4443 13.3794 17.3639 13.4079C17.2977 13.4315 17.2211 13.4425 17.1374 13.4425C17.0911 13.4425 17.0291 13.4345 16.9832 13.4244C16.9379 13.4149 16.9137 13.4044 16.8792 13.3889C16.8792 13.3889 16.8296 13.3688 16.8097 13.4214C16.7941 13.465 16.6806 13.7951 16.6669 13.8357C16.6537 13.8763 16.6726 13.9078 16.6967 13.9173C16.7534 13.9384 16.7955 13.9524 16.8726 13.9719C16.9795 13.9985 17.0698 14 17.1544 14C17.3313 14 17.493 13.9735 17.6268 13.9224C17.7611 13.8708 17.8783 13.7811 17.9824 13.6599C18.0944 13.5286 18.1649 13.3914 18.232 13.2035C18.2987 13.0182 18.3559 12.7878 18.4013 12.5193L18.8349 9.92102H19.4685C19.4685 9.92102 19.522 9.92303 19.5328 9.86141L19.6047 9.43764C19.6094 9.39706 19.5934 9.37202 19.5418 9.37202H18.9266C18.9271 9.36988 18.9281 9.3631 18.9298 9.3524C18.9391 9.29033 18.9682 9.09633 19.0283 8.91217C19.0586 8.82051 19.1153 8.74587 19.1631 8.69477C19.2103 8.64468 19.2647 8.60912 19.3243 8.58858C19.3853 8.56754 19.4548 8.55752 19.5309 8.55752C19.5886 8.55752 19.6458 8.56454 19.6889 8.57405C19.7484 8.58758 19.7716 8.59459 19.7872 8.5996C19.8501 8.61964 19.8586 8.6001 19.8709 8.56804L20.018 8.14026C20.0331 8.09417 19.9957 8.07464 19.9825 8.06913Z" fill="white"/>
<path d="M5.01669 12.2441C5.00675 12.2342 4.99028 12.2177 5.0075 12.1701L5.14179 11.7753C5.16307 11.7072 5.21177 11.7297 5.23116 11.7428C5.24686 11.7528 5.26093 11.7625 5.2756 11.7725C5.29539 11.7861 5.31627 11.8004 5.3437 11.8174C5.73947 12.0824 6.10592 12.0849 6.22082 12.0849C6.51683 12.0849 6.70029 11.9186 6.70029 11.6952V11.6832C6.70029 11.439 6.41857 11.3472 6.09131 11.2407L6.01797 11.2168C5.5683 11.0806 5.08836 10.8852 5.08836 10.2826V10.2706C5.08836 9.69902 5.52338 9.30029 6.14659 9.30029L6.21468 9.29979C6.58066 9.29979 6.93435 9.4125 7.19016 9.5773C7.21333 9.59233 7.23602 9.62038 7.22326 9.65845C7.21143 9.69351 7.09795 10.0171 7.08471 10.0532C7.0606 10.1208 6.99487 10.0757 6.99487 10.0757C6.77074 9.94447 6.42273 9.84128 6.12956 9.84128C5.86572 9.84128 5.69549 9.98956 5.69549 10.1909V10.2034C5.69549 10.4388 5.98657 10.539 6.32404 10.6552L6.38254 10.6753C6.83032 10.8251 7.30742 11.0325 7.30742 11.6035V11.6155C7.30742 12.2332 6.8847 12.6169 6.2038 12.6169C5.8695 12.6169 5.54986 12.5613 5.2113 12.3709L5.17129 12.3471C5.12099 12.3173 5.07104 12.2877 5.02169 12.2497C5.02055 12.248 5.01876 12.2462 5.01669 12.2441Z" fill="white"/>
<path d="M14.9852 12.2441C14.9752 12.2342 14.9588 12.2177 14.976 12.1701L15.1103 11.7753C15.1301 11.7107 15.1878 11.7343 15.2001 11.7428L15.2228 11.7584C15.2493 11.7767 15.2748 11.7943 15.3122 11.8174C15.708 12.0824 16.0744 12.0849 16.1893 12.0849C16.4853 12.0849 16.6693 11.9186 16.6693 11.6952V11.6832C16.6693 11.4391 16.3874 11.3473 16.0604 11.2409L15.9865 11.2168C15.5368 11.0806 15.0569 10.8852 15.0569 10.2826V10.2706C15.0569 9.69902 15.4919 9.30029 16.1151 9.30029L16.1832 9.29979C16.5492 9.29979 16.9028 9.4125 17.1587 9.5773C17.1818 9.59233 17.2045 9.62038 17.1918 9.65845C17.1799 9.69351 17.0665 10.0171 17.0532 10.0532C17.0291 10.1208 16.9634 10.0757 16.9634 10.0757C16.7392 9.94447 16.3912 9.84128 16.0981 9.84128C15.8342 9.84128 15.664 9.98956 15.664 10.1909V10.2034C15.664 10.4388 15.9551 10.539 16.2925 10.6552L16.351 10.6753C16.7988 10.8251 17.2759 11.0325 17.2759 11.6035V11.6155C17.2759 12.2332 16.8532 12.6169 16.1723 12.6169C15.838 12.6169 15.5184 12.5613 15.1798 12.3709L15.1398 12.3471C15.0895 12.3173 15.0395 12.2877 14.9902 12.2497C14.989 12.248 14.9873 12.2462 14.9852 12.2441Z" fill="white"/>
<path fill-rule="evenodd" clip-rule="evenodd" d="M22.3495 10.3126C22.2937 10.1127 22.2067 9.93642 22.0909 9.78965C21.975 9.64238 21.8284 9.52416 21.6544 9.438C21.4809 9.35235 21.2757 9.30877 21.0454 9.30877C20.8146 9.30877 20.6094 9.35235 20.4359 9.438C20.2619 9.52416 20.1153 9.64238 19.999 9.78965C19.8836 9.93692 19.7966 10.1132 19.7403 10.3126C19.685 10.5115 19.6571 10.7289 19.6571 10.9598C19.6571 11.1907 19.685 11.4086 19.7403 11.607C19.7966 11.8063 19.8831 11.9827 19.9995 12.1299C20.1153 12.2772 20.2624 12.3949 20.4359 12.4786C20.6099 12.5622 20.8146 12.6048 21.0454 12.6048C21.2757 12.6048 21.4804 12.5622 21.6544 12.4786C21.828 12.3949 21.975 12.2772 22.0909 12.1299C22.2067 11.9832 22.2937 11.8068 22.3495 11.607C22.4053 11.4081 22.4332 11.1902 22.4332 10.9598C22.4332 10.7294 22.4053 10.5115 22.3495 10.3126ZM21.7811 10.9598C21.7811 11.3089 21.7197 11.5839 21.5986 11.7783C21.479 11.9706 21.2979 12.0643 21.0454 12.0643C20.7924 12.0643 20.6123 11.9711 20.4945 11.7783C20.3754 11.5844 20.3148 11.3089 20.3148 10.9598C20.3148 10.6112 20.3754 10.3367 20.4945 10.1443C20.6123 9.95395 20.7924 9.86128 21.0454 9.86128C21.2979 9.86128 21.479 9.95395 21.5991 10.1443C21.7197 10.3367 21.7811 10.6112 21.7811 10.9598Z" fill="white"/>
<path d="M26.9439 11.9345C26.9439 11.9345 26.9974 11.9125 27.0163 11.9711L27.1558 12.3794C27.1737 12.43 27.1326 12.451 27.1326 12.451C26.9179 12.5407 26.6191 12.6033 26.3278 12.6033C25.8351 12.6033 25.4573 12.4525 25.2057 12.1559C24.9547 11.8604 24.8275 11.4567 24.8275 10.9573C24.8275 10.7263 24.8587 10.5079 24.9202 10.3091C24.9821 10.1097 25.0748 9.93337 25.1968 9.7861C25.3188 9.63883 25.4729 9.52062 25.6545 9.43496C25.8365 9.3488 26.0493 9.30572 26.2881 9.30572C26.4479 9.30572 26.5917 9.31624 26.7146 9.33628C26.8461 9.35732 27.0201 9.40691 27.0938 9.43746C27.1071 9.44297 27.1439 9.46251 27.1288 9.50809C27.093 9.61688 27.0645 9.69999 27.0345 9.78767L26.9893 9.91985C26.968 9.98196 26.9231 9.96143 26.9231 9.96143C26.7359 9.89881 26.5571 9.87026 26.3226 9.87026C26.0413 9.87026 25.8304 9.96994 25.6918 10.1643C25.5523 10.3597 25.4748 10.6161 25.4739 10.9573C25.4729 11.3319 25.5609 11.6089 25.7178 11.7803C25.8744 11.9516 26.0928 12.0382 26.368 12.0382C26.4801 12.0382 26.5846 12.0302 26.6796 12.0147C26.7732 11.9992 26.8612 11.9681 26.9439 11.9345Z" fill="white"/>
<path fill-rule="evenodd" clip-rule="evenodd" d="M29.9244 10.1997C29.8761 10.0068 29.7565 9.81197 29.678 9.7228C29.5541 9.58154 29.4331 9.48286 29.313 9.42776C29.156 9.35663 28.9678 9.30954 28.7616 9.30954C28.5214 9.30954 28.3035 9.35212 28.1266 9.44028C27.9493 9.52845 27.8003 9.64867 27.6836 9.79844C27.5668 9.94771 27.4788 10.1255 27.423 10.3274C27.3667 10.5283 27.3384 10.7472 27.3384 10.9781C27.3384 11.213 27.3677 11.4319 27.4259 11.6288C27.4845 11.8272 27.5781 12.002 27.7048 12.1467C27.8311 12.2925 27.9937 12.4067 28.1886 12.4864C28.3819 12.5655 28.617 12.6066 28.8869 12.6061C29.4425 12.6041 29.7352 12.4728 29.8558 12.4022C29.8771 12.3897 29.8974 12.3677 29.8719 12.3045L29.7461 11.9314C29.7272 11.8757 29.6738 11.8963 29.6738 11.8963L29.6363 11.9113C29.5 11.9666 29.3006 12.0475 28.8841 12.0466C28.5857 12.0461 28.3645 11.9529 28.2259 11.8071C28.0836 11.6578 28.0141 11.4384 28.0018 11.1289L29.9258 11.1309C29.9258 11.1309 29.9764 11.1299 29.9816 11.0778L29.9827 11.0683C29.9913 11.0021 30.0395 10.6281 29.9244 10.1997ZM28.0108 10.626C28.0377 10.4321 28.0883 10.2708 28.1663 10.1451C28.2841 9.95423 28.4637 9.84953 28.7162 9.84953C28.9687 9.84953 29.1357 9.95473 29.2553 10.1451C29.3347 10.2708 29.3692 10.4391 29.383 10.626H28.0108Z" fill="white"/>
<path fill-rule="evenodd" clip-rule="evenodd" d="M14.2707 9.7228C14.3492 9.81197 14.4683 10.0068 14.5166 10.1997C14.6321 10.6282 14.5839 11.0022 14.5754 11.0684L14.5742 11.0778C14.569 11.1299 14.5184 11.1309 14.5184 11.1309L12.5944 11.1289C12.6067 11.4384 12.6762 11.6578 12.8186 11.8071C12.9571 11.9529 13.1784 12.0461 13.4763 12.0466C13.8934 12.0475 14.0925 11.9667 14.2287 11.9114L14.2664 11.8963C14.2664 11.8963 14.3199 11.8757 14.3392 11.9314L14.4645 12.3045C14.4901 12.3677 14.4697 12.3897 14.4485 12.4022C14.3279 12.4728 14.0352 12.6041 13.4796 12.6061C13.2096 12.6066 12.9746 12.5655 12.7812 12.4864C12.5864 12.4067 12.4237 12.2925 12.2975 12.1467C12.1708 12.002 12.0771 11.8272 12.0185 11.6288C11.9604 11.4319 11.931 11.213 11.931 10.9781C11.931 10.7472 11.9599 10.5283 12.0157 10.3274C12.0715 10.1255 12.1594 9.94771 12.2762 9.79844C12.393 9.64867 12.542 9.52845 12.7193 9.44028C12.8961 9.35212 13.1146 9.30954 13.3543 9.30954C13.5605 9.30954 13.7487 9.35663 13.9056 9.42776C14.0257 9.48286 14.1468 9.58154 14.2707 9.7228ZM12.759 10.1451C12.681 10.2708 12.6308 10.4321 12.6034 10.626H13.9756C13.9619 10.4391 13.9274 10.2708 13.8484 10.1451C13.7283 9.95473 13.5614 9.84953 13.3089 9.84953C13.0564 9.84953 12.8767 9.95423 12.759 10.1451Z" fill="white"/>
<path fill-rule="evenodd" clip-rule="evenodd" d="M9.20949 10.5288C9.13147 10.5228 9.03028 10.5193 8.90923 10.5193C8.74421 10.5193 8.58486 10.5413 8.43544 10.5839C8.28507 10.6265 8.14984 10.6931 8.03352 10.7812C7.91673 10.8699 7.82263 10.9831 7.75454 11.1174C7.68645 11.2516 7.65193 11.4099 7.65193 11.5872C7.65193 11.7676 7.68125 11.9243 7.73988 12.0526C7.79852 12.1813 7.88316 12.2885 7.99096 12.3712C8.09783 12.4538 8.22975 12.5144 8.38295 12.551C8.53379 12.5876 8.70496 12.6061 8.89221 12.6061C9.08938 12.6061 9.28609 12.5891 9.47664 12.5545C9.66531 12.5204 9.897 12.4708 9.96131 12.4553C10.0251 12.4393 10.0961 12.4187 10.0961 12.4187C10.1438 12.4062 10.14 12.3521 10.14 12.3521L10.1391 10.4882C10.1391 10.0795 10.036 9.7764 9.83317 9.58856C9.63126 9.40122 9.33385 9.30654 8.94942 9.30654C8.8052 9.30654 8.57304 9.32758 8.43402 9.35714C8.43402 9.35714 8.01366 9.44329 7.8406 9.58656C7.8406 9.58656 7.80277 9.6116 7.82358 9.66771L7.95976 10.0554C7.97678 10.1055 8.02264 10.0885 8.02264 10.0885C8.02264 10.0885 8.0373 10.0825 8.05433 10.0719C8.42456 9.85856 8.89268 9.86507 8.89268 9.86507C9.10073 9.86507 9.26055 9.90915 9.36836 9.99681C9.47333 10.082 9.52677 10.2107 9.52677 10.4822V10.5684C9.36127 10.5433 9.20949 10.5288 9.20949 10.5288ZM8.44395 11.9609C8.36877 11.8973 8.35836 11.8813 8.33283 11.8402C8.295 11.7776 8.27562 11.6884 8.27562 11.5752C8.27562 11.3959 8.33141 11.2671 8.44726 11.1805C8.44584 11.181 8.61276 11.0277 9.00522 11.0332C9.28089 11.0372 9.52724 11.0803 9.52724 11.0803V12.007C9.52724 12.007 9.28325 12.0626 9.00805 12.0801C8.61654 12.1052 8.44253 11.9604 8.44395 11.9609Z" fill="white"/>
<path d="M24.6981 9.4051C24.7109 9.41011 24.7416 9.43215 24.727 9.47824C24.709 9.53384 24.6154 9.81285 24.5823 9.90602C24.57 9.94159 24.5492 9.96563 24.5123 9.96112C24.5123 9.96112 24.4016 9.93357 24.3009 9.93357C24.2309 9.93357 24.1321 9.94309 24.0427 9.97214C23.9553 10.0007 23.8754 10.0513 23.8049 10.1234C23.7349 10.1961 23.6782 10.2972 23.6366 10.4235C23.594 10.5512 23.5727 10.7546 23.5727 10.9585V12.4772C23.5727 12.5113 23.5467 12.5393 23.5146 12.5393H23.0091C22.977 12.5393 22.9505 12.5113 22.9505 12.4772V9.43716C22.9505 9.4026 22.9736 9.37505 23.0058 9.37505H23.499C23.5311 9.37505 23.5543 9.4026 23.5543 9.43716V9.68512C23.6281 9.58042 23.7605 9.48826 23.8796 9.43115C23.9997 9.37405 24.134 9.33097 24.3756 9.3465C24.5019 9.35501 24.6655 9.39158 24.6981 9.4051Z" fill="white"/>
<path d="M11.3322 12.5393C11.3644 12.5393 11.3876 12.5118 11.3876 12.4777V8.12776C11.3876 8.0937 11.3644 8.06615 11.3322 8.06615H10.822C10.7899 8.06615 10.7672 8.0937 10.7672 8.12776V12.4777C10.7672 12.5118 10.7899 12.5393 10.822 12.5393H11.3322Z" fill="white"/>
</svg>
