<svg width="136" height="38" viewBox="0 0 136 38" fill="none" xmlns="http://www.w3.org/2000/svg">
<path d="M45.0361 35.1917C43.3879 36.7953 41.2497 37.5526 38.9779 37.5526C33.0533 37.5526 30.5142 33.4544 30.5142 29.3117C30.4697 25.1244 33.1869 20.8926 38.9779 20.8926C41.1606 20.8926 43.2097 21.6944 44.8579 23.3426L42.8533 25.3026C41.7842 24.278 40.4033 23.788 38.9779 23.788C35.1024 23.788 33.4542 26.6835 33.4542 29.3562C33.4988 31.9844 35.0133 34.7908 38.9779 34.7908C40.3588 34.7908 41.9624 34.2117 42.987 33.1872L45.0361 35.1917Z" fill="#045F87"/>
<path d="M60.5381 21.2485V30.4249C60.5381 35.1467 57.6426 37.5522 53.6335 37.5522C49.8026 37.5522 46.5508 35.2358 46.5508 30.4249V21.2485H49.5353V30.4249C49.5353 33.3204 51.1835 34.8349 53.6781 34.8349C56.1726 34.8349 57.5981 33.1867 57.5981 30.4249V21.2485H60.5381Z" fill="#045F87"/>
<path d="M77.644 37.196H74.0804L69.4031 31.8505H66.5076V37.196H63.4785V21.2041C66.0176 21.2041 68.5567 21.2486 71.0958 21.2486C74.8822 21.2932 76.8422 23.7877 76.8422 26.5496C76.8422 28.7323 75.8176 30.9596 72.7885 31.5832L77.644 37.0623V37.196ZM66.5076 24.0105V29.1332H71.0958C73.0113 29.1332 73.8576 27.8414 73.8576 26.5941C73.8576 25.3468 73.0113 24.055 71.0958 24.055H66.5076V24.0105Z" fill="#045F87"/>
<path d="M90.2514 34.1669H81.8769L80.496 37.196H77.2441L84.416 21.2041H87.7123L94.8842 37.196H91.5878L90.2514 34.1669ZM86.0642 24.545L83.0796 31.3605H89.0042L86.0642 24.545Z" fill="#045F87"/>
<path d="M97.7794 23.9659H92.7012V21.2041C97.3339 21.2041 101.209 21.2041 105.842 21.2041V23.9659H100.764V37.196H97.7794V23.9659Z" fill="#045F87"/>
<path d="M119.606 37.196H107.623C107.623 31.895 107.623 26.5496 107.623 21.2041H119.606V24.1441H110.652V27.8414H119.294V30.6478H110.652V34.256H119.606V37.196Z" fill="#045F87"/>
<path d="M135.999 29.0441C136.088 33.0978 133.593 37.196 128.025 37.196C126.065 37.196 123.704 37.196 121.744 37.196V21.2041C123.704 21.2041 126.065 21.2041 128.025 21.2041C133.46 21.2041 135.91 25.1241 135.999 29.0441ZM124.729 34.3005H128.025C131.678 34.3005 133.103 31.6723 133.014 29.0441C132.925 26.5496 131.5 24.055 128.025 24.055H124.729V34.3005Z" fill="#045F87"/>
<path fill-rule="evenodd" clip-rule="evenodd" d="M0.0445456 21.5614L0 17.8641C0 17.4632 0.222728 17.1514 0.534547 17.1514H3.11819C3.43001 17.1514 3.65274 17.4632 3.65274 17.8196L3.69728 21.5168C3.69728 21.9177 3.47455 22.2296 3.16273 22.2296H0.579092C0.267273 22.2296 0.0445456 21.9177 0.0445456 21.5614Z" fill="#A8A29A"/>
<path fill-rule="evenodd" clip-rule="evenodd" d="M0.0445456 28.6888L0 24.9915C0 24.5906 0.222728 24.2788 0.534547 24.2788H3.11819C3.43001 24.2788 3.65274 24.5906 3.65274 24.947L3.69728 28.6443C3.69728 29.0452 3.47455 29.357 3.16273 29.357H0.579092C0.267273 29.357 0.0445456 29.0452 0.0445456 28.6888Z" fill="#A8A29A"/>
<path fill-rule="evenodd" clip-rule="evenodd" d="M4.81212 21.5169L4.76758 17.8197C4.76758 17.4188 4.99031 17.1069 5.30212 17.1069H7.88577C8.19759 17.1069 8.42031 17.4188 8.42031 17.7751L8.46486 21.4724C8.46486 21.8733 8.24213 22.1851 7.93031 22.1851H5.34667C5.03485 22.1851 4.81212 21.8733 4.81212 21.5169Z" fill="#045F87"/>
<path fill-rule="evenodd" clip-rule="evenodd" d="M9.44494 33.5433L9.40039 29.846C9.40039 29.4451 9.62312 29.1333 9.93494 29.1333H12.5186C12.8304 29.1333 13.0531 29.4451 13.0531 29.8015L13.0977 33.4988C13.0977 33.8997 12.8749 34.2115 12.5631 34.2115H9.97948C9.66766 34.256 9.44494 33.9442 9.44494 33.5433Z" fill="#A8A29A"/>
<path fill-rule="evenodd" clip-rule="evenodd" d="M9.40001 27.5306L9.35547 23.8333C9.35547 23.4324 9.5782 23.1206 9.89002 23.1206H12.4737C12.7855 23.1206 13.0082 23.4324 13.0082 23.7888L13.0527 27.4861C13.0527 27.887 12.83 28.1988 12.5182 28.1988H9.93456C9.62274 28.1988 9.40001 27.887 9.40001 27.5306Z" fill="#045F87"/>
<path fill-rule="evenodd" clip-rule="evenodd" d="M9.35509 21.472L9.31055 17.7747C9.31055 17.3738 9.53328 17.062 9.84509 17.062H12.4287C12.7406 17.062 12.9633 17.3738 12.9633 17.7302L13.0078 21.4275C13.0078 21.8284 12.7851 22.1402 12.4733 22.1402H9.88964C9.57782 22.1848 9.35509 21.8729 9.35509 21.472Z" fill="#A8A29A"/>
<path fill-rule="evenodd" clip-rule="evenodd" d="M13.9879 33.4989L13.9434 29.8016C13.9434 29.4007 14.1661 29.0889 14.4779 29.0889H17.0615C17.3734 29.0889 17.5961 29.4007 17.5961 29.7571L17.6406 33.4543C17.6406 33.8552 17.4179 34.1671 17.1061 34.1671H14.5225C14.2106 34.2116 13.9879 33.8998 13.9879 33.4989Z" fill="#045F87"/>
<path fill-rule="evenodd" clip-rule="evenodd" d="M13.943 27.4862L13.8984 23.7889C13.8984 23.388 14.1212 23.0762 14.433 23.0762H17.0166C17.3284 23.0762 17.5512 23.388 17.5512 23.7444L17.5957 27.4416C17.5957 27.8425 17.373 28.1544 17.0612 28.1544H14.4775C14.1657 28.1544 13.943 27.8425 13.943 27.4862Z" fill="#A8A29A"/>
<path fill-rule="evenodd" clip-rule="evenodd" d="M13.8981 21.4276L13.8535 17.7303C13.8535 17.3294 14.0762 17.0176 14.3881 17.0176H16.9717C17.2835 17.0176 17.5063 17.3294 17.5063 17.6858L17.5508 21.383C17.5508 21.784 17.3281 22.0958 17.0163 22.0958H14.4326C14.1208 22.1403 13.8981 21.8285 13.8981 21.4276Z" fill="#045F87"/>
<path fill-rule="evenodd" clip-rule="evenodd" d="M4.4547 15.325L4.41016 11.6278C4.41016 11.2269 4.63288 10.915 4.9447 10.915H7.52835C7.84016 10.915 8.06289 11.2269 8.06289 11.5832L8.10744 15.2805C8.10744 15.6814 7.88471 15.9932 7.57289 15.9932H4.98925C4.67743 16.0378 4.4547 15.726 4.4547 15.325Z" fill="#A8A29A"/>
<path fill-rule="evenodd" clip-rule="evenodd" d="M9.31017 15.2806L9.26562 11.5833C9.26562 11.1824 9.48835 10.8706 9.80017 10.8706H12.3838C12.6956 10.8706 12.9184 11.1824 12.9184 11.5388L12.9629 15.2361C12.9629 15.637 12.7402 15.9488 12.4284 15.9488H9.84472C9.5329 15.9488 9.31017 15.637 9.31017 15.2806Z" fill="#A8A29A"/>
<path fill-rule="evenodd" clip-rule="evenodd" d="M13.8531 15.2357L13.8086 11.5384C13.8086 11.1375 14.0313 10.8257 14.3431 10.8257H16.9268C17.2386 10.8257 17.4613 11.1375 17.4613 11.4939L17.5059 15.1911C17.5059 15.5921 17.2831 15.9039 16.9713 15.9039H14.3877C14.0759 15.9039 13.8531 15.5921 13.8531 15.2357Z" fill="#A8A29A"/>
<path fill-rule="evenodd" clip-rule="evenodd" d="M18.3082 27.4413L18.2637 23.744C18.2637 23.3431 18.4864 23.0312 18.7982 23.0312H21.3819C21.6937 23.0312 21.9164 23.3431 21.9164 23.6994L21.961 27.3967C21.961 27.7976 21.7382 28.1094 21.4264 28.1094H18.8428C18.5309 28.154 18.3082 27.8422 18.3082 27.4413Z" fill="#045F87"/>
<path fill-rule="evenodd" clip-rule="evenodd" d="M18.2633 21.4276L18.2188 17.7303C18.2188 17.3294 18.4415 17.0176 18.7533 17.0176H21.3369C21.6488 17.0176 21.8715 17.3294 21.8715 17.6858L21.916 21.383C21.916 21.784 21.6933 22.0958 21.3815 22.0958H18.7978C18.486 22.0958 18.2633 21.784 18.2633 21.4276Z" fill="#A8A29A"/>
<path fill-rule="evenodd" clip-rule="evenodd" d="M18.2184 15.1913L18.1738 11.494C18.1738 11.0931 18.3966 10.7812 18.7084 10.7812H21.292C21.6038 10.7812 21.8266 11.0931 21.8266 11.4494L21.8711 15.1467C21.8711 15.5476 21.6484 15.8594 21.3366 15.8594H18.7529C18.4411 15.904 18.2184 15.5922 18.2184 15.1913Z" fill="#045F87"/>
<path d="M20.4459 25.1998L15.25 31.1895L15.8557 31.7149L21.0516 25.7252L20.4459 25.1998Z" fill="#045F87"/>
<path d="M19.9085 13.7614L14.7109 19.7495L15.3165 20.2751L20.514 14.287L19.9085 13.7614Z" fill="#045F87"/>
<path d="M31.315 10.869C32.1614 11.3145 33.4532 11.7154 34.7896 11.7154C36.2151 11.7154 36.9723 11.1363 36.9723 10.2008C36.9723 9.35445 36.3041 8.86445 34.656 8.24082C32.3396 7.439 30.8696 6.19172 30.8696 4.14262C30.825 1.82626 32.8296 0.0444336 36.0814 0.0444336C37.6405 0.0444336 38.7987 0.356253 39.6005 0.757163L38.8878 3.29626C38.3532 3.02899 37.3287 2.62808 35.9923 2.62808C34.656 2.62808 33.9878 3.25171 33.9878 3.96444C33.9878 4.85535 34.7451 5.25626 36.5714 5.92445C39.0214 6.81536 40.1796 8.10718 40.1796 10.0226C40.1796 12.339 38.3978 14.299 34.6114 14.299C33.0523 14.299 31.4932 13.8981 30.6914 13.4526L31.315 10.869Z" fill="#A8A29A"/>
<path d="M50.9601 8.24063H45.8819V11.537H51.5391V14.1206H42.7637V0.311523H51.2719V2.89517H45.8819V5.74608H50.9601V8.24063Z" fill="#A8A29A"/>
<path d="M64.323 13.6755C63.7439 13.9428 62.4521 14.2546 60.7593 14.2546C55.993 14.2546 53.543 11.27 53.543 7.35002C53.543 2.62819 56.8839 0 61.0712 0C62.6748 0 63.9221 0.311819 64.4566 0.623638L63.833 3.11819C63.2094 2.85092 62.3184 2.58364 61.2048 2.58364C58.7103 2.58364 56.7948 4.09819 56.7948 7.17183C56.7948 9.93366 58.443 11.6709 61.2048 11.6709C62.1403 11.6709 63.2094 11.4482 63.7884 11.2255L64.323 13.6755Z" fill="#A8A29A"/>
<path d="M69.9795 0.266602V8.24026C69.9795 10.6012 70.8704 11.8484 72.4741 11.8484C74.1223 11.8484 75.0132 10.6903 75.0132 8.24026V0.266602H78.1313V8.01753C78.1313 12.2939 75.9932 14.2985 72.385 14.2985C68.9104 14.2985 66.8613 12.383 66.8613 7.97298V0.266602H69.9795Z" fill="#A8A29A"/>
<path d="M81.3398 0.445984C82.3644 0.267802 83.8344 0.178711 85.4826 0.178711C87.5317 0.178711 88.9571 0.49053 89.9371 1.2478C90.739 1.91599 91.229 2.85144 91.229 4.14327C91.229 5.92509 89.9817 7.12782 88.779 7.52873V7.61782C89.759 8.01873 90.2935 8.90964 90.6053 10.2015C91.0508 11.7606 91.4517 13.5424 91.719 14.0769H88.5117C88.2889 13.676 87.9771 12.5624 87.5317 10.8696C87.1753 9.13237 86.5517 8.68691 85.3044 8.64237H84.4135V14.0769H81.3398V0.445984ZM84.4135 6.41509H85.6608C87.2199 6.41509 88.1553 5.65781 88.1553 4.41054C88.1553 3.11872 87.3089 2.49508 85.8389 2.49508C85.0817 2.49508 84.6362 2.53963 84.4135 2.58417V6.41509Z" fill="#A8A29A"/>
<path d="M97.1084 0.266602V14.0757H93.9902V0.266602H97.1084Z" fill="#A8A29A"/>
<path d="M102.988 2.89479H99.291V0.266602H109.893V2.89479H106.106V14.0757H102.988V2.89479Z" fill="#A8A29A"/>
<path d="M115.373 14.0757V8.41844L111.008 0.266602H114.571L115.997 3.60752C116.442 4.63207 116.71 5.3448 117.066 6.23571H117.111C117.422 5.38934 117.734 4.58752 118.135 3.60752L119.516 0.266602H123.035L118.491 8.32935V14.0757H115.373Z" fill="#A8A29A"/>
</svg>
