<svg width="133" height="54" viewBox="0 0 133 54" fill="none" xmlns="http://www.w3.org/2000/svg">
<path d="M44.1398 34.904C42.535 36.4509 40.4531 37.1814 38.2412 37.1814C32.4727 37.1814 30.0005 33.2281 30.0005 29.2318C29.9572 25.1926 32.6028 21.1104 38.2412 21.1104C40.3664 21.1104 42.3615 21.8838 43.9663 23.4737L42.0145 25.3645C40.9736 24.3761 39.6291 23.9035 38.2412 23.9035C34.4678 23.9035 32.8631 26.6966 32.8631 29.2748C32.9064 31.8101 34.3811 34.5172 38.2412 34.5172C39.5857 34.5172 41.1471 33.9586 42.1447 32.9703L44.1398 34.904Z" fill="#045F87"/>
<path d="M59.234 21.4541V30.3061C59.234 34.861 56.4148 37.1814 52.5114 37.1814C48.7814 37.1814 45.6152 34.9469 45.6152 30.3061V21.4541H48.5211V30.3061C48.5211 33.0992 50.1259 34.5602 52.5547 34.5602C54.9836 34.5602 56.3715 32.9703 56.3715 30.3061V21.4541H59.234Z" fill="#045F87"/>
<path d="M75.886 36.8381H72.4163L67.8622 31.6816H65.043V36.8381H62.0938V21.4116C64.5659 21.4116 67.0381 21.4546 69.5103 21.4546C73.197 21.4976 75.1053 23.9039 75.1053 26.5681C75.1053 28.6737 74.1078 30.8222 71.1585 31.4238L75.886 36.7092V36.8381ZM65.043 24.1188V29.0604H69.5103C71.3753 29.0604 72.1994 27.8143 72.1994 26.6111C72.1994 25.4079 71.3753 24.1618 69.5103 24.1618H65.043V24.1188Z" fill="#045F87"/>
<path d="M88.1197 33.9161H79.9657L78.6212 36.8381H75.4551L82.4379 21.4116H85.6475L92.6737 36.8381H89.4642L88.1197 33.9161ZM84.0861 24.6344L81.1802 31.209H86.9486L84.0861 24.6344Z" fill="#045F87"/>
<path d="M95.4483 24.0758H90.5039V21.4116C95.0146 21.4116 98.7879 21.4116 103.299 21.4116V24.0758H98.3542V36.8381H95.4049V24.0758H95.4483Z" fill="#045F87"/>
<path d="M116.7 36.8381H105.033C105.033 31.7246 105.033 26.5681 105.033 21.4116H116.7V24.2477H107.982V27.8143H116.397V30.5214H107.982V34.0021H116.7V36.8381Z" fill="#045F87"/>
<path d="M132.66 28.9745C132.747 32.8848 130.318 36.8381 124.897 36.8381C122.988 36.8381 120.69 36.8381 118.781 36.8381V21.4116C120.69 21.4116 122.988 21.4116 124.897 21.4116C130.231 21.4116 132.617 25.1931 132.66 28.9745ZM121.687 34.045H124.897C128.453 34.045 129.841 31.5098 129.754 28.9745C129.668 26.5681 128.28 24.1618 124.897 24.1618H121.687V34.045Z" fill="#045F87"/>
<path d="M30.6072 11.4429C31.4313 11.8726 32.6891 12.2593 33.9902 12.2593C35.3781 12.2593 36.1154 11.7007 36.1154 10.7983C36.1154 9.98187 35.4648 9.50919 33.8601 8.9076C31.6048 8.13413 30.1735 6.93094 30.1735 4.95429C30.1735 2.71981 32.0818 1.00098 35.248 1.00098C36.766 1.00098 37.8937 1.30177 38.6744 1.68851L37.9804 4.13784C37.46 3.88002 36.4624 3.49328 35.1612 3.49328C33.8601 3.49328 33.2095 4.09487 33.2095 4.78241C33.2095 5.64182 33.9468 6.02856 35.7251 6.67312C38.1105 7.53254 39.2382 8.77869 39.2382 10.6264C39.2382 12.8609 37.5033 14.7516 33.8167 14.7516C32.2987 14.7516 30.7807 14.3649 30 13.9352L30.6072 11.4429Z" fill="#A8A29A"/>
<path d="M49.7777 8.9071H44.8333V12.0869H50.3415V14.5792H41.7539V1.2583H50.0379V3.75061H44.8333V6.50074H49.7777V8.9071Z" fill="#A8A29A"/>
<path d="M62.789 14.1491C62.2251 14.4069 60.9673 14.7077 59.3192 14.7077C54.6784 14.7077 52.293 11.8286 52.293 8.04721C52.293 3.49231 55.5459 0.957031 59.6228 0.957031C61.1842 0.957031 62.3986 1.25783 62.9191 1.55862L62.3119 3.96499C61.7047 3.70716 60.8372 3.44934 59.7529 3.44934C57.3241 3.44934 55.4591 4.91034 55.4591 7.87533C55.4591 10.5395 57.0639 12.2154 59.7529 12.2154C60.6637 12.2154 61.7047 12.0005 62.2685 11.7857L62.789 14.1491Z" fill="#A8A29A"/>
<path d="M68.2997 1.21484V8.90661C68.2997 11.1841 69.1671 12.3872 70.7285 12.3872C72.3333 12.3872 73.2007 11.27 73.2007 8.90661V1.21484H76.2368V8.69176C76.2368 12.817 74.1549 14.7506 70.6418 14.7506C67.2588 14.7506 65.2637 12.9029 65.2637 8.64879V1.21484H68.2997Z" fill="#A8A29A"/>
<path d="M79.3149 1.38722C80.3124 1.21534 81.7437 1.12939 83.3484 1.12939C85.3436 1.12939 86.7315 1.43019 87.6856 2.16069C88.4663 2.80526 88.9434 3.70764 88.9434 4.95379C88.9434 6.67263 87.729 7.83284 86.558 8.21957V8.30552C87.5121 8.69225 88.0326 9.55167 88.3362 10.7978C88.7699 12.3018 89.1603 14.0206 89.4205 14.5363H86.2977C86.0809 14.1495 85.7773 13.0753 85.3436 11.4424C84.9966 9.76652 84.3894 9.33681 83.175 9.29384H82.2641V14.5363H79.2715V1.38722H79.3149ZM82.3509 7.1453H83.5653C85.0833 7.1453 85.9941 6.4148 85.9941 5.21162C85.9941 3.96547 85.1701 3.36388 83.7388 3.36388C83.0015 3.36388 82.5678 3.40685 82.3509 3.44982V7.1453Z" fill="#A8A29A"/>
<path d="M94.7118 1.21484V14.5358H91.6758V1.21484H94.7118Z" fill="#A8A29A"/>
<path d="M100.393 3.75012H96.793V1.21484H107.115V3.75012H103.429V14.5358H100.393V3.75012Z" fill="#A8A29A"/>
<path d="M112.45 14.5358V9.0785L108.199 1.21484H111.669L113.057 4.43765C113.491 5.42598 113.751 6.11351 114.098 6.97293H114.141C114.445 6.15648 114.748 5.38301 115.139 4.43765L116.483 1.21484H119.91L115.486 8.99256V14.5358H112.45Z" fill="#A8A29A"/>
<path d="M7 26L10 29L20 19" stroke="#A8A29A" stroke-width="2" stroke-linecap="round" stroke-linejoin="round"/>
<path d="M19 27V34C19 34.5304 18.7893 35.0391 18.4142 35.4142C18.0391 35.7893 17.5304 36 17 36H3C2.46957 36 1.96086 35.7893 1.58579 35.4142C1.21071 35.0391 1 34.5304 1 34V20C1 19.4696 1.21071 18.9609 1.58579 18.5858C1.96086 18.2107 2.46957 18 3 18H14" stroke="#045F87" stroke-width="2" stroke-linecap="round" stroke-linejoin="round"/>
<path d="M32.4121 47.0303H32.9004C33.3789 47.0303 33.7321 46.9505 33.96 46.791C34.1878 46.6315 34.3018 46.3809 34.3018 46.0391C34.3018 45.7005 34.1846 45.4596 33.9502 45.3164C33.7191 45.1732 33.3594 45.1016 32.8711 45.1016H32.4121V47.0303ZM32.4121 48.2607V51H30.8984V43.8613H32.9785C33.9486 43.8613 34.6663 44.0387 35.1318 44.3936C35.5973 44.7451 35.8301 45.2806 35.8301 46C35.8301 46.4199 35.7145 46.7943 35.4834 47.123C35.2523 47.4486 34.9251 47.7041 34.502 47.8896C35.5762 49.4945 36.276 50.5312 36.6016 51H34.9219L33.2178 48.2607H32.4121ZM41.6113 51H37.5V43.8613H41.6113V45.1016H39.0137V46.6689H41.4307V47.9092H39.0137V49.75H41.6113V51ZM49.585 47.4209C49.585 48.2607 49.4352 48.9655 49.1357 49.5352C48.8395 50.1016 48.4033 50.5166 47.8271 50.7803L49.5459 52.6992H47.6074L46.2988 51.0977H46.1865C45.0928 51.0977 44.2529 50.7803 43.667 50.1455C43.0811 49.5107 42.7881 48.5993 42.7881 47.4111C42.7881 46.223 43.0811 45.3164 43.667 44.6914C44.2562 44.0632 45.0993 43.749 46.1963 43.749C47.2933 43.749 48.1315 44.0648 48.7109 44.6963C49.2936 45.3278 49.585 46.236 49.585 47.4209ZM44.375 47.4209C44.375 48.2184 44.5264 48.819 44.8291 49.2227C45.1318 49.6263 45.5843 49.8281 46.1865 49.8281C47.3942 49.8281 47.998 49.0257 47.998 47.4209C47.998 45.8128 47.3975 45.0088 46.1963 45.0088C45.5941 45.0088 45.14 45.2122 44.834 45.6191C44.528 46.0228 44.375 46.6234 44.375 47.4209ZM56.875 43.8613V48.4805C56.875 49.0078 56.7562 49.4701 56.5186 49.8672C56.2842 50.2643 55.944 50.5687 55.498 50.7803C55.0521 50.9919 54.5247 51.0977 53.916 51.0977C52.998 51.0977 52.2852 50.8633 51.7773 50.3945C51.2695 49.9225 51.0156 49.278 51.0156 48.4609V43.8613H52.5244V48.2314C52.5244 48.7816 52.6351 49.1852 52.8564 49.4424C53.0778 49.6995 53.444 49.8281 53.9551 49.8281C54.4499 49.8281 54.8079 49.6995 55.0293 49.4424C55.2539 49.182 55.3662 48.7751 55.3662 48.2217V43.8613H56.875ZM62.7344 51H58.623V43.8613H62.7344V45.1016H60.1367V46.6689H62.5537V47.9092H60.1367V49.75H62.7344V51ZM68.4424 49.0176C68.4424 49.6621 68.2096 50.1699 67.7441 50.541C67.2819 50.9121 66.6374 51.0977 65.8105 51.0977C65.0488 51.0977 64.375 50.9544 63.7891 50.668V49.2617C64.2708 49.4766 64.6777 49.6279 65.0098 49.7158C65.3451 49.8037 65.651 49.8477 65.9277 49.8477C66.2598 49.8477 66.5137 49.7842 66.6895 49.6572C66.8685 49.5303 66.958 49.3415 66.958 49.0908C66.958 48.9508 66.9189 48.8271 66.8408 48.7197C66.7627 48.609 66.6471 48.5033 66.4941 48.4023C66.3444 48.3014 66.0368 48.1403 65.5713 47.9189C65.1351 47.7139 64.8079 47.5169 64.5898 47.3281C64.3717 47.1393 64.1976 46.9196 64.0674 46.6689C63.9372 46.4183 63.8721 46.1253 63.8721 45.79C63.8721 45.1585 64.0853 44.6621 64.5117 44.3008C64.9414 43.9395 65.5339 43.7588 66.2891 43.7588C66.6602 43.7588 67.0133 43.8027 67.3486 43.8906C67.6872 43.9785 68.0404 44.1022 68.4082 44.2617L67.9199 45.4385C67.5391 45.2822 67.2233 45.1732 66.9727 45.1113C66.7253 45.0495 66.4811 45.0186 66.2402 45.0186C65.9538 45.0186 65.734 45.0853 65.5811 45.2188C65.4281 45.3522 65.3516 45.5264 65.3516 45.7412C65.3516 45.8747 65.3825 45.9919 65.4443 46.0928C65.5062 46.1904 65.6038 46.2865 65.7373 46.3809C65.874 46.472 66.1947 46.638 66.6992 46.8789C67.3665 47.1979 67.8239 47.5186 68.0713 47.8408C68.3187 48.1598 68.4424 48.5521 68.4424 49.0176ZM72.4902 51H70.9766V45.1211H69.0381V43.8613H74.4287V45.1211H72.4902V51ZM79.6387 51H75.5273V43.8613H79.6387V45.1016H77.041V46.6689H79.458V47.9092H77.041V49.75H79.6387V51ZM87.0557 47.3623C87.0557 48.5374 86.7204 49.4375 86.0498 50.0625C85.3825 50.6875 84.4173 51 83.1543 51H81.1328V43.8613H83.374C84.5394 43.8613 85.4443 44.1689 86.0889 44.7842C86.7334 45.3994 87.0557 46.2588 87.0557 47.3623ZM85.4834 47.4014C85.4834 45.8682 84.8063 45.1016 83.4521 45.1016H82.6465V49.75H83.2959C84.7542 49.75 85.4834 48.9671 85.4834 47.4014Z" fill="#045F87"/>
</svg>
