<svg width="11" height="11" viewBox="0 0 11 11" fill="none" xmlns="http://www.w3.org/2000/svg">
<path d="M10.9631 6.12291C10.9857 5.91844 11 5.7111 11 5.50018C11 5.28926 10.9857 5.08192 10.9627 4.87709L9.39229 4.31857C9.31409 4.06173 9.2115 3.81637 9.08739 3.58321L9.80193 2.07947C9.54188 1.75335 9.24614 1.45736 8.92024 1.19703L7.41655 1.91303C7.18218 1.78722 6.93584 1.68508 6.68121 1.60812L6.12307 0.0376651C5.91825 0.0147073 5.71092 0 5.5 0C5.28908 0 5.08175 0.0143486 4.87693 0.0376651L4.31879 1.60812C4.06196 1.68596 3.8166 1.7882 3.58345 1.91303L2.0794 1.19703C1.75298 1.4571 1.45741 1.75304 1.19699 2.07947L1.91297 3.58249C1.78814 3.81565 1.68591 4.06137 1.60807 4.31785L0.0376639 4.87745C0.0147068 5.08192 0 5.28997 0 5.50054C0 5.7111 0.0143481 5.91844 0.0376639 6.12327L1.60807 6.68215C1.68591 6.93863 1.78814 7.18435 1.91297 7.41751L1.19735 8.92125C1.45741 9.24768 1.75334 9.5429 2.07976 9.80297L3.58237 9.08733C3.81553 9.21216 4.06124 9.31476 4.31771 9.39296L4.87657 10.9631C5.08103 10.9857 5.28836 11 5.49964 11C5.71056 11 5.91753 10.9857 6.12235 10.9627L6.68121 9.39224C6.93768 9.31404 7.1834 9.21145 7.41655 9.08733L8.92024 9.80189C9.24666 9.54182 9.54187 9.24588 9.80193 8.92017L9.08703 7.41679C9.21186 7.18471 9.31445 6.93827 9.39265 6.68143L10.9627 6.12291H10.9631ZM5.5 7.24712C5.27055 7.24717 5.04333 7.20202 4.83133 7.11425C4.61933 7.02649 4.42669 6.89782 4.26441 6.7356C3.93667 6.40799 3.75249 5.96359 3.7524 5.50018C3.7523 5.03677 3.93629 4.5923 4.2639 4.26455C4.5915 3.9368 5.03588 3.75261 5.49928 3.75252C5.96268 3.75242 6.40714 3.93642 6.73488 4.26404C7.06261 4.59165 7.24679 5.03605 7.24689 5.49946C7.24698 5.96288 7.06299 6.40735 6.73538 6.7351C6.40778 7.06285 5.9634 7.24703 5.5 7.24712Z" fill="#2782B4"/>
</svg>
