<svg width="131" height="36" viewBox="0 0 131 36" fill="none" xmlns="http://www.w3.org/2000/svg">
<path d="M43.0835 32.7684C41.5069 34.3025 39.4615 35.0269 37.2883 35.0269C31.6208 35.0269 29.1919 31.1065 29.1919 27.1436C29.1493 23.138 31.7913 19.0898 37.2883 19.0898C39.3763 19.0898 41.3364 19.8569 42.9131 21.4335L40.9955 23.3085C39.9728 22.3284 38.6518 21.8596 37.2883 21.8596C33.581 21.8596 32.0043 24.6294 32.0043 27.1862C32.0469 29.7003 33.4958 32.3849 37.2883 32.3849C38.6092 32.3849 40.1433 31.8309 41.1234 30.8509L43.0835 32.7684Z" fill="#CBCBCB"/>
<path d="M57.9115 19.4307V28.2088C57.9115 32.7257 55.1417 35.0268 51.3066 35.0268C47.642 35.0268 44.5312 32.8109 44.5312 28.2088V19.4307H47.3863V28.2088C47.3863 30.9786 48.9629 32.4274 51.3492 32.4274C53.7355 32.4274 55.0991 30.8508 55.0991 28.2088V19.4307H57.9115Z" fill="#CBCBCB"/>
<path d="M74.2753 34.686H70.8663L66.392 29.5725H63.6222V34.686H60.7246V19.3882C63.1535 19.3882 65.5824 19.4308 68.0113 19.4308C71.6334 19.4734 73.5083 21.8597 73.5083 24.5017C73.5083 26.5897 72.5282 28.7203 69.6306 29.3169L74.2753 34.5156V34.686ZM63.6222 22.1154V27.0158H68.0113C69.8436 27.0158 70.6533 25.78 70.6533 24.5869C70.6533 23.3937 69.8436 22.158 68.0113 22.158H63.6222V22.1154Z" fill="#CBCBCB"/>
<path d="M86.2924 31.8309H78.2813L76.9603 34.7285H73.8496L80.7102 19.4307H83.8635L90.7667 34.6859H87.6134L86.2924 31.8309ZM82.3295 22.6266L79.4744 29.1463H85.1419L82.3295 22.6266Z" fill="#CBCBCB"/>
<path d="M93.4945 22.0301H88.6367V19.3882C93.0684 19.3882 96.7757 19.3882 101.207 19.3882V22.0301H96.3496V34.686H93.4519V22.0301H93.4945Z" fill="#CBCBCB"/>
<path d="M114.375 34.686H102.912C102.912 29.6151 102.912 24.5017 102.912 19.3882H114.375V22.2006H105.81V25.7374H114.077V28.422H105.81V31.8736H114.375V34.686Z" fill="#CBCBCB"/>
<path d="M130.054 26.9304C130.139 30.8082 127.753 34.7285 122.426 34.7285C120.551 34.7285 118.293 34.7285 116.418 34.7285V19.4307C118.293 19.4307 120.551 19.4307 122.426 19.4307C127.668 19.4307 130.011 23.1379 130.054 26.9304ZM119.273 31.9161H122.426C125.921 31.9161 127.284 29.402 127.199 26.8878C127.114 24.5015 125.75 22.1152 122.426 22.1152H119.273V31.9161Z" fill="#CBCBCB"/>
<path fill-rule="evenodd" clip-rule="evenodd" d="M0.0445655 19.7294L0.00195312 16.1925C0.00195312 15.809 0.215015 15.5107 0.513301 15.5107H2.98482C3.2831 15.5107 3.49616 15.809 3.49616 16.1499L3.53878 19.6868C3.53878 20.0703 3.32571 20.3685 3.02743 20.3685H0.555913C0.257627 20.4112 0.0445655 20.1129 0.0445655 19.7294Z" fill="#CBCBCB"/>
<path fill-rule="evenodd" clip-rule="evenodd" d="M0.0445655 26.5472L0.00195312 23.0104C0.00195312 22.6269 0.215015 22.3286 0.513301 22.3286H2.98482C3.2831 22.3286 3.49616 22.6269 3.49616 22.9678L3.53878 26.5046C3.53878 26.8881 3.32571 27.1864 3.02743 27.1864H0.555913C0.257627 27.229 0.0445655 26.9307 0.0445655 26.5472Z" fill="#CBCBCB"/>
<path fill-rule="evenodd" clip-rule="evenodd" d="M4.56214 19.6864L4.51953 16.1496C4.51953 15.7661 4.73259 15.4678 5.03088 15.4678H7.50239C7.80068 15.4678 8.01374 15.7661 8.01374 16.107L8.05635 19.6438C8.05635 20.0273 7.84329 20.3256 7.54501 20.3256H5.07349C4.81782 20.3682 4.56214 20.0699 4.56214 19.6864Z" fill="#CBCBCB"/>
<path fill-rule="evenodd" clip-rule="evenodd" d="M8.99183 31.1918L8.94922 27.6549C8.94922 27.2714 9.16228 26.9731 9.46057 26.9731H11.9321C12.2304 26.9731 12.4434 27.2714 12.4434 27.6123L12.486 31.1492C12.486 31.5327 12.273 31.831 11.9747 31.831H9.50318C9.2475 31.8736 8.99183 31.5753 8.99183 31.1918Z" fill="#CBCBCB"/>
<path fill-rule="evenodd" clip-rule="evenodd" d="M8.94922 25.4393V21.9025C8.94922 21.519 9.16228 21.2207 9.46057 21.2207H11.9321C12.2304 21.2207 12.4434 21.519 12.4434 21.8599L12.486 25.3967C12.486 25.7802 12.273 26.0785 11.9747 26.0785H9.50318C9.20489 26.1211 8.94922 25.8228 8.94922 25.4393Z" fill="#CBCBCB"/>
<path fill-rule="evenodd" clip-rule="evenodd" d="M8.90785 19.6864L8.86523 16.1496C8.86523 15.7661 9.0783 15.4678 9.37658 15.4678H11.8481C12.1464 15.4678 12.3594 15.7661 12.3594 16.107L12.4021 19.6438C12.4021 20.0273 12.189 20.3256 11.8907 20.3256H9.4192C9.16352 20.3256 8.90785 20.0273 8.90785 19.6864Z" fill="#CBCBCB"/>
<path fill-rule="evenodd" clip-rule="evenodd" d="M13.3395 31.1918L13.2969 27.6549C13.2969 27.2714 13.5099 26.9731 13.8082 26.9731H16.2797C16.578 26.9731 16.7911 27.2714 16.7911 27.6123L16.8337 31.1492C16.8337 31.5327 16.6206 31.8309 16.3224 31.8309H13.8508C13.5952 31.8309 13.3395 31.5327 13.3395 31.1918Z" fill="#CBCBCB"/>
<path fill-rule="evenodd" clip-rule="evenodd" d="M13.2985 25.3968L13.2559 21.86C13.2559 21.4765 13.4689 21.1782 13.7672 21.1782H16.2387C16.537 21.1782 16.7501 21.4765 16.7501 21.8174L16.7927 25.3542C16.7927 25.7377 16.5796 26.036 16.2813 26.036H13.8098C13.5541 26.0786 13.2985 25.7804 13.2985 25.3968Z" fill="#CBCBCB"/>
<path fill-rule="evenodd" clip-rule="evenodd" d="M13.2555 19.6439L13.2129 16.1071C13.2129 15.7236 13.426 15.4253 13.7242 15.4253H16.1958C16.494 15.4253 16.7071 15.7236 16.7071 16.0645L16.7497 19.6013C16.7497 19.9848 16.5367 20.2831 16.2384 20.2831H13.7669C13.5112 20.2831 13.2555 19.9848 13.2555 19.6439Z" fill="#CBCBCB"/>
<path fill-rule="evenodd" clip-rule="evenodd" d="M4.26332 13.806L4.2207 10.2692C4.2207 9.88569 4.43377 9.5874 4.73205 9.5874H7.20357C7.50185 9.5874 7.71492 9.88569 7.71492 10.2266L7.75753 13.7634C7.75753 14.1469 7.54447 14.4452 7.24618 14.4452H4.77466C4.47638 14.4452 4.26332 14.1469 4.26332 13.806Z" fill="#CBCBCB"/>
<path fill-rule="evenodd" clip-rule="evenodd" d="M8.86488 13.7211L8.82227 10.1842C8.82227 9.80073 9.03533 9.50244 9.33361 9.50244H11.8051C12.1034 9.50244 12.3165 9.80073 12.3165 10.1416L12.3591 13.6784C12.3591 14.062 12.146 14.3602 11.8477 14.3602H9.37623C9.12055 14.4029 8.86488 14.1046 8.86488 13.7211Z" fill="#CBCBCB"/>
<path fill-rule="evenodd" clip-rule="evenodd" d="M13.2129 13.6781V10.1413C13.2129 9.75776 13.426 9.45947 13.7242 9.45947H16.1958C16.494 9.45947 16.7071 9.75776 16.7071 10.0987L16.7497 13.6355C16.7497 14.019 16.5367 14.3173 16.2384 14.3173H13.7669C13.4686 14.3599 13.2129 14.0616 13.2129 13.6781Z" fill="#CBCBCB"/>
<path fill-rule="evenodd" clip-rule="evenodd" d="M17.4727 25.3968V21.86C17.4727 21.4765 17.6857 21.1782 17.984 21.1782H20.4555C20.7538 21.1782 20.9669 21.4765 20.9669 21.8174L21.0095 25.3542C21.0095 25.7377 20.7964 26.036 20.4981 26.036H18.0266C17.7283 26.036 17.4727 25.7377 17.4727 25.3968Z" fill="#CBCBCB"/>
<path fill-rule="evenodd" clip-rule="evenodd" d="M17.4313 19.6014L17.3887 16.0646C17.3887 15.6811 17.6017 15.3828 17.9 15.3828H20.3715C20.6698 15.3828 20.8829 15.6811 20.8829 16.022L20.9255 19.5588C20.9255 19.9423 20.7124 20.2406 20.4141 20.2406H17.9426C17.687 20.2832 17.4739 19.9849 17.4313 19.6014Z" fill="#CBCBCB"/>
<path fill-rule="evenodd" clip-rule="evenodd" d="M17.3883 13.6781L17.3457 10.1413C17.3457 9.75776 17.5588 9.45947 17.8571 9.45947H20.3286C20.6269 9.45947 20.8399 9.75776 20.8399 10.0987L20.8825 13.6355C20.8825 14.019 20.6695 14.3173 20.3712 14.3173H17.8997C17.644 14.3173 17.4309 14.019 17.3883 13.6781Z" fill="#CBCBCB"/>
<path d="M19.5388 23.2039L14.5684 28.9336L15.1478 29.4362L20.1182 23.7065L19.5388 23.2039Z" fill="#CBCBCB"/>
<path d="M19.0247 12.2611L14.0527 17.9893L14.632 18.492L19.604 12.7639L19.0247 12.2611Z" fill="#CBCBCB"/>
<path d="M29.7883 9.84307C30.5127 10.2266 31.6207 10.5675 32.7286 10.5675C33.9643 10.5675 34.6035 10.0561 34.6035 9.28911C34.6035 8.5647 34.0496 8.13858 32.6434 7.62723C30.6832 6.94543 29.4048 5.88012 29.4048 4.13302C29.4048 2.13024 31.0667 0.596191 33.8791 0.596191C35.2001 0.596191 36.1802 0.894478 36.9046 1.19276L36.308 3.32338C35.7967 3.15293 34.9444 2.81203 33.7939 2.81203C32.6434 2.81203 32.0894 3.32338 32.0894 3.96257C32.0894 4.72959 32.7712 5.02787 34.2626 5.62445C36.3506 6.39147 37.3307 7.45678 37.3307 9.11866C37.3307 11.0788 35.7967 12.7833 32.5581 12.7833C31.1945 12.7833 29.8736 12.4424 29.2344 12.0589L29.7883 9.84307Z" fill="#CBCBCB"/>
<path d="M48.0267 8.22341C48.0267 11.3341 45.8109 12.7829 43.5098 12.7829C40.9957 12.7829 39.0781 11.121 39.0781 8.39386C39.0781 5.62406 40.9105 3.87695 43.6376 3.87695C46.2796 3.87695 48.0267 5.66667 48.0267 8.22341ZM41.8053 8.30864C41.8053 9.75745 42.4019 10.8654 43.5524 10.8654C44.5751 10.8654 45.2569 9.84268 45.2569 8.30864C45.2569 7.03027 44.7882 5.7519 43.5524 5.7519C42.3167 5.7519 41.8053 7.07288 41.8053 8.30864Z" fill="#CBCBCB"/>
<path d="M50.3696 12.6128V6.00785H49.2617V4.04768H50.3696V3.70678C50.3696 2.68409 50.6679 1.53356 51.4349 0.851758C52.1167 0.212573 53.0116 -0.000488281 53.7786 -0.000488281C54.3752 -0.000488281 54.8439 0.0847364 55.1848 0.169961L55.0996 2.21535C54.8866 2.13013 54.5883 2.08752 54.2474 2.08752C53.3951 2.08752 53.0116 2.76931 53.0116 3.62156V4.04768H54.7161V6.00785H53.0116V12.6128H50.3696Z" fill="#CBCBCB"/>
<path d="M59.6577 1.61865V4.04755H61.5753V6.00772H59.6577V9.11842C59.6577 10.1411 59.9134 10.6099 60.723 10.6099C61.0639 10.6099 61.3196 10.5672 61.4901 10.5246V12.5274C61.1492 12.6552 60.51 12.7405 59.743 12.7405C58.8907 12.7405 58.1663 12.4422 57.7402 12.0161C57.2714 11.5047 57.0158 10.6951 57.0158 9.50193V6.00772H55.8652V4.04755H57.0158V2.21522L59.6577 1.61865Z" fill="#CBCBCB"/>
<path d="M65.4553 4.04736L66.1371 7.54157C66.3076 8.43643 66.478 9.3739 66.6059 10.354H66.6485C66.8189 9.3739 67.0746 8.39382 67.2877 7.54157L68.1825 4.04736H70.2705L71.1228 7.45635C71.3358 8.43643 71.5915 9.3739 71.762 10.354H71.8046C71.9324 9.3739 72.1029 8.39382 72.2733 7.45635L72.9977 4.04736H75.5971L72.9977 12.5698H70.4836L69.674 9.54435C69.4609 8.69211 69.2905 7.92509 69.12 6.90239H69.0774C68.9069 7.9677 68.7365 8.73472 68.5234 9.54435L67.6712 12.5698H65.1571L62.6855 4.04736H65.4553Z" fill="#CBCBCB"/>
<path d="M82.0309 12.6126L81.8605 11.7604H81.8178C81.2639 12.4422 80.369 12.8257 79.3889 12.8257C77.6418 12.8257 76.6191 11.5473 76.6191 10.1837C76.6191 7.96787 78.6219 6.90256 81.6474 6.90256V6.77472C81.6474 6.30599 81.3917 5.6668 80.1133 5.6668C79.2611 5.6668 78.3236 5.96509 77.7697 6.30599L77.3009 4.60149C77.8975 4.2606 79.048 3.83447 80.6247 3.83447C83.4797 3.83447 84.3746 5.49635 84.3746 7.54175V10.5246C84.3746 11.3342 84.4172 12.1439 84.5024 12.6126H82.0309ZM81.7326 8.56444C80.3264 8.56444 79.2611 8.86273 79.2611 9.92804C79.2611 10.6098 79.7298 10.9507 80.3264 10.9507C81.0082 10.9507 81.5195 10.5246 81.69 9.97065C81.7326 9.84281 81.7326 9.67236 81.7326 9.50191V8.56444Z" fill="#CBCBCB"/>
<path d="M86.8469 6.85982C86.8469 5.58145 86.8043 4.77181 86.7617 4.0474H89.0628L89.148 5.62406H89.2332C89.6594 4.3883 90.7247 3.87695 91.5343 3.87695C91.79 3.87695 91.9178 3.87695 92.0883 3.91957V6.39108C91.8752 6.34847 91.6621 6.30586 91.3638 6.30586C90.3838 6.30586 89.702 6.8172 89.5315 7.66945C89.4889 7.8399 89.4889 8.05296 89.4889 8.26602V12.6125H86.8469V6.85982Z" fill="#CBCBCB"/>
<path d="M95.795 9.16102C95.8802 10.2689 96.9455 10.7803 98.2239 10.7803C99.1188 10.7803 99.8858 10.6524 100.568 10.4394L100.908 12.2291C100.014 12.57 98.9483 12.7405 97.7978 12.7405C94.9002 12.7405 93.2383 11.0786 93.2383 8.39399C93.2383 6.22076 94.6019 3.83447 97.5421 3.83447C100.312 3.83447 101.335 5.96509 101.335 8.09571C101.335 8.56444 101.292 8.94795 101.249 9.16102H95.795ZM98.9057 7.3713C98.9057 6.73211 98.6074 5.62419 97.4143 5.62419C96.3064 5.62419 95.8376 6.64689 95.7524 7.3713H98.9057Z" fill="#CBCBCB"/>
</svg>
