<svg width="131" height="52" viewBox="0 0 131 52" fill="none" xmlns="http://www.w3.org/2000/svg">
<path d="M43.8921 32.7689C42.3155 34.3029 40.2701 35.0273 38.0968 35.0273C32.4294 35.0273 30.0005 31.107 30.0005 27.1441C29.9579 23.1385 32.5999 19.0903 38.0968 19.0903C40.1848 19.0903 42.145 19.8574 43.7217 21.434L41.8041 23.309C40.7814 22.3289 39.4604 21.8601 38.0968 21.8601C34.3896 21.8601 32.8129 24.6299 32.8129 27.1867C32.8555 29.7008 34.3044 32.3854 38.0968 32.3854C39.4178 32.3854 40.9519 31.8314 41.932 30.8513L43.8921 32.7689Z" fill="#045F87"/>
<path d="M58.7201 19.4312V28.2093C58.7201 32.7262 55.9503 35.0273 52.1152 35.0273C48.4505 35.0273 45.3398 32.8114 45.3398 28.2093V19.4312H48.1949V28.2093C48.1949 30.9791 49.7715 32.4279 52.1578 32.4279C54.5441 32.4279 55.9077 30.8513 55.9077 28.2093V19.4312H58.7201Z" fill="#045F87"/>
<path d="M75.0839 34.6865H71.6749L67.2006 29.573H64.4308V34.6865H61.5332V19.3887C63.9621 19.3887 66.391 19.4313 68.8199 19.4313C72.442 19.4739 74.3169 21.8602 74.3169 24.5022C74.3169 26.5902 73.3368 28.7208 70.4392 29.3173L75.0839 34.5161V34.6865ZM64.4308 22.1159V27.0163H68.8199C70.6522 27.0163 71.4619 25.7805 71.4619 24.5874C71.4619 23.3942 70.6522 22.1585 68.8199 22.1585H64.4308V22.1159Z" fill="#045F87"/>
<path d="M87.101 31.8313H79.0899L77.7689 34.729H74.6582L81.5188 19.4312H84.6721L91.5753 34.6864H88.422L87.101 31.8313ZM83.1381 22.6271L80.283 29.1468H85.9505L83.1381 22.6271Z" fill="#045F87"/>
<path d="M94.3031 22.0306H89.4453V19.3887C93.877 19.3887 97.5843 19.3887 102.016 19.3887V22.0306H97.1581V34.6865H94.2605V22.0306H94.3031Z" fill="#045F87"/>
<path d="M115.183 34.6865H103.721C103.721 29.6156 103.721 24.5022 103.721 19.3887H115.183V22.2011H106.618V25.7379H114.885V28.4225H106.618V31.8741H115.183V34.6865Z" fill="#045F87"/>
<path d="M130.863 26.9309C130.948 30.8086 128.561 34.729 123.235 34.729C121.36 34.729 119.102 34.729 117.227 34.729V19.4312C119.102 19.4312 121.36 19.4312 123.235 19.4312C128.476 19.4312 130.82 23.1384 130.863 26.9309ZM120.082 31.9166H123.235C126.729 31.9166 128.093 29.4024 128.007 26.8883C127.922 24.502 126.559 22.1157 123.235 22.1157H120.082V31.9166Z" fill="#045F87"/>
<path d="M30.5969 9.84356C31.3213 10.2271 32.4293 10.568 33.5372 10.568C34.7729 10.568 35.4121 10.0566 35.4121 9.2896C35.4121 8.56519 34.8582 8.13906 33.452 7.62772C31.4918 6.94592 30.2134 5.88061 30.2134 4.1335C30.2134 2.13072 31.8753 0.59668 34.6877 0.59668C36.0087 0.59668 36.9888 0.894966 37.7132 1.19325L37.1166 3.32387C36.6053 3.15342 35.753 2.81252 34.6025 2.81252C33.452 2.81252 32.898 3.32387 32.898 3.96305C32.898 4.73008 33.5798 5.02836 35.0712 5.62494C37.1592 6.39196 38.1393 7.45727 38.1393 9.11915C38.1393 11.0793 36.6053 12.7838 33.3667 12.7838C32.0031 12.7838 30.6822 12.4429 30.043 12.0594L30.5969 9.84356Z" fill="#82BEBE"/>
<path d="M48.8353 8.2239C48.8353 11.3346 46.6195 12.7834 44.3184 12.7834C41.8043 12.7834 39.8867 11.1215 39.8867 8.39435C39.8867 5.62455 41.7191 3.87744 44.4462 3.87744C47.0882 3.87744 48.8353 5.66716 48.8353 8.2239ZM42.6139 8.30912C42.6139 9.75794 43.2105 10.8659 44.361 10.8659C45.3837 10.8659 46.0655 9.84317 46.0655 8.30912C46.0655 7.03075 45.5968 5.75238 44.361 5.75238C43.1253 5.75238 42.6139 7.07337 42.6139 8.30912Z" fill="#82BEBE"/>
<path d="M51.1782 12.6132V6.00834H50.0703V4.04817H51.1782V3.70727C51.1782 2.68458 51.4765 1.53404 52.2435 0.852247C52.9253 0.213062 53.8202 0 54.5872 0C55.1838 0 55.6525 0.0852247 55.9934 0.170449L55.9082 2.21584C55.6951 2.13062 55.3969 2.088 55.056 2.088C54.2037 2.088 53.8202 2.7698 53.8202 3.62205V4.04817H55.5247V6.00834H53.8202V12.6132H51.1782Z" fill="#82BEBE"/>
<path d="M60.4663 1.61914V4.04804H62.3839V6.00821H60.4663V9.11891C60.4663 10.1416 60.722 10.6103 61.5316 10.6103C61.8725 10.6103 62.1282 10.5677 62.2987 10.5251V12.5279C61.9578 12.6557 61.3186 12.741 60.5515 12.741C59.6993 12.741 58.9749 12.4427 58.5488 12.0165C58.08 11.5052 57.8244 10.6956 57.8244 9.50242V6.00821H56.6738V4.04804H57.8244V2.21571L60.4663 1.61914Z" fill="#82BEBE"/>
<path d="M66.2639 4.04785L66.9457 7.54206C67.1162 8.43692 67.2866 9.37439 67.4145 10.3545H67.4571C67.6275 9.37439 67.8832 8.39431 68.0963 7.54206L68.9911 4.04785H71.0791L71.9314 7.45684C72.1444 8.43692 72.4001 9.37439 72.5706 10.3545H72.6132C72.741 9.37439 72.9115 8.39431 73.0819 7.45684L73.8063 4.04785H76.4057L73.8063 12.5703H71.2922L70.4826 9.54484C70.2695 8.6926 70.099 7.92557 69.9286 6.90288H69.886C69.7155 7.96819 69.5451 8.73521 69.332 9.54484L68.4798 12.5703H65.9657L63.4941 4.04785H66.2639Z" fill="#82BEBE"/>
<path d="M82.8395 12.6131L82.669 11.7609H82.6264C82.0725 12.4427 81.1776 12.8262 80.1975 12.8262C78.4504 12.8262 77.4277 11.5478 77.4277 10.1842C77.4277 7.96836 79.4305 6.90305 82.456 6.90305V6.77521C82.456 6.30648 82.2003 5.66729 80.9219 5.66729C80.0697 5.66729 79.1322 5.96558 78.5783 6.30648L78.1095 4.60198C78.7061 4.26108 79.8566 3.83496 81.4333 3.83496C84.2883 3.83496 85.1832 5.49684 85.1832 7.54223V10.5251C85.1832 11.3347 85.2258 12.1444 85.311 12.6131H82.8395ZM82.5412 8.56493C81.135 8.56493 80.0697 8.86322 80.0697 9.92852C80.0697 10.6103 80.5384 10.9512 81.135 10.9512C81.8168 10.9512 82.3281 10.5251 82.4986 9.97114C82.5412 9.8433 82.5412 9.67285 82.5412 9.5024V8.56493Z" fill="#82BEBE"/>
<path d="M87.6555 6.86031C87.6555 5.58194 87.6129 4.7723 87.5703 4.04789H89.8714L89.9566 5.62455H90.0418C90.4679 4.38879 91.5333 3.87744 92.3429 3.87744C92.5986 3.87744 92.7264 3.87744 92.8969 3.92005V6.39157C92.6838 6.34896 92.4707 6.30634 92.1724 6.30634C91.1924 6.30634 90.5106 6.81769 90.3401 7.66994C90.2975 7.84039 90.2975 8.05345 90.2975 8.26651V12.613H87.6555V6.86031Z" fill="#82BEBE"/>
<path d="M96.6036 9.1615C96.6888 10.2694 97.7541 10.7808 99.0325 10.7808C99.9274 10.7808 100.694 10.6529 101.376 10.4399L101.717 12.2296C100.822 12.5705 99.7569 12.7409 98.6064 12.7409C95.7088 12.7409 94.0469 11.0791 94.0469 8.39448C94.0469 6.22125 95.4105 3.83496 98.3507 3.83496C101.121 3.83496 102.143 5.96558 102.143 8.09619C102.143 8.56493 102.101 8.94844 102.058 9.1615H96.6036ZM99.7143 7.37178C99.7143 6.7326 99.416 5.62468 98.2229 5.62468C97.115 5.62468 96.6462 6.64737 96.561 7.37178H99.7143Z" fill="#82BEBE"/>
<path d="M7 24L10 27L20 17" stroke="#82BEBE" stroke-width="2" stroke-linecap="round" stroke-linejoin="round"/>
<path d="M19 25V32C19 32.5304 18.7893 33.0391 18.4142 33.4142C18.0391 33.7893 17.5304 34 17 34H3C2.46957 34 1.96086 33.7893 1.58579 33.4142C1.21071 33.0391 1 32.5304 1 32V18C1 17.4696 1.21071 16.9609 1.58579 16.5858C1.96086 16.2107 2.46957 16 3 16H14" stroke="#045F87" stroke-width="2" stroke-linecap="round" stroke-linejoin="round"/>
<path d="M32.4121 45.0303H32.9004C33.3789 45.0303 33.7321 44.9505 33.96 44.791C34.1878 44.6315 34.3018 44.3809 34.3018 44.0391C34.3018 43.7005 34.1846 43.4596 33.9502 43.3164C33.7191 43.1732 33.3594 43.1016 32.8711 43.1016H32.4121V45.0303ZM32.4121 46.2607V49H30.8984V41.8613H32.9785C33.9486 41.8613 34.6663 42.0387 35.1318 42.3936C35.5973 42.7451 35.8301 43.2806 35.8301 44C35.8301 44.4199 35.7145 44.7943 35.4834 45.123C35.2523 45.4486 34.9251 45.7041 34.502 45.8896C35.5762 47.4945 36.276 48.5312 36.6016 49H34.9219L33.2178 46.2607H32.4121ZM41.6113 49H37.5V41.8613H41.6113V43.1016H39.0137V44.6689H41.4307V45.9092H39.0137V47.75H41.6113V49ZM49.585 45.4209C49.585 46.2607 49.4352 46.9655 49.1357 47.5352C48.8395 48.1016 48.4033 48.5166 47.8271 48.7803L49.5459 50.6992H47.6074L46.2988 49.0977H46.1865C45.0928 49.0977 44.2529 48.7803 43.667 48.1455C43.0811 47.5107 42.7881 46.5993 42.7881 45.4111C42.7881 44.223 43.0811 43.3164 43.667 42.6914C44.2562 42.0632 45.0993 41.749 46.1963 41.749C47.2933 41.749 48.1315 42.0648 48.7109 42.6963C49.2936 43.3278 49.585 44.236 49.585 45.4209ZM44.375 45.4209C44.375 46.2184 44.5264 46.819 44.8291 47.2227C45.1318 47.6263 45.5843 47.8281 46.1865 47.8281C47.3942 47.8281 47.998 47.0257 47.998 45.4209C47.998 43.8128 47.3975 43.0088 46.1963 43.0088C45.5941 43.0088 45.14 43.2122 44.834 43.6191C44.528 44.0228 44.375 44.6234 44.375 45.4209ZM56.875 41.8613V46.4805C56.875 47.0078 56.7562 47.4701 56.5186 47.8672C56.2842 48.2643 55.944 48.5687 55.498 48.7803C55.0521 48.9919 54.5247 49.0977 53.916 49.0977C52.998 49.0977 52.2852 48.8633 51.7773 48.3945C51.2695 47.9225 51.0156 47.278 51.0156 46.4609V41.8613H52.5244V46.2314C52.5244 46.7816 52.6351 47.1852 52.8564 47.4424C53.0778 47.6995 53.444 47.8281 53.9551 47.8281C54.4499 47.8281 54.8079 47.6995 55.0293 47.4424C55.2539 47.182 55.3662 46.7751 55.3662 46.2217V41.8613H56.875ZM62.7344 49H58.623V41.8613H62.7344V43.1016H60.1367V44.6689H62.5537V45.9092H60.1367V47.75H62.7344V49ZM68.4424 47.0176C68.4424 47.6621 68.2096 48.1699 67.7441 48.541C67.2819 48.9121 66.6374 49.0977 65.8105 49.0977C65.0488 49.0977 64.375 48.9544 63.7891 48.668V47.2617C64.2708 47.4766 64.6777 47.6279 65.0098 47.7158C65.3451 47.8037 65.651 47.8477 65.9277 47.8477C66.2598 47.8477 66.5137 47.7842 66.6895 47.6572C66.8685 47.5303 66.958 47.3415 66.958 47.0908C66.958 46.9508 66.9189 46.8271 66.8408 46.7197C66.7627 46.609 66.6471 46.5033 66.4941 46.4023C66.3444 46.3014 66.0368 46.1403 65.5713 45.9189C65.1351 45.7139 64.8079 45.5169 64.5898 45.3281C64.3717 45.1393 64.1976 44.9196 64.0674 44.6689C63.9372 44.4183 63.8721 44.1253 63.8721 43.79C63.8721 43.1585 64.0853 42.6621 64.5117 42.3008C64.9414 41.9395 65.5339 41.7588 66.2891 41.7588C66.6602 41.7588 67.0133 41.8027 67.3486 41.8906C67.6872 41.9785 68.0404 42.1022 68.4082 42.2617L67.9199 43.4385C67.5391 43.2822 67.2233 43.1732 66.9727 43.1113C66.7253 43.0495 66.4811 43.0186 66.2402 43.0186C65.9538 43.0186 65.734 43.0853 65.5811 43.2188C65.4281 43.3522 65.3516 43.5264 65.3516 43.7412C65.3516 43.8747 65.3825 43.9919 65.4443 44.0928C65.5062 44.1904 65.6038 44.2865 65.7373 44.3809C65.874 44.472 66.1947 44.638 66.6992 44.8789C67.3665 45.1979 67.8239 45.5186 68.0713 45.8408C68.3187 46.1598 68.4424 46.5521 68.4424 47.0176ZM72.4902 49H70.9766V43.1211H69.0381V41.8613H74.4287V43.1211H72.4902V49ZM79.6387 49H75.5273V41.8613H79.6387V43.1016H77.041V44.6689H79.458V45.9092H77.041V47.75H79.6387V49ZM87.0557 45.3623C87.0557 46.5374 86.7204 47.4375 86.0498 48.0625C85.3825 48.6875 84.4173 49 83.1543 49H81.1328V41.8613H83.374C84.5394 41.8613 85.4443 42.1689 86.0889 42.7842C86.7334 43.3994 87.0557 44.2588 87.0557 45.3623ZM85.4834 45.4014C85.4834 43.8682 84.8063 43.1016 83.4521 43.1016H82.6465V47.75H83.2959C84.7542 47.75 85.4834 46.9671 85.4834 45.4014Z" fill="#045F87"/>
</svg>
