<svg width="9" height="6" viewBox="0 0 9 6" fill="none" xmlns="http://www.w3.org/2000/svg">
<path d="M7.62371 5.32925C7.80555 5.53707 8.12143 5.55813 8.32925 5.37629C8.53707 5.19445 8.55813 4.87857 8.37629 4.67075L7.62371 5.32925ZM0.623712 4.67075C0.441871 4.87857 0.462929 5.19445 0.670748 5.37629C0.878566 5.55813 1.19445 5.53707 1.37629 5.32925L0.623712 4.67075ZM4.72577 1.25803L5.10206 0.928774L4.72577 1.25803ZM8.37629 4.67075L5.10206 0.928774L4.34948 1.58728L7.62371 5.32925L8.37629 4.67075ZM3.89794 0.928774L0.623712 4.67075L1.37629 5.32925L4.65052 1.58728L3.89794 0.928774ZM5.10206 0.928774C4.78333 0.564511 4.21667 0.564512 3.89794 0.928774L4.65052 1.58728C4.57083 1.67834 4.42917 1.67834 4.34948 1.58728L5.10206 0.928774Z" fill="#0D5278"/>
</svg>
