<svg width="130" height="53" viewBox="0 0 130 53" fill="none" xmlns="http://www.w3.org/2000/svg">
<path d="M43.6681 33.7075C42.1169 35.2169 40.1045 35.9296 37.9663 35.9296C32.3902 35.9296 30.0005 32.0725 30.0005 28.1734C29.9586 24.2324 32.516 20.2495 37.9663 20.2495C40.0207 20.2495 41.9492 21.0042 43.5004 22.5554L41.6138 24.4001C40.6076 23.4358 39.3079 22.9747 37.9663 22.9747C34.3188 22.9747 32.7676 25.6998 32.7676 28.2153C32.8095 30.6889 34.235 33.3302 37.9663 33.3302C39.266 33.3302 40.7753 32.7852 41.7396 31.8209L43.6681 33.7075Z" fill="#045F87"/>
<path d="M58.2583 20.543V29.1796C58.2583 33.6237 55.5332 35.8876 51.7599 35.8876C48.1543 35.8876 45.0938 33.7075 45.0938 29.1796V20.543H47.9027V29.1796C47.9027 31.9047 49.454 33.3302 51.8018 33.3302C54.1496 33.3302 55.4912 31.779 55.4912 29.1796V20.543H58.2583Z" fill="#045F87"/>
<path d="M74.3576 35.5942H71.0036L66.6014 30.5631H63.8763V35.5942H61.0254V20.543C63.4151 20.543 65.8049 20.5849 68.1946 20.5849C71.7583 20.6268 73.603 22.9746 73.603 25.574C73.603 27.6283 72.6387 29.7246 69.7878 30.3116L74.3576 35.4684V35.5942ZM63.8763 23.1843V28.0057H68.1946C69.9974 28.0057 70.794 26.7899 70.794 25.6159C70.794 24.442 69.9974 23.2262 68.1946 23.2262H63.8763V23.1843Z" fill="#045F87"/>
<path d="M86.2226 32.7432H78.3407L77.041 35.5942H73.9805L80.7304 20.543H83.8329L90.5829 35.5942H87.4804L86.2226 32.7432ZM82.2816 23.6874L79.4727 30.1019H85.0487L82.2816 23.6874Z" fill="#045F87"/>
<path d="M93.2658 23.1008H88.4863V20.5015C92.8466 20.5015 96.4941 20.5015 100.854 20.5015V23.1008H96.0748V35.5526H93.2239V23.1008H93.2658Z" fill="#045F87"/>
<path d="M113.85 35.5942H102.572C102.572 30.605 102.572 25.574 102.572 20.543H113.85V23.3101H105.423V26.7898H113.557V29.4311H105.423V32.8271H113.85V35.5942Z" fill="#045F87"/>
<path d="M129.279 27.9218C129.363 31.737 127.015 35.5942 121.775 35.5942C119.93 35.5942 117.708 35.5942 115.863 35.5942V20.543C117.708 20.543 119.93 20.543 121.775 20.543C126.89 20.543 129.196 24.1905 129.279 27.9218ZM118.63 32.869H121.733C125.171 32.869 126.512 30.3954 126.428 27.9218C126.345 25.574 125.003 23.2262 121.733 23.2262H118.63V32.869Z" fill="#045F87"/>
<path d="M30.7958 10.649C31.6343 11.0683 32.8921 11.4875 34.1918 11.4875C35.6172 11.4875 36.3299 10.9006 36.3299 10.0202C36.3299 9.18165 35.701 8.67853 34.066 8.09158C31.802 7.295 30.3346 6.07917 30.3346 4.06676C30.3346 1.76087 32.2632 0 35.4495 0C36.9588 0 38.0908 0.335418 38.9293 0.67082L38.2585 3.1444C37.7135 2.89284 36.7492 2.51552 35.4076 2.51552C34.066 2.51552 33.4371 3.10249 33.4371 3.81522C33.4371 4.69565 34.1917 5.07297 35.9526 5.74377C38.3423 6.6242 39.4743 7.88195 39.4743 9.76859C39.4743 12.0326 37.7135 13.9611 33.9821 13.9611C32.4309 13.9611 30.9216 13.5419 30.125 13.1226L30.7958 10.649Z" fill="#C49A6C"/>
<path d="M44.6729 2.85089H41.0254V0.293457H51.4648V2.85089H47.7754V13.8353H44.7148V2.85089H44.6729Z" fill="#C49A6C"/>
<path d="M65.4255 6.91773C65.4255 11.3618 62.7422 14.045 58.7593 14.045C54.7345 14.045 52.3867 11.0264 52.3867 7.12735C52.3867 3.0606 54.9861 0.0419922 58.969 0.0419922C63.1615 0.0419922 65.4255 3.14445 65.4255 6.91773ZM55.6149 7.08544C55.6149 9.72673 56.8727 11.6134 58.9271 11.6134C60.9814 11.6134 62.1972 9.64287 62.1972 7.00158C62.1972 4.56991 61.0233 2.47365 58.9271 2.47365C56.8308 2.47365 55.6149 4.44414 55.6149 7.08544Z" fill="#C49A6C"/>
<path d="M67.9414 0.461451C68.9476 0.29375 70.415 0.167969 72.0081 0.167969C74.0206 0.167969 75.446 0.461446 76.4103 1.2161C77.2069 1.84498 77.6681 2.80926 77.6681 4.06702C77.6681 5.78595 76.4522 7.00179 75.2783 7.42104V7.46295C76.2426 7.84028 76.7457 8.76264 77.0811 9.97847C77.5003 11.4878 77.9196 13.2906 78.1712 13.7937H75.0268C74.8172 13.4164 74.4817 12.2844 74.0625 10.6493C73.6852 8.97228 73.0982 8.5111 71.8824 8.46917H70.96V13.7937H67.9414V0.461451ZM70.96 6.28905H72.1759C73.6852 6.28905 74.6075 5.53439 74.6075 4.31856C74.6075 3.0608 73.769 2.43192 72.3436 2.43192C71.5889 2.43192 71.1696 2.47385 70.96 2.51578V6.28905Z" fill="#C49A6C"/>
<path d="M83.7053 10.3564L82.741 13.8362H79.5547L83.7053 0.252441H87.7301L91.9226 13.8362H88.6105L87.5624 10.3564H83.7053ZM87.1432 8.05054L86.3046 5.15768C86.0531 4.3611 85.8016 3.35491 85.6339 2.55833H85.5919C85.3823 3.35491 85.1727 4.40303 84.9631 5.15768L84.1665 8.05054H87.1432Z" fill="#C49A6C"/>
<path d="M105.088 13.2066C104.124 13.542 102.363 13.9612 100.56 13.9612C98.0867 13.9612 96.284 13.3324 95.0262 12.1165C93.7685 10.9426 93.0977 9.18178 93.0977 7.16937C93.0977 2.64144 96.4098 0.0839844 100.854 0.0839844C102.615 0.0839844 103.956 0.419376 104.627 0.754779L103.998 3.22838C103.244 2.89298 102.321 2.64142 100.854 2.64142C98.2964 2.64142 96.3678 4.1088 96.3678 7.04357C96.3678 9.85257 98.1287 11.4877 100.644 11.4877C101.357 11.4877 101.902 11.4038 102.154 11.278V8.46904H100.057V6.0793H105.088V13.2066Z" fill="#C49A6C"/>
<path d="M116.073 8.09245H111.084V11.3207H116.66V13.8362H108.023V0.252441H116.408V2.76796H111.126V5.57693H116.115V8.09245H116.073Z" fill="#C49A6C"/>
<path d="M7 25L10 28L20 18" stroke="#C49A6C" stroke-width="2" stroke-linecap="round" stroke-linejoin="round"/>
<path d="M19 26V33C19 33.5304 18.7893 34.0391 18.4142 34.4142C18.0391 34.7893 17.5304 35 17 35H3C2.46957 35 1.96086 34.7893 1.58579 34.4142C1.21071 34.0391 1 33.5304 1 33V19C1 18.4696 1.21071 17.9609 1.58579 17.5858C1.96086 17.2107 2.46957 17 3 17H14" stroke="#045F87" stroke-width="2" stroke-linecap="round" stroke-linejoin="round"/>
<path d="M32.4121 46.0303H32.9004C33.3789 46.0303 33.7321 45.9505 33.96 45.791C34.1878 45.6315 34.3018 45.3809 34.3018 45.0391C34.3018 44.7005 34.1846 44.4596 33.9502 44.3164C33.7191 44.1732 33.3594 44.1016 32.8711 44.1016H32.4121V46.0303ZM32.4121 47.2607V50H30.8984V42.8613H32.9785C33.9486 42.8613 34.6663 43.0387 35.1318 43.3936C35.5973 43.7451 35.8301 44.2806 35.8301 45C35.8301 45.4199 35.7145 45.7943 35.4834 46.123C35.2523 46.4486 34.9251 46.7041 34.502 46.8896C35.5762 48.4945 36.276 49.5312 36.6016 50H34.9219L33.2178 47.2607H32.4121ZM41.6113 50H37.5V42.8613H41.6113V44.1016H39.0137V45.6689H41.4307V46.9092H39.0137V48.75H41.6113V50ZM49.585 46.4209C49.585 47.2607 49.4352 47.9655 49.1357 48.5352C48.8395 49.1016 48.4033 49.5166 47.8271 49.7803L49.5459 51.6992H47.6074L46.2988 50.0977H46.1865C45.0928 50.0977 44.2529 49.7803 43.667 49.1455C43.0811 48.5107 42.7881 47.5993 42.7881 46.4111C42.7881 45.223 43.0811 44.3164 43.667 43.6914C44.2562 43.0632 45.0993 42.749 46.1963 42.749C47.2933 42.749 48.1315 43.0648 48.7109 43.6963C49.2936 44.3278 49.585 45.236 49.585 46.4209ZM44.375 46.4209C44.375 47.2184 44.5264 47.819 44.8291 48.2227C45.1318 48.6263 45.5843 48.8281 46.1865 48.8281C47.3942 48.8281 47.998 48.0257 47.998 46.4209C47.998 44.8128 47.3975 44.0088 46.1963 44.0088C45.5941 44.0088 45.14 44.2122 44.834 44.6191C44.528 45.0228 44.375 45.6234 44.375 46.4209ZM56.875 42.8613V47.4805C56.875 48.0078 56.7562 48.4701 56.5186 48.8672C56.2842 49.2643 55.944 49.5687 55.498 49.7803C55.0521 49.9919 54.5247 50.0977 53.916 50.0977C52.998 50.0977 52.2852 49.8633 51.7773 49.3945C51.2695 48.9225 51.0156 48.278 51.0156 47.4609V42.8613H52.5244V47.2314C52.5244 47.7816 52.6351 48.1852 52.8564 48.4424C53.0778 48.6995 53.444 48.8281 53.9551 48.8281C54.4499 48.8281 54.8079 48.6995 55.0293 48.4424C55.2539 48.182 55.3662 47.7751 55.3662 47.2217V42.8613H56.875ZM62.7344 50H58.623V42.8613H62.7344V44.1016H60.1367V45.6689H62.5537V46.9092H60.1367V48.75H62.7344V50ZM68.4424 48.0176C68.4424 48.6621 68.2096 49.1699 67.7441 49.541C67.2819 49.9121 66.6374 50.0977 65.8105 50.0977C65.0488 50.0977 64.375 49.9544 63.7891 49.668V48.2617C64.2708 48.4766 64.6777 48.6279 65.0098 48.7158C65.3451 48.8037 65.651 48.8477 65.9277 48.8477C66.2598 48.8477 66.5137 48.7842 66.6895 48.6572C66.8685 48.5303 66.958 48.3415 66.958 48.0908C66.958 47.9508 66.9189 47.8271 66.8408 47.7197C66.7627 47.609 66.6471 47.5033 66.4941 47.4023C66.3444 47.3014 66.0368 47.1403 65.5713 46.9189C65.1351 46.7139 64.8079 46.5169 64.5898 46.3281C64.3717 46.1393 64.1976 45.9196 64.0674 45.6689C63.9372 45.4183 63.8721 45.1253 63.8721 44.79C63.8721 44.1585 64.0853 43.6621 64.5117 43.3008C64.9414 42.9395 65.5339 42.7588 66.2891 42.7588C66.6602 42.7588 67.0133 42.8027 67.3486 42.8906C67.6872 42.9785 68.0404 43.1022 68.4082 43.2617L67.9199 44.4385C67.5391 44.2822 67.2233 44.1732 66.9727 44.1113C66.7253 44.0495 66.4811 44.0186 66.2402 44.0186C65.9538 44.0186 65.734 44.0853 65.5811 44.2188C65.4281 44.3522 65.3516 44.5264 65.3516 44.7412C65.3516 44.8747 65.3825 44.9919 65.4443 45.0928C65.5062 45.1904 65.6038 45.2865 65.7373 45.3809C65.874 45.472 66.1947 45.638 66.6992 45.8789C67.3665 46.1979 67.8239 46.5186 68.0713 46.8408C68.3187 47.1598 68.4424 47.5521 68.4424 48.0176ZM72.4902 50H70.9766V44.1211H69.0381V42.8613H74.4287V44.1211H72.4902V50ZM79.6387 50H75.5273V42.8613H79.6387V44.1016H77.041V45.6689H79.458V46.9092H77.041V48.75H79.6387V50ZM87.0557 46.3623C87.0557 47.5374 86.7204 48.4375 86.0498 49.0625C85.3825 49.6875 84.4173 50 83.1543 50H81.1328V42.8613H83.374C84.5394 42.8613 85.4443 43.1689 86.0889 43.7842C86.7334 44.3994 87.0557 45.2588 87.0557 46.3623ZM85.4834 46.4014C85.4834 44.8682 84.8063 44.1016 83.4521 44.1016H82.6465V48.75H83.2959C84.7542 48.75 85.4834 47.9671 85.4834 46.4014Z" fill="#045F87"/>
</svg>
