<svg width="129" height="37" viewBox="0 0 129 37" fill="none" xmlns="http://www.w3.org/2000/svg">
<path d="M42.7183 33.9712C41.155 35.4923 39.1268 36.2106 36.9719 36.2106C31.3523 36.2106 28.9439 32.3233 28.9439 28.3938C28.9016 24.422 31.479 20.408 36.9719 20.408C39.0423 20.408 40.9859 21.1685 42.5493 22.7319L40.6479 24.591C39.6338 23.6192 38.324 23.1544 36.9719 23.1544C33.2959 23.1544 31.7326 25.9008 31.7326 28.436C31.7748 30.9289 33.2114 33.5909 36.9719 33.5909C38.2818 33.5909 39.8029 33.0416 40.7747 32.0698L42.7183 33.9712Z" fill="#CBCBCB"/>
<path d="M57.4217 20.7041V29.4082C57.4217 33.887 54.6753 36.1687 50.8725 36.1687C47.2388 36.1687 44.1543 33.9715 44.1543 29.4082V20.7041H46.9852V29.4082C46.9852 32.1547 48.5486 33.5912 50.9148 33.5912C53.2809 33.5912 54.633 32.0279 54.633 29.4082V20.7041H57.4217Z" fill="#CBCBCB"/>
<path d="M73.6473 35.8729H70.2671L65.8305 30.8026H63.0841V35.8729H60.2109V20.7041C62.6194 20.7041 65.0278 20.7464 67.4362 20.7464C71.0277 20.7886 72.8868 23.1548 72.8868 25.7745C72.8868 27.8448 71.915 29.9575 69.0418 30.549L73.6473 35.7462V35.8729ZM63.0841 23.366V28.2251H67.4362C69.2531 28.2251 70.0558 26.9998 70.0558 25.8167C70.0558 24.6336 69.2531 23.4083 67.4362 23.4083H63.0841V23.366Z" fill="#CBCBCB"/>
<path d="M85.6035 32.9997H77.6599L76.3501 35.8729H73.2656L80.0683 20.7041H83.1951L89.9978 35.8729H86.871L85.6035 32.9997ZM81.6317 23.8731L78.8007 30.3378H84.4204L81.6317 23.8731Z" fill="#CBCBCB"/>
<path d="M92.7036 23.2818H87.8867V20.6621C92.281 20.6621 95.957 20.6621 100.351 20.6621V23.2818H95.5345V35.8309H92.6613V23.2818H92.7036Z" fill="#CBCBCB"/>
<path d="M113.45 35.8729H102.084C102.084 30.8448 102.084 25.7745 102.084 20.7041H113.45V23.4928H104.957V26.9998H113.154V29.6617H104.957V33.0842H113.45V35.8729Z" fill="#CBCBCB"/>
<path d="M128.997 28.1406C129.082 31.9856 126.716 35.8729 121.434 35.8729C119.575 35.8729 117.336 35.8729 115.477 35.8729V20.7041C117.336 20.7041 119.575 20.7041 121.434 20.7041C126.589 20.7041 128.913 24.3801 128.997 28.1406ZM118.265 33.1265H121.392C124.857 33.1265 126.209 30.6336 126.124 28.1406C126.04 25.7745 124.688 23.4083 121.392 23.4083H118.265V33.1265Z" fill="#CBCBCB"/>
<path fill-rule="evenodd" clip-rule="evenodd" d="M0.0422426 20.9997L0 17.4927C0 17.1124 0.211244 16.8167 0.507014 16.8167H2.9577C3.25348 16.8167 3.46472 17.1124 3.46472 17.4504L3.50699 20.9575C3.50699 21.3377 3.29572 21.6335 2.99995 21.6335H0.549283C0.253512 21.6757 0.0422426 21.38 0.0422426 20.9997Z" fill="#CBCBCB"/>
<path fill-rule="evenodd" clip-rule="evenodd" d="M0.0422426 27.7602L0 24.2532C0 23.8729 0.211244 23.5771 0.507014 23.5771H2.9577C3.25348 23.5771 3.46472 23.8729 3.46472 24.2109L3.50699 27.718C3.50699 28.0982 3.29572 28.394 2.99995 28.394H0.549283C0.253512 28.4362 0.0422426 28.1405 0.0422426 27.7602Z" fill="#CBCBCB"/>
<path fill-rule="evenodd" clip-rule="evenodd" d="M4.56375 20.957L4.52148 17.45C4.52148 17.0697 4.73275 16.7739 5.02852 16.7739H7.47919C7.77496 16.7739 7.98623 17.0697 7.98623 17.4077L8.0285 20.9147C8.0285 21.295 7.81723 21.5908 7.52146 21.5908H5.07079C4.77502 21.633 4.56375 21.3373 4.56375 20.957Z" fill="#CBCBCB"/>
<path fill-rule="evenodd" clip-rule="evenodd" d="M8.95826 32.4077L8.91602 28.9007C8.91602 28.5204 9.12729 28.2246 9.42306 28.2246H11.8737C12.1695 28.2246 12.3808 28.5204 12.3808 28.8584L12.423 32.3654C12.423 32.7457 12.2117 33.0415 11.916 33.0415H9.4653C9.16953 33.0415 8.95826 32.7457 8.95826 32.4077Z" fill="#CBCBCB"/>
<path fill-rule="evenodd" clip-rule="evenodd" d="M8.91529 26.6613L8.87305 23.1543C8.87305 22.774 9.08429 22.4783 9.38006 22.4783H11.8308C12.1265 22.4783 12.3378 22.774 12.3378 23.1121L12.38 26.6191C12.38 26.9993 12.1688 27.2951 11.873 27.2951H9.42233C9.12656 27.3374 8.91529 27.0416 8.91529 26.6613Z" fill="#CBCBCB"/>
<path fill-rule="evenodd" clip-rule="evenodd" d="M8.87235 20.957L8.83008 17.45C8.83008 17.0697 9.04135 16.7739 9.33712 16.7739H11.7878C12.0836 16.7739 12.2948 17.0697 12.2948 17.4077L12.3371 20.9147C12.3371 21.295 12.1258 21.5908 11.8301 21.5908H9.37936C9.08359 21.5908 8.87235 21.295 8.87235 20.957Z" fill="#CBCBCB"/>
<path fill-rule="evenodd" clip-rule="evenodd" d="M13.2259 32.3657L13.1836 28.8587C13.1836 28.4784 13.3949 28.1826 13.6906 28.1826H16.1413C16.4371 28.1826 16.6483 28.4784 16.6483 28.8164L16.6906 32.3234C16.6906 32.7037 16.4793 32.9995 16.1836 32.9995H13.7329C13.4794 33.0417 13.2681 32.7459 13.2259 32.3657Z" fill="#CBCBCB"/>
<path fill-rule="evenodd" clip-rule="evenodd" d="M13.2259 26.6613L13.1836 23.1543C13.1836 22.774 13.3949 22.4783 13.6906 22.4783H16.1413C16.4371 22.4783 16.6483 22.774 16.6483 23.1121L16.6906 26.6191C16.6906 26.9993 16.4793 27.2951 16.1836 27.2951H13.7329C13.4371 27.2951 13.2259 26.9993 13.2259 26.6613Z" fill="#CBCBCB"/>
<path fill-rule="evenodd" clip-rule="evenodd" d="M13.1829 20.915L13.1406 17.408C13.1406 17.0277 13.3519 16.7319 13.6477 16.7319H16.0983C16.3941 16.7319 16.6054 17.0277 16.6054 17.3657L16.6476 20.8727C16.6476 21.253 16.4363 21.5488 16.1406 21.5488H13.6899C13.3941 21.591 13.1829 21.2952 13.1829 20.915Z" fill="#CBCBCB"/>
<path fill-rule="evenodd" clip-rule="evenodd" d="M4.22586 15.1261L4.18359 11.6192C4.18359 11.2389 4.39486 10.9431 4.69063 10.9431H7.1413C7.43707 10.9431 7.64834 11.2389 7.64834 11.5769L7.69058 15.0839C7.69058 15.4642 7.47934 15.7599 7.18357 15.7599H4.73288C4.43711 15.7599 4.22586 15.4642 4.22586 15.1261Z" fill="#CBCBCB"/>
<path fill-rule="evenodd" clip-rule="evenodd" d="M8.83131 15.0414L8.78906 11.5344C8.78906 11.1542 9.00033 10.8584 9.2961 10.8584H11.7468C12.0425 10.8584 12.2538 11.1542 12.2538 11.4922L12.2961 14.9992C12.2961 15.3795 12.0848 15.6752 11.789 15.6752H9.33835C9.04257 15.7175 8.83131 15.4217 8.83131 15.0414Z" fill="#CBCBCB"/>
<path fill-rule="evenodd" clip-rule="evenodd" d="M13.1399 15.0414L13.0977 11.5344C13.0977 11.1542 13.3089 10.8584 13.6047 10.8584H16.0554C16.3511 10.8584 16.5624 11.1542 16.5624 11.4922L16.6046 14.9992C16.6046 15.3795 16.3934 15.6752 16.0976 15.6752H13.6469C13.3512 15.6752 13.1399 15.3795 13.1399 15.0414Z" fill="#CBCBCB"/>
<path fill-rule="evenodd" clip-rule="evenodd" d="M17.3665 26.6193L17.3242 23.1123C17.3242 22.732 17.5355 22.4363 17.8312 22.4363H20.2819C20.5777 22.4363 20.7889 22.732 20.7889 23.0701L20.8312 26.5771C20.8312 26.9573 20.6199 27.2531 20.3242 27.2531H17.8735C17.5777 27.2531 17.3665 26.9573 17.3665 26.6193Z" fill="#CBCBCB"/>
<path fill-rule="evenodd" clip-rule="evenodd" d="M17.3235 20.8732L17.2812 17.3662C17.2812 16.986 17.4925 16.6902 17.7883 16.6902H20.239C20.5347 16.6902 20.746 16.986 20.746 17.324L20.7882 20.831C20.7882 21.2112 20.577 21.507 20.2812 21.507H17.8305C17.5348 21.5493 17.3235 21.2535 17.3235 20.8732Z" fill="#CBCBCB"/>
<path fill-rule="evenodd" clip-rule="evenodd" d="M17.2805 14.9997L17.2383 11.4927C17.2383 11.1124 17.4496 10.8167 17.7453 10.8167H20.196C20.4918 10.8167 20.703 11.1124 20.703 11.4504L20.7453 14.9574C20.7453 15.3377 20.534 15.6335 20.2382 15.6335H17.7876C17.4918 15.6335 17.2805 15.3377 17.2805 14.9997Z" fill="#CBCBCB"/>
<path d="M19.3777 24.4368L14.4492 30.1182L15.0238 30.6166L19.9523 24.9352L19.3777 24.4368Z" fill="#CBCBCB"/>
<path d="M18.8636 13.6292L13.9336 19.3091L14.508 19.8076L19.438 14.1277L18.8636 13.6292Z" fill="#CBCBCB"/>
<path d="M29.7463 10.7323C30.5914 11.1548 31.859 11.5773 33.1689 11.5773C34.6055 11.5773 35.3237 10.9858 35.3237 10.0985C35.3237 9.2534 34.6899 8.74635 33.0421 8.15481C30.7604 7.352 29.2816 6.12668 29.2816 4.09854C29.2816 1.77463 31.2252 0 34.4364 0C35.9575 0 37.0983 0.338039 37.9434 0.676062L37.2674 3.16897C36.7181 2.91545 35.7463 2.53518 34.3942 2.53518C33.0421 2.53518 32.4083 3.12673 32.4083 3.84503C32.4083 4.73234 33.1688 5.11261 34.9435 5.78866C37.3519 6.67597 38.4927 7.94354 38.4927 9.84493C38.4927 12.1266 36.7181 14.0702 32.9576 14.0702C31.3942 14.0702 29.8731 13.6477 29.0703 13.2252L29.7463 10.7323Z" fill="#CBCBCB"/>
<path d="M43.7327 2.87283H40.0566V0.29541H50.5776V2.87283H46.8594V13.9431H43.7749V2.87283H43.7327Z" fill="#CBCBCB"/>
<path d="M64.6485 6.97121C64.6485 11.45 61.9443 14.1542 57.9302 14.1542C53.874 14.1542 51.5078 11.112 51.5078 7.18248C51.5078 3.08394 54.1275 0.041748 58.1415 0.041748C62.3668 0.041748 64.6485 3.16845 64.6485 6.97121ZM54.7613 7.14023C54.7613 9.80217 56.0289 11.7035 58.0993 11.7035C60.1697 11.7035 61.395 9.71766 61.395 7.05572C61.395 4.60505 60.2119 2.49241 58.0993 2.49241C55.9866 2.49241 54.7613 4.4783 54.7613 7.14023Z" fill="#CBCBCB"/>
<path d="M67.1836 0.464721C68.1977 0.295709 69.6765 0.168945 71.2821 0.168945C73.3102 0.168945 74.7468 0.464716 75.7187 1.22527C76.5215 1.85906 76.9863 2.83087 76.9863 4.09846C76.9863 5.83083 75.7609 7.05617 74.5779 7.4787V7.52094C75.5497 7.90122 76.0567 8.83078 76.3947 10.0561C76.8172 11.5772 77.2398 13.3941 77.4933 13.9011H74.3243C74.1131 13.5209 73.775 12.38 73.3525 10.7322C72.9722 9.04206 72.3807 8.57727 71.1554 8.53502H70.2258V13.9011H67.1836V0.464721ZM70.2258 6.33786H71.4511C72.9722 6.33786 73.9018 5.5773 73.9018 4.35197C73.9018 3.08438 73.0568 2.45059 71.6202 2.45059C70.8596 2.45059 70.437 2.49285 70.2258 2.5351V6.33786Z" fill="#CBCBCB"/>
<path d="M83.0698 10.4356L82.0979 13.9426H78.8867L83.0698 0.252686H87.126L91.3513 13.9426H88.0133L86.957 10.4356H83.0698ZM86.5345 8.11172L85.6894 5.19626C85.4359 4.39345 85.1824 3.3794 85.0134 2.5766H84.9711C84.7599 3.3794 84.5486 4.4357 84.3374 5.19626L83.5345 8.11172H86.5345Z" fill="#CBCBCB"/>
<path d="M104.619 13.3094C103.648 13.6474 101.873 14.0699 100.056 14.0699C97.5632 14.0699 95.7464 13.4362 94.4788 12.2108C93.2112 11.0277 92.5352 9.25312 92.5352 7.22498C92.5352 2.66167 95.8731 0.0842285 100.352 0.0842285C102.127 0.0842285 103.479 0.422242 104.155 0.760265L103.521 3.2532C102.76 2.91517 101.831 2.66165 100.352 2.66165C97.7745 2.66165 95.8309 4.1405 95.8309 7.0982C95.8309 9.92915 97.6055 11.577 100.141 11.577C100.859 11.577 101.408 11.4925 101.662 11.3658V8.53481H99.5491V6.12639H104.619V13.3094Z" fill="#CBCBCB"/>
<path d="M115.689 8.15396H110.661V11.4074H116.28V13.9426H107.576V0.252686H116.027V2.78786H110.703V5.61879H115.731V8.15396H115.689Z" fill="#CBCBCB"/>
</svg>
