<svg width="13" height="13" viewBox="0 0 13 13" fill="none" xmlns="http://www.w3.org/2000/svg">
<path d="M7.43012e-08 5.38461L0 11.6154C-4.37909e-09 11.9826 0.136964 12.3348 0.380761 12.5945C0.624558 12.8541 0.955218 13 1.3 13H11.7C12.0448 13 12.3754 12.8541 12.6192 12.5945C12.863 12.3348 13 11.9826 13 11.6154V5.38461C13 5.01739 12.863 4.66521 12.6192 4.40554C12.3754 4.14588 12.0448 4 11.7 4H11.05C10.8776 4 10.7123 4.07294 10.5904 4.20277C10.4685 4.3326 10.4 4.5087 10.4 4.69231C10.4 4.87592 10.4685 5.05201 10.5904 5.18184C10.7123 5.31168 10.8776 5.38461 11.05 5.38461H11.7V11.6154L1.3 11.6154L1.3 5.38461H1.95C2.12239 5.38461 2.28772 5.31168 2.40962 5.18184C2.53152 5.05201 2.6 4.87592 2.6 4.69231C2.6 4.5087 2.53152 4.3326 2.40962 4.20277C2.28772 4.07294 2.12239 4 1.95 4H1.3C0.955219 4 0.624558 4.14588 0.380761 4.40554C0.136964 4.66521 7.86803e-08 5.01739 7.43012e-08 5.38461Z" fill="white"/>
<path d="M3.69201 6.33091C3.436 6.06268 3.436 5.62939 3.69201 5.36116C3.81485 5.23259 3.98135 5.16032 4.15498 5.16019C4.32861 5.16006 4.49521 5.23209 4.61823 5.36047L5.85494 6.65073V0.687769C5.85494 0.505362 5.9241 0.330425 6.0472 0.201443C6.17031 0.0724611 6.33727 -2.07608e-09 6.51137 0C6.68547 2.07607e-09 6.85243 0.0724611 6.97553 0.201443C7.09864 0.330425 7.1678 0.505362 7.1678 0.687769V6.65073L8.40451 5.36047C8.52929 5.24231 8.69264 5.1789 8.86078 5.18334C9.02892 5.18779 9.189 5.25976 9.30793 5.38437C9.42686 5.50898 9.49555 5.6767 9.49979 5.85287C9.50403 6.02904 9.44351 6.20018 9.33073 6.33091L6.97546 8.79863C6.85237 8.92757 6.68543 9 6.51137 9C6.33731 9 6.17037 8.92757 6.04727 8.79863L3.69201 6.33091Z" fill="white"/>
</svg>
