<svg width="133" height="52" viewBox="0 0 133 52" fill="none" xmlns="http://www.w3.org/2000/svg">
<path d="M44.7919 33.0572C43.2075 34.5987 41.1521 35.3267 38.9683 35.3267C33.2733 35.3267 30.8325 31.3872 30.8325 27.405C30.7897 23.3799 33.4017 19.312 38.9683 19.312C41.0665 19.312 43.0362 20.0828 44.6206 21.6671L42.6937 23.5512C41.666 22.5663 40.3385 22.0953 38.9683 22.0953C35.243 22.0953 33.6587 24.8786 33.6587 27.4478C33.7015 29.9742 35.1573 32.6718 38.9683 32.6718C40.2957 32.6718 41.8372 32.1152 42.8221 31.1303L44.7919 33.0572Z" fill="#045F87"/>
<path d="M59.6916 19.6538V28.4747C59.6916 33.0136 56.9083 35.3259 53.0545 35.3259C49.372 35.3259 46.2461 33.0993 46.2461 28.4747V19.6538H49.1151V28.4747C49.1151 31.258 50.6994 32.7139 53.0973 32.7139C55.4952 32.7139 56.8655 31.1296 56.8655 28.4747V19.6538H59.6916Z" fill="#045F87"/>
<path d="M76.1363 34.9837H72.7107L68.2146 29.8453H65.4313V34.9837H62.5195V19.6113C64.9603 19.6113 67.401 19.6541 69.8418 19.6541C73.4815 19.697 75.3655 22.0949 75.3655 24.7497C75.3655 26.8479 74.3807 28.9889 71.4689 29.5884L76.1363 34.8552V34.9837ZM65.4313 22.309V27.2333H69.8418C71.683 27.2333 72.4966 25.9915 72.4966 24.7925C72.4966 23.5936 71.683 22.3518 69.8418 22.3518H65.4313V22.309Z" fill="#045F87"/>
<path d="M88.2535 32.0719H80.2033L78.8759 34.9837H75.75L82.644 19.6113H85.8127L92.7067 34.9837H89.5381L88.2535 32.0719ZM84.2284 22.8228L81.3594 29.3743H87.0545L84.2284 22.8228Z" fill="#045F87"/>
<path d="M95.4908 22.2662H90.6094V19.6113C95.0626 19.6113 98.788 19.6113 103.241 19.6113V22.2662H98.3598V34.9837H95.448V22.2662H95.4908Z" fill="#045F87"/>
<path d="M116.472 34.9837H104.953C104.953 29.8881 104.953 24.7497 104.953 19.6113H116.472V22.4374H107.865V25.9915H116.172V28.6892H107.865V32.1576H116.472V34.9837Z" fill="#045F87"/>
<path d="M132.23 27.1476C132.315 31.0443 129.917 34.9837 124.565 34.9837C122.681 34.9837 120.411 34.9837 118.527 34.9837V19.6113C120.411 19.6113 122.681 19.6113 124.565 19.6113C129.789 19.6113 132.144 23.3795 132.23 27.1476ZM121.353 32.2004H124.522C128.033 32.2004 129.404 29.674 129.318 27.1476C129.232 24.7497 127.862 22.3518 124.522 22.3518H121.353V32.2004Z" fill="#045F87"/>
<path d="M33.2543 2.95388H30V0.641602H39.3347V2.95388H36.0376V12.7596H33.2971V2.95388H33.2543Z" fill="#FFAE50"/>
<path d="M41.7761 9.24902C41.8618 10.3623 42.975 10.919 44.2596 10.919C45.2017 10.919 45.9297 10.7905 46.7004 10.5764L47.0429 12.4177C46.1437 12.7603 45.0304 12.9744 43.8743 12.9744C40.8769 12.9744 39.1641 11.2616 39.1641 8.47826C39.1641 6.25162 40.5343 3.76807 43.6173 3.76807C46.4435 3.76807 47.5568 5.9947 47.5568 8.17852C47.5568 8.64954 47.514 9.07774 47.4711 9.24902H41.7761ZM44.9876 7.36494C44.9876 6.67982 44.6878 5.5665 43.4461 5.5665C42.2899 5.5665 41.8189 6.59418 41.7761 7.36494H44.9876Z" fill="#FFAE50"/>
<path d="M56.2058 12.5462C55.7347 12.7603 54.7927 12.9315 53.765 12.9315C50.9389 12.9315 49.0977 11.2187 49.0977 8.43544C49.0977 5.86624 50.8532 3.76807 54.1504 3.76807C54.8783 3.76807 55.6491 3.89653 56.2486 4.11063L55.8204 6.12316C55.4778 5.9947 55.0068 5.86624 54.2789 5.86624C52.823 5.86624 51.9238 6.89392 51.9238 8.3498C51.9238 9.97696 52.9942 10.8334 54.3217 10.8334C54.964 10.8334 55.4778 10.7049 55.906 10.5764L56.2058 12.5462Z" fill="#FFAE50"/>
<path d="M58.1328 0H60.8733V5.00993H60.9161C61.2158 4.62455 61.5584 4.32481 61.9866 4.11071C62.372 3.89661 62.8858 3.76815 63.3997 3.76815C65.1553 3.76815 66.4827 4.96711 66.4827 7.62195V12.7603H63.7422V7.92169C63.7422 6.76555 63.3569 5.99479 62.3292 5.99479C61.6012 5.99479 61.173 6.46581 60.9589 6.93683C60.8733 7.10811 60.8733 7.36503 60.8733 7.53631V12.7603H58.1328V0Z" fill="#FFAE50"/>
<path d="M69.0934 6.7658C69.0934 5.65248 69.0506 4.75326 69.0078 3.93969H71.3629L71.4913 5.13864H71.5342C71.8768 4.58198 72.7759 3.72559 74.2318 3.72559C76.0303 3.72559 77.4005 4.92454 77.4005 7.49374V12.7178H74.66V7.87912C74.66 6.7658 74.2747 5.95222 73.2898 5.95222C72.519 5.95222 72.0908 6.46606 71.9195 6.9799C71.8339 7.15118 71.7911 7.4081 71.7911 7.66502V12.7178H69.0506V6.7658H69.0934Z" fill="#FFAE50"/>
<path d="M88.7494 8.26416C88.7494 11.4757 86.4799 12.9744 84.1248 12.9744C81.5556 12.9744 79.5859 11.3044 79.5859 8.43544C79.5859 5.60932 81.47 3.76807 84.2961 3.76807C86.951 3.76807 88.7494 5.60932 88.7494 8.26416ZM82.412 8.3498C82.412 9.8485 83.0544 11.0046 84.2105 11.0046C85.281 11.0046 85.9661 9.93414 85.9661 8.3498C85.9661 7.02238 85.4523 5.69496 84.2105 5.69496C82.8831 5.69496 82.412 7.0652 82.412 8.3498Z" fill="#FFAE50"/>
<path d="M90.8906 0H93.6311V12.7603H90.8906V0Z" fill="#FFAE50"/>
<path d="M104.935 8.26416C104.935 11.4757 102.665 12.9744 100.31 12.9744C97.7412 12.9744 95.7715 11.3044 95.7715 8.43544C95.7715 5.60932 97.6556 3.76807 100.482 3.76807C103.137 3.76807 104.935 5.60932 104.935 8.26416ZM98.5976 8.3498C98.5976 9.8485 99.2399 11.0046 100.396 11.0046C101.467 11.0046 102.152 9.93414 102.152 8.3498C102.152 7.02238 101.638 5.69496 100.396 5.69496C99.0686 5.69496 98.5976 7.0652 98.5976 8.3498Z" fill="#FFAE50"/>
<path d="M115.512 3.98246C115.469 4.53912 115.426 5.26706 115.426 6.59448V11.5188C115.426 13.1888 115.084 14.6018 114.099 15.4582C113.114 16.2718 111.83 16.5287 110.502 16.5287C109.346 16.5287 108.147 16.3146 107.333 15.8436L107.89 13.7882C108.447 14.1308 109.432 14.4733 110.459 14.4733C111.744 14.4733 112.729 13.7882 112.729 12.1611V11.6044H112.686C112.172 12.3324 111.316 12.7606 110.331 12.7606C108.147 12.7606 106.605 11.0049 106.605 8.47856C106.605 5.65244 108.447 3.854 110.588 3.854C111.787 3.854 112.557 4.36784 112.986 5.09578H113.028L113.114 4.0681H115.512V3.98246ZM112.729 7.53652C112.729 7.36524 112.729 7.19396 112.686 7.02268C112.472 6.29474 111.958 5.82372 111.23 5.82372C110.245 5.82372 109.432 6.72294 109.432 8.30728C109.432 9.6347 110.074 10.6624 111.23 10.6624C111.915 10.6624 112.472 10.1914 112.686 9.54906C112.772 9.33496 112.772 9.07804 112.772 8.82112V7.53652H112.729Z" fill="#FFAE50"/>
<path d="M120.136 3.98227L121.463 8.30709C121.592 8.82093 121.806 9.46322 121.891 9.93424H121.934C122.063 9.46322 122.191 8.82093 122.32 8.30709L123.39 3.98227H126.302L124.247 9.76296C123.005 13.2314 122.148 14.6444 121.163 15.5437C120.221 16.3572 119.194 16.657 118.509 16.7426L117.952 14.4303C118.295 14.3875 118.723 14.2162 119.151 13.9593C119.579 13.7452 120.007 13.317 120.264 12.846C120.35 12.7175 120.393 12.5891 120.393 12.4606C120.393 12.375 120.393 12.2465 120.264 11.9896L117.053 3.93945H120.136V3.98227Z" fill="#FFAE50"/>
<path d="M7 24L10 27L20 17" stroke="#FFAE50" stroke-width="2" stroke-linecap="round" stroke-linejoin="round"/>
<path d="M19 25V32C19 32.5304 18.7893 33.0391 18.4142 33.4142C18.0391 33.7893 17.5304 34 17 34H3C2.46957 34 1.96086 33.7893 1.58579 33.4142C1.21071 33.0391 1 32.5304 1 32V18C1 17.4696 1.21071 16.9609 1.58579 16.5858C1.96086 16.2107 2.46957 16 3 16H14" stroke="#045F87" stroke-width="2" stroke-linecap="round" stroke-linejoin="round"/>
<path d="M32.4121 45.0303H32.9004C33.3789 45.0303 33.7321 44.9505 33.96 44.791C34.1878 44.6315 34.3018 44.3809 34.3018 44.0391C34.3018 43.7005 34.1846 43.4596 33.9502 43.3164C33.7191 43.1732 33.3594 43.1016 32.8711 43.1016H32.4121V45.0303ZM32.4121 46.2607V49H30.8984V41.8613H32.9785C33.9486 41.8613 34.6663 42.0387 35.1318 42.3936C35.5973 42.7451 35.8301 43.2806 35.8301 44C35.8301 44.4199 35.7145 44.7943 35.4834 45.123C35.2523 45.4486 34.9251 45.7041 34.502 45.8896C35.5762 47.4945 36.276 48.5312 36.6016 49H34.9219L33.2178 46.2607H32.4121ZM41.6113 49H37.5V41.8613H41.6113V43.1016H39.0137V44.6689H41.4307V45.9092H39.0137V47.75H41.6113V49ZM49.585 45.4209C49.585 46.2607 49.4352 46.9655 49.1357 47.5352C48.8395 48.1016 48.4033 48.5166 47.8271 48.7803L49.5459 50.6992H47.6074L46.2988 49.0977H46.1865C45.0928 49.0977 44.2529 48.7803 43.667 48.1455C43.0811 47.5107 42.7881 46.5993 42.7881 45.4111C42.7881 44.223 43.0811 43.3164 43.667 42.6914C44.2562 42.0632 45.0993 41.749 46.1963 41.749C47.2933 41.749 48.1315 42.0648 48.7109 42.6963C49.2936 43.3278 49.585 44.236 49.585 45.4209ZM44.375 45.4209C44.375 46.2184 44.5264 46.819 44.8291 47.2227C45.1318 47.6263 45.5843 47.8281 46.1865 47.8281C47.3942 47.8281 47.998 47.0257 47.998 45.4209C47.998 43.8128 47.3975 43.0088 46.1963 43.0088C45.5941 43.0088 45.14 43.2122 44.834 43.6191C44.528 44.0228 44.375 44.6234 44.375 45.4209ZM56.875 41.8613V46.4805C56.875 47.0078 56.7562 47.4701 56.5186 47.8672C56.2842 48.2643 55.944 48.5687 55.498 48.7803C55.0521 48.9919 54.5247 49.0977 53.916 49.0977C52.998 49.0977 52.2852 48.8633 51.7773 48.3945C51.2695 47.9225 51.0156 47.278 51.0156 46.4609V41.8613H52.5244V46.2314C52.5244 46.7816 52.6351 47.1852 52.8564 47.4424C53.0778 47.6995 53.444 47.8281 53.9551 47.8281C54.4499 47.8281 54.8079 47.6995 55.0293 47.4424C55.2539 47.182 55.3662 46.7751 55.3662 46.2217V41.8613H56.875ZM62.7344 49H58.623V41.8613H62.7344V43.1016H60.1367V44.6689H62.5537V45.9092H60.1367V47.75H62.7344V49ZM68.4424 47.0176C68.4424 47.6621 68.2096 48.1699 67.7441 48.541C67.2819 48.9121 66.6374 49.0977 65.8105 49.0977C65.0488 49.0977 64.375 48.9544 63.7891 48.668V47.2617C64.2708 47.4766 64.6777 47.6279 65.0098 47.7158C65.3451 47.8037 65.651 47.8477 65.9277 47.8477C66.2598 47.8477 66.5137 47.7842 66.6895 47.6572C66.8685 47.5303 66.958 47.3415 66.958 47.0908C66.958 46.9508 66.9189 46.8271 66.8408 46.7197C66.7627 46.609 66.6471 46.5033 66.4941 46.4023C66.3444 46.3014 66.0368 46.1403 65.5713 45.9189C65.1351 45.7139 64.8079 45.5169 64.5898 45.3281C64.3717 45.1393 64.1976 44.9196 64.0674 44.6689C63.9372 44.4183 63.8721 44.1253 63.8721 43.79C63.8721 43.1585 64.0853 42.6621 64.5117 42.3008C64.9414 41.9395 65.5339 41.7588 66.2891 41.7588C66.6602 41.7588 67.0133 41.8027 67.3486 41.8906C67.6872 41.9785 68.0404 42.1022 68.4082 42.2617L67.9199 43.4385C67.5391 43.2822 67.2233 43.1732 66.9727 43.1113C66.7253 43.0495 66.4811 43.0186 66.2402 43.0186C65.9538 43.0186 65.734 43.0853 65.5811 43.2188C65.4281 43.3522 65.3516 43.5264 65.3516 43.7412C65.3516 43.8747 65.3825 43.9919 65.4443 44.0928C65.5062 44.1904 65.6038 44.2865 65.7373 44.3809C65.874 44.472 66.1947 44.638 66.6992 44.8789C67.3665 45.1979 67.8239 45.5186 68.0713 45.8408C68.3187 46.1598 68.4424 46.5521 68.4424 47.0176ZM72.4902 49H70.9766V43.1211H69.0381V41.8613H74.4287V43.1211H72.4902V49ZM79.6387 49H75.5273V41.8613H79.6387V43.1016H77.041V44.6689H79.458V45.9092H77.041V47.75H79.6387V49ZM87.0557 45.3623C87.0557 46.5374 86.7204 47.4375 86.0498 48.0625C85.3825 48.6875 84.4173 49 83.1543 49H81.1328V41.8613H83.374C84.5394 41.8613 85.4443 42.1689 86.0889 42.7842C86.7334 43.3994 87.0557 44.2588 87.0557 45.3623ZM85.4834 45.4014C85.4834 43.8682 84.8063 43.1016 83.4521 43.1016H82.6465V47.75H83.2959C84.7542 47.75 85.4834 46.9671 85.4834 45.4014Z" fill="#045F87"/>
</svg>
