<svg width="132" height="36" viewBox="0 0 132 36" fill="none" xmlns="http://www.w3.org/2000/svg">
<path d="M43.6711 33.3448C42.073 34.8997 39.9998 35.634 37.7969 35.634C32.0523 35.634 29.5904 31.6603 29.5904 27.6434C29.5472 23.5833 32.1819 19.48 37.7969 19.48C39.9134 19.48 41.9002 20.2574 43.4983 21.8556L41.5547 23.756C40.5181 22.7626 39.1791 22.2875 37.7969 22.2875C34.0392 22.2875 32.3979 25.0518 32.4411 27.6434C32.4843 30.1917 33.9528 32.9128 37.7969 32.9128C39.1359 32.9128 40.6908 32.3513 41.6843 31.3579L43.6711 33.3448Z" fill="#045F87"/>
<path d="M58.7031 19.8252V28.7228C58.7031 33.3012 55.8955 35.6336 52.0082 35.6336C48.2937 35.6336 45.1406 33.3876 45.1406 28.7228V19.8252H48.0345V28.7228C48.0345 31.5304 49.6326 32.9989 52.0514 32.9989C54.4702 32.9989 55.8524 31.4008 55.8524 28.7228V19.8252H58.7031Z" fill="#045F87"/>
<path d="M75.2879 35.2883H71.8325L67.2973 30.1052H64.4898V35.2883H61.5527V19.7822C64.0147 19.7822 66.4767 19.8254 68.9386 19.8254C72.61 19.8686 74.5105 22.2874 74.5105 24.9653C74.5105 27.0818 73.517 29.2414 70.58 29.8461L75.2879 35.1588V35.2883ZM64.4898 22.5034V27.4705H68.9386C70.7959 27.4705 71.6166 26.2179 71.6166 25.0085C71.6166 23.7991 70.7959 22.5465 68.9386 22.5465H64.4898V22.5034Z" fill="#045F87"/>
<path d="M87.4677 32.3512H79.3475L78.0085 35.2883H74.8555L81.8095 19.7822H85.0057L92.0029 35.2883H88.8066L87.4677 32.3512ZM83.4508 23.0649L80.5569 29.6733H86.3015L83.4508 23.0649Z" fill="#045F87"/>
<path d="M94.7677 22.4602H89.8438V19.7822C94.3358 19.7822 98.0935 19.7822 102.586 19.7822V22.4602H97.6616V35.2883H94.7245V22.4602H94.7677Z" fill="#045F87"/>
<path d="M115.933 35.2883H104.314C104.314 30.1484 104.314 24.9653 104.314 19.7822H115.933V22.6329H107.252V26.2179H115.631V28.939H107.252V32.3944H115.933V35.2883Z" fill="#045F87"/>
<path d="M131.827 27.4273C131.914 31.3578 129.495 35.3315 124.096 35.3315C122.196 35.3315 119.906 35.3315 118.006 35.3315V19.7822C119.906 19.7822 122.196 19.7822 124.096 19.7822C129.409 19.7822 131.784 23.5832 131.827 27.4273ZM120.9 32.4808H124.096C127.638 32.4808 129.02 29.9325 128.934 27.3841C128.847 24.9653 127.465 22.5465 124.096 22.5465H120.9V32.4808Z" fill="#045F87"/>
<path fill-rule="evenodd" clip-rule="evenodd" d="M0.0451456 20.1281L0.00195312 16.5431C0.00195312 16.1544 0.217915 15.8521 0.520263 15.8521H3.02543C3.32777 15.8521 3.54374 16.1544 3.54374 16.4999L3.58693 20.0849C3.58693 20.4736 3.37097 20.776 3.06862 20.776H0.563455C0.261108 20.776 0.0451456 20.4736 0.0451456 20.1281Z" fill="#FFAE50"/>
<path fill-rule="evenodd" clip-rule="evenodd" d="M0.0451456 26.2765L0.00195312 22.6916C0.00195312 22.3028 0.217915 22.0005 0.520263 22.0005H3.02543C3.32777 22.0005 3.54374 22.3028 3.54374 22.6484L3.58693 26.2334C3.58693 26.6221 3.37097 26.9244 3.06862 26.9244H0.563455C0.261108 26.9244 0.0451456 26.6221 0.0451456 26.2765Z" fill="#FFAE50"/>
<path fill-rule="evenodd" clip-rule="evenodd" d="M4.62327 20.0847L4.58008 16.4997C4.58008 16.1109 4.79604 15.8086 5.09839 15.8086H7.60355C7.9059 15.8086 8.12186 16.1109 8.12186 16.4565L8.16505 20.0415C8.16505 20.4302 7.94909 20.7325 7.64674 20.7325H5.14158C4.88243 20.7325 4.62327 20.4302 4.62327 20.0847Z" fill="#045F87"/>
<path fill-rule="evenodd" clip-rule="evenodd" d="M9.11546 31.7468L9.07227 28.1618C9.07227 27.7731 9.28823 27.4707 9.59058 27.4707H12.0957C12.3981 27.4707 12.614 27.7731 12.614 28.1186L12.6572 31.7036C12.6572 32.0923 12.4413 32.3947 12.1389 32.3947H9.63377C9.37461 32.4378 9.11546 32.1355 9.11546 31.7468Z" fill="#FFAE50"/>
<path fill-rule="evenodd" clip-rule="evenodd" d="M9.07227 25.9157V22.3307C9.07227 21.942 9.28823 21.6396 9.59058 21.6396H12.0957C12.3981 21.6396 12.614 21.942 12.614 22.2875L12.6572 25.8725C12.6572 26.2612 12.4413 26.5636 12.1389 26.5636H9.63377C9.33142 26.5636 9.07227 26.2612 9.07227 25.9157Z" fill="#045F87"/>
<path fill-rule="evenodd" clip-rule="evenodd" d="M9.02952 20.0417L8.98633 16.4567C8.98633 16.068 9.20229 15.7656 9.50464 15.7656H12.0098C12.3122 15.7656 12.5281 16.068 12.5281 16.4135L12.5713 19.9985C12.5713 20.3872 12.3553 20.6896 12.053 20.6896H9.54783C9.28868 20.7328 9.02952 20.4304 9.02952 20.0417Z" fill="#FFAE50"/>
<path fill-rule="evenodd" clip-rule="evenodd" d="M13.5217 31.7033L13.4785 28.1183C13.4785 27.7296 13.6945 27.4272 13.9968 27.4272H16.502C16.8043 27.4272 17.0203 27.7296 17.0203 28.0751L17.0635 31.6601C17.0635 32.0488 16.8475 32.3512 16.5452 32.3512H14.04C13.7809 32.3944 13.5217 32.092 13.5217 31.7033Z" fill="#045F87"/>
<path fill-rule="evenodd" clip-rule="evenodd" d="M13.4787 25.8727L13.4355 22.2878C13.4355 21.899 13.6515 21.5967 13.9539 21.5967H16.459C16.7614 21.5967 16.9773 21.899 16.9773 22.2446L17.0205 25.8295C17.0205 26.2183 16.8046 26.5206 16.5022 26.5206H13.997C13.7379 26.5206 13.4787 26.2183 13.4787 25.8727Z" fill="#FFAE50"/>
<path fill-rule="evenodd" clip-rule="evenodd" d="M13.4355 19.9987V16.4137C13.4355 16.025 13.6515 15.7227 13.9539 15.7227H16.459C16.7614 15.7227 16.9773 16.025 16.9773 16.3705L17.0205 19.9555C17.0205 20.3443 16.8046 20.6466 16.5022 20.6466H13.997C13.6947 20.6898 13.4355 20.3874 13.4355 19.9987Z" fill="#045F87"/>
<path fill-rule="evenodd" clip-rule="evenodd" d="M4.32054 14.0807L4.27734 10.4958C4.27734 10.107 4.49331 9.80469 4.79565 9.80469H7.30082C7.60316 9.80469 7.81913 10.107 7.81913 10.4526L7.86232 14.0375C7.86232 14.4263 7.64636 14.7286 7.34401 14.7286H4.83885C4.5365 14.7718 4.32054 14.4695 4.32054 14.0807Z" fill="#FFAE50"/>
<path fill-rule="evenodd" clip-rule="evenodd" d="M8.98655 14.0378L8.94336 10.4528C8.94336 10.0641 9.15932 9.76172 9.46167 9.76172H11.9668C12.2692 9.76172 12.4851 10.0641 12.4851 10.4096L12.5283 13.9946C12.5283 14.3833 12.3124 14.6857 12.01 14.6857H9.50486C9.24571 14.6857 8.98655 14.3833 8.98655 14.0378Z" fill="#FFAE50"/>
<path fill-rule="evenodd" clip-rule="evenodd" d="M13.3906 13.9948V10.4098C13.3906 10.0211 13.6066 9.71875 13.9089 9.71875H16.4141C16.7164 9.71875 16.9324 10.0211 16.9324 10.3666L16.9756 13.9516C16.9756 14.3403 16.7596 14.6427 16.4573 14.6427H13.9521C13.6498 14.6427 13.3906 14.3835 13.3906 13.9948Z" fill="#FFAE50"/>
<path fill-rule="evenodd" clip-rule="evenodd" d="M17.7109 25.8293V22.2443C17.7109 21.8556 17.9269 21.5532 18.2292 21.5532H20.7344C21.0368 21.5532 21.2527 21.8556 21.2527 22.2011L21.2959 25.7861C21.2959 26.1748 21.08 26.4772 20.7776 26.4772H18.2724C17.9701 26.5204 17.7109 26.218 17.7109 25.8293Z" fill="#045F87"/>
<path fill-rule="evenodd" clip-rule="evenodd" d="M17.668 19.9987V16.4137C17.668 16.025 17.8839 15.7227 18.1863 15.7227H20.6914C20.9938 15.7227 21.2097 16.025 21.2097 16.3705L21.2529 19.9555C21.2529 20.3443 21.037 20.6466 20.7346 20.6466H18.2295C17.9271 20.6466 17.7112 20.3443 17.668 19.9987Z" fill="#FFAE50"/>
<path fill-rule="evenodd" clip-rule="evenodd" d="M17.625 13.9513V10.3664C17.625 9.97764 17.841 9.67529 18.1433 9.67529H20.6485C20.9508 9.67529 21.1668 9.97764 21.1668 10.3232L21.21 13.9082C21.21 14.2969 20.994 14.5992 20.6917 14.5992H18.1865C17.8842 14.6424 17.6682 14.3401 17.625 13.9513Z" fill="#045F87"/>
<path d="M19.8174 23.6444L14.7793 29.4521L15.3666 29.9616L20.4047 24.1539L19.8174 23.6444Z" fill="#045F87"/>
<path d="M19.2955 12.5527L14.2559 18.3589L14.843 18.8685L19.8827 13.0623L19.2955 12.5527Z" fill="#045F87"/>
<path d="M32.4818 2.98083H29.1992V0.648438H38.6152V2.98083H35.2894V12.8719H32.525V2.98083H32.4818Z" fill="#FFAE50"/>
<path d="M41.0332 9.32991C41.1196 10.4529 42.2426 11.0144 43.5383 11.0144C44.4886 11.0144 45.2229 10.8848 46.0003 10.6689L46.3459 12.5261C45.4388 12.8717 44.3158 13.0877 43.1496 13.0877C40.1261 13.0877 38.3984 11.36 38.3984 8.55244C38.3984 6.30643 39.7806 3.80127 42.8905 3.80127C45.7412 3.80127 46.8642 6.04728 46.8642 8.25009C46.8642 8.72521 46.821 9.15714 46.7778 9.32991H41.0332ZM44.3158 7.42944C44.3158 6.73836 44.0135 5.61535 42.7609 5.61535C41.5947 5.61535 41.1196 6.65197 41.0764 7.42944H44.3158Z" fill="#FFAE50"/>
<path d="M55.5899 12.6557C55.1147 12.8717 54.1645 13.0445 53.1279 13.0445C50.2772 13.0445 48.4199 11.3168 48.4199 8.50925C48.4199 5.9177 50.1908 3.80127 53.5166 3.80127C54.2509 3.80127 55.0284 3.93085 55.6331 4.14681L55.2011 6.17686C54.8556 6.04728 54.3805 5.9177 53.6462 5.9177C52.1777 5.9177 51.2706 6.95432 51.2706 8.42286C51.2706 10.0642 52.3504 10.928 53.6894 10.928C54.3373 10.928 54.8556 10.7984 55.2875 10.6689L55.5899 12.6557Z" fill="#FFAE50"/>
<path d="M57.5762 0.000488281H60.3405V5.05401H60.3837C60.686 4.66527 61.0316 4.36293 61.4635 4.14697C61.8522 3.931 62.3705 3.80143 62.8888 3.80143C64.6597 3.80143 65.9987 5.01081 65.9987 7.68875V12.8718H63.2344V7.99109C63.2344 6.8249 62.8457 6.04743 61.809 6.04743C61.0748 6.04743 60.6428 6.52255 60.4269 6.99767C60.3405 7.17044 60.3405 7.42959 60.3405 7.60236V12.8718H57.5762V0.000488281Z" fill="#FFAE50"/>
<path d="M68.6333 6.82497C68.6333 5.70196 68.5901 4.79492 68.5469 3.97426H70.9225L71.052 5.18365H71.0952C71.4408 4.62215 72.3478 3.7583 73.8164 3.7583C75.6304 3.7583 77.0126 4.96769 77.0126 7.55924V12.8287H74.2915V7.94797C74.2915 6.82497 73.9027 6.00431 72.9093 6.00431C72.1319 6.00431 71.6999 6.52262 71.5272 7.04093C71.4408 7.2137 71.3976 7.47285 71.3976 7.73201V12.8287H68.6333V6.82497Z" fill="#FFAE50"/>
<path d="M88.46 8.33648C88.46 11.5759 86.1708 13.0877 83.7952 13.0877C81.2037 13.0877 79.2168 11.4031 79.2168 8.50925C79.2168 5.65855 81.1173 3.80127 83.968 3.80127C86.6459 3.80127 88.46 5.65855 88.46 8.33648ZM82.0243 8.42286C82.0243 9.9346 82.6722 11.1008 83.8384 11.1008C84.9182 11.1008 85.6093 10.021 85.6093 8.42286C85.6093 7.0839 85.091 5.74493 83.8384 5.74493C82.5426 5.78812 82.0243 7.12709 82.0243 8.42286Z" fill="#FFAE50"/>
<path d="M90.5762 0.000488281H93.3405V12.8718H90.5762V0.000488281Z" fill="#FFAE50"/>
<path d="M104.786 8.33648C104.786 11.5759 102.497 13.0877 100.121 13.0877C97.5298 13.0877 95.543 11.4031 95.543 8.50925C95.543 5.65855 97.4434 3.80127 100.294 3.80127C102.972 3.80127 104.786 5.65855 104.786 8.33648ZM98.3505 8.42286C98.3505 9.9346 98.9984 11.1008 100.165 11.1008C101.244 11.1008 101.935 10.021 101.935 8.42286C101.935 7.0839 101.417 5.74493 100.165 5.74493C98.8688 5.78812 98.3505 7.12709 98.3505 8.42286Z" fill="#FFAE50"/>
<path d="M115.455 4.0175C115.412 4.579 115.368 5.31327 115.368 6.65224V11.6194C115.368 13.3039 115.023 14.7292 114.029 15.5931C113.036 16.4137 111.74 16.6729 110.401 16.6729C109.235 16.6729 108.026 16.4569 107.205 15.9818L107.766 13.9086C108.328 14.2541 109.321 14.5997 110.358 14.5997C111.654 14.5997 112.647 13.9086 112.647 12.2673V11.6626H112.604C112.086 12.3968 111.222 12.8288 110.228 12.8288C108.026 12.8288 106.471 11.0579 106.471 8.50951C106.471 5.65881 108.328 3.84473 110.488 3.84473C111.697 3.84473 112.474 4.36304 112.906 5.09731H112.95L113.036 4.06069H115.455V4.0175ZM112.604 7.60247C112.604 7.4297 112.604 7.25693 112.561 7.08416C112.345 6.34989 111.827 5.87477 111.092 5.87477C110.099 5.87477 109.278 6.78181 109.278 8.37994C109.278 9.7189 109.926 10.7555 111.092 10.7555C111.783 10.7555 112.345 10.2804 112.561 9.63252C112.647 9.41655 112.647 9.1574 112.647 8.89825V7.60247H112.604Z" fill="#FFAE50"/>
<path d="M120.077 4.01731L121.416 8.37975C121.545 8.89806 121.761 9.54595 121.848 10.0211H121.891C122.02 9.54595 122.15 8.89806 122.279 8.37975L123.359 4.01731H126.296L124.223 9.8483C122.971 13.3469 122.107 14.7722 121.113 15.6793C120.163 16.4999 119.126 16.8023 118.435 16.8887L117.874 14.5563C118.219 14.5131 118.651 14.3403 119.083 14.0812C119.515 13.8652 119.947 13.4333 120.206 12.9582C120.293 12.8286 120.336 12.699 120.336 12.5694C120.336 12.483 120.336 12.3535 120.206 12.0943L116.967 3.97412H120.077V4.01731Z" fill="#FFAE50"/>
</svg>
