<svg width="143" height="48" viewBox="0 0 143 48" fill="none" xmlns="http://www.w3.org/2000/svg">
<path d="M44.1183 29.1943C42.5774 30.6936 40.5784 31.4016 38.4544 31.4016C32.9154 31.4016 30.5415 27.5701 30.5415 23.6969C30.4999 19.7821 33.0403 15.8257 38.4544 15.8257C40.4951 15.8257 42.4108 16.5753 43.9518 18.1163L42.0777 19.9487C41.0781 18.9908 39.7871 18.5327 38.4544 18.5327C34.8311 18.5327 33.2902 21.2398 33.2902 23.7386C33.3318 26.1957 34.7478 28.8195 38.4544 28.8195C39.7454 28.8195 41.2447 28.278 42.2026 27.3202L44.1183 29.1943Z" fill="#045F87"/>
<path d="M58.6122 16.1587V24.7379C58.6122 29.1525 55.9052 31.4014 52.157 31.4014C48.5754 31.4014 45.5352 29.2358 45.5352 24.7379V16.1587H48.3255V24.7379C48.3255 27.445 49.8664 28.8609 52.1986 28.8609C54.5308 28.8609 55.8635 27.32 55.8635 24.7379V16.1587H58.6122Z" fill="#045F87"/>
<path d="M74.605 31.0684H71.2733L66.9003 26.0707H64.1933V31.0684H61.3613V16.1172C63.7352 16.1172 66.1091 16.1588 68.4829 16.1588C72.0229 16.2005 73.8554 18.5327 73.8554 21.1148C73.8554 23.1555 72.8975 25.2378 70.0655 25.8209L74.605 30.9434V31.0684ZM64.1933 18.7409V23.5303H68.4829C70.2737 23.5303 71.065 22.3225 71.065 21.1564C71.065 19.9903 70.2737 18.7826 68.4829 18.7826H64.1933V18.7409Z" fill="#045F87"/>
<path d="M86.3483 28.2364H78.5188L77.2277 31.0684H74.1875L80.8926 16.1172H83.9745L90.7212 31.0684H87.6394L86.3483 28.2364ZM82.4752 19.2823L79.6849 25.6543H85.2239L82.4752 19.2823Z" fill="#045F87"/>
<path d="M93.3864 18.6993H88.6387V16.1172C92.9699 16.1172 96.5932 16.1172 100.924 16.1172V18.6993H96.1767V31.0684H93.3448V18.6993H93.3864Z" fill="#045F87"/>
<path d="M113.793 31.0684H102.59C102.59 26.1124 102.59 21.1148 102.59 16.1172H113.793V18.8659H105.422V22.3225H113.501V24.9463H105.422V28.3197H113.793V31.0684Z" fill="#045F87"/>
<path d="M129.12 23.4887C129.203 27.2785 126.871 31.11 121.665 31.11C119.833 31.11 117.625 31.11 115.793 31.11V16.1172C117.625 16.1172 119.833 16.1172 121.665 16.1172C126.788 16.1172 129.078 19.7821 129.12 23.4887ZM118.583 28.3613H121.665C125.08 28.3613 126.413 25.9042 126.33 23.447C126.246 21.1148 124.914 18.7826 121.665 18.7826H118.583V28.3613Z" fill="#045F87"/>
<path d="M32.5405 1.83367H30V0.500977H36.7884V1.87532H34.2063V9.49667H32.5821V1.83367H32.5405Z" fill="#78969B"/>
<path d="M37.58 6.66367C37.6216 7.82978 38.5379 8.32954 39.579 8.32954C40.3287 8.32954 40.8701 8.2046 41.3698 8.03801L41.6197 9.16247C41.0783 9.37071 40.287 9.57894 39.3708 9.57894C37.2468 9.57894 36.0391 8.28789 36.0391 6.28885C36.0391 4.49804 37.1219 2.79053 39.2042 2.79053C41.3282 2.79053 41.9945 4.53969 41.9945 5.95568C41.9945 6.2472 41.9529 6.49708 41.9529 6.66367H37.58ZM40.412 5.53921C40.412 4.95616 40.1621 3.95664 39.0793 3.95664C38.0798 3.95664 37.6216 4.87286 37.58 5.53921H40.412Z" fill="#78969B"/>
<path d="M42.9512 0H44.617V9.4538H42.9512V0Z" fill="#78969B"/>
<path d="M47.2011 6.66367C47.2427 7.82978 48.159 8.32954 49.2001 8.32954C49.9498 8.32954 50.4912 8.2046 50.9909 8.03801L51.2408 9.16247C50.6994 9.37071 49.9081 9.57894 48.9919 9.57894C46.8679 9.57894 45.6602 8.28789 45.6602 6.28885C45.6602 4.49804 46.743 2.79053 48.8253 2.79053C50.9493 2.79053 51.6156 4.53969 51.6156 5.95568C51.6156 6.2472 51.574 6.49708 51.574 6.66367H47.2011ZM50.0747 5.53921C50.0747 4.95616 49.8248 3.95664 48.742 3.95664C47.7425 3.95664 47.2844 4.87286 47.2427 5.53921H50.0747Z" fill="#78969B"/>
<path d="M57.3615 9.24563C57.0283 9.41221 56.3203 9.5788 55.529 9.5788C53.4883 9.5788 52.1973 8.28775 52.1973 6.28871C52.1973 4.33131 53.53 2.83203 55.8205 2.83203C56.4036 2.83203 57.0283 2.95697 57.4031 3.12356L57.1116 4.33131C56.8617 4.20637 56.4452 4.08143 55.8622 4.08143C54.6128 4.08143 53.8631 4.99766 53.8631 6.20541C53.8631 7.53811 54.7377 8.28775 55.8622 8.28775C56.4452 8.28775 56.82 8.16281 57.1532 8.03787L57.3615 9.24563Z" fill="#78969B"/>
<path d="M64.2755 6.16377C64.2755 8.53763 62.6096 9.62045 60.9438 9.62045C59.1113 9.62045 57.6953 8.37104 57.6953 6.28871C57.6953 4.16473 59.1113 2.83203 61.0687 2.83203C62.9844 2.83203 64.2755 4.16473 64.2755 6.16377ZM59.4028 6.20541C59.4028 7.45482 60.0275 8.41269 61.027 8.41269C61.9433 8.41269 62.6096 7.49646 62.6096 6.20541C62.6096 5.20589 62.1515 4.03979 61.027 4.03979C59.8609 4.03979 59.4028 5.16425 59.4028 6.20541Z" fill="#78969B"/>
<path d="M65.317 4.91437C65.317 4.16473 65.317 3.54003 65.2754 2.99862H66.6914L66.7747 3.95649H66.8163C67.1495 3.45673 67.7325 2.83203 68.8154 2.83203C69.6483 2.83203 70.3146 3.33179 70.6062 4.03979H70.6478C70.8561 3.66497 71.1476 3.41509 71.4391 3.20685C71.8139 2.95697 72.2304 2.83203 72.7302 2.83203C73.813 2.83203 74.8958 3.58167 74.8958 5.66401V9.49551H73.3132V5.91389C73.3132 4.83107 72.9384 4.20637 72.1471 4.20637C71.6057 4.20637 71.1892 4.62284 70.981 5.08095C70.9394 5.24754 70.8977 5.45577 70.8977 5.62236V9.49551H69.3151V5.7473C69.3151 4.83107 68.9403 4.20637 68.1907 4.20637C67.566 4.20637 67.1495 4.70613 67.0246 5.1226C66.9413 5.28919 66.9413 5.45577 66.9413 5.66401V9.49551H65.317V4.91437Z" fill="#78969B"/>
<path d="M76.2702 4.91437C76.2702 4.16473 76.2702 3.54003 76.2285 2.99862H77.6445L77.7278 3.95649H77.7694C78.1026 3.45673 78.6857 2.83203 79.7685 2.83203C80.6014 2.83203 81.2678 3.33179 81.5593 4.03979H81.601C81.8092 3.66497 82.1007 3.41509 82.3922 3.20685C82.7671 2.95697 83.1835 2.83203 83.6833 2.83203C84.7661 2.83203 85.8489 3.58167 85.8489 5.66401V9.49551H84.2663V5.91389C84.2663 4.83107 83.8915 4.20637 83.1002 4.20637C82.5588 4.20637 82.1424 4.62284 81.9341 5.08095C81.8925 5.24754 81.8508 5.45577 81.8508 5.62236V9.49551H80.2683V5.7473C80.2683 4.83107 79.8934 4.20637 79.1438 4.20637C78.5191 4.20637 78.1026 4.70613 77.9777 5.1226C77.8944 5.28919 77.8944 5.45577 77.8944 5.66401V9.49551H76.3118V4.91437H76.2702Z" fill="#78969B"/>
<path d="M93.0532 7.49652C93.0532 8.28781 93.0948 8.91251 93.0948 9.45392H91.6372L91.5539 8.4544C91.2624 8.91251 90.6377 9.57886 89.4716 9.57886C88.3055 9.57886 87.2227 8.87087 87.2227 6.74688V2.95703H88.8469V6.497C88.8469 7.57982 89.18 8.28781 90.0546 8.28781C90.721 8.28781 91.1374 7.8297 91.304 7.41323C91.3457 7.24664 91.3873 7.08006 91.3873 6.91347V2.95703H93.0116V7.49652H93.0532Z" fill="#78969B"/>
<path d="M94.4694 4.91437C94.4694 4.16473 94.4694 3.54003 94.4277 2.99862H95.8854L95.9687 3.95649H96.0103C96.3018 3.45673 97.0098 2.83203 98.0926 2.83203C99.2171 2.83203 100.383 3.58167 100.383 5.62236V9.45386H98.759V5.78895C98.759 4.87272 98.4258 4.16473 97.5096 4.16473C96.8432 4.16473 96.3851 4.62284 96.2185 5.1226C96.1769 5.28919 96.1353 5.45577 96.1353 5.66401V9.49551H94.4694V4.91437Z" fill="#78969B"/>
<path d="M103.506 1.16603C103.506 1.66579 103.131 2.04061 102.59 2.04061C102.049 2.04061 101.674 1.66579 101.674 1.16603C101.674 0.66627 102.049 0.29145 102.59 0.29145C103.173 0.249803 103.506 0.66627 103.506 1.16603ZM101.799 9.45373V2.95684H103.465V9.45373H101.799Z" fill="#78969B"/>
<path d="M109.629 9.24563C109.296 9.41221 108.588 9.5788 107.797 9.5788C105.756 9.5788 104.465 8.28775 104.465 6.28871C104.465 4.33131 105.798 2.83203 108.088 2.83203C108.671 2.83203 109.296 2.95697 109.671 3.12356L109.379 4.33131C109.129 4.20637 108.713 4.08143 108.13 4.08143C106.88 4.08143 106.131 4.99766 106.131 6.20541C106.131 7.53811 107.005 8.28775 108.13 8.28775C108.713 8.28775 109.088 8.16281 109.421 8.03787L109.629 9.24563Z" fill="#78969B"/>
<path d="M114.17 9.45386L114.045 8.74586H114.003C113.587 9.24563 112.92 9.62045 112.088 9.62045C110.797 9.62045 110.047 8.66257 110.047 7.7047C110.047 6.08047 111.505 5.24754 113.878 5.24754V5.1226C113.878 4.70613 113.712 3.99814 112.546 3.99814C111.921 3.99814 111.255 4.20637 110.797 4.4979L110.463 3.41509C110.963 3.12356 111.796 2.83203 112.796 2.83203C114.878 2.83203 115.461 4.16473 115.461 5.58071V7.91293C115.461 8.49598 115.503 9.07904 115.544 9.45386H114.17ZM113.962 6.28871C112.796 6.24706 111.713 6.49694 111.713 7.49646C111.713 8.12116 112.129 8.41269 112.629 8.41269C113.295 8.41269 113.753 7.99622 113.92 7.53811C113.962 7.41317 113.962 7.28823 113.962 7.16329V6.28871Z" fill="#78969B"/>
<path d="M118.749 1.12451V2.95697H120.29V4.16472H118.749V7.07999C118.749 7.87128 118.957 8.28775 119.582 8.28775C119.873 8.28775 120.082 8.2461 120.206 8.20445L120.248 9.45385C119.998 9.53715 119.582 9.62044 119.082 9.62044C118.499 9.62044 117.958 9.41221 117.666 9.07903C117.333 8.70421 117.166 8.12116 117.166 7.24658V4.20637H116.25V2.95697H117.166V1.49933L118.749 1.12451Z" fill="#78969B"/>
<path d="M122.957 1.16603C122.957 1.66579 122.583 2.04061 122.041 2.04061C121.5 2.04061 121.125 1.66579 121.125 1.16603C121.125 0.66627 121.5 0.29145 122.041 0.29145C122.583 0.249803 122.957 0.66627 122.957 1.16603ZM121.208 9.45373V2.95684H122.874V9.45373H121.208Z" fill="#78969B"/>
<path d="M130.453 6.16377C130.453 8.53763 128.787 9.62045 127.121 9.62045C125.289 9.62045 123.873 8.37104 123.873 6.28871C123.873 4.16473 125.289 2.83203 127.246 2.83203C129.162 2.83203 130.453 4.16473 130.453 6.16377ZM125.581 6.20541C125.581 7.45482 126.205 8.41269 127.205 8.41269C128.121 8.41269 128.787 7.49646 128.787 6.20541C128.787 5.20589 128.329 4.03979 127.205 4.03979C126.039 4.03979 125.581 5.16425 125.581 6.20541Z" fill="#78969B"/>
<path d="M131.452 4.91437C131.452 4.16473 131.452 3.54003 131.41 2.99862H132.868L132.951 3.95649H132.993C133.284 3.45673 133.992 2.83203 135.075 2.83203C136.2 2.83203 137.366 3.58167 137.366 5.62236V9.45386H135.7V5.78895C135.7 4.87272 135.367 4.16473 134.45 4.16473C133.784 4.16473 133.326 4.62284 133.159 5.1226C133.118 5.28919 133.076 5.45577 133.076 5.66401V9.49551H131.41V4.91437H131.452Z" fill="#78969B"/>
<path d="M138.698 7.95458C139.073 8.16281 139.781 8.41269 140.364 8.41269C141.072 8.41269 141.405 8.12116 141.405 7.7047C141.405 7.24658 141.156 7.03835 140.323 6.74682C139.073 6.28871 138.532 5.62236 138.532 4.87272C138.532 3.70661 139.49 2.83203 140.989 2.83203C141.697 2.83203 142.322 2.99862 142.696 3.20685L142.363 4.37296C142.072 4.20637 141.572 3.99814 140.989 3.99814C140.406 3.99814 140.073 4.28967 140.073 4.66449C140.073 5.08095 140.364 5.28919 141.197 5.58071C142.363 5.99718 142.905 6.62188 142.946 7.57976C142.946 8.74586 142.03 9.62045 140.323 9.62045C139.531 9.62045 138.823 9.45386 138.365 9.16233L138.698 7.95458Z" fill="#78969B"/>
<path d="M7 20L10 23L20 13" stroke="#78969B" stroke-width="2" stroke-linecap="round" stroke-linejoin="round"/>
<path d="M19 21V28C19 28.5304 18.7893 29.0391 18.4142 29.4142C18.0391 29.7893 17.5304 30 17 30H3C2.46957 30 1.96086 29.7893 1.58579 29.4142C1.21071 29.0391 1 28.5304 1 28V14C1 13.4696 1.21071 12.9609 1.58579 12.5858C1.96086 12.2107 2.46957 12 3 12H14" stroke="#045F87" stroke-width="2" stroke-linecap="round" stroke-linejoin="round"/>
<path d="M32.4121 41.0303H32.9004C33.3789 41.0303 33.7321 40.9505 33.96 40.791C34.1878 40.6315 34.3018 40.3809 34.3018 40.0391C34.3018 39.7005 34.1846 39.4596 33.9502 39.3164C33.7191 39.1732 33.3594 39.1016 32.8711 39.1016H32.4121V41.0303ZM32.4121 42.2607V45H30.8984V37.8613H32.9785C33.9486 37.8613 34.6663 38.0387 35.1318 38.3936C35.5973 38.7451 35.8301 39.2806 35.8301 40C35.8301 40.4199 35.7145 40.7943 35.4834 41.123C35.2523 41.4486 34.9251 41.7041 34.502 41.8896C35.5762 43.4945 36.276 44.5312 36.6016 45H34.9219L33.2178 42.2607H32.4121ZM41.6113 45H37.5V37.8613H41.6113V39.1016H39.0137V40.6689H41.4307V41.9092H39.0137V43.75H41.6113V45ZM49.585 41.4209C49.585 42.2607 49.4352 42.9655 49.1357 43.5352C48.8395 44.1016 48.4033 44.5166 47.8271 44.7803L49.5459 46.6992H47.6074L46.2988 45.0977H46.1865C45.0928 45.0977 44.2529 44.7803 43.667 44.1455C43.0811 43.5107 42.7881 42.5993 42.7881 41.4111C42.7881 40.223 43.0811 39.3164 43.667 38.6914C44.2562 38.0632 45.0993 37.749 46.1963 37.749C47.2933 37.749 48.1315 38.0648 48.7109 38.6963C49.2936 39.3278 49.585 40.236 49.585 41.4209ZM44.375 41.4209C44.375 42.2184 44.5264 42.819 44.8291 43.2227C45.1318 43.6263 45.5843 43.8281 46.1865 43.8281C47.3942 43.8281 47.998 43.0257 47.998 41.4209C47.998 39.8128 47.3975 39.0088 46.1963 39.0088C45.5941 39.0088 45.14 39.2122 44.834 39.6191C44.528 40.0228 44.375 40.6234 44.375 41.4209ZM56.875 37.8613V42.4805C56.875 43.0078 56.7562 43.4701 56.5186 43.8672C56.2842 44.2643 55.944 44.5687 55.498 44.7803C55.0521 44.9919 54.5247 45.0977 53.916 45.0977C52.998 45.0977 52.2852 44.8633 51.7773 44.3945C51.2695 43.9225 51.0156 43.278 51.0156 42.4609V37.8613H52.5244V42.2314C52.5244 42.7816 52.6351 43.1852 52.8564 43.4424C53.0778 43.6995 53.444 43.8281 53.9551 43.8281C54.4499 43.8281 54.8079 43.6995 55.0293 43.4424C55.2539 43.182 55.3662 42.7751 55.3662 42.2217V37.8613H56.875ZM62.7344 45H58.623V37.8613H62.7344V39.1016H60.1367V40.6689H62.5537V41.9092H60.1367V43.75H62.7344V45ZM68.4424 43.0176C68.4424 43.6621 68.2096 44.1699 67.7441 44.541C67.2819 44.9121 66.6374 45.0977 65.8105 45.0977C65.0488 45.0977 64.375 44.9544 63.7891 44.668V43.2617C64.2708 43.4766 64.6777 43.6279 65.0098 43.7158C65.3451 43.8037 65.651 43.8477 65.9277 43.8477C66.2598 43.8477 66.5137 43.7842 66.6895 43.6572C66.8685 43.5303 66.958 43.3415 66.958 43.0908C66.958 42.9508 66.9189 42.8271 66.8408 42.7197C66.7627 42.609 66.6471 42.5033 66.4941 42.4023C66.3444 42.3014 66.0368 42.1403 65.5713 41.9189C65.1351 41.7139 64.8079 41.5169 64.5898 41.3281C64.3717 41.1393 64.1976 40.9196 64.0674 40.6689C63.9372 40.4183 63.8721 40.1253 63.8721 39.79C63.8721 39.1585 64.0853 38.6621 64.5117 38.3008C64.9414 37.9395 65.5339 37.7588 66.2891 37.7588C66.6602 37.7588 67.0133 37.8027 67.3486 37.8906C67.6872 37.9785 68.0404 38.1022 68.4082 38.2617L67.9199 39.4385C67.5391 39.2822 67.2233 39.1732 66.9727 39.1113C66.7253 39.0495 66.4811 39.0186 66.2402 39.0186C65.9538 39.0186 65.734 39.0853 65.5811 39.2188C65.4281 39.3522 65.3516 39.5264 65.3516 39.7412C65.3516 39.8747 65.3825 39.9919 65.4443 40.0928C65.5062 40.1904 65.6038 40.2865 65.7373 40.3809C65.874 40.472 66.1947 40.638 66.6992 40.8789C67.3665 41.1979 67.8239 41.5186 68.0713 41.8408C68.3187 42.1598 68.4424 42.5521 68.4424 43.0176ZM72.4902 45H70.9766V39.1211H69.0381V37.8613H74.4287V39.1211H72.4902V45ZM79.6387 45H75.5273V37.8613H79.6387V39.1016H77.041V40.6689H79.458V41.9092H77.041V43.75H79.6387V45ZM87.0557 41.3623C87.0557 42.5374 86.7204 43.4375 86.0498 44.0625C85.3825 44.6875 84.4173 45 83.1543 45H81.1328V37.8613H83.374C84.5394 37.8613 85.4443 38.1689 86.0889 38.7842C86.7334 39.3994 87.0557 40.2588 87.0557 41.3623ZM85.4834 41.4014C85.4834 39.8682 84.8063 39.1016 83.4521 39.1016H82.6465V43.75H83.2959C84.7542 43.75 85.4834 42.9671 85.4834 41.4014Z" fill="#045F87"/>
</svg>
