<svg width="139" height="31" viewBox="0 0 139 31" fill="none" xmlns="http://www.w3.org/2000/svg">
<path d="M41.5279 28.7937C40.0081 30.2724 38.0365 30.9707 35.9416 30.9707C30.4785 30.9707 28.1372 27.1918 28.1372 23.3717C28.0961 19.5106 30.6018 15.6084 35.9416 15.6084C37.9543 15.6084 39.8438 16.3478 41.3636 17.8676L39.5152 19.6749C38.5294 18.7302 37.256 18.2783 35.9416 18.2783C32.368 18.2783 30.8482 20.9482 30.8482 23.4128C30.8893 25.8363 32.2859 28.424 35.9416 28.424C37.215 28.424 38.6937 27.8901 39.6384 26.9453L41.5279 28.7937Z" fill="#045F87"/>
<path d="M55.8216 15.896V24.3576C55.8216 28.7116 53.1517 30.9297 49.4549 30.9297C45.9224 30.9297 42.9238 28.7938 42.9238 24.3576V15.896H45.6759V24.3576C45.6759 27.0275 47.1957 28.4241 49.4959 28.4241C51.7962 28.4241 53.1106 26.9043 53.1106 24.3576V15.896H55.8216Z" fill="#045F87"/>
<path d="M71.5953 30.6422H68.3093L63.9963 25.7131H61.3264V30.6422H58.5332V15.896C60.8745 15.896 63.2158 15.9371 65.5571 15.9371C69.0486 15.9782 70.8559 18.2784 70.8559 20.8251C70.8559 22.8378 69.9112 24.8916 67.118 25.4666L71.5953 30.519V30.6422ZM61.3264 18.4838V23.2075H65.5571C67.3234 23.2075 68.1039 22.0163 68.1039 20.8662C68.1039 19.716 67.3234 18.5248 65.5571 18.5248H61.3264V18.4838Z" fill="#045F87"/>
<path d="M83.2207 27.849H75.4985L74.2251 30.6422H71.2266L77.8397 15.896H80.8794L87.4926 30.6422H84.4529L83.2207 27.849ZM79.3595 18.9767L76.6075 25.2613H82.0706L79.3595 18.9767Z" fill="#045F87"/>
<path d="M90.1612 18.4427H85.4785V15.896C89.7504 15.896 93.324 15.896 97.5959 15.896V18.4427H92.9132V30.6422H90.1201V18.4427H90.1612Z" fill="#045F87"/>
<path d="M110.288 30.6422H99.2383C99.2383 25.7542 99.2383 20.8251 99.2383 15.896H110.288V18.607H102.031V22.0163H110V24.6041H102.031V27.9312H110.288V30.6422Z" fill="#045F87"/>
<path d="M125.404 23.1253C125.486 26.8632 123.186 30.6422 118.051 30.6422C116.244 30.6422 114.067 30.6422 112.26 30.6422V15.896C114.067 15.896 116.244 15.896 118.051 15.896C123.063 15.896 125.322 19.5107 125.404 23.1253ZM115.012 27.9723H118.051C121.42 27.9723 122.734 25.5488 122.652 23.1253C122.57 20.8251 121.255 18.5248 118.051 18.5248H115.012V27.9723Z" fill="#045F87"/>
<path fill-rule="evenodd" clip-rule="evenodd" d="M0.0410657 16.1832L0 12.7739C0 12.4042 0.205359 12.1167 0.492889 12.1167H2.8753C3.16283 12.1167 3.36819 12.4042 3.36819 12.7328L3.40931 16.1421C3.40931 16.5118 3.2039 16.7993 2.91637 16.7993H0.534005C0.246475 16.8404 0.0410657 16.5529 0.0410657 16.1832Z" fill="#78969B"/>
<path fill-rule="evenodd" clip-rule="evenodd" d="M0.0410657 22.797L0 19.3877C0 19.018 0.205359 18.7305 0.492889 18.7305H2.8753C3.16283 18.7305 3.36819 19.018 3.36819 19.3466L3.40931 22.7559C3.40931 23.1256 3.2039 23.4131 2.91637 23.4131H0.534005C0.246475 23.4131 0.0410657 23.1256 0.0410657 22.797Z" fill="#78969B"/>
<path fill-rule="evenodd" clip-rule="evenodd" d="M4.43565 16.1832L4.39453 12.7739C4.39453 12.4042 4.59994 12.1167 4.88747 12.1167H7.26983C7.55736 12.1167 7.76277 12.4042 7.76277 12.7328L7.80384 16.1421C7.80384 16.5118 7.59848 16.7993 7.31095 16.7993H4.92854C4.64101 16.7993 4.43565 16.5118 4.43565 16.1832Z" fill="#045F87"/>
<path fill-rule="evenodd" clip-rule="evenodd" d="M8.70708 27.274L8.66602 23.8647C8.66602 23.4951 8.87142 23.2075 9.15895 23.2075H11.5413C11.8288 23.2075 12.0343 23.495 12.0343 23.8237L12.0753 27.2329C12.0753 27.6026 11.8699 27.8902 11.5824 27.8902H9.20002C8.91249 27.8902 8.70708 27.6026 8.70708 27.274Z" fill="#78969B"/>
<path fill-rule="evenodd" clip-rule="evenodd" d="M8.66607 21.6871L8.625 18.2778C8.625 17.9081 8.83036 17.6206 9.11789 17.6206H11.5003C11.7878 17.6206 11.9932 17.9081 11.9932 18.2367L12.0343 21.646C12.0343 22.0157 11.8289 22.3032 11.5414 22.3032H9.159C8.87147 22.3443 8.66607 22.0568 8.66607 21.6871Z" fill="#045F87"/>
<path fill-rule="evenodd" clip-rule="evenodd" d="M8.627 16.1427L8.58594 12.7334C8.58594 12.3637 8.7913 12.0762 9.07883 12.0762H11.4612C11.7488 12.0762 11.9541 12.3637 11.9541 12.6923L11.9952 16.1016C11.9952 16.4713 11.7898 16.7588 11.5023 16.7588H9.11989C8.83236 16.7588 8.627 16.4713 8.627 16.1427Z" fill="#78969B"/>
<path fill-rule="evenodd" clip-rule="evenodd" d="M12.8985 27.2325L12.8574 23.8232C12.8574 23.4535 13.0628 23.166 13.3503 23.166H15.7327C16.0203 23.166 16.2256 23.4535 16.2256 23.7822L16.2667 27.1914C16.2667 27.5611 16.0613 27.8487 15.7738 27.8487H13.3914C13.1038 27.8897 12.8985 27.6022 12.8985 27.2325Z" fill="#045F87"/>
<path fill-rule="evenodd" clip-rule="evenodd" d="M12.8575 21.6871L12.8164 18.2778C12.8164 17.9081 13.0218 17.6206 13.3093 17.6206H15.6917C15.9792 17.6206 16.1846 17.9081 16.1846 18.2367L16.2257 21.646C16.2257 22.0157 16.0204 22.3032 15.7328 22.3032H13.3504C13.0629 22.3032 12.8575 22.0157 12.8575 21.6871Z" fill="#78969B"/>
<path fill-rule="evenodd" clip-rule="evenodd" d="M12.8165 16.1012L12.7754 12.6919C12.7754 12.3222 12.9808 12.0347 13.2683 12.0347H15.6507C15.9382 12.0347 16.1436 12.3222 16.1436 12.6508L16.1847 16.0601C16.1847 16.4298 15.9793 16.7173 15.6918 16.7173H13.3094C13.0219 16.7584 12.8165 16.4708 12.8165 16.1012Z" fill="#045F87"/>
<path fill-rule="evenodd" clip-rule="evenodd" d="M4.10747 10.4737L4.06641 7.06443C4.06641 6.69475 4.27176 6.40723 4.5593 6.40723H6.94171C7.22924 6.40723 7.4346 6.69476 7.4346 7.02336L7.47566 10.4326C7.47566 10.8023 7.27031 11.0899 6.98277 11.0899H4.60036C4.31283 11.0899 4.10747 10.8023 4.10747 10.4737Z" fill="#78969B"/>
<path fill-rule="evenodd" clip-rule="evenodd" d="M8.58403 10.3912L8.54297 6.98192C8.54297 6.61224 8.74833 6.32471 9.03586 6.32471H11.4183C11.7058 6.32471 11.9112 6.61224 11.9112 6.94084L11.9522 10.3501C11.9522 10.7198 11.7469 11.0073 11.4593 11.0073H9.07692C8.78939 11.0484 8.58403 10.7609 8.58403 10.3912Z" fill="#78969B"/>
<path fill-rule="evenodd" clip-rule="evenodd" d="M12.7735 10.3912L12.7324 6.98192C12.7324 6.61224 12.9378 6.32471 13.2253 6.32471H15.6077C15.8953 6.32471 16.1006 6.61224 16.1006 6.94084L16.1417 10.3501C16.1417 10.7198 15.9363 11.0073 15.6488 11.0073H13.2664C12.9789 11.0073 12.7735 10.7198 12.7735 10.3912Z" fill="#78969B"/>
<path fill-rule="evenodd" clip-rule="evenodd" d="M16.8829 21.6466L16.8418 18.2373C16.8418 17.8676 17.0472 17.5801 17.3347 17.5801H19.7171C20.0046 17.5801 20.21 17.8676 20.21 18.1962L20.2511 21.6055C20.2511 21.9752 20.0457 22.2627 19.7582 22.2627H17.3758C17.0883 22.3038 16.8829 22.0163 16.8829 21.6466Z" fill="#045F87"/>
<path fill-rule="evenodd" clip-rule="evenodd" d="M16.8418 16.1012L16.8008 12.6919C16.8008 12.3222 17.0061 12.0347 17.2937 12.0347H19.6761C19.9636 12.0347 20.169 12.3222 20.169 12.6508L20.21 16.0601C20.21 16.4298 20.0047 16.7173 19.7171 16.7173H17.3347C17.0472 16.7173 16.8418 16.4298 16.8418 16.1012Z" fill="#78969B"/>
<path fill-rule="evenodd" clip-rule="evenodd" d="M16.8008 10.3507L16.7598 6.94139C16.7598 6.57171 16.9651 6.28418 17.2527 6.28418H19.6351C19.9226 6.28418 20.128 6.57171 20.128 6.90032L20.169 10.3096C20.169 10.6793 19.9637 10.9668 19.6761 10.9668H17.2937C17.0062 11.0079 16.8008 10.7204 16.8008 10.3507Z" fill="#045F87"/>
<path d="M18.8205 19.5258L14.0293 25.0488L14.5878 25.5333L19.379 20.0103L18.8205 19.5258Z" fill="#045F87"/>
<path d="M18.3786 9.04622L13.5859 14.5679L14.1443 15.0525L18.937 9.53088L18.3786 9.04622Z" fill="#045F87"/>
<path d="M30.1482 1.80715H27.6426V0.45166H34.3379V1.80715H31.7912V9.32402H30.1893V1.80715H30.1482Z" fill="#78969B"/>
<path d="M35.0765 6.57298C35.1175 7.7231 36.0212 8.21601 37.0481 8.21601C37.7874 8.21601 38.3214 8.09278 38.8144 7.92848L39.0608 9.03752C38.5268 9.2429 37.7464 9.44828 36.8427 9.44828C34.7478 9.44828 33.5566 8.17493 33.5566 6.2033C33.5566 4.43704 34.6247 2.75293 36.6784 2.75293C38.7733 2.75293 39.4305 4.47811 39.4305 5.87469C39.4305 6.16222 39.3894 6.40867 39.3894 6.57298H35.0765ZM37.9107 5.46393C37.9107 4.88887 37.6642 3.90305 36.5963 3.90305C35.6104 3.90305 35.1586 4.80672 35.1175 5.46393H37.9107Z" fill="#78969B"/>
<path d="M40.375 0H42.018V9.32419H40.375V0Z" fill="#78969B"/>
<path d="M44.6057 6.57298C44.6468 7.7231 45.5505 8.21601 46.5774 8.21601C47.3167 8.21601 47.8507 8.09278 48.3436 7.92848L48.5901 9.03752C48.0561 9.2429 47.2757 9.44828 46.372 9.44828C44.2771 9.44828 43.0859 8.17493 43.0859 6.2033C43.0859 4.43704 44.1539 2.75293 46.2077 2.75293C48.3025 2.75293 48.9597 4.47811 48.9597 5.87469C48.9597 6.16222 48.9187 6.40867 48.9187 6.57298H44.6057ZM47.3989 5.46393C47.3989 4.88887 47.1524 3.90305 46.0844 3.90305C45.0986 3.90305 44.6468 4.80672 44.6057 5.46393H47.3989Z" fill="#78969B"/>
<path d="M54.5875 9.11814C54.2589 9.28245 53.5606 9.44675 52.7802 9.44675C50.7675 9.44675 49.4941 8.17341 49.4941 6.20177C49.4941 4.27121 50.8085 2.79248 53.0677 2.79248C53.6428 2.79248 54.2589 2.91571 54.6286 3.08001L54.3411 4.2712C54.0946 4.14798 53.6839 4.02475 53.1088 4.02475C51.8766 4.02475 51.1372 4.92842 51.1372 6.11961C51.1372 7.43404 51.9998 8.1734 53.1088 8.1734C53.6839 8.1734 54.0536 8.05018 54.3822 7.92695L54.5875 9.11814Z" fill="#78969B"/>
<path d="M61.4489 6.07854C61.4489 8.41986 59.8059 9.48783 58.1629 9.48783C56.3555 9.48783 54.959 8.25556 54.959 6.20177C54.959 4.10691 56.3556 2.79248 58.2861 2.79248C60.1756 2.79248 61.4489 4.1069 61.4489 6.07854ZM56.602 6.11961C56.602 7.35189 57.2181 8.29663 58.2039 8.29663C59.1076 8.29663 59.7648 7.39296 59.7648 6.11961C59.7648 5.13379 59.313 3.98367 58.2039 3.98367C57.0949 3.9426 56.602 5.05164 56.602 6.11961Z" fill="#78969B"/>
<path d="M62.4336 4.84627C62.4336 4.1069 62.4337 3.49077 62.3926 2.95678H63.7892L63.8713 3.90152H63.9124C64.241 3.40862 64.816 2.79248 65.884 2.79248C66.7055 2.79248 67.3627 3.28539 67.6502 3.98367H67.6914C67.8967 3.61399 68.1842 3.36754 68.4718 3.16216C68.8414 2.91571 69.2522 2.79248 69.7451 2.79248C70.8131 2.79248 71.8811 3.53185 71.8811 5.58563V9.3646H70.3202V5.83208C70.3202 4.76411 69.9505 4.14798 69.1701 4.14798C68.6361 4.14798 68.2253 4.55874 68.0199 5.01057C67.9789 5.17487 67.9378 5.38025 67.9378 5.54455V9.3646H66.3769V5.66778C66.3769 4.76412 66.0072 4.14798 65.2679 4.14798C64.6517 4.14798 64.241 4.64089 64.1177 5.05165C64.0356 5.21595 64.0356 5.38025 64.0356 5.58563V9.3646H62.4747V4.84627H62.4336Z" fill="#78969B"/>
<path d="M73.2364 4.84627C73.2364 4.1069 73.2364 3.49077 73.1953 2.95678H74.5919L74.6741 3.90152H74.7151C75.0438 3.40862 75.6188 2.79248 76.6868 2.79248C77.5083 2.79248 78.1655 3.28539 78.453 3.98367H78.4941C78.6995 3.61399 78.987 3.36754 79.2745 3.16216C79.6442 2.91571 80.055 2.79248 80.5479 2.79248C81.6159 2.79248 82.6839 3.53185 82.6839 5.58563V9.3646H81.123V5.83208C81.123 4.76411 80.7533 4.14798 79.9728 4.14798C79.4388 4.14798 79.0281 4.55874 78.8227 5.01057C78.7816 5.17487 78.7405 5.38025 78.7405 5.54455V9.3646H77.1797V5.66778C77.1797 4.76412 76.81 4.14798 76.0706 4.14798C75.4545 4.14798 75.0438 4.64089 74.9205 5.05165C74.8384 5.21595 74.8383 5.38025 74.8383 5.58563V9.3646H73.2775V4.84627H73.2364Z" fill="#78969B"/>
<path d="M89.7897 7.39333C89.7897 8.17377 89.8308 8.78991 89.8308 9.32389H88.3931L88.311 8.33808H88.2699C87.9824 8.78991 87.3663 9.44712 86.2161 9.44712C85.066 9.44712 83.998 8.74883 83.998 6.65397V2.875H85.6V6.36644C85.6 7.43441 85.9286 8.1327 86.7912 8.1327C87.4484 8.1327 87.8592 7.68086 88.0235 7.2701C88.0646 7.1058 88.1056 6.9415 88.1056 6.7772V2.91608H89.7076V7.39333H89.7897Z" fill="#78969B"/>
<path d="M91.2286 4.84627C91.2286 4.1069 91.2286 3.49077 91.1875 2.95678H92.6252L92.7073 3.90152H92.7484C93.0359 3.40862 93.7342 2.79248 94.8022 2.79248C95.9112 2.79248 97.0614 3.53184 97.0614 5.54455V9.32352H95.4594V5.70886C95.4594 4.80519 95.1308 4.1069 94.2271 4.1069C93.5699 4.1069 93.1181 4.55874 92.9538 5.05165C92.9127 5.21595 92.8716 5.38025 92.8716 5.58563V9.3646H91.2286V4.84627Z" fill="#78969B"/>
<path d="M100.141 1.15086C100.141 1.64377 99.7716 2.01345 99.2376 2.01345C98.7036 2.01345 98.334 1.64377 98.334 1.15086C98.334 0.657953 98.7036 0.288268 99.2376 0.288268C99.7716 0.247193 100.141 0.616877 100.141 1.15086ZM98.4161 9.32493V2.91712H100.059V9.32493H98.4161Z" fill="#78969B"/>
<path d="M106.138 9.11814C105.81 9.28245 105.111 9.44675 104.331 9.44675C102.318 9.44675 101.045 8.17341 101.045 6.20177C101.045 4.27121 102.359 2.79248 104.618 2.79248C105.194 2.79248 105.81 2.91571 106.179 3.08001L105.892 4.2712C105.645 4.14798 105.235 4.02475 104.66 4.02475C103.427 4.02475 102.688 4.92842 102.688 6.11961C102.688 7.43404 103.551 8.1734 104.66 8.1734C105.235 8.1734 105.604 8.05018 105.933 7.92695L106.138 9.11814Z" fill="#78969B"/>
<path d="M110.615 9.32352L110.492 8.62524H110.451C110.04 9.11815 109.383 9.48783 108.562 9.48783C107.288 9.48783 106.549 8.54308 106.549 7.59834C106.549 5.99639 107.986 5.17488 110.328 5.17488V5.05165C110.328 4.64089 110.163 3.9426 109.013 3.9426C108.397 3.9426 107.74 4.14798 107.288 4.43551L106.96 3.36754C107.452 3.08001 108.274 2.79248 109.26 2.79248C111.314 2.79248 111.889 4.1069 111.889 5.50348V7.80372C111.889 8.37878 111.93 8.95384 111.971 9.32352H110.615ZM110.41 6.20177C109.26 6.16069 108.192 6.40715 108.192 7.39296C108.192 8.0091 108.603 8.29663 109.096 8.29663C109.753 8.29663 110.205 7.88588 110.369 7.43404C110.41 7.31081 110.41 7.18758 110.41 7.06436V6.20177Z" fill="#78969B"/>
<path d="M115.134 1.10889V2.91622H116.654V4.10742H115.134V6.94164C115.134 7.72208 115.34 8.13284 115.956 8.13284C116.244 8.13284 116.449 8.09177 116.572 8.05069L116.613 9.28296C116.367 9.36512 115.956 9.44727 115.463 9.44727C114.888 9.44727 114.354 9.24189 114.066 8.91328C113.738 8.5436 113.574 7.96854 113.574 7.10595V4.10742H112.67V2.91622H113.574V1.47857L115.134 1.10889Z" fill="#78969B"/>
<path d="M119.282 1.15086C119.282 1.64377 118.912 2.01345 118.378 2.01345C117.844 2.01345 117.475 1.64377 117.475 1.15086C117.475 0.657953 117.844 0.288268 118.378 0.288268C118.953 0.247193 119.282 0.616877 119.282 1.15086ZM117.598 9.32493V2.91712H119.241V9.32493H117.598Z" fill="#78969B"/>
<path d="M126.717 6.07854C126.717 8.41986 125.074 9.48783 123.43 9.48783C121.623 9.48783 120.227 8.25556 120.227 6.20177C120.227 4.10691 121.623 2.79248 123.554 2.79248C125.443 2.79248 126.717 4.1069 126.717 6.07854ZM121.87 6.11961C121.87 7.35189 122.486 8.29663 123.472 8.29663C124.375 8.29663 125.032 7.39296 125.032 6.11961C125.032 5.13379 124.581 3.98367 123.472 3.98367C122.321 3.9426 121.87 5.05164 121.87 6.11961Z" fill="#78969B"/>
<path d="M127.703 4.84627C127.703 4.1069 127.703 3.49077 127.662 2.95678H129.1L129.182 3.90152H129.223C129.51 3.40862 130.209 2.79248 131.277 2.79248C132.386 2.79248 133.536 3.53184 133.536 5.54455V9.32352H131.934V5.70886C131.934 4.80519 131.605 4.1069 130.702 4.1069C130.044 4.1069 129.593 4.55874 129.428 5.05165C129.387 5.21595 129.346 5.38025 129.346 5.58563V9.3646H127.703V4.84627Z" fill="#78969B"/>
<path d="M134.809 7.8448C135.179 8.05018 135.877 8.29663 136.452 8.29663C137.15 8.29663 137.479 8.0091 137.479 7.59834C137.479 7.14651 137.233 6.94113 136.411 6.6536C135.179 6.20177 134.645 5.54455 134.645 4.80519C134.645 3.65507 135.589 2.79248 137.068 2.79248C137.766 2.79248 138.383 2.95678 138.752 3.16216L138.424 4.31228C138.136 4.14798 137.643 3.9426 137.068 3.9426C136.493 3.9426 136.165 4.23013 136.165 4.59981C136.165 5.01057 136.452 5.21595 137.274 5.50348C138.424 5.91423 138.958 6.53037 138.999 7.47511C138.999 8.62524 138.095 9.48783 136.411 9.48783C135.631 9.48783 134.932 9.32352 134.48 9.03599L134.809 7.8448Z" fill="#78969B"/>
</svg>
