<svg width="30" height="30" viewBox="0 0 30 30" fill="none" xmlns="http://www.w3.org/2000/svg">
<path fill-rule="evenodd" clip-rule="evenodd" d="M30 15C30 23.2843 23.2843 30 15 30C6.71573 30 0 23.2843 0 15C0 6.71573 6.71573 0 15 0C23.2843 0 30 6.71573 30 15ZM17.1179 20.4378C17.1179 21.6003 16.1755 22.5427 15.013 22.5427C13.8506 22.5427 12.9082 21.6003 12.9082 20.4378C12.9082 19.2754 13.8506 18.333 15.013 18.333C16.1755 18.333 17.1179 19.2754 17.1179 20.4378ZM17.1179 8.33789H12.8828V16.4717H17.1179V8.33789Z" fill="#FC9200"/>
</svg>
