<svg width="129" height="50" viewBox="0 0 129 50" fill="none" xmlns="http://www.w3.org/2000/svg">
<path d="M44.0171 30.7215C42.4872 32.21 40.5025 32.9129 38.3937 32.9129C32.8944 32.9129 30.5376 29.1089 30.5376 25.2635C30.4963 21.3768 33.0185 17.4487 38.3937 17.4487C40.4198 17.4487 42.3218 18.193 43.8517 19.7229L41.9497 21.5008C40.9573 20.5498 39.6755 20.095 38.3524 20.095C34.7551 20.095 33.2252 22.7826 33.2252 25.2635C33.2666 27.703 34.6724 30.308 38.3524 30.308C39.6342 30.308 41.1227 29.7704 42.0737 28.8194L44.0171 30.7215Z" fill="#045F87"/>
<path d="M58.3641 17.7793V26.297C58.3641 30.6799 55.6765 32.9127 51.9552 32.9127C48.3993 32.9127 45.3809 30.7626 45.3809 26.297V17.7793H48.1512V26.297C48.1512 28.9846 49.6811 30.3904 51.9965 30.3904C54.312 30.3904 55.6352 28.8606 55.6352 26.297V17.7793H58.3641Z" fill="#045F87"/>
<path d="M74.2834 32.5817H70.9756L66.6341 27.62H63.9464V32.5817H61.1348V17.7378C63.4916 17.7378 65.8484 17.7791 68.2053 17.7791C71.7199 17.8205 73.5392 20.136 73.5392 22.6996C73.5392 24.7256 72.5882 26.793 69.7765 27.3719L74.2834 32.4577V32.5817ZM63.9464 20.3427V25.0977H68.2053C69.9832 25.0977 70.7689 23.8987 70.7689 22.7409C70.7689 21.5832 69.9832 20.3841 68.2053 20.3841H63.9464V20.3427Z" fill="#045F87"/>
<path d="M85.9428 29.7701H78.1693L76.8875 32.5817H73.8691L80.5262 17.7378H83.5859L90.2843 32.5817H87.2246L85.9428 29.7701ZM82.0974 20.8389L79.3271 27.1651H84.8264L82.0974 20.8389Z" fill="#045F87"/>
<path d="M92.9324 20.3014H88.2188V17.7378C92.5189 17.7378 96.1162 17.7378 100.416 17.7378V20.3014H95.7027V32.5817H92.8911V20.3014H92.9324Z" fill="#045F87"/>
<path d="M113.193 32.5817H102.07C102.07 27.6613 102.07 22.6996 102.07 17.7378H113.193V20.4668H104.882V23.8987H112.904V26.4622H104.882V29.8114H113.193V32.5817Z" fill="#045F87"/>
<path d="M128.409 25.015C128.492 28.7777 126.176 32.5817 121.008 32.5817C119.188 32.5817 116.997 32.5817 115.178 32.5817V17.7378C116.997 17.7378 119.188 17.7378 121.008 17.7378C126.094 17.7378 128.368 21.3764 128.409 25.015ZM117.948 29.8941H121.008C124.398 29.8941 125.721 27.4546 125.639 25.015C125.556 22.6996 124.233 20.3841 121.008 20.3841H117.948V29.8941Z" fill="#045F87"/>
<path d="M33.1011 1.90343H30V0.249512H38.2283V1.90343H35.0858V11.124H33.1011V1.90343Z" fill="#F15A29"/>
<path d="M38.2272 5.78854C38.2272 4.71349 38.2272 3.96923 38.1445 3.26631H39.8811L39.9638 4.75484H40.0465C40.4187 3.63844 41.3697 3.05957 42.1966 3.05957C42.4034 3.05957 42.4861 3.05957 42.6515 3.10092V4.96158C42.4861 4.92023 42.3207 4.87888 42.0726 4.87888C41.1216 4.87888 40.46 5.4991 40.2946 6.36741C40.2533 6.53281 40.2119 6.73955 40.2119 6.98763V11.0397H38.2272V5.78854Z" fill="#F15A29"/>
<path d="M47.8192 11.1224L47.6951 10.2541H47.6538C47.1576 10.8743 46.3307 11.2878 45.3383 11.2878C43.7671 11.2878 42.8574 10.1301 42.8574 8.93099C42.8574 6.94629 44.6354 5.95393 47.5297 5.95393V5.82989C47.5297 5.33371 47.323 4.4654 45.9172 4.4654C45.1316 4.4654 44.3459 4.71349 43.8084 5.04428L43.4363 3.76249C44.0152 3.39035 45.0489 3.05957 46.2893 3.05957C48.8115 3.05957 49.5145 4.67214 49.5145 6.36741V9.22043C49.5145 9.92334 49.5558 10.6263 49.6385 11.1224H47.8192ZM47.5711 7.27707C46.1653 7.23572 44.8421 7.56651 44.8421 8.72425C44.8421 9.50986 45.3383 9.84065 45.9585 9.84065C46.7441 9.84065 47.323 9.34447 47.4884 8.7656C47.5297 8.60021 47.5711 8.47616 47.5711 8.31077V7.27707Z" fill="#F15A29"/>
<path d="M51.2096 5.62315C51.2096 4.71349 51.2096 3.96923 51.127 3.26631H52.8636L52.9463 4.42406H52.9876C53.3184 3.80383 54.1867 3.05957 55.4685 3.05957C56.833 3.05957 58.2388 3.92788 58.2388 6.45011V11.1224H56.2541V6.6982C56.2541 5.5818 55.8406 4.71349 54.7656 4.71349C53.98 4.71349 53.4424 5.29236 53.2357 5.87124C53.153 6.03663 53.153 6.28472 53.153 6.53281V11.1638H51.1683V5.62315H51.2096Z" fill="#F15A29"/>
<path d="M59.9346 9.30328C60.3895 9.59272 61.2578 9.88215 61.9607 9.88215C62.829 9.88215 63.2011 9.51002 63.2011 9.01384C63.2011 8.47632 62.8703 8.18688 61.9193 7.8561C60.3895 7.31857 59.7279 6.49161 59.7692 5.58196C59.7692 4.17612 60.927 3.10107 62.7463 3.10107C63.6146 3.10107 64.3589 3.30781 64.8137 3.5559L64.4416 4.96174C64.1108 4.755 63.4906 4.50691 62.7876 4.50691C62.0847 4.50691 61.6713 4.83769 61.6713 5.33387C61.6713 5.83004 62.0434 6.07813 63.0357 6.45027C64.4416 6.94644 65.1031 7.69071 65.1445 8.84845C65.1445 10.2543 64.0281 11.288 61.9607 11.288C61.0097 11.288 60.1414 11.0812 59.5625 10.7505L59.9346 9.30328Z" fill="#F15A29"/>
<path d="M66.3444 5.87124C66.3444 4.83754 66.3031 4.01058 66.2617 3.26631H67.9983L68.081 4.4654H68.1224C68.7013 3.59709 69.6109 3.05957 70.81 3.05957C72.6293 3.05957 74.1178 4.58945 74.1178 7.07033C74.1178 9.92334 72.3399 11.2878 70.5206 11.2878C69.5282 11.2878 68.7013 10.8743 68.3291 10.2541H68.2878V14.3062H66.3031V5.87124H66.3444ZM68.3291 7.85594C68.3291 8.06268 68.3291 8.22808 68.4118 8.39347C68.6186 9.22043 69.3215 9.7993 70.1484 9.7993C71.3889 9.7993 72.1331 8.7656 72.1331 7.19437C72.1331 5.78854 71.4716 4.67214 70.1898 4.67214C69.3628 4.67214 68.6186 5.25102 68.4118 6.11933C68.3705 6.28472 68.3291 6.45011 68.3291 6.6155V7.85594Z" fill="#F15A29"/>
<path d="M82.8415 7.11168C82.8415 10.006 80.8154 11.2878 78.7894 11.2878C76.5566 11.2878 74.8613 9.75795 74.8613 7.23572C74.8613 4.67214 76.5566 3.05957 78.9134 3.05957C81.2703 3.10092 82.8415 4.75484 82.8415 7.11168ZM76.9287 7.19437C76.9287 8.72425 77.673 9.84065 78.8721 9.84065C79.9885 9.84065 80.7741 8.72425 80.7741 7.15303C80.7741 5.91259 80.2366 4.50675 78.8721 4.50675C77.4663 4.5481 76.9287 5.91259 76.9287 7.19437Z" fill="#F15A29"/>
<path d="M84.0417 5.78854C84.0417 4.71349 84.0417 3.96923 83.959 3.26631H85.6956L85.7783 4.75484H85.861C86.2331 3.63844 87.1841 3.05957 88.0111 3.05957C88.2178 3.05957 88.3005 3.05957 88.4659 3.10092V4.96158C88.3005 4.92023 88.1351 4.87888 87.887 4.87888C86.936 4.87888 86.2745 5.4991 86.1091 6.36741C86.0677 6.53281 86.0264 6.73955 86.0264 6.98763V11.0397H84.0417V5.78854Z" fill="#F15A29"/>
<path d="M92.0633 1.03369V3.26649H93.9653V4.75502H92.0633V8.22825C92.0633 9.17926 92.3114 9.67543 93.097 9.67543C93.4278 9.67543 93.6759 9.63408 93.8826 9.59274L93.924 11.1226C93.6346 11.2467 93.097 11.3294 92.4768 11.3294C91.7325 11.3294 91.1537 11.0813 90.7815 10.6678C90.3681 10.213 90.1613 9.51004 90.1613 8.47634V4.79636H89.0449V3.26649H90.1613V1.48852L92.0633 1.03369Z" fill="#F15A29"/>
<path d="M99.4637 11.1224L99.3397 10.2541H99.2983C98.8022 10.8743 97.9752 11.2878 96.9828 11.2878C95.4116 11.2878 94.502 10.1301 94.502 8.93099C94.502 6.94629 96.2799 5.95393 99.1743 5.95393V5.82989C99.1743 5.33371 98.9675 4.4654 97.5617 4.4654C96.7761 4.4654 95.9905 4.71349 95.453 5.04428L95.0808 3.76249C95.6597 3.39035 96.6934 3.05957 97.9338 3.05957C100.456 3.05957 101.159 4.67214 101.159 6.36741V9.22043C101.159 9.92334 101.2 10.6263 101.283 11.1224H99.4637ZM99.1743 7.27707C97.7684 7.23572 96.4453 7.56651 96.4453 8.72425C96.4453 9.50986 96.9415 9.84065 97.5617 9.84065C98.3473 9.84065 98.9262 9.34447 99.0916 8.7656C99.1329 8.60021 99.1743 8.47616 99.1743 8.31077V7.27707Z" fill="#F15A29"/>
<path d="M105.005 1.03369V3.26649H106.907V4.75502H105.005V8.22825C105.005 9.17926 105.253 9.67543 106.038 9.67543C106.369 9.67543 106.617 9.63408 106.824 9.59274L106.865 11.1226C106.576 11.2467 106.038 11.3294 105.418 11.3294C104.674 11.3294 104.095 11.0813 103.723 10.6678C103.309 10.213 103.103 9.51004 103.103 8.47634V4.79636H101.986V3.26649H103.103V1.48852L105.005 1.03369Z" fill="#F15A29"/>
<path d="M110.09 1.07505C110.09 1.65392 109.635 2.1501 108.974 2.1501C108.312 2.1501 107.857 1.69527 107.857 1.07505C107.857 0.454828 108.312 0 108.974 0C109.635 0 110.09 0.454828 110.09 1.07505ZM107.981 11.1226V3.2665H109.966V11.1226H107.981Z" fill="#F15A29"/>
<path d="M119.146 7.11168C119.146 10.006 117.12 11.2878 115.094 11.2878C112.861 11.2878 111.166 9.75795 111.166 7.23572C111.166 4.67214 112.861 3.05957 115.218 3.05957C117.616 3.10092 119.146 4.75484 119.146 7.11168ZM113.233 7.19437C113.233 8.72425 113.978 9.84065 115.177 9.84065C116.293 9.84065 117.079 8.72425 117.079 7.15303C117.079 5.91259 116.541 4.50675 115.177 4.50675C113.812 4.5481 113.233 5.91259 113.233 7.19437Z" fill="#F15A29"/>
<path d="M120.385 5.62315C120.385 4.71349 120.385 3.96923 120.303 3.26631H122.039L122.122 4.42406H122.163C122.494 3.80383 123.362 3.05957 124.644 3.05957C126.009 3.05957 127.415 3.92788 127.415 6.45011V11.1224H125.43V6.6982C125.43 5.5818 125.016 4.71349 123.941 4.71349C123.156 4.71349 122.618 5.29236 122.411 5.87124C122.329 6.03663 122.329 6.28472 122.329 6.53281V11.1638H120.344V5.62315H120.385Z" fill="#F15A29"/>
<path d="M7 22L10 25L20 15" stroke="#F15A29" stroke-width="2" stroke-linecap="round" stroke-linejoin="round"/>
<path d="M19 23V30C19 30.5304 18.7893 31.0391 18.4142 31.4142C18.0391 31.7893 17.5304 32 17 32H3C2.46957 32 1.96086 31.7893 1.58579 31.4142C1.21071 31.0391 1 30.5304 1 30V16C1 15.4696 1.21071 14.9609 1.58579 14.5858C1.96086 14.2107 2.46957 14 3 14H14" stroke="#045F87" stroke-width="2" stroke-linecap="round" stroke-linejoin="round"/>
<path d="M32.4121 43.0303H32.9004C33.3789 43.0303 33.7321 42.9505 33.96 42.791C34.1878 42.6315 34.3018 42.3809 34.3018 42.0391C34.3018 41.7005 34.1846 41.4596 33.9502 41.3164C33.7191 41.1732 33.3594 41.1016 32.8711 41.1016H32.4121V43.0303ZM32.4121 44.2607V47H30.8984V39.8613H32.9785C33.9486 39.8613 34.6663 40.0387 35.1318 40.3936C35.5973 40.7451 35.8301 41.2806 35.8301 42C35.8301 42.4199 35.7145 42.7943 35.4834 43.123C35.2523 43.4486 34.9251 43.7041 34.502 43.8896C35.5762 45.4945 36.276 46.5312 36.6016 47H34.9219L33.2178 44.2607H32.4121ZM41.6113 47H37.5V39.8613H41.6113V41.1016H39.0137V42.6689H41.4307V43.9092H39.0137V45.75H41.6113V47ZM49.585 43.4209C49.585 44.2607 49.4352 44.9655 49.1357 45.5352C48.8395 46.1016 48.4033 46.5166 47.8271 46.7803L49.5459 48.6992H47.6074L46.2988 47.0977H46.1865C45.0928 47.0977 44.2529 46.7803 43.667 46.1455C43.0811 45.5107 42.7881 44.5993 42.7881 43.4111C42.7881 42.223 43.0811 41.3164 43.667 40.6914C44.2562 40.0632 45.0993 39.749 46.1963 39.749C47.2933 39.749 48.1315 40.0648 48.7109 40.6963C49.2936 41.3278 49.585 42.236 49.585 43.4209ZM44.375 43.4209C44.375 44.2184 44.5264 44.819 44.8291 45.2227C45.1318 45.6263 45.5843 45.8281 46.1865 45.8281C47.3942 45.8281 47.998 45.0257 47.998 43.4209C47.998 41.8128 47.3975 41.0088 46.1963 41.0088C45.5941 41.0088 45.14 41.2122 44.834 41.6191C44.528 42.0228 44.375 42.6234 44.375 43.4209ZM56.875 39.8613V44.4805C56.875 45.0078 56.7562 45.4701 56.5186 45.8672C56.2842 46.2643 55.944 46.5687 55.498 46.7803C55.0521 46.9919 54.5247 47.0977 53.916 47.0977C52.998 47.0977 52.2852 46.8633 51.7773 46.3945C51.2695 45.9225 51.0156 45.278 51.0156 44.4609V39.8613H52.5244V44.2314C52.5244 44.7816 52.6351 45.1852 52.8564 45.4424C53.0778 45.6995 53.444 45.8281 53.9551 45.8281C54.4499 45.8281 54.8079 45.6995 55.0293 45.4424C55.2539 45.182 55.3662 44.7751 55.3662 44.2217V39.8613H56.875ZM62.7344 47H58.623V39.8613H62.7344V41.1016H60.1367V42.6689H62.5537V43.9092H60.1367V45.75H62.7344V47ZM68.4424 45.0176C68.4424 45.6621 68.2096 46.1699 67.7441 46.541C67.2819 46.9121 66.6374 47.0977 65.8105 47.0977C65.0488 47.0977 64.375 46.9544 63.7891 46.668V45.2617C64.2708 45.4766 64.6777 45.6279 65.0098 45.7158C65.3451 45.8037 65.651 45.8477 65.9277 45.8477C66.2598 45.8477 66.5137 45.7842 66.6895 45.6572C66.8685 45.5303 66.958 45.3415 66.958 45.0908C66.958 44.9508 66.9189 44.8271 66.8408 44.7197C66.7627 44.609 66.6471 44.5033 66.4941 44.4023C66.3444 44.3014 66.0368 44.1403 65.5713 43.9189C65.1351 43.7139 64.8079 43.5169 64.5898 43.3281C64.3717 43.1393 64.1976 42.9196 64.0674 42.6689C63.9372 42.4183 63.8721 42.1253 63.8721 41.79C63.8721 41.1585 64.0853 40.6621 64.5117 40.3008C64.9414 39.9395 65.5339 39.7588 66.2891 39.7588C66.6602 39.7588 67.0133 39.8027 67.3486 39.8906C67.6872 39.9785 68.0404 40.1022 68.4082 40.2617L67.9199 41.4385C67.5391 41.2822 67.2233 41.1732 66.9727 41.1113C66.7253 41.0495 66.4811 41.0186 66.2402 41.0186C65.9538 41.0186 65.734 41.0853 65.5811 41.2188C65.4281 41.3522 65.3516 41.5264 65.3516 41.7412C65.3516 41.8747 65.3825 41.9919 65.4443 42.0928C65.5062 42.1904 65.6038 42.2865 65.7373 42.3809C65.874 42.472 66.1947 42.638 66.6992 42.8789C67.3665 43.1979 67.8239 43.5186 68.0713 43.8408C68.3187 44.1598 68.4424 44.5521 68.4424 45.0176ZM72.4902 47H70.9766V41.1211H69.0381V39.8613H74.4287V41.1211H72.4902V47ZM79.6387 47H75.5273V39.8613H79.6387V41.1016H77.041V42.6689H79.458V43.9092H77.041V45.75H79.6387V47ZM87.0557 43.3623C87.0557 44.5374 86.7204 45.4375 86.0498 46.0625C85.3825 46.6875 84.4173 47 83.1543 47H81.1328V39.8613H83.374C84.5394 39.8613 85.4443 40.1689 86.0889 40.7842C86.7334 41.3994 87.0557 42.2588 87.0557 43.3623ZM85.4834 43.4014C85.4834 41.8682 84.8063 41.1016 83.4521 41.1016H82.6465V45.75H83.2959C84.7542 45.75 85.4834 44.9671 85.4834 43.4014Z" fill="#045F87"/>
</svg>
