<svg width="8" height="10" viewBox="0 0 8 10" fill="none" xmlns="http://www.w3.org/2000/svg">
<path d="M0.6 0C0.44087 3.49314e-09 0.288258 0.0658479 0.175736 0.183058C0.063214 0.300268 0 0.45924 0 0.625C0 0.79076 0.063214 0.949732 0.175736 1.06694C0.288258 1.18415 0.44087 1.25 0.6 1.25H7.4C7.55913 1.25 7.71174 1.18415 7.82426 1.06694C7.93679 0.949732 8 0.79076 8 0.625C8 0.45924 7.93679 0.300268 7.82426 0.183058C7.71174 0.0658479 7.55913 3.49314e-09 7.4 0H0.6ZM4.424 2.26667C4.3115 2.14962 4.159 2.08388 4 2.08388C3.841 2.08388 3.6885 2.14962 3.576 2.26667L0.976 4.975C0.870016 5.09348 0.812317 5.25018 0.81506 5.4121C0.817803 5.57402 0.880772 5.72851 0.990702 5.84302C1.10063 5.95753 1.24894 6.02312 1.40438 6.02598C1.55982 6.02884 1.71026 5.96873 1.824 5.85833L3.4 4.21667V9.375C3.4 9.54076 3.46321 9.69973 3.57574 9.81694C3.68826 9.93415 3.84087 10 4 10C4.15913 10 4.31174 9.93415 4.42426 9.81694C4.53679 9.69973 4.6 9.54076 4.6 9.375V4.21667L6.176 5.85833C6.23093 5.91974 6.29717 5.96899 6.37077 6.00315C6.44437 6.03731 6.52382 6.05568 6.60438 6.05716C6.68494 6.05864 6.76497 6.0432 6.83968 6.01177C6.91439 5.98033 6.98226 5.93355 7.03923 5.8742C7.09621 5.81485 7.14112 5.74415 7.1713 5.66633C7.20148 5.58851 7.2163 5.50515 7.21487 5.42123C7.21345 5.33731 7.19582 5.25455 7.16302 5.17788C7.13023 5.10122 7.08295 5.03222 7.024 4.975L4.424 2.26667Z" fill="#0086CC"/>
</svg>
