<svg width="19" height="19" viewBox="0 0 19 19" fill="none" xmlns="http://www.w3.org/2000/svg">
<path fill-rule="evenodd" clip-rule="evenodd" d="M9.50012 19C14.7467 19 19 14.7467 19 9.49998C19 4.25331 14.7467 0 9.50012 0C4.25326 0 0 4.25331 0 9.49998C0 14.7467 4.25326 19 9.50012 19ZM4.72149 16.1795C6.07049 17.1283 7.70444 17.6983 9.49044 17.6983C11.2045 17.6956 12.8762 17.1653 14.2785 16.1795C14.2216 15.8007 14.1265 15.4397 13.9936 15.0977C13.7466 14.5099 13.4045 13.9969 12.9675 13.5599C12.0332 12.6629 10.7857 12.1661 9.49044 12.1752C9.05417 12.1744 8.61983 12.2315 8.19858 12.345C7.78046 12.459 7.4006 12.6111 7.03939 12.82C6.69754 13.0291 6.35545 13.2939 6.07049 13.5789C5.76641 13.8639 5.51946 14.1869 5.31053 14.5479C5.09578 14.9172 4.9297 15.3128 4.8164 15.7247C4.77839 15.8767 4.74038 16.0275 4.72149 16.1795ZM6.33656 7.69481C6.33196 8.11304 6.41597 8.52752 6.58351 8.9108C6.73458 9.28687 6.96094 9.62948 7.24856 9.91661C7.54006 10.2034 7.88118 10.4348 8.25547 10.5994C9.04061 10.9221 9.92138 10.9221 10.7065 10.5994C11.0808 10.4348 11.4219 10.2034 11.7134 9.91661C12.0008 9.62521 12.2325 9.284 12.3976 8.90962C12.5685 8.53082 12.6446 8.13181 12.6446 7.69481C12.6446 7.278 12.5685 6.85999 12.3976 6.48001C12.2264 6.10118 11.9986 5.75918 11.7134 5.47419C11.4285 5.19036 11.0866 4.96236 10.7065 4.79138C10.3264 4.62036 9.92743 4.54437 9.49044 4.54437C9.07257 4.54437 8.65446 4.62036 8.2746 4.79138C7.89449 4.96236 7.5524 5.18918 7.26745 5.47419C6.98249 5.75918 6.75443 6.1 6.58351 6.48001C6.41258 6.85999 6.33656 7.278 6.33656 7.69481Z" fill="#032F47"/>
</svg>
