<svg width="131" height="37" viewBox="0 0 131 37" fill="none" xmlns="http://www.w3.org/2000/svg">
<path d="M43.1506 34.2721C41.5715 35.8086 39.5228 36.5342 37.3461 36.5342C31.6696 36.5342 29.2368 32.6076 29.2368 28.6384C29.1942 24.6264 31.7977 20.5718 37.3461 20.5718C39.4374 20.5718 41.4007 21.34 42.9799 22.9192L41.0593 24.7971C40.035 23.8155 38.7119 23.346 37.3461 23.346C33.6329 23.346 32.0538 26.1202 32.0538 28.681C32.0964 31.1992 33.5476 33.8881 37.3461 33.8881C38.6692 33.8881 40.2057 33.3332 41.1873 32.3515L43.1506 34.2721Z" fill="#045F87"/>
<path d="M58.0032 20.9131V29.7052C58.0032 34.2293 55.229 36.5341 51.3877 36.5341C47.7172 36.5341 44.6016 34.3147 44.6016 29.7052V20.9131H47.4611V29.7052C47.4611 32.4794 49.0403 33.9306 51.4304 33.9306C53.8205 33.9306 55.1863 32.3514 55.1863 29.7052V20.9131H58.0032Z" fill="#045F87"/>
<path d="M74.4356 36.1928H71.0212L66.5398 31.0712H63.7655V36.1928H60.8633V20.8706C63.2961 20.8706 65.7288 20.9133 68.1616 20.9133C71.7894 20.956 73.6674 23.3461 73.6674 25.9922C73.6674 28.0836 72.6857 30.2176 69.7834 30.8151L74.4356 36.0648V36.1928ZM63.7229 23.5594V28.4677H68.1189C69.9542 28.4677 70.7651 27.23 70.7651 26.0349C70.7651 24.8399 69.9542 23.6021 68.1189 23.6021H63.7229V23.5594Z" fill="#045F87"/>
<path d="M86.4705 33.2906H78.4466L77.1235 36.1928H74.0078L80.8793 20.8706H84.0377L90.9092 36.1928H87.7509L86.4705 33.2906ZM82.4585 24.1143L79.5989 30.6444H85.2754L82.4585 24.1143Z" fill="#045F87"/>
<path d="M93.6839 23.5168H88.8184V20.8706C93.2571 20.8706 96.9703 20.8706 101.409 20.8706V23.5168H96.5435V36.1928H93.6412V23.5168H93.6839Z" fill="#045F87"/>
<path d="M114.598 36.1928H103.117C103.117 31.1138 103.117 25.9922 103.117 20.8706H114.598V23.6875H106.019V27.2299H114.299V29.9188H106.019V33.3759H114.598V36.1928Z" fill="#045F87"/>
<path d="M130.304 28.4248C130.39 32.3087 127.999 36.2353 122.664 36.2353C120.786 36.2353 118.524 36.2353 116.646 36.2353V20.9131C118.524 20.9131 120.786 20.9131 122.664 20.9131C127.914 20.8704 130.219 24.6263 130.304 28.4248ZM119.506 33.4184H122.664C126.164 33.4184 127.53 30.9003 127.445 28.3821C127.359 25.992 125.993 23.6019 122.664 23.6019H119.506V33.4184Z" fill="#045F87"/>
<path fill-rule="evenodd" clip-rule="evenodd" d="M0.0426829 21.2118L0 17.6694C0 17.2853 0.213394 16.9865 0.512156 16.9865H2.98762C3.28638 16.9865 3.49978 17.2852 3.49978 17.6267L3.54246 21.1691C3.54246 21.5533 3.32907 21.852 3.0303 21.852H0.554839C0.298757 21.852 0.0426829 21.5533 0.0426829 21.2118Z" fill="#889360"/>
<path fill-rule="evenodd" clip-rule="evenodd" d="M0.0426829 28.0407L0 24.4982C0 24.1141 0.213394 23.8153 0.512156 23.8153H2.98762C3.28638 23.8153 3.49978 24.1141 3.49978 24.4555L3.54246 27.998C3.54246 28.3821 3.32907 28.6809 3.0303 28.6809H0.554839C0.298757 28.6809 0.0426829 28.3821 0.0426829 28.0407Z" fill="#889360"/>
<path fill-rule="evenodd" clip-rule="evenodd" d="M4.60909 21.1692L4.56641 17.6267C4.56641 17.2426 4.77981 16.9438 5.07858 16.9438H7.55403C7.85279 16.9438 8.0662 17.2426 8.0662 17.5841L8.10888 21.1265C8.10888 21.5107 7.89547 21.8094 7.59671 21.8094H5.12126C4.8225 21.8094 4.60909 21.5107 4.60909 21.1692Z" fill="#045F87"/>
<path fill-rule="evenodd" clip-rule="evenodd" d="M9.04853 32.6929L9.00586 29.1504C9.00586 28.7663 9.21925 28.4675 9.51802 28.4675H11.9935C12.2922 28.4675 12.5056 28.7663 12.5056 29.1077L12.5483 32.6502C12.5483 33.0343 12.3349 33.3331 12.0362 33.3331H9.5607C9.26194 33.3758 9.04853 33.077 9.04853 32.6929Z" fill="#889360"/>
<path fill-rule="evenodd" clip-rule="evenodd" d="M9.00557 26.931L8.96289 23.3886C8.96289 23.0044 9.17628 22.7057 9.47505 22.7057H11.9505C12.2493 22.7057 12.4627 23.0045 12.4627 23.3459L12.5054 26.8884C12.5054 27.2725 12.292 27.5713 11.9932 27.5713H9.51773C9.21897 27.5713 9.00557 27.2725 9.00557 26.931Z" fill="#045F87"/>
<path fill-rule="evenodd" clip-rule="evenodd" d="M8.9626 21.1264L8.91992 17.5839C8.91992 17.1998 9.13333 16.901 9.43209 16.901H11.9075C12.2063 16.901 12.4197 17.1998 12.4197 17.5412L12.4624 21.0837C12.4624 21.4678 12.249 21.7666 11.9502 21.7666H9.47476C9.176 21.8092 8.9626 21.5105 8.9626 21.1264Z" fill="#889360"/>
<path fill-rule="evenodd" clip-rule="evenodd" d="M13.4021 32.65L13.3594 29.1076C13.3594 28.7234 13.5728 28.4247 13.8715 28.4247H16.347C16.6458 28.4247 16.8592 28.7234 16.8592 29.0649L16.9018 32.6074C16.9018 32.9915 16.6884 33.2902 16.3897 33.2902H13.9142C13.6155 33.3329 13.4021 33.0342 13.4021 32.65Z" fill="#045F87"/>
<path fill-rule="evenodd" clip-rule="evenodd" d="M13.3591 26.8882L13.3164 23.3457C13.3164 22.9616 13.5298 22.6628 13.8286 22.6628H16.304C16.6028 22.6628 16.8162 22.9616 16.8162 23.303L16.8589 26.8455C16.8589 27.2297 16.6455 27.5284 16.3467 27.5284H13.8713C13.5725 27.5284 13.3591 27.2296 13.3591 26.8882Z" fill="#889360"/>
<path fill-rule="evenodd" clip-rule="evenodd" d="M13.3161 21.0838L13.2734 17.5413C13.2734 17.1572 13.4868 16.8584 13.7856 16.8584H16.2611C16.5598 16.8584 16.7732 17.1572 16.7732 17.4986L16.8159 21.041C16.8159 21.4252 16.6025 21.724 16.3037 21.724H13.8283C13.5295 21.7666 13.3161 21.4679 13.3161 21.0838Z" fill="#045F87"/>
<path fill-rule="evenodd" clip-rule="evenodd" d="M4.26729 15.2365L4.22461 11.694C4.22461 11.3099 4.43802 11.0111 4.73678 11.0111H7.21223C7.51099 11.0111 7.7244 11.3099 7.7244 11.6513L7.76707 15.1938C7.76707 15.5779 7.55368 15.8767 7.25491 15.8767H4.77945C4.52337 15.9194 4.26729 15.6206 4.26729 15.2365Z" fill="#889360"/>
<path fill-rule="evenodd" clip-rule="evenodd" d="M8.91964 15.194L8.87695 11.6515C8.87695 11.2674 9.09036 10.9686 9.38912 10.9686H11.8646C12.1633 10.9686 12.3767 11.2674 12.3767 11.6088L12.4194 15.1513C12.4194 15.5354 12.206 15.8342 11.9073 15.8342H9.4318C9.13304 15.8342 8.91964 15.5354 8.91964 15.194Z" fill="#889360"/>
<path fill-rule="evenodd" clip-rule="evenodd" d="M13.2732 15.151L13.2305 11.6085C13.2305 11.2244 13.4439 10.9257 13.7426 10.9257H16.2181C16.5169 10.9257 16.7302 11.2244 16.7302 11.5659L16.7729 15.1083C16.7729 15.4925 16.5595 15.7912 16.2608 15.7912H13.7853C13.4865 15.7912 13.2732 15.4925 13.2732 15.151Z" fill="#889360"/>
<path fill-rule="evenodd" clip-rule="evenodd" d="M17.5407 26.8456L17.498 23.3031C17.498 22.919 17.7114 22.6202 18.0102 22.6202H20.4857C20.7844 22.6202 20.9978 22.919 20.9978 23.2604L21.0405 26.8029C21.0405 27.187 20.8271 27.4858 20.5284 27.4858H18.0529C17.7541 27.5285 17.5407 27.2297 17.5407 26.8456Z" fill="#045F87"/>
<path fill-rule="evenodd" clip-rule="evenodd" d="M17.4997 21.0838L17.457 17.5413C17.457 17.1572 17.6704 16.8584 17.9692 16.8584H20.4447C20.7434 16.8584 20.9568 17.1572 20.9568 17.4986L20.9995 21.041C20.9995 21.4252 20.7861 21.724 20.4873 21.724H18.0119C17.7131 21.724 17.4997 21.4252 17.4997 21.0838Z" fill="#889360"/>
<path fill-rule="evenodd" clip-rule="evenodd" d="M17.4567 15.1085L17.4141 11.5661C17.4141 11.1819 17.6275 10.8832 17.9262 10.8832H20.4017C20.7005 10.8832 20.9138 11.1819 20.9138 11.5234L20.9565 15.0658C20.9565 15.4499 20.7431 15.7487 20.4444 15.7487H17.9689C17.6702 15.7914 17.4567 15.4927 17.4567 15.1085Z" fill="#045F87"/>
<path d="M19.6092 24.6889L14.6309 30.4277L15.2112 30.9312L20.1896 25.1923L19.6092 24.6889Z" fill="#045F87"/>
<path d="M19.0697 13.7654L14.0898 19.5027L14.67 20.0063L19.6499 14.269L19.0697 13.7654Z" fill="#045F87"/>
<path d="M33.0766 0.255859V8.19439C33.0766 10.5845 33.9729 11.7795 35.5947 11.7795C37.2166 11.7795 38.1556 10.6272 38.1556 8.19439V0.255859H41.2712V7.98098C41.2712 12.249 39.1372 14.255 35.5094 14.255C32.0096 14.255 29.9609 12.3344 29.9609 7.93831V0.255859H33.0766Z" fill="#889360"/>
<path d="M46.5628 2.85935H42.8496V0.255859H53.477V2.85935H49.7211V14.0416H46.6055V2.85935H46.5628Z" fill="#889360"/>
<path d="M58.3012 0.255859V14.0843H55.1855V0.255859H58.3012Z" fill="#889360"/>
<path d="M60.9902 0.255859H64.1059V11.4381H69.6117V14.0416H60.9902V0.255859Z" fill="#889360"/>
<path d="M74.6037 0.255859V14.0843H71.4453V0.255859H74.6037Z" fill="#889360"/>
<path d="M79.9398 2.85935H76.2266V0.255859H86.8539V2.85935H83.0981V14.0416H79.9824V2.85935H79.9398Z" fill="#889360"/>
<path d="M91.6332 0.255859V14.0843H88.5176V0.255859H91.6332Z" fill="#889360"/>
<path d="M102.56 8.19458H97.4809V11.481H103.157V14.0418H94.3652V0.213379H102.901V2.7742H97.4809V5.63376H102.56V8.19458Z" fill="#889360"/>
<path d="M105.419 10.8408C106.273 11.2676 107.553 11.6944 108.876 11.6944C110.327 11.6944 111.053 11.0969 111.053 10.2006C111.053 9.347 110.413 8.83479 108.748 8.23727C106.444 7.42634 104.95 6.18862 104.95 4.13997C104.95 1.79255 106.913 0 110.157 0C111.693 0 112.846 0.341432 113.699 0.682874L113.016 3.20102C112.461 2.94494 111.48 2.56082 110.114 2.56082C108.748 2.56082 108.108 3.15833 108.108 3.8839C108.108 4.78018 108.876 5.1643 110.669 5.84718C113.102 6.74347 114.254 8.02387 114.254 9.94448C114.254 12.2492 112.461 14.2125 108.663 14.2125C107.084 14.2125 105.547 13.7857 104.736 13.3589L105.419 10.8408Z" fill="#889360"/>
</svg>
