<svg width="130" height="53" viewBox="0 0 130 53" fill="none" xmlns="http://www.w3.org/2000/svg">
<path d="M43.6682 33.6656C42.117 35.1749 40.1045 35.8876 37.9663 35.8876C32.3903 35.8876 30.0005 32.0305 30.0005 28.1314C29.9586 24.1904 32.516 20.2075 37.9663 20.2075C40.0207 20.2075 41.9492 20.9622 43.5005 22.5134L41.6138 24.3581C40.6076 23.3939 39.3079 22.9327 37.9663 22.9327C34.3188 22.9327 32.7676 25.6578 32.7676 28.1733C32.8095 30.6469 34.235 33.2883 37.9663 33.2883C39.266 33.2883 40.7753 32.7432 41.7396 31.7789L43.6682 33.6656Z" fill="#045F87"/>
<path d="M58.2583 20.543V29.1796C58.2583 33.6237 55.5332 35.8876 51.7599 35.8876C48.1543 35.8876 45.0938 33.7075 45.0938 29.1796V20.543H47.9028V29.1796C47.9028 31.9047 49.454 33.3302 51.8018 33.3302C54.1496 33.3302 55.4913 31.779 55.4913 29.1796V20.543H58.2583Z" fill="#045F87"/>
<path d="M74.3987 35.5526H71.0446L66.6425 30.5216H63.9173V35.5526H61.0664V20.5015C63.4562 20.5015 65.8459 20.5434 68.2356 20.5434C71.7993 20.5853 73.644 22.9331 73.644 25.5325C73.644 27.5869 72.6797 29.6831 69.8288 30.27L74.3987 35.4269V35.5526ZM63.8754 23.1427V27.9642H68.1937C69.9965 27.9642 70.7931 26.7483 70.7931 25.5744C70.7931 24.4005 69.9965 23.1846 68.1937 23.1846H63.8754V23.1427Z" fill="#045F87"/>
<path d="M86.2227 32.7017H78.3407L77.041 35.5526H73.9805L80.7304 20.5015H83.8329L90.5829 35.5526H87.4804L86.2227 32.7017ZM82.2817 23.6878L79.4727 30.1023H85.0488L82.2817 23.6878Z" fill="#045F87"/>
<path d="M93.3068 23.1008H88.5273V20.5015C92.8876 20.5015 96.5351 20.5015 100.895 20.5015V23.1008H96.1158V35.5526H93.2649V23.1008H93.3068Z" fill="#045F87"/>
<path d="M113.85 35.5526H102.572C102.572 30.5635 102.572 25.5325 102.572 20.5015H113.85V23.2685H105.423V26.7483H113.557V29.3896H105.423V32.7856H113.85V35.5526Z" fill="#045F87"/>
<path d="M129.279 27.9222C129.363 31.7374 127.015 35.5945 121.775 35.5945C119.93 35.5945 117.708 35.5945 115.863 35.5945V20.5433C117.708 20.5433 119.93 20.5433 121.775 20.5433C126.932 20.5014 129.196 24.1908 129.279 27.9222ZM118.672 32.8274H121.775C125.213 32.8274 126.554 30.3539 126.47 27.8803C126.387 25.5324 125.045 23.1846 121.775 23.1846H118.672V32.8274Z" fill="#045F87"/>
<path d="M33.7734 0.251465V8.04957C33.7734 10.3974 34.6539 11.5713 36.247 11.5713C37.8402 11.5713 38.7626 10.4393 38.7626 8.04957V0.251465H41.8231V7.83995C41.8231 12.0325 39.7268 14.003 36.1632 14.003C32.7253 14.003 30.7129 12.1163 30.7129 7.79803V0.251465H33.7734Z" fill="#889360"/>
<path d="M47.0225 2.80988H43.375V0.252441H53.8144V2.80988H50.125V13.7944H47.0644V2.80988H47.0225Z" fill="#889360"/>
<path d="M58.5508 0.252441V13.8363H55.4902V0.252441H58.5508Z" fill="#889360"/>
<path d="M61.1934 0.252441H64.2539V11.2369H69.6623V13.7944H61.1934V0.252441Z" fill="#889360"/>
<path d="M74.5673 0.252441V13.8363H71.4648V0.252441H74.5673Z" fill="#889360"/>
<path d="M79.8077 2.80988H76.1602V0.252441H86.5996V2.80988H82.9101V13.7944H79.8496V2.80988H79.8077Z" fill="#889360"/>
<path d="M91.2949 0.252441V13.8363H88.2344V0.252441H91.2949Z" fill="#889360"/>
<path d="M102.028 8.04901H97.0391V11.2773H102.615V13.7928H93.9785V0.208984H102.364V2.72451H97.0391V5.53349H102.028V8.04901Z" fill="#889360"/>
<path d="M104.837 10.6491C105.675 11.0683 106.933 11.4876 108.233 11.4876C109.658 11.4876 110.371 10.9006 110.371 10.0202C110.371 9.18167 109.742 8.67852 108.107 8.09157C105.843 7.29498 104.376 6.07916 104.376 4.06674C104.376 1.76085 106.304 0 109.491 0C111 0 112.132 0.335393 112.97 0.670796L112.3 3.1444C111.755 2.89285 110.79 2.51552 109.449 2.51552C108.107 2.51552 107.478 3.10247 107.478 3.8152C107.478 4.69563 108.233 5.07295 109.994 5.74376C112.383 6.62419 113.515 7.88194 113.515 9.76858C113.515 12.0326 111.755 13.9611 108.023 13.9611C106.472 13.9611 104.963 13.5419 104.166 13.1226L104.837 10.6491Z" fill="#889360"/>
<path d="M7 25L10 28L20 18" stroke="#889360" stroke-width="2" stroke-linecap="round" stroke-linejoin="round"/>
<path d="M19 26V33C19 33.5304 18.7893 34.0391 18.4142 34.4142C18.0391 34.7893 17.5304 35 17 35H3C2.46957 35 1.96086 34.7893 1.58579 34.4142C1.21071 34.0391 1 33.5304 1 33V19C1 18.4696 1.21071 17.9609 1.58579 17.5858C1.96086 17.2107 2.46957 17 3 17H14" stroke="#045F87" stroke-width="2" stroke-linecap="round" stroke-linejoin="round"/>
<path d="M32.4121 46.0303H32.9004C33.3789 46.0303 33.7321 45.9505 33.96 45.791C34.1878 45.6315 34.3018 45.3809 34.3018 45.0391C34.3018 44.7005 34.1846 44.4596 33.9502 44.3164C33.7191 44.1732 33.3594 44.1016 32.8711 44.1016H32.4121V46.0303ZM32.4121 47.2607V50H30.8984V42.8613H32.9785C33.9486 42.8613 34.6663 43.0387 35.1318 43.3936C35.5973 43.7451 35.8301 44.2806 35.8301 45C35.8301 45.4199 35.7145 45.7943 35.4834 46.123C35.2523 46.4486 34.9251 46.7041 34.502 46.8896C35.5762 48.4945 36.276 49.5312 36.6016 50H34.9219L33.2178 47.2607H32.4121ZM41.6113 50H37.5V42.8613H41.6113V44.1016H39.0137V45.6689H41.4307V46.9092H39.0137V48.75H41.6113V50ZM49.585 46.4209C49.585 47.2607 49.4352 47.9655 49.1357 48.5352C48.8395 49.1016 48.4033 49.5166 47.8271 49.7803L49.5459 51.6992H47.6074L46.2988 50.0977H46.1865C45.0928 50.0977 44.2529 49.7803 43.667 49.1455C43.0811 48.5107 42.7881 47.5993 42.7881 46.4111C42.7881 45.223 43.0811 44.3164 43.667 43.6914C44.2562 43.0632 45.0993 42.749 46.1963 42.749C47.2933 42.749 48.1315 43.0648 48.7109 43.6963C49.2936 44.3278 49.585 45.236 49.585 46.4209ZM44.375 46.4209C44.375 47.2184 44.5264 47.819 44.8291 48.2227C45.1318 48.6263 45.5843 48.8281 46.1865 48.8281C47.3942 48.8281 47.998 48.0257 47.998 46.4209C47.998 44.8128 47.3975 44.0088 46.1963 44.0088C45.5941 44.0088 45.14 44.2122 44.834 44.6191C44.528 45.0228 44.375 45.6234 44.375 46.4209ZM56.875 42.8613V47.4805C56.875 48.0078 56.7562 48.4701 56.5186 48.8672C56.2842 49.2643 55.944 49.5687 55.498 49.7803C55.0521 49.9919 54.5247 50.0977 53.916 50.0977C52.998 50.0977 52.2852 49.8633 51.7773 49.3945C51.2695 48.9225 51.0156 48.278 51.0156 47.4609V42.8613H52.5244V47.2314C52.5244 47.7816 52.6351 48.1852 52.8564 48.4424C53.0778 48.6995 53.444 48.8281 53.9551 48.8281C54.4499 48.8281 54.8079 48.6995 55.0293 48.4424C55.2539 48.182 55.3662 47.7751 55.3662 47.2217V42.8613H56.875ZM62.7344 50H58.623V42.8613H62.7344V44.1016H60.1367V45.6689H62.5537V46.9092H60.1367V48.75H62.7344V50ZM68.4424 48.0176C68.4424 48.6621 68.2096 49.1699 67.7441 49.541C67.2819 49.9121 66.6374 50.0977 65.8105 50.0977C65.0488 50.0977 64.375 49.9544 63.7891 49.668V48.2617C64.2708 48.4766 64.6777 48.6279 65.0098 48.7158C65.3451 48.8037 65.651 48.8477 65.9277 48.8477C66.2598 48.8477 66.5137 48.7842 66.6895 48.6572C66.8685 48.5303 66.958 48.3415 66.958 48.0908C66.958 47.9508 66.9189 47.8271 66.8408 47.7197C66.7627 47.609 66.6471 47.5033 66.4941 47.4023C66.3444 47.3014 66.0368 47.1403 65.5713 46.9189C65.1351 46.7139 64.8079 46.5169 64.5898 46.3281C64.3717 46.1393 64.1976 45.9196 64.0674 45.6689C63.9372 45.4183 63.8721 45.1253 63.8721 44.79C63.8721 44.1585 64.0853 43.6621 64.5117 43.3008C64.9414 42.9395 65.5339 42.7588 66.2891 42.7588C66.6602 42.7588 67.0133 42.8027 67.3486 42.8906C67.6872 42.9785 68.0404 43.1022 68.4082 43.2617L67.9199 44.4385C67.5391 44.2822 67.2233 44.1732 66.9727 44.1113C66.7253 44.0495 66.4811 44.0186 66.2402 44.0186C65.9538 44.0186 65.734 44.0853 65.5811 44.2188C65.4281 44.3522 65.3516 44.5264 65.3516 44.7412C65.3516 44.8747 65.3825 44.9919 65.4443 45.0928C65.5062 45.1904 65.6038 45.2865 65.7373 45.3809C65.874 45.472 66.1947 45.638 66.6992 45.8789C67.3665 46.1979 67.8239 46.5186 68.0713 46.8408C68.3187 47.1598 68.4424 47.5521 68.4424 48.0176ZM72.4902 50H70.9766V44.1211H69.0381V42.8613H74.4287V44.1211H72.4902V50ZM79.6387 50H75.5273V42.8613H79.6387V44.1016H77.041V45.6689H79.458V46.9092H77.041V48.75H79.6387V50ZM87.0557 46.3623C87.0557 47.5374 86.7204 48.4375 86.0498 49.0625C85.3825 49.6875 84.4173 50 83.1543 50H81.1328V42.8613H83.374C84.5394 42.8613 85.4443 43.1689 86.0889 43.7842C86.7334 44.3994 87.0557 45.2588 87.0557 46.3623ZM85.4834 46.4014C85.4834 44.8682 84.8063 44.1016 83.4521 44.1016H82.6465V48.75H83.2959C84.7542 48.75 85.4834 47.9671 85.4834 46.4014Z" fill="#045F87"/>
</svg>
