<svg width="125" height="34" viewBox="0 0 125 34" fill="none" xmlns="http://www.w3.org/2000/svg">
<path d="M41.1623 30.862C39.6559 32.3277 37.7015 33.0199 35.625 33.0199C30.2099 33.0199 27.8892 29.2741 27.8892 25.4876C27.8484 21.6604 30.3321 17.7925 35.625 17.7925C37.6201 17.7925 39.493 18.5254 40.9994 20.0318L39.1673 21.8233C38.1901 20.8868 36.9279 20.439 35.625 20.439C32.0828 20.439 30.5764 23.0854 30.5764 25.5283C30.6171 27.9305 32.0014 30.4956 35.625 30.4956C36.8872 30.4956 38.3529 29.9663 39.2894 29.0298L41.1623 30.862Z" fill="#045F87"/>
<path d="M55.3314 18.1177V26.505C55.3314 30.8208 52.6849 33.0194 49.0206 33.0194C45.5191 33.0194 42.5469 30.9022 42.5469 26.505V18.1177H45.2748V26.505C45.2748 29.1514 46.7812 30.5358 49.0613 30.5358C51.3413 30.5358 52.6442 29.0293 52.6442 26.505V18.1177H55.3314Z" fill="#045F87"/>
<path d="M70.965 32.6938H67.7078L63.4327 27.808H60.7862V32.6938H58.0176V18.0771C60.3383 18.0771 62.6591 18.1179 64.9799 18.1179C68.4407 18.1586 70.2321 20.4386 70.2321 22.963C70.2321 24.958 69.2957 26.9937 66.527 27.5638L70.965 32.5717V32.6938ZM60.7862 20.6422V25.3244H64.9799C66.7306 25.3244 67.5042 24.1437 67.5042 23.0037C67.5042 21.8636 66.7306 20.6829 64.9799 20.6829H60.7862V20.6422Z" fill="#045F87"/>
<path d="M82.4884 29.9657H74.834L73.5718 32.7344H70.5996L77.1547 18.1177H80.1677L86.7228 32.7344H83.7099L82.4884 29.9657ZM78.6612 21.1713L75.9333 27.4007H81.3484L78.6612 21.1713Z" fill="#045F87"/>
<path d="M89.368 20.6015H84.7266V18.0771C88.9609 18.0771 92.5031 18.0771 96.7375 18.0771V20.6015H92.096V32.6938H89.3273V20.6015H89.368Z" fill="#045F87"/>
<path d="M109.319 32.6938H98.3672C98.3672 27.8487 98.3672 22.963 98.3672 18.0771H109.319V20.7643H101.095V24.1437H108.994V26.7087H101.095V30.0067H109.279V32.6938H109.319Z" fill="#045F87"/>
<path d="M124.302 25.2834C124.384 28.9884 122.104 32.7342 117.014 32.7342C115.223 32.7342 113.065 32.7342 111.273 32.7342V18.1175C113.065 18.1175 115.223 18.1175 117.014 18.1175C121.981 18.0768 124.221 21.6597 124.302 25.2834ZM113.961 30.047H116.974C120.312 30.047 121.615 27.6449 121.534 25.2427C121.452 22.9626 120.149 20.6826 116.974 20.6826H113.961V30.047Z" fill="#045F87"/>
<path fill-rule="evenodd" clip-rule="evenodd" d="M0.0407548 18.4036L0 15.0243C0 14.6578 0.203605 14.3728 0.488611 14.3728H2.85005C3.13506 14.3728 3.33867 14.6578 3.33867 14.9835L3.37937 18.3629C3.37937 18.7293 3.17581 19.0143 2.89081 19.0143H0.529316C0.24431 19.0143 0.0407548 18.7293 0.0407548 18.4036Z" fill="#0074FF"/>
<path fill-rule="evenodd" clip-rule="evenodd" d="M0.0407548 24.918L0 21.5387C0 21.1722 0.203605 20.8872 0.488611 20.8872H2.85005C3.13506 20.8872 3.33867 21.1722 3.33867 21.4979L3.37937 24.8773C3.37937 25.2437 3.17581 25.5287 2.89081 25.5287H0.529316C0.24431 25.5287 0.0407548 25.2437 0.0407548 24.918Z" fill="#0074FF"/>
<path fill-rule="evenodd" clip-rule="evenodd" d="M4.39813 18.3631L4.35742 14.9837C4.35742 14.6173 4.56098 14.3323 4.84598 14.3323H7.20748C7.49248 14.3323 7.69604 14.6173 7.69604 14.943L7.73674 18.3223C7.73674 18.6888 7.53319 18.9738 7.24818 18.9738H4.88669C4.60168 18.9738 4.39813 18.7295 4.39813 18.3631Z" fill="#045F87"/>
<path fill-rule="evenodd" clip-rule="evenodd" d="M8.63055 29.356L8.58984 25.9766C8.58984 25.6102 8.7934 25.3252 9.0784 25.3252H11.4399C11.7249 25.3252 11.9285 25.6102 11.9285 25.9359L11.9692 29.3153C11.9692 29.6817 11.7656 29.9667 11.4806 29.9667H9.11911C8.8341 30.0074 8.63055 29.7224 8.63055 29.356Z" fill="#0074FF"/>
<path fill-rule="evenodd" clip-rule="evenodd" d="M8.59154 23.8594L8.55078 20.48C8.55078 20.1136 8.75439 19.8286 9.03939 19.8286H11.4008C11.6858 19.8286 11.8894 20.1136 11.8894 20.4393L11.9302 23.8187C11.9302 24.1851 11.7266 24.4701 11.4416 24.4701H9.0801C8.79509 24.4701 8.59154 24.1851 8.59154 23.8594Z" fill="#045F87"/>
<path fill-rule="evenodd" clip-rule="evenodd" d="M8.55047 18.3221L8.50977 14.9427C8.50977 14.5763 8.71337 14.2913 8.99838 14.2913H11.3598C11.6448 14.2913 11.8484 14.5763 11.8484 14.902L11.8891 18.2814C11.8891 18.6478 11.6855 18.9328 11.4005 18.9328H9.03908C8.75408 18.9735 8.55047 18.6885 8.55047 18.3221Z" fill="#0074FF"/>
<path fill-rule="evenodd" clip-rule="evenodd" d="M12.7848 29.315L12.7441 25.9356C12.7441 25.5692 12.9477 25.2842 13.2327 25.2842H15.5942C15.8792 25.2842 16.0828 25.5692 16.0828 25.8949L16.1235 29.2743C16.1235 29.6407 15.9199 29.9257 15.6349 29.9257H13.2735C12.9885 29.9664 12.7848 29.6814 12.7848 29.315Z" fill="#045F87"/>
<path fill-rule="evenodd" clip-rule="evenodd" d="M12.7438 23.8186L12.7031 20.4393C12.7031 20.0729 12.9067 19.7878 13.1917 19.7878H15.5532C15.8382 19.7878 16.0417 20.0728 16.0417 20.3986L16.0824 23.7779C16.0824 24.1444 15.8789 24.4294 15.5939 24.4294H13.2324C12.9474 24.4701 12.7438 24.1851 12.7438 23.8186Z" fill="#0074FF"/>
<path fill-rule="evenodd" clip-rule="evenodd" d="M12.7028 18.3221L12.6621 14.9427C12.6621 14.5763 12.8657 14.2913 13.1507 14.2913H15.5122C15.7972 14.2913 16.0007 14.5763 16.0007 14.902L16.0414 18.2814C16.0414 18.6478 15.8379 18.9328 15.5529 18.9328H13.1914C12.9064 18.9328 12.7028 18.6478 12.7028 18.3221Z" fill="#045F87"/>
<path fill-rule="evenodd" clip-rule="evenodd" d="M4.07196 12.7034L4.03125 9.32406C4.03125 8.95763 4.23486 8.67261 4.51986 8.67261H6.8813C7.16631 8.67261 7.36992 8.95761 7.36992 9.28333L7.41062 12.6627C7.41062 13.0291 7.20702 13.3141 6.92201 13.3141H4.56057C4.27556 13.3548 4.07196 13.0698 4.07196 12.7034Z" fill="#0074FF"/>
<path fill-rule="evenodd" clip-rule="evenodd" d="M8.50946 12.6629L8.46875 9.28351C8.46875 8.91708 8.67231 8.63208 8.95731 8.63208H11.3188C11.6038 8.63208 11.8074 8.91709 11.8074 9.24281L11.8481 12.6222C11.8481 12.9886 11.6445 13.2736 11.3595 13.2736H8.99807C8.71306 13.2736 8.50946 12.9886 8.50946 12.6629Z" fill="#0074FF"/>
<path fill-rule="evenodd" clip-rule="evenodd" d="M12.6618 12.6219L12.6211 9.24252C12.6211 8.87608 12.8247 8.59106 13.1097 8.59106H15.4711C15.7562 8.59106 15.9598 8.87607 15.9598 9.20179L16.0005 12.5812C16.0005 12.9476 15.7969 13.2326 15.5119 13.2326H13.1504C12.8654 13.2733 12.6618 12.9883 12.6618 12.6219Z" fill="#0074FF"/>
<path fill-rule="evenodd" clip-rule="evenodd" d="M16.7341 23.7779L16.6934 20.3985C16.6934 20.0321 16.897 19.7471 17.182 19.7471H19.5434C19.8284 19.7471 20.032 20.0321 20.032 20.3578L20.0727 23.7371C20.0727 24.1036 19.8692 24.3886 19.5842 24.3886H17.2227C16.9377 24.4293 16.7341 24.1443 16.7341 23.7779Z" fill="#045F87"/>
<path fill-rule="evenodd" clip-rule="evenodd" d="M16.693 18.2815L16.6523 14.9022C16.6523 14.5357 16.8559 14.2507 17.141 14.2507H19.5024C19.7874 14.2507 19.991 14.5357 19.991 14.8615L20.0317 18.2408C20.0317 18.6072 19.8281 18.8923 19.5431 18.8923H17.1817C16.8967 18.8923 16.693 18.6073 16.693 18.2815Z" fill="#0074FF"/>
<path fill-rule="evenodd" clip-rule="evenodd" d="M16.652 12.5813L16.6113 9.20197C16.6113 8.83553 16.8149 8.55054 17.0999 8.55054H19.4614C19.7464 8.55054 19.9499 8.83554 19.9499 9.16126L19.9907 12.5406C19.9907 12.907 19.7871 13.1921 19.5021 13.1921H17.1406C16.8556 13.2328 16.652 12.9478 16.652 12.5813Z" fill="#045F87"/>
<path d="M18.6847 21.7024L13.9355 27.177L14.4892 27.6572L19.2383 22.1826L18.6847 21.7024Z" fill="#045F87"/>
<path d="M18.2017 11.2979L13.4512 16.771L14.0047 17.2514L18.7552 11.7783L18.2017 11.2979Z" fill="#045F87"/>
<path d="M30.9426 11.5631L27.4004 0.570027H29.599L31.1055 5.53724C31.5126 6.92156 31.879 8.22446 32.164 9.52734H32.2048C32.4898 8.22446 32.8969 6.88084 33.3448 5.53724L34.9327 0.529297H37.0498L33.2634 11.5224H30.9426V11.5631Z" fill="#0074FF"/>
<path d="M39.8995 1.425C39.8995 2.03572 39.4516 2.48358 38.7595 2.48358C38.1081 2.48358 37.6602 1.99501 37.6602 1.425C37.6602 0.814269 38.108 0.325684 38.8002 0.325684C39.4516 0.325684 39.8995 0.814269 39.8995 1.425ZM37.7823 11.5631V3.62362H39.8181V11.5631H37.7823Z" fill="#0074FF"/>
<path d="M41.9349 6.18879C41.9349 5.13019 41.9349 4.35661 41.8535 3.62374H43.6043L43.6857 5.13018H43.7671C44.1743 3.99016 45.07 3.42017 45.925 3.42017C46.1286 3.42017 46.2507 3.42016 46.4136 3.46087V5.33375C46.2507 5.29304 46.0879 5.25234 45.8436 5.25234C44.8665 5.25234 44.215 5.86305 44.0521 6.75878C44.0114 6.92164 43.9707 7.16593 43.9707 7.36951V11.4817H41.9757V6.18879H41.9349Z" fill="#0074FF"/>
<path d="M50.4049 1.38452V3.66456H52.3185V5.17102H50.4049V8.6725C50.4049 9.64966 50.6492 10.1383 51.4228 10.1383C51.7485 10.1383 52.0335 10.0975 52.1964 10.0568L52.2371 11.604C51.9521 11.7261 51.4228 11.8076 50.7713 11.8076C50.0385 11.8076 49.4277 11.5633 49.0613 11.1561C48.6541 10.7083 48.4505 9.97539 48.4505 8.95751V5.21172H47.3105V3.70526H48.4505V1.91381L50.4049 1.38452Z" fill="#0074FF"/>
<path d="M60.9497 9.20172C60.9497 10.1382 60.9904 10.9118 61.0311 11.5632H59.2804L59.1989 10.3418H59.1582C58.8325 10.9118 58.0182 11.7261 56.6339 11.7261C55.1681 11.7261 53.8652 10.871 53.8652 8.26528V3.62378H55.8603V7.93957C55.8603 9.24245 56.2674 10.0975 57.326 10.0975C58.1403 10.0975 58.6289 9.52746 58.8732 9.03888C58.9546 8.87602 58.9953 8.63173 58.9953 8.42815V3.62378H60.9904V9.20172H60.9497Z" fill="#0074FF"/>
<path d="M67.545 11.5632L67.4229 10.6674H67.3822C66.8936 11.2782 66.0793 11.726 65.0207 11.726C63.4328 11.726 62.5371 10.586 62.5371 9.36456C62.5371 7.36952 64.3286 6.35163 67.26 6.35163V6.22949C67.26 5.70019 67.0565 4.84519 65.6314 4.84519C64.8579 4.84519 64.0435 5.08947 63.5142 5.41519L63.1071 4.1123C63.6771 3.74587 64.7357 3.42017 65.9571 3.42017C68.4815 3.42017 69.2143 5.04875 69.2143 6.75878V9.60884C69.2143 10.3417 69.2551 11.0339 69.3365 11.5224H67.545V11.5632ZM67.3008 7.69525C65.8757 7.65453 64.5321 7.98024 64.5321 9.16098C64.5321 9.93457 65.0207 10.301 65.6721 10.301C66.4865 10.301 67.0565 9.7717 67.2193 9.20168C67.2601 9.03882 67.3008 8.87597 67.3008 8.75383V7.69525Z" fill="#0074FF"/>
<path d="M71.373 0H73.4088V11.5631H71.373V0Z" fill="#0074FF"/>
<path d="M77.6827 1.425C77.6827 2.03572 77.2348 2.48358 76.5426 2.48358C75.8912 2.48358 75.4434 1.99501 75.4434 1.425C75.4434 0.814269 75.8912 0.325684 76.5834 0.325684C77.2348 0.325684 77.6827 0.814269 77.6827 1.425ZM75.5655 11.5631V3.62362H77.6013V11.5631H75.5655Z" fill="#0074FF"/>
<path d="M79.6379 9.73082C80.0858 10.0158 80.9408 10.3008 81.6737 10.3008C82.5694 10.3008 82.9358 9.93438 82.9358 9.40508C82.9358 8.87579 82.6101 8.59079 81.6329 8.26507C80.0858 7.73577 79.4344 6.88075 79.4344 5.9443C79.4344 4.55999 80.5743 3.46069 82.4472 3.46069C83.343 3.46069 84.0759 3.70499 84.5644 3.94928L84.1573 5.37431C83.8316 5.17073 83.1801 4.92643 82.488 4.92643C81.7551 4.92643 81.3886 5.25215 81.3886 5.74073C81.3886 6.22931 81.7551 6.4736 82.773 6.84004C84.198 7.36933 84.8901 8.10221 84.8901 9.28294C84.8901 10.708 83.7502 11.7666 81.6737 11.7666C80.6965 11.7666 79.8415 11.5223 79.2715 11.1966L79.6379 9.73082Z" fill="#0074FF"/>
<path d="M90.9982 11.5632L90.876 10.6674H90.8353C90.3468 11.2782 89.5324 11.726 88.4738 11.726C86.886 11.726 85.9902 10.586 85.9902 9.36456C85.9902 7.36952 87.7817 6.35163 90.7132 6.35163V6.22949C90.7132 5.70019 90.5096 4.84519 89.0846 4.84519C88.311 4.84519 87.4967 5.08947 86.9674 5.41519L86.5603 4.1123C87.1303 3.74587 88.1889 3.42017 89.4103 3.42017C91.9346 3.42017 92.6675 5.04875 92.6675 6.75878V9.60884C92.6675 10.3417 92.7082 11.0339 92.7896 11.5224H90.9982V11.5632ZM90.7132 7.69525C89.2881 7.65453 87.9445 7.98024 87.9445 9.16098C87.9445 9.93457 88.4331 10.301 89.0846 10.301C89.8989 10.301 90.4689 9.7717 90.6318 9.20168C90.6725 9.03882 90.7132 8.87597 90.7132 8.75383V7.69525Z" fill="#0074FF"/>
<path d="M96.983 1.38452V3.66456H98.8966V5.17102H96.983V8.6725C96.983 9.64966 97.2273 10.1383 98.0009 10.1383C98.3266 10.1383 98.6116 10.0975 98.7745 10.0568L98.8152 11.604C98.5302 11.7261 98.0009 11.8076 97.3495 11.8076C96.6166 11.8076 96.0058 11.5633 95.6394 11.1561C95.2322 10.7083 95.0287 9.97539 95.0287 8.95751V5.21172H93.8887V3.70526H95.0287V1.91381L96.983 1.38452Z" fill="#0074FF"/>
<path d="M102.56 1.425C102.56 2.03572 102.112 2.48358 101.42 2.48358C100.768 2.48358 100.32 1.99501 100.32 1.425C100.32 0.814269 100.768 0.325684 101.46 0.325684C102.112 0.325684 102.519 0.814269 102.56 1.425ZM100.402 11.5631V3.62362H102.438V11.5631H100.402Z" fill="#0074FF"/>
<path d="M112.128 7.53251C112.128 10.464 110.092 11.7669 108.056 11.7669C105.817 11.7669 104.066 10.2197 104.066 7.69538C104.066 5.08961 105.776 3.50171 108.179 3.50171C110.54 3.46099 112.128 5.13032 112.128 7.53251ZM106.143 7.61394C106.143 9.16111 106.876 10.3011 108.097 10.3011C109.237 10.3011 110.052 9.1611 110.052 7.57321C110.052 6.35176 109.482 4.92673 108.138 4.92673C106.713 4.92673 106.143 6.31106 106.143 7.61394Z" fill="#0074FF"/>
<path d="M113.757 6.02574C113.757 5.13001 113.757 4.35642 113.676 3.66427H115.426L115.508 4.84502H115.549C115.874 4.23429 116.77 3.46069 118.073 3.46069C119.457 3.46069 120.882 4.35643 120.882 6.88077V11.6037H118.887V7.12505C118.887 5.98503 118.48 5.13 117.381 5.13C116.567 5.13 116.037 5.70002 115.834 6.31075C115.752 6.47361 115.752 6.71789 115.752 6.96218V11.6037H113.716V6.02574H113.757Z" fill="#0074FF"/>
</svg>
