<svg width="128" height="50" viewBox="0 0 128 50" fill="none" xmlns="http://www.w3.org/2000/svg">
<path d="M43.8207 30.9035C42.3122 32.3712 40.3553 33.0643 38.276 33.0643C32.8537 33.0643 30.5298 29.3135 30.5298 25.5219C30.489 21.6895 32.976 17.8164 38.276 17.8164C40.2738 17.8164 42.1492 18.5503 43.6576 20.0587L41.823 21.8526C40.8445 20.9149 39.5807 20.4664 38.276 20.4664C34.7291 20.4664 33.2206 23.1165 33.2206 25.5627C33.2614 27.9681 34.6475 30.5366 38.276 30.5366C39.5399 30.5366 41.0076 30.0066 41.9453 29.0689L43.8207 30.9035Z" fill="#045F87"/>
<path d="M58.0087 18.1021V26.5006C58.0087 30.8222 55.3587 33.0238 51.6894 33.0238C48.1832 33.0238 45.207 30.9038 45.207 26.5006V18.1021H47.9386V26.5006C47.9386 29.1507 49.4471 30.5368 51.7302 30.5368C54.0133 30.5368 55.3179 29.0283 55.3179 26.5006V18.1021H58.0087Z" fill="#045F87"/>
<path d="M73.664 32.7386H70.4024L66.1216 27.8463H63.4716V32.7386H60.6992V18.0615C63.0231 18.0615 65.347 18.1023 67.6708 18.1023C71.1363 18.1431 72.9301 20.4262 72.9301 22.9539C72.9301 24.9516 71.9924 26.9901 69.2201 27.5609L73.664 32.5756V32.7386ZM63.4716 20.6708V25.3593H67.6708C69.4239 25.3593 70.1986 24.177 70.1986 23.0354C70.1986 21.8939 69.4239 20.7116 67.6708 20.7116H63.4716V20.6708Z" fill="#045F87"/>
<path d="M85.1606 29.966H77.4959L76.2321 32.7384H73.2559L79.8198 18.1021H82.8367L89.4414 32.7384H86.4245L85.1606 29.966ZM81.369 21.1598L78.6375 27.3976H84.0598L81.369 21.1598Z" fill="#045F87"/>
<path d="M92.052 20.5892H87.4043V18.0615C91.6444 18.0615 95.1913 18.0615 99.4314 18.0615V20.5892H94.7836V32.6979H92.0113V20.5892H92.052Z" fill="#045F87"/>
<path d="M112.028 32.7384H101.061C101.061 27.8868 101.061 22.9944 101.061 18.1021H112.028V20.7929H103.833V24.1767H111.742V26.7452H103.833V30.0476H112.028V32.7384Z" fill="#045F87"/>
<path d="M127.033 25.2775C127.114 28.9876 124.831 32.7384 119.735 32.7384C117.941 32.7384 115.78 32.7384 113.986 32.7384V18.1021C115.78 18.1021 117.941 18.1021 119.735 18.1021C124.75 18.1021 126.992 21.6898 127.033 25.2775ZM116.718 30.0884H119.735C123.078 30.0884 124.383 27.6829 124.301 25.2775C124.22 22.9944 122.915 20.7113 119.735 20.7113H116.718V30.0884Z" fill="#045F87"/>
<path d="M33.547 11.5789L30 0.571043H32.2016L33.71 5.54495C34.1177 6.93112 34.4847 8.23575 34.7701 9.54039H34.8108C35.0962 8.23575 35.5039 6.89035 35.9524 5.54495L37.5424 0.530273H39.6624L35.8708 11.5381H33.547V11.5789Z" fill="#0074FF"/>
<path d="M42.5568 1.42695C42.5568 2.0385 42.1083 2.48697 41.4152 2.48697C40.7629 2.48697 40.3145 1.99773 40.3145 1.42695C40.3145 0.815409 40.7629 0.326172 41.456 0.326172C42.1083 0.326172 42.516 0.815409 42.5568 1.42695ZM40.396 11.5786V3.62852H42.4345V11.5786H40.396Z" fill="#0074FF"/>
<path d="M44.5952 6.19666C44.5952 5.13665 44.5952 4.36202 44.5137 3.62817H46.2668L46.3483 5.13665H46.4298C46.8375 3.99509 47.7345 3.42432 48.5906 3.42432C48.7945 3.42432 48.9168 3.42432 49.0799 3.46509V5.34049C48.9168 5.29973 48.7537 5.25896 48.5091 5.25896C47.5306 5.25896 46.8783 5.8705 46.7152 6.76744C46.6745 6.93052 46.6337 7.17513 46.6337 7.37898V11.4967H44.5952V6.19666Z" fill="#0074FF"/>
<path d="M53.0751 1.38623V3.66934H54.9912V5.17782H53.0751V8.68401C53.0751 9.66249 53.3197 10.1517 54.0943 10.1517C54.4205 10.1517 54.7059 10.111 54.8689 10.0702L54.9097 11.6194C54.6243 11.7417 54.0943 11.8233 53.442 11.8233C52.7081 11.8233 52.0966 11.5787 51.7297 11.171C51.322 10.7225 51.1181 9.98865 51.1181 8.9694V5.21859H49.9766V3.62857H51.1181V1.8347L53.0751 1.38623Z" fill="#0074FF"/>
<path d="M63.5939 9.21387C63.5939 10.1516 63.6347 10.9262 63.6755 11.5785H61.9224L61.8408 10.3554H61.8001C61.4739 10.9262 60.6585 11.7416 59.2723 11.7416C57.8046 11.7416 56.5 10.8854 56.5 8.27617V3.62842H58.4977V7.95001C58.4977 9.25464 58.9054 10.1108 59.9654 10.1108C60.7808 10.1108 61.2701 9.54003 61.5147 9.05079C61.5962 8.88771 61.637 8.6431 61.637 8.43925V3.62842H63.6347V9.21387H63.5939Z" fill="#0074FF"/>
<path d="M70.2393 11.5783L70.117 10.6813H70.0762C69.587 11.2929 68.7716 11.7413 67.7116 11.7413C66.1215 11.7413 65.2246 10.5998 65.2246 9.3767C65.2246 7.37898 67.0185 6.35974 69.9539 6.35974V6.23743C69.9539 5.70742 69.75 4.85126 68.3231 4.85126C67.5485 4.85126 66.7331 5.09588 66.2031 5.42203L65.7954 4.1174C66.3662 3.75047 67.4262 3.42432 68.6493 3.42432C71.177 3.42432 71.9108 5.05511 71.9108 6.76744V9.62132C71.9108 10.3552 71.9516 11.0483 72.0332 11.5375H70.2393V11.5783ZM69.9947 7.70514C68.5677 7.66437 67.2223 7.99053 67.2223 9.17285C67.2223 9.94748 67.7116 10.3144 68.3639 10.3144C69.1793 10.3144 69.7501 9.7844 69.9131 9.21362C69.9539 9.05054 69.9947 8.88746 69.9947 8.76515V7.70514Z" fill="#0074FF"/>
<path d="M74.0723 0H76.1108V11.5786H74.0723V0Z" fill="#0074FF"/>
<path d="M80.3908 1.42695C80.3908 2.0385 79.9423 2.48697 79.2492 2.48697C78.5969 2.48697 78.1484 1.99773 78.1484 1.42695C78.1484 0.815409 78.5969 0.326172 79.29 0.326172C79.9423 0.326172 80.35 0.815409 80.3908 1.42695ZM78.23 11.5786V3.62852H80.2685V11.5786H78.23Z" fill="#0074FF"/>
<path d="M82.3083 9.74387C82.7568 10.0293 83.613 10.3146 84.3468 10.3146C85.2438 10.3146 85.6107 9.94772 85.6107 9.41772C85.6107 8.88771 85.2845 8.60232 84.306 8.27616C82.7568 7.74616 82.1045 6.88999 82.1045 5.95229C82.1045 4.56612 83.246 3.46533 85.1214 3.46533C86.0184 3.46533 86.7522 3.70995 87.2415 3.95457L86.8338 5.38151C86.5076 5.17766 85.8553 4.93304 85.1622 4.93304C84.4284 4.93304 84.0614 5.2592 84.0614 5.74844C84.0614 6.23767 84.4284 6.48229 85.4476 6.84922C86.8745 7.37923 87.5676 8.11308 87.5676 9.29541C87.5676 10.7223 86.4261 11.7824 84.3468 11.7824C83.3683 11.7824 82.5122 11.5377 81.9414 11.2116L82.3083 9.74387Z" fill="#0074FF"/>
<path d="M93.6826 11.5783L93.5603 10.6813H93.5196C93.0303 11.2929 92.2149 11.7413 91.1549 11.7413C89.5649 11.7413 88.668 10.5998 88.668 9.3767C88.668 7.37898 90.4618 6.35974 93.3973 6.35974V6.23743C93.3973 5.70742 93.1934 4.85126 91.7665 4.85126C90.9918 4.85126 90.1764 5.09588 89.6464 5.42203L89.2387 4.1174C89.8095 3.75047 90.8695 3.42432 92.0926 3.42432C94.6203 3.42432 95.3542 5.05511 95.3542 6.76744V9.62132C95.3542 10.3552 95.395 11.0483 95.4765 11.5375H93.6826V11.5783ZM93.438 7.70514C92.0111 7.66437 90.6657 7.99053 90.6657 9.17285C90.6657 9.94748 91.1549 10.3144 91.8072 10.3144C92.6226 10.3144 93.1934 9.7844 93.3565 9.21362C93.3973 9.05054 93.438 8.88746 93.438 8.76515V7.70514Z" fill="#0074FF"/>
<path d="M99.7157 1.38623V3.66934H101.632V5.17782H99.7157V8.68401C99.7157 9.66249 99.9603 10.1517 100.735 10.1517C101.061 10.1517 101.346 10.111 101.51 10.0702L101.55 11.6194C101.265 11.7417 100.735 11.8233 100.083 11.8233C99.3488 11.8233 98.7372 11.5787 98.3703 11.171C97.9626 10.7225 97.7587 9.98865 97.7587 8.9694V5.21859H96.6172V3.62857H97.7587V1.8347L99.7157 1.38623Z" fill="#0074FF"/>
<path d="M105.262 1.42695C105.262 2.0385 104.813 2.48697 104.12 2.48697C103.468 2.48697 103.02 1.99773 103.02 1.42695C103.02 0.815409 103.468 0.326172 104.161 0.326172C104.813 0.326172 105.262 0.815409 105.262 1.42695ZM103.142 11.5786V3.62852H105.18V11.5786H103.142Z" fill="#0074FF"/>
<path d="M114.842 7.54279C114.842 10.4782 112.803 11.7828 110.765 11.7828C108.523 11.7828 106.77 10.2336 106.77 7.70587C106.77 5.09661 108.482 3.50659 110.887 3.50659C113.293 3.46582 114.842 5.13738 114.842 7.54279ZM108.89 7.62433C108.89 9.17358 109.623 10.3151 110.847 10.3151C111.988 10.3151 112.803 9.17358 112.803 7.58356C112.803 6.36047 112.233 4.93353 110.887 4.93353C109.46 4.93353 108.89 6.27893 108.89 7.62433Z" fill="#0074FF"/>
<path d="M116.513 5.99281C116.513 5.09588 116.513 4.32125 116.432 3.62817H118.185L118.266 4.81049H118.307C118.633 4.19894 119.53 3.42432 120.835 3.42432C122.221 3.42432 123.648 4.32125 123.648 6.84897V11.5783H121.65V7.09359C121.65 5.95204 121.242 5.09588 120.142 5.09588C119.326 5.09588 118.796 5.66665 118.592 6.2782C118.511 6.44128 118.511 6.6859 118.511 6.93051V11.5783H116.472V5.99281H116.513Z" fill="#0074FF"/>
<path d="M7 22L10 25L20 15" stroke="#0074FF" stroke-width="2" stroke-linecap="round" stroke-linejoin="round"/>
<path d="M19 23V30C19 30.5304 18.7893 31.0391 18.4142 31.4142C18.0391 31.7893 17.5304 32 17 32H3C2.46957 32 1.96086 31.7893 1.58579 31.4142C1.21071 31.0391 1 30.5304 1 30V16C1 15.4696 1.21071 14.9609 1.58579 14.5858C1.96086 14.2107 2.46957 14 3 14H14" stroke="#045F87" stroke-width="2" stroke-linecap="round" stroke-linejoin="round"/>
<path d="M32.4121 43.0303H32.9004C33.3789 43.0303 33.7321 42.9505 33.96 42.791C34.1878 42.6315 34.3018 42.3809 34.3018 42.0391C34.3018 41.7005 34.1846 41.4596 33.9502 41.3164C33.7191 41.1732 33.3594 41.1016 32.8711 41.1016H32.4121V43.0303ZM32.4121 44.2607V47H30.8984V39.8613H32.9785C33.9486 39.8613 34.6663 40.0387 35.1318 40.3936C35.5973 40.7451 35.8301 41.2806 35.8301 42C35.8301 42.4199 35.7145 42.7943 35.4834 43.123C35.2523 43.4486 34.9251 43.7041 34.502 43.8896C35.5762 45.4945 36.276 46.5312 36.6016 47H34.9219L33.2178 44.2607H32.4121ZM41.6113 47H37.5V39.8613H41.6113V41.1016H39.0137V42.6689H41.4307V43.9092H39.0137V45.75H41.6113V47ZM49.585 43.4209C49.585 44.2607 49.4352 44.9655 49.1357 45.5352C48.8395 46.1016 48.4033 46.5166 47.8271 46.7803L49.5459 48.6992H47.6074L46.2988 47.0977H46.1865C45.0928 47.0977 44.2529 46.7803 43.667 46.1455C43.0811 45.5107 42.7881 44.5993 42.7881 43.4111C42.7881 42.223 43.0811 41.3164 43.667 40.6914C44.2562 40.0632 45.0993 39.749 46.1963 39.749C47.2933 39.749 48.1315 40.0648 48.7109 40.6963C49.2936 41.3278 49.585 42.236 49.585 43.4209ZM44.375 43.4209C44.375 44.2184 44.5264 44.819 44.8291 45.2227C45.1318 45.6263 45.5843 45.8281 46.1865 45.8281C47.3942 45.8281 47.998 45.0257 47.998 43.4209C47.998 41.8128 47.3975 41.0088 46.1963 41.0088C45.5941 41.0088 45.14 41.2122 44.834 41.6191C44.528 42.0228 44.375 42.6234 44.375 43.4209ZM56.875 39.8613V44.4805C56.875 45.0078 56.7562 45.4701 56.5186 45.8672C56.2842 46.2643 55.944 46.5687 55.498 46.7803C55.0521 46.9919 54.5247 47.0977 53.916 47.0977C52.998 47.0977 52.2852 46.8633 51.7773 46.3945C51.2695 45.9225 51.0156 45.278 51.0156 44.4609V39.8613H52.5244V44.2314C52.5244 44.7816 52.6351 45.1852 52.8564 45.4424C53.0778 45.6995 53.444 45.8281 53.9551 45.8281C54.4499 45.8281 54.8079 45.6995 55.0293 45.4424C55.2539 45.182 55.3662 44.7751 55.3662 44.2217V39.8613H56.875ZM62.7344 47H58.623V39.8613H62.7344V41.1016H60.1367V42.6689H62.5537V43.9092H60.1367V45.75H62.7344V47ZM68.4424 45.0176C68.4424 45.6621 68.2096 46.1699 67.7441 46.541C67.2819 46.9121 66.6374 47.0977 65.8105 47.0977C65.0488 47.0977 64.375 46.9544 63.7891 46.668V45.2617C64.2708 45.4766 64.6777 45.6279 65.0098 45.7158C65.3451 45.8037 65.651 45.8477 65.9277 45.8477C66.2598 45.8477 66.5137 45.7842 66.6895 45.6572C66.8685 45.5303 66.958 45.3415 66.958 45.0908C66.958 44.9508 66.9189 44.8271 66.8408 44.7197C66.7627 44.609 66.6471 44.5033 66.4941 44.4023C66.3444 44.3014 66.0368 44.1403 65.5713 43.9189C65.1351 43.7139 64.8079 43.5169 64.5898 43.3281C64.3717 43.1393 64.1976 42.9196 64.0674 42.6689C63.9372 42.4183 63.8721 42.1253 63.8721 41.79C63.8721 41.1585 64.0853 40.6621 64.5117 40.3008C64.9414 39.9395 65.5339 39.7588 66.2891 39.7588C66.6602 39.7588 67.0133 39.8027 67.3486 39.8906C67.6872 39.9785 68.0404 40.1022 68.4082 40.2617L67.9199 41.4385C67.5391 41.2822 67.2233 41.1732 66.9727 41.1113C66.7253 41.0495 66.4811 41.0186 66.2402 41.0186C65.9538 41.0186 65.734 41.0853 65.5811 41.2188C65.4281 41.3522 65.3516 41.5264 65.3516 41.7412C65.3516 41.8747 65.3825 41.9919 65.4443 42.0928C65.5062 42.1904 65.6038 42.2865 65.7373 42.3809C65.874 42.472 66.1947 42.638 66.6992 42.8789C67.3665 43.1979 67.8239 43.5186 68.0713 43.8408C68.3187 44.1598 68.4424 44.5521 68.4424 45.0176ZM72.4902 47H70.9766V41.1211H69.0381V39.8613H74.4287V41.1211H72.4902V47ZM79.6387 47H75.5273V39.8613H79.6387V41.1016H77.041V42.6689H79.458V43.9092H77.041V45.75H79.6387V47ZM87.0557 43.3623C87.0557 44.5374 86.7204 45.4375 86.0498 46.0625C85.3825 46.6875 84.4173 47 83.1543 47H81.1328V39.8613H83.374C84.5394 39.8613 85.4443 40.1689 86.0889 40.7842C86.7334 41.3994 87.0557 42.2588 87.0557 43.3623ZM85.4834 43.4014C85.4834 41.8682 84.8063 41.1016 83.4521 41.1016H82.6465V45.75H83.2959C84.7542 45.75 85.4834 44.9671 85.4834 43.4014Z" fill="#045F87"/>
</svg>
