<svg width="16" height="10" viewBox="0 0 16 10" fill="none" xmlns="http://www.w3.org/2000/svg">
<path d="M11.1543 0.469543C11.0785 0.501013 11.0096 0.547136 10.9516 0.605269C10.8934 0.663256 10.8473 0.732142 10.8159 0.807981C10.7844 0.88382 10.7682 0.965123 10.7682 1.04723C10.7682 1.12934 10.7844 1.21064 10.8159 1.28648C10.8473 1.36232 10.8934 1.43121 10.9516 1.4892L13.6519 4.18848H0.636126C0.475865 4.18848 0.322167 4.25214 0.208845 4.36546C0.0955235 4.47878 0.0318604 4.63248 0.0318604 4.79274C0.0318604 4.953 0.0955235 5.1067 0.208845 5.22002C0.322167 5.33335 0.475865 5.39701 0.636126 5.39701H13.6518L10.9516 8.09617C10.8344 8.21338 10.7685 8.37236 10.7685 8.53813C10.7685 8.7039 10.8344 8.86288 10.9516 8.98009C11.0688 9.09731 11.2278 9.16316 11.3935 9.16316C11.5593 9.16316 11.7183 9.09731 11.8355 8.98009L15.581 5.23465C15.6391 5.17666 15.6852 5.10777 15.7167 5.03193C15.7482 4.95609 15.7644 4.87479 15.7644 4.79268C15.7644 4.71057 15.7482 4.62927 15.7167 4.55343C15.6852 4.47759 15.6391 4.40871 15.581 4.35072L11.8355 0.605269C11.7775 0.547136 11.7086 0.501013 11.6328 0.469543C11.557 0.438073 11.4757 0.421875 11.3935 0.421875C11.3114 0.421875 11.2301 0.438073 11.1543 0.469543Z" fill="#053855"/>
</svg>
