<svg width="148" height="31" viewBox="0 0 148 31" fill="none" xmlns="http://www.w3.org/2000/svg">
<path d="M42.923 28.5755C41.3522 30.1039 39.3143 30.8256 37.1491 30.8256C31.5025 30.8256 29.0825 26.9197 29.0825 22.9714C29.0401 18.9806 31.6299 14.9473 37.1491 14.9473C39.2294 14.9473 41.1823 15.7115 42.7532 17.2823L40.8427 19.1504C39.8238 18.1739 38.5077 17.7069 37.1491 17.7069C33.4555 17.7069 31.8846 20.4665 31.8846 23.0138C31.9271 25.5187 33.3706 28.1934 37.1491 28.1934C38.4652 28.1934 39.9936 27.6415 40.9701 26.665L42.923 28.5755Z" fill="white"/>
<path d="M57.6982 15.2866V24.0325C57.6982 28.5328 54.9386 30.8254 51.1176 30.8254C47.4664 30.8254 44.3672 28.6177 44.3672 24.0325V15.2866H47.2117V24.0325C47.2117 26.7921 48.7826 28.2356 51.1601 28.2356C53.5376 28.2356 54.8962 26.6647 54.8962 24.0325V15.2866H57.6982Z" fill="white"/>
<path d="M74.0009 30.4862H70.6044L66.1466 25.3915H63.387V30.4862H60.5V15.2446C62.92 15.2446 65.3399 15.2871 67.7599 15.2871C71.3686 15.3295 73.2367 17.707 73.2367 20.3393C73.2367 22.4196 72.2602 24.5424 69.3732 25.1368L74.0009 30.3588V30.4862ZM63.387 17.9193V22.8017H67.7599C69.5855 22.8017 70.3921 21.5705 70.3921 20.3817C70.3921 19.193 69.5855 17.9618 67.7599 17.9618H63.387V17.9193Z" fill="white"/>
<path d="M86.0162 27.5992H78.0345L76.7184 30.4862H73.6191L80.4545 15.2446H83.5962L90.4315 30.4862H87.2898L86.0162 27.5992ZM82.0253 18.4712L79.1808 24.967H84.8274L82.0253 18.4712Z" fill="white"/>
<path d="M93.1915 17.8769H88.3516V15.2446C92.7669 15.2446 96.4606 15.2446 100.876 15.2446V17.8769H96.036V30.4862H93.149V17.8769H93.1915Z" fill="white"/>
<path d="M113.995 30.4862H102.574C102.574 25.434 102.574 20.3393 102.574 15.2446H113.995V18.0467H105.461V21.5705H113.698V24.2452H105.461V27.6841H113.995V30.4862Z" fill="white"/>
<path d="M129.617 22.7592C129.702 26.6226 127.324 30.5285 122.017 30.5285C120.149 30.5285 117.899 30.5285 116.031 30.5285V15.287C117.899 15.287 120.149 15.287 122.017 15.287C127.197 15.2445 129.532 18.9806 129.617 22.7592ZM118.833 27.7265H121.975C125.456 27.7265 126.815 25.2216 126.73 22.7167C126.645 20.3392 125.287 17.9617 121.975 17.9617H118.833V27.7265Z" fill="white"/>
<path fill-rule="evenodd" clip-rule="evenodd" d="M0.0424581 15.5839L0 12.0601C0 11.678 0.212283 11.3809 0.509471 11.3809H2.97189C3.26908 11.3809 3.48136 11.678 3.48136 12.0177L3.52382 15.5415C3.52382 15.9236 3.31153 16.2208 3.01434 16.2208H0.55193C0.254741 16.2208 0.0424581 15.9236 0.0424581 15.5839Z" fill="white"/>
<path fill-rule="evenodd" clip-rule="evenodd" d="M0.0424581 22.3769L0 18.8531C0 18.471 0.212283 18.1738 0.509471 18.1738H2.97189C3.26908 18.1738 3.48136 18.471 3.48136 18.8107L3.52382 22.3345C3.52382 22.7166 3.31153 23.0137 3.01434 23.0137H0.55193C0.254741 23.0137 0.0424581 22.7166 0.0424581 22.3769Z" fill="white"/>
<path fill-rule="evenodd" clip-rule="evenodd" d="M4.58543 15.542L4.54297 12.0182C4.54297 11.6361 4.75524 11.3389 5.05243 11.3389H7.51486C7.81204 11.3389 8.02431 11.6361 8.02431 11.9757L8.06677 15.4995C8.06677 15.8816 7.8545 16.1788 7.55731 16.1788H5.09489C4.7977 16.1788 4.58543 15.8816 4.58543 15.542Z" fill="white"/>
<path fill-rule="evenodd" clip-rule="evenodd" d="M9.00144 27.0049L8.95898 23.4811C8.95898 23.099 9.17127 22.8018 9.46846 22.8018H11.9309C12.2281 22.8018 12.4403 23.0989 12.4403 23.4386L12.4828 26.9624C12.4828 27.3445 12.2705 27.6417 11.9733 27.6417H9.5109C9.21371 27.6842 9.00144 27.387 9.00144 27.0049Z" fill="white"/>
<path fill-rule="evenodd" clip-rule="evenodd" d="M8.95847 21.2734L8.91602 17.7496C8.91602 17.3675 9.1283 17.0703 9.42549 17.0703H11.8879C12.1851 17.0703 12.3974 17.3675 12.3974 17.7071L12.4398 21.2309C12.4398 21.613 12.2275 21.9103 11.9304 21.9103H9.46795C9.17076 21.9103 8.95847 21.6131 8.95847 21.2734Z" fill="white"/>
<path fill-rule="evenodd" clip-rule="evenodd" d="M8.9155 15.4995L8.87305 11.9757C8.87305 11.5936 9.08533 11.2964 9.38252 11.2964H11.8449C12.1421 11.2964 12.3544 11.5936 12.3544 11.9332L12.3969 15.457C12.3969 15.8391 12.1846 16.1363 11.8874 16.1363H9.42498C9.12779 16.1788 8.9155 15.8816 8.9155 15.4995Z" fill="white"/>
<path fill-rule="evenodd" clip-rule="evenodd" d="M13.3315 26.9619L13.2891 23.4381C13.2891 23.056 13.5013 22.7588 13.7985 22.7588H16.2609C16.5581 22.7588 16.7704 23.056 16.7704 23.3956L16.8129 26.9194C16.8129 27.3015 16.6006 27.5987 16.3034 27.5987H13.841C13.5438 27.6412 13.3315 27.344 13.3315 26.9619Z" fill="white"/>
<path fill-rule="evenodd" clip-rule="evenodd" d="M13.2886 21.2304L13.2461 17.7066C13.2461 17.3245 13.4584 17.0273 13.7556 17.0273H16.218C16.5152 17.0273 16.7274 17.3245 16.7274 17.6642L16.7699 21.188C16.7699 21.5701 16.5576 21.8673 16.2604 21.8673H13.798C13.5008 21.8673 13.2886 21.6125 13.2886 21.2304Z" fill="white"/>
<path fill-rule="evenodd" clip-rule="evenodd" d="M13.2456 15.457L13.2031 11.9332C13.2031 11.5511 13.4154 11.2539 13.7126 11.2539H16.175C16.4722 11.2539 16.6845 11.5511 16.6845 11.8907L16.7269 15.4146C16.7269 15.7967 16.5147 16.0938 16.2175 16.0938H13.755C13.4579 16.1363 13.2456 15.8391 13.2456 15.457Z" fill="white"/>
<path fill-rule="evenodd" clip-rule="evenodd" d="M4.24558 9.64009L4.20312 6.11629C4.20312 5.73419 4.41541 5.43701 4.7126 5.43701H7.17501C7.4722 5.43701 7.68448 5.7342 7.68448 6.07384L7.72694 9.59765C7.72694 9.97975 7.51466 10.2769 7.21747 10.2769H4.75505C4.45787 10.3194 4.24558 10.0222 4.24558 9.64009Z" fill="white"/>
<path fill-rule="evenodd" clip-rule="evenodd" d="M8.87252 9.59862L8.83008 6.07481C8.83008 5.69271 9.04235 5.39551 9.33954 5.39551H11.802C12.0992 5.39551 12.3114 5.6927 12.3114 6.03234L12.3539 9.55614C12.3539 9.93824 12.1416 10.2354 11.8444 10.2354H9.38199C9.08481 10.2354 8.87252 9.93826 8.87252 9.59862Z" fill="white"/>
<path fill-rule="evenodd" clip-rule="evenodd" d="M13.2026 9.55562L13.1602 6.03182C13.1602 5.64972 13.3724 5.35254 13.6696 5.35254H16.132C16.4292 5.35254 16.6415 5.64973 16.6415 5.98937L16.684 9.51318C16.684 9.89527 16.4717 10.1925 16.1745 10.1925H13.7121C13.4149 10.2349 13.2026 9.93772 13.2026 9.55562Z" fill="white"/>
<path fill-rule="evenodd" clip-rule="evenodd" d="M17.4487 21.1889L17.4062 17.6651C17.4062 17.283 17.6185 16.9858 17.9157 16.9858H20.3781C20.6753 16.9858 20.8876 17.283 20.8876 17.6227L20.9301 21.1465C20.9301 21.5286 20.7178 21.8258 20.4206 21.8258H17.9582C17.661 21.8682 17.4487 21.571 17.4487 21.1889Z" fill="white"/>
<path fill-rule="evenodd" clip-rule="evenodd" d="M17.4057 15.457L17.3633 11.9332C17.3633 11.5511 17.5756 11.2539 17.8728 11.2539H20.3352C20.6324 11.2539 20.8446 11.5511 20.8446 11.8907L20.8871 15.4146C20.8871 15.7967 20.6748 16.0938 20.3776 16.0938H17.9152C17.618 16.0938 17.4057 15.7967 17.4057 15.457Z" fill="white"/>
<path fill-rule="evenodd" clip-rule="evenodd" d="M17.3647 9.51317L17.3223 5.98936C17.3223 5.60726 17.5345 5.31006 17.8317 5.31006H20.2942C20.5913 5.31006 20.8036 5.60725 20.8036 5.94689L20.8461 9.47072C20.8461 9.85282 20.6338 10.15 20.3366 10.15H17.8742C17.577 10.1925 17.3647 9.89527 17.3647 9.51317Z" fill="white"/>
<path d="M19.4873 19.0414L14.5352 24.75L15.1124 25.2508L20.0646 19.5422L19.4873 19.0414Z" fill="white"/>
<path d="M18.9712 8.16301L14.0176 13.8701L14.5947 14.371L19.5484 8.66394L18.9712 8.16301Z" fill="white"/>
<path d="M29.2944 0.258211C29.7614 0.1733 30.653 0.0883789 31.5021 0.0883789C32.6059 0.0883789 33.3277 0.215751 33.8796 0.59785C34.3891 0.895039 34.7287 1.44697 34.7287 2.16871C34.7287 2.93291 34.2617 3.65466 33.3701 3.95185V3.99429C34.2617 4.20657 35.0259 4.88585 35.0259 6.03215C35.0259 6.7539 34.6863 7.34827 34.2193 7.73037C33.6249 8.23984 32.6484 8.49457 31.12 8.49457C30.2709 8.49457 29.6341 8.45212 29.252 8.36721V0.258211H29.2944ZM30.8228 3.56974H31.587C32.6484 3.56974 33.2428 3.06028 33.2428 2.38099C33.2428 1.61679 32.6484 1.23468 31.6719 1.23468C31.2474 1.23468 30.9502 1.27714 30.8228 1.27714V3.56974ZM30.8228 7.34829C31.0351 7.39075 31.2898 7.39073 31.6295 7.39073C32.606 7.39073 33.4551 7.00864 33.4551 5.98971C33.4551 5.01323 32.6059 4.63113 31.587 4.63113H30.8228V7.34829Z" fill="white"/>
<path d="M41.6907 6.66894C41.6907 7.39068 41.7331 7.98506 41.7331 8.45207H40.417L40.3321 7.56052H40.2896C40.0349 7.98507 39.4405 8.62191 38.3791 8.62191C37.2753 8.62191 36.2988 7.98506 36.2988 6.0321V2.5083H37.8272V5.77738C37.8272 6.75386 38.1669 7.43313 38.931 7.43313C39.5254 7.43313 39.9075 7.00859 40.0774 6.62649C40.1198 6.49913 40.1623 6.32929 40.1623 6.15947V2.55076H41.6907V6.66894Z" fill="white"/>
<path d="M43.262 7.0929C43.6017 7.30518 44.2385 7.51746 44.7905 7.51746C45.4697 7.51746 45.7669 7.26273 45.7669 6.83818C45.7669 6.41362 45.5122 6.20133 44.7905 5.9466C43.6017 5.52204 43.1347 4.88522 43.1347 4.20593C43.1347 3.14454 44.0262 2.33789 45.3848 2.33789C46.0641 2.33789 46.616 2.50771 46.9557 2.67753L46.6585 3.73893C46.4037 3.61156 45.9367 3.39927 45.3848 3.39927C44.8329 3.39927 44.5357 3.654 44.5357 4.0361C44.5357 4.4182 44.8329 4.58802 45.5971 4.88521C46.7009 5.26731 47.1679 5.81925 47.2104 6.71082C47.2104 7.81466 46.3613 8.57885 44.7905 8.57885C44.0687 8.57885 43.4319 8.40902 42.9648 8.15429L43.262 7.0929Z" fill="white"/>
<path d="M50.0986 0.80988C50.0986 1.27689 49.759 1.61653 49.2495 1.61653C48.74 1.61653 48.4004 1.27689 48.4004 0.80988C48.4004 0.34287 48.74 0.00322797 49.2495 0.00322797C49.759 -0.0392276 50.0986 0.34287 50.0986 0.80988ZM48.4853 8.45187V2.46564H50.0137V8.45187H48.4853Z" fill="white"/>
<path d="M51.6264 4.24838C51.6264 3.56909 51.6264 2.97472 51.584 2.46525H52.9001L52.985 3.35682H53.0275C53.2822 2.88981 53.919 2.33789 54.938 2.33789C55.9993 2.33789 57.0607 3.01718 57.0607 4.92768V8.49393H55.5323V5.09749C55.5323 4.24838 55.1927 3.5691 54.386 3.5691C53.7917 3.5691 53.3671 3.99364 53.1973 4.46065C53.1548 4.58802 53.1548 4.8003 53.1548 4.97013V8.49393H51.6264V4.24838Z" fill="white"/>
<path d="M59.7345 5.9047C59.7769 7.00854 60.6261 7.47556 61.6025 7.47556C62.3243 7.47556 62.7913 7.39063 63.2583 7.22081L63.4706 8.2822C62.9611 8.49447 62.2394 8.66431 61.3903 8.66431C59.4373 8.66431 58.291 7.47556 58.291 5.64998C58.291 3.99421 59.3099 2.42334 61.2204 2.42334C63.1734 2.42334 63.8102 4.03666 63.8102 5.35278C63.8102 5.64997 63.7678 5.86225 63.7678 5.98961H59.7345V5.9047ZM62.3667 4.84331C62.3667 4.29139 62.112 3.35737 61.1355 3.35737C60.2015 3.35737 59.8194 4.20648 59.7345 4.84331H62.3667Z" fill="white"/>
<path d="M64.9574 7.0929C65.297 7.30518 65.9338 7.51746 66.4857 7.51746C67.165 7.51746 67.4622 7.26273 67.4622 6.83818C67.4622 6.41362 67.2075 6.20133 66.4857 5.9466C65.297 5.52204 64.83 4.88522 64.83 4.20593C64.83 3.14454 65.7215 2.33789 67.0801 2.33789C67.7594 2.33789 68.3113 2.50771 68.651 2.67753L68.3538 3.73893C68.0991 3.61156 67.632 3.39927 67.0801 3.39927C66.5282 3.39927 66.231 3.654 66.231 4.0361C66.231 4.4182 66.5282 4.58802 67.2924 4.88521C68.3962 5.26731 68.8633 5.81925 68.9057 6.71082C68.9057 7.81466 68.0566 8.57885 66.4857 8.57885C65.764 8.57885 65.1272 8.40902 64.6602 8.15429L64.9574 7.0929Z" fill="white"/>
<path d="M70.0941 7.0929C70.4337 7.30518 71.0705 7.51746 71.6225 7.51746C72.3017 7.51746 72.599 7.26273 72.599 6.83818C72.599 6.41362 72.3442 6.20133 71.6225 5.9466C70.4337 5.52204 69.9667 4.88522 69.9667 4.20593C69.9667 3.14454 70.8583 2.33789 72.2168 2.33789C72.8961 2.33789 73.4481 2.50771 73.7877 2.67753L73.4905 3.73893C73.2358 3.61156 72.7688 3.39927 72.2168 3.39927C71.6649 3.39927 71.3677 3.654 71.3677 4.0361C71.3677 4.4182 71.6649 4.58802 72.4291 4.88521C73.533 5.26731 74 5.81925 74.0424 6.71082C74.0424 7.81466 73.1933 8.57885 71.6225 8.57885C70.9007 8.57885 70.2639 8.40902 69.7969 8.15429L70.0941 7.0929Z" fill="white"/>
<path d="M84.9113 5.09768C84.8689 4.03629 84.784 2.72018 84.8264 1.61634H84.7839C84.5292 2.63527 84.1471 3.73913 83.8075 4.80051L82.6187 8.40923H81.43L80.3261 4.84296C79.9865 3.78157 79.6893 2.63527 79.477 1.61634H79.4345C79.3921 2.72018 79.3496 4.03631 79.3072 5.14015L79.1374 8.49412H77.7363L78.2882 0.172852H80.2837L81.3875 3.52685C81.6847 4.50333 81.9394 5.4798 82.1517 6.41382H82.1942C82.4064 5.52225 82.7036 4.50333 83.0008 3.52685L84.1471 0.21531H86.1001L86.5671 8.5366H85.0811L84.9113 5.09768Z" fill="white"/>
<path d="M91.4484 8.45148L91.3635 7.77221H91.3211C90.939 8.23922 90.3446 8.57885 89.5379 8.57885C88.3492 8.57885 87.6699 7.68727 87.6699 6.79571C87.6699 5.26731 89.0285 4.50311 91.2362 4.54557V4.46065C91.2362 4.07855 91.0664 3.39927 90.005 3.39927C89.4106 3.39927 88.8162 3.56909 88.3916 3.82382L88.0945 2.84735C88.519 2.59262 89.3257 2.33789 90.2597 2.33789C92.1702 2.33789 92.7221 3.5691 92.7221 4.84276V7.00799C92.7221 7.55991 92.7646 8.06938 92.807 8.45148H91.4484ZM91.2362 5.52204C90.1748 5.47959 89.1559 5.73434 89.1559 6.6259C89.1559 7.22028 89.538 7.47501 90.005 7.47501C90.5994 7.47501 91.0664 7.0929 91.1937 6.66835C91.2362 6.54098 91.2362 6.41362 91.2362 6.32871V5.52204Z" fill="white"/>
<path d="M94.3354 4.24838C94.3354 3.56909 94.3354 2.97472 94.293 2.46525H95.6091L95.694 3.35682H95.7365C95.9912 2.88981 96.628 2.33789 97.647 2.33789C98.7084 2.33789 99.7697 3.01718 99.7697 4.92768V8.49393H98.2413V5.09749C98.2413 4.24838 97.9017 3.5691 97.095 3.5691C96.5006 3.5691 96.0761 3.99364 95.9063 4.46065C95.8638 4.58802 95.8638 4.8003 95.8638 4.97013V8.49393H94.3354V4.24838Z" fill="white"/>
<path d="M104.738 8.45148L104.653 7.77221H104.61C104.228 8.23922 103.634 8.57885 102.827 8.57885C101.638 8.57885 100.959 7.68727 100.959 6.79571C100.959 5.26731 102.318 4.50311 104.525 4.54557V4.46065C104.525 4.07855 104.355 3.39927 103.294 3.39927C102.7 3.39927 102.105 3.56909 101.681 3.82382L101.384 2.84735C101.808 2.59262 102.615 2.33789 103.549 2.33789C105.459 2.33789 106.011 3.5691 106.011 4.84276V7.00799C106.011 7.55991 106.054 8.06938 106.096 8.45148H104.738ZM104.568 5.52204C103.506 5.47959 102.487 5.73434 102.487 6.6259C102.487 7.22028 102.869 7.47501 103.336 7.47501C103.931 7.47501 104.398 7.0929 104.525 6.66835C104.568 6.54098 104.568 6.41362 104.568 6.32871V5.52204Z" fill="white"/>
<path d="M113.101 2.46525C113.059 2.88981 113.059 3.35682 113.059 4.20593V7.60237C113.059 8.87604 112.804 9.76762 112.167 10.3195C111.53 10.8715 110.681 11.0413 109.832 11.0413C109.068 11.0413 108.261 10.8714 107.752 10.5743L108.091 9.42796C108.473 9.64023 109.11 9.89498 109.832 9.89498C110.808 9.89498 111.573 9.3855 111.573 8.06937V7.55993H111.53C111.191 8.06939 110.554 8.45148 109.79 8.45148C108.304 8.45148 107.242 7.22026 107.242 5.52204C107.242 3.56909 108.516 2.33789 109.959 2.33789C110.851 2.33789 111.403 2.76244 111.7 3.2719H111.742L111.785 2.46525H113.101ZM111.53 4.88521C111.53 4.75784 111.53 4.58802 111.488 4.46065C111.318 3.90873 110.893 3.48418 110.257 3.48418C109.407 3.48418 108.771 4.20594 108.771 5.43715C108.771 6.45608 109.28 7.30518 110.257 7.30518C110.808 7.30518 111.318 6.92309 111.488 6.41362C111.53 6.2438 111.53 6.03153 111.53 5.86171V4.88521Z" fill="white"/>
<path d="M115.776 5.9047C115.818 7.00854 116.667 7.47556 117.644 7.47556C118.365 7.47556 118.832 7.39063 119.299 7.22081L119.512 8.2822C119.002 8.49447 118.28 8.66431 117.431 8.66431C115.478 8.66431 114.332 7.47556 114.332 5.64998C114.332 3.99421 115.351 2.42334 117.261 2.42334C119.214 2.42334 119.851 4.03666 119.851 5.35278C119.851 5.64997 119.809 5.86225 119.809 5.98961H115.776V5.9047ZM118.408 4.84331C118.408 4.29139 118.153 3.35737 117.177 3.35737C116.243 3.35737 115.86 4.20648 115.776 4.84331H118.408Z" fill="white"/>
<path d="M121.04 4.24838C121.04 3.56909 121.041 2.97472 120.998 2.46525H122.314L122.357 3.35682H122.399C122.696 2.88981 123.248 2.33789 124.267 2.33789C125.074 2.33789 125.668 2.76245 125.923 3.44174H125.965C126.178 3.10209 126.432 2.84735 126.687 2.67753C127.027 2.4228 127.409 2.33789 127.876 2.33789C128.852 2.33789 129.871 3.01718 129.871 4.92768V8.45148H128.385V5.13996C128.385 4.16348 128.046 3.5691 127.324 3.5691C126.814 3.5691 126.432 3.95121 126.263 4.37576C126.22 4.50313 126.178 4.71539 126.178 4.88521V8.49393H124.692V5.0126C124.692 4.16349 124.352 3.5691 123.673 3.5691C123.121 3.5691 122.739 3.99365 122.569 4.41821C122.526 4.54558 122.484 4.75786 122.484 4.92768V8.49393H121.04V4.24838Z" fill="white"/>
<path d="M132.547 5.9047C132.589 7.00854 133.439 7.47556 134.415 7.47556C135.137 7.47556 135.604 7.39063 136.071 7.22081L136.283 8.2822C135.774 8.49447 135.052 8.66431 134.203 8.66431C132.25 8.66431 131.104 7.47556 131.104 5.64998C131.104 3.99421 132.122 2.42334 134.033 2.42334C135.986 2.42334 136.623 4.03666 136.623 5.35278C136.623 5.64997 136.58 5.86225 136.58 5.98961H132.547V5.9047ZM135.179 4.84331C135.179 4.29139 134.925 3.35737 133.948 3.35737C133.014 3.35737 132.632 4.20648 132.547 4.84331H135.179Z" fill="white"/>
<path d="M137.81 4.24838C137.81 3.56909 137.81 2.97472 137.768 2.46525H139.084L139.169 3.35682H139.211C139.466 2.88981 140.103 2.33789 141.122 2.33789C142.183 2.33789 143.244 3.01718 143.244 4.92768V8.49393H141.716V5.09749C141.716 4.24838 141.376 3.5691 140.57 3.5691C139.975 3.5691 139.551 3.99364 139.381 4.46065C139.338 4.58802 139.338 4.8003 139.338 4.97013V8.49393H137.81V4.24838Z" fill="white"/>
<path d="M146.556 0.76709V2.46531H147.999V3.6116H146.556V6.24385C146.556 6.96559 146.768 7.34771 147.32 7.34771C147.575 7.34771 147.787 7.30525 147.914 7.26279L147.957 8.4091C147.745 8.49401 147.32 8.53646 146.853 8.53646C146.301 8.53646 145.834 8.36663 145.537 8.02699C145.197 7.68734 145.07 7.13541 145.07 6.37121V3.56916H144.221V2.42285H145.07V1.06428L146.556 0.76709Z" fill="white"/>
</svg>
