<svg width="130" height="37" viewBox="0 0 130 37" fill="none" xmlns="http://www.w3.org/2000/svg">
<path d="M43.0478 34.192C41.4723 35.7249 39.4284 36.4488 37.2568 36.4488C31.5936 36.4488 29.1665 32.5314 29.1665 28.5714C29.124 24.5688 31.7214 20.5237 37.2568 20.5237C39.3433 20.5237 41.302 21.2901 42.8774 22.8656L40.9613 24.7392C39.9394 23.7598 38.6194 23.2914 37.2568 23.2914C33.5523 23.2914 31.9769 26.0591 31.9769 28.614C32.0194 31.1262 33.4672 33.8088 37.2568 33.8088C38.5768 33.8088 40.1097 33.2552 41.0891 32.2759L43.0478 34.192Z" fill="#CBCBCB"/>
<path d="M57.8664 20.8645V29.6361C57.8664 34.1496 55.0986 36.449 51.2664 36.449C47.6045 36.449 44.4961 34.2348 44.4961 29.6361V20.8645H47.349V29.6361C47.349 32.4038 48.9245 33.8515 51.309 33.8515C53.6935 33.8515 55.0561 32.2761 55.0561 29.6361V20.8645H57.8664Z" fill="#CBCBCB"/>
<path d="M74.2164 36.1081H70.8099L66.339 30.9985H63.5713V36.1081H60.6758V20.8218C63.1029 20.8218 65.53 20.8643 67.9571 20.8643C71.5764 20.9069 73.4499 23.2914 73.4499 25.9314C73.4499 28.0179 72.4706 30.1469 69.5751 30.743L74.2164 35.9804V36.1081ZM63.5713 23.5043V28.4011H67.9571C69.788 28.4011 70.597 27.1663 70.597 25.974C70.597 24.7817 69.788 23.5469 67.9571 23.5469H63.5713V23.5043Z" fill="#CBCBCB"/>
<path d="M86.2675 33.2554H78.2624L76.9424 36.1509H73.834L80.6894 20.8645H83.8404L90.6958 36.1509H87.5449L86.2675 33.2554ZM82.2649 24.058L79.412 30.5728H85.0752L82.2649 24.058Z" fill="#CBCBCB"/>
<path d="M93.4206 23.4618H88.5664V20.8218C92.9948 20.8218 96.6993 20.8218 101.128 20.8218V23.4618H96.2735V36.1081H93.4206V23.4618Z" fill="#CBCBCB"/>
<path d="M114.327 36.1081H102.873C102.873 31.0411 102.873 25.9314 102.873 20.8218H114.327V23.6321H105.769V27.1662H114.029V29.8488H105.769V33.2978H114.327V36.1081Z" fill="#CBCBCB"/>
<path d="M129.997 28.3585C130.082 32.2334 127.697 36.1508 122.375 36.1508C120.501 36.1508 118.245 36.1508 116.371 36.1508V20.8644C118.245 20.8644 120.501 20.8644 122.375 20.8644C127.57 20.8218 129.912 24.5689 129.997 28.3585ZM119.181 33.3404H122.332C125.824 33.3404 127.187 30.8282 127.101 28.316C127.016 25.9314 125.654 23.5469 122.332 23.5469H119.181V33.3404Z" fill="#CBCBCB"/>
<path fill-rule="evenodd" clip-rule="evenodd" d="M0.042583 18.1811L0 14.6469C0 14.2637 0.212894 13.9656 0.510958 13.9656H2.98063C3.27869 13.9656 3.49159 14.2636 3.49159 14.6043L3.53417 18.1385C3.53417 18.5217 3.32128 18.8198 3.02321 18.8198H0.553541C0.255477 18.8198 0.042583 18.5217 0.042583 18.1811Z" fill="#CBCBCB"/>
<path fill-rule="evenodd" clip-rule="evenodd" d="M0.042583 24.9945L0 21.4604C0 21.0771 0.212894 20.7791 0.510958 20.7791H2.98063C3.27869 20.7791 3.49159 21.0771 3.49159 21.4178L3.53417 24.952C3.53417 25.3352 3.32128 25.6332 3.02321 25.6332H0.553541C0.255477 25.6332 0.042583 25.3778 0.042583 24.9945Z" fill="#CBCBCB"/>
<path fill-rule="evenodd" clip-rule="evenodd" d="M4.59922 18.1391L4.55664 14.6049C4.55664 14.2216 4.76955 13.9236 5.06761 13.9236H7.53727C7.83533 13.9236 8.04824 14.2216 8.04824 14.5623L8.09083 18.0965C8.09083 18.4797 7.87792 18.7778 7.57985 18.7778H5.11019C4.81213 18.8203 4.59922 18.5223 4.59922 18.1391Z" fill="#CBCBCB"/>
<path fill-rule="evenodd" clip-rule="evenodd" d="M9.02695 29.6356L8.98438 26.1014C8.98438 25.7182 9.19727 25.4202 9.49533 25.4202H11.965C12.2631 25.4202 12.476 25.7182 12.476 26.0589L12.5185 29.593C12.5185 29.9763 12.3056 30.2743 12.0076 30.2743H9.53792C9.23985 30.3169 9.02695 30.0189 9.02695 29.6356Z" fill="#CBCBCB"/>
<path fill-rule="evenodd" clip-rule="evenodd" d="M8.98399 23.8876L8.94141 20.3534C8.94141 19.9702 9.1543 19.6721 9.45236 19.6721H11.922C12.2201 19.6721 12.433 19.9702 12.433 20.3108L12.4756 23.845C12.4756 24.2282 12.2627 24.5263 11.9646 24.5263H9.49495C9.19688 24.5263 8.98399 24.2282 8.98399 23.8876Z" fill="#CBCBCB"/>
<path fill-rule="evenodd" clip-rule="evenodd" d="M8.94297 18.0963L8.90039 14.5621C8.90039 14.1789 9.1133 13.8809 9.41136 13.8809H11.881C12.1791 13.8809 12.392 14.1789 12.392 14.5196L12.4346 18.0537C12.4346 18.437 12.2217 18.735 11.9236 18.735H9.45393C9.15587 18.7776 8.94297 18.4795 8.94297 18.0963Z" fill="#CBCBCB"/>
<path fill-rule="evenodd" clip-rule="evenodd" d="M13.3707 29.6356L13.3281 26.1014C13.3281 25.7182 13.541 25.4202 13.8391 25.4202H16.3088C16.6068 25.4202 16.8197 25.7182 16.8197 26.0589L16.8623 29.593C16.8623 29.9763 16.6494 30.2743 16.3513 30.2743H13.8817C13.5836 30.2743 13.3707 29.9763 13.3707 29.6356Z" fill="#CBCBCB"/>
<path fill-rule="evenodd" clip-rule="evenodd" d="M13.3277 23.8441L13.2852 20.3099C13.2852 19.9267 13.4981 19.6287 13.7961 19.6287H16.2658C16.5639 19.6287 16.7768 19.9267 16.7768 20.2674L16.8193 23.8015C16.8193 24.1848 16.6064 24.4828 16.3084 24.4828H13.8387C13.5406 24.5254 13.3277 24.2273 13.3277 23.8441Z" fill="#CBCBCB"/>
<path fill-rule="evenodd" clip-rule="evenodd" d="M13.2848 18.0963L13.2422 14.5621C13.2422 14.1789 13.4551 13.8809 13.7531 13.8809H16.2228C16.5209 13.8809 16.7338 14.1789 16.7338 14.5196L16.7764 18.0537C16.7764 18.437 16.5635 18.735 16.2654 18.735H13.7957C13.4977 18.735 13.2848 18.437 13.2848 18.0963Z" fill="#CBCBCB"/>
<path fill-rule="evenodd" clip-rule="evenodd" d="M4.25743 12.2201L4.21484 8.68594C4.21484 8.30272 4.42775 8.00464 4.72581 8.00464H7.19548C7.49354 8.00464 7.70645 8.3027 7.70645 8.64335L7.74902 12.1775C7.74902 12.5608 7.53612 12.8588 7.23806 12.8588H4.76838C4.47032 12.9014 4.25743 12.6033 4.25743 12.2201Z" fill="#CBCBCB"/>
<path fill-rule="evenodd" clip-rule="evenodd" d="M8.9 12.1779L8.85742 8.64368C8.85742 8.26046 9.07033 7.9624 9.36839 7.9624H11.8381C12.1361 7.9624 12.349 8.26047 12.349 8.60111L12.3916 12.1353C12.3916 12.5185 12.1787 12.8166 11.8806 12.8166H9.41098C9.11291 12.8166 8.9 12.5185 8.9 12.1779Z" fill="#CBCBCB"/>
<path fill-rule="evenodd" clip-rule="evenodd" d="M13.2418 12.1344L13.1992 8.60022C13.1992 8.217 13.4121 7.91895 13.7102 7.91895H16.1799C16.4779 7.91895 16.6908 8.21701 16.6908 8.55765L16.7334 12.0918C16.7334 12.475 16.5205 12.7731 16.2224 12.7731H13.7528C13.4547 12.8157 13.2418 12.5176 13.2418 12.1344Z" fill="#CBCBCB"/>
<path fill-rule="evenodd" clip-rule="evenodd" d="M17.4996 23.8021L17.457 20.268C17.457 19.8847 17.6699 19.5867 17.968 19.5867H20.4376C20.7357 19.5867 20.9486 19.8847 20.9486 20.2254L20.9912 23.7595C20.9912 24.1428 20.7783 24.4409 20.4802 24.4409H18.0106C17.7125 24.4834 17.4996 24.1854 17.4996 23.8021Z" fill="#CBCBCB"/>
<path fill-rule="evenodd" clip-rule="evenodd" d="M17.4586 18.0536L17.416 14.5194C17.416 14.1362 17.6289 13.8381 17.927 13.8381H20.3966C20.6947 13.8381 20.9076 14.1362 20.9076 14.4768L20.9502 18.011C20.9502 18.3942 20.7373 18.6923 20.4392 18.6923H17.9696C17.6715 18.6923 17.4586 18.3943 17.4586 18.0536Z" fill="#CBCBCB"/>
<path fill-rule="evenodd" clip-rule="evenodd" d="M17.4156 12.0924L17.373 8.55826C17.373 8.17503 17.5859 7.87695 17.884 7.87695H20.3537C20.6518 7.87695 20.8646 8.17502 20.8646 8.51566L20.9072 12.0498C20.9072 12.4331 20.6943 12.7311 20.3963 12.7311H17.9266C17.6285 12.7737 17.4156 12.4757 17.4156 12.0924Z" fill="#CBCBCB"/>
<path d="M19.5429 21.6493L14.5762 27.3748L15.1552 27.877L20.1219 22.1516L19.5429 21.6493Z" fill="#CBCBCB"/>
<path d="M19.019 10.7412L14.0508 16.4651L14.6296 16.9675L19.5978 11.2436L19.019 10.7412Z" fill="#CBCBCB"/>
<path d="M39.9822 13.6257C39.4287 13.9238 38.1087 14.2219 36.4481 14.2219C31.679 14.2219 29.252 11.2412 29.252 7.32384C29.252 2.63999 32.6158 0 36.7887 0C38.4068 0 39.6416 0.340654 40.1951 0.596137L39.5564 3.0658C38.9177 2.81031 38.0235 2.55483 36.959 2.55483C34.4894 2.55483 32.5732 4.04515 32.5732 7.11094C32.5732 9.87867 34.1913 11.6245 37.0016 11.6245C37.9384 11.6245 39.0029 11.4116 39.599 11.1561L39.9822 13.6257Z" fill="#CBCBCB"/>
<path d="M42.0254 0.255859H45.1338V11.4119H50.6266V14.0093H42.0254V0.255859Z" fill="#CBCBCB"/>
<path d="M64.2952 6.9832C64.2952 11.4967 61.5701 14.2219 57.525 14.2219C53.4372 14.2219 51.0527 11.1561 51.0527 7.19611C51.0527 3.0658 53.6927 0 57.7379 0C61.9959 0.0425804 64.2952 3.19354 64.2952 6.9832ZM54.374 7.19611C54.374 9.87867 55.6514 11.7948 57.7379 11.7948C59.8243 11.7948 61.0591 9.79351 61.0591 7.11094C61.0591 4.64127 59.8669 2.51226 57.7379 2.51226C55.5663 2.51226 54.374 4.51354 54.374 7.19611Z" fill="#CBCBCB"/>
<path d="M69.4482 0.255859V8.17581C69.4482 10.5603 70.3424 11.7526 71.9604 11.7526C73.5785 11.7526 74.5153 10.6029 74.5153 8.17581V0.255859H77.6237V7.96291C77.6237 12.221 75.4946 14.2222 71.8753 14.2222C68.3837 14.2222 66.3398 12.3061 66.3398 7.92034V0.255859H69.4482Z" fill="#CBCBCB"/>
<path d="M80.3066 0.425754C81.4563 0.255432 82.9466 0.127686 84.5221 0.127686C87.1195 0.127686 88.8227 0.59607 90.1853 1.618C91.633 2.68251 92.5272 4.38574 92.5272 6.81282C92.5272 9.45281 91.5479 11.2838 90.2279 12.3909C88.7801 13.5831 86.566 14.1792 83.8834 14.1792C82.2653 14.1792 81.1157 14.0941 80.3492 13.9663V0.425754H80.3066ZM83.415 11.667C83.6705 11.7096 84.0963 11.7096 84.4795 11.7096C87.2898 11.7096 89.1208 10.1767 89.1208 6.89799C89.1208 4.0451 87.4602 2.51221 84.7776 2.51221C84.0963 2.51221 83.6279 2.55478 83.3724 2.63994V11.667H83.415Z" fill="#CBCBCB"/>
</svg>
