<svg width="19" height="18" viewBox="0 0 19 18" fill="none" xmlns="http://www.w3.org/2000/svg">
<path d="M3.54372 1.80974C3.52636 1.72752 3.52543 1.64289 3.54099 1.56069C3.55654 1.47849 3.58827 1.40033 3.63437 1.3307C3.68046 1.26106 3.74001 1.20132 3.8096 1.15488C3.87919 1.10845 3.95746 1.07624 4.03992 1.0601L9.35814 0.012236C9.44056 -0.00411107 9.5256 -0.00407841 9.60837 0.0123328C9.69115 0.0287434 9.77005 0.0612098 9.84054 0.107873C9.91104 0.154536 9.97174 0.214478 10.0192 0.284266C10.0666 0.354054 10.0999 0.432318 10.117 0.514573L11.2301 5.81953C11.2649 5.98555 11.2322 6.1578 11.1392 6.29838C11.0461 6.43897 10.9003 6.53637 10.7339 6.56916C10.5675 6.60196 10.394 6.56745 10.2517 6.47325C10.1094 6.37904 10.0098 6.23285 9.975 6.06683L9.17344 2.24294L1.86716 13.2807C1.77719 13.4166 1.63625 13.5108 1.47534 13.5425C1.31444 13.5742 1.14674 13.5409 1.00915 13.4498C0.871558 13.3587 0.77534 13.2174 0.741663 13.0569C0.707987 12.8964 0.739609 12.7298 0.829575 12.5939L8.13593 1.55603L4.30261 2.31207C4.22019 2.32842 4.13516 2.32839 4.05238 2.31198C3.9696 2.29557 3.89071 2.2631 3.82021 2.21644C3.74972 2.16977 3.68901 2.10983 3.64156 2.04004C3.59412 1.97025 3.56087 1.89199 3.54372 1.80974Z" fill="#2782B4"/>
<path d="M15.3012 15.8194C15.3174 15.9019 15.3171 15.9865 15.3004 16.0685C15.2837 16.1505 15.2509 16.2282 15.2038 16.2971C15.1568 16.3661 15.0964 16.425 15.0261 16.4705C14.9559 16.5159 14.8772 16.5471 14.7945 16.562L9.46216 17.5354C9.37952 17.5506 9.2945 17.5494 9.21196 17.5318C9.12942 17.5142 9.05098 17.4807 8.98115 17.433C8.91131 17.3854 8.85145 17.3246 8.80499 17.2542C8.75852 17.1837 8.72637 17.105 8.71037 17.0225L7.67162 11.7025C7.63911 11.536 7.67422 11.3642 7.76924 11.225C7.86425 11.0857 8.01138 10.9903 8.17826 10.9599C8.34514 10.9294 8.5181 10.9663 8.65909 11.0625C8.80008 11.1587 8.89754 11.3063 8.93005 11.4728L9.67805 15.3075L17.138 4.373C17.2299 4.23836 17.3721 4.14618 17.5335 4.11673C17.6948 4.08728 17.862 4.12297 17.9983 4.21597C18.1346 4.30896 18.2288 4.45163 18.2603 4.61259C18.2917 4.77355 18.2577 4.93962 18.1659 5.07426L10.7058 16.0089L14.5494 15.3065C14.632 15.2913 14.717 15.2925 14.7996 15.3101C14.8821 15.3277 14.9606 15.3612 15.0304 15.4089C15.1002 15.4565 15.1601 15.5173 15.2065 15.5878C15.253 15.6582 15.2852 15.7369 15.3012 15.8194Z" fill="#2782B4"/>
</svg>
