<svg width="19" height="18" viewBox="0 0 19 18" fill="none" xmlns="http://www.w3.org/2000/svg">
<path d="M3.54359 2.26384C3.52624 2.18162 3.52531 2.09699 3.54086 2.01479C3.55642 1.93259 3.58815 1.85443 3.63425 1.7848C3.68034 1.71516 3.73989 1.65542 3.80948 1.60899C3.87907 1.56255 3.95734 1.53034 4.0398 1.5142L9.35802 0.466338C9.44044 0.44999 9.52547 0.450023 9.60825 0.466434C9.69103 0.482845 9.76993 0.515311 9.84042 0.561974C9.91091 0.608637 9.97162 0.668579 10.0191 0.738368C10.0665 0.808156 10.0998 0.886419 10.1169 0.968674L11.23 6.27363C11.2648 6.43965 11.2321 6.6119 11.139 6.75248C11.046 6.89307 10.9002 6.99047 10.7338 7.02326C10.5673 7.05606 10.3939 7.02156 10.2516 6.92735C10.1092 6.83314 10.0097 6.68695 9.97488 6.52093L9.17332 2.69704L1.86703 13.7348C1.77707 13.8707 1.63613 13.9649 1.47522 13.9966C1.31432 14.0283 1.14662 13.995 1.00903 13.9039C0.871436 13.8128 0.775218 13.6715 0.741541 13.511C0.707865 13.3505 0.739487 13.1839 0.829453 13.048L8.13581 2.01013L4.30249 2.76617C4.22007 2.78252 4.13504 2.78249 4.05226 2.76608C3.96948 2.74967 3.89058 2.7172 3.82009 2.67054C3.74959 2.62387 3.68889 2.56393 3.64144 2.49414C3.59399 2.42436 3.56074 2.34609 3.54359 2.26384Z" fill="#10A0CD"/>
<path d="M15.301 16.2735C15.3172 16.356 15.317 16.4406 15.3003 16.5226C15.2836 16.6046 15.2508 16.6823 15.2037 16.7512C15.1566 16.8202 15.0963 16.8791 15.026 16.9246C14.9558 16.97 14.8771 17.0012 14.7944 17.0161L9.46204 17.9895C9.3794 18.0047 9.29438 18.0035 9.21184 17.9859C9.1293 17.9683 9.05086 17.9348 8.98103 17.8871C8.91119 17.8395 8.85133 17.7787 8.80486 17.7083C8.7584 17.6378 8.72625 17.5591 8.71025 17.4766L7.67149 12.1566C7.63899 11.9901 7.6741 11.8183 7.76912 11.6791C7.86413 11.5398 8.01126 11.4444 8.17814 11.414C8.34502 11.3835 8.51798 11.4204 8.65897 11.5166C8.79995 11.6128 8.89742 11.7604 8.92993 11.9269L9.67792 15.7616L17.1379 4.82711C17.2298 4.69246 17.372 4.60028 17.5333 4.57083C17.6947 4.54138 17.8619 4.57708 17.9982 4.67007C18.1345 4.76306 18.2287 4.90573 18.2601 5.06669C18.2916 5.22765 18.2576 5.39372 18.1658 5.52836L10.7057 16.463L14.5493 15.7606C14.6319 15.7454 14.7169 15.7466 14.7995 15.7642C14.882 15.7818 14.9604 15.8153 15.0303 15.863C15.1001 15.9106 15.16 15.9714 15.2064 16.0419C15.2529 16.1123 15.285 16.191 15.301 16.2735Z" fill="#10A0CD"/>
</svg>
