<svg width="124" height="35" viewBox="0 0 124 35" fill="none" xmlns="http://www.w3.org/2000/svg">
<path d="M41.0613 32.614C39.5585 34.0762 37.609 34.7667 35.5376 34.7667C30.1359 34.7667 27.8208 31.0301 27.8208 27.2529C27.7802 23.4351 30.2577 19.5767 35.5376 19.5767C37.5278 19.5767 39.3961 20.3077 40.8988 21.8105L39.0712 23.5975C38.0964 22.6634 36.8373 22.2166 35.5376 22.2166C32.0041 22.2166 30.5014 24.8566 30.5014 27.2935C30.542 29.6898 31.9229 32.2485 35.5376 32.2485C36.7967 32.2485 38.2588 31.7205 39.193 30.7864L41.0613 32.614Z" fill="#CBCBCB"/>
<path d="M55.1965 19.8608V28.2275C55.1965 32.5327 52.5565 34.7259 48.9011 34.7259C45.4083 34.7259 42.4434 32.6139 42.4434 28.2275V19.8608H45.1646V28.2275C45.1646 30.8675 46.6673 32.2484 48.9417 32.2484C51.2162 32.2484 52.5159 30.7456 52.5159 28.2275V19.8608H55.1965Z" fill="#CBCBCB"/>
<path d="M70.7925 34.4416H67.5433L63.2788 29.5678H60.6388V34.4416H57.877V19.8608C60.192 19.8608 62.507 19.9014 64.8221 19.9014C68.2744 19.9421 70.0614 22.2165 70.0614 24.7346C70.0614 26.7248 69.1273 28.7555 66.3655 29.3241L70.7925 34.3197V34.4416ZM60.6388 22.4196V27.0903H64.8221C66.5685 27.0903 67.3403 25.9125 67.3403 24.7752C67.3403 23.638 66.5685 22.4602 64.8221 22.4602H60.6388V22.4196Z" fill="#CBCBCB"/>
<path d="M82.2853 31.6798H74.6497L73.3907 34.4416H70.4258L76.9648 19.8608H79.9703L86.5093 34.4416H83.5038L82.2853 31.6798ZM78.4676 22.907L75.7463 29.121H81.1481L78.4676 22.907Z" fill="#CBCBCB"/>
<path d="M89.1086 22.379H84.4785V19.8608C88.7025 19.8608 92.236 19.8608 96.4599 19.8608V22.379H91.8298V34.4416H89.068V22.379H89.1086Z" fill="#CBCBCB"/>
<path d="M109.009 34.4416H98.084C98.084 29.6084 98.084 24.7346 98.084 19.8608H109.009V22.5414H100.846V25.9124H108.725V28.4712H100.846V31.761H109.009V34.4416Z" fill="#CBCBCB"/>
<path d="M123.997 27.0091C124.078 30.705 121.804 34.4416 116.727 34.4416C114.94 34.4416 112.787 34.4416 111 34.4416V19.8608C112.787 19.8608 114.94 19.8608 116.727 19.8608C121.682 19.8608 123.916 23.4349 123.997 27.0091ZM113.681 31.8016H116.686C120.017 31.8016 121.316 29.4053 121.235 27.0091C121.154 24.7346 119.854 22.4602 116.686 22.4602H113.681V31.8016Z" fill="#CBCBCB"/>
<path fill-rule="evenodd" clip-rule="evenodd" d="M0.0406298 20.1459L0 16.7748C0 16.4093 0.20308 16.125 0.487384 16.125H2.84304C3.12735 16.125 3.33043 16.4093 3.33043 16.7342L3.37106 20.1053C3.37106 20.4708 3.16798 20.7551 2.88367 20.7551H0.528014C0.243709 20.7957 0.0406298 20.5114 0.0406298 20.1459Z" fill="#CBCBCB"/>
<path fill-rule="evenodd" clip-rule="evenodd" d="M0.0406298 26.6845L0 23.3134C0 22.9479 0.20308 22.6636 0.487384 22.6636H2.84304C3.12735 22.6636 3.33043 22.9479 3.33043 23.2728L3.37106 26.6439C3.37106 27.0094 3.16798 27.2937 2.88367 27.2937H0.528014C0.243709 27.2937 0.0406298 27.0094 0.0406298 26.6845Z" fill="#CBCBCB"/>
<path fill-rule="evenodd" clip-rule="evenodd" d="M4.38633 20.1459L4.3457 16.7748C4.3457 16.4093 4.54878 16.125 4.83309 16.125H7.18875C7.47305 16.125 7.67613 16.4093 7.67613 16.7342L7.71674 20.1053C7.71674 20.4708 7.51368 20.7551 7.22938 20.7551H4.87369C4.58939 20.7551 4.38633 20.4708 4.38633 20.1459Z" fill="#CBCBCB"/>
<path fill-rule="evenodd" clip-rule="evenodd" d="M8.56993 31.1117L8.5293 27.7406C8.5293 27.3751 8.73238 27.0908 9.01668 27.0908H11.3723C11.6566 27.0908 11.8597 27.3751 11.8597 27.7L11.9004 31.0711C11.9004 31.4366 11.6973 31.7209 11.413 31.7209H9.05731C8.81362 31.7209 8.61054 31.4366 8.56993 31.1117Z" fill="#CBCBCB"/>
<path fill-rule="evenodd" clip-rule="evenodd" d="M8.52889 25.5873L8.48828 22.2162C8.48828 21.8507 8.69136 21.5664 8.97567 21.5664H11.3313C11.6156 21.5664 11.8187 21.8507 11.8187 22.1756L11.8593 25.5467C11.8593 25.9122 11.6562 26.1965 11.3719 26.1965H9.01627C8.77258 26.2371 8.5695 25.9528 8.52889 25.5873Z" fill="#CBCBCB"/>
<path fill-rule="evenodd" clip-rule="evenodd" d="M8.52889 20.1053L8.48828 16.7343C8.48828 16.3688 8.69136 16.0845 8.97567 16.0845H11.3313C11.6156 16.0845 11.8187 16.3688 11.8187 16.6937L11.8593 20.0647C11.8593 20.4303 11.6562 20.7146 11.3719 20.7146H9.01627C8.73197 20.7146 8.52889 20.4303 8.52889 20.1053Z" fill="#CBCBCB"/>
<path fill-rule="evenodd" clip-rule="evenodd" d="M12.7125 31.0707L12.6719 27.6996C12.6719 27.3341 12.875 27.0498 13.1593 27.0498H15.5149C15.7992 27.0498 16.0023 27.3341 16.0023 27.659L16.0429 31.0301C16.0429 31.3956 15.8399 31.6799 15.5555 31.6799H13.1999C12.9562 31.7205 12.7125 31.4362 12.7125 31.0707Z" fill="#CBCBCB"/>
<path fill-rule="evenodd" clip-rule="evenodd" d="M12.6715 25.5873L12.6309 22.2162C12.6309 21.8507 12.8339 21.5664 13.1182 21.5664H15.4739C15.7582 21.5664 15.9613 21.8507 15.9613 22.1756L16.0019 25.5467C16.0019 25.9122 15.7988 26.1965 15.5145 26.1965H13.1588C12.9152 26.1965 12.7121 25.9122 12.6715 25.5873Z" fill="#CBCBCB"/>
<path fill-rule="evenodd" clip-rule="evenodd" d="M12.6305 20.0643L12.5898 16.6933C12.5898 16.3278 12.7929 16.0435 13.0772 16.0435H15.4329C15.7172 16.0435 15.9203 16.3278 15.9203 16.6527L15.9609 20.0237C15.9609 20.3892 15.7578 20.6736 15.4735 20.6736H13.1179C12.8742 20.7142 12.6711 20.4299 12.6305 20.0643Z" fill="#CBCBCB"/>
<path fill-rule="evenodd" clip-rule="evenodd" d="M4.06209 14.5004L4.02148 11.1293C4.02148 10.7638 4.22456 10.4795 4.50887 10.4795H6.86453C7.14883 10.4795 7.35191 10.7638 7.35191 11.0887L7.39252 14.4598C7.39252 14.8253 7.18944 15.1096 6.90513 15.1096H4.54947C4.26517 15.1096 4.06209 14.8253 4.06209 14.5004Z" fill="#CBCBCB"/>
<path fill-rule="evenodd" clip-rule="evenodd" d="M8.48787 14.4183L8.44727 11.0473C8.44727 10.6818 8.65032 10.3975 8.93462 10.3975H11.2903C11.5746 10.3975 11.7777 10.6818 11.7777 11.0067L11.8183 14.3777C11.8183 14.7433 11.6152 15.0275 11.3309 15.0275H8.97525C8.69095 15.0682 8.48787 14.7839 8.48787 14.4183Z" fill="#CBCBCB"/>
<path fill-rule="evenodd" clip-rule="evenodd" d="M12.6305 14.4183L12.5898 11.0473C12.5898 10.6818 12.7929 10.3975 13.0772 10.3975H15.4329C15.7172 10.3975 15.9203 10.6818 15.9203 11.0067L15.9609 14.3777C15.9609 14.7433 15.7578 15.0275 15.4735 15.0275H13.1179C12.8336 15.0275 12.6305 14.7432 12.6305 14.4183Z" fill="#CBCBCB"/>
<path fill-rule="evenodd" clip-rule="evenodd" d="M16.693 25.5473L16.6523 22.1762C16.6523 21.8107 16.8554 21.5264 17.1397 21.5264H19.4954C19.7797 21.5264 19.9828 21.8107 19.9828 22.1356L20.0234 25.5066C20.0234 25.8722 19.8203 26.1565 19.536 26.1565H17.1804C16.8961 26.1565 16.693 25.9128 16.693 25.5473Z" fill="#CBCBCB"/>
<path fill-rule="evenodd" clip-rule="evenodd" d="M16.6519 20.0643L16.6113 16.6933C16.6113 16.3278 16.8144 16.0435 17.0987 16.0435H19.4544C19.7387 16.0435 19.9418 16.3278 19.9418 16.6527L19.9824 20.0237C19.9824 20.3892 19.7793 20.6736 19.495 20.6736H17.1393C16.855 20.6736 16.6519 20.3893 16.6519 20.0643Z" fill="#CBCBCB"/>
<path fill-rule="evenodd" clip-rule="evenodd" d="M16.6109 14.3783L16.5703 11.0073C16.5703 10.6417 16.7734 10.3574 17.0577 10.3574H19.4134C19.6977 10.3574 19.9007 10.6417 19.9007 10.9666L19.9413 14.3377C19.9413 14.7032 19.7383 14.9875 19.454 14.9875H17.0983C16.814 15.0281 16.6109 14.7438 16.6109 14.3783Z" fill="#CBCBCB"/>
<path d="M18.6144 23.4505L13.877 28.9116L14.4292 29.3907L19.1667 23.9296L18.6144 23.4505Z" fill="#CBCBCB"/>
<path d="M18.1608 13.0818L13.4219 18.5415L13.974 19.0207L18.7129 13.561L18.1608 13.0818Z" fill="#CBCBCB"/>
<path d="M28.4707 0.406367C29.5673 0.243908 30.9888 0.12207 32.4916 0.12207C34.9691 0.12207 36.5937 0.568834 37.8934 1.54359C39.2743 2.55897 40.1272 4.18356 40.1272 6.49861C40.1272 9.01673 39.193 10.7632 37.934 11.8192C36.5531 12.9564 34.4411 13.525 31.8823 13.525C30.339 13.525 29.2424 13.4438 28.5113 13.3219V0.406367H28.4707ZM31.4762 11.1287C31.7199 11.1693 32.126 11.1693 32.4916 11.1693C35.1722 11.1693 36.9186 9.70719 36.9186 6.57984C36.9186 3.85864 35.3346 2.39651 32.7759 2.39651C32.126 2.39651 31.6793 2.43712 31.4356 2.51835V11.1287H31.4762Z" fill="#CBCBCB"/>
<path d="M44.7982 9.99085L43.8641 13.3619H40.7773L44.7982 0.202637H48.6973L52.7587 13.3619H49.5502L48.5348 9.99085H44.7982ZM48.1286 7.75701L47.3163 4.95459C47.0726 4.1829 46.829 3.20814 46.6665 2.43646H46.6259C46.4228 3.20814 46.2198 4.22352 46.0167 4.95459L45.245 7.75701H48.1286Z" fill="#CBCBCB"/>
<path d="M55.4397 2.72116H51.9062V0.243652H62.0194V2.72116H58.4452V13.3623H55.4803V2.72116H55.4397Z" fill="#CBCBCB"/>
<path d="M65.267 9.99085L64.3328 13.3619H61.2461L65.267 0.202637H69.166L73.2275 13.3619H70.0189L69.0035 9.99085H65.267ZM68.5974 7.75701L67.7851 4.95459C67.5414 4.1829 67.2977 3.20814 67.1353 2.43646H67.0947C66.8916 3.20814 66.6885 4.22352 66.4854 4.95459L65.7137 7.75701H68.5974Z" fill="#CBCBCB"/>
<path d="M74.9746 0.406367C75.7463 0.243908 77.3303 0.12207 78.833 0.12207C80.6607 0.12207 81.7573 0.284525 82.7321 0.853134C83.6662 1.34051 84.316 2.23405 84.316 3.41188C84.316 4.58971 83.6256 5.68631 82.1635 6.21431V6.25493C83.6662 6.66108 84.7628 7.79829 84.7628 9.50412C84.7628 10.682 84.2348 11.6161 83.3819 12.3065C82.4072 13.0782 80.8232 13.4844 78.2238 13.4844C76.7617 13.4844 75.6651 13.4031 75.0153 13.2813V0.406367H74.9746ZM77.9395 5.44263H78.9143C80.4577 5.44263 81.3106 4.79279 81.3106 3.81803C81.3106 2.84327 80.5389 2.31527 79.1986 2.31527C78.5487 2.31527 78.1832 2.35589 77.9395 2.39651V5.44263ZM77.9395 11.2506C78.2238 11.2912 78.5894 11.2912 79.0768 11.2912C80.417 11.2912 81.5949 10.8038 81.5949 9.38228C81.5949 8.04199 80.417 7.51398 78.9143 7.51398H77.8989V11.2506H77.9395Z" fill="#CBCBCB"/>
<path d="M89.7592 9.99085L88.8251 13.3619H85.7383L89.7592 0.202637H93.6582L97.7197 13.3619H94.5111L93.4958 9.99085H89.7592ZM93.0896 7.75701L92.2773 4.95459C92.0336 4.1829 91.7899 3.20814 91.6274 2.43646H91.5868C91.3838 3.20814 91.1807 4.22352 90.9776 4.95459L90.2059 7.75701H93.0896Z" fill="#CBCBCB"/>
<path d="M99.5463 10.3162C100.359 10.7224 101.577 11.1285 102.836 11.1285C104.217 11.1285 104.908 10.5599 104.908 9.70698C104.908 8.89468 104.298 8.4073 102.714 7.83869C100.521 7.067 99.0996 5.88917 99.0996 3.93965C99.0996 1.70583 100.968 0 104.055 0C105.517 0 106.613 0.324922 107.426 0.649841L106.776 3.04612C106.248 2.80243 105.314 2.4369 104.014 2.4369C102.714 2.4369 102.105 3.00551 102.105 3.69596C102.105 4.54887 102.836 4.91441 104.542 5.56425C106.857 6.41716 107.954 7.6356 107.954 9.46327C107.954 11.6565 106.248 13.5248 102.633 13.5248C101.13 13.5248 99.6682 13.1186 98.8965 12.7125L99.5463 10.3162Z" fill="#CBCBCB"/>
<path d="M117.823 7.79763H112.99V10.925H118.392V13.3619H110.025V0.202637H118.148V2.63953H113.031V5.36074H117.864V7.79763H117.823Z" fill="#CBCBCB"/>
</svg>
