<svg width="14" height="15" viewBox="0 0 14 15" fill="none" xmlns="http://www.w3.org/2000/svg">
<path d="M9.12973 7.44736L7.67839 8.8987L7.67839 1.22119C7.67839 1.03471 7.60431 0.855869 7.47245 0.724007C7.34058 0.592146 7.16174 0.518066 6.97526 0.518066C6.78878 0.518066 6.60994 0.592146 6.47808 0.724007C6.34622 0.855869 6.27214 1.03471 6.27214 1.22119L6.27214 8.8987L4.8208 7.44736C4.75557 7.38178 4.67805 7.32971 4.59266 7.29414C4.50728 7.25857 4.41572 7.24019 4.32322 7.24007C4.23073 7.23994 4.13911 7.25807 4.05363 7.29341C3.96815 7.32875 3.89049 7.3806 3.82508 7.44601C3.75968 7.51141 3.70782 7.58908 3.67248 7.67456C3.63714 7.76004 3.61902 7.85165 3.61914 7.94415C3.61927 8.03665 3.63764 8.12821 3.67321 8.21359C3.70878 8.29897 3.76085 8.3765 3.82643 8.44173L6.47807 11.0934C6.54336 11.1587 6.62087 11.2105 6.70618 11.2458C6.79149 11.2812 6.88292 11.2993 6.97526 11.2993C7.0676 11.2993 7.15904 11.2812 7.24435 11.2458C7.32966 11.2105 7.40717 11.1587 7.47246 11.0934L10.1241 8.44173C10.1897 8.3765 10.2417 8.29897 10.2773 8.21359C10.3129 8.12821 10.3313 8.03665 10.3314 7.94415C10.3315 7.85165 10.3134 7.76004 10.278 7.67456C10.2427 7.58908 10.1908 7.51141 10.1254 7.44601C10.06 7.3806 9.98237 7.32875 9.89689 7.29341C9.81141 7.25807 9.7198 7.23994 9.6273 7.24007C9.53481 7.24019 9.44324 7.25857 9.35786 7.29414C9.27248 7.32971 9.19495 7.38178 9.12973 7.44736Z" fill="#15C179"/>
<path d="M13.0693 6.61185C12.8829 6.61185 12.704 6.68593 12.5722 6.81779C12.4403 6.94965 12.3662 7.12849 12.3662 7.31497V12.7056H1.58496V7.31497C1.58496 7.12849 1.51088 6.94965 1.37902 6.81779C1.24716 6.68593 1.06832 6.61185 0.881836 6.61185C0.695356 6.61185 0.516513 6.68593 0.384652 6.81779C0.25279 6.94965 0.178711 7.12849 0.178711 7.31497V12.94C0.178711 13.2508 0.302176 13.5488 0.521945 13.7686C0.741714 13.9884 1.03979 14.1118 1.35059 14.1118H12.6006C12.9114 14.1118 13.2095 13.9884 13.4292 13.7686C13.649 13.5488 13.7725 13.2508 13.7725 12.94V7.31497C13.7725 7.12849 13.6984 6.94965 13.5665 6.81779C13.4347 6.68593 13.2558 6.61185 13.0693 6.61185Z" fill="#15C179"/>
</svg>
