<svg width="10" height="6" viewBox="0 0 10 6" fill="none" xmlns="http://www.w3.org/2000/svg">
<path d="M1.35355 0.646447C1.15829 0.451184 0.841709 0.451184 0.646447 0.646447C0.451184 0.841709 0.451184 1.15829 0.646447 1.35355L1.35355 0.646447ZM9.35355 1.35355C9.54882 1.15829 9.54882 0.841709 9.35355 0.646447C9.15829 0.451184 8.84171 0.451184 8.64645 0.646447L9.35355 1.35355ZM0.646447 1.35355L4.43431 5.14142L5.14142 4.43431L1.35355 0.646447L0.646447 1.35355ZM5.56569 5.14142L9.35355 1.35355L8.64645 0.646447L4.85858 4.43431L5.56569 5.14142ZM4.43431 5.14142C4.74673 5.45384 5.25327 5.45384 5.56569 5.14142L4.85858 4.43431C4.93668 4.35621 5.06332 4.35621 5.14142 4.43431L4.43431 5.14142Z" fill="white"/>
</svg>
