<svg width="131" height="36" viewBox="0 0 131 36" fill="none" xmlns="http://www.w3.org/2000/svg">
<path d="M43.381 33.4253C41.7935 34.97 39.7339 35.6994 37.5456 35.6994C31.8388 35.6994 29.3931 31.7519 29.3931 27.7614C29.3502 23.7281 31.9676 19.6519 37.5456 19.6519C39.6481 19.6519 41.6218 20.4242 43.2094 22.0118L41.2786 23.8997C40.2488 22.9128 38.9186 22.4409 37.5456 22.4409C33.8126 22.4409 32.225 25.2299 32.225 27.8043C32.2679 30.3359 33.7268 33.0391 37.5456 33.0391C38.8757 33.0391 40.4204 32.4813 41.4073 31.4944L43.381 33.4253Z" fill="#045F87"/>
<path d="M58.3129 19.9946V28.8336C58.3129 33.3819 55.5239 35.6989 51.6622 35.6989C47.9721 35.6989 44.8398 33.4677 44.8398 28.8336V19.9946H47.7146V28.8336C47.7146 31.6226 49.3023 33.0815 51.7051 33.0815C54.1079 33.0815 55.481 31.4939 55.481 28.8336V19.9946H58.3129Z" fill="#045F87"/>
<path d="M74.7893 35.3561H71.3566L66.8513 30.2071H64.0623V35.3561H61.1445V19.9521C63.5903 19.9521 66.036 19.9951 68.4818 19.9951C72.1289 20.038 74.0169 22.4408 74.0169 25.1011C74.0169 27.2036 73.03 29.349 70.1123 29.9497L74.7893 35.2273V35.3561ZM64.0623 22.6982V27.6327H68.4818C70.3268 27.6327 71.1421 26.3883 71.1421 25.1869C71.1421 23.9855 70.3268 22.7412 68.4818 22.7412H64.0623V22.6982Z" fill="#045F87"/>
<path d="M86.9334 32.4808H78.8667L77.5365 35.3985H74.4043L81.3125 19.9946H84.4876L91.3958 35.3985H88.2206L86.9334 32.4808ZM82.9 23.2127L80.0252 29.7776H85.732L82.9 23.2127Z" fill="#045F87"/>
<path d="M94.1396 22.6124H89.248V19.9521C93.7105 19.9521 97.4434 19.9521 101.906 19.9521V22.6124H97.0144V35.3561H94.0967V22.6124H94.1396Z" fill="#045F87"/>
<path d="M115.208 35.3561H103.666C103.666 30.25 103.666 25.1011 103.666 19.9521H115.208V22.7841H106.584V26.3454H114.908V29.0486H106.584V32.5241H115.208V35.3561Z" fill="#045F87"/>
<path d="M130.998 27.5464C131.084 31.451 128.681 35.3985 123.318 35.3985C121.43 35.3985 119.156 35.3985 117.268 35.3985V19.9946C119.156 19.9946 121.43 19.9946 123.318 19.9946C128.552 19.9946 130.912 23.7276 130.998 27.5464ZM120.099 32.5666H123.275C126.793 32.5666 128.166 30.0351 128.08 27.5035C127.995 25.1007 126.621 22.6978 123.275 22.6978H120.099V32.5666Z" fill="#045F87"/>
<path fill-rule="evenodd" clip-rule="evenodd" d="M0.0428974 20.2947L0 16.7334C0 16.3472 0.214518 16.0469 0.514873 16.0469H3.00355C3.3039 16.0469 3.51842 16.3472 3.51842 16.6905L3.56137 20.2518C3.56137 20.638 3.3468 20.9384 3.04645 20.9384H0.557823C0.257468 20.9384 0.0428974 20.6809 0.0428974 20.2947Z" fill="#F9AA62"/>
<path fill-rule="evenodd" clip-rule="evenodd" d="M0.0428974 27.1605L0 23.5991C0 23.213 0.214518 22.9126 0.514873 22.9126H3.00355C3.3039 22.9126 3.51842 23.213 3.51842 23.5562L3.56137 27.1176C3.56137 27.5037 3.3468 27.8041 3.04645 27.8041H0.557823C0.257468 27.847 0.0428974 27.5466 0.0428974 27.1605Z" fill="#F9AA62"/>
<path fill-rule="evenodd" clip-rule="evenodd" d="M4.63475 20.2523L4.5918 16.6909C4.5918 16.3048 4.80637 16.0044 5.10672 16.0044H7.59535C7.8957 16.0044 8.11027 16.3047 8.11027 16.648L8.15317 20.2094C8.15317 20.5955 7.93865 20.8959 7.6383 20.8959H5.14962C4.84926 20.9388 4.63475 20.6384 4.63475 20.2523Z" fill="#045F87"/>
<path fill-rule="evenodd" clip-rule="evenodd" d="M9.09758 31.8372L9.05469 28.2759C9.05469 27.8897 9.26926 27.5894 9.56961 27.5894H12.0582C12.3586 27.5894 12.5732 27.8897 12.5732 28.233L12.6161 31.7943C12.6161 32.1805 12.4015 32.4808 12.1011 32.4808H9.61251C9.31216 32.5238 9.09758 32.2234 9.09758 31.8372Z" fill="#F9AA62"/>
<path fill-rule="evenodd" clip-rule="evenodd" d="M9.05266 26.0438L9.00977 22.4824C9.00977 22.0963 9.22428 21.7959 9.52464 21.7959H12.0133C12.3137 21.7959 12.5282 22.0963 12.5282 22.4395L12.5711 26.0009C12.5711 26.387 12.3566 26.6874 12.0562 26.6874H9.56759C9.26723 26.6874 9.05266 26.4299 9.05266 26.0438Z" fill="#045F87"/>
<path fill-rule="evenodd" clip-rule="evenodd" d="M9.01165 20.2088L8.96875 16.6475C8.96875 16.2613 9.18327 15.9609 9.48362 15.9609H11.9723C12.2727 15.9609 12.4872 16.2613 12.4872 16.6046L12.5301 20.1659C12.5301 20.5521 12.3156 20.8524 12.0152 20.8524H9.52652C9.22617 20.8954 9.01165 20.595 9.01165 20.2088Z" fill="#F9AA62"/>
<path fill-rule="evenodd" clip-rule="evenodd" d="M13.4297 31.8372L13.3867 28.2759C13.3867 27.8897 13.6013 27.5894 13.9016 27.5894H16.3903C16.6906 27.5894 16.9052 27.8897 16.9052 28.233L16.9481 31.7943C16.9481 32.1805 16.7336 32.4808 16.4332 32.4808H13.9445C13.6871 32.4808 13.4726 32.1805 13.4297 31.8372Z" fill="#045F87"/>
<path fill-rule="evenodd" clip-rule="evenodd" d="M13.4297 26.0018L13.3867 22.4404C13.3867 22.0543 13.6013 21.7539 13.9016 21.7539H16.3903C16.6906 21.7539 16.9052 22.0543 16.9052 22.3975L16.9481 25.9589C16.9481 26.3451 16.7336 26.6454 16.4332 26.6454H13.9445C13.6442 26.6883 13.4297 26.388 13.4297 26.0018Z" fill="#F9AA62"/>
<path fill-rule="evenodd" clip-rule="evenodd" d="M13.3866 20.2088L13.3438 16.6475C13.3438 16.2613 13.5583 15.9609 13.8587 15.9609H16.3473C16.6477 15.9609 16.8622 16.2613 16.8622 16.6046L16.9051 20.1659C16.9051 20.5521 16.6906 20.8524 16.3902 20.8524H13.9016C13.6012 20.8524 13.3866 20.5521 13.3866 20.2088Z" fill="#045F87"/>
<path fill-rule="evenodd" clip-rule="evenodd" d="M4.29094 14.2874L4.24805 10.7261C4.24805 10.3399 4.46257 10.0396 4.76292 10.0396H7.2516C7.55195 10.0396 7.76647 10.3399 7.76647 10.6832L7.80937 14.2445C7.80937 14.6307 7.59485 14.931 7.29449 14.931H4.80582C4.50546 14.974 4.29094 14.6736 4.29094 14.2874Z" fill="#F9AA62"/>
<path fill-rule="evenodd" clip-rule="evenodd" d="M8.96868 14.2445L8.92578 10.6831C8.92578 10.2969 9.1403 9.99658 9.44065 9.99658H11.9293C12.2297 9.99658 12.4442 10.2969 12.4442 10.6402L12.4871 14.2016C12.4871 14.5877 12.2726 14.8881 11.9722 14.8881H9.48355C9.1832 14.931 8.96868 14.6306 8.96868 14.2445Z" fill="#F9AA62"/>
<path fill-rule="evenodd" clip-rule="evenodd" d="M13.3456 14.202L13.3027 10.6406C13.3027 10.2545 13.5173 9.9541 13.8176 9.9541H16.3063C16.6066 9.9541 16.8212 10.2545 16.8212 10.5977L16.8641 14.1591C16.8641 14.5453 16.6495 14.8456 16.3492 14.8456H13.8606C13.5602 14.8885 13.3456 14.5882 13.3456 14.202Z" fill="#F9AA62"/>
<path fill-rule="evenodd" clip-rule="evenodd" d="M17.6347 26.0018L17.5918 22.4404C17.5918 22.0543 17.8063 21.7539 18.1067 21.7539H20.5953C20.8957 21.7539 21.1102 22.0543 21.1102 22.3975L21.1532 25.9589C21.1532 26.3451 20.9386 26.6454 20.6382 26.6454H18.1496C17.8493 26.6454 17.6347 26.3451 17.6347 26.0018Z" fill="#045F87"/>
<path fill-rule="evenodd" clip-rule="evenodd" d="M17.5917 20.1658L17.5488 16.6045C17.5488 16.2183 17.7633 15.918 18.0637 15.918H20.5524C20.8527 15.918 21.0673 16.2183 21.0673 16.5616L21.1101 20.1229C21.1101 20.5091 20.8956 20.8095 20.5953 20.8095H18.1066C17.8062 20.8524 17.5917 20.552 17.5917 20.1658Z" fill="#F9AA62"/>
<path fill-rule="evenodd" clip-rule="evenodd" d="M17.5488 14.202L17.5059 10.6406C17.5059 10.2545 17.7204 9.9541 18.0207 9.9541H20.5094C20.8098 9.9541 21.0243 10.2545 21.0243 10.5977L21.0672 14.1591C21.0672 14.5452 20.8527 14.8456 20.5523 14.8456H18.0636C17.7633 14.8456 17.5488 14.5453 17.5488 14.202Z" fill="#045F87"/>
<path d="M19.6748 23.774L14.6699 29.5435L15.2533 30.0496L20.2582 24.2802L19.6748 23.774Z" fill="#045F87"/>
<path d="M19.1783 12.8024L14.1719 18.5703L14.7552 19.0766L19.7616 13.3087L19.1783 12.8024Z" fill="#045F87"/>
<path d="M37.3742 7.85213H32.7831V10.8128H37.8891V13.1298H29.9512V0.686523H37.6316V3.00355H32.7831V5.57802H37.3742V7.85213Z" fill="#F9AA62"/>
<path d="M48.8306 0V10.4266C48.8306 11.4564 48.8735 12.5291 48.9164 13.1298H46.4278L46.2991 11.7997H46.2562C45.6984 12.8294 44.5827 13.3443 43.4242 13.3443C41.2788 13.3443 39.5625 11.4993 39.5625 8.71029C39.5625 5.66383 41.4505 3.90462 43.5958 3.90462C44.7115 3.90462 45.5696 4.29079 45.9558 4.9344H45.9987V0.0429105H48.8306V0ZM46.0416 7.89504C46.0416 7.76632 46.0416 7.55177 45.9987 7.38014C45.827 6.6078 45.2264 6.0071 44.3682 6.0071C43.081 6.0071 42.4374 7.16561 42.4374 8.58157C42.4374 10.1263 43.2097 11.0702 44.3682 11.0702C45.1835 11.0702 45.827 10.5124 45.9987 9.74008C46.0416 9.52554 46.0845 9.3539 46.0845 9.09646V7.89504H46.0416Z" fill="#F9AA62"/>
<path d="M60.0719 10.2115C60.0719 11.4129 60.1148 12.3569 60.1577 13.1292H57.7119L57.5832 11.842H57.5403C57.197 12.3998 56.3389 13.3009 54.7084 13.3009C52.8634 13.3009 51.5332 12.1424 51.5332 9.35334V4.07568H54.3651V8.92427C54.3651 10.2544 54.7942 11.0267 55.7811 11.0267C56.5534 11.0267 56.9825 10.5119 57.1971 10.0399C57.2829 9.86824 57.2829 9.6537 57.2829 9.43917V4.07568H60.1148V10.2115H60.0719Z" fill="#F9AA62"/>
<path d="M69.5542 12.8724C69.0393 13.0869 68.0953 13.2586 67.0655 13.2586C64.1478 13.2586 62.3027 11.4994 62.3027 8.62453C62.3027 6.00715 64.1049 3.81885 67.4517 3.81885C68.1811 3.81885 68.9964 3.94757 69.5971 4.16211L69.168 6.2646C68.8247 6.13588 68.3528 6.00715 67.5804 6.00715C66.1216 6.00715 65.1347 7.07984 65.1776 8.53871C65.1776 10.2121 66.2932 11.0703 67.6662 11.0703C68.3098 11.0703 68.8677 10.9415 69.2538 10.8128L69.5542 12.8724Z" fill="#F9AA62"/>
<path d="M76.7634 13.1296L76.5918 12.2285H76.5489C75.9482 12.958 75.0471 13.3442 73.9744 13.3442C72.1294 13.3442 71.0566 12.014 71.0566 10.598C71.0566 8.23811 73.1591 7.12251 76.3343 7.16541V7.03669C76.3343 6.56471 76.0769 5.87818 74.7038 5.87818C73.8027 5.87818 72.8159 6.17853 72.2152 6.56471L71.7003 4.76258C72.3439 4.41932 73.5453 3.99023 75.2187 3.99023C78.2223 3.99023 79.1662 5.74946 79.1662 7.89485V11.0271C79.1662 11.8853 79.2092 12.7434 79.295 13.2154H76.7634V13.1296ZM76.4201 8.83883C74.9613 8.83883 73.8028 9.18209 73.8028 10.2548C73.8028 10.9842 74.2747 11.3275 74.9183 11.3275C75.6049 11.3275 76.2056 10.8555 76.3772 10.2977C76.4201 10.169 76.4201 9.99734 76.4201 9.82571V8.83883Z" fill="#F9AA62"/>
<path d="M84.8302 1.50146V4.07594H86.8469V6.13551H84.8302V9.39651C84.8302 10.4692 85.0877 10.9841 85.9459 10.9841C86.2892 10.9841 86.5895 10.9412 86.7611 10.8983V13.0008C86.3749 13.1295 85.7313 13.2582 84.9161 13.2582C84.015 13.2582 83.2427 12.9579 82.8136 12.4859C82.2987 11.971 82.0412 11.0699 82.0412 9.82559V6.13551H80.8398V4.07594H82.0412V2.10217L84.8302 1.50146Z" fill="#F9AA62"/>
<path d="M91.8239 1.58832C91.8239 2.36066 91.2232 3.00428 90.3222 3.00428C89.4211 3.00428 88.8633 2.36066 88.8633 1.58832C88.8633 0.773068 89.4211 0.172363 90.3222 0.172363C91.2232 0.172363 91.781 0.773068 91.8239 1.58832ZM88.9062 13.1305V4.11989H91.6952V13.1305H88.9062Z" fill="#F9AA62"/>
<path d="M103.366 8.49494C103.366 11.7988 101.006 13.3006 98.6027 13.3006C95.9854 13.3006 93.9258 11.5843 93.9258 8.66657C93.9258 5.74884 95.8566 3.90381 98.7314 3.90381C101.52 3.90381 103.366 5.79175 103.366 8.49494ZM96.8006 8.58076C96.8006 10.1254 97.4442 11.284 98.6456 11.284C99.7183 11.284 100.448 10.2113 100.448 8.58076C100.448 7.25062 99.9329 5.87756 98.6456 5.87756C97.3155 5.87756 96.8006 7.25062 96.8006 8.58076Z" fill="#F9AA62"/>
<path d="M105.555 6.95069C105.555 5.83508 105.512 4.84821 105.469 4.07587H107.914L108.043 5.32019H108.086C108.472 4.76239 109.373 3.86133 110.875 3.86133C112.72 3.86133 114.093 5.06275 114.093 7.72303V13.0865H111.304V8.1092C111.304 6.95069 110.918 6.13544 109.888 6.13544C109.116 6.13544 108.644 6.65033 108.472 7.20814C108.386 7.37977 108.344 7.63722 108.344 7.89466V13.0865H105.555V6.95069Z" fill="#F9AA62"/>
</svg>
