<svg width="129" height="36" viewBox="0 0 129 36" fill="none" xmlns="http://www.w3.org/2000/svg">
<path d="M43.3347 33.6447C41.7825 35.1549 39.7689 35.8681 37.6294 35.8681C32.0499 35.8681 29.6587 32.0086 29.6587 28.1072C29.6168 24.1638 32.1758 20.1785 37.6294 20.1785C39.685 20.1785 41.6147 20.9336 43.1669 22.4858L41.2791 24.3316C40.2723 23.3667 38.9718 22.9053 37.6294 22.9053C33.9797 22.9053 32.4275 25.6321 32.4275 28.1491C32.4694 30.6243 33.8958 33.2672 37.6294 33.2672C38.9299 33.2672 40.4401 32.7218 41.405 31.7569L43.3347 33.6447Z" fill="#045F87"/>
<path d="M57.9343 20.4717V29.1136C57.9343 33.5604 55.2075 35.8257 51.4319 35.8257C47.8241 35.8257 44.7617 33.6443 44.7617 29.1136V20.4717H47.5724V29.1136C47.5724 31.8404 49.1246 33.2667 51.4739 33.2667C53.8231 33.2667 55.1656 31.7145 55.1656 29.1136V20.4717H57.9343Z" fill="#045F87"/>
<path d="M74.0435 35.5321H70.6875L66.2826 30.4979H63.5558V35.5321H60.7031V20.4717C63.0943 20.4717 65.4855 20.5136 67.8767 20.5136C71.4426 20.5556 73.2884 22.9048 73.2884 25.5058C73.2884 27.5614 72.3235 29.6589 69.4709 30.2462L74.0435 35.4062V35.5321ZM63.5558 23.1146V27.9389H67.8767C69.6806 27.9389 70.4777 26.7224 70.4777 25.5477C70.4777 24.3731 69.6806 23.1565 67.8767 23.1565H63.5558V23.1146Z" fill="#045F87"/>
<path d="M85.9157 32.6794H78.0289L76.7284 35.5321H73.666L80.4201 20.4717H83.5245L90.2786 35.5321H87.1742L85.9157 32.6794ZM81.9723 23.618L79.1616 30.0365H84.7411L81.9723 23.618Z" fill="#045F87"/>
<path d="M93.0051 23.0304H88.2227V20.4294C92.5856 20.4294 96.2353 20.4294 100.598 20.4294V23.0304H95.8158V35.4898H92.9631V23.0304H93.0051Z" fill="#045F87"/>
<path d="M113.56 35.5321H102.275C102.275 30.5399 102.275 25.5058 102.275 20.4717H113.56V23.2404H105.086V26.7224H113.225V29.3653H105.086V32.7633H113.56V35.5321Z" fill="#045F87"/>
<path d="M128.999 27.855C129.082 31.6726 126.733 35.5321 121.489 35.5321C119.643 35.5321 117.42 35.5321 115.574 35.5321V20.4717C117.42 20.4717 119.643 20.4717 121.489 20.4717C126.607 20.4717 128.915 24.1634 128.999 27.855ZM118.385 32.8052H121.489C124.929 32.8052 126.272 30.3301 126.188 27.855C126.104 25.5058 124.761 23.1565 121.489 23.1565H118.385V32.8052Z" fill="#045F87"/>
<path fill-rule="evenodd" clip-rule="evenodd" d="M0.963816 20.7662L0.921875 17.2842C0.921875 16.9067 1.13161 16.613 1.42527 16.613H3.85844C4.1521 16.613 4.36183 16.9067 4.36183 17.2423L4.40382 20.7242C4.40382 21.1018 4.19404 21.3954 3.90038 21.3954H1.46726C1.21555 21.4374 0.963816 21.1437 0.963816 20.7662Z" fill="#00CFFF"/>
<path fill-rule="evenodd" clip-rule="evenodd" d="M0.963816 27.4783L0.921875 23.9964C0.921875 23.6188 1.13161 23.3252 1.42527 23.3252H3.85844C4.1521 23.3252 4.36183 23.6189 4.36183 23.9545L4.40382 27.4364C4.40382 27.8139 4.19404 28.1076 3.90038 28.1076H1.46726C1.21555 28.1495 0.963816 27.8559 0.963816 27.4783Z" fill="#00CFFF"/>
<path fill-rule="evenodd" clip-rule="evenodd" d="M5.45215 20.7662L5.41016 17.2842C5.41016 16.9067 5.61994 16.613 5.9136 16.613H8.34672C8.64038 16.613 8.85016 16.9067 8.85016 17.2423L8.89211 20.7242C8.89211 21.1018 8.68237 21.3954 8.38871 21.3954H5.95554C5.66188 21.3954 5.45215 21.1018 5.45215 20.7662Z" fill="#045F87"/>
<path fill-rule="evenodd" clip-rule="evenodd" d="M9.81538 32.0928L9.77344 28.6109C9.77344 28.2333 9.98322 27.9397 10.2769 27.9397H12.71C13.0037 27.9397 13.2134 28.2334 13.2134 28.569L13.2554 32.0509C13.2554 32.4284 13.0456 32.7221 12.7519 32.7221H10.3188C10.0252 32.7221 9.81538 32.4284 9.81538 32.0928Z" fill="#00CFFF"/>
<path fill-rule="evenodd" clip-rule="evenodd" d="M9.77436 26.3875L9.73242 22.9056C9.73242 22.528 9.94216 22.2344 10.2358 22.2344H12.669C12.9626 22.2344 13.1724 22.528 13.1724 22.8636L13.2144 26.3456C13.2144 26.7231 13.0046 27.0168 12.7109 27.0168H10.2778C9.98415 27.0587 9.77436 26.7651 9.77436 26.3875Z" fill="#045F87"/>
<path fill-rule="evenodd" clip-rule="evenodd" d="M9.73139 20.7242L9.68945 17.2423C9.68945 16.8647 9.89919 16.571 10.1928 16.571H12.626C12.9197 16.571 13.1294 16.8647 13.1294 17.2003L13.1714 20.6823C13.1714 21.0598 12.9616 21.3535 12.668 21.3535H10.2348C9.94113 21.3535 9.73139 21.0598 9.73139 20.7242Z" fill="#00CFFF"/>
<path fill-rule="evenodd" clip-rule="evenodd" d="M14.0947 32.0509L14.0527 28.5689C14.0527 28.1914 14.2625 27.8977 14.5561 27.8977H16.9893C17.283 27.8977 17.4927 28.1914 17.4927 28.527L17.5346 32.0089C17.5346 32.3865 17.3249 32.6801 17.0312 32.6801H14.5981C14.3044 32.7221 14.0947 32.4284 14.0947 32.0509Z" fill="#045F87"/>
<path fill-rule="evenodd" clip-rule="evenodd" d="M14.0518 26.3875L14.0098 22.9056C14.0098 22.528 14.2196 22.2344 14.5132 22.2344H16.9463C17.24 22.2344 17.4498 22.528 17.4498 22.8636L17.4917 26.3456C17.4917 26.7231 17.282 27.0168 16.9883 27.0168H14.5551C14.2615 27.0168 14.0518 26.7231 14.0518 26.3875Z" fill="#00CFFF"/>
<path fill-rule="evenodd" clip-rule="evenodd" d="M14.0107 20.6827L13.9688 17.2007C13.9688 16.8232 14.1785 16.5295 14.4722 16.5295H16.9053C17.199 16.5295 17.4088 16.8232 17.4088 17.1588L17.4507 20.6407C17.4507 21.0183 17.2409 21.312 16.9473 21.312H14.5141C14.2205 21.3539 14.0107 21.0603 14.0107 20.6827Z" fill="#045F87"/>
<path fill-rule="evenodd" clip-rule="evenodd" d="M5.11811 14.9349L5.07617 11.453C5.07617 11.0754 5.28591 10.7817 5.57956 10.7817H8.01274C8.3064 10.7817 8.51613 11.0754 8.51613 11.411L8.55807 14.8929C8.55807 15.2705 8.34834 15.5642 8.05468 15.5642H5.6215C5.3698 15.5642 5.11811 15.2705 5.11811 14.9349Z" fill="#00CFFF"/>
<path fill-rule="evenodd" clip-rule="evenodd" d="M9.68843 14.8507L9.64648 11.3687C9.64648 10.9912 9.85622 10.6975 10.1499 10.6975H12.5831C12.8767 10.6975 13.0864 10.9912 13.0864 11.3268L13.1284 14.8087C13.1284 15.1863 12.9186 15.4799 12.625 15.4799H10.1918C9.89816 15.5219 9.68843 15.2282 9.68843 14.8507Z" fill="#00CFFF"/>
<path fill-rule="evenodd" clip-rule="evenodd" d="M13.9677 14.8507L13.9258 11.3687C13.9258 10.9912 14.1355 10.6975 14.4292 10.6975H16.8623C17.156 10.6975 17.3657 10.9912 17.3657 11.3268L17.4077 14.8087C17.4077 15.1863 17.1979 15.4799 16.9043 15.4799H14.4712C14.1775 15.4799 13.9677 15.1863 13.9677 14.8507Z" fill="#00CFFF"/>
<path fill-rule="evenodd" clip-rule="evenodd" d="M18.163 26.3455L18.1211 22.8636C18.1211 22.486 18.3308 22.1924 18.6245 22.1924H21.0577C21.3513 22.1924 21.5611 22.486 21.5611 22.8216L21.603 26.3036C21.603 26.6811 21.3933 26.9748 21.0996 26.9748H18.6665C18.3728 26.9748 18.163 26.6811 18.163 26.3455Z" fill="#045F87"/>
<path fill-rule="evenodd" clip-rule="evenodd" d="M18.122 20.6402L18.0801 17.1583C18.0801 16.7807 18.2898 16.4871 18.5835 16.4871H21.0166C21.3103 16.4871 21.52 16.7807 21.52 17.1163L21.562 20.5982C21.562 20.9758 21.3522 21.2695 21.0586 21.2695H18.6254C18.3318 21.3114 18.122 21.0177 18.122 20.6402Z" fill="#00CFFF"/>
<path fill-rule="evenodd" clip-rule="evenodd" d="M18.0791 14.8092L18.0371 11.3272C18.0371 10.9497 18.2468 10.656 18.5405 10.656H20.9737C21.2673 10.656 21.4771 10.9497 21.4771 11.2853L21.519 14.7672C21.519 15.1448 21.3093 15.4384 21.0156 15.4384H18.5824C18.2888 15.4384 18.0791 15.1867 18.0791 14.8092Z" fill="#045F87"/>
<path d="M20.1589 24.1766L15.2656 29.8174L15.836 30.3122L20.7293 24.6715L20.1589 24.1766Z" fill="#045F87"/>
<path d="M19.6897 13.4874L14.7949 19.1267L15.3652 19.6217L20.26 13.9824L19.6897 13.4874Z" fill="#045F87"/>
<path d="M38.4257 8.01256H33.4335V11.2428H39.013V13.7598H30.3711V0.167725H38.7613V2.68478H33.4335V5.4955H38.4257V8.01256Z" fill="#00CFFF"/>
<path d="M41.6133 13.7598V0.167725H45.1791L47.9898 5.1599C48.7869 6.58623 49.584 8.26426 50.2132 9.81644H50.2552C50.0454 8.01255 50.0035 6.20866 50.0035 4.15306V0.167725H52.8142V13.7598H49.584L46.6893 8.51597C45.8923 7.04769 45.0113 5.32769 44.3401 3.73356H44.2982C44.3821 5.53745 44.424 7.42523 44.424 9.64863V13.7179H41.6133V13.7598Z" fill="#00CFFF"/>
<path d="M64.0995 8.01256H59.1073V11.2428H64.6868V13.7598H56.0449V0.167725H64.4351V2.68478H59.1493V5.4955H64.1414V8.01256H64.0995Z" fill="#00CFFF"/>
<path d="M67.2461 0.377646C68.2529 0.209842 69.7212 0.0839844 71.3154 0.0839844C73.329 0.0839844 74.7553 0.377641 75.7202 1.13276C76.5173 1.76202 76.9787 2.72689 76.9787 3.98542C76.9787 5.70541 75.7621 6.92198 74.5875 7.34149V7.38346C75.5524 7.76102 76.0558 8.68394 76.3914 9.90052C76.8109 11.4108 77.2304 13.2146 77.4821 13.718H74.3358C74.1261 13.3405 73.7904 12.2078 73.3709 10.5717C72.9934 8.89368 72.4061 8.43222 71.1895 8.39027H70.2666V13.718H67.2461V0.377646ZM70.3085 6.20884H71.5251C73.0354 6.20884 73.9582 5.45372 73.9582 4.23714C73.9582 2.97861 73.1192 2.34935 71.6929 2.34935C70.9378 2.34935 70.5183 2.3913 70.3085 2.43325V6.20884Z" fill="#00CFFF"/>
<path d="M90.9472 13.1307C89.9823 13.4663 88.2204 13.8858 86.4165 13.8858C83.9414 13.8858 82.1375 13.2565 80.879 12.0399C79.6204 10.8653 78.9492 9.10337 78.9492 7.08972C78.9492 2.55902 82.2633 0 86.7101 0C88.4721 0 89.8145 0.335623 90.4857 0.671231L89.8565 3.14632C89.1013 2.81071 88.1784 2.55902 86.7101 2.55902C84.1511 2.55902 82.2214 4.02731 82.2214 6.96387C82.2214 9.77459 83.9833 11.4107 86.5004 11.4107C87.2136 11.4107 87.7589 11.3268 88.0106 11.2009V8.34825H85.9131V5.95704H90.9472V13.1307Z" fill="#00CFFF"/>
<path d="M96.9899 13.7599V8.22236L92.7109 0.209717H96.2348L97.6192 3.48191C98.0387 4.48873 98.3323 5.20188 98.668 6.08285H98.7099C99.0035 5.24383 99.3392 4.44678 99.7167 3.48191L101.101 0.209717H104.541L100.052 8.13846V13.8018H96.9899V13.7599Z" fill="#00CFFF"/>
</svg>
