<svg width="16" height="14" viewBox="0 0 16 14" fill="none" xmlns="http://www.w3.org/2000/svg">
<path fill-rule="evenodd" clip-rule="evenodd" d="M10.5 0.75C9.24715 0.75 8.1962 1.59066 7.85593 2.75H0.75V4.25H7.85593C8.1962 5.40934 9.24715 6.25 10.5 6.25C11.7529 6.25 12.8038 5.40934 13.1441 4.25H15.25V2.75H13.1441C12.8038 1.59066 11.7529 0.75 10.5 0.75ZM9.25 3.5C9.25 2.78807 9.78807 2.25 10.5 2.25C11.2119 2.25 11.75 2.78807 11.75 3.5C11.75 4.21193 11.2119 4.75 10.5 4.75C9.78807 4.75 9.25 4.21193 9.25 3.5Z" fill="white"/>
<path fill-rule="evenodd" clip-rule="evenodd" d="M5.5 7.75C4.24715 7.75 3.1962 8.59066 2.85593 9.75H0.75V11.25H2.85593C3.1962 12.4093 4.24715 13.25 5.5 13.25C6.75285 13.25 7.8038 12.4093 8.14407 11.25H15.25V9.75H8.14407C7.8038 8.59066 6.75285 7.75 5.5 7.75ZM4.25 10.5C4.25 9.78807 4.78807 9.25 5.5 9.25C6.21193 9.25 6.75 9.78807 6.75 10.5C6.75 11.2119 6.21193 11.75 5.5 11.75C4.78807 11.75 4.25 11.2119 4.25 10.5Z" fill="white"/>
</svg>
