<svg width="127" height="35" viewBox="0 0 127 35" fill="none" xmlns="http://www.w3.org/2000/svg">
<path d="M42.0555 32.695C40.5164 34.1925 38.5197 34.8997 36.3982 34.8997C30.8657 34.8997 28.4946 31.0727 28.4946 27.2041C28.453 23.294 30.9905 19.3422 36.3982 19.3422C38.4365 19.3422 40.35 20.0909 41.8891 21.63L40.0172 23.4603C39.0188 22.5036 37.7293 22.046 36.3982 22.046C32.7792 22.046 31.2401 24.7499 31.2401 27.2457C31.2817 29.7 32.696 32.3206 36.3982 32.3206C37.6877 32.3206 39.1853 31.7799 40.142 30.8231L42.0555 32.695Z" fill="#CBCBCB"/>
<path d="M56.5304 19.6746V28.2437C56.5304 32.6531 53.8266 34.8994 50.0828 34.8994C46.5054 34.8994 43.4688 32.7363 43.4688 28.2437V19.6746H46.2558V28.2437C46.2558 30.9476 47.7949 32.3619 50.1244 32.3619C52.4539 32.3619 53.785 30.8228 53.785 28.2437V19.6746H56.5304Z" fill="#CBCBCB"/>
<path d="M72.5054 34.5668H69.1776L64.8099 29.575H62.106V34.5668H59.2773V19.6332C61.6484 19.6332 64.0195 19.6748 66.3905 19.6748C69.9263 19.7164 71.7567 22.0458 71.7567 24.6249C71.7567 26.6632 70.7999 28.7431 67.9713 29.3255L72.5054 34.442V34.5668ZM62.106 22.2954V27.0792H66.3905C68.1792 27.0792 68.9696 25.8729 68.9696 24.7081C68.9696 23.5434 68.1792 22.337 66.3905 22.337H62.106V22.2954Z" fill="#CBCBCB"/>
<path d="M84.2774 31.7795H76.457L75.1675 34.6082H72.1309L78.8281 19.6746H81.9063L88.6035 34.6082H85.5253L84.2774 31.7795ZM80.3672 22.7944L77.5802 29.1589H83.1127L80.3672 22.7944Z" fill="#CBCBCB"/>
<path d="M91.3066 22.2123H86.5645V19.6332C90.8906 19.6332 94.5096 19.6332 98.8358 19.6332V22.2123H94.0936V34.5668H91.265V22.2123H91.3066Z" fill="#CBCBCB"/>
<path d="M111.69 34.5668H100.5C100.5 29.6166 100.5 24.6249 100.5 19.6332H111.69V22.3786H103.329V25.8312H111.399V28.4519H103.329V31.8213H111.69V34.5668Z" fill="#CBCBCB"/>
<path d="M126.999 26.9958C127.082 30.7812 124.752 34.6081 119.553 34.6081C117.722 34.6081 115.518 34.6081 113.688 34.6081V19.6745C115.518 19.6745 117.722 19.6745 119.553 19.6745C124.628 19.6329 126.916 23.2936 126.999 26.9958ZM116.475 31.8627H119.553C122.964 31.8627 124.295 29.4084 124.212 26.9541C124.128 24.6247 122.797 22.2952 119.553 22.2952H116.475V31.8627Z" fill="#CBCBCB"/>
<path fill-rule="evenodd" clip-rule="evenodd" d="M0.0415876 19.9662L0 16.5136C0 16.1392 0.207994 15.848 0.499178 15.848H2.91184C3.20302 15.848 3.41102 16.1392 3.41102 16.472L3.45261 19.9246C3.45261 20.299 3.24461 20.5902 2.95343 20.5902H0.540765C0.249581 20.5902 0.0415876 20.299 0.0415876 19.9662Z" fill="#CBCBCB"/>
<path fill-rule="evenodd" clip-rule="evenodd" d="M0.0415876 26.6218L0 23.1692C0 22.7948 0.207994 22.5037 0.499178 22.5037H2.91184C3.20302 22.5037 3.41102 22.7948 3.41102 23.1276L3.45261 26.5803C3.45261 26.9546 3.24461 27.2458 2.95343 27.2458H0.540765C0.249581 27.2874 0.0415876 26.9962 0.0415876 26.6218Z" fill="#CBCBCB"/>
<path fill-rule="evenodd" clip-rule="evenodd" d="M4.49276 19.9248L4.45117 16.4722C4.45117 16.0978 4.65917 15.8066 4.95035 15.8066H7.36301C7.6542 15.8066 7.86219 16.0978 7.86219 16.4306L7.90378 19.8832C7.90378 20.2576 7.69578 20.5488 7.4046 20.5488H4.99194C4.70075 20.5904 4.49276 20.2992 4.49276 19.9248Z" fill="#CBCBCB"/>
<path fill-rule="evenodd" clip-rule="evenodd" d="M8.81896 31.1561L8.77734 27.7035C8.77734 27.3291 8.98534 27.038 9.27652 27.038H11.6892C11.9804 27.038 12.1884 27.3291 12.1884 27.6619L12.23 31.1145C12.23 31.4889 12.022 31.7801 11.7308 31.7801H9.31813C9.02695 31.8217 8.81896 31.5305 8.81896 31.1561Z" fill="#CBCBCB"/>
<path fill-rule="evenodd" clip-rule="evenodd" d="M8.77792 25.5405L8.73633 22.0879C8.73633 21.7135 8.94432 21.4224 9.23551 21.4224H11.6482C11.9394 21.4224 12.1473 21.7135 12.1473 22.0463L12.1889 25.4989C12.1889 25.8733 11.9809 26.1645 11.6898 26.1645H9.27709C8.98591 26.1645 8.77792 25.8733 8.77792 25.5405Z" fill="#CBCBCB"/>
<path fill-rule="evenodd" clip-rule="evenodd" d="M8.73495 19.8833L8.69336 16.4307C8.69336 16.0563 8.90133 15.7651 9.19251 15.7651H11.6052C11.8964 15.7651 12.1044 16.0563 12.1044 16.3891L12.146 19.8417C12.146 20.2161 11.938 20.5072 11.6468 20.5072H9.23412C8.94294 20.5488 8.73495 20.2576 8.73495 19.8833Z" fill="#CBCBCB"/>
<path fill-rule="evenodd" clip-rule="evenodd" d="M13.0611 31.1561L13.0195 27.7035C13.0195 27.3291 13.2275 27.038 13.5187 27.038H15.9314C16.2226 27.038 16.4305 27.3291 16.4305 27.6619L16.4721 31.1145C16.4721 31.4889 16.2642 31.7801 15.973 31.7801H13.5603C13.2691 31.7801 13.0611 31.4889 13.0611 31.1561Z" fill="#CBCBCB"/>
<path fill-rule="evenodd" clip-rule="evenodd" d="M13.0201 25.499L12.9785 22.0464C12.9785 21.672 13.1865 21.3809 13.4777 21.3809H15.8904C16.1815 21.3809 16.3895 21.672 16.3895 22.0048L16.4311 25.4574C16.4311 25.8318 16.2231 26.123 15.9319 26.123H13.5193C13.2281 26.1646 13.0201 25.8734 13.0201 25.499Z" fill="#CBCBCB"/>
<path fill-rule="evenodd" clip-rule="evenodd" d="M12.9791 19.8833L12.9375 16.4307C12.9375 16.0563 13.1455 15.7651 13.4367 15.7651H15.8493C16.1405 15.7651 16.3485 16.0563 16.3485 16.3891L16.3901 19.8417C16.3901 20.2161 16.1821 20.5072 15.891 20.5072H13.4783C13.1871 20.5072 12.9791 20.2161 12.9791 19.8833Z" fill="#CBCBCB"/>
<path fill-rule="evenodd" clip-rule="evenodd" d="M4.16073 14.1426L4.11914 10.69C4.11914 10.3156 4.32711 10.0244 4.61829 10.0244H7.03098C7.32217 10.0244 7.53013 10.3156 7.53013 10.6484L7.57175 14.101C7.57175 14.4754 7.36375 14.7666 7.07257 14.7666H4.65991C4.36872 14.8082 4.16073 14.517 4.16073 14.1426Z" fill="#CBCBCB"/>
<path fill-rule="evenodd" clip-rule="evenodd" d="M8.69396 14.1011L8.65234 10.6485C8.65234 10.2741 8.86034 9.98291 9.15152 9.98291H11.5642C11.8554 9.98291 12.0634 10.2741 12.0634 10.6069L12.1049 14.0595C12.1049 14.4338 11.897 14.7251 11.6058 14.7251H9.19311C8.90192 14.7251 8.69396 14.4339 8.69396 14.1011Z" fill="#CBCBCB"/>
<path fill-rule="evenodd" clip-rule="evenodd" d="M12.9361 14.0597L12.8945 10.6071C12.8945 10.2327 13.1025 9.94153 13.3937 9.94153H15.8064C16.0976 9.94153 16.3055 10.2327 16.3055 10.5655L16.3471 14.0181C16.3471 14.3925 16.1391 14.6836 15.848 14.6836H13.4353C13.1441 14.7252 12.9361 14.434 12.9361 14.0597Z" fill="#CBCBCB"/>
<path fill-rule="evenodd" clip-rule="evenodd" d="M17.0963 25.4572L17.0547 22.0046C17.0547 21.6302 17.2627 21.339 17.5539 21.339H19.9665C20.2577 21.339 20.4657 21.6302 20.4657 21.963L20.5073 25.4156C20.5073 25.79 20.2993 26.0811 20.0081 26.0811H17.5955C17.3043 26.1227 17.0963 25.8316 17.0963 25.4572Z" fill="#CBCBCB"/>
<path fill-rule="evenodd" clip-rule="evenodd" d="M17.0553 19.8416L17.0137 16.389C17.0137 16.0146 17.2216 15.7234 17.5128 15.7234H19.9255C20.2167 15.7234 20.4247 16.0146 20.4247 16.3474L20.4663 19.8C20.4663 20.1744 20.2583 20.4655 19.9671 20.4655H17.5544C17.2633 20.4655 17.0553 20.216 17.0553 19.8416Z" fill="#CBCBCB"/>
<path fill-rule="evenodd" clip-rule="evenodd" d="M17.0143 14.0178L16.9727 10.5653C16.9727 10.1909 17.1806 9.89966 17.4718 9.89966H19.8845C20.1757 9.89966 20.3837 10.1908 20.3837 10.5236L20.4253 13.9763C20.4253 14.3506 20.2173 14.6418 19.9261 14.6418H17.5134C17.2222 14.6834 17.0143 14.3922 17.0143 14.0178Z" fill="#CBCBCB"/>
<path d="M19.0982 23.3454L14.2461 28.9387L14.8117 29.4294L19.6638 23.8361L19.0982 23.3454Z" fill="#CBCBCB"/>
<path d="M18.5821 12.7123L13.7285 18.3041L14.294 18.7949L19.1475 13.2031L18.5821 12.7123Z" fill="#CBCBCB"/>
<path d="M31.4064 0.665405V5.61554H36.6062V0.665405H38.8524V13.0199H36.6062V7.57062H31.4064V13.0199H29.1602V0.665405H31.4064Z" fill="#CBCBCB"/>
<path d="M50.2924 8.44428C50.2924 11.7305 48.0045 13.1864 45.7166 13.1864C43.1792 13.1864 41.2656 11.4393 41.2656 8.61068C41.2656 5.69884 43.1792 3.86853 45.883 3.86853C48.5453 3.86853 50.2924 5.74043 50.2924 8.44428ZM43.5951 8.56909C43.5951 10.2746 44.4271 11.6057 45.7998 11.6057C47.0893 11.6057 47.9629 10.3578 47.9629 8.56909C47.9629 7.19637 47.3389 5.57408 45.7998 5.57408C44.2191 5.53248 43.5951 7.07157 43.5951 8.56909Z" fill="#CBCBCB"/>
<path d="M52.4966 10.9404C52.9958 11.2316 53.9941 11.5643 54.7845 11.5643C55.7828 11.5643 56.1988 11.1484 56.1988 10.566C56.1988 9.94207 55.8245 9.65085 54.7429 9.27647C52.9958 8.6525 52.2886 7.73737 52.2886 6.69743C52.2886 5.11671 53.5782 3.9104 55.6581 3.9104C56.6564 3.9104 57.4884 4.15996 58.0291 4.45114L57.5716 6.03187C57.1972 5.82389 56.49 5.53267 55.6997 5.53267C54.9093 5.53267 54.4518 5.90708 54.4518 6.44785C54.4518 7.03022 54.8677 7.27981 55.9908 7.69578C57.6132 8.27815 58.3619 9.1101 58.3619 10.4412C58.3619 12.0635 57.114 13.2282 54.7429 13.2282C53.6614 13.2282 52.7046 12.9787 52.0391 12.6043L52.4966 10.9404Z" fill="#CBCBCB"/>
<path d="M60.6906 7.03C60.6906 5.86526 60.649 4.90847 60.6074 4.07652H62.6041L62.7289 5.44926H62.7705C63.4361 4.45092 64.476 3.86853 65.8071 3.86853C67.8454 3.86853 69.5509 5.61564 69.5509 8.40269C69.5509 11.6057 67.5127 13.1864 65.4744 13.1864C64.3512 13.1864 63.4361 12.7288 62.9785 11.9801H62.9369V16.5975H60.6906V7.03ZM62.9369 9.27623C62.9369 9.48422 62.9369 9.69221 63.0201 9.9002C63.2281 10.8153 64.0601 11.4809 65.0168 11.4809C66.4311 11.4809 67.3047 10.2746 67.3047 8.52751C67.3047 6.94679 66.5559 5.65725 65.1 5.65725C64.1848 5.65725 63.3113 6.32282 63.1033 7.32116C63.0617 7.48755 63.0201 7.69555 63.0201 7.90354V9.27623H62.9369Z" fill="#CBCBCB"/>
<path d="M74.2523 1.5808C74.2523 2.24637 73.7531 2.78715 72.9628 2.78715C72.214 2.78715 71.7148 2.24637 71.7148 1.5808C71.7148 0.873644 72.214 0.374512 72.9628 0.374512C73.7531 0.374512 74.2523 0.915241 74.2523 1.5808ZM71.8812 12.9786V4.07667H74.1691V12.9786H71.8812Z" fill="#CBCBCB"/>
<path d="M79.5763 1.53918V4.07664H81.6977V5.74054H79.5763V9.69233C79.5763 10.7739 79.8674 11.3562 80.741 11.3562C81.1153 11.3562 81.4065 11.3147 81.6145 11.2315L81.6561 12.937C81.3234 13.0618 80.741 13.145 80.0338 13.145C79.2019 13.145 78.4947 12.8538 78.0787 12.3962C77.6211 11.897 77.3716 11.0651 77.3716 9.90032V5.69896H76.082V4.03505H77.3716V2.03839L79.5763 1.53918Z" fill="#CBCBCB"/>
<path d="M88.895 12.9784L88.7286 11.9801H88.687C88.1462 12.6872 87.1895 13.1864 86.0664 13.1864C84.2777 13.1864 83.2793 11.8969 83.2793 10.5242C83.2793 8.27789 85.276 7.15476 88.5622 7.15476V6.98836C88.5622 6.40599 88.3126 5.44926 86.7319 5.44926C85.8584 5.44926 84.9432 5.74044 84.3192 6.11482L83.8617 4.6589C84.5272 4.24292 85.692 3.86853 87.0647 3.86853C89.935 3.86853 90.7253 5.69883 90.7253 7.61232V10.8154C90.7253 11.6057 90.7669 12.3961 90.8501 12.9369H88.895V12.9784ZM88.6038 8.65227C87.0231 8.61067 85.484 8.94345 85.484 10.3162C85.484 11.1897 86.0664 11.6057 86.7735 11.6057C87.6887 11.6057 88.3127 11.0234 88.5206 10.3994C88.5622 10.233 88.6038 10.0666 88.6038 9.9002V8.65227Z" fill="#CBCBCB"/>
<path d="M93.6367 0H95.9246V12.9785H93.6367V0Z" fill="#CBCBCB"/>
<path d="M101.207 1.5808C101.207 2.24637 100.708 2.78715 99.9179 2.78715C99.1691 2.78715 98.6699 2.24637 98.6699 1.5808C98.6699 0.873644 99.1691 0.374512 99.9179 0.374512C100.708 0.374512 101.207 0.915241 101.207 1.5808ZM98.7947 12.9786V4.07667H101.083V12.9786H98.7947Z" fill="#CBCBCB"/>
<path d="M106.531 1.53918V4.07664H108.653V5.74054H106.531V9.69233C106.531 10.7739 106.823 11.3562 107.696 11.3562C108.07 11.3562 108.362 11.3147 108.57 11.2315L108.611 12.937C108.278 13.0618 107.696 13.145 106.989 13.145C106.157 13.145 105.45 12.8538 105.034 12.3962C104.576 11.897 104.327 11.0651 104.327 9.90032V5.69896H103.037V4.03505H104.327V2.03839L106.531 1.53918Z" fill="#CBCBCB"/>
<path d="M112.355 4.07654L113.978 8.86028C114.144 9.40105 114.352 10.0666 114.477 10.6074H114.518C114.685 10.1082 114.81 9.44264 114.976 8.86028L116.349 4.11818H118.761L116.515 10.1914C115.309 13.5193 114.477 15.0167 113.395 15.9319C112.522 16.7222 111.606 17.0134 111.024 17.0966L110.525 15.1832C110.899 15.1 111.399 14.892 111.856 14.5592C112.272 14.268 112.771 13.7688 113.062 13.1449C113.146 12.9785 113.229 12.8537 113.229 12.7289C113.229 12.6457 113.229 12.5209 113.104 12.2713L109.859 4.07654H112.355Z" fill="#CBCBCB"/>
</svg>
