<svg width="353" height="453" viewBox="0 0 353 453" fill="none" xmlns="http://www.w3.org/2000/svg">
<path d="M311.18 319.435C349.5 355.732 352.991 399.964 352.991 452.988H0C0 399.961 3.49053 355.732 41.7476 319.435C80.0718 283.138 111.102 270.485 126.742 257.35C142.445 244.215 145.935 234.244 145.935 226.523C145.935 218.75 142.445 208.776 126.742 195.641C111.102 182.506 80.0718 169.853 41.7476 133.556C3.49053 97.3116 0 53.0265 0 0H352.995C352.995 53.0233 349.505 97.3083 311.185 133.553C272.928 169.85 241.893 182.502 226.191 195.637C210.55 208.773 207.06 218.747 207.06 226.52C207.06 234.241 210.55 244.212 226.191 257.347C234.729 264.477 247.751 271.447 264.014 282.169C277.721 291.181 293.674 302.868 311.18 319.435Z" fill="url(#paint0_linear)"/>
<defs>
<linearGradient id="paint0_linear" x1="176.498" y1="-347" x2="176.498" y2="487.5" gradientUnits="userSpaceOnUse">
<stop stop-color="#07689F"/>
<stop offset="0.770833" stop-color="#003959"/>
</linearGradient>
</defs>
</svg>
