<svg width="60" height="17" viewBox="0 0 60 17" fill="none" xmlns="http://www.w3.org/2000/svg">
<path d="M6.49811 2.81421V7.60743H2.09094V2.81421H0V14.2563H2.09151V9.6186H6.49755V14.2563H8.58962V2.81421H6.49811ZM15.2842 10.558C15.2842 11.0166 15.1018 11.4565 14.7773 11.7808C14.4527 12.1051 14.0125 12.2873 13.5535 12.2873C13.0945 12.2873 12.6543 12.1051 12.3297 11.7808C12.0052 11.4565 11.8228 11.0166 11.8228 10.558V5.65677H9.83887V10.558C9.83887 11.5414 10.2298 12.4845 10.9258 13.1799C11.6217 13.8753 12.5656 14.2659 13.5498 14.2659C14.534 14.2659 15.4779 13.8753 16.1738 13.1799C16.8698 12.4845 17.2608 11.5414 17.2608 10.558V5.65677H15.2842V10.558ZM29.9847 6.16183C29.9847 5.15681 30.6498 4.83839 31.3783 4.83839C31.9658 4.83839 32.7413 5.28519 33.2491 5.82701L34.5481 4.29657C33.8994 3.41994 32.584 2.81421 31.5068 2.81421C29.3541 2.81421 27.7975 4.07374 27.7975 6.16183C27.7975 10.036 32.5364 8.80644 32.5364 10.9748C32.5364 11.6433 31.8866 12.2338 31.1428 12.2338C29.9694 12.2338 29.5891 11.6609 29.0502 11.0546L27.6079 12.5528C28.5306 13.6839 29.6683 14.2586 31.0308 14.2586C33.0758 14.2586 34.7208 12.9838 34.7208 10.9907C34.7208 6.69007 29.9813 8.02652 29.9813 6.16183H29.9847ZM59.3021 12.4284C58.1298 12.4284 57.7964 11.9216 57.7964 11.1456V7.7098H59.6191V5.96897H57.7964V3.67218L55.7847 4.57427V11.5727C55.7847 13.3627 57.0209 14.2648 58.7157 14.2648C58.9817 14.2693 59.2477 14.2478 59.5092 14.2014L60 12.3961C59.7787 12.4114 59.5245 12.4267 59.3021 12.4267V12.4284ZM22.8362 5.7139C21.8536 5.7139 21.1675 5.99894 20.5042 6.64879V2.88264H18.5174V9.8635C18.5174 12.4764 20.4079 14.267 22.5328 14.267C24.8898 14.267 26.9632 12.4448 26.9632 9.99131C26.9632 7.56841 25.0551 5.71559 22.8362 5.71559V5.7139ZM22.8238 12.2689C22.5277 12.2689 22.2345 12.2106 21.9609 12.0974C21.6873 11.9842 21.4388 11.8182 21.2294 11.609C21.02 11.3998 20.8539 11.1514 20.7406 10.8781C20.6273 10.6047 20.569 10.3118 20.569 10.0159C20.569 9.72006 20.6273 9.42709 20.7406 9.15375C20.8539 8.88041 21.02 8.63204 21.2294 8.42284C21.4388 8.21363 21.6873 8.04768 21.9609 7.93446C22.2345 7.82124 22.5277 7.76296 22.8238 7.76296C23.4218 7.76296 23.9953 8.00033 24.4182 8.42284C24.841 8.84535 25.0786 9.4184 25.0786 10.0159C25.0786 10.6134 24.841 11.1865 24.4182 11.609C23.9953 12.0315 23.4218 12.2689 22.8238 12.2689ZM44.4136 9.88725C44.4136 7.42927 42.3447 5.61153 39.9832 5.61153C37.8589 5.61153 35.9677 7.40156 35.9677 10.0151V16.9999H37.9545V13.2286C38.6168 13.8774 39.304 14.1635 40.2855 14.1635C42.5043 14.1635 44.413 12.3107 44.413 9.88725H44.4136ZM42.5321 9.86237C42.5321 10.4599 42.2945 11.0329 41.8717 11.4554C41.4488 11.878 40.8753 12.1153 40.2773 12.1153C39.6792 12.1153 39.1057 11.878 38.6829 11.4554C38.26 11.0329 38.0224 10.4599 38.0224 9.86237C38.0224 9.26484 38.26 8.6918 38.6829 8.26928C39.1057 7.84677 39.6792 7.60941 40.2773 7.60941C40.8753 7.60941 41.4488 7.84677 41.8717 8.26928C42.2945 8.6918 42.5321 9.26484 42.5321 9.86237Z" fill="#33475B"/>
<path d="M50.8336 5.51546V3.52068C51.0974 3.39749 51.3208 3.20195 51.4777 2.95684C51.6346 2.71173 51.7186 2.42713 51.72 2.13616V2.09035C51.72 1.24199 51.0317 0.55426 50.1826 0.55426H50.1368C49.729 0.55426 49.338 0.716098 49.0497 1.00417C48.7614 1.29224 48.5994 1.68296 48.5994 2.09035V2.13616C48.6007 2.42713 48.6848 2.71173 48.8417 2.95684C48.9986 3.20195 49.222 3.39749 49.4858 3.52068V5.51546C48.7276 5.63146 48.0135 5.94558 47.4158 6.42603L41.9405 2.16501C41.9796 2.02418 42 1.87939 42.0022 1.73404C42.0029 1.3917 41.9019 1.05686 41.7121 0.771858C41.5223 0.486857 41.2522 0.264507 40.9359 0.132932C40.6196 0.00135619 40.2713 -0.0335327 39.9352 0.0326779C39.599 0.0988885 39.2901 0.263224 39.0474 0.504898C38.8047 0.746571 38.6393 1.05473 38.5719 1.39038C38.5045 1.72604 38.5383 2.07412 38.669 2.39059C38.7996 2.70706 39.0213 2.97771 39.3059 3.16829C39.5905 3.35888 39.9253 3.46085 40.2679 3.4613C40.5676 3.45989 40.8618 3.37993 41.1209 3.22941L46.5124 7.42143C46.0281 8.15253 45.7754 9.01246 45.7873 9.88913C45.7992 10.7658 46.0752 11.6186 46.5792 12.3363L44.9394 13.9753C44.8069 13.9329 44.6687 13.9104 44.5296 13.9085C44.2484 13.9088 43.9735 13.9923 43.7397 14.1485C43.506 14.3048 43.3239 14.5268 43.2163 14.7864C43.1088 15.0461 43.0807 15.3318 43.1357 15.6074C43.1906 15.883 43.326 16.1361 43.5249 16.3348C43.7238 16.5335 43.9771 16.6689 44.2529 16.7237C44.5288 16.7786 44.8147 16.7506 45.0746 16.6431C45.3344 16.5357 45.5566 16.3537 45.713 16.1201C45.8694 15.8866 45.953 15.612 45.9532 15.331C45.9514 15.1919 45.9288 15.0539 45.8864 14.9215L47.5086 13.3C48.0377 13.7069 48.6529 13.9875 49.3072 14.1201C49.9614 14.2528 50.6374 14.2341 51.2834 14.0654C51.9293 13.8967 52.528 13.5825 53.0336 13.1469C53.5392 12.7113 53.9383 12.1658 54.2004 11.5523C54.4625 10.9387 54.5805 10.2734 54.5454 9.60727C54.5104 8.94112 54.3232 8.29182 53.9982 7.70912C53.6732 7.12641 53.2191 6.62577 52.6705 6.24553C52.122 5.8653 51.4936 5.61556 50.8336 5.51546ZM50.1611 12.0761C49.8613 12.0843 49.5629 12.0324 49.2835 11.9235C49.0041 11.8146 48.7493 11.6508 48.5344 11.4418C48.3194 11.2328 48.1485 10.9829 48.0318 10.7068C47.9152 10.4308 47.855 10.1341 47.855 9.83444C47.855 9.53476 47.9152 9.23812 48.0318 8.96205C48.1485 8.68598 48.3194 8.43608 48.5344 8.2271C48.7493 8.01813 49.0041 7.85434 49.2835 7.74539C49.5629 7.63644 49.8613 7.58456 50.1611 7.5928C50.7422 7.61313 51.2927 7.858 51.6967 8.27582C52.1007 8.69365 52.3266 9.25183 52.3269 9.83279C52.3272 10.4137 52.1018 10.9722 51.6983 11.3904C51.2947 11.8086 50.7444 12.054 50.1634 12.075" fill="#FF7A59"/>
</svg>
