<svg width="155" height="33" viewBox="0 0 155 33" fill="none" xmlns="http://www.w3.org/2000/svg">
<path d="M68.8914 26.5782C70.2066 27.2568 72.3552 27.9355 74.5025 27.9355C76.4897 27.9355 77.4531 27.2568 77.4531 26.1576C77.4531 25.0914 76.491 24.4776 74.0536 23.6376C70.3982 22.3451 67.9949 20.3093 67.9949 17.0789C67.9949 13.2334 71.2002 10.261 76.6512 10.261C79.2474 10.261 81.0758 10.7465 82.5182 11.392L81.3002 16.0445C80.3709 15.6238 78.767 15.01 76.5869 15.01C74.8241 15.01 73.8607 15.6569 73.8607 16.6252C73.8607 17.7245 75.0157 18.1769 77.7406 19.2113C81.6205 20.6334 83.3845 22.7341 83.3845 25.77C83.3845 29.5189 80.4667 32.7493 74.1508 32.7493C71.5533 32.7493 69.0214 32.0389 67.802 31.392L68.8914 26.5782Z" fill="#333333"/>
<path d="M6.2025 32.3947V10.6155H0.398438V32.3947H6.2025Z" fill="#333333"/>
<path d="M9.15234 10.6155V32.3947H14.4406V27.0306C14.4406 23.5092 14.3763 20.2127 14.2476 17.272H14.3448C15.3712 19.9217 16.7822 22.8293 18.0002 25.1562L21.6556 32.3947H27.7485V10.6155H22.4576V15.7534C22.4576 19.0182 22.5862 22.0554 22.9065 24.9313H22.8107C21.8473 22.3782 20.5977 19.4706 19.4112 17.3051L15.9815 10.6155H9.15234Z" fill="#333333"/>
<path d="M44.6155 10.6155V15.3658H36.5355V19.4058H44.1338V24.123H36.5355V32.3947H30.7314V10.6155H44.6155Z" fill="#333333"/>
<path d="M52.9544 22.9602V10.6155H47.1516V22.4748C47.1516 29.4871 50.261 32.7506 56.1924 32.7506C62.2524 32.7506 65.5876 29.3575 65.5876 22.6361V10.6155H59.7835V22.9602C59.7835 26.4168 58.6613 28.1299 56.3538 28.1299C54.0766 28.1299 52.9544 26.2568 52.9544 22.9602Z" fill="#333333"/>
<path d="M91.2725 23.6058H99.0309V18.8885H91.2725V15.3658H99.5126V10.6155H85.4697V32.3934H99.9615V27.6113H91.2725V23.6058Z" fill="#333333"/>
<path fill-rule="evenodd" clip-rule="evenodd" d="M131.696 30.1248V21.1625H129.784V25.2276H129.752C129.41 24.6337 128.663 24.172 127.621 24.172C125.8 24.172 124.213 25.7713 124.229 28.4593C124.229 30.933 125.66 32.5654 127.465 32.5654C128.568 32.5654 129.486 32.0045 129.937 31.1142H129.969L130.046 32.3842H131.758C131.728 31.8392 131.696 30.9489 131.696 30.1248ZM129.737 27.1735C129.768 27.3389 129.784 27.536 129.784 27.7013H129.782V28.9038C129.782 29.1181 129.768 29.3165 129.721 29.4977C129.534 30.3721 128.851 30.933 128.072 30.933C126.858 30.933 126.174 29.8602 126.174 28.3932C126.174 26.8931 126.859 25.7382 128.088 25.7382C128.958 25.7382 129.566 26.3825 129.737 27.1735Z" fill="#333333"/>
<path d="M103.688 26.7441C103.688 25.8208 103.672 25.0456 103.626 24.3524H105.275L105.352 25.5403H105.399C105.772 24.9133 106.457 24.1712 107.733 24.1712C108.728 24.1712 109.506 24.7652 109.833 25.6554H109.865C110.128 25.2096 110.441 24.8802 110.798 24.6501C111.218 24.3366 111.699 24.1725 112.322 24.1725C113.582 24.1725 114.857 25.08 114.857 27.6516V32.3847H112.991V27.9492C112.991 26.6132 112.555 25.8221 111.638 25.8221C110.984 25.8221 110.502 26.3168 110.3 26.8936C110.253 27.092 110.207 27.3394 110.207 27.5696V32.3847H108.341V27.7349C108.341 26.6132 107.921 25.8221 107.035 25.8221C106.319 25.8221 105.836 26.4161 105.666 26.9769C105.588 27.1754 105.557 27.4055 105.557 27.637V32.386H103.69V26.7441H103.688Z" fill="#333333"/>
<path fill-rule="evenodd" clip-rule="evenodd" d="M118.038 28.938C118.086 30.3891 119.158 31.0161 120.372 31.0161C121.259 31.0161 121.896 30.8839 122.472 30.6537L122.752 32.0559C122.098 32.3363 121.196 32.5506 120.107 32.5506C117.649 32.5506 116.202 30.9513 116.202 28.4935C116.202 26.2671 117.478 24.1731 119.905 24.1731C122.363 24.1731 123.172 26.3174 123.172 28.0808C123.172 28.4604 123.14 28.7567 123.11 28.938H118.038ZM121.367 27.5199C121.383 26.7778 121.072 25.5581 119.796 25.5581C118.613 25.5581 118.116 26.6957 118.038 27.5199H121.367Z" fill="#333333"/>
<path d="M133.75 32.3836V24.8394H135.68V32.3836H133.75Z" fill="#333333"/>
<path d="M133.75 23.0959V21.1924H135.68V23.0959H133.75Z" fill="#333333"/>
<path fill-rule="evenodd" clip-rule="evenodd" d="M141.87 31.4931L141.995 32.3834V32.3847H143.722C143.645 31.89 143.613 31.1809 143.613 30.4547V27.5524C143.613 25.8036 142.914 24.1712 140.487 24.1712C139.288 24.1712 138.309 24.5178 137.749 24.8802L138.121 26.1991C138.635 25.8525 139.412 25.6052 140.158 25.6052C141.496 25.6052 141.698 26.4796 141.698 27.0074V27.1397C138.898 27.1238 137.203 28.1463 137.203 30.1742C137.203 31.3939 138.058 32.5646 139.582 32.5646C140.563 32.5646 141.356 32.1201 141.823 31.4931H141.87ZM139.101 29.9599C139.101 28.7403 140.392 28.4268 141.745 28.4598V29.5644C141.745 29.6967 141.731 29.8621 141.684 30.0102C141.512 30.587 140.953 31.1148 140.19 31.1148C139.582 31.1148 139.101 30.751 139.101 29.9599Z" fill="#333333"/>
<path d="M104.305 18.2209H115.213L126.851 0.492264H115.943L104.305 18.2209Z" fill="#1C3C70"/>
<path d="M118.18 18.2206H129.089L140.726 0.491882H129.819L118.18 18.2206Z" fill="#005EAB"/>
<path d="M132.057 18.2206H142.966L154.604 0.491882H143.695L132.057 18.2206Z" fill="#0097DD"/>
</svg>
