<svg width="127" height="33" viewBox="0 0 127 33" fill="none" xmlns="http://www.w3.org/2000/svg">
<path fill-rule="evenodd" clip-rule="evenodd" d="M0.0415876 16.9668L0 13.5142C0 13.1398 0.207994 12.8486 0.499178 12.8486H2.91184C3.20302 12.8486 3.41102 13.1398 3.41102 13.4726L3.45261 16.9252C3.45261 17.2996 3.24461 17.5908 2.95343 17.5908H0.540765C0.249581 17.5908 0.0415876 17.2996 0.0415876 16.9668Z" fill="#CBCBCB"/>
<path fill-rule="evenodd" clip-rule="evenodd" d="M0.0415876 23.6223L0 20.1697C0 19.7953 0.207994 19.5042 0.499178 19.5042H2.91184C3.20302 19.5042 3.41102 19.7953 3.41102 20.1281L3.45261 23.5807C3.45261 23.9551 3.24461 24.2463 2.95343 24.2463H0.540765C0.249581 24.2879 0.0415876 23.9967 0.0415876 23.6223Z" fill="#CBCBCB"/>
<path fill-rule="evenodd" clip-rule="evenodd" d="M4.49263 16.925L4.45104 13.4724C4.45104 13.0981 4.65903 12.8069 4.95022 12.8069H7.36288C7.65406 12.8069 7.86206 13.0981 7.86206 13.4309L7.90364 16.8834C7.90364 17.2578 7.69565 17.549 7.40447 17.549H4.9918C4.70062 17.5906 4.49263 17.2994 4.49263 16.925Z" fill="#CBCBCB"/>
<path fill-rule="evenodd" clip-rule="evenodd" d="M8.81857 28.1562L8.77695 24.7036C8.77695 24.3293 8.98495 24.0381 9.27613 24.0381H11.6888C11.98 24.0381 12.188 24.3293 12.188 24.6621L12.2296 28.1146C12.2296 28.489 12.0216 28.7802 11.7304 28.7802H9.31775C9.02656 28.8218 8.81857 28.5306 8.81857 28.1562Z" fill="#CBCBCB"/>
<path fill-rule="evenodd" clip-rule="evenodd" d="M8.77711 22.5405L8.73552 19.0879C8.73552 18.7135 8.94351 18.4224 9.2347 18.4224H11.6474C11.9385 18.4224 12.1465 18.7135 12.1465 19.0463L12.1881 22.4989C12.1881 22.8733 11.9801 23.1645 11.6889 23.1645H9.27628C8.9851 23.1645 8.77711 22.8733 8.77711 22.5405Z" fill="#CBCBCB"/>
<path fill-rule="evenodd" clip-rule="evenodd" d="M8.73567 16.8836L8.69408 13.431C8.69408 13.0566 8.90205 12.7654 9.19324 12.7654H11.6059C11.8971 12.7654 12.1051 13.0566 12.1051 13.3893L12.1467 16.842C12.1467 17.2164 11.9387 17.5075 11.6475 17.5075H9.23485C8.94367 17.5491 8.73567 17.2579 8.73567 16.8836Z" fill="#CBCBCB"/>
<path fill-rule="evenodd" clip-rule="evenodd" d="M13.0616 28.1562L13.02 24.7036C13.02 24.3293 13.228 24.0381 13.5192 24.0381H15.9318C16.223 24.0381 16.431 24.3293 16.431 24.6621L16.4726 28.1146C16.4726 28.489 16.2646 28.7802 15.9735 28.7802H13.5608C13.2696 28.7802 13.0616 28.489 13.0616 28.1562Z" fill="#CBCBCB"/>
<path fill-rule="evenodd" clip-rule="evenodd" d="M13.0202 22.4993L12.9786 19.0467C12.9786 18.6723 13.1866 18.3811 13.4777 18.3811H15.8904C16.1816 18.3811 16.3896 18.6723 16.3896 19.0051L16.4312 22.4577C16.4312 22.8321 16.2232 23.1233 15.932 23.1233H13.5193C13.2282 23.1649 13.0202 22.8737 13.0202 22.4993Z" fill="#CBCBCB"/>
<path fill-rule="evenodd" clip-rule="evenodd" d="M12.9783 16.8836L12.9367 13.431C12.9367 13.0566 13.1447 12.7654 13.4359 12.7654H15.8486C16.1398 12.7654 16.3477 13.0566 16.3477 13.3893L16.3894 16.842C16.3894 17.2164 16.1814 17.5075 15.8902 17.5075H13.4775C13.1863 17.5075 12.9783 17.2163 12.9783 16.8836Z" fill="#CBCBCB"/>
<path fill-rule="evenodd" clip-rule="evenodd" d="M4.15992 11.1431L4.11834 7.69046C4.11834 7.31608 4.3263 7.0249 4.61749 7.0249H7.03018C7.32136 7.0249 7.52933 7.31609 7.52933 7.64887L7.57094 11.1015C7.57094 11.4759 7.36295 11.767 7.07176 11.767H4.6591C4.36792 11.8086 4.15992 11.5174 4.15992 11.1431Z" fill="#CBCBCB"/>
<path fill-rule="evenodd" clip-rule="evenodd" d="M8.69386 11.1013L8.65224 7.64873C8.65224 7.27435 8.86024 6.98315 9.15142 6.98315H11.5641C11.8553 6.98315 12.0633 7.27434 12.0633 7.60712L12.1049 11.0597C12.1049 11.4341 11.8969 11.7253 11.6057 11.7253H9.19301C8.90183 11.7253 8.69386 11.4341 8.69386 11.1013Z" fill="#CBCBCB"/>
<path fill-rule="evenodd" clip-rule="evenodd" d="M12.9369 11.0598L12.8953 7.6072C12.8953 7.23282 13.1033 6.94165 13.3945 6.94165H15.8071C16.0983 6.94165 16.3063 7.23283 16.3063 7.56562L16.3479 11.0182C16.3479 11.3926 16.1399 11.6838 15.8487 11.6838H13.4361C13.1449 11.7254 12.9369 11.4342 12.9369 11.0598Z" fill="#CBCBCB"/>
<path fill-rule="evenodd" clip-rule="evenodd" d="M17.0967 22.4578L17.0551 19.0052C17.0551 18.6308 17.2631 18.3396 17.5542 18.3396H19.9669C20.2581 18.3396 20.4661 18.6308 20.4661 18.9636L20.5077 22.4162C20.5077 22.7906 20.2997 23.0817 20.0085 23.0817H17.5958C17.3046 23.1233 17.0967 22.8322 17.0967 22.4578Z" fill="#CBCBCB"/>
<path fill-rule="evenodd" clip-rule="evenodd" d="M17.0552 16.8421L17.0136 13.3894C17.0136 13.0151 17.2216 12.7239 17.5128 12.7239H19.9255C20.2167 12.7239 20.4246 13.0151 20.4246 13.3478L20.4662 16.8005C20.4662 17.1749 20.2582 17.466 19.9671 17.466H17.5544C17.2632 17.5076 17.0552 17.2164 17.0552 16.8421Z" fill="#CBCBCB"/>
<path fill-rule="evenodd" clip-rule="evenodd" d="M17.0134 11.0598L16.9718 7.6072C16.9718 7.23282 17.1798 6.94165 17.471 6.94165H19.8836C20.1748 6.94165 20.3828 7.23283 20.3828 7.56562L20.4244 11.0182C20.4244 11.3926 20.2164 11.6838 19.9252 11.6838H17.5126C17.2214 11.6838 17.0134 11.3926 17.0134 11.0598Z" fill="#CBCBCB"/>
<path d="M19.0936 20.3476L14.2415 25.9409L14.8071 26.4316L19.6592 20.8383L19.0936 20.3476Z" fill="#CBCBCB"/>
<path d="M18.5825 9.71092L13.7289 15.3027L14.2944 15.7936L19.1479 10.2017L18.5825 9.71092Z" fill="#CBCBCB"/>
<path d="M41.6667 29.7808C40.9137 30.5118 40.022 31.0848 39.0442 31.4659C38.0664 31.8471 37.0222 32.0287 35.9731 32.0001C30.3726 32.0001 28.0487 28.1773 28.0487 24.2732C27.9966 23.2193 28.1666 22.1663 28.5476 21.1824C28.9286 20.1985 29.5122 19.3057 30.2605 18.5618C31.0087 17.8179 31.905 17.2396 32.8911 16.8643C33.8773 16.4891 34.9312 16.3253 35.9848 16.3836C37.011 16.3864 38.0265 16.5933 38.972 16.9922C39.9176 17.3912 40.7743 17.9742 41.4924 18.7075L39.61 20.5201C38.6292 19.5997 37.3296 19.0957 35.9848 19.1141C35.2949 19.0787 34.6054 19.189 33.961 19.438C33.3167 19.6869 32.7321 20.0689 32.2453 20.559C31.7585 21.049 31.3805 21.6362 31.1359 22.2822C30.8913 22.9282 30.7856 23.6185 30.8257 24.308C30.7857 24.9923 30.8925 25.6772 31.1387 26.3169C31.385 26.9565 31.7651 27.5362 32.2536 28.017C32.7421 28.4978 33.3277 28.8686 33.9712 29.1047C34.6147 29.3408 35.3012 29.4366 35.9848 29.3857C37.3843 29.3815 38.73 28.8457 39.7495 27.8868L41.6667 29.7808Z" fill="#CBCBCB"/>
<path d="M56.1794 16.7087V25.2839C56.1794 29.7109 53.4604 31.9767 49.6957 31.9767C48.8032 32.0375 47.9081 31.9057 47.071 31.5902C46.2339 31.2748 45.4744 30.783 44.844 30.1482C44.2137 29.5134 43.7272 28.7506 43.4176 27.9113C43.1079 27.072 42.9823 26.176 43.0494 25.2839V16.7087H45.8497V25.2839C45.8497 27.9796 47.3834 29.4088 49.719 29.4088C52.0545 29.4088 53.3791 27.8867 53.3791 25.2839V16.7087H56.1794Z" fill="#CBCBCB"/>
<path d="M72.2026 31.6631H68.8794L64.5105 26.6551H61.8032V31.6631H58.968V16.6624H66.1024C69.5882 16.6624 71.4938 18.9862 71.4938 21.6239C71.573 22.7415 71.2265 23.8478 70.5239 24.7206C69.8214 25.5935 68.8147 26.1683 67.7059 26.3297L72.2375 31.4423L72.2026 31.6631ZM61.7451 19.3116V24.1104H66.0443C66.3734 24.1333 66.7038 24.0883 67.0148 23.9781C67.3257 23.8679 67.6107 23.6949 67.852 23.4698C68.0933 23.2448 68.2856 22.9725 68.4172 22.6699C68.5487 22.3674 68.6166 22.0409 68.6166 21.711C68.6166 21.3811 68.5487 21.0547 68.4172 20.7521C68.2856 20.4495 68.0933 20.1772 67.852 19.9522C67.6107 19.7271 67.3257 19.5541 67.0148 19.4439C66.7038 19.3337 66.3734 19.2887 66.0443 19.3116H61.7451Z" fill="#CBCBCB"/>
<path d="M84.0429 28.8397H76.2113L74.9216 31.6633H71.8657L78.5817 16.6858H81.6609L88.3769 31.6633H85.2978L84.0429 28.8397ZM80.1271 19.823L77.3384 26.2021H82.9042L80.1271 19.823Z" fill="#CBCBCB"/>
<path d="M91.0843 19.2537H86.3319V16.6858H98.6601V19.2537H93.9078V31.6633H91.0843V19.2537Z" fill="#CBCBCB"/>
<path d="M111.546 31.6633H100.333V16.6858H111.546V19.4164H103.134V22.9022H111.267V25.5282H103.134V28.9095H111.546V31.6633Z" fill="#CBCBCB"/>
<path d="M126.919 24.0407C126.919 27.8287 124.676 31.6631 119.424 31.6631H113.545V16.6856H119.424C120.412 16.6262 121.401 16.7748 122.328 17.1215C123.255 17.4683 124.099 18.0055 124.805 18.6987C125.511 19.3918 126.064 20.2254 126.428 21.1455C126.792 22.0657 126.959 23.052 126.919 24.0407ZM116.357 28.9441H119.436C120.078 28.9745 120.72 28.8656 121.317 28.6248C121.913 28.384 122.451 28.017 122.892 27.5491C123.333 27.0811 123.669 26.5232 123.874 25.9136C124.08 25.3041 124.151 24.6572 124.084 24.0175C124.11 23.4001 124.008 22.784 123.783 22.2082C123.559 21.6324 123.218 21.1094 122.781 20.6725C122.344 20.2355 121.821 19.8941 121.245 19.6699C120.669 19.4456 120.053 19.3434 119.436 19.3697H116.357V28.9441Z" fill="#CBCBCB"/>
<path d="M30.8722 0V10.6202H28.4553V0H30.8722Z" fill="#CBCBCB"/>
<path d="M33.3123 5.36813C33.3123 4.41534 33.3123 3.59036 33.2542 2.91643H35.3341L35.4386 3.9738C35.7025 3.58714 36.0583 3.27215 36.4741 3.05715C36.8899 2.84215 37.3526 2.7339 37.8206 2.74214C39.4009 2.74214 40.5861 3.77627 40.5861 6.05368V10.6201H38.2273V6.35579C38.2273 5.35651 37.8787 4.68259 37.0654 4.68259C36.8037 4.69607 36.5524 4.7889 36.3449 4.94872C36.1373 5.10855 35.9833 5.3278 35.9034 5.57729C35.838 5.77187 35.8066 5.97625 35.8105 6.1815V10.6201H33.3123V5.36813Z" fill="#CBCBCB"/>
<path d="M42.9332 8.52848C43.5686 8.87902 44.2765 9.07786 45.0015 9.10946C45.7219 9.10946 46.024 8.85383 46.024 8.45877C46.024 8.06371 45.78 7.87779 44.862 7.57569C43.2702 7.04119 42.6543 6.18135 42.6776 5.2518C42.6776 3.8226 43.8395 2.73037 45.8148 2.73037C46.5623 2.72125 47.303 2.87178 47.9877 3.17191L47.5577 4.82188C47.0408 4.5495 46.4686 4.3985 45.8845 4.38034C45.3036 4.38034 44.9782 4.62434 44.9782 5.01941C44.9782 5.41447 45.2687 5.56552 46.2215 5.90248C47.6855 6.40212 48.3014 7.14577 48.313 8.22638C48.313 9.66719 47.1511 10.7246 44.9782 10.7246C44.1152 10.7434 43.2598 10.5603 42.48 10.1901L42.9332 8.52848Z" fill="#CBCBCB"/>
<path d="M57.4575 8.13364C57.4575 9.14454 57.4575 9.96952 57.4575 10.6086H55.4357L55.3195 9.52798C55.0619 9.92778 54.7047 10.2537 54.283 10.4737C53.8613 10.6937 53.3896 10.8003 52.9143 10.7829C51.2876 10.7945 50.1256 9.81847 50.1256 7.43648V2.9165H52.5657V7.06465C52.5657 8.2266 52.9259 8.85405 53.7277 8.85405C53.9827 8.84652 54.2297 8.76282 54.4368 8.61372C54.6439 8.46462 54.8016 8.25695 54.8896 8.01745C54.9548 7.85531 54.9826 7.68056 54.971 7.50619V2.9165H57.3878L57.4575 8.13364Z" fill="#CBCBCB"/>
<path d="M59.7698 5.44937C59.7698 4.28743 59.7698 3.57864 59.7698 2.91633H61.7451L61.8148 4.33391H61.8845C62.031 3.89023 62.3078 3.50102 62.6789 3.21705C63.0499 2.93308 63.4979 2.76754 63.9644 2.74204C64.1304 2.72303 64.298 2.72303 64.4641 2.74204V5.03107C64.2541 4.98543 64.0399 4.96206 63.825 4.96136C63.4497 4.92801 63.0753 5.03394 62.7732 5.25896C62.471 5.48397 62.2622 5.81232 62.1866 6.1814C62.1676 6.35906 62.1676 6.53824 62.1866 6.7159V10.62H59.7698V5.44937Z" fill="#CBCBCB"/>
<path d="M70.3667 10.6203L70.2273 9.8534C69.9531 10.1654 69.6125 10.4119 69.2304 10.5748C68.8483 10.7377 68.4346 10.8128 68.0196 10.7946C67.701 10.8169 67.3813 10.7734 67.0803 10.6667C66.7793 10.5599 66.5035 10.3923 66.2702 10.1742C66.0368 9.95616 65.851 9.69235 65.7241 9.39924C65.5973 9.10614 65.5323 8.79005 65.533 8.47069C65.533 6.46052 67.3224 5.50772 70.053 5.51934V5.40315C70.053 4.99647 69.8322 4.41549 68.6471 4.41549C67.9 4.42213 67.1674 4.6223 66.5207 4.99647L66.0792 3.45108C67.01 2.98948 68.0381 2.75835 69.077 2.77715C69.5309 2.71304 69.9935 2.7543 70.4289 2.89772C70.8643 3.04115 71.2608 3.28289 71.5878 3.60422C71.9147 3.92555 72.1633 4.31785 72.3143 4.7507C72.4652 5.18356 72.5145 5.64536 72.4582 6.10031V8.74955C72.4455 9.37526 72.4844 10.001 72.5744 10.6203H70.3667ZM70.0879 6.97177C68.8214 6.97177 67.8453 7.25064 67.8453 8.13372C67.8363 8.2586 67.8546 8.38395 67.899 8.50101C67.9435 8.61807 68.0129 8.72402 68.1026 8.81144C68.1922 8.89886 68.2998 8.96566 68.418 9.00715C68.5361 9.04864 68.6619 9.06383 68.7865 9.05166C69.0614 9.05291 69.33 8.96857 69.5548 8.81034C69.7797 8.6521 69.9497 8.42781 70.0414 8.16858C70.0533 8.03328 70.0533 7.8972 70.0414 7.7619L70.0879 6.97177Z" fill="#CBCBCB"/>
<path d="M74.7124 5.36843C74.7124 4.41563 74.7124 3.59065 74.6427 2.91672H76.7226L76.8388 3.97409C77.0971 3.59564 77.4437 3.28574 77.8486 3.07116C78.2534 2.85657 78.7045 2.74375 79.1627 2.74243C80.7313 2.74243 81.9165 3.77656 81.9165 6.05398V10.6204H79.6275V6.35608C79.6275 5.35681 79.2789 4.68288 78.4655 4.68288C78.203 4.69306 77.9501 4.78465 77.7419 4.94495C77.5337 5.10526 77.3805 5.32634 77.3036 5.57758C77.2324 5.77071 77.2007 5.97619 77.2106 6.18179V10.6204H74.7124V5.36843Z" fill="#CBCBCB"/>
<path d="M90.1198 10.4573C89.4353 10.7065 88.7101 10.8247 87.9819 10.8059C87.4455 10.8572 86.9043 10.7917 86.3956 10.6139C85.887 10.4361 85.4229 10.1502 85.0353 9.77585C84.6477 9.4015 84.3458 8.94763 84.1504 8.44545C83.955 7.94327 83.8708 7.40472 83.9034 6.86686C83.8891 6.29715 83.9961 5.73092 84.2173 5.2057C84.4384 4.68048 84.7687 4.20828 85.1862 3.82042C85.6038 3.43255 86.099 3.13789 86.6391 2.95596C87.1791 2.77404 87.7517 2.70901 88.3188 2.76519C88.9394 2.76518 89.5557 2.86725 90.1431 3.06729L89.7596 4.84507C89.3476 4.69218 88.9088 4.62497 88.4699 4.64754C88.1873 4.63672 87.9057 4.68597 87.6437 4.79204C87.3816 4.8981 87.145 5.05857 86.9495 5.26283C86.754 5.4671 86.6041 5.71051 86.5097 5.977C86.4152 6.24349 86.3784 6.52699 86.4016 6.80876C86.3886 7.0849 86.433 7.36074 86.532 7.61885C86.631 7.87696 86.7825 8.11172 86.9769 8.30828C87.1713 8.50485 87.4043 8.65895 87.6613 8.76085C87.9183 8.86274 88.1936 8.91022 88.4699 8.90026C88.9374 8.90944 89.4025 8.83061 89.841 8.66788L90.1198 10.4573Z" fill="#CBCBCB"/>
<path d="M93.5127 7.52941C93.5941 8.52868 94.5701 9.00508 95.6972 9.00508C96.4189 9.01199 97.1369 8.90212 97.8235 8.67973L98.1373 10.3065C97.2454 10.6371 96.2997 10.7986 95.3486 10.7829C92.7342 10.7829 91.2353 9.27233 91.2353 6.85548C91.2 6.32485 91.2749 5.79266 91.4551 5.29232C91.6353 4.79199 91.917 4.33432 92.2825 3.94806C92.6481 3.56179 93.0895 3.25528 93.5792 3.04776C94.0688 2.84025 94.5961 2.73621 95.1278 2.74219C97.6144 2.74219 98.6137 4.68264 98.6137 6.58823C98.6088 6.90348 98.5817 7.218 98.5323 7.52941H93.5127ZM96.3363 5.89106C96.3608 5.69831 96.3444 5.50255 96.2882 5.31655C96.232 5.13055 96.1372 4.95849 96.01 4.81158C95.8828 4.66467 95.7261 4.54621 95.5501 4.46393C95.3741 4.38165 95.1827 4.3374 94.9884 4.33405C94.5896 4.35752 94.2145 4.53116 93.9385 4.82004C93.6626 5.10892 93.5063 5.4916 93.5011 5.89106H96.3363Z" fill="#CBCBCB"/>
</svg>
