<svg width="11" height="11" viewBox="0 0 11 11" fill="none" xmlns="http://www.w3.org/2000/svg">
<path d="M10.9634 6.12291C10.986 5.91844 11.0004 5.7111 11.0004 5.50018C11.0004 5.28926 10.986 5.08192 10.9631 4.87709L9.3926 4.31857C9.3144 4.06173 9.2118 3.81637 9.08769 3.58321L9.80225 2.07947C9.54219 1.75335 9.24644 1.45736 8.92053 1.19703L7.41679 1.91303C7.18241 1.78722 6.93607 1.68508 6.68143 1.60812L6.12327 0.0376651C5.91844 0.0147073 5.7111 0 5.50018 0C5.28925 0 5.08192 0.0143486 4.87709 0.0376651L4.31893 1.60812C4.06209 1.68596 3.81673 1.7882 3.58356 1.91303L2.07947 1.19703C1.75304 1.4571 1.45746 1.75304 1.19703 2.07947L1.91303 3.58249C1.78819 3.81565 1.68596 4.06137 1.60812 4.31785L0.0376651 4.87745C0.0147073 5.08192 0 5.28997 0 5.50054C0 5.7111 0.0143486 5.91844 0.0376651 6.12327L1.60812 6.68215C1.68596 6.93863 1.78819 7.18435 1.91303 7.41751L1.19739 8.92125C1.45746 9.24768 1.7534 9.5429 2.07983 9.80297L3.58249 9.08733C3.81565 9.21216 4.06137 9.31476 4.31785 9.39296L4.87673 10.9631C5.0812 10.9857 5.28854 11 5.49982 11C5.71074 11 5.91772 10.9857 6.12255 10.9627L6.68143 9.39224C6.93791 9.31404 7.18363 9.21145 7.41679 9.08733L8.92053 9.80189C9.24696 9.54182 9.54218 9.24588 9.80225 8.92017L9.08733 7.41679C9.21216 7.18471 9.31476 6.93827 9.39295 6.68143L10.9631 6.12291H10.9634ZM5.50018 7.24712C5.27072 7.24717 5.0435 7.20202 4.83149 7.11425C4.61948 7.02649 4.42683 6.89782 4.26455 6.7356C3.9368 6.40799 3.75261 5.96359 3.75252 5.50018C3.75242 5.03677 3.93642 4.5923 4.26404 4.26455C4.59165 3.9368 5.03605 3.75261 5.49946 3.75252C5.96287 3.75242 6.40735 3.93642 6.7351 4.26404C7.06284 4.59165 7.24703 5.03605 7.24712 5.49946C7.24722 5.96288 7.06322 6.40735 6.7356 6.7351C6.40799 7.06285 5.96359 7.24703 5.50018 7.24712Z" fill="#FC9000"/>
</svg>
