<svg width="126" height="36" viewBox="0 0 126 36" fill="none" xmlns="http://www.w3.org/2000/svg">
<path d="M42.2603 32.9038C40.7423 34.3808 38.7729 35.0782 36.6805 35.0782C31.2238 35.0782 28.8853 31.3037 28.8853 27.4881C28.8442 23.6315 31.3469 19.7339 36.6805 19.7339C38.6909 19.7339 40.5782 20.4724 42.0962 21.9904L40.2499 23.7956C39.2653 22.852 37.9934 22.4007 36.6805 22.4007C33.1111 22.4007 31.5931 25.0675 31.5931 27.5292C31.6341 29.9498 33.0291 32.5345 36.6805 32.5345C37.9524 32.5345 39.4294 32.0012 40.373 31.0575L42.2603 32.9038Z" fill="white"/>
<path d="M56.4979 20.0203V28.472C56.4979 32.8209 53.8311 35.0364 50.1386 35.0364C46.6103 35.0364 43.6152 32.903 43.6152 28.472V20.0203H46.3641V28.472C46.3641 31.1388 47.8821 32.5337 50.1797 32.5337C52.4772 32.5337 53.7901 31.0157 53.7901 28.472V20.0203H56.4979Z" fill="white"/>
<path d="M72.2929 34.7492H69.0107L64.7028 29.8259H62.036V34.7492H59.2461V20.0203C61.5847 20.0203 63.9233 20.0613 66.2618 20.0613C69.7492 20.1023 71.5544 22.3999 71.5544 24.9436C71.5544 26.954 70.6108 29.0053 67.8209 29.5797L72.2929 34.6261V34.7492ZM62.036 22.605V27.3232H66.2618C68.026 27.3232 68.8056 26.1334 68.8056 24.9846C68.8056 23.8358 68.026 22.646 66.2618 22.646H62.036V22.605Z" fill="white"/>
<path d="M83.8629 31.9593H76.1497L74.8778 34.7492H71.8828L78.4883 20.0203H81.5243L88.1298 34.7492H85.0937L83.8629 31.9593ZM80.0473 23.0973L77.2985 29.3746H82.7552L80.0473 23.0973Z" fill="white"/>
<path d="M90.7963 22.5227H86.1191V19.979C90.386 19.979 93.9554 19.979 98.2223 19.979V22.5227H93.5452V34.708H90.7553V22.5227H90.7963Z" fill="white"/>
<path d="M110.9 34.7492H99.8633C99.8633 29.8669 99.8633 24.9436 99.8633 20.0203H110.9V22.7281H102.653V26.1334H110.613V28.7181H102.653V32.0414H110.9V34.7492Z" fill="white"/>
<path d="M125.998 27.2411C126.08 30.9747 123.783 34.7492 118.654 34.7492C116.849 34.7492 114.674 34.7492 112.869 34.7492V20.0203C114.674 20.0203 116.849 20.0203 118.654 20.0203C123.7 20.0203 125.957 23.6307 125.998 27.2411ZM115.618 32.0824H118.654C122.018 32.0824 123.331 29.6618 123.249 27.2411C123.167 24.9436 121.854 22.646 118.654 22.646H115.618V32.0824Z" fill="white"/>
<path fill-rule="evenodd" clip-rule="evenodd" d="M0.822278 20.3105L0.78125 16.9052C0.78125 16.536 0.986389 16.2488 1.27358 16.2488H3.65319C3.94039 16.2488 4.14552 16.536 4.14552 16.8642L4.18655 20.2695C4.18655 20.6387 3.98141 20.9259 3.69422 20.9259H1.31461C1.02742 20.967 0.822278 20.6798 0.822278 20.3105Z" fill="white"/>
<path fill-rule="evenodd" clip-rule="evenodd" d="M0.822278 26.8742L0.78125 23.4689C0.78125 23.0997 0.986389 22.8125 1.27358 22.8125H3.65319C3.94039 22.8125 4.14552 23.0997 4.14552 23.4279L4.18655 26.8332C4.18655 27.2025 3.98141 27.4896 3.69422 27.4896H1.31461C1.02742 27.5307 0.822278 27.2435 0.822278 26.8742Z" fill="white"/>
<path fill-rule="evenodd" clip-rule="evenodd" d="M5.16993 20.3105L5.12891 16.9052C5.12891 16.536 5.33404 16.2488 5.62124 16.2488H8.00085C8.28804 16.2488 8.49318 16.536 8.49318 16.8642L8.53421 20.2695C8.53421 20.6387 8.32907 20.9259 8.04188 20.9259H5.66227C5.4161 20.9259 5.16993 20.6387 5.16993 20.3105Z" fill="white"/>
<path fill-rule="evenodd" clip-rule="evenodd" d="M9.43751 31.3872L9.39648 27.9819C9.39648 27.6126 9.60162 27.3254 9.88882 27.3254H12.2684C12.5556 27.3254 12.7608 27.6126 12.7608 27.9409L12.8018 31.3462C12.8018 31.7154 12.5966 32.0026 12.3095 32.0026H9.92984C9.68368 32.0026 9.43751 31.7154 9.43751 31.3872Z" fill="white"/>
<path fill-rule="evenodd" clip-rule="evenodd" d="M9.39845 25.8074L9.35742 22.4021C9.35742 22.0328 9.56256 21.7456 9.84976 21.7456H12.2294C12.5166 21.7456 12.7217 22.0328 12.7217 22.361L12.7627 25.7663C12.7627 26.1356 12.5576 26.4228 12.2704 26.4228H9.89078C9.64462 26.4638 9.39845 26.1766 9.39845 25.8074Z" fill="white"/>
<path fill-rule="evenodd" clip-rule="evenodd" d="M9.35548 20.269L9.31445 16.8637C9.31445 16.4945 9.51959 16.2073 9.80679 16.2073H12.1864C12.4736 16.2073 12.6787 16.4945 12.6787 16.8227L12.7198 20.228C12.7198 20.5973 12.5146 20.8844 12.2274 20.8844H9.84781C9.60165 20.8844 9.35548 20.5973 9.35548 20.269Z" fill="white"/>
<path fill-rule="evenodd" clip-rule="evenodd" d="M13.6231 31.3467L13.582 27.9414C13.582 27.5721 13.7872 27.2849 14.0744 27.2849H16.454C16.7412 27.2849 16.9463 27.5721 16.9463 27.9003L16.9873 31.3057C16.9873 31.6749 16.7822 31.9621 16.495 31.9621H14.1154C13.8692 32.0031 13.6231 31.7159 13.6231 31.3467Z" fill="white"/>
<path fill-rule="evenodd" clip-rule="evenodd" d="M13.582 25.8074L13.541 22.4021C13.541 22.0328 13.7462 21.7456 14.0333 21.7456H16.413C16.7002 21.7456 16.9053 22.0328 16.9053 22.361L16.9463 25.7663C16.9463 26.1356 16.7412 26.4228 16.454 26.4228H14.0744C13.8282 26.4228 13.582 26.1356 13.582 25.8074Z" fill="white"/>
<path fill-rule="evenodd" clip-rule="evenodd" d="M13.541 20.2275L13.5 16.8222C13.5 16.453 13.7051 16.1658 13.9923 16.1658H16.3719C16.6591 16.1658 16.8643 16.453 16.8643 16.7812L16.9053 20.1865C16.9053 20.5557 16.7002 20.8429 16.413 20.8429H14.0334C13.7872 20.884 13.541 20.5968 13.541 20.2275Z" fill="white"/>
<path fill-rule="evenodd" clip-rule="evenodd" d="M4.88478 14.6074L4.84375 11.2021C4.84375 10.8329 5.04889 10.5457 5.33608 10.5457H7.71569C8.00289 10.5457 8.20802 10.8328 8.20802 11.1611L8.24905 14.5664C8.24905 14.9356 8.04391 15.2228 7.75672 15.2228H5.37711C5.08992 15.2228 4.88478 14.9356 4.88478 14.6074Z" fill="white"/>
<path fill-rule="evenodd" clip-rule="evenodd" d="M9.31446 14.5246L9.27344 11.1193C9.27344 10.7501 9.47858 10.4629 9.76577 10.4629H12.1454C12.4326 10.4629 12.6377 10.7501 12.6377 11.0783L12.6787 14.5246C12.6787 14.8939 12.4736 15.1811 12.1864 15.1811H9.8068C9.56063 15.1811 9.31446 14.8939 9.31446 14.5246Z" fill="white"/>
<path fill-rule="evenodd" clip-rule="evenodd" d="M13.5 14.5246L13.459 11.1193C13.459 10.7501 13.6641 10.4629 13.9513 10.4629H16.3309C16.6181 10.4629 16.8233 10.7501 16.8233 11.0783L16.8643 14.4836C16.8643 14.8529 16.6591 15.1401 16.372 15.1401H13.9923C13.7462 15.1401 13.5 14.8529 13.5 14.5246Z" fill="white"/>
<path fill-rule="evenodd" clip-rule="evenodd" d="M17.6035 25.7671L17.5625 22.3618C17.5625 21.9925 17.7676 21.7053 18.0548 21.7053H20.4344C20.7216 21.7053 20.9268 21.9925 20.9268 22.3207L20.9678 25.726C20.9678 26.0953 20.7627 26.3825 20.4755 26.3825H18.0959C17.8497 26.3825 17.6035 26.0953 17.6035 25.7671Z" fill="white"/>
<path fill-rule="evenodd" clip-rule="evenodd" d="M17.5625 20.1872L17.5215 16.7819C17.5215 16.4127 17.7266 16.1255 18.0138 16.1255H20.3934C20.6806 16.1255 20.8858 16.4127 20.8858 16.7409L20.9268 20.1462C20.9268 20.5155 20.7216 20.8026 20.4345 20.8026H18.0548C17.8087 20.8437 17.6035 20.5565 17.5625 20.1872Z" fill="white"/>
<path fill-rule="evenodd" clip-rule="evenodd" d="M17.5195 14.4841L17.4785 11.0788C17.4785 10.7095 17.6837 10.4224 17.9708 10.4224H20.3505C20.6377 10.4224 20.8428 10.7096 20.8428 11.0378L20.8838 14.4431C20.8838 14.8123 20.6787 15.0995 20.3915 15.0995H18.0119C17.7657 15.0995 17.5606 14.8534 17.5195 14.4841Z" fill="white"/>
<path d="M19.5962 23.6557L14.8105 29.1724L15.3684 29.6563L20.154 24.1397L19.5962 23.6557Z" fill="white"/>
<path d="M19.1093 13.1628L14.3223 18.678L14.88 19.1621L19.6671 13.6469L19.1093 13.1628Z" fill="white"/>
<path d="M29.543 0.164551H32.538V10.9138H37.8306V13.4165H29.543V0.164551Z" fill="white"/>
<path d="M48.0062 7.83674H43.1239V10.9959H48.5806V13.4575H40.0879V0.164551H48.2934V2.62621H43.1239V5.37508H48.0062V7.83674Z" fill="white"/>
<path d="M62.2007 12.8417C61.2571 13.1699 59.5339 13.5802 57.7697 13.5802C55.3491 13.5802 53.5849 12.9648 52.3541 11.775C51.1232 10.6262 50.4668 8.90303 50.4668 6.9337C50.4668 2.5027 53.708 0 58.0569 0C59.7801 0 61.093 0.328237 61.7494 0.656459L61.134 3.07708C60.3955 2.74886 59.4929 2.50271 58.0569 2.50271C55.5542 2.50271 53.667 3.93868 53.667 6.81062C53.667 9.55948 55.3901 11.1595 57.8518 11.1595C58.5493 11.1595 59.0826 11.0775 59.3288 10.9544V8.16453H57.2774V5.82594H62.2007V12.8417Z" fill="white"/>
<path d="M68.1086 10.0522L67.165 13.4575H64.0469L68.1086 0.164551H72.0473L76.1501 13.4575H72.9089L71.8832 10.0522H68.1086ZM71.5139 7.7957L70.6934 4.9648C70.4472 4.18527 70.201 3.2006 70.0369 2.42108H69.9959C69.7908 3.2006 69.5856 4.2263 69.3805 4.9648L68.601 7.7957H71.5139Z" fill="white"/>
<path d="M78.4473 0.164551H81.4423V10.9138H86.7349V13.4165H78.4473V0.164551Z" fill="white"/>
</svg>
