<svg width="192" height="26" viewBox="0 0 192 26" fill="none" xmlns="http://www.w3.org/2000/svg">
<path d="M89.5292 19.5694H84.177C84.177 23.6008 87.1431 26 91.7662 26C96.1242 26 99.2891 23.8946 99.2891 19.8469C99.2891 15.626 95.6711 14.7084 92.9054 14.007L92.893 14.0038L92.8368 13.9898C91.09 13.5558 89.6949 13.2092 89.6949 12.1595C89.6949 11.2944 90.5731 10.9027 91.5011 10.9027C92.5616 10.9027 93.4563 11.4577 93.4563 12.6328H98.6594C98.6594 8.86256 96.0745 6.57756 91.5673 6.57756C87.1265 6.57756 84.409 8.6667 84.409 12.3227C84.409 16.51 87.8233 17.3503 90.529 18.0162L90.6063 18.0352C92.4124 18.4595 93.8706 18.8023 93.8706 19.9611C93.8706 20.973 92.8432 21.5443 91.7496 21.5443C90.5731 21.5443 89.5292 20.8914 89.5292 19.5694Z" fill="white"/>
<path d="M44.7397 20.8751V25.5593H32.7925V7.01823H38.0453V20.8751H44.7397Z" fill="white"/>
<path d="M78.3442 7.13248L83.5805 7.08352L81.1943 15.8644L78.3442 15.7828V7.13248Z" fill="white"/>
<path d="M59.073 25.543V21.1199H51.9809V18.3453H58.1616V14.1507H51.9809V11.425H58.8576V7.01823H46.811V25.543H59.073Z" fill="white"/>
<path d="M76.389 11.6045H71.2687V25.543H66.0657V11.6045H60.9454V7.01823H76.3724L76.389 11.6045Z" fill="white"/>
<path d="M112.048 25.5593L119.256 7.01823H113.357L109.612 18.5411L105.768 7.01823H99.8525L107.226 25.5593H112.048Z" fill="#06B47F"/>
<path d="M133.142 25.543V21.1199H126.05V18.3453H132.231V14.1507H126.05V11.425H132.927V7.01823H120.88V25.543H133.142Z" fill="#06B47F"/>
<path fill-rule="evenodd" clip-rule="evenodd" d="M142.405 19.8795H140.533V25.543H135.346V7.01823H143.499C147.558 7.01823 150.491 9.71127 150.491 13.5794C150.491 15.8481 149.365 17.7251 147.509 18.8186L151.237 25.5593H145.454L142.405 19.8795ZM140.533 15.5706H142.902C144.344 15.5706 145.189 14.7056 145.189 13.5468C145.189 12.388 144.36 11.5393 142.902 11.5393H140.533V15.5706Z" fill="#06B47F"/>
<path d="M158.014 7.01823H152.762V25.5593H158.014V7.01823Z" fill="#06B47F"/>
<path d="M165.454 11.6372V14.5914H171.503V19.0634H165.454V25.5593H160.218V7.01823H172.198V11.6372H165.454Z" fill="#06B47F"/>
<path d="M185.422 25.543V18.2963L192 7.01823H186.25L182.803 13.71L179.357 7.01823H173.607L180.136 18.28V25.543H185.422Z" fill="#06B47F"/>
<path d="M25.9159 3.08477L12.5769 17.5782L7.37378 11.8167H0L12.5769 25.5267L32.8258 3.06845L25.9159 3.08477Z" fill="#06B47F"/>
<path d="M10.0747 5.67988H4.07629L12.6597 14.9994L26.1811 3.05176e-05H20.4975L12.6597 8.5198L10.0747 5.67988Z" fill="white"/>
</svg>
