<svg width="25" height="25" viewBox="0 0 25 25" fill="none" xmlns="http://www.w3.org/2000/svg">
<path d="M21.135 1.93393C21.135 1.56746 21.4151 1.28722 21.7816 1.28722C22.148 1.28722 22.4282 1.56746 22.4282 1.93393V5.16749C22.4282 5.53396 22.148 5.8142 21.7816 5.8142H18.5485C18.1821 5.8142 17.9019 5.53396 17.9019 5.16749C17.9019 4.80102 18.1821 4.52078 18.5485 4.52078H20.3806C16.3716 0.554275 9.92712 0.166248 5.46554 3.78784C1.8661 6.69805 0.443568 11.4406 1.82299 15.8598C1.93076 16.2047 1.73678 16.5712 1.39192 16.679C1.32726 16.7005 1.2626 16.7005 1.19794 16.7005C0.917746 16.7005 0.659104 16.5281 0.57289 16.2478C-0.95741 11.3113 0.63755 6.02978 4.64651 2.77465C9.58226 -1.21341 16.6518 -0.825378 21.135 3.44292V1.93393Z" fill="white"/>
<path d="M11.479 23.6635C14.4103 23.9221 17.2769 23.0599 19.5616 21.206C23.1825 18.2742 24.6051 13.5101 23.161 9.09087C23.0532 8.74596 23.2257 8.37949 23.5705 8.2717C23.9154 8.16392 24.2818 8.33637 24.3895 8.68129C25.9845 13.6394 24.3895 18.9425 20.359 22.2191C18.1175 24.0299 15.3586 25 12.5136 25C12.1256 25 11.7376 24.9784 11.3497 24.9353C8.63392 24.6982 6.11216 23.5557 4.10768 21.7449V23.2754C4.10768 23.6419 3.82749 23.9221 3.46108 23.9221C3.09467 23.9221 2.81447 23.6419 2.81447 23.2754V20.0419C2.81447 19.6754 3.09467 19.3952 3.46108 19.3952H6.69411C7.06051 19.3952 7.34071 19.6754 7.34071 20.0419C7.34071 20.4083 7.06051 20.6886 6.69411 20.6886H4.86206C6.67255 22.3916 8.97878 23.4263 11.479 23.6635Z" fill="white"/>
</svg>
