<svg width="12" height="14" viewBox="0 0 12 14" fill="none" xmlns="http://www.w3.org/2000/svg">
<path d="M4.70144 14L10.673 14C11.0249 14 11.3625 13.8525 11.6113 13.5899C11.8602 13.3274 12 12.9713 12 12.6V1.4C12 1.0287 11.8602 0.672602 11.6113 0.410051C11.3625 0.1475 11.0249 -3.24603e-08 10.673 0L4.70144 5.50764e-07C4.3495 5.83224e-07 4.01197 0.147501 3.7631 0.410052C3.51424 0.672603 3.37443 1.0287 3.37443 1.4V2.1C3.37443 2.28565 3.44433 2.4637 3.56877 2.59498C3.6932 2.72625 3.86196 2.8 4.03794 2.8C4.21391 2.8 4.38267 2.72625 4.5071 2.59498C4.63154 2.4637 4.70144 2.28565 4.70144 2.1V1.4L10.673 1.4V12.6L4.70144 12.6V11.9C4.70144 11.7143 4.63154 11.5363 4.50711 11.405C4.38267 11.2738 4.21391 11.2 4.03794 11.2C3.86196 11.2 3.6932 11.2738 3.56877 11.405C3.44433 11.5363 3.37443 11.7143 3.37443 11.9V12.6C3.37443 12.9713 3.51424 13.3274 3.7631 13.5899C4.01197 13.8525 4.3495 14 4.70144 14Z" fill="white"/>
<path d="M2.57492 3.9936C2.83369 3.7206 3.2517 3.7206 3.51047 3.9936C3.6345 4.1246 3.70422 4.30215 3.70434 4.48731C3.70447 4.67247 3.63498 4.85012 3.51113 4.9813L2.26639 6.3001L8.01898 6.3001C8.19496 6.3001 8.36372 6.37385 8.48815 6.50513C8.61259 6.6364 8.68249 6.81445 8.68249 7.0001C8.68249 7.18575 8.61259 7.3638 8.48815 7.49508C8.36372 7.62635 8.19496 7.7001 8.01898 7.7001L2.26639 7.7001L3.51113 9.0189C3.62512 9.15197 3.6863 9.32615 3.68201 9.50545C3.67772 9.68475 3.60829 9.85546 3.48808 9.98229C3.36787 10.1091 3.20606 10.1824 3.0361 10.1869C2.86615 10.1914 2.70105 10.1269 2.57492 10.0066L0.194266 7.495C0.0698782 7.36373 1.5381e-08 7.18572 0 7.0001C-1.5381e-08 6.81449 0.0698782 6.63647 0.194266 6.5052L2.57492 3.9936Z" fill="white"/>
</svg>
