<svg width="246" height="36" viewBox="0 0 246 36" fill="none" xmlns="http://www.w3.org/2000/svg">
<path d="M21.6408 28.8656V21.6492H14.4272V28.8656H7.2136V21.6492V14.4328V7.21639V0H0V36H21.6408V28.8656Z" fill="#00AEEF"/>
<path d="M14.4272 3.05176e-05V7.21642V14.4328H21.6408V7.21642H28.8544V14.4328V21.6492V28.8656V36H35.9861V3.05176e-05H14.4272Z" fill="#0086CC"/>
<path d="M63.1193 14.9248H54.922V7.21639H49.3479V28.8656H54.922V19.8451H63.1193V28.8656H68.6935V7.21639H63.1193V14.9248ZM83.5305 6.80637C80.2516 6.80637 77.5465 7.87243 75.4152 10.0865C73.2839 12.3007 72.1363 14.9248 72.1363 18.041C72.1363 21.1572 73.202 23.7813 75.4152 25.9954C77.5465 28.2095 80.2516 29.2756 83.5305 29.2756C86.8094 29.2756 89.5145 28.2095 91.6458 25.9954C93.7771 23.7813 94.9247 21.1572 94.9247 18.041C94.9247 14.9248 93.8591 12.3007 91.6458 10.0865C89.5145 7.87243 86.7274 6.80637 83.5305 6.80637ZM87.5472 22.3872C86.4815 23.5353 85.17 24.1093 83.5305 24.1093C81.8911 24.1093 80.4975 23.5353 79.4319 22.3872C78.3662 21.2392 77.7924 19.7631 77.7924 18.041C77.7924 16.3189 78.2843 14.7608 79.4319 13.6947C80.4975 12.5467 81.8911 11.9727 83.5305 11.9727C85.17 11.9727 86.4815 12.5467 87.5472 13.6947C88.6128 14.8428 89.1866 16.3189 89.1866 18.041C89.1866 19.7631 88.6128 21.2392 87.5472 22.3872ZM111.483 20.0911C111.483 22.8792 109.844 24.1913 107.549 24.1913C105.335 24.1913 103.614 22.8792 103.614 20.0911V7.21639H98.0397V19.7631C98.0397 22.7972 98.9414 25.0934 100.745 26.7335C102.548 28.3735 104.761 29.1936 107.549 29.1936C110.336 29.1936 112.549 28.3735 114.352 26.7335C116.156 25.0934 117.057 22.7152 117.057 19.7631V7.21639H111.483V20.0911ZM138.78 13.8588C138.78 11.8906 138.042 10.3326 136.649 9.1025C135.255 7.87243 133.37 7.21639 130.993 7.21639H120.828V28.8656H126.402V20.5831H128.615L134.763 28.8656H141.157L134.599 20.0091C137.223 18.943 138.78 16.7289 138.78 13.8588ZM130.747 16.0729H126.484V11.9727H130.747C132.222 11.9727 133.206 12.7927 133.206 14.1048C133.206 15.2528 132.222 16.0729 130.747 16.0729ZM157.224 23.2893C156.404 23.9453 155.257 24.2733 153.781 24.2733C152.06 24.2733 150.666 23.6993 149.519 22.6332C148.371 21.4852 147.797 20.0091 147.797 18.123C147.797 16.2369 148.453 14.7608 149.682 13.6127C150.912 12.4647 152.552 11.8906 154.519 11.8906C156.486 11.8906 158.454 12.4647 160.421 13.5307V8.28245C158.454 7.2984 156.404 6.72437 154.109 6.72437C150.666 6.72437 147.797 7.79042 145.502 9.84054C143.289 11.9727 142.141 14.5968 142.141 17.959C142.141 21.2392 143.289 23.9453 145.502 26.0774C147.715 28.2095 150.584 29.1936 153.863 29.1936C155.748 29.1936 157.47 28.8656 159.109 28.2095C160.749 27.5535 161.978 26.7335 162.88 25.7494V16.2369H157.306V23.2893H157.224ZM172.471 7.21639H166.897V28.8656H182.799V24.0273H172.389V7.21639H172.471ZM193.046 7.05238L183.947 28.7836H189.849L191.652 24.1913H199.686L201.489 28.7836H207.473L198.374 7.05238H193.046ZM193.374 19.8451L195.587 14.1048L197.8 19.8451H193.374ZM224.524 17.959C223.376 16.9749 221.736 16.0729 219.687 15.4168C218.785 15.1708 217.392 14.7608 216.736 14.5148L215.752 14.1868C215.097 13.9408 214.851 13.6127 214.851 13.2027C214.851 12.2187 215.834 11.8086 217.72 11.8086C218.949 11.8086 220.179 12.0547 221.572 12.4647C222.884 12.8747 224.032 13.3667 225.015 13.9408V8.61047C222.802 7.3804 220.343 6.80637 217.72 6.80637C212.556 6.80637 209.195 9.1025 209.195 13.2847C209.195 14.5148 209.605 15.6629 209.932 16.4829C210.424 17.2209 211.408 17.959 212.064 18.451C212.392 18.697 212.883 18.861 213.457 19.107L214.769 19.6811L216.326 20.1731L218.294 20.7471C218.703 20.9111 219.441 21.0751 219.687 21.3212C220.179 21.6492 220.507 21.9772 220.507 22.5512C220.507 23.6993 219.359 24.2733 217.228 24.2733C215.834 24.2733 214.359 24.0273 212.801 23.3713C211.244 22.7972 210.014 22.1412 209.113 21.2392V26.8975C211.326 28.4556 214.113 29.1936 217.474 29.1936C220.097 29.1936 222.228 28.5376 223.868 27.3075C225.507 26.0774 226.327 24.3553 226.327 22.2232C226.245 20.4191 225.671 19.025 224.524 17.959ZM244.115 17.959C242.967 16.9749 241.328 16.0729 239.279 15.4168C238.377 15.1708 236.983 14.7608 236.328 14.5148L235.344 14.1868C234.688 13.9408 234.442 13.6127 234.442 13.2027C234.442 12.2187 235.426 11.8086 237.311 11.8086C238.541 11.8086 239.77 12.0547 241.164 12.4647C242.476 12.8747 243.623 13.3667 244.607 13.9408V8.61047C242.394 7.3804 239.934 6.80637 237.311 6.80637C232.147 6.80637 228.786 9.1025 228.786 13.2847C228.786 14.5148 229.196 15.6629 229.524 16.4829C230.016 17.2209 230.999 17.959 231.655 18.451C231.983 18.697 232.475 18.861 233.049 19.107L234.442 19.6811L236 20.1731L237.967 20.7471C238.377 20.9111 239.115 21.0751 239.361 21.3212C239.852 21.6492 240.18 21.9772 240.18 22.5512C240.18 23.6993 239.033 24.2733 236.901 24.2733C235.508 24.2733 234.032 24.0273 232.475 23.3713C230.917 22.7972 229.688 22.1412 228.786 21.2392V26.8975C230.999 28.4556 233.786 29.1936 237.147 29.1936C239.77 29.1936 241.902 28.5376 243.541 27.3075C245.181 26.0774 246 24.3553 246 22.2232C245.918 20.4191 245.345 19.025 244.115 17.959Z" fill="white"/>
</svg>
