<svg width="521" height="79" viewBox="0 0 521 79" fill="none" xmlns="http://www.w3.org/2000/svg">
<path d="M45.8327 63.3438V47.5079H30.5551V63.3438H15.2776V47.5079V31.6719V15.836V0H0V78.9998H45.8327V63.3438Z" fill="white"/>
<path d="M30.5542 0.000183105V15.8361V31.6721H45.8318V15.8361H61.1093V31.6721V47.5081V63.344V79H76.2133V0.000183105H30.5542Z" fill="white"/>
<path d="M133.679 32.7516H116.318V15.836H104.513V63.3438H116.318V43.5489H133.679V63.3438H145.485V15.836H133.679V32.7516ZM176.908 14.9362C169.963 14.9362 164.234 17.2756 159.72 22.1343C155.207 26.9931 152.776 32.7516 152.776 39.5899C152.776 46.4281 155.033 52.1867 159.72 57.0454C164.234 61.9042 169.963 64.2436 176.908 64.2436C183.852 64.2436 189.581 61.9042 194.095 57.0454C198.609 52.1867 201.039 46.4281 201.039 39.5899C201.039 32.7516 198.782 26.9931 194.095 22.1343C189.581 17.2756 183.678 14.9362 176.908 14.9362ZM185.415 49.1274C183.158 51.6468 180.38 52.9065 176.908 52.9065C173.436 52.9065 170.484 51.6468 168.227 49.1274C165.97 46.6081 164.755 43.3689 164.755 39.5899C164.755 35.8109 165.797 32.3917 168.227 30.0523C170.484 27.533 173.436 26.2733 176.908 26.2733C180.38 26.2733 183.158 27.533 185.415 30.0523C187.671 32.5717 188.887 35.8109 188.887 39.5899C188.887 43.3689 187.671 46.6081 185.415 49.1274ZM236.108 44.0887C236.108 50.2072 232.636 53.0864 227.775 53.0864C223.088 53.0864 219.442 50.2072 219.442 44.0887V15.836H207.636V43.3689C207.636 50.0272 209.546 55.0659 213.366 58.665C217.185 62.2641 221.872 64.0636 227.775 64.0636C233.678 64.0636 238.365 62.2641 242.185 58.665C246.004 55.0659 247.914 49.8473 247.914 43.3689V15.836H236.108V44.0887ZM293.92 30.4122C293.92 26.0933 292.357 22.6742 289.406 19.9749C286.455 17.2756 282.462 15.836 277.427 15.836H255.9V63.3438H267.705V45.1685H272.392L285.413 63.3438H298.955L285.066 43.9088C290.621 41.5694 293.92 36.7106 293.92 30.4122ZM276.906 35.271H267.879V26.2733H276.906C280.031 26.2733 282.115 28.0728 282.115 30.9521C282.115 33.4714 280.031 35.271 276.906 35.271ZM332.982 51.1069C331.246 52.5466 328.815 53.2664 325.69 53.2664C322.044 53.2664 319.093 52.0067 316.663 49.6673C314.232 47.148 313.017 43.9088 313.017 39.7698C313.017 35.6309 314.406 32.3917 317.01 29.8724C319.614 27.353 323.086 26.0933 327.253 26.0933C331.419 26.0933 335.586 27.353 339.753 29.6924V18.1754C335.586 16.0159 331.246 14.7562 326.385 14.7562C319.093 14.7562 313.017 17.0956 308.156 21.5945C303.468 26.2733 301.038 32.0318 301.038 39.4099C301.038 46.6081 303.468 52.5466 308.156 57.2254C312.843 61.9042 318.92 64.0636 325.864 64.0636C329.857 64.0636 333.503 63.3438 336.975 61.9042C340.447 60.4646 343.051 58.665 344.961 56.5056V35.6309H333.155V51.1069H332.982ZM365.273 15.836H353.468V63.3438H387.148V52.7265H365.099V15.836H365.273ZM408.849 15.476L389.578 63.1639H402.078L405.897 53.0864H422.911L426.73 63.1639H439.404L420.133 15.476H408.849ZM409.543 43.5489L414.231 30.9521L418.918 43.5489H409.543ZM475.514 39.4099C473.084 37.2505 469.612 35.271 465.272 33.8314C463.362 33.2915 460.41 32.3917 459.022 31.8519L456.938 31.132C455.549 30.5922 455.029 29.8724 455.029 28.9726C455.029 26.8131 457.112 25.9134 461.105 25.9134C463.709 25.9134 466.313 26.4532 469.264 27.353C472.042 28.2528 474.473 29.3325 476.556 30.5922V18.8952C471.869 16.1959 466.66 14.9362 461.105 14.9362C450.168 14.9362 443.05 19.9749 443.05 29.1526C443.05 31.8519 443.918 34.3712 444.612 36.1708C445.654 37.7903 447.737 39.4099 449.126 40.4897C449.82 41.0295 450.862 41.3894 452.077 41.9293L454.855 43.189L458.154 44.2687L462.32 45.5284C463.188 45.8883 464.751 46.2482 465.272 46.788C466.313 47.5079 467.008 48.2277 467.008 49.4874C467.008 52.0067 464.577 53.2664 460.063 53.2664C457.112 53.2664 453.987 52.7265 450.688 51.2869C447.39 50.0272 444.786 48.5876 442.876 46.6081V59.0249C447.563 62.444 453.466 64.0636 460.584 64.0636C466.14 64.0636 470.653 62.624 474.126 59.9247C477.598 57.2254 479.334 53.4464 479.334 48.7675C479.16 44.8086 477.945 41.7493 475.514 39.4099ZM517.007 39.4099C514.576 37.2505 511.104 35.271 506.764 33.8314C504.854 33.2915 501.903 32.3917 500.514 31.8519L498.431 31.132C497.042 30.5922 496.521 29.8724 496.521 28.9726C496.521 26.8131 498.604 25.9134 502.597 25.9134C505.201 25.9134 507.806 26.4532 510.757 27.353C513.535 28.2528 515.965 29.3325 518.049 30.5922V18.8952C513.361 16.1959 508.153 14.9362 502.597 14.9362C491.66 14.9362 484.542 19.9749 484.542 29.1526C484.542 31.8519 485.41 34.3712 486.105 36.1708C487.146 37.7903 489.23 39.4099 490.618 40.4897C491.313 41.0295 492.354 41.3894 493.57 41.9293L496.521 43.189L499.82 44.2687L503.986 45.5284C504.854 45.8883 506.417 46.2482 506.938 46.788C507.979 47.5079 508.674 48.2277 508.674 49.4874C508.674 52.0067 506.243 53.2664 501.729 53.2664C498.778 53.2664 495.653 52.7265 492.354 51.2869C489.056 50.0272 486.452 48.5876 484.542 46.6081V59.0249C489.23 62.444 495.132 64.0636 502.25 64.0636C507.806 64.0636 512.319 62.624 515.792 59.9247C519.264 57.2254 521 53.4464 521 48.7675C520.826 44.8086 519.611 41.7493 517.007 39.4099Z" fill="white"/>
</svg>
