<svg width="73" height="16" viewBox="0 0 73 16" fill="none" xmlns="http://www.w3.org/2000/svg">
<path d="M9.42918 0V16L13.432 12.7355V2.22188L9.42918 0Z" fill="#563E94"/>
<path d="M7.56766 12.512L4.31916 13.9519V1.37783L7.56766 2.35843V12.512Z" fill="#563E94"/>
<path d="M2.45766 11.4817L0 12.1396V3.05348L2.45766 3.45068V11.4817Z" fill="#563E94"/>
<path d="M26.645 2.22192L23.2261 7.94419L19.7708 2.22192H17.9458V12.7355H19.6613V5.05202L23.1896 10.8364L26.718 5.01479V12.7355H28.4335V2.22192H26.645Z" fill="#040000"/>
<path fill-rule="evenodd" clip-rule="evenodd" d="M34.2006 12.7356L34.1884 11.7922C33.6774 12.5618 32.8379 12.9218 31.9376 12.9218C30.6236 12.9218 29.7111 12.0529 29.7111 10.7992C29.7111 9.43378 30.5627 8.61454 32.2661 8.35388L34.1397 8.05597V7.93184C34.1397 7.14984 33.5679 6.7154 32.5824 6.7154C31.6334 6.7154 30.8304 7.12502 30.1369 7.77048V6.06994C30.7696 5.5486 31.6456 5.20105 32.7041 5.20105C34.7237 5.20105 35.8187 6.25613 35.8187 8.00632V12.7356H34.2006ZM32.3512 11.5067C33.4097 11.5067 34.1519 10.7992 34.1519 9.79375V9.38413L32.5459 9.65721C31.7672 9.79375 31.3657 10.1413 31.3657 10.6626C31.3779 11.1964 31.7672 11.5067 32.3512 11.5067Z" fill="#040000"/>
<path d="M41.0262 6.97602C41.2452 6.97602 41.3912 6.98844 41.4642 7.03809H41.4764V5.27548C41.4399 5.23825 41.3425 5.22583 41.1479 5.22583C40.1989 5.22583 39.3472 5.78441 38.9944 6.64088V5.37478H37.3154V12.7355H39.0065V9.4834C39.0065 7.96904 39.773 6.97602 41.0262 6.97602Z" fill="#040000"/>
<path d="M42.559 2.22192V12.7355H44.2502V9.81851L44.6273 9.47095L47.2067 12.7355H49.2993L45.917 8.57723L49.056 5.37475H46.9633L44.2502 8.1552V2.22192H42.559Z" fill="#040000"/>
<path fill-rule="evenodd" clip-rule="evenodd" d="M52.9249 12.9216C54.0077 12.9216 54.9567 12.6237 55.711 12.1396H55.6989V10.4391C54.835 11.097 53.9469 11.4321 53.0344 11.4321C51.6839 11.4321 50.8565 10.6129 50.7227 9.59501H56.076C56.1247 9.37159 56.1247 9.23505 56.1247 8.9992C56.1247 6.82698 54.762 5.20091 52.6572 5.20091C50.5402 5.20091 49.0315 6.83939 49.0315 9.04885C49.0315 11.2707 50.5402 12.9216 52.9249 12.9216ZM52.6329 6.60355C53.6427 6.60355 54.3605 7.29866 54.4579 8.30409H50.7349C50.8444 7.4352 51.5987 6.60355 52.6329 6.60355Z" fill="#040000"/>
<path d="M60.4194 11.3204C60.6992 11.3204 60.9912 11.2583 61.2102 11.097V12.6486C60.9304 12.8099 60.5045 12.9216 59.9084 12.9216C58.4484 12.9216 57.5967 12.0155 57.5967 10.4763V6.85183H56.3314L59.3122 2.97906V5.37472H61.2224V6.85183H59.3122V10.1536C59.3 10.9853 59.6529 11.3204 60.4194 11.3204Z" fill="#040000"/>
<path fill-rule="evenodd" clip-rule="evenodd" d="M65.5781 12.9216C67.7924 12.9216 69.4227 11.2211 69.4227 9.06127C69.4227 6.88904 67.7924 5.20091 65.5781 5.20091C63.3637 5.20091 61.7334 6.90145 61.7334 9.06127C61.7334 11.2211 63.3637 12.9216 65.5781 12.9216ZM65.5781 11.3328C64.3736 11.3328 63.4246 10.3274 63.4246 9.06127C63.4246 7.79517 64.3736 6.78974 65.5781 6.78974C66.7826 6.78974 67.7316 7.79517 67.7316 9.06127C67.7316 10.3274 66.7826 11.3328 65.5781 11.3328Z" fill="#040000"/>
<path d="M69.4716 3.89771H70.7734V4.1832H70.2746V5.72237H69.9582V4.1832H69.4716V3.89771Z" fill="#040000"/>
<path d="M71.467 5.73479V4.39421L72.0267 5.22586H72.1727L72.708 4.39421V5.73479H73V3.89771H72.6837L72.0875 4.82866L71.4792 3.89771H71.1629V5.73479H71.467Z" fill="#040000"/>
</svg>
