<svg width="243" height="225" viewBox="0 0 243 225" fill="none" xmlns="http://www.w3.org/2000/svg">
<g clip-path="url(#clip0)">
<rect width="243" height="225" fill="white"/>
<rect y="-57" width="1366" height="724" fill="url(#paint0_linear)"/>
<rect x="226" y="209" width="15" height="15" rx="3" fill="#032B4C"/>
<rect x="210" y="209" width="15" height="15" rx="3" fill="#032B4C"/>
<rect x="194" y="209" width="15" height="15" rx="3" fill="#032B4C"/>
<rect x="178" y="209" width="15" height="15" rx="3" fill="#032B4C"/>
<rect x="162" y="209" width="15" height="15" rx="3" fill="#032B4C"/>
<rect x="146" y="209" width="15" height="15" rx="3" fill="#032B4C"/>
<rect x="130" y="209" width="15" height="15" rx="3" fill="#032B4C"/>
<rect x="114" y="209" width="15" height="15" rx="3" fill="#032B4C"/>
<rect x="98" y="209" width="15" height="15" rx="3" fill="#032B4C"/>
<rect x="82" y="209" width="15" height="15" rx="3" fill="#032B4C"/>
<rect x="66" y="209" width="15" height="15" rx="3" fill="#032B4C"/>
<rect x="50" y="209" width="15" height="15" rx="3" fill="#032B4C"/>
<rect x="34" y="209" width="15" height="15" rx="3" fill="#032B4C"/>
<rect x="18" y="209" width="15" height="15" rx="3" fill="#032B4C"/>
<rect x="2" y="209" width="15" height="15" rx="3" fill="#032B4C"/>
<rect x="226" y="193" width="15" height="15" rx="3" fill="#032B4C"/>
<rect x="210" y="193" width="15" height="15" rx="3" fill="#032B4C"/>
<rect x="18" y="193" width="15" height="15" rx="3" fill="#032B4C"/>
<rect x="2" y="193" width="15" height="15" rx="3" fill="#032B4C"/>
<rect x="194" y="193" width="15" height="15" rx="3" fill="#032B4C"/>
<rect x="178" y="193" width="15" height="15" rx="3" fill="#032B4C"/>
<rect x="162" y="193" width="15" height="15" rx="3" fill="#032B4C"/>
<rect x="146" y="193" width="15" height="15" rx="3" fill="#032B4C"/>
<rect x="130" y="193" width="15" height="15" rx="3" fill="#032B4C"/>
<rect x="114" y="193" width="15" height="15" rx="3" fill="#032B4C"/>
<rect x="98" y="193" width="15" height="15" rx="3" fill="#032B4C"/>
<rect x="82" y="193" width="15" height="15" rx="3" fill="#032B4C"/>
<rect x="66" y="193" width="15" height="15" rx="3" fill="#032B4C"/>
<rect x="50" y="193" width="15" height="15" rx="3" fill="#032B4C"/>
<rect x="34" y="193" width="15" height="15" rx="3" fill="#032B4C"/>
<rect x="226" y="177" width="15" height="15" rx="3" fill="#032B4C"/>
<rect x="210" y="177" width="15" height="15" rx="3" fill="#032B4C"/>
<rect x="18" y="177" width="15" height="15" rx="3" fill="#032B4C"/>
<rect x="2" y="177" width="15" height="15" rx="3" fill="#032B4C"/>
<rect x="194" y="177" width="15" height="15" rx="3" fill="#032B4C"/>
<rect x="178" y="177" width="15" height="15" rx="3" fill="#032B4C"/>
<rect x="162" y="177" width="15" height="15" rx="3" fill="#032B4C"/>
<rect x="146" y="177" width="15" height="15" rx="3" fill="#032B4C"/>
<rect x="130" y="177" width="15" height="15" rx="3" fill="#032B4C"/>
<rect x="114" y="177" width="15" height="15" rx="3" fill="#032B4C"/>
<rect x="98" y="177" width="15" height="15" rx="3" fill="#032B4C"/>
<rect x="82" y="177" width="15" height="15" rx="3" fill="#032B4C"/>
<rect x="66" y="177" width="15" height="15" rx="3" fill="#032B4C"/>
<rect x="50" y="177" width="15" height="15" rx="3" fill="#032B4C"/>
<rect x="34" y="177" width="15" height="15" rx="3" fill="#032B4C"/>
<rect x="226" y="161" width="15" height="15" rx="3" fill="#032B4C"/>
<rect x="210" y="161" width="15" height="15" rx="3" fill="#032B4C"/>
<rect x="18" y="161" width="15" height="15" rx="3" fill="#032B4C"/>
<rect x="2" y="161" width="15" height="15" rx="3" fill="#032B4C"/>
<rect x="194" y="161" width="15" height="15" rx="3" fill="#032B4C"/>
<rect x="178" y="161" width="15" height="15" rx="3" fill="#032B4C"/>
<rect x="162" y="161" width="15" height="15" rx="3" fill="#032B4C"/>
<rect x="146" y="161" width="15" height="15" rx="3" fill="#032B4C"/>
<rect x="130" y="161" width="15" height="15" rx="3" fill="#032B4C"/>
<rect x="114" y="161" width="15" height="15" rx="3" fill="#032B4C"/>
<rect x="98" y="161" width="15" height="15" rx="3" fill="#032B4C"/>
<rect x="82" y="161" width="15" height="15" rx="3" fill="#032B4C"/>
<rect x="66" y="161" width="15" height="15" rx="3" fill="#032B4C"/>
<rect x="50" y="161" width="15" height="15" rx="3" fill="#032B4C"/>
<rect x="34" y="161" width="15" height="15" rx="3" fill="#032B4C"/>
<rect x="226" y="145" width="15" height="15" rx="3" fill="#032B4C"/>
<rect x="210" y="145" width="15" height="15" rx="3" fill="#032B4C"/>
<rect x="194" y="145" width="15" height="15" rx="3" fill="#032B4C"/>
<rect x="34" y="145" width="15" height="15" rx="3" fill="#032B4C"/>
<rect x="18" y="145" width="15" height="15" rx="3" fill="#032B4C"/>
<rect x="2" y="145" width="15" height="15" rx="3" fill="#032B4C"/>
<rect x="178" y="145" width="15" height="15" rx="3" fill="#032B4C"/>
<rect x="162" y="145" width="15" height="15" rx="3" fill="#032B4C"/>
<rect x="146" y="145" width="15" height="15" rx="3" fill="#032B4C"/>
<rect x="130" y="145" width="15" height="15" rx="3" fill="#032B4C"/>
<rect x="114" y="145" width="15" height="15" rx="3" fill="#032B4C"/>
<rect x="98" y="145" width="15" height="15" rx="3" fill="#032B4C"/>
<rect x="82" y="145" width="15" height="15" rx="3" fill="#032B4C"/>
<rect x="66" y="145" width="15" height="15" rx="3" fill="#032B4C"/>
<rect x="50" y="145" width="15" height="15" rx="3" fill="#032B4C"/>
<rect x="226" y="129" width="15" height="15" rx="3" fill="#032B4C"/>
<rect x="210" y="129" width="15" height="15" rx="3" fill="#032B4C"/>
<rect x="194" y="129" width="15" height="15" rx="3" fill="#032B4C"/>
<rect x="178" y="129" width="15" height="15" rx="3" fill="#032B4C"/>
<rect x="50" y="129" width="15" height="15" rx="3" fill="#032B4C"/>
<rect x="34" y="129" width="15" height="15" rx="3" fill="#032B4C"/>
<rect x="18" y="129" width="15" height="15" rx="3" fill="#032B4C"/>
<rect x="2" y="129" width="15" height="15" rx="3" fill="#032B4C"/>
<rect x="162" y="129" width="15" height="15" rx="3" fill="#032B4C"/>
<rect x="146" y="129" width="15" height="15" rx="3" fill="#032B4C"/>
<rect x="130" y="129" width="15" height="15" rx="3" fill="#032B4C"/>
<rect x="114" y="129" width="15" height="15" rx="3" fill="#032B4C"/>
<rect x="98" y="129" width="15" height="15" rx="3" fill="#032B4C"/>
<rect x="82" y="129" width="15" height="15" rx="3" fill="#032B4C"/>
<rect x="66" y="129" width="15" height="15" rx="3" fill="#032B4C"/>
<rect x="226" y="113" width="15" height="15" rx="3" fill="#032B4C"/>
<rect x="210" y="113" width="15" height="15" rx="3" fill="#032B4C"/>
<rect x="194" y="113" width="15" height="15" rx="3" fill="#032B4C"/>
<rect x="178" y="113" width="15" height="15" rx="3" fill="#032B4C"/>
<rect x="162" y="113" width="15" height="15" rx="3" fill="#032B4C"/>
<rect x="66" y="113" width="15" height="15" rx="3" fill="#032B4C"/>
<rect x="50" y="113" width="15" height="15" rx="3" fill="#032B4C"/>
<rect x="34" y="113" width="15" height="15" rx="3" fill="#032B4C"/>
<rect x="18" y="113" width="15" height="15" rx="3" fill="#032B4C"/>
<rect x="2" y="113" width="15" height="15" rx="3" fill="#032B4C"/>
<rect x="146" y="113" width="15" height="15" rx="3" fill="#032B4C"/>
<rect x="130" y="113" width="15" height="15" rx="3" fill="#032B4C"/>
<rect x="114" y="113" width="15" height="15" rx="3" fill="#032B4C"/>
<rect x="98" y="113" width="15" height="15" rx="3" fill="#032B4C"/>
<rect x="82" y="113" width="15" height="15" rx="3" fill="#032B4C"/>
<rect x="226" y="97" width="15" height="15" rx="3" fill="#032B4C"/>
<rect x="178" y="97" width="15" height="15" rx="3" fill="#032B4C"/>
<rect x="162" y="97" width="15" height="15" rx="3" fill="#032B4C"/>
<rect x="146" y="97" width="15" height="15" rx="3" fill="#032B4C"/>
<rect x="82" y="97" width="15" height="15" rx="3" fill="#032B4C"/>
<rect x="66" y="97" width="15" height="15" rx="3" fill="#032B4C"/>
<rect x="50" y="97" width="15" height="15" rx="3" fill="#032B4C"/>
<rect x="34" y="97" width="15" height="15" rx="3" fill="#032B4C"/>
<rect x="18" y="97" width="15" height="15" rx="3" fill="#032B4C"/>
<rect x="2" y="97" width="15" height="15" rx="3" fill="#032B4C"/>
<rect x="210" y="97" width="15" height="15" rx="3" fill="#032B4C"/>
<rect x="194" y="97" width="15" height="15" rx="3" fill="#032B4C"/>
<rect x="130" y="97" width="15" height="15" rx="3" fill="#032B4C"/>
<rect x="114" y="97" width="15" height="15" rx="3" fill="#032B4C"/>
<rect x="98" y="97" width="15" height="15" rx="3" fill="#032B4C"/>
<rect x="226" y="81" width="15" height="15" rx="3" fill="#032B4C"/>
<rect x="178" y="81" width="15" height="15" rx="3" fill="#032B4C"/>
<rect x="162" y="81" width="15" height="15" rx="3" fill="#032B4C"/>
<rect x="66" y="81" width="15" height="15" rx="3" fill="#032B4C"/>
<rect x="50" y="81" width="15" height="15" rx="3" fill="#032B4C"/>
<rect x="34" y="81" width="15" height="15" rx="3" fill="#032B4C"/>
<rect x="18" y="81" width="15" height="15" rx="3" fill="#032B4C"/>
<rect x="2" y="81" width="15" height="15" rx="3" fill="#032B4C"/>
<rect x="210" y="81" width="15" height="15" rx="3" fill="#032B4C"/>
<rect x="194" y="81" width="15" height="15" rx="3" fill="#032B4C"/>
<rect x="146" y="81" width="15" height="15" rx="3" fill="#032B4C"/>
<rect x="130" y="81" width="15" height="15" rx="3" fill="#032B4C"/>
<rect x="114" y="81" width="15" height="15" rx="3" fill="#032B4C"/>
<rect x="98" y="81" width="15" height="15" rx="3" fill="#032B4C"/>
<rect x="82" y="81" width="15" height="15" rx="3" fill="#032B4C"/>
<rect x="226" y="65" width="15" height="15" rx="3" fill="#032B4C"/>
<rect x="178" y="65" width="15" height="15" rx="3" fill="#032B4C"/>
<rect x="50" y="65" width="15" height="15" rx="3" fill="#032B4C"/>
<rect x="34" y="65" width="15" height="15" rx="3" fill="#032B4C"/>
<rect x="18" y="65" width="15" height="15" rx="3" fill="#032B4C"/>
<rect x="2" y="65" width="15" height="15" rx="3" fill="#032B4C"/>
<rect x="210" y="65" width="15" height="15" rx="3" fill="#032B4C"/>
<rect x="194" y="65" width="15" height="15" rx="3" fill="#032B4C"/>
<rect x="162" y="65" width="15" height="15" rx="3" fill="#032B4C"/>
<rect x="146" y="65" width="15" height="15" rx="3" fill="#032B4C"/>
<rect x="130" y="65" width="15" height="15" rx="3" fill="#032B4C"/>
<rect x="114" y="65" width="15" height="15" rx="3" fill="#032B4C"/>
<rect x="98" y="65" width="15" height="15" rx="3" fill="#032B4C"/>
<rect x="82" y="65" width="15" height="15" rx="3" fill="#032B4C"/>
<rect x="66" y="65" width="15" height="15" rx="3" fill="#032B4C"/>
<rect x="226" y="49" width="15" height="15" rx="3" fill="#032B4C"/>
<rect x="34" y="49" width="15" height="15" rx="3" fill="#032B4C"/>
<rect x="18" y="49" width="15" height="15" rx="3" fill="#032B4C"/>
<rect x="2" y="49" width="15" height="15" rx="3" fill="#032B4C"/>
<rect x="210" y="49" width="15" height="15" rx="3" fill="#032B4C"/>
<rect x="194" y="49" width="15" height="15" rx="3" fill="#032B4C"/>
<rect x="178" y="49" width="15" height="15" rx="3" fill="#032B4C"/>
<rect x="162" y="49" width="15" height="15" rx="3" fill="#032B4C"/>
<rect x="146" y="49" width="15" height="15" rx="3" fill="#032B4C"/>
<rect x="130" y="49" width="15" height="15" rx="3" fill="#032B4C"/>
<rect x="114" y="49" width="15" height="15" rx="3" fill="#032B4C"/>
<rect x="98" y="49" width="15" height="15" rx="3" fill="#032B4C"/>
<rect x="82" y="49" width="15" height="15" rx="3" fill="#032B4C"/>
<rect x="66" y="49" width="15" height="15" rx="3" fill="#032B4C"/>
<rect x="50" y="49" width="15" height="15" rx="3" fill="#032B4C"/>
<rect x="226" y="33" width="15" height="15" rx="3" fill="#032B4C"/>
<rect x="18" y="33" width="15" height="15" rx="3" fill="#032B4C"/>
<rect x="2" y="33" width="15" height="15" rx="3" fill="#032B4C"/>
<rect x="210" y="33" width="15" height="15" rx="3" fill="#032B4C"/>
<rect x="178" y="33" width="15" height="15" rx="3" fill="#032B4C"/>
<rect x="162" y="33" width="15" height="15" rx="3" fill="#032B4C"/>
<rect x="146" y="33" width="15" height="15" rx="3" fill="#032B4C"/>
<rect x="130" y="33" width="15" height="15" rx="3" fill="#032B4C"/>
<rect x="114" y="33" width="15" height="15" rx="3" fill="#032B4C"/>
<rect x="98" y="33" width="15" height="15" rx="3" fill="#032B4C"/>
<rect x="82" y="33" width="15" height="15" rx="3" fill="#032B4C"/>
<rect x="66" y="33" width="15" height="15" rx="3" fill="#032B4C"/>
<rect x="50" y="33" width="15" height="15" rx="3" fill="#032B4C"/>
<rect x="34" y="33" width="15" height="15" rx="3" fill="#032B4C"/>
<rect x="194" y="33" width="15" height="15" rx="3" fill="#032B4C"/>
<rect x="18" y="17" width="15" height="15" rx="3" fill="#032B4C"/>
<rect x="2" y="17" width="15" height="15" rx="3" fill="#032B4C"/>
<rect x="226" y="17" width="15" height="15" rx="3" fill="#032B4C"/>
<rect x="210" y="17" width="15" height="15" rx="3" fill="#032B4C"/>
<rect x="114" y="17" width="15" height="15" rx="3" fill="#032B4C"/>
<rect x="98" y="17" width="15" height="15" rx="3" fill="#032B4C"/>
<rect x="82" y="17" width="15" height="15" rx="3" fill="#032B4C"/>
<rect x="66" y="17" width="15" height="15" rx="3" fill="#032B4C"/>
<rect x="50" y="17" width="15" height="15" rx="3" fill="#032B4C"/>
<rect x="34" y="17" width="15" height="15" rx="3" fill="#032B4C"/>
<rect x="178" y="17" width="15" height="15" rx="3" fill="#032B4C"/>
<rect x="162" y="17" width="15" height="15" rx="3" fill="#032B4C"/>
<rect x="146" y="17" width="15" height="15" rx="3" fill="#032B4C"/>
<rect x="194" y="17" width="15" height="15" rx="3" fill="#032B4C"/>
<rect x="130" y="17" width="15" height="15" rx="3" fill="#032B4C"/>
<rect x="98" y="1" width="15" height="15" rx="3" fill="#032B4C"/>
<rect x="82" y="1" width="15" height="15" rx="3" fill="#032B4C"/>
<rect x="66" y="1" width="15" height="15" rx="3" fill="#032B4C"/>
<rect x="50" y="1" width="15" height="15" rx="3" fill="#032B4C"/>
<rect x="34" y="1" width="15" height="15" rx="3" fill="#032B4C"/>
<rect x="18" y="1" width="15" height="15" rx="3" fill="#032B4C"/>
<rect x="2" y="1" width="15" height="15" rx="3" fill="#032B4C"/>
<rect x="226" y="1" width="15" height="15" rx="3" fill="#032B4C"/>
<rect x="178" y="1" width="15" height="15" rx="3" fill="#032B4C"/>
<rect x="162" y="1" width="15" height="15" rx="3" fill="#032B4C"/>
<rect x="146" y="1" width="15" height="15" rx="3" fill="#032B4C"/>
<rect x="130" y="1" width="15" height="15" rx="3" fill="#032B4C"/>
<rect x="210" y="1" width="15" height="15" rx="3" fill="#032B4C"/>
<rect x="194" y="1" width="15" height="15" rx="3" fill="#032B4C"/>
<rect x="114" y="1" width="15" height="15" rx="3" fill="#032B4C"/>
</g>
<defs>
<linearGradient id="paint0_linear" x1="0" y1="-57" x2="1366" y2="657" gradientUnits="userSpaceOnUse">
<stop stop-color="#06324A"/>
<stop offset="1" stop-color="#004E79"/>
</linearGradient>
<clipPath id="clip0">
<rect width="243" height="225" fill="white"/>
</clipPath>
</defs>
</svg>
