<svg width="110" height="15" viewBox="0 0 110 15" fill="none" xmlns="http://www.w3.org/2000/svg">
<path d="M6.52506 5.85471C7.02842 4.58833 7.55042 3.3036 7.56907 3.28525H7.64364C7.66228 3.3036 8.16564 4.60668 8.68765 5.85471L9.91809 9.06654H5.25733L6.52506 5.85471ZM5.94712 0L0 14.6276H3.11338L4.23197 11.7094H10.9248L12.0434 14.6276H15.2127L9.26558 0H5.94712Z" fill="#5BABAB"/>
<path d="M19.2526 8.13867H22.1408C23.485 8.13867 24.4841 8.89021 24.4841 10.21C24.4841 11.4565 23.6122 12.208 22.1408 12.208H19.2526V8.13867ZM19.2526 2.43793H21.723C23.0128 2.43793 23.7757 3.17115 23.7757 4.17931C23.7757 5.27913 22.9764 5.93903 21.7957 5.93903H19.2708V2.43793H19.2526ZM16.3825 0.0183303V14.6276H22.3951C25.8465 14.6276 27.4995 12.7396 27.4995 10.43C27.4995 8.30364 26.0281 7.20382 24.6658 6.83721V6.74556C25.5195 6.45227 26.6458 5.48077 26.6458 3.73939C26.6458 1.70472 24.8838 0 22.268 0L16.3825 0.0183303Z" fill="#5BABAB"/>
<path d="M29.8402 0V14.6276H40.3721V11.9297H32.7595V8.47924H38.432V5.76294H32.7595V2.69794H40.2981V0H29.8402Z" fill="#5BABAB"/>
<path d="M45.5407 2.66123H47.9217C49.5507 2.66123 50.4458 3.45043 50.4458 4.9554C50.4458 6.47872 49.5149 7.1578 47.9575 7.1578H45.5407V2.66123ZM42.7123 0V14.6276H45.5407V9.48867H47.5815L50.4637 14.6276H53.8293L50.4637 8.91972C52.3076 8.33241 53.3638 6.9192 53.3638 4.80857C53.3638 1.83533 51.3051 0 47.7785 0H42.7123Z" fill="#5BABAB"/>
<path d="M59.0471 2.69794H61.8151C64.3828 2.69794 66.7319 4.20291 66.7319 7.37804C66.7319 10.5715 64.3828 11.9297 61.8515 11.9297H59.0471V2.69794ZM56.1699 0V14.6276H62.0154C66.3313 14.6276 69.6273 11.8562 69.6273 7.37804C69.6273 2.93653 66.3495 0 61.979 0H56.1699Z" fill="#5BABAB"/>
<path d="M71.3828 0V14.6276H81.9147V11.9297H74.297V8.47924H79.9595V5.76294H74.297V2.69794H81.8224V0H71.3828Z" fill="#5BABAB"/>
<path d="M84.2556 0V14.6276H94.7875V11.9297H87.1698V8.47924H92.8323V5.76294H87.1698V2.69794H94.6952V0H84.2556Z" fill="#5BABAB"/>
<path d="M107.117 0V6.18507C107.117 7.80016 107.154 9.61714 107.154 9.6355H107.099L100.084 0H97.1277V14.6276H100.029V8.47924C100.029 6.62555 99.9923 4.86363 99.9923 4.84528H100.047L107.044 14.6276H110V0H107.117Z" fill="#5BABAB"/>
</svg>
