<svg width="12" height="8" viewBox="0 0 12 8" fill="none" xmlns="http://www.w3.org/2000/svg">
<path d="M2 3C1.44772 3 1 3.44772 1 4C1 4.55228 1.44772 5 2 5V3ZM3.2929 7.70711C3.68342 8.09763 4.31659 8.09763 4.70711 7.70711C5.09764 7.31658 5.09764 6.68342 4.70711 6.29289L3.2929 7.70711ZM1 4L0.292894 3.29289C0.105357 3.48043 0 3.73478 0 4C0 4.26522 0.105357 4.51957 0.292894 4.70711L1 4ZM4.70711 1.70711C5.09764 1.31658 5.09764 0.683418 4.70711 0.292894C4.31659 -0.0976309 3.68342 -0.0976313 3.2929 0.292893L4.70711 1.70711ZM12 3H2V5H12V3ZM4.70711 6.29289L1.70711 3.29289L0.292894 4.70711L3.2929 7.70711L4.70711 6.29289ZM1.70711 4.70711L4.70711 1.70711L3.2929 0.292893L0.292894 3.29289L1.70711 4.70711Z" fill="white"/>
</svg>
