<svg width="116" height="18" viewBox="0 0 116 18" fill="none" xmlns="http://www.w3.org/2000/svg">
<path d="M107.789 6.54202C105.542 6.54202 103.738 8.39496 103.738 10.6639C103.738 12.9328 105.542 14.7857 107.789 14.7857C110.035 14.7857 111.84 12.9328 111.84 10.6639C111.859 8.39496 110.035 6.54202 107.789 6.54202ZM111.955 3.55462H115.2V17.7542H111.994V16.3361C110.746 17.3382 109.229 18 107.558 18C103.603 18 100.397 14.7101 100.397 10.6639C100.397 6.61765 103.584 3.32773 107.558 3.32773C109.21 3.32773 110.707 3.9895 111.955 4.95378V3.55462ZM93.7152 17.7731V10.9097C93.7152 8.7353 95.1552 6.56093 97.2288 6.56093C97.824 6.56093 98.3232 6.63655 98.7648 6.80672L100.301 3.87605C99.4752 3.53571 98.496 3.34664 97.4784 3.34664C96.1152 3.34664 94.3104 4.19748 93.6384 5.29412V3.59244H90.3936V17.792L93.7152 17.7731ZM80.6016 6.54202C78.3552 6.54202 76.5504 8.39496 76.5504 10.6639C76.5504 12.9328 78.3552 14.7857 80.6016 14.7857C82.848 14.7857 84.6528 12.9328 84.6528 10.6639C84.6528 8.39496 82.848 6.54202 80.6016 6.54202ZM80.6016 3.32773C84.672 3.32773 87.9936 6.61765 87.9936 10.6639C87.9936 14.7101 84.672 18 80.6016 18C76.5312 18 73.2096 14.7101 73.2096 10.6639C73.2096 6.61765 76.512 3.32773 80.6016 3.32773ZM64.1472 6.54202C61.9008 6.54202 60.096 8.39496 60.096 10.6639C60.096 12.9328 61.9008 14.7857 64.1472 14.7857C66.3936 14.7857 68.1984 12.9328 68.1984 10.6639C68.1984 8.39496 66.3744 6.54202 64.1472 6.54202ZM71.5392 10.6639C71.5392 14.7101 68.352 18 64.3776 18C62.7072 18 61.1904 17.3382 59.9424 16.3361V17.7542H56.736V0H60.0768V4.87815C61.2864 3.93278 62.7456 3.30882 64.3776 3.30882C68.3328 3.32773 71.5392 6.61765 71.5392 10.6639ZM45.408 17.7731V9.07563C45.408 7.67647 46.56 6.54202 47.9808 6.54202C49.3824 6.54202 50.5344 7.67647 50.5344 9.07563V17.7731H53.8752V9.07563C53.8752 5.89916 51.2448 3.32773 48.2304 3.32773C46.3872 3.32773 44.7744 4.10294 43.6224 5.21849C42.4512 4.10294 40.8384 3.32773 39.0336 3.32773C36.0192 3.32773 33.3888 5.89916 33.3888 9.07563V17.7731H36.7296V9.07563C36.7296 7.67647 37.8816 6.54202 39.2832 6.54202C40.6848 6.54202 41.8368 7.67647 41.8368 9.07563V17.7731H45.408ZM23.8464 6.54202C21.6 6.54202 19.7952 8.39496 19.7952 10.6639C19.7952 12.9328 21.6 14.7857 23.8464 14.7857C26.0928 14.7857 27.8976 12.9328 27.8976 10.6639C27.8976 8.39496 26.0928 6.54202 23.8464 6.54202ZM23.8464 3.32773C27.9168 3.32773 31.2384 6.61765 31.2384 10.6639C31.2384 14.7101 27.9168 18 23.8464 18C19.776 18 16.4544 14.7101 16.4544 10.6639C16.4544 6.61765 19.776 3.32773 23.8464 3.32773ZM7.392 6.54202C5.1456 6.54202 3.3408 8.39496 3.3408 10.6639C3.3408 12.9328 5.1456 14.7857 7.392 14.7857C9.6384 14.7857 11.4432 12.9328 11.4432 10.6639C11.4432 8.39496 9.6192 6.54202 7.392 6.54202ZM14.784 10.6639C14.784 14.7101 11.5968 18 7.6224 18C5.952 18 4.4352 17.3382 3.1872 16.3361V17.7542H0V0H3.3408V4.87815C4.5504 3.93278 6.0096 3.30882 7.6416 3.30882C11.5776 3.32773 14.784 6.61765 14.784 10.6639Z" fill="#EB7F23"/>
</svg>
