<svg width="10" height="6" viewBox="0 0 10 6" fill="none" xmlns="http://www.w3.org/2000/svg">
<path d="M1.70711 0.292893C1.31658 -0.0976311 0.683418 -0.0976311 0.292893 0.292893C-0.0976311 0.683417 -0.0976311 1.31658 0.292893 1.70711L1.70711 0.292893ZM9.70711 1.70711C10.0976 1.31658 10.0976 0.683417 9.70711 0.292893C9.31658 -0.0976311 8.68342 -0.0976311 8.29289 0.292893L9.70711 1.70711ZM0.292893 1.70711L4.08076 5.49498L5.49497 4.08076L1.70711 0.292893L0.292893 1.70711ZM5.91924 5.49497L9.70711 1.70711L8.29289 0.292893L4.50503 4.08076L5.91924 5.49497ZM4.08076 5.49498C4.58844 6.00266 5.41156 6.00266 5.91924 5.49497L4.50503 4.08076C4.77839 3.80739 5.22161 3.80739 5.49497 4.08076L4.08076 5.49498Z" fill="#BCBEC0"/>
</svg>
