<svg width="288" height="39" viewBox="0 0 288 39" fill="none" xmlns="http://www.w3.org/2000/svg">
<path d="M134.294 29.354H126.265C126.265 35.4011 130.715 38.9999 137.649 38.9999C144.186 38.9999 148.934 35.8417 148.934 29.7702C148.934 23.4388 143.507 22.0624 139.358 21.0103L139.339 21.0056L139.255 20.9846C136.635 20.3336 134.542 19.8136 134.542 18.2391C134.542 16.9415 135.86 16.354 137.252 16.354C138.842 16.354 140.185 17.1864 140.185 18.9491H147.989C147.989 13.2937 144.112 9.86621 137.351 9.86621C130.69 9.86621 126.613 12.9999 126.613 18.4839C126.613 24.7649 131.735 26.0253 135.794 27.0241L135.909 27.0527C138.619 27.6892 140.806 28.2033 140.806 29.9415C140.806 31.4594 139.265 32.3163 137.624 32.3163C135.86 32.3163 134.294 31.337 134.294 29.354Z" fill="#172A59"/>
<path d="M67.1095 31.3125V38.3389H49.1887V10.5272H57.0679V31.3125H67.1095Z" fill="#172A59"/>
<path d="M117.516 10.6986L125.371 10.6252L121.792 23.7965L117.516 23.6741V10.6986Z" fill="#172A59"/>
<path d="M88.6095 38.3144V31.6798H77.9713V27.5178H87.2424V21.2259H77.9713V17.1374H88.2864V10.5272H70.2164V38.3144H88.6095Z" fill="#172A59"/>
<path d="M114.583 17.4067H106.903V38.3144H99.0985V17.4067H91.4182V10.5272H114.559L114.583 17.4067Z" fill="#172A59"/>
<path d="M168.072 38.339L178.885 10.5273H170.036L164.419 27.8117L158.652 10.5273H149.779L160.839 38.339H168.072Z" fill="#06B47F"/>
<path d="M199.713 38.3145V31.6799H189.075V27.5179H198.346V21.226H189.075V17.1375H199.39V10.5273H181.32V38.3145H199.713Z" fill="#06B47F"/>
<path fill-rule="evenodd" clip-rule="evenodd" d="M213.608 29.8192H210.799V38.3145H203.019V10.5273H215.248C221.338 10.5273 225.737 14.5669 225.737 20.3691C225.737 23.7722 224.047 26.5876 221.263 28.2279L226.856 38.339H218.181L213.608 29.8192ZM210.799 23.356H214.353C216.516 23.356 217.783 22.0584 217.783 20.3202C217.783 18.582 216.541 17.3089 214.353 17.3089H210.799V23.356Z" fill="#06B47F"/>
<path d="M237.021 10.5273H229.142V38.339H237.021V10.5273Z" fill="#06B47F"/>
<path d="M248.182 17.4558V21.887H257.254V28.5951H248.182V38.339H240.327V10.5273H258.298V17.4558H248.182Z" fill="#06B47F"/>
<path d="M278.132 38.3145V27.4445L288 10.5273H279.375L274.205 20.565L269.035 10.5273H260.41L270.203 27.42V38.3145H278.132Z" fill="#06B47F"/>
<path d="M38.8739 4.62702L18.8653 26.3671L11.0607 17.7249H0L18.8653 38.2899L49.2386 4.60254L38.8739 4.62702Z" fill="#06B47F"/>
<path d="M15.112 8.51977H6.11438L18.9895 22.4991L39.2715 0H30.7461L18.9895 12.7797L15.112 8.51977Z" fill="#172A59"/>
</svg>
