<svg width="11" height="12" viewBox="0 0 11 12" fill="none" xmlns="http://www.w3.org/2000/svg">
<path fill-rule="evenodd" clip-rule="evenodd" d="M4.12817 1.68706C3.39826 1.68706 2.69825 1.977 2.18213 2.4931C1.66601 3.0092 1.37606 3.70918 1.37606 4.43905C1.37606 5.16892 1.66601 5.8689 2.18213 6.38499C2.69825 6.90109 3.39826 7.19103 4.12817 7.19103C4.85808 7.19103 5.55809 6.90109 6.07421 6.38499C6.59033 5.8689 6.88028 5.16892 6.88028 4.43905C6.88028 3.70918 6.59033 3.0092 6.07421 2.4931C5.55809 1.977 4.85808 1.68706 4.12817 1.68706ZM7.80647e-08 4.43905C-8.28315e-05 3.78938 0.153184 3.14886 0.447336 2.56959C0.741488 1.99031 1.16822 1.48865 1.69282 1.10538C2.21743 0.722119 2.82509 0.468083 3.46639 0.363935C4.10769 0.259787 4.76452 0.308467 5.38345 0.506018C6.00239 0.703568 6.56596 1.04441 7.02832 1.50082C7.49069 1.95723 7.83879 2.51633 8.04433 3.13263C8.24986 3.74894 8.30702 4.40505 8.21115 5.04761C8.11529 5.69017 7.86911 6.30104 7.49263 6.83052L10.8069 10.1446C10.9322 10.2744 11.0015 10.4481 11 10.6285C10.9984 10.8089 10.926 10.9815 10.7985 11.109C10.6709 11.2366 10.4983 11.309 10.3179 11.3105C10.1376 11.3121 9.96375 11.2427 9.83399 11.1174L6.52045 7.80403C5.90284 8.24317 5.17628 8.50383 4.42036 8.55747C3.66444 8.6111 2.90835 8.45564 2.23492 8.10811C1.5615 7.76058 0.996738 7.23439 0.602523 6.58721C0.208308 5.94003 -0.000147273 5.19683 7.80647e-08 4.43905Z" fill="#E7E7E7"/>
</svg>
