<svg width="13" height="13" viewBox="0 0 13 13" fill="none" xmlns="http://www.w3.org/2000/svg">
<path d="M12.8499 0.157744C12.7767 0.0849872 12.6842 0.0346133 12.5834 0.0125449C12.4825 -0.0095236 12.3774 -0.00236918 12.2805 0.033167L0.349972 4.36628C0.247081 4.40526 0.158498 4.47458 0.0959882 4.56503C0.0334784 4.65549 0 4.7628 0 4.87271C0 4.98262 0.0334784 5.08993 0.0959882 5.18038C0.158498 5.27084 0.247081 5.34016 0.349972 5.37914L5.55601 7.45903L7.63843 12.6588C7.67755 12.757 7.74462 12.8417 7.83135 12.9023C7.91807 12.963 8.02067 12.9969 8.12649 13C8.23608 12.9978 8.34242 12.9624 8.43149 12.8986C8.52055 12.8348 8.58816 12.7455 8.62541 12.6425L12.9638 0.726465C13.0007 0.630636 13.0096 0.526291 12.9895 0.425597C12.9693 0.324903 12.9209 0.232008 12.8499 0.157744ZM8.12649 10.9418L6.61349 7.1503L9.21109 4.55585L8.44645 3.79214L5.82716 6.40826L2.05278 4.87542L11.5592 1.44684L8.12649 10.9418Z" fill="white"/>
</svg>
