<svg width="79" height="15" viewBox="0 0 79 15" fill="none" xmlns="http://www.w3.org/2000/svg">
<path d="M22.3496 2.57886H22.9892V6.8614H23.0166C23.2085 6.47208 23.5008 6.16618 23.8846 5.92518C24.2958 5.6749 24.7252 5.54512 25.173 5.54512C25.3648 5.54512 25.5659 5.57293 25.776 5.62855C26.0501 5.71198 26.2968 5.83248 26.507 6.0086C26.7811 6.21253 26.9913 6.49062 27.1374 6.8336C27.3111 7.23219 27.4024 7.71421 27.4024 8.27965V12.1821H26.7628V8.34454C26.7628 7.69567 26.6349 7.17657 26.3699 6.78725C26.0684 6.33304 25.6115 6.11057 24.9993 6.11057C24.0491 6.11057 23.4095 6.60186 23.0714 7.57516C23.0166 7.73274 22.9892 7.95521 22.9892 8.22403V12.1821H22.3496V2.57886Z" fill="#2782B4"/>
<path d="M16.0906 11.1903C16.6571 11.5889 17.315 11.7836 18.0459 11.7836C19.4896 11.7836 20.2115 11.1532 20.2115 9.89257C20.2115 8.94707 19.5993 8.24258 18.384 7.7791C17.6256 7.50101 17.0683 7.16731 16.6936 6.77799C16.2825 6.36086 16.0815 5.8603 16.0815 5.26705C16.0815 4.59964 16.3282 4.04346 16.8124 3.60779C17.2967 3.17212 17.9272 2.95892 18.6856 2.95892C19.0784 2.95892 19.4439 3.00527 19.782 3.08869C20.0653 3.16285 20.2937 3.25555 20.4764 3.36678L20.2389 3.92296C20.0835 3.81172 19.8917 3.71903 19.6541 3.6356C19.3343 3.53363 19.0054 3.48729 18.6581 3.48729C18.0003 3.48729 17.4977 3.68195 17.1414 4.05273C16.8581 4.35863 16.7119 4.72014 16.7119 5.14654C16.7119 5.99934 17.3332 6.67602 18.5759 7.16731C19.3526 7.49174 19.9191 7.83472 20.2663 8.2055C20.65 8.6319 20.8419 9.16027 20.8419 9.80914C20.8419 10.5136 20.6044 11.0883 20.1384 11.5518C19.6267 12.0524 18.914 12.3119 18.0003 12.3119C17.114 12.3119 16.4013 12.108 15.853 11.7094L16.0906 11.1903Z" fill="#2782B4"/>
<path d="M31.2309 5.46171H31.1121C30.4542 5.46171 29.8329 5.6471 29.2664 6.01788C29.3852 6.33305 29.4583 6.49063 29.4765 6.49063C29.9517 6.16619 30.4908 5.99934 31.103 5.99934H31.1395C31.3771 5.99934 31.6055 6.03642 31.8065 6.11058C32.4461 6.32378 32.7659 6.96338 32.7659 8.03865V10.0131C32.7659 10.3004 32.6745 10.5692 32.5101 10.8288C32.1172 11.4591 31.5415 11.7743 30.7832 11.7743C30.573 11.7743 30.372 11.7372 30.1801 11.6445C29.7141 11.4128 29.4857 11.0142 29.4857 10.4673V10.3468C29.4857 9.81841 29.7415 9.40128 30.2441 9.08611C30.8288 8.80803 31.441 8.66898 32.0989 8.66898L32.1263 8.64117V8.13135H32.1172C31.8431 8.13135 31.4959 8.16842 31.0755 8.25185C30.9111 8.25185 30.5821 8.36308 30.0887 8.56702C29.239 9.01196 28.8095 9.64229 28.8095 10.458V10.5692C28.8095 10.7361 28.8369 10.9215 28.8918 11.1254C29.2116 11.9319 29.8146 12.3397 30.7009 12.3397C31.2035 12.3397 31.6329 12.2192 32.0075 11.9782C32.2725 11.8484 32.5284 11.6074 32.7751 11.2459H32.8116L32.8756 11.8577C32.8847 12.0802 32.903 12.1914 32.9304 12.1914H33.4878L33.4969 12.1822C33.4421 11.8114 33.4055 11.2923 33.4055 10.6249V8.02938C33.3964 7.54736 33.3324 7.12096 33.1862 6.73164C32.839 5.87884 32.1903 5.46171 31.2309 5.46171Z" fill="#2782B4"/>
<path d="M35.233 7.63078C35.233 6.89849 35.2147 6.24962 35.1782 5.68417H35.7629L35.7903 6.99118H35.8269C36.1558 6.01788 36.7589 5.53586 37.636 5.52659C37.6589 5.52659 37.6817 5.52891 37.7046 5.53122C37.7274 5.53354 37.7503 5.53586 37.7731 5.53586C37.8188 5.53586 37.8645 5.53586 37.9102 5.54513V6.15692C37.8645 6.14765 37.8188 6.14765 37.764 6.14765H37.5995C36.6858 6.14765 36.1284 6.75017 35.9274 7.95522C35.8909 8.12207 35.8726 8.33527 35.8726 8.57628V12.1543H35.233V7.63078Z" fill="#2782B4"/>
<path d="M42.5427 5.33192H42.3965C42.1315 5.33192 41.83 5.37827 41.5011 5.48023C40.8158 5.76759 40.3407 6.18472 40.0757 6.7409H40.0483L40.0026 5.50804L39.9934 5.49877H39.3813C39.4178 6.09202 39.4361 6.8614 39.4361 7.79763L39.4452 14.7498L39.4726 14.7776H40.0757L40.1031 14.7498L40.0939 8.22403C40.0939 8.13133 40.0939 8.04791 40.1031 7.98302C40.1853 7.46392 40.3498 7.06533 40.5782 6.77797C41.0625 6.18472 41.6381 5.88809 42.296 5.88809H42.3326C42.9356 5.88809 43.4473 6.11056 43.8767 6.57404C44.361 7.13949 44.5986 7.84397 44.5986 8.67824C44.5986 9.26222 44.4981 9.79059 44.3062 10.2633C43.895 11.1903 43.2189 11.6538 42.2869 11.6538C41.7021 11.6538 41.1904 11.4498 40.7427 11.0327H40.7336V11.7094C41.1904 12.0431 41.7112 12.2099 42.3051 12.2099C42.7529 12.2099 43.1823 12.108 43.5935 11.9226C44.7082 11.2923 45.2565 10.2077 45.2565 8.67824V8.62262C45.2565 7.82544 45.0646 7.12095 44.6717 6.51842C44.1143 5.73051 43.4016 5.33192 42.5427 5.33192Z" fill="#2782B4"/>
<path d="M46.3803 11.1532C46.9468 11.5518 47.6047 11.7465 48.3357 11.7465C49.7793 11.7465 50.5012 11.1161 50.5012 9.85549C50.5012 8.90999 49.889 8.2055 48.6737 7.73275C47.9154 7.45467 47.358 7.12096 46.9834 6.73164C46.5722 6.31451 46.3712 5.81395 46.3712 5.2207C46.3712 4.55329 46.6179 3.99711 47.1021 3.56144C47.5864 3.12577 48.2169 2.91257 48.9753 2.91257C49.3682 2.91257 49.7337 2.95892 50.0626 3.04235C50.3458 3.1165 50.5743 3.2092 50.757 3.3297L50.5195 3.88588C50.3641 3.77464 50.1722 3.68195 49.9347 3.59852C49.6149 3.49656 49.2859 3.45021 48.9387 3.45021C48.2808 3.45021 47.7783 3.64487 47.422 4.01565C47.1387 4.32155 46.9925 4.68306 47.0016 5.10946C47.0016 5.96226 47.623 6.63894 48.8656 7.13023C49.6514 7.45467 50.2088 7.79764 50.556 8.16842C50.9398 8.59482 51.1316 9.12319 51.1316 9.77206C51.1316 10.4765 50.8941 11.0513 50.4281 11.5147C49.9164 12.0153 49.1946 12.2748 48.2808 12.2748C47.3945 12.2748 46.6818 12.0709 46.1336 11.6723L46.3803 11.1532Z" fill="#2782B4"/>
<path d="M55.5632 5.31338H55.417C55.1429 5.31338 54.8505 5.35973 54.5215 5.4617C53.8363 5.74905 53.3611 6.16618 53.0961 6.72236H53.0687L53.023 5.48951L53.0139 5.48024H52.4017C52.4383 6.07349 52.4565 6.84286 52.4565 7.77909L52.4657 14.7313L52.4931 14.7591H53.0961L53.1236 14.7313L53.1144 8.20549C53.1144 8.1128 53.1144 8.02937 53.1236 7.96448C53.2058 7.44539 53.3703 7.0468 53.5987 6.75944C54.083 6.16618 54.6586 5.86956 55.3165 5.86956H55.353C55.9561 5.86956 56.4678 6.09203 56.8972 6.55551C57.3815 7.12095 57.619 7.82544 57.619 8.6597C57.619 9.24369 57.5185 9.76278 57.3267 10.2448C56.9155 11.1718 56.2393 11.6352 55.3073 11.6352C54.7226 11.6352 54.2109 11.4313 53.7632 11.0142H53.754V11.6909C54.2109 12.0246 54.7317 12.1914 55.3256 12.1914C55.7733 12.1914 56.2028 12.0894 56.614 11.9041C57.7287 11.2737 58.2769 10.1892 58.2769 8.6597V8.60408C58.2769 7.8069 58.085 7.10241 57.6921 6.49989C57.1348 5.71198 56.4221 5.31338 55.5632 5.31338Z" fill="#2782B4"/>
<path d="M59.8485 7.60297C59.8485 6.87067 59.8302 6.2218 59.7937 5.65636H60.3785L60.4059 6.96337H60.4424C60.7714 5.99006 61.3744 5.50804 62.2516 5.49878C62.2744 5.49878 62.2973 5.50109 62.3201 5.50341C62.343 5.50573 62.3658 5.50804 62.3886 5.50804C62.4343 5.50804 62.48 5.50804 62.5257 5.51731V6.12911C62.48 6.11984 62.4343 6.11984 62.3795 6.11984H62.215C61.3013 6.11984 60.7439 6.72236 60.5429 7.92741C60.5064 8.09426 60.4881 8.30746 60.4881 8.54847V12.1265H59.8485V7.60297Z" fill="#2782B4"/>
<path d="M63.677 3.80245C63.677 4.17323 63.8415 4.35863 64.1704 4.35863H64.1795C64.5267 4.35863 64.7003 4.17323 64.7003 3.80245C64.7003 3.4224 64.5359 3.23701 64.1978 3.23701C63.8506 3.23701 63.677 3.4224 63.677 3.80245Z" fill="#2782B4"/>
<path d="M63.878 5.65637L63.8871 12.1358H64.5267L64.5176 5.65637H63.878Z" fill="#2782B4"/>
<path d="M66.6648 7.20437C66.6648 6.62966 66.6466 6.11056 66.61 5.64708H67.2131L67.2588 6.80578H67.2862C67.7065 5.93444 68.4375 5.49877 69.4791 5.4895C69.6801 5.4895 69.8903 5.5173 70.0913 5.57292C70.3654 5.65635 70.6121 5.77685 70.8223 5.95298C71.0964 6.16618 71.3065 6.44426 71.4527 6.77797C71.6263 7.18583 71.7177 7.66785 71.7177 8.23329V12.1265H71.0781V8.28891C71.0781 7.63077 70.9502 7.1024 70.6943 6.71308C70.3837 6.25887 69.9177 6.0364 69.3055 6.0364C68.3187 6.0364 67.6791 6.53696 67.3867 7.53807C67.3319 7.73274 67.3045 7.9274 67.3045 8.10352V12.1265H66.6648V7.20437Z" fill="#2782B4"/>
<path d="M76.2315 5.41536H76.1127C75.4548 5.41536 74.8426 5.67491 74.2396 6.194C73.5543 6.87995 73.2162 7.76056 73.2162 8.8451V8.96561C73.2162 9.79987 73.4812 10.5414 73.9928 11.181C74.5411 11.8206 75.2081 12.1358 75.9939 12.1358C76.6609 12.1358 77.2091 11.9597 77.6477 11.5982V10.9586H77.6386C77.2 11.3664 76.7066 11.5796 76.1766 11.5796C75.6375 11.5796 75.1807 11.422 74.7878 11.1069C74.1847 10.5692 73.8832 9.81841 73.8832 8.85437C73.8832 8.23331 73.9928 7.69567 74.2121 7.2322C74.6507 6.38866 75.3086 5.96226 76.1766 5.96226C77.0173 5.96226 77.6386 6.36086 78.0589 7.1395C78.2142 7.34343 78.2873 7.72348 78.2873 8.27039V11.4591C78.2873 11.969 78.2599 12.3583 78.2051 12.6364C78.1228 13.0257 77.9949 13.3501 77.8213 13.6097C77.401 14.1566 76.8162 14.4347 76.067 14.4347H76.003L75.9391 14.4532L75.8842 14.4347H75.8477C75.199 14.4347 74.5868 14.2585 74.0203 13.897C74.0111 13.897 73.938 14.0639 73.7918 14.4069V14.4347C74.3583 14.8147 75.0528 15.0001 75.8568 15.0001C76.4325 15.0001 76.9624 14.8796 77.4284 14.6386C77.6751 14.5366 77.9401 14.342 78.2142 14.0453C78.7076 13.5077 78.9452 12.5251 78.9452 11.0976V7.11169C78.9452 6.49063 78.9635 5.9808 79 5.57294H78.9909L78.9817 5.56367H78.4244C78.4061 5.56367 78.3878 5.92519 78.3696 6.66675H78.3604C78.333 6.64821 78.3147 6.6204 78.2965 6.57406C77.8305 5.80468 77.1452 5.41536 76.2315 5.41536Z" fill="#2782B4"/>
<path d="M5.36345 8.56703C5.70153 10.1336 6.31372 12.5344 8.01323 13.1462C8.2399 13.2305 8.48532 13.2578 8.72364 13.2385C7.908 13.3331 7.11442 13.3411 6.30458 13.1925C5.68325 13.0813 4.97969 12.9515 4.50456 12.5159C3.68221 11.7558 3.32586 10.5136 3.07002 9.44764C2.48524 6.97266 2.36646 4.2474 2.65885 1.72607H4.97055C4.75126 3.99712 4.88832 6.34233 5.36345 8.56703Z" fill="#42A2D7"/>
<path d="M8.87213 13.2204C8.8231 13.2284 8.77353 13.2345 8.72364 13.2385C8.77305 13.2328 8.82255 13.2267 8.87213 13.2204Z" fill="#42A2D7"/>
<path d="M1.40706 8.56703C1.3919 8.5846 1.37264 8.58551 1.35207 8.57668C1.37037 8.57308 1.3887 8.56985 1.40706 8.56703Z" fill="#42A2D7"/>
<path fill-rule="evenodd" clip-rule="evenodd" d="M0.520751 4.27521C0.5573 5.10947 0.648672 5.94373 0.794867 6.76873C0.810804 6.86089 0.825908 6.95671 0.841341 7.05463C0.914389 7.51809 0.994823 8.02842 1.20604 8.41871C1.20604 8.41871 1.28584 8.54824 1.35207 8.57668C1.21379 8.60388 1.0772 8.65189 0.940535 8.69993C0.798319 8.74992 0.656014 8.79994 0.511614 8.82657C0.502111 8.82657 0.493706 8.82769 0.485637 8.82876C0.470433 8.83077 0.456425 8.83263 0.438517 8.82657C0.0547553 8.6968 0.0273438 7.35271 0.0273438 7.34344C0.0273438 7.34344 0.13699 5.25778 0.520751 4.27521ZM0.509245 4.33357C0.509881 4.32957 0.510469 4.32567 0.511046 4.32185C0.513536 4.30532 0.515805 4.29026 0.520751 4.27521L0.509245 4.33357Z" fill="#42A2D7"/>
<path d="M6.69959 13.519C6.56488 13.3729 6.42583 13.222 6.26811 13.1924C6.83461 12.6177 7.22751 11.8761 7.56559 11.1438C7.7392 10.7637 7.90366 10.3837 8.04986 9.99437C8.06655 9.95326 8.09069 9.90963 8.11533 9.86511C8.18512 9.73901 8.25882 9.60585 8.17778 9.50308C8.14123 9.4521 8.08869 9.41502 8.03615 9.37794C7.98362 9.34087 7.93108 9.30379 7.89453 9.2528C7.593 10.0871 7.23665 10.9399 6.74324 11.6814C6.38689 12.2098 5.81125 12.8958 5.09855 12.8031C4.65083 12.766 4.27621 12.2747 4.04778 11.9224C3.69143 11.3848 3.44472 10.7637 3.26198 10.1427C2.83253 8.7059 2.65893 7.19496 2.58583 5.70256C2.52187 4.38627 2.51273 3.05146 2.66806 1.74444H4.57773C4.62973 1.74444 4.66786 1.5146 4.6954 1.34855C4.70658 1.28117 4.71602 1.2243 4.72393 1.19754C4.73237 1.16242 4.74081 1.12596 4.74948 1.08853C4.8346 0.720896 4.94129 0.26015 5.2813 0.0666504C5.25185 0.0761346 5.22264 0.0855218 5.19365 0.0948379L5.19355 0.0948695C4.65593 0.267647 4.19424 0.416022 3.69143 0.706252C3.66675 0.72044 3.64199 0.734629 3.61719 0.748844L3.61701 0.748946C3.36641 0.892581 3.11097 1.03899 2.87822 1.21608C2.79689 1.30448 2.6934 1.39288 2.59827 1.47414C2.54378 1.52069 2.49203 1.56489 2.44877 1.6054C2.15638 2.28208 2.1107 3.21831 2.08328 3.93207C1.97364 6.49047 2.07415 9.30842 2.997 11.7185C3.28025 12.4508 3.67315 13.2295 4.3493 13.6559C4.8884 13.9988 5.65592 14.1193 6.27725 14.2028C6.98995 14.2955 7.81229 14.1842 7.53818 14.0823C7.1823 13.9469 7.1212 13.8969 7.01318 13.8086C6.98808 13.7881 6.96045 13.7655 6.92599 13.7393C6.85019 13.6824 6.77558 13.6015 6.69959 13.519Z" fill="#136E9F"/>
<path d="M0.520819 4.27504C0.520819 4.28696 0.519141 4.29888 0.517223 4.31153L0.520819 4.27504Z" fill="#136E9F"/>
<path d="M0.517223 4.31153L0.516741 4.31469C0.514306 4.33066 0.511682 4.34787 0.511682 4.36774L0.517223 4.31153Z" fill="#136E9F"/>
<path d="M0.48427 8.4927C0.520819 8.59467 0.584779 8.7059 0.667014 8.78006C0.636856 8.7923 0.609795 8.80544 0.584955 8.81749C0.496911 8.86023 0.436749 8.88943 0.365487 8.81714C0.0790238 8.56285 0.0205944 7.66794 0.00115792 7.37024L0 7.35255V7.32474C0 6.27727 0.137058 5.24835 0.520819 4.26578C0.347213 4.81268 0.246704 5.36886 0.191881 5.9343L0.189586 5.95978C0.181274 6.05182 0.173606 6.13674 0.173606 6.22166C0.164469 6.54609 0.164469 6.87053 0.191881 7.19496C0.219292 7.49159 0.274115 7.77895 0.347213 8.0663C0.383761 8.21462 0.429447 8.35366 0.48427 8.4927Z" fill="#136E9F"/>
<path d="M11.9149 10.5227C11.9149 10.5227 12.1433 10.8935 12.2621 11.0697C12.2722 11.0868 12.2823 11.1013 12.292 11.1152C12.3085 11.139 12.3237 11.1609 12.3352 11.1902C12.1982 11.0975 12.0634 11.0071 11.9287 10.9168L11.9285 10.9166C11.7937 10.8263 11.659 10.7359 11.522 10.6433C11.2818 10.4808 11.1098 10.1651 10.9526 9.87666C10.8946 9.77011 10.8386 9.66727 10.7819 9.57725C11.0377 9.71629 11.5494 9.92949 11.5494 9.92949L11.9149 10.5227Z" fill="#136E9F"/>
<path d="M10.2909 0.544568C10.3533 0.452028 10.4148 0.36078 10.4712 0.270577C10.5135 0.442128 10.4145 0.707382 10.3376 0.913326C10.3148 0.974453 10.294 1.03035 10.2793 1.07703C10.1514 1.49416 10.0052 1.91129 9.84986 2.31915C9.47524 3.32027 9.06407 4.30284 8.60721 5.26688C7.7209 7.14861 6.67013 9.07668 5.19904 10.5598C5.21732 10.4996 5.23788 10.437 5.25843 10.3744C5.27899 10.3118 5.29955 10.2493 5.31783 10.189C5.36282 10.0293 5.4509 9.93818 5.5568 9.82867C5.57994 9.80475 5.60392 9.77995 5.62849 9.75336C6.0488 9.28061 6.43256 8.76151 6.77977 8.22388C7.51075 7.10226 8.1138 5.89721 8.65289 4.67363C8.68619 4.59623 8.71974 4.51851 8.75343 4.44048C9.16352 3.49062 9.59309 2.49567 9.80418 1.48489C9.88083 1.15263 10.0904 0.841926 10.2909 0.544568Z" fill="#136E9F"/>
<path d="M5.56454 0.530198C5.67419 1.20688 5.63764 1.9299 5.60109 2.60658C5.50972 4.14533 5.24474 5.68408 4.86098 7.16722C4.5229 8.49277 4.11173 9.92028 3.32593 11.0604C3.03354 11.4776 2.54013 12.043 1.97363 11.8113C1.55253 11.642 1.28342 11.1784 1.05217 10.7799C1.01748 10.7202 0.983638 10.6619 0.950266 10.6062C0.365487 9.62366 0.0730974 8.47423 0 7.3248C0.0182743 7.51019 0.182744 9.13237 0.612191 8.76159C1.00034 8.42958 1.18563 7.731 1.33175 7.1801C1.36106 7.0696 1.38879 6.96505 1.41626 6.87059C1.88226 5.27622 2.34825 3.59843 2.43963 1.9299C2.43963 1.88903 2.43647 1.84281 2.43337 1.79742C2.42734 1.709 2.42151 1.62368 2.43963 1.58693C2.47617 1.53131 2.47617 1.53131 2.55841 1.45716C2.58901 1.43129 2.61929 1.40542 2.64943 1.37967C2.7813 1.26702 2.91051 1.15665 3.05182 1.05856C3.53609 0.715589 4.04777 0.446771 4.58686 0.233571C4.79702 0.150145 5.00717 0.0759883 5.22646 0.0111012C5.48143 -0.0691741 5.53336 0.305429 5.56134 0.507267C5.56244 0.515189 5.5635 0.522846 5.56454 0.530198Z" fill="#2782B4"/>
<path d="M11.9606 4.22876C12.3078 5.69336 12.5271 7.19503 12.5545 8.70597C12.5727 9.65147 12.5088 10.5043 12.3352 11.1902C12.1147 10.8707 11.9078 10.5304 11.7027 10.1933C11.6698 10.1392 11.637 10.0853 11.6042 10.0315C11.1017 11.422 10.3981 13.0998 9.07321 13.8691C8.4062 14.2584 7.55644 14.277 6.81633 14.2399C5.93002 14.1936 4.98889 14.0082 4.54117 13.7579C5.5554 14.1101 6.36861 13.1739 6.87115 12.4045C7.42852 11.5517 7.82142 10.597 8.16863 9.6422C7.19095 10.0501 6.21327 10.3745 5.18077 10.5692C6.68841 9.04894 7.74832 7.07452 8.6529 5.14645C9.10062 4.19168 9.51179 3.20911 9.87728 2.21726C10.0235 1.8094 10.1697 1.39227 10.2976 0.975139C10.3102 0.934724 10.328 0.886499 10.3476 0.833824C10.4131 0.656952 10.4973 0.429912 10.4621 0.279921C11.2113 1.46643 11.6408 2.86613 11.9606 4.22876Z" fill="#2782B4"/>
</svg>
