<svg width="127" height="34" viewBox="0 0 127 34" fill="none" xmlns="http://www.w3.org/2000/svg">
<path d="M42.0555 30.9077C40.5164 32.4052 38.5197 33.1124 36.3982 33.1124C30.8657 33.1124 28.4946 29.2854 28.4946 25.4168C28.453 21.5066 30.9905 17.5548 36.3982 17.5548C38.4365 17.5548 40.35 18.3036 41.8891 19.8427L40.0172 21.673C39.0189 20.7162 37.7293 20.2587 36.3982 20.2587C32.7792 20.2587 31.2401 22.9625 31.2401 25.4584C31.2817 27.9126 32.696 30.5333 36.3982 30.5333C37.6877 30.5333 39.1853 29.9925 40.142 29.0358L42.0555 30.9077Z" fill="white"/>
<path d="M56.5324 17.8876V26.4567C56.5324 30.866 53.8285 33.1123 50.0847 33.1123C46.5073 33.1123 43.4707 30.9492 43.4707 26.4567V17.8876H46.2577V26.4567C46.2577 29.1605 47.7969 30.5749 50.1263 30.5749C52.4558 30.5749 53.7869 29.0357 53.7869 26.4567V17.8876H56.5324Z" fill="white"/>
<path d="M72.5464 32.779H69.2186L64.8508 27.7873H62.147V32.779H59.3184V17.8455C61.6894 17.8455 64.0605 17.887 66.4316 17.887C69.9674 17.9286 71.7977 20.2581 71.7977 22.8372C71.7977 24.8755 70.8409 26.9553 68.0123 27.5377L72.5464 32.6542V32.779ZM62.1054 20.4661V25.2498H66.39C68.1787 25.2498 68.969 24.0435 68.969 22.8788C68.969 21.714 68.1787 20.5077 66.39 20.5077H62.1054V20.4661Z" fill="white"/>
<path d="M84.2774 29.9504H76.457L75.1675 32.779H72.1309L78.8281 17.8455H81.9063L88.6035 32.779H85.5253L84.2774 29.9504ZM80.3672 21.0069L77.5802 27.3713H83.1127L80.3672 21.0069Z" fill="white"/>
<path d="M91.3066 20.4245H86.5645V17.8455C90.8906 17.8455 94.5096 17.8455 98.8358 17.8455V20.4245H94.0936V32.779H91.265V20.4245H91.3066Z" fill="white"/>
<path d="M111.69 32.779H100.5C100.5 27.8289 100.5 22.8372 100.5 17.8455H111.69V20.5909H103.329V24.0435H111.399V26.6641H103.329V30.0336H111.69V32.779Z" fill="white"/>
<path d="M126.997 25.2081C127.08 28.9935 124.751 32.8205 119.551 32.8205C117.721 32.8205 115.516 32.8205 113.686 32.8205V17.8869C115.516 17.8869 117.721 17.8869 119.551 17.8869C124.626 17.8454 126.914 21.5059 126.997 25.2081ZM116.473 30.075H119.551C122.962 30.075 124.293 27.6208 124.21 25.1665C124.127 22.8371 122.795 20.5076 119.551 20.5076H116.473V30.075Z" fill="white"/>
<path fill-rule="evenodd" clip-rule="evenodd" d="M0.0415977 18.1774L0 14.7248C0 14.3504 0.207989 14.0592 0.499172 14.0592H2.91184C3.20302 14.0592 3.41101 14.3504 3.41101 14.6832L3.45261 18.1358C3.45261 18.5102 3.24462 18.8014 2.95344 18.8014H0.54077C0.291184 18.8014 0.0415977 18.5102 0.0415977 18.1774Z" fill="white"/>
<path fill-rule="evenodd" clip-rule="evenodd" d="M0.0415977 24.8333L0 21.3807C0 21.0063 0.207989 20.7151 0.499172 20.7151H2.91184C3.20302 20.7151 3.41101 21.0063 3.41101 21.3391L3.45261 24.7917C3.45261 25.1661 3.24462 25.4572 2.95344 25.4572H0.54077C0.291184 25.4572 0.0415977 25.1661 0.0415977 24.8333Z" fill="white"/>
<path fill-rule="evenodd" clip-rule="evenodd" d="M4.49277 18.1362L4.45117 14.6836C4.45117 14.3092 4.65916 14.0181 4.95034 14.0181H7.36301C7.65419 14.0181 7.86218 14.3093 7.86218 14.642L7.90378 18.0947C7.90378 18.469 7.69579 18.7602 7.40461 18.7602H4.99194C4.70076 18.7602 4.49277 18.469 4.49277 18.1362Z" fill="white"/>
<path fill-rule="evenodd" clip-rule="evenodd" d="M8.81894 29.3668L8.77734 25.9142C8.77734 25.5398 8.98533 25.2487 9.27652 25.2487H11.6892C11.9804 25.2487 12.1884 25.5398 12.1884 25.8726L12.23 29.3253C12.23 29.6996 12.022 29.9908 11.7308 29.9908H9.31811C9.02693 30.0324 8.81894 29.7412 8.81894 29.3668Z" fill="white"/>
<path fill-rule="evenodd" clip-rule="evenodd" d="M8.77597 23.752L8.73438 20.2993C8.73438 19.925 8.94236 19.6338 9.23355 19.6338H11.6462C11.9374 19.6338 12.1454 19.925 12.1454 20.2578L12.187 23.7104C12.187 24.0848 11.979 24.3759 11.6878 24.3759H9.27514C8.98396 24.3759 8.77597 24.0848 8.77597 23.752Z" fill="white"/>
<path fill-rule="evenodd" clip-rule="evenodd" d="M8.73496 18.0941L8.69336 14.6415C8.69336 14.2671 8.90135 13.976 9.19253 13.976H11.6052C11.8964 13.976 12.1044 14.2671 12.1044 14.5999L12.146 18.0525C12.146 18.4269 11.938 18.7181 11.6468 18.7181H9.23413C8.94295 18.7597 8.73496 18.4685 8.73496 18.0941Z" fill="white"/>
<path fill-rule="evenodd" clip-rule="evenodd" d="M13.0611 29.3257L13.0195 25.8731C13.0195 25.4987 13.2275 25.2075 13.5187 25.2075H15.9314C16.2226 25.2075 16.4305 25.4987 16.4305 25.8315L16.4721 29.2841C16.4721 29.6585 16.2642 29.9497 15.973 29.9497H13.5603C13.2691 29.9913 13.0611 29.7001 13.0611 29.3257Z" fill="white"/>
<path fill-rule="evenodd" clip-rule="evenodd" d="M13.0201 23.71L12.9785 20.2573C12.9785 19.883 13.1865 19.5918 13.4777 19.5918H15.8904C16.1815 19.5918 16.3895 19.883 16.3895 20.2158L16.4311 23.6684C16.4311 24.0428 16.2231 24.3339 15.932 24.3339H13.5193C13.2281 24.3339 13.0201 24.0428 13.0201 23.71Z" fill="white"/>
<path fill-rule="evenodd" clip-rule="evenodd" d="M12.9791 18.0521L12.9375 14.5995C12.9375 14.2251 13.1455 13.934 13.4367 13.934H15.8493C16.1405 13.934 16.3485 14.2251 16.3485 14.5579L16.3901 18.0105C16.3901 18.3849 16.1821 18.6761 15.8909 18.6761H13.4783C13.1871 18.7177 12.9791 18.4265 12.9791 18.0521Z" fill="white"/>
<path fill-rule="evenodd" clip-rule="evenodd" d="M4.16074 12.3532L4.11914 8.90059C4.11914 8.52621 4.32713 8.23499 4.61831 8.23499H7.03098C7.32216 8.23499 7.53015 8.52617 7.53015 8.85895L7.57175 12.3116C7.57175 12.686 7.36376 12.9771 7.07258 12.9771H4.65991C4.41032 13.0187 4.16074 12.7275 4.16074 12.3532Z" fill="white"/>
<path fill-rule="evenodd" clip-rule="evenodd" d="M8.69394 12.312L8.65234 8.8594C8.65234 8.48502 8.86033 8.19385 9.15152 8.19385H11.5642C11.8554 8.19385 12.0634 8.48503 12.0634 8.81781L12.105 12.2704C12.105 12.6448 11.897 12.936 11.6058 12.936H9.19311C8.90193 12.936 8.69394 12.6448 8.69394 12.312Z" fill="white"/>
<path fill-rule="evenodd" clip-rule="evenodd" d="M12.9361 12.27L12.8945 8.81741C12.8945 8.44303 13.1025 8.15186 13.3937 8.15186H15.8064C16.0976 8.15186 16.3055 8.44304 16.3055 8.77582L16.3471 12.2284C16.3471 12.6028 16.1392 12.894 15.848 12.894H13.4353C13.1441 12.894 12.9361 12.6028 12.9361 12.27Z" fill="white"/>
<path fill-rule="evenodd" clip-rule="evenodd" d="M17.0963 23.6679L17.0547 20.2152C17.0547 19.8409 17.2627 19.5497 17.5539 19.5497H19.9665C20.2577 19.5497 20.4657 19.8409 20.4657 20.1736L20.5073 23.6262C20.5073 24.0006 20.2993 24.2918 20.0081 24.2918H17.5955C17.3043 24.3334 17.0963 24.0422 17.0963 23.6679Z" fill="white"/>
<path fill-rule="evenodd" clip-rule="evenodd" d="M17.0553 18.0521L17.0137 14.5995C17.0137 14.2251 17.2217 13.934 17.5128 13.934H19.9255C20.2167 13.934 20.4247 14.2251 20.4247 14.5579L20.4663 18.0105C20.4663 18.3849 20.2583 18.6761 19.9671 18.6761H17.5544C17.2633 18.6761 17.0553 18.3849 17.0553 18.0521Z" fill="white"/>
<path fill-rule="evenodd" clip-rule="evenodd" d="M17.0123 12.2289L16.9707 8.77627C16.9707 8.40189 17.1787 8.11072 17.4699 8.11072H19.8825C20.1737 8.11072 20.3817 8.4019 20.3817 8.73468L20.4233 12.1873C20.4233 12.5616 20.2153 12.8529 19.9241 12.8529H17.5115C17.2203 12.8945 17.0123 12.6033 17.0123 12.2289Z" fill="white"/>
<path d="M19.1138 21.5731L14.2617 27.1664L14.8273 27.6571L19.6794 22.0638L19.1138 21.5731Z" fill="white"/>
<path d="M18.5801 10.9141L13.7266 16.5059L14.292 16.9967L19.1456 11.4049L18.5801 10.9141Z" fill="white"/>
<path d="M31.114 1.91342H27.9941V0.249512H36.2721V1.91342H33.1107V11.1897H31.114V1.91342Z" fill="white"/>
<path d="M36.2297 5.82393C36.2297 4.74239 36.2297 3.99364 36.1465 3.28648H37.8936L37.9768 4.78399H38.06C38.4344 3.66085 39.3911 3.07849 40.2231 3.07849C40.431 3.07849 40.5142 3.07848 40.6806 3.12008V4.99198C40.5142 4.95038 40.3479 4.90875 40.0983 4.90875C39.1415 4.90875 38.476 5.53276 38.3096 6.40631C38.268 6.5727 38.2264 6.78069 38.2264 7.03027V11.1068H36.2297V5.82393Z" fill="white"/>
<path d="M45.9234 11.19L45.7986 10.3164H45.757C45.2578 10.9404 44.4258 11.3564 43.4275 11.3564C41.8468 11.3564 40.9316 10.1917 40.9316 8.98534C40.9316 6.98865 42.7203 5.99033 45.6322 5.99033V5.86552C45.6322 5.36634 45.4242 4.49277 44.0099 4.49277C43.2195 4.49277 42.4292 4.74237 41.8884 5.07515L41.514 3.78563C42.0964 3.41125 43.1363 3.07849 44.3842 3.07849C46.9217 3.07849 47.6289 4.7008 47.6289 6.40631V9.27651C47.6289 9.98367 47.6705 10.6909 47.7537 11.19H45.9234ZM45.6322 7.32144C44.2179 7.27984 42.8867 7.61262 42.8867 8.77735C42.8867 9.56771 43.3859 9.90047 44.0099 9.90047C44.8002 9.90047 45.3826 9.40131 45.549 8.81894C45.5906 8.65255 45.6322 8.52777 45.6322 8.36138V7.32144Z" fill="white"/>
<path d="M49.2922 5.65753C49.2922 4.74238 49.2922 3.99364 49.209 3.28648H50.9561L51.0393 4.45118H51.0809C51.4137 3.82722 52.2872 3.07849 53.5767 3.07849C54.9495 3.07849 56.3638 3.95202 56.3638 6.48948V11.19H54.3671V6.73906C54.3671 5.61592 53.9511 4.7424 52.8696 4.7424C52.0792 4.7424 51.5385 5.32474 51.3305 5.9071C51.2473 6.07349 51.2473 6.32307 51.2473 6.57266V11.2316H49.2506V5.65753H49.2922Z" fill="white"/>
<path d="M58.0697 9.35916C58.5273 9.65034 59.4008 9.94154 60.108 9.94154C60.9815 9.94154 61.3559 9.56712 61.3559 9.06795C61.3559 8.52718 61.0231 8.23602 60.0664 7.90324C58.5273 7.36247 57.8617 6.53052 57.9033 5.61537C57.9033 4.20105 59.068 3.11951 60.8983 3.11951C61.7719 3.11951 62.5206 3.32749 62.9782 3.57707L62.6038 4.9914C62.2711 4.78341 61.6471 4.53384 60.9399 4.53384C60.2328 4.53384 59.8168 4.86662 59.8168 5.36579C59.8168 5.86496 60.1912 6.11453 61.1895 6.48891C62.6038 6.98808 63.2694 7.73686 63.311 8.9016C63.311 10.3159 62.1879 11.3558 60.108 11.3558C59.1512 11.3558 58.2777 11.1479 57.6953 10.8151L58.0697 9.35916Z" fill="white"/>
<path d="M64.5168 5.9071C64.5168 4.86716 64.4752 4.03524 64.4336 3.28648H66.1807L66.2639 4.49277H66.3055C66.8879 3.61922 67.803 3.07849 69.0093 3.07849C70.8396 3.07849 72.3372 4.61759 72.3372 7.11345C72.3372 9.98369 70.5485 11.3564 68.7182 11.3564C67.7198 11.3564 66.8879 10.9404 66.5135 10.3164H66.4719V14.393H64.4752V5.9071H64.5168ZM66.5135 7.90381C66.5135 8.1118 66.5135 8.27816 66.5967 8.44455C66.8047 9.27651 67.5118 9.85888 68.3438 9.85888C69.5917 9.85888 70.3405 8.81897 70.3405 7.23826C70.3405 5.82394 69.6749 4.70076 68.3854 4.70076C67.5534 4.70076 66.8047 5.28313 66.5967 6.15668C66.5551 6.32307 66.5135 6.48949 66.5135 6.65588V7.90381Z" fill="white"/>
<path d="M81.1143 7.15503C81.1143 10.0669 79.076 11.3564 77.0377 11.3564C74.7914 11.3564 73.0859 9.81731 73.0859 7.27985C73.0859 4.70079 74.7914 3.07849 77.1625 3.07849C79.5752 3.12009 81.1143 4.78397 81.1143 7.15503ZM75.1658 7.23826C75.1658 8.77737 75.9146 9.90047 77.1209 9.90047C78.2441 9.90047 79.0344 8.77733 79.0344 7.19662C79.0344 5.94869 78.4936 4.53441 77.1209 4.53441C75.7482 4.57601 75.1658 5.94873 75.1658 7.23826Z" fill="white"/>
<path d="M82.3625 5.82393C82.3625 4.74239 82.3625 3.99364 82.2793 3.28648H84.0264L84.1096 4.78399H84.1928C84.5672 3.66085 85.5239 3.07849 86.3559 3.07849C86.5639 3.07849 86.6471 3.07848 86.8134 3.12008V4.99198C86.6471 4.95038 86.4807 4.90875 86.2311 4.90875C85.2743 4.90875 84.6088 5.53276 84.4424 6.40631C84.4008 6.5727 84.3592 6.78069 84.3592 7.03027V11.1068H82.3625V5.82393Z" fill="white"/>
<path d="M90.3901 1.04016V3.28645H92.3036V4.78395H90.3901V8.27817C90.3901 9.23492 90.6397 9.73409 91.4301 9.73409C91.7629 9.73409 92.0125 9.69246 92.2204 9.65086L92.262 11.19C91.9709 11.3148 91.4301 11.398 90.8061 11.398C90.0574 11.398 89.475 11.1484 89.1006 10.7324C88.6846 10.2748 88.4767 9.56769 88.4767 8.52775V4.82554H87.3535V3.32803H88.4767V1.53931L90.3901 1.04016Z" fill="white"/>
<path d="M97.8374 11.19L97.7126 10.3164H97.671C97.1719 10.9404 96.3399 11.3564 95.3416 11.3564C93.7609 11.3564 92.8457 10.1917 92.8457 8.98534C92.8457 6.98865 94.6344 5.99033 97.5462 5.99033V5.86552C97.5462 5.36634 97.3383 4.49277 95.9239 4.49277C95.1336 4.49277 94.3432 4.74237 93.8025 5.07515L93.4281 3.78563C94.0104 3.41125 95.0504 3.07849 96.2983 3.07849C98.8358 3.07849 99.5429 4.7008 99.5429 6.40631V9.27651C99.5429 9.98367 99.5845 10.6909 99.6677 11.19H97.8374ZM97.5878 7.32144C96.1735 7.27984 94.8424 7.61262 94.8424 8.77735C94.8424 9.56771 95.3416 9.90047 95.9655 9.90047C96.7559 9.90047 97.3383 9.40131 97.5046 8.81894C97.5462 8.65255 97.5878 8.52777 97.5878 8.36138V7.32144Z" fill="white"/>
<path d="M103.41 1.04016V3.28645H105.323V4.78395H103.41V8.27817C103.41 9.23492 103.659 9.73409 104.45 9.73409C104.782 9.73409 105.032 9.69246 105.24 9.65086L105.282 11.19C104.99 11.3148 104.45 11.398 103.826 11.398C103.077 11.398 102.495 11.1484 102.12 10.7324C101.704 10.2748 101.496 9.56769 101.496 8.52775V4.82554H100.373V3.32803H101.496V1.53931L103.41 1.04016Z" fill="white"/>
<path d="M108.528 1.08153C108.528 1.6639 108.07 2.16306 107.404 2.16306C106.739 2.16306 106.281 1.7055 106.281 1.08153C106.281 0.457564 106.739 0 107.404 0C108.112 0 108.528 0.457564 108.528 1.08153ZM106.406 11.1898V3.28623H108.403V11.1898H106.406Z" fill="white"/>
<path d="M117.679 7.15503C117.679 10.0669 115.64 11.3564 113.602 11.3564C111.356 11.3564 109.65 9.81731 109.65 7.27985C109.65 4.70079 111.356 3.07849 113.727 3.07849C116.098 3.12009 117.679 4.78397 117.679 7.15503ZM111.73 7.23826C111.73 8.77737 112.479 9.90047 113.685 9.90047C114.808 9.90047 115.599 8.77733 115.599 7.19662C115.599 5.94869 115.058 4.53441 113.685 4.53441C112.313 4.57601 111.73 5.94873 111.73 7.23826Z" fill="white"/>
<path d="M118.927 5.65753C118.927 4.74238 118.927 3.99364 118.844 3.28648H120.591L120.674 4.45118H120.716C121.048 3.82722 121.922 3.07849 123.212 3.07849C124.584 3.07849 125.999 3.95202 125.999 6.48948V11.19H124.002V6.73906C124.002 5.61592 123.586 4.7424 122.504 4.7424C121.714 4.7424 121.173 5.32474 120.965 5.9071C120.882 6.07349 120.882 6.32307 120.882 6.57266V11.2316H118.885V5.65753H118.927Z" fill="white"/>
</svg>
